<?xml version="1.0" standalone="no"?>
<!DOCTYPE svg PUBLIC "-//W3C//DTD SVG 1.1//EN" "http://www.w3.org/Graphics/SVG/1.1/DTD/svg11.dtd">
<svg width="100%" height="100%" viewBox="0 0 18 21" version="1.1" xmlns="http://www.w3.org/2000/svg" xmlns:xlink="http://www.w3.org/1999/xlink" xml:space="preserve" style="fill-rule:evenodd;clip-rule:evenodd;stroke-linejoin:round;stroke-miterlimit:1.41421;">
    <g id="Ebene 1" transform="matrix(0.0264706,0,0,0.0272727,-1.39301,-2.20238)">
        <g id="path3657" transform="matrix(0.86339,0,0,0.86339,53.6862,63.6656)">
            <path d="M71.03,795.722C71.03,795.722 60.225,807.376 57.367,816.837C55.37,823.448 54.59,833.304 58.195,839.194C60.84,843.516 64.307,847.888 69.374,847.889C289.666,847.921 533.289,848.245 704.697,848.717C710.499,848.733 721.507,847.714 726.019,841.264C730.618,834.69 730.504,820.035 727.261,812.697C723.845,804.969 707.802,801.518 707.802,801.518L71.03,795.722Z" style="fill:rgb(38,38,38);"/>
        </g>
        <g transform="matrix(0.887549,0,0,0.887549,90.8991,124.08)">
            <path d="M579.693,479.908C587.153,479.909 594.879,485.661 597.04,492.817L667.931,727.522C670.093,734.678 665.816,740.431 658.357,740.431L27.469,740.431C17.678,740.431 12.091,732.85 14.928,723.457L83.341,496.845C86.177,487.452 96.341,479.909 106.133,479.908L160.704,479.908L150.329,514.155C196.641,553.186 264.607,577.836 340.359,577.836C416.454,577.836 484.667,552.967 530.991,513.629L520.637,479.908L579.693,479.908Z" style="fill:rgb(45,45,45);"/>
        </g>
        <g id="path2843" transform="matrix(0.86339,0,0,0.86339,53.6862,63.6656)">
            <path d="M236.891,468.939L197.636,598.515C245.244,638.638 315.112,663.978 392.984,663.978C471.207,663.978 541.329,638.413 588.95,597.974L549.425,469.247C513.037,498.278 456.643,516.917 393.331,516.917C329.811,516.917 273.266,498.134 236.891,468.939L236.891,468.939Z" style="fill:black;fill-opacity:0.364706;"/>
        </g>
        <g transform="matrix(0.887549,0,0,0.887549,90.8991,124.08)">
            <path d="M507.109,435.849L553.557,587.073C553.557,587.073 553.968,610.354 538.525,626.733C527.847,638.058 516.175,648.273 493.66,656.129C445.828,672.818 416.017,679.998 342.838,679.215C277.127,678.513 234.898,676.378 193.986,660.29C134.881,637.047 127.537,589.363 127.537,589.363L294.551,38.045C296.621,32.413 300.082,24.592 304.464,21.299C314.062,14.084 323.636,12.874 339.909,13.038C352.315,13.163 367.778,12.828 377.983,22.5C379.347,23.793 380.614,25.683 381.775,27.794L492.538,388.409C457.141,416.647 402.283,434.778 340.697,434.778C278.906,434.778 223.901,416.506 188.515,388.106L150.329,514.155C196.641,553.186 264.607,577.836 340.359,577.836C416.454,577.836 484.667,552.967 530.991,513.629L507.109,435.849ZM409.26,117.347C391.239,123.394 366.613,127.147 339.421,127.147C312.671,127.147 288.385,123.521 270.445,117.647L230.156,250.68C257.238,264.853 296.893,273.809 341.11,273.809C384.454,273.809 423.446,265.232 450.488,251.543L409.26,117.347Z" style="fill:black;"/>
        </g>
        <g id="path2829" transform="matrix(0.86339,0,0,0.86339,53.6862,63.6656)">
            <path d="M463.813,190.603C445.287,196.82 419.972,200.678 392.019,200.678C364.521,200.678 339.555,196.951 321.113,190.912L279.697,327.667C307.537,342.237 348.302,351.444 393.756,351.444C438.312,351.444 478.396,342.627 506.194,328.555L463.813,190.603Z" style="fill:black;fill-opacity:0.298039;"/>
        </g>
        <g id="path3673" transform="matrix(0.86339,0,0,0.86339,53.6862,63.6656)">
            <path d="M58.195,815.802C58.195,815.802 60.299,821.103 65.094,823.303C69.133,825.153 84.486,824.498 84.486,824.498C84.486,824.498 508.302,824.499 715.668,824.498C719.063,824.497 722.658,824.446 725.747,823.039C729.075,821.523 729.722,817.852 729.722,817.852C729.722,817.852 731.355,824.305 727.619,828.269C724.971,831.079 720.254,831.122 716.393,831.123C507.436,831.17 289.147,831.123 77.436,831.123C71.954,831.121 65.074,831.603 61.383,827.551C56.378,822.057 58.195,815.802 58.195,815.802L58.195,815.802Z" style="fill:rgb(77,77,77);"/>
        </g>
    </g>
</svg>
