<svg width="32" height="32" viewBox="0 0 32 32" fill="none" xmlns="http://www.w3.org/2000/svg">
<path d="M6 7.2C6 4.8804 7.8804 3 10.2 3H21.8C24.1196 3 26 4.88041 26 7.2V28C26 28.3755 25.7896 28.7194 25.4553 28.8904C25.1209 29.0613 24.7189 29.0305 24.4145 28.8107L16 22.7335L7.58549 28.8107C7.28106 29.0305 6.87911 29.0613 6.54475 28.8904C6.21039 28.7194 6 28.3755 6 28V7.2ZM10.2 5C8.98497 5 8 5.98497 8 7.2V26.0442L15.4145 20.6893C15.764 20.4369 16.2359 20.4369 16.5854 20.6893L24 26.0442V7.2C24 5.98497 23.015 5 21.8 5H10.2Z" fill="#212121"/>
</svg>
