<svg id="Calque_1" data-name="Calque 1" xmlns="http://www.w3.org/2000/svg" viewBox="0 0 48 48"><title>Icon-Effects</title><path d="M32.8,33.71h0a4.45,4.45,0,0,0-8.71,0H8v1.76H24.09a4.45,4.45,0,0,0,8.71,0H40V33.71Zm-4.35,3.53a2.65,2.65,0,1,1,2.66-2.65A2.66,2.66,0,0,1,28.45,37.24Z"/><path d="M36.35,12.53h0a4.45,4.45,0,0,0-8.71,0H8v1.76H27.64a4.45,4.45,0,0,0,8.71,0H40V12.53ZM32,16.06a2.65,2.65,0,1,1,2.67-2.65A2.67,2.67,0,0,1,32,16.06Z"/><path d="M22.13,23.12h0a4.45,4.45,0,0,0-8.71,0H8v1.76h5.42a4.45,4.45,0,0,0,8.71,0H40V23.12Zm-4.35,3.53A2.65,2.65,0,1,1,20.45,24,2.67,2.67,0,0,1,17.78,26.65Z"/></svg>