<svg id="Calque_1" data-name="Calque 1" xmlns="http://www.w3.org/2000/svg" viewBox="0 0 48 48"><defs><style>.cls-1{fill-rule:evenodd;}</style></defs><title>Icon-Search</title><path class="cls-1" d="M39.23,16.08a11.73,11.73,0,0,0-1.08-2.63,11,11,0,0,0-1.69-2.22A10.58,10.58,0,0,0,34.29,9.5,10.41,10.41,0,0,0,28.88,8a10.41,10.41,0,0,0-5.41,1.5,10.64,10.64,0,0,0-2.18,1.73,11.37,11.37,0,0,0-1.68,2.22A11.15,11.15,0,0,0,18.15,19a10.93,10.93,0,0,0,.64,3.74A11.24,11.24,0,0,0,20.63,26L8.68,38.3a1,1,0,0,0,0,1.4.93.93,0,0,0,1.37,0L22,27.45a10.45,10.45,0,0,0,3.21,1.89,10.22,10.22,0,0,0,3.65.66,10.41,10.41,0,0,0,5.41-1.5,10.58,10.58,0,0,0,2.17-1.73,11,11,0,0,0,1.69-2.22,11.73,11.73,0,0,0,1.08-2.63,11.41,11.41,0,0,0,0-5.84M37,22.5a9.2,9.2,0,0,1-1.89,2.86,9,9,0,0,1-2.79,1.93,8.57,8.57,0,0,1-6.83,0,8.93,8.93,0,0,1-4.67-4.79,9.22,9.22,0,0,1,0-7,8.93,8.93,0,0,1,4.67-4.79,8.57,8.57,0,0,1,6.83,0,9,9,0,0,1,2.79,1.93A9.2,9.2,0,0,1,37,15.5a9.22,9.22,0,0,1,0,7"/></svg>