<?xml version="1.0" encoding="UTF-8" standalone="no"?>
<!-- Created with Inkscape (http://www.inkscape.org/) -->

<svg
   xmlns:dc="http://purl.org/dc/elements/1.1/"
   xmlns:cc="http://creativecommons.org/ns#"
   xmlns:rdf="http://www.w3.org/1999/02/22-rdf-syntax-ns#"
   xmlns:svg="http://www.w3.org/2000/svg"
   xmlns="http://www.w3.org/2000/svg"
   xmlns:sodipodi="http://sodipodi.sourceforge.net/DTD/sodipodi-0.dtd"
   xmlns:inkscape="http://www.inkscape.org/namespaces/inkscape"
   width="48"
   height="48"
   viewBox="0 0 48 48"
   id="svg2"
   version="1.1"
   inkscape:version="0.92.4 (5da689c313, 2019-01-14)"
   sodipodi:docname="search.svg">
  <defs
     id="defs8">
    <inkscape:path-effect
       is_visible="true"
       id="path-effect6553-2-5"
       effect="spiro" />
  </defs>
  <sodipodi:namedview
     pagecolor="#ffffff"
     bordercolor="#666666"
     borderopacity="1"
     objecttolerance="10"
     gridtolerance="10"
     guidetolerance="10"
     inkscape:pageopacity="0"
     inkscape:pageshadow="2"
     inkscape:window-width="2560"
     inkscape:window-height="1321"
     id="namedview6"
     showgrid="true"
     inkscape:zoom="11.313709"
     inkscape:cx="28.135974"
     inkscape:cy="23.153461"
     inkscape:window-x="0"
     inkscape:window-y="58"
     inkscape:window-maximized="1"
     inkscape:current-layer="layer1"
     showguides="true"
     inkscape:guide-bbox="true">
    <sodipodi:guide
       position="0,24.017661"
       orientation="1,0"
       id="guide2390"
       inkscape:locked="false" />
    <inkscape:grid
       type="xygrid"
       id="grid4485" />
  </sodipodi:namedview>
  <metadata
     id="metadata7">
    <rdf:RDF>
      <cc:Work
         rdf:about="">
        <dc:format>image/svg+xml</dc:format>
        <dc:type
           rdf:resource="http://purl.org/dc/dcmitype/StillImage" />
        <dc:title></dc:title>
      </cc:Work>
    </rdf:RDF>
  </metadata>
  <g
     inkscape:label="Master"
     inkscape:groupmode="layer"
     id="layer1"
     transform="translate(-384,-1004.3622)"
     style="display:inline">
    <g
       id="g865"
       transform="matrix(0.76814669,-0.76814669,0.76814669,0.76814669,-724.83005,586.25529)">
      <path
         sodipodi:nodetypes="cccccc"
         inkscape:connector-curvature="0"
         id="path821-6"
         d="m 451.88477,1031.3622 c -0.94341,0.19 -1.90291,0.2888 -2.86524,0.2949 -0.6758,0 -1.35051,-0.055 -2.01953,-0.1504 v 17.0801 c 2.1026,1.3268 3.52224,0.6995 4.88477,0 z"
         style="display:inline;fill:#000000;fill-opacity:1;stroke:none;stroke-width:1.13385785;stroke-miterlimit:4;stroke-dasharray:none;stroke-opacity:1" />
      <path
         id="path821"
         transform="translate(384,1004.3622)"
         d="M 65.423828,0.10351562 A 12.986558,12.986558 0 0 0 52.503906,13.136719 12.986558,12.986558 0 0 0 65.513672,26.078125 12.986558,12.986558 0 0 0 78.478516,13.089844 V 13 A 12.986558,12.986558 0 0 0 65.423828,0.10351562 Z M 65.443359,3.0625 A 10.006896,10.006896 0 0 1 75.501953,13 v 0.07031 A 10.006896,10.006896 0 0 1 65.513672,23.076172 10.006896,10.006896 0 0 1 55.488281,13.105469 10.006896,10.006896 0 0 1 65.443359,3.0625 Z"
         style="fill:#000000;fill-opacity:1;stroke:none;stroke-width:0.98166108;stroke-miterlimit:4;stroke-dasharray:none;stroke-opacity:1"
         inkscape:connector-curvature="0" />
    </g>
  </g>
</svg>
