<?xml version="1.0" encoding="utf-8"?>
<!-- Generator: Adobe Illustrator 24.0.3, SVG Export Plug-In . SVG Version: 6.00 Build 0)  -->
<svg version="1.1" id="Calque_1" xmlns="http://www.w3.org/2000/svg" xmlns:xlink="http://www.w3.org/1999/xlink" x="0px" y="0px"
	 viewBox="0 0 48 48" style="enable-background:new 0 0 48 48;" xml:space="preserve">
<title>Icon-Go-Forward</title>
<path d="M19.3,23.6h0.6V38h-1.6V25.8c-0.2,0.2-0.4,0.4-0.6,0.5c-0.3,0.2-0.6,0.3-0.9,0.5c-0.3,0.1-0.6,0.3-0.9,0.4
	c-0.3,0.1-0.5,0.2-0.8,0.3v-1.6c0.4-0.1,0.7-0.2,1.1-0.4c0.4-0.2,0.8-0.3,1.1-0.5c0.4-0.2,0.7-0.4,1.1-0.6S19,23.8,19.3,23.6z
	 M33.6,29.3c0,0.5,0,1.1,0,1.6s0,1-0.1,1.6c-0.1,0.6-0.1,1.1-0.3,1.7c-0.1,0.5-0.3,1.1-0.5,1.6c-0.2,0.5-0.5,0.9-0.8,1.3
	c-0.4,0.4-0.8,0.7-1.2,0.9c-0.5,0.2-1.1,0.3-1.7,0.3c-0.6,0-1.1-0.1-1.6-0.3c-0.4-0.2-0.8-0.5-1.2-0.9c-0.3-0.4-0.6-0.8-0.8-1.2
	c-0.2-0.5-0.4-1-0.5-1.5c-0.1-0.5-0.2-1-0.3-1.6c0-0.5-0.1-1-0.1-1.5s0-1.1,0.1-1.7c0-0.6,0.1-1.1,0.3-1.7c0.1-0.5,0.3-1.1,0.5-1.6
	c0.2-0.5,0.5-0.9,0.9-1.3c0.4-0.4,0.8-0.7,1.3-0.9c0.6-0.2,1.2-0.4,1.8-0.3c0.6,0,1.2,0.1,1.7,0.3c0.5,0.2,0.9,0.5,1.2,0.9
	c0.3,0.4,0.6,0.8,0.8,1.3c0.2,0.5,0.4,1,0.5,1.5C33.6,28.2,33.6,28.7,33.6,29.3z M32.1,31c0-0.3,0-0.7,0-1.1c0-0.4-0.1-0.9-0.1-1.3
	c-0.1-0.4-0.1-0.9-0.3-1.3c-0.1-0.4-0.3-0.8-0.5-1.1c-0.2-0.3-0.5-0.6-0.8-0.8C30,25.1,29.6,25,29.2,25c-0.4,0-0.8,0.1-1.2,0.3
	c-0.3,0.2-0.6,0.5-0.8,0.8c-0.2,0.4-0.4,0.8-0.5,1.2c-0.1,0.4-0.2,0.9-0.3,1.3c-0.1,0.5-0.1,0.9-0.1,1.4c0,0.4,0,0.8,0,1.1
	s0,0.7,0,1.1s0.1,0.8,0.1,1.3c0.1,0.4,0.2,0.8,0.3,1.2c0.1,0.4,0.3,0.7,0.5,1.1c0.2,0.3,0.5,0.6,0.8,0.8c0.4,0.2,0.8,0.3,1.2,0.3
	c0.4,0,0.8-0.1,1.2-0.3c0.3-0.2,0.6-0.5,0.8-0.8c0.2-0.3,0.4-0.7,0.5-1.1c0.1-0.4,0.2-0.8,0.3-1.3C32,33,32,32.6,32,32.1
	C32,31.7,32.1,31.3,32.1,31z M38,13.8v3.8c-0.7-1.2-1.6-2.3-2.7-3.3c-1-1-2.1-1.8-3.3-2.5c-1.2-0.7-2.5-1.2-3.9-1.6
	c-3.1-0.8-6.4-0.7-9.5,0.3c-3.3,1.1-6.3,3.3-8.3,6.2c-1.1,1.4-1.9,3.1-2.4,4.8l1.9,0.6c0.5-1.5,1.2-2.9,2.1-4.2
	c0.9-1.3,2-2.4,3.2-3.3c1.2-0.9,2.6-1.6,4.1-2.1c1.5-0.5,3.1-0.8,4.6-0.8c1.4,0,2.7,0.2,4,0.6c1.3,0.4,2.5,0.9,3.6,1.6
	c1.1,0.7,2.2,1.6,3.1,2.5c0.9,1,1.7,2.1,2.3,3.3h-5v2H40v-8.1H38z"/>
</svg>
