<?xml version="1.0" encoding="UTF-8" standalone="no"?>
<svg xmlns="http://www.w3.org/2000/svg"
   width="48"
   height="48"
   viewBox="0 0 48 48"
   >
  <g transform="translate(-2, 0)">
    <path
	d="M 26.23175,4.2207588 C 27.499175,3.0829563 29.515625,3.982495 29.515625,5.6858013 V 42.314103 c 0,1.703362 -2.016338,2.602912 -3.283875,1.465087 L 17,35.492103 c -0.98055,-0.8802 -2.2518,-1.3671 -3.569625,-1.3671 h -5.28975 c -3.2619263,0 -5.90625,-2.644313 -5.90625,-5.90625 v -8.4375 c 0,-3.261938 2.6443237,-5.90625 5.90625,-5.90625 h 5.28975 c 1.317825,0 2.589075,-0.4869 3.569625,-1.367213 z m 0.471375,3.3563025 -7.824263,7.0236787 c -1.496812,1.343588 -3.437212,2.086763 -5.448487,2.086763 h -5.28975 c -1.7086275,0 -3.09375,1.3851 -3.09375,3.09375 v 8.4375 c 0,1.70865 1.3851225,3.09375 3.09375,3.09375 h 5.28975 c 2.011275,0 3.951675,0.743175 5.448487,2.086762 l 7.824263,7.0236 z"
	style="fill:#212121;stroke-width:1.125" />
    <path
	d="m 32.3341,14.3994 c 0.4697,-0.5059 1.2606,-0.5352 1.7665,-0.0654 2e-4,2e-4 8e-4,7e-4 8e-4,7e-4 l 9e-4,8e-4 0.002,0.0019 0.0049,0.0046 0.0137,0.013 c 0.0107,0.0102 0.0248,0.0237 0.0418,0.0405 0.0341,0.0334 0.0804,0.0798 0.1371,0.1388 0.1134,0.1181 0.2689,0.2872 0.4523,0.5054 0.3661,0.4359 0.8468,1.072 1.3257,1.8929 0.9576,1.6417 1.9203,4.045 1.9203,7.0674 0,3.0224 -0.9627,5.4257 -1.9203,7.0673 -0.4789,0.821 -0.9596,1.457 -1.3257,1.8929 -0.1834,0.2183 -0.3389,0.3874 -0.4523,0.5054 -0.0567,0.0591 -0.103,0.1054 -0.1371,0.1389 l -0.0195,0.019 -0.0223,0.0215 -0.0137,0.0129 -0.0049,0.0046 -0.0028,0.0026 -9e-4,9e-4 c -0.5059,0.4697 -1.2968,0.4404 -1.7665,-0.0655 -0.4688,-0.5048 -0.4406,-1.2933 0.0621,-1.7635 l 0.0017,-0.0015 0.0161,-0.0157 c 0.0172,-0.0169 0.0461,-0.0457 0.0851,-0.0863 0.078,-0.0811 0.1959,-0.2089 0.3407,-0.3813 0.2901,-0.3453 0.6844,-0.8655 1.0805,-1.5446 0.7924,-1.3583 1.5798,-3.33 1.5798,-5.8076 0,-2.4776 -0.7874,-4.4493 -1.5798,-5.8077 -0.3961,-0.679 -0.7904,-1.1992 -1.0805,-1.5446 -0.1448,-0.1723 -0.2627,-0.3001 -0.3407,-0.3813 -0.039,-0.0406 -0.0679,-0.0694 -0.0851,-0.0862 l -0.0167,-0.0163 8e-4,8e-4 c -0.5052,-0.4698 -0.5336,-1.2596 -0.064,-1.7653 z"
	style="fill:#212121" />
  </g>
</svg>
