<?xml version="1.0" encoding="UTF-8" standalone="no"?>
<svg xmlns="http://www.w3.org/2000/svg" width="48" height="48" viewBox="0 0 48 48">
  <g transform="translate(-2, 0)">
    <path
	d="M 26.23175,4.2207588 C 27.499175,3.0829563 29.515625,3.982495 29.515625,5.6858013 V 42.314103 c 0,1.703362 -2.016338,2.602912 -3.283875,1.465087 L 17,35.492103 c -0.98055,-0.8802 -2.2518,-1.3671 -3.569625,-1.3671 h -5.28975 c -3.2619263,0 -5.90625,-2.644313 -5.90625,-5.90625 v -8.4375 c 0,-3.261938 2.6443237,-5.90625 5.90625,-5.90625 h 5.28975 c 1.317825,0 2.589075,-0.4869 3.569625,-1.367213 z m 0.471375,3.3563025 -7.824263,7.0236787 c -1.496812,1.343588 -3.437212,2.086763 -5.448487,2.086763 h -5.28975 c -1.7086275,0 -3.09375,1.3851 -3.09375,3.09375 v 8.4375 c 0,1.70865 1.3851225,3.09375 3.09375,3.09375 h 5.28975 c 2.011275,0 3.951675,0.743175 5.448487,2.086762 l 7.824263,7.0236 z"
	style="fill:#212121;stroke-width:1.125" />
  </g>
</svg>
