<?xml version="1.0" encoding="UTF-8" standalone="no"?>
<!-- Created with Inkscape (http://www.inkscape.org/) -->

<svg
   xmlns:dc="http://purl.org/dc/elements/1.1/"
   xmlns:cc="http://creativecommons.org/ns#"
   xmlns:rdf="http://www.w3.org/1999/02/22-rdf-syntax-ns#"
   xmlns:svg="http://www.w3.org/2000/svg"
   xmlns="http://www.w3.org/2000/svg"
   xmlns:sodipodi="http://sodipodi.sourceforge.net/DTD/sodipodi-0.dtd"
   xmlns:inkscape="http://www.inkscape.org/namespaces/inkscape"
   width="48"
   height="48"
   viewBox="0 0 48 48"
   id="svg2"
   version="1.1"
   inkscape:version="0.92.1 r15371"
   sodipodi:docname="volume-high.svg">
  <defs
     id="defs8">
    <inkscape:path-effect
       is_visible="true"
       id="path-effect6553-2-5"
       effect="spiro" />
  </defs>
  <sodipodi:namedview
     pagecolor="#ffffff"
     bordercolor="#666666"
     borderopacity="1"
     objecttolerance="10"
     gridtolerance="10"
     guidetolerance="10"
     inkscape:pageopacity="0"
     inkscape:pageshadow="2"
     inkscape:window-width="956"
     inkscape:window-height="1021"
     id="namedview6"
     showgrid="true"
     inkscape:zoom="39.333333"
     inkscape:cx="8.6345462"
     inkscape:cy="26.011994"
     inkscape:window-x="2560"
     inkscape:window-y="30"
     inkscape:window-maximized="0"
     inkscape:current-layer="layer1"
     showguides="true"
     inkscape:guide-bbox="true">
    <sodipodi:guide
       position="0,24.017661"
       orientation="1,0"
       id="guide2390"
       inkscape:locked="false" />
    <sodipodi:guide
       position="75.648441,0"
       orientation="0,1"
       id="guide33891"
       inkscape:locked="false" />
    <inkscape:grid
       type="xygrid"
       id="grid4487" />
  </sodipodi:namedview>
  <metadata
     id="metadata7">
    <rdf:RDF>
      <cc:Work
         rdf:about="">
        <dc:format>image/svg+xml</dc:format>
        <dc:type
           rdf:resource="http://purl.org/dc/dcmitype/StillImage" />
        <dc:title />
      </cc:Work>
    </rdf:RDF>
  </metadata>
  <g
     inkscape:label="Master"
     inkscape:groupmode="layer"
     id="layer1"
     transform="translate(-384,-1004.3622)"
     style="display:inline">
    <path
       style="color:#000000;display:inline;overflow:visible;visibility:visible;opacity:1;fill:#ff950d;fill-opacity:1;fill-rule:nonzero;stroke:none;stroke-width:6;stroke-linecap:round;stroke-linejoin:round;stroke-miterlimit:4;stroke-dasharray:none;stroke-dashoffset:0;stroke-opacity:1;marker:none;enable-background:accumulate"
       d="m 419.9199,1010.4667 -2.8222,2.8222 a 20.000103,20 0 0 1 6.9023,15.0977 20.000103,20 0 0 1 -6.7695,14.9648 l 2.7519,2.9063 a 24.000124,24 0 0 0 8.0176,-17.8711 24.000124,24 0 0 0 -8.0801,-17.9199 z m -5.6621,5.6621 -2.8418,2.8418 a 11.99999,12 0 0 1 4.584,9.416 11.99999,12 0 0 1 -4.2695,9.1602 l 2.7578,2.9101 a 15.99999,16 0 0 0 5.5117,-12.0703 15.99999,16 0 0 0 -5.7422,-12.2578 z m -5.6972,5.6973 -2.918,2.9179 a 4,4.0000067 0 0 1 2.3574,3.6426 4,4.0000067 0 0 1 -1.791,3.332 l 2.7676,2.9219 a 7.9999976,8.0000105 0 0 0 3.0234,-6.2539 7.9999976,8.0000105 0 0 0 -3.4394,-6.5605 z"
       id="path8581"
       inkscape:connector-curvature="0" />
    <path
       style="display:inline;fill:#747474;fill-opacity:1;fill-rule:evenodd;stroke:none;stroke-width:1px;stroke-linecap:butt;stroke-linejoin:miter;stroke-opacity:1"
       d="m 388,1020.3622 h 4 l 8,-8 h 4 v 32 h -4 l -8,-8 h -4 z"
       id="path8579"
       inkscape:connector-curvature="0"
       sodipodi:nodetypes="ccccccccc" />
  </g>
</svg>
