<?xml version="1.0" encoding="UTF-8" standalone="no"?>
<svg
   xmlns="http://www.w3.org/2000/svg"
   width="48"
   height="48"
   viewBox="0 0 48 48">
  <g transform="translate(-2, 0)">
    <path
       d="M 26.23175,4.2207588 C 27.499175,3.0829563 29.515625,3.982495 29.515625,5.6858013 V 42.314103 c 0,1.703362 -2.016338,2.602912 -3.283875,1.465087 L 17,35.492103 c -0.98055,-0.8802 -2.2518,-1.3671 -3.569625,-1.3671 h -5.28975 c -3.2619263,0 -5.90625,-2.644313 -5.90625,-5.90625 v -8.4375 c 0,-3.261938 2.6443237,-5.90625 5.90625,-5.90625 h 5.28975 c 1.317825,0 2.589075,-0.4869 3.569625,-1.367213 z m 0.471375,3.3563025 -7.824263,7.0236787 c -1.496812,1.343588 -3.437212,2.086763 -5.448487,2.086763 h -5.28975 c -1.7086275,0 -3.09375,1.3851 -3.09375,3.09375 v 8.4375 c 0,1.70865 1.3851225,3.09375 3.09375,3.09375 h 5.28975 c 2.011275,0 3.951675,0.743175 5.448487,2.086762 l 7.824263,7.0236 z"
       style="fill:#212121;stroke-width:1.125"/>
    <path
       d="m 36.3376,8.3956 c 0.4719,-0.50393 1.2629,-0.52992 1.7668,-0.05806 l 9e-4,8.3e-4 c 0,0 -0.3378,-0.3384 0.0098,0.00922 l 0.0185,0.01775 c 0.0149,0.01439 0.0349,0.0339 0.0597,0.05852 0.0495,0.04922 0.118,0.11888 0.2027,0.20882 0.1695,0.17983 0.4044,0.44105 0.6825,0.78239 0.5559,0.68223 1.2871,1.68743 2.0155,3.00523 1.4585,2.6384 2.9061,6.5323 2.9061,11.5797 0,5.0474 -1.4476,8.9412 -2.9061,11.5797 -0.7284,1.3177 -1.4596,2.3229 -2.0155,3.0052 -0.2781,0.3413 -0.513,0.6025 -0.6825,0.7824 -0.0246,0.0261 -0.0479,0.0506 -0.0698,0.0734 -0.0532,0.0553 -0.0978,0.1005 -0.1329,0.1354 -0.0248,0.0246 -0.0448,0.0441 -0.0597,0.0585 l -0.0185,0.0178 -0.0063,0.0059 -0.0025,0.0023 -10e-4,10e-4 0.2209,-0.2209 c 0.1064,-0.1064 0.1426,-0.1427 -0.2218,0.2217 -0.5039,0.4719 -1.2949,0.4459 -1.7668,-0.0581 -0.471,-0.503 -0.4459,-1.2922 0.0555,-1.7643 l 0.0018,-0.0017 0.0032,-0.0031 c 0.0059,-0.0057 0.0167,-0.0163 0.0323,-0.0317 0.031,-0.0309 0.0807,-0.0813 0.1463,-0.1509 0.1313,-0.1393 0.3262,-0.3554 0.5637,-0.6469 0.4753,-0.5834 1.1191,-1.4657 1.7657,-2.6354 1.2915,-2.3366 2.5944,-6.806999 2.5944,-10.3703 0,-3.563301 -1.3029,-8.0338 -2.5944,-10.3703 C 38.2595,12.4599 37.6157,11.5776 37.1404,10.9943 36.9029,10.7028 36.708,10.4867 36.5767,10.3473 36.5111,10.2777 36.4614,10.2274 36.4304,10.1965 36.4148,10.181 36.404,10.1704 36.3981,10.1647 L 36.3949,10.1617 36.3931,10.16 C 35.8917,9.68783 35.8666,8.89866 36.3376,8.3956 Z"
       style="fill:#212121"/>
    <path
       d="m 32.3341,14.3994 c 0.4697,-0.5059 1.2606,-0.5352 1.7665,-0.0654 2e-4,2e-4 8e-4,7e-4 8e-4,7e-4 l 9e-4,8e-4 0.002,0.0019 0.0049,0.0046 0.0137,0.013 c 0.0107,0.0102 0.0248,0.0237 0.0418,0.0405 0.0341,0.0334 0.0804,0.0798 0.1371,0.1388 0.1134,0.1181 0.2689,0.2872 0.4523,0.5054 0.3661,0.4359 0.8468,1.072 1.3257,1.8929 0.9576,1.6417 1.920825,4.045 1.920825,7.0674 0,3.0224 -0.963225,5.4257 -1.920825,7.0673 -0.4789,0.821 -0.9596,1.457 -1.3257,1.8929 -0.1834,0.2183 -0.3389,0.3874 -0.4523,0.5054 -0.0567,0.0591 -0.103,0.1054 -0.1371,0.1389 l -0.0195,0.019 -0.0223,0.0215 -0.0137,0.0129 -0.0049,0.0046 -0.0028,0.0026 -9e-4,9e-4 c -0.5059,0.4697 -1.2968,0.4404 -1.7665,-0.0655 -0.4688,-0.5048 -0.4406,-1.2933 0.0621,-1.7635 l 0.0017,-0.0015 0.0161,-0.0157 c 0.0172,-0.0169 0.0461,-0.0457 0.0851,-0.0863 0.078,-0.0811 0.1959,-0.2089 0.3407,-0.3813 0.2901,-0.3453 0.6844,-0.8655 1.0805,-1.5446 0.7924,-1.3583 1.5798,-3.33 1.5798,-5.8076 0,-2.4776 -0.7874,-4.4493 -1.5798,-5.8077 -0.3961,-0.679 -0.7904,-1.1992 -1.0805,-1.5446 -0.1448,-0.1723 -0.2627,-0.3001 -0.3407,-0.3813 -0.039,-0.0406 -0.0679,-0.0694 -0.0851,-0.0862 l -0.0167,-0.0163 8e-4,8e-4 c -0.5052,-0.4698 -0.5336,-1.2596 -0.064,-1.7653 z"
       style="fill:#212121"/>
    <path
       d="m 39.728338,2.9017913 c 0.4697,-0.5059 1.2606,-0.5352 1.7665,-0.0654 2.01e-4,2e-4 8e-4,7e-4 8e-4,7e-4 l 9e-4,8e-4 0.002,0.0019 0.0049,0.0046 0.0137,0.013 c 0.0107,0.0102 0.0248,0.0237 0.0418,0.0405 0.0341,0.0334 0.0804,0.0798 0.1371,0.1388 0.1134,0.1181 0.2689,0.2872 0.4523,0.5054 0.3661,0.4359 0.623079,0.8208694 1.394063,1.9115444 3.92509,5.7183893 6.38218,12.4219363 6.357321,18.6760353 -0.02486,6.2541 -2.274163,13.074473 -5.295079,17.674321 -0.4789,0.821 -0.9596,1.457 -1.3257,1.8929 -0.1834,0.2183 -0.3389,0.3874 -0.4523,0.5054 -0.0567,0.0591 -0.103,0.105401 -0.1371,0.1389 l -0.0195,0.019 -0.0223,0.0215 -0.0137,0.0129 -0.0049,0.0046 -0.0028,0.0026 -9e-4,9e-4 c -0.505901,0.4697 -1.2968,0.4404 -1.7665,-0.0655 -0.4688,-0.5048 -0.4406,-1.2933 0.0621,-1.7635 l 0.0017,-0.0015 0.0161,-0.01569 c 0.0172,-0.0169 0.0461,-0.0457 0.0851,-0.0863 0.078,-0.0811 0.1959,-0.2089 0.3407,-0.381301 0.2901,-0.345299 0.6844,-0.865499 1.0805,-1.5446 4.222973,-6.951625 5.066446,-11.865238 5.066446,-16.526487 0,-4.661249 -1.823768,-11.641436 -6.004392,-17.2547508 -0.420962,-0.6541928 -0.983062,-1.2676149 -1.273162,-1.6130149 -0.1448,-0.1723 -0.2627,-0.3001 -0.3407,-0.3813 -0.039,-0.0406 -0.0679,-0.0694 -0.0851,-0.0862 l -0.0167,-0.0163 8e-4,8e-4 c -0.5052,-0.4698 -0.5336,-1.2596 -0.064,-1.7653 z"
       style="fill:#212121;stroke-width:1"/>
  </g>
</svg>
