<?xml version="1.0" encoding="UTF-8" standalone="no"?>
<!-- Created with Inkscape (http://www.inkscape.org/) -->

<svg
   xmlns:dc="http://purl.org/dc/elements/1.1/"
   xmlns:cc="http://creativecommons.org/ns#"
   xmlns:rdf="http://www.w3.org/1999/02/22-rdf-syntax-ns#"
   xmlns:svg="http://www.w3.org/2000/svg"
   xmlns="http://www.w3.org/2000/svg"
   xmlns:sodipodi="http://sodipodi.sourceforge.net/DTD/sodipodi-0.dtd"
   xmlns:inkscape="http://www.inkscape.org/namespaces/inkscape"
   width="172"
   height="51.999996"
   viewBox="0 0 172 51.999996"
   version="1.1"
   id="svg2792"
   inkscape:version="0.92.1 r15371"
   sodipodi:docname="volume-slider-outside.svg">
  <defs
     id="defs2786" />
  <sodipodi:namedview
     id="base"
     pagecolor="#ffffff"
     bordercolor="#666666"
     borderopacity="1.0"
     inkscape:pageopacity="0.0"
     inkscape:pageshadow="2"
     inkscape:zoom="1.4"
     inkscape:cx="-137.50111"
     inkscape:cy="128.44006"
     inkscape:document-units="px"
     inkscape:current-layer="layer1"
     showgrid="false"
     fit-margin-top="0"
     fit-margin-left="0"
     fit-margin-right="0"
     fit-margin-bottom="0"
     inkscape:window-width="1920"
     inkscape:window-height="1016"
     inkscape:window-x="1366"
     inkscape:window-y="27"
     inkscape:window-maximized="1"
     units="px" />
  <metadata
     id="metadata2789">
    <rdf:RDF>
      <cc:Work
         rdf:about="">
        <dc:format>image/svg+xml</dc:format>
        <dc:type
           rdf:resource="http://purl.org/dc/dcmitype/StillImage" />
        <dc:title></dc:title>
      </cc:Work>
    </rdf:RDF>
  </metadata>
  <g
     inkscape:label="Layer 1"
     inkscape:groupmode="layer"
     id="layer1"
     transform="translate(-23.358932,-25.5375)">
    <path
       style="color:#000000;display:inline;overflow:visible;visibility:visible;opacity:1;fill:#747474;fill-opacity:1;fill-rule:evenodd;stroke:none;stroke-width:4.91200161;stroke-linecap:butt;stroke-linejoin:round;stroke-miterlimit:4;stroke-dasharray:none;stroke-dashoffset:4.19999981;stroke-opacity:1;marker:none;enable-background:accumulate"
       d="m 178.85895,29.537587 c -0.37304,0.002 -0.7443,0.0494 -1.10551,0.142564 v -0.0042 L 37.427342,65.652695 c -1.797506,0.430474 -3.066029,2.036459 -3.06841,3.884787 0,2.209146 1.790892,4.000014 3.999988,4.000014 h 140.50003 c 2.4853,0 4.49998,-2.014726 4.49998,-4.500017 V 34.037513 c 0,-2.485291 -2.01468,-4.500017 -4.49998,-4.500017 z m 0,3.001961 c 0.86151,0.002 1.49609,0.635701 1.49609,1.498056 v 35.000132 c 0,0.863973 -0.63598,1.500005 -1.49998,1.500005 H 38.35892 c -0.586809,0 -0.997984,-0.4118 -0.997984,-0.998052 0,-0.476494 0.301606,-0.857665 0.765581,-0.968753 a 3.0003005,3.0003115 0 0 0 0.04498,-0.01172 L 178.43523,32.598169 a 3.0003005,3.0003115 0 0 0 0.068,-0.01361 c 0.11414,-0.02948 0.23433,-0.0429 0.35943,-0.0449 z"
       id="path6770"
       inkscape:connector-curvature="0" />
  </g>
</svg>
