/* XPM */
static char * speaker_mute_xpm[] = {
"16 16 50 1",
" 	c None",
".	c #000000",
"+	c #FF0000",
"@	c #FB0400",
"#	c #E81717",
"$	c #880000",
"%	c #8D7272",
"&	c #966900",
"*	c #FFF700",
"=	c #837B7B",
"-	c #966969",
";	c #FF1B1B",
">	c #DA2400",
",	c #FFFF00",
"'	c #FFFFFF",
")	c #FFF3F3",
"!	c #D22D2D",
"~	c #808000",
"{	c #B64800",
"]	c #FF2424",
"^	c #FFDF00",
"/	c #808080",
"(	c #A55900",
"_	c #FF9797",
":	c #FF0300",
"<	c #FF3939",
"[	c #230000",
"}	c #867800",
"|	c #FF9999",
"1	c #FF0900",
"2	c #DD0000",
"3	c #FF9292",
"4	c #D82727",
"5	c #807E7E",
"6	c #4C0000",
"7	c #650000",
"8	c #DB0000",
"9	c #FF6D6D",
"0	c #FF5454",
"a	c #FF6565",
"b	c #817D7D",
"c	c #FFFBFB",
"d	c #FF7474",
"e	c #E11D1D",
"f	c #2D0000",
"g	c #837B00",
"h	c #FF8A8A",
"i	c #FA0404",
"j	c #F70000",
"k	c #E81700",
"         ..     ",
"     +++@#$%    ",
"    ++++++++    ",
"   +++&*=- ;+   ",
"  +++>,'. ')!+  ",
" ++~{+]^. ''/++ ",
" +(' _:<[.''/ + ",
" +}, ,|12 .'/ + ",
" +}, ',3+45'/ + ",
" +6~/,',789'/ + ",
" ++..~,'. 0ab++ ",
"  ++ .~,. cde+  ",
"   ++ fg=-h;+   ",
"    +++++++i    ",
"     +++jk$%    ",
"         ..     "};
