/* XPM */
static char * trash_xpm[] = {
"16 16 88 1",
" 	c None",
".	c #2C2C2C",
"+	c #6E6E6E",
"@	c #555555",
"#	c #161616",
"$	c #626154",
"%	c #6B6A5A",
"&	c #A1A095",
"*	c #9B9B98",
"=	c #A4A49D",
"-	c #A5A495",
";	c #5C5C50",
">	c #575649",
",	c #616057",
"'	c #D0CEBA",
")	c #CCCBBD",
"!	c #85847F",
"~	c #4C4C48",
"{	c #3D3C34",
"]	c #7E7C6B",
"^	c #B2B09E",
"/	c #B2B097",
"(	c #4D4C41",
"_	c #616059",
":	c #E0E0DB",
"<	c #EBEBE4",
"[	c #D8D7CD",
"}	c #CCCBBC",
"|	c #C0BEA8",
"1	c #B8B69D",
"2	c #C5C4AF",
"3	c #AAA996",
"4	c #414037",
"5	c #4D4D42",
"6	c #AAA99B",
"7	c #D6D5CE",
"8	c #EAE9E5",
"9	c #E2E1DE",
"0	c #D8D8CF",
"a	c #BCBBAE",
"b	c #9C9A89",
"c	c #737262",
"d	c #34332D",
"e	c #000000",
"f	c #41413C",
"g	c #888882",
"h	c #B3B2A8",
"i	c #BCBCAE",
"j	c #A3A18A",
"k	c #8F8D7A",
"l	c #606056",
"m	c #353530",
"n	c #676758",
"o	c #59594F",
"p	c #52524D",
"q	c #3D3D38",
"r	c #2A2A23",
"s	c #2E2E26",
"t	c #35352C",
"u	c #3D3D32",
"v	c #707060",
"w	c #919184",
"x	c #A0A098",
"y	c #707066",
"z	c #646458",
"A	c #606051",
"B	c #4D4D40",
"C	c #4E4E40",
"D	c #959587",
"E	c #B9B9AC",
"F	c #8E8E80",
"G	c #787868",
"H	c #7A7A67",
"I	c #565648",
"J	c #6E6E5D",
"K	c #939385",
"L	c #545445",
"M	c #46463C",
"N	c #868678",
"O	c #B2B2A5",
"P	c #8F8F82",
"Q	c #787865",
"R	c #515143",
"S	c #39392F",
"T	c #2F2F29",
"U	c #30302A",
"V	c #2C2C25",
"W	c #272720",
"                ",
"                ",
"      .+@#      ",
"    $%&*=-;>    ",
"   ,')!~{]^/(   ",
"   _:<[}|1234   ",
"   567890abcd   ",
"   efghijklme   ",
"   enopqrstue   ",
"   evwxyzABCe   ",
"   evDEFGHIIe   ",
"   eJKEFGHILe   ",
"   eMNOPGQRSe   ",
"     eTUVWe     ",
"                ",
"                "};
