/* XPM */
static char * type_vfile_xpm[] = {
"16 16 108 2",
"  	c None",
". 	c #8F8F8F",
"+ 	c #FFFFFF",
"@ 	c #B0B0B0",
"# 	c #A7A7A7",
"$ 	c #939393",
"% 	c #8B8B8B",
"& 	c #2B2B2B",
"* 	c #0C0C0C",
"= 	c #010101",
"- 	c #000000",
"; 	c #EFEFEF",
"> 	c #ECECEC",
", 	c #E8E8E8",
"' 	c #E9E9E9",
") 	c #DFDFDF",
"! 	c #DCDCDC",
"~ 	c #E3E3E3",
"{ 	c #DADADA",
"] 	c #D5D5D5",
"^ 	c #D4D4D4",
"/ 	c #D2D2D2",
"( 	c #A6A6A6",
"_ 	c #828181",
": 	c #F2F2F2",
"< 	c #FBFBFB",
"[ 	c #FAFAFA",
"} 	c #929292",
"| 	c #3B3A3A",
"1 	c #656769",
"2 	c #626261",
"3 	c #E6E6E5",
"4 	c #FDFDFD",
"5 	c #868685",
"6 	c #292827",
"7 	c #9CA4AF",
"8 	c #E1F2FF",
"9 	c #A6AEB4",
"0 	c #5B5C5B",
"a 	c #D7D7D7",
"b 	c #F8F8F8",
"c 	c #787777",
"d 	c #1D1D1D",
"e 	c #787C80",
"f 	c #B6C2D2",
"g 	c #E0F0FF",
"h 	c #F3FEFF",
"i 	c #C3C6C8",
"j 	c #666666",
"k 	c #CCCCCB",
"l 	c #F4F4F4",
"m 	c #707070",
"n 	c #767E86",
"o 	c #EAF8FF",
"p 	c #BFC6D0",
"q 	c #C4CCD6",
"r 	c #EBF4FF",
"s 	c #767575",
"t 	c #9C9C9C",
"u 	c #EDEDED",
"v 	c #636363",
"w 	c #0E0F0F",
"x 	c #595C60",
"y 	c #88909B",
"z 	c #E6F1FD",
"A 	c #F1FDFF",
"B 	c #D4DBE1",
"C 	c #CDCED0",
"D 	c #7B7B7A",
"E 	c #949494",
"F 	c #F7F7F7",
"G 	c #878787",
"H 	c #0E0E0E",
"I 	c #999A9B",
"J 	c #ABB3BB",
"K 	c #858D97",
"L 	c #CCD7E5",
"M 	c #B0B3B6",
"N 	c #676665",
"O 	c #A0A0A0",
"P 	c #E4E4E4",
"Q 	c #616161",
"R 	c #7E7E80",
"S 	c #F1F8FC",
"T 	c #F7FFFF",
"U 	c #A0ABB5",
"V 	c #363738",
"W 	c #363535",
"X 	c #AEAEAE",
"Y 	c #FCFCFC",
"Z 	c #F1F1F1",
"` 	c #FEFEFE",
" .	c #EEEEEE",
"..	c #686766",
"+.	c #76797D",
"@.	c #C5CFDC",
"#.	c #6A6D70",
"$.	c #3C3B3A",
"%.	c #BEBEBE",
"&.	c #A8A8A8",
"*.	c #F9F9F9",
"=.	c #F6F6F5",
"-.	c #767675",
";.	c #444444",
">.	c #525151",
",.	c #CFCFCF",
"'.	c #F0F0F0",
").	c #ADADAD",
". . . . . . . . . . . . . . . . ",
". + @ # $ % & * = - - - - - + . ",
". + ; > , ' ) ! ~ ~ { ] ^ / + . ",
". + + + + + + + ( _ : + < [ + . ",
". + + + + + + } | 1 2 3 4 : + . ",
". + + + + + 5 6 7 8 9 0 a b + . ",
". + + + [ c d e f g h i j k + . ",
". + + l m - n o p q r + s t + . ",
". + u v w x y z A B C D E F + . ",
". + G H I + J K L M N O 4 F + . ",
". + P Q R S T U V W X Y Z ; + . ",
". + `  ...+.@.#.$.%.< &.&.&.&.. ",
". + *.` =.-.;.>.,.+ '.&.+ + .   ",
". + < < ` b ).a + 4 : &.+ .     ",
". + + + + + + + + + Y &..       ",
". . . . . . . . . . . .         "};
