/* XPM */
static char * type_cdda_xpm[] = {
"16 16 119 2",
"  	c None",
". 	c #7E7E7E",
"+ 	c #A3A3A3",
"@ 	c #000000",
"# 	c #030303",
"$ 	c #BDCCFF",
"% 	c #C1CDF5",
"& 	c #D8DDF1",
"* 	c #C4CBE9",
"= 	c #C0C8F0",
"- 	c #646464",
"; 	c #A8A8A8",
"> 	c #DFF2FF",
", 	c #F9FDFF",
"' 	c #E0E7FB",
") 	c #B1C3F7",
"! 	c #F7FAFF",
"~ 	c #FFFFFF",
"{ 	c #DBDEEE",
"] 	c #727EB7",
"^ 	c #2A2928",
"/ 	c #BBBBBB",
"( 	c #E1E9FF",
"_ 	c #FEFFFD",
": 	c #BECDF6",
"< 	c #E5ECFC",
"[ 	c #E8EDFA",
"} 	c #747CAA",
"| 	c #85847F",
"1 	c #B8B8B8",
"2 	c #D4E6FF",
"3 	c #EBEEFB",
"4 	c #DDE5FB",
"5 	c #FEFFFF",
"6 	c #EFF3FE",
"7 	c #91ABF5",
"8 	c #B7BFE3",
"9 	c #7C7A7B",
"0 	c #878787",
"a 	c #1A1A1A",
"b 	c #D1E4FF",
"c 	c #D8E1F8",
"d 	c #FAFAFE",
"e 	c #FFFFFE",
"f 	c #D5E0FB",
"g 	c #EFF0F9",
"h 	c #FBFDFF",
"i 	c #AAC0FA",
"j 	c #B0C7FF",
"k 	c #DEF0FF",
"l 	c #8A8B8F",
"m 	c #A4A49F",
"n 	c #585857",
"o 	c #D1E5FF",
"p 	c #B9CAF5",
"q 	c #C7D4F8",
"r 	c #E4EBFC",
"s 	c #F1F5FF",
"t 	c #D4DDFD",
"u 	c #C1C9E9",
"v 	c #B2BEE9",
"w 	c #D7E6FF",
"x 	c #383428",
"y 	c #8B8C90",
"z 	c #D3E4FF",
"A 	c #ABBEF3",
"B 	c #BBCAF6",
"C 	c #CAD8F8",
"D 	c #CED9FC",
"E 	c #B5C5FC",
"F 	c #AFB4D7",
"G 	c #DDE6FF",
"H 	c #1D1B14",
"I 	c #34322B",
"J 	c #CFDCFF",
"K 	c #C2D8FF",
"L 	c #B8C8F4",
"M 	c #ABBDF4",
"N 	c #B8C9F6",
"O 	c #D1DCFB",
"P 	c #DAE2FE",
"Q 	c #AFBAE2",
"R 	c #CACDE3",
"S 	c #F8FBFF",
"T 	c #DAE7FF",
"U 	c #C5D8FF",
"V 	c #D5E6FF",
"W 	c #5E6592",
"X 	c #C4D3FF",
"Y 	c #9BB1F2",
"Z 	c #B0C4F5",
"` 	c #D6DDF5",
" .	c #F5F6FA",
"..	c #E2EAFC",
"+.	c #DCE7FF",
"@.	c #515886",
"#.	c #C0D9FF",
"$.	c #B3C5FA",
"%.	c #FDFDFF",
"&.	c #FAFCFF",
"*.	c #E6EBFD",
"=.	c #DBDDEE",
"-.	c #CADBFF",
";.	c #FFFEFE",
">.	c #FEFDFF",
",.	c #F9FAFE",
"'.	c #C7D4F7",
").	c #FDFDFE",
"!.	c #959AC1",
"~.	c #C7D7FF",
"{.	c #D2DEFC",
"].	c #DCE5FF",
"^.	c #AFB3D2",
"/.	c #ADC1FF",
"(.	c #C7D2FF",
"_.	c #DBE0FA",
":.	c #D7DFF6",
"<.	c #A1AEDC",
"[.	c #98A1CC",
"                              . ",
"                          + @ # ",
"        $ % & * =       @ @ - ; ",
"    > , ' ) ! ~ ~ { ]   ^     / ",
"    ( ~ _ : < ~ ~ ~ [ } |     1 ",
"  2 ~ ~ ~ 3 4 ~ 5 6 7 8 9 0 @ a ",
"  b c d e e f g h i j k l m n   ",
"  o p q r s t u v w x @ y       ",
"  z A B C D E   F G H I J       ",
"  K L M N O P Q R S T U V W     ",
"    X Y Z 5 e `  .~ e ..+.@.    ",
"    #.$.S %.~ &.*.~ ~ ~ =.      ",
"      -.~ ;.>.,.'.).~ ~ !.      ",
"        ~.~ ~ 5 {.].~ ^.        ",
"          /.(._.:.<.[.          ",
"                                "};
