/* XPM */
static char * type_afile_xpm[] = {
"16 16 107 2",
"  	c None",
". 	c #8F8F8F",
"+ 	c #FFFFFF",
"@ 	c #B7CFF9",
"# 	c #B8CFF8",
"$ 	c #BCD2F7",
"% 	c #AFCAF4",
"& 	c #93B7EE",
"* 	c #5B91E2",
"= 	c #4E88DE",
"- 	c #4481D9",
"; 	c #3A7AD6",
"> 	c #2F73D2",
", 	c #246CCD",
"' 	c #1663CA",
") 	c #F3F7FE",
"! 	c #F1F6FD",
"~ 	c #EFF5FD",
"{ 	c #F2F7FF",
"] 	c #F2F8FF",
"^ 	c #E8EFFB",
"/ 	c #E6EDF9",
"( 	c #E7EFFB",
"_ 	c #E2EAF7",
": 	c #DCE5F1",
"< 	c #D9E2EF",
"[ 	c #D6E1EE",
"} 	c #FFFFFE",
"| 	c #EFEEED",
"1 	c #D5D5D3",
"2 	c #CDCBC9",
"3 	c #CCCBC9",
"4 	c #D4D2D0",
"5 	c #EAE8E5",
"6 	c #FCFBF8",
"7 	c #FBFAF7",
"8 	c #F9F7F4",
"9 	c #FAFAFA",
"0 	c #CFCFCF",
"a 	c #A7A7A7",
"b 	c #818181",
"c 	c #696969",
"d 	c #686868",
"e 	c #808080",
"f 	c #A5A5A5",
"g 	c #C6C6C6",
"h 	c #EFEFEF",
"i 	c #F3F3F3",
"j 	c #D2D2D2",
"k 	c #B0B0B0",
"l 	c #858585",
"m 	c #828282",
"n 	c #989898",
"o 	c #999999",
"p 	c #838383",
"q 	c #848484",
"r 	c #AEAEAE",
"s 	c #CACACA",
"t 	c #F0F0F0",
"u 	c #F6F6F6",
"v 	c #BDBDBD",
"w 	c #9F9F9F",
"x 	c #E8E8E8",
"y 	c #C3C3C3",
"z 	c #A1A1A1",
"A 	c #ACACAC",
"B 	c #BBBBBB",
"C 	c #E4E4E4",
"D 	c #F4F4F4",
"E 	c #C9C9C9",
"F 	c #C2C2C2",
"G 	c #B8B8B8",
"H 	c #B9B9B9",
"I 	c #B5B5B5",
"J 	c #C1C1C1",
"K 	c #B1B1B1",
"L 	c #E5E5E5",
"M 	c #FEFEFE",
"N 	c #ABABAB",
"O 	c #EBEBEB",
"P 	c #C0C0C0",
"Q 	c #8B8B8B",
"R 	c #BABABA",
"S 	c #A6A6A6",
"T 	c #F1F1F1",
"U 	c #F9F9F9",
"V 	c #DEDEDE",
"W 	c #F2F2F2",
"X 	c #909090",
"Y 	c #D8D8D8",
"Z 	c #F5F5F5",
"` 	c #FCFCFC",
" .	c #DCDCDC",
"..	c #777777",
"+.	c #6D6D6D",
"@.	c #979797",
"#.	c #8C8C8C",
"$.	c #F7F7F7",
"%.	c #F8F8F8",
"&.	c #CECECE",
"*.	c #868686",
"=.	c #B2B2B2",
"-.	c #A8A8A8",
";.	c #EAEAEA",
">.	c #FBFBFB",
",.	c #FDFDFD",
"'.	c #EEEEEE",
". . . . . . . . . . . . . . . . ",
". + @ # $ % & * = - ; > , ' + . ",
". + ) ! ~ { ] ^ / ( _ : < [ + . ",
". + + + } | 1 2 3 4 5 6 7 8 + . ",
". + + 9 0 a b c d e f g h i + . ",
". + + j k l m n o p q r s t + . ",
". + u v r w s t x y z A B C + . ",
". + D k E F G H I r J s K L + . ",
". + M N J O P . Q R O E S T + . ",
". + U V . v W W t h J X Y 9 + . ",
". + Z `  ...+.. @.#.q s D h + . ",
". + $.%.$.&.*.l =.v g -.-.-.-.. ",
". + U U U U h C C ;.;.-.+ + .   ",
". + >.>.>.>.M M ,.+ '.-.+ .     ",
". + + + + + + + + + U -..       ",
". . . . . . . . . . . .         "};
