/* XPM */
static char * update_document_xpm[] = {
"34 34 102 2",
"  	c None",
". 	c #BCBCBC",
"+ 	c #F7F7F7",
"@ 	c #F3F3F3",
"# 	c #F1F1F1",
"$ 	c #EFEFEF",
"% 	c #ECECEC",
"& 	c #EAEAEA",
"* 	c #E9E9E9",
"= 	c #C2C2C2",
"- 	c #808080",
"; 	c #FFFFFF",
"> 	c #FEFEFE",
", 	c #FBFBFB",
"' 	c #F2F2F2",
") 	c #EEEEEE",
"! 	c #B2B2B2",
"~ 	c #E3E3E3",
"{ 	c #B1B1B1",
"] 	c #BDBDBD",
"^ 	c #C0C0C0",
"/ 	c #B6B6B6",
"( 	c #AFAFAF",
"_ 	c #A2A2A2",
": 	c #8E8E8E",
"< 	c #828282",
"[ 	c #EDEDED",
"} 	c #E2E2E2",
"| 	c #DBDBDB",
"1 	c #D0D0D0",
"2 	c #C4C4C4",
"3 	c #FAFAFA",
"4 	c #F4F4F4",
"5 	c #D8D8D8",
"6 	c #C9C9C9",
"7 	c #B5B5B5",
"8 	c #E6E6E6",
"9 	c #DCDCDC",
"0 	c #DADADA",
"a 	c #CCCCCC",
"b 	c #BEBEBE",
"c 	c #ADADAD",
"d 	c #A8A8A8",
"e 	c #EBEBEB",
"f 	c #DFDFDF",
"g 	c #D7D7D7",
"h 	c #D5D5D5",
"i 	c #C6C6C6",
"j 	c #F9F9F9",
"k 	c #F6F6F6",
"l 	c #E7E7E7",
"m 	c #CECECE",
"n 	c #AEAEAE",
"o 	c #ABABAB",
"p 	c #AAAAAA",
"q 	c #A4A4A4",
"r 	c #9F9F9F",
"s 	c #D1D1D1",
"t 	c #F8F8F8",
"u 	c #E0E0E0",
"v 	c #DEDEDE",
"w 	c #D3D3D3",
"x 	c #A6A6A6",
"y 	c #A5A5A5",
"z 	c #D2D2D2",
"A 	c #F5F5F5",
"B 	c #A1A1A1",
"C 	c #CBCBCB",
"D 	c #C8C8C8",
"E 	c #9D9D9D",
"F 	c #ACACAC",
"G 	c #E5E5E5",
"H 	c #E4E4E4",
"I 	c #9C9C9C",
"J 	c #DDDDDD",
"K 	c #A3A3A3",
"L 	c #E1E1E1",
"M 	c #9A9A9A",
"N 	c #A7A7A7",
"O 	c #A0A0A0",
"P 	c #9E9E9E",
"Q 	c #9B9B9B",
"R 	c #989898",
"S 	c #D4D4D4",
"T 	c #CDCDCD",
"U 	c #F0F0F0",
"V 	c #E8E8E8",
"W 	c #D6D6D6",
"X 	c #B9B9B9",
"Y 	c #969696",
"Z 	c #959595",
"` 	c #939393",
" .	c #B3B3B3",
"..	c #999999",
"+.	c #919191",
"@.	c #CACACA",
"#.	c #CFCFCF",
"$.	c #A9A9A9",
"%.	c #8C8C8C",
"&.	c #888888",
"*.	c #848484",
"=.	c #818181",
"        . . . . . . . . . . . . . . . .                             ",
"        . + + + + + + + + @ # $ % & * = -                           ",
"        . + ; ; ; ; ; ; ; ; > ; , ' ) = ; -                         ",
"        . + ; ; ; ; ; ; ; ; > ; ; , ' = ; ; -                       ",
"        . + ; ! ! ! ; ; ; ; > ; ; ; , = ~ ; ; -                     ",
"        . + ; ; ; ; ; ; ; ; > ; ; ; ; = ~ ~ ; ; -                   ",
"        . + ; ! ! ! ! ! ! ! { ! ! ; ; = ~ ~ ~ ; ; -                 ",
"        . + ; ; ; ; ; ; ; ; > ; ; ; ; = ~ ~ ~ ~ ; ; -               ",
"        . + ; ! ! ! ! ! ! ! { ! ! ; ; ] ^ . / ( _ : < -             ",
"        . + ; ; ; ; ; ; ; ; > ; ; ; ; , [ } * | 1 2 ( -             ",
"        . + ; ! ! ! ! ! ! ! ! ! ! ; ; ; 3 4 ~ ~ 5 6 7 -             ",
"        . + ; ; ; ; ; ; ; ; ; ; ; ; ; 3 3 ' 8 9 0 a b -             ",
"        . + ; ! ! ! ! ! ! ! ! ! ! ! ( c d d e f g h i -             ",
"        . + ; ; ; ; ; ; ; ; ; ; ; , j k $ $ [ l | 0 m -             ",
"        . + ; ! ! ! ! ! ! ! ! ! n c o p d q q r } 5 s -             ",
"        . + ; ; ; ; ; ; ; ; ; 3 t k 4 # $ * * l u v w -             ",
"        . + ; ! ! ! ! ! ! ! n c o p d x y q r r } 9 z -             ",
"        . + ; ; ; ; ; ; > 3 t A @ ' $ [ e * } } u 0 s -             ",
"        . + ; ! ! ! ! { c c o @ d x y q _ B r f f 9 z -             ",
"        . + ; ; ; ; , 3 + k @ # x C C 6 D i E 9 9 0 s -             ",
"        . + ; ! ! ( n F o p d $ q e * G H } I J g g 1 -             ",
"        . + ; ; , j t A @ # ) % K * G H L f M | h h m -             ",
"        . + ; ( c F o d N x q & B O P E Q M R 5 g S T -             ",
"        . + ; j k 4 ' U ) e * V H ~ L v J | 5 W S S m -             ",
"        X + 3 o p d N y q _ B r E E M M R Y Z ` z s T -             ",
"        7 + t 4 # $ [ e * l 8 } L v 9 | 5 W w z 1 T a -             ",
"         .+ A d x y q _ B O E I M ..R Y Z ` +.+.a @.C -             ",
"        ( + @ $ [ e * l H ~ u v 9 0 g h w s 1 C C @.6 -             ",
"        F + # y e _ B H } u J 9 0 g h w 1 #.C C C @.6 -             ",
"        F + ) e * l H ~ } u 9 | 5 S S s s T a @.@.@.6 -             ",
"        $.+ V 8 ~ L f 9 0 5 W S S z 1 #.m T a C 6 6 6 -             ",
"        $.x _ E M Y +.%.&.*.=.- - - - - - - - - - - - -             ",
"                                                                    ",
"                                                                    "};
