/* XPM */
static char * update_source_xpm[] = {
"34 34 143 2",
"  	c None",
". 	c #BCBCBC",
"+ 	c #F7F7F7",
"@ 	c #F3F3F3",
"# 	c #F1F1F1",
"$ 	c #EFEFEF",
"% 	c #ECECEC",
"& 	c #EAEAEA",
"* 	c #E9E9E9",
"= 	c #C2C2C2",
"- 	c #808080",
"; 	c #FFFFFF",
"> 	c #003377",
", 	c #CEDBEB",
"' 	c #FBFBFB",
") 	c #F2F2F2",
"! 	c #EEEEEE",
"~ 	c #BFD0E5",
"{ 	c #E3E3E3",
"] 	c #FEFEFE",
"^ 	c #004F33",
"/ 	c #BDCEE4",
"( 	c #C2E1CF",
"_ 	c #CCE6D7",
": 	c #B6DBC5",
"< 	c #BDBDBD",
"[ 	c #C0C0C0",
"} 	c #B6B6B6",
"| 	c #AFAFAF",
"1 	c #A2A2A2",
"2 	c #8E8E8E",
"3 	c #828282",
"4 	c #008437",
"5 	c #EDEDED",
"6 	c #E2E2E2",
"7 	c #DBDBDB",
"8 	c #D0D0D0",
"9 	c #C4C4C4",
"0 	c #BCDDCA",
"a 	c #B9DBC7",
"b 	c #CEE4D7",
"c 	c #FAFAFA",
"d 	c #F4F4F4",
"e 	c #D8D8D8",
"f 	c #C9C9C9",
"g 	c #B5B5B5",
"h 	c #C5E0D0",
"i 	c #B7D8C5",
"j 	c #E6E6E6",
"k 	c #DCDCDC",
"l 	c #DADADA",
"m 	c #CCCCCC",
"n 	c #BEBEBE",
"o 	c #BCDDC9",
"p 	c #C6E0D1",
"q 	c #F9F9F9",
"r 	c #EBEBEB",
"s 	c #DFDFDF",
"t 	c #D7D7D7",
"u 	c #D5D5D5",
"v 	c #C6C6C6",
"w 	c #F6F6F6",
"x 	c #E7E7E7",
"y 	c #CECECE",
"z 	c #767676",
"A 	c #8B8B8B",
"B 	c #9F9F9F",
"C 	c #B3B3B3",
"D 	c #C7C7C7",
"E 	c #9E9E9E",
"F 	c #898989",
"G 	c #616161",
"H 	c #4C4C4C",
"I 	c #383838",
"J 	c #E4E4E4",
"K 	c #D1D1D1",
"L 	c #8D8D8D",
"M 	c #9A9A9A",
"N 	c #ACACAC",
"O 	c #888888",
"P 	c #777777",
"Q 	c #676767",
"R 	c #585858",
"S 	c #A5A5A5",
"T 	c #E0E0E0",
"U 	c #DEDEDE",
"V 	c #D3D3D3",
"W 	c #E5E5E5",
"X 	c #D2D2D2",
"Y 	c #000000",
"Z 	c #8C8C8C",
"` 	c #BFBFBF",
" .	c #D6D6D6",
"..	c #565656",
"+.	c #454545",
"@.	c #989898",
"#.	c #737373",
"$.	c #9B9B9B",
"%.	c #656565",
"&.	c #4B4B4B",
"*.	c #848484",
"=.	c #DDDDDD",
"-.	c #F8F8F8",
";.	c #F5F5F5",
">.	c #E1E1E1",
",.	c #F0F0F0",
"'.	c #080808",
").	c #D4D4D4",
"!.	c #CDCDCD",
"~.	c #272727",
"{.	c #1E1E1E",
"].	c #2D2D2D",
"^.	c #232323",
"/.	c #D9D9D9",
"(.	c #343434",
"_.	c #B9B9B9",
":.	c #555555",
"<.	c #E8E8E8",
"[.	c #444444",
"}.	c #535353",
"|.	c #7A7A7A",
"1.	c #6E6E6E",
"2.	c #626262",
"3.	c #6A6A6A",
"4.	c #606060",
"5.	c #595959",
"6.	c #636363",
"7.	c #CACACA",
"8.	c #CBCBCB",
"9.	c #747474",
"0.	c #727272",
"a.	c #707070",
"b.	c #6B6B6B",
"c.	c #686868",
"d.	c #7B7B7B",
"e.	c #CFCFCF",
"f.	c #929292",
"g.	c #A9A9A9",
"h.	c #A6A6A6",
"i.	c #9D9D9D",
"j.	c #969696",
"k.	c #919191",
"l.	c #818181",
"        . . . . . . . . . . . . . . . .                             ",
"        . + + + + + + + + @ # $ % & * = -                           ",
"        . + ; ; ; ; ; ; ; > , ; ' ) ! = ; -                         ",
"        . + ; ; ; ; ; ; ; > ~ ; ; ' ) = ; ; -                       ",
"        . + ; ; ; ; ; ; ; > ~ ; ; ; ' = { ; ; -                     ",
"        . + ; ; ; ; ; ; ; ; ] ; ; ; ; = { { ; ; -                   ",
"        . + ; ; ; ^ ^ ; ; > / ; ; ; ; = { { { ; ; -                 ",
"        . + ; ; ^ ( _ ^ ; ; ] ; ; ; ; = { { { { ; ; -               ",
"        . + ; ; : ; ; ^ ; ; ] ; ; ; ; < [ . } | 1 2 3 -             ",
"        . + ; ; ; ; ^ : ; ; 4 4 ; ; ; ' 5 6 * 7 8 9 | -             ",
"        . + ; ; ; ; 0 ; ; 4 a b 4 ; 4 ; c d { { e f g -             ",
"        . + ; ; ; ^ ; ; ; 4 ; ; h ; i c c ) j k l m n -             ",
"        . + ; ; ; o ; ; ; p 4 ; ; ; ' q ) ) r s t u v -             ",
"        . + ; ; ; ; ; ; ; ; ; ; ; ' q w $ $ 5 x 7 l y -             ",
"        . + z A B C D k D C E F z G H I ) r r J 6 e K -             ",
"        . + ; f L M N < N M O P Q R S # $ * * x T U V -             ",
"        . + z F E C D k D C E F z G H I 5 r W W 6 k X -             ",
"        . + z F E C Y Z S `  .; z G H I r * 6 6 T l K -             ",
"        . + z F E C D Y `  .; F z G H I * x J s s k X -             ",
"        . + V P O M N < Y ; O P Q ..+.@.x J 6 k k l K -             ",
"        . + ; g #.- 2 $.2 - #.%.R &.*.W J 6 T =.t t 8 -             ",
"        . + ; ; ' q -.;.@ # ! % & * W J >.s =.7 u u y -             ",
"        . + ; ' q Y Y Y ,.'.% Y Y Y { >.s =.7 e t ).!.-             ",
"        . + ; q w ~.j {.! ].* ^./.(.>.U =.7 e  .).).y -             ",
"        _.+ c w d :.7 +.r +.<.[.8 }.U =.7 e  .V X K !.-             ",
"        g + -.d # |.1.2.* 3.j 4.5.6.k 7 e  .V X 8 !.m -             ",
"        C + ;.# $ 5 r * x j 6 T U k 7 t  .V K 8 m 7.8.-             ",
"        | + @ $ 5 9.* 0.a.1.T b.k c.t u V K 8 8.8.7.f -             ",
"        N + # 5 r A x O ).*.=.- l d.u V 8 e.8.8.8.7.f -             ",
"        N + ! r * 1 J $.8 @.k f.e L ).K K !.m 7.7.7.f -             ",
"        g.+ <.j { >.s k l e  .).).X 8 e.y !.m 8.f f f -             ",
"        g.h.1 i.M j.k.Z O *.l.- - - - - - - - - - - - -             ",
"                                                                    ",
"                                                                    "};
