/* XPM */
static char * update_binary_xpm[] = {
"34 34 292 2",
"  	c None",
". 	c #BCBCBC",
"+ 	c #F7F7F7",
"@ 	c #F3F3F3",
"# 	c #F1F1F1",
"$ 	c #EFEFEF",
"% 	c #ECECEC",
"& 	c #EAEAEA",
"* 	c #E9E9E9",
"= 	c #C2C2C2",
"- 	c #808080",
"; 	c #FFFFFF",
"> 	c #FEFEFE",
", 	c #FBFBFB",
"' 	c #F2F2F2",
") 	c #EEEEEE",
"! 	c #E3E3E3",
"~ 	c #647EAA",
"{ 	c #5B77A6",
"] 	c #6584AD",
"^ 	c #718DB3",
"/ 	c #5F7FAA",
"( 	c #6080AB",
"_ 	c #5C7AA7",
": 	c #6684AC",
"< 	c #5D7EAA",
"[ 	c #6E97BD",
"} 	c #6F98BE",
"| 	c #6082AD",
"1 	c #F6F6F8",
"2 	c #FDFDFD",
"3 	c #BDBDBD",
"4 	c #C0C0C0",
"5 	c #BBBBBB",
"6 	c #B6B6B6",
"7 	c #AFAFAF",
"8 	c #A2A2A2",
"9 	c #8E8E8E",
"0 	c #828282",
"a 	c #FBFCFD",
"b 	c #5A79A7",
"c 	c #6081AB",
"d 	c #6385AE",
"e 	c #688CB1",
"f 	c #7CA1C3",
"g 	c #799FC2",
"h 	c #D8E2ED",
"i 	c #F5F6F7",
"j 	c #F9F9F9",
"k 	c #F8F8F8",
"l 	c #DBDBDB",
"m 	c #D0D0D0",
"n 	c #C4C4C4",
"o 	c #5975A4",
"p 	c #607BA8",
"q 	c #5C78A7",
"r 	c #6587AE",
"s 	c #7298BF",
"t 	c #7CA2C5",
"u 	c #84A7C7",
"v 	c #8AABC9",
"w 	c #D7E2EC",
"x 	c #5D7BA8",
"y 	c #E8E8E8",
"z 	c #E2E2E2",
"A 	c #D8D8D8",
"B 	c #C9C9C9",
"C 	c #B5B5B5",
"D 	c #5D7DA8",
"E 	c #C3D4E4",
"F 	c #E3EBF2",
"G 	c #DCE6EF",
"H 	c #B7CBDE",
"I 	c #80A4C5",
"J 	c #96B4CF",
"K 	c #9CB8D3",
"L 	c #ABC2D8",
"M 	c #E1E2E5",
"N 	c #EEEFF0",
"O 	c #EBEBEB",
"P 	c #E4E4E4",
"Q 	c #DADADA",
"R 	c #CCCCCC",
"S 	c #BEBEBE",
"T 	c #A9C1D8",
"U 	c #E6EDF3",
"V 	c #B0C5DB",
"W 	c #91B1CE",
"X 	c #A0BAD3",
"Y 	c #98B6D1",
"Z 	c #9EB9D3",
"` 	c #A6BFD7",
" .	c #ADC4DA",
"..	c #C1D2E2",
"+.	c #DDE7F0",
"@.	c #7F9AB8",
"#.	c #E0E1E3",
"$.	c #EBEBEC",
"%.	c #D5D5D5",
"&.	c #C6C6C6",
"*.	c #B9CDE0",
"=.	c #D4E0EB",
"-.	c #97B5D0",
";.	c #749CC1",
">.	c #6386AE",
",.	c #5771A2",
"'.	c #A7C0D8",
").	c #B1C6DC",
"!.	c #BBCEE0",
"~.	c #CBDAE8",
"{.	c #D1DEEA",
"].	c #718DB1",
"^.	c #E5E5E6",
"/.	c #E7E7E7",
"(.	c #DEDEDE",
"_.	c #CECECE",
":.	c #E0E8F1",
"<.	c #5976A6",
"[.	c #6279A5",
"}.	c #B7BBC4",
"|.	c #B9BDC5",
"1.	c #B2C8DD",
"2.	c #C9D8E6",
"3.	c #DFE8F0",
"4.	c #6082AB",
"5.	c #D5D6D9",
"6.	c #E1E1E2",
"7.	c #E0E0E0",
"8.	c #D1D1D1",
"9.	c #D9E4EE",
"0.	c #A4BED7",
"a.	c #BABEC7",
"b.	c #BFC3CB",
"c.	c #C2C5CC",
"d.	c #6182AE",
"e.	c #D0DEE9",
"f.	c #C6D5E5",
"g.	c #8DAECC",
"h.	c #5A76A5",
"i.	c #D5D6D8",
"j.	c #E5E5E5",
"k.	c #DCDCDC",
"l.	c #D3D3D3",
"m.	c #668AAF",
"n.	c #86A9C9",
"o.	c #B5BAC3",
"p.	c #BEC2CA",
"q.	c #C9CCD2",
"r.	c #D1D3D8",
"s.	c #D9DBDF",
"t.	c #94B3CF",
"u.	c #5A78A5",
"v.	c #C9CACE",
"w.	c #D2D2D2",
"x.	c #C4D5E5",
"y.	c #B8BCC5",
"z.	c #CED1D7",
"A.	c #DEDFE3",
"B.	c #EAEBED",
"C.	c #7AA0C3",
"D.	c #6589AE",
"E.	c #BEC0C6",
"F.	c #DFDFDF",
"G.	c #5F80AA",
"H.	c #6D94BC",
"I.	c #698EB4",
"J.	c #CEDCE9",
"K.	c #678BB0",
"L.	c #BDC1C9",
"M.	c #E4E6E9",
"N.	c #EFF0F1",
"O.	c #DBE5EE",
"P.	c #E6ECF3",
"Q.	c #5972A1",
"R.	c #A8ACB4",
"S.	c #B8BBC1",
"T.	c #81A5C6",
"U.	c #A3BCD4",
"V.	c #637AA6",
"W.	c #C6C9D0",
"X.	c #DEE0E4",
"Y.	c #EEEFF1",
"Z.	c #F5F7FA",
"`.	c #6177A3",
" +	c #A5A9B2",
".+	c #ABAFB7",
"++	c #BBBEC3",
"@+	c #DDDDDD",
"#+	c #D7D7D7",
"$+	c #9AB6D1",
"%+	c #6382AB",
"&+	c #CBCED4",
"*+	c #D6E1EB",
"=+	c #EBF1F6",
"-+	c #CCDAE9",
";+	c #ABAEB6",
">+	c #B7BABF",
",+	c #C7C9CC",
"'+	c #A3BDD6",
")+	c #AEC5DB",
"!+	c #EFF2F6",
"~+	c #F6F9FB",
"{+	c #A4A8B1",
"]+	c #B8BBC0",
"^+	c #D2D3D4",
"/+	c #D4D4D4",
"(+	c #5E7EA9",
"_+	c #B4C9DD",
":+	c #BECFE1",
"<+	c #EAF0F5",
"[+	c #F9FBFC",
"}+	c #FCFDFD",
"|+	c #657EA7",
"1+	c #B3B6BC",
"2+	c #C6C7CB",
"3+	c #D6D6D6",
"4+	c #CDCDCD",
"5+	c #C2D3E3",
"6+	c #D1DFEA",
"7+	c #E4ECF3",
"8+	c #ACC3D9",
"9+	c #E9EEF4",
"0+	c #85A8C8",
"a+	c #BBBDC2",
"b+	c #CDCED0",
"c+	c #D4D5D5",
"d+	c #9BB7D2",
"e+	c #B6B9BE",
"f+	c #CACBCD",
"g+	c #D3D3D4",
"h+	c #F2F6F9",
"i+	c #6079A4",
"j+	c #A3A7AF",
"k+	c #B0B3B8",
"l+	c #C6C7C9",
"m+	c #CFD0D0",
"n+	c #CACACA",
"o+	c #B4B8C0",
"p+	c #93B2CE",
"q+	c #A3A7B0",
"r+	c #A1A5AE",
"s+	c #A1A5AD",
"t+	c #A5A8B0",
"u+	c #B3B5BA",
"v+	c #C5C6C8",
"w+	c #CECECF",
"x+	c #CBCBCB",
"y+	c #909398",
"z+	c #BFC2C9",
"A+	c #B8BBC3",
"B+	c #82A6C7",
"C+	c #5771A1",
"D+	c #ADB1B7",
"E+	c #B0B3B9",
"F+	c #AFB2B8",
"G+	c #AEB0B6",
"H+	c #BFC1C4",
"I+	c #C9CACB",
"J+	c #9D9EA1",
"K+	c #D6D8DC",
"L+	c #C9CCD1",
"M+	c #BDBFC6",
"N+	c #A5A9B1",
"O+	c #B7BAC0",
"P+	c #C2C3C7",
"Q+	c #C7C9CB",
"R+	c #C6C7CA",
"S+	c #C3C4C7",
"T+	c #CACACB",
"U+	c #CFCFCF",
"V+	c #A4A5A5",
"W+	c #EBEBED",
"X+	c #DADBDD",
"Y+	c #CDCFD2",
"Z+	c #BABCC2",
"`+	c #A7ABB2",
" @	c #B3B6BB",
".@	c #C2C4C7",
"+@	c #CDCDCF",
"@@	c #D0D1D1",
"#@	c #CECFCF",
"$@	c #CDCDCE",
"%@	c #A8A8A8",
"&@	c #A4A4A5",
"*@	c #9F9FA0",
"=@	c #969798",
"-@	c #8B8D90",
";@	c #7E8086",
">@	c #777A7F",
",@	c #76797E",
"'@	c #7B7C80",
")@	c #7F7F81",
"                                                                    ",
"        . . . . . . . . . . . . . . . .                             ",
"        . + + + + + + + + @ # $ % & * = -                           ",
"        . + ; ; ; ; ; ; ; ; > ; , ' ) = ; -                         ",
"        . + ; ; ; ; ; ; ; ; > ; ; , ' = ; ; -                       ",
"        . + ; ; ; ; ; ; ; ; > ; ; ; , = ! ; ; -                     ",
"        . + ; ; ; ; ; ; ; ; > ; ; ; ; = ! ! ; ; -                   ",
"        . + ; ; ; ; ; ; ; ; > ; ; ; ; = ! ! ! ; ; -                 ",
"        . + ; ; ; ~ { ; ; ; ] ^ ; ; ; = ! ! ! ! ; ; -               ",
"        . + ; ; { / ( _ : < [ } | 1 2 3 4 5 6 7 8 9 0 -             ",
"        . + a b ( c | d e } f g h | i j k # * l m n 7 -             ",
"        o p q < / ( c r s t u v w u x i j ' y z A B C -             ",
"      o D / x r E F G H I u J K L v { M N ) O P Q R S -             ",
"      { / _ T U V W I I X Y Z `  ...+.@.#.$.O ! l %.&.-             ",
"      _ D *.=.-.;.>.( { ,.*.'.).!.E ~.{.].^.& /.(.l _.-             ",
"    _ ( } :.J [ c <.[.}.|.| 1.!.E 2.3.w 4.5.6./.7.(.8.-             ",
"  _ c ( 9.0.s c o }.a.b.c.d.!.E e.+.G f.g.h.i.j.z k.l.-             ",
"_ c | m.G n.d.o o.p.q.r.s.>.f.{.+.2.'.t.u u.v.z 7.Q w.-             ",
"_ d.d g.x.} _ y.b.z.A.B.r f.{.+.f.Z C.D.c o E.F.F.k.8.-             ",
"G.d.H.I.J.K.o L.z.M.N.r f.=.O.P.'.g | x Q.R.S.k.k.Q w.-             ",
"  / ;.T.U.I.V.W.X.Y.r 2.w 9.F Z.K D.D `. +.+++@+#+#+8.-             ",
"  ( u W $+` %+&+>.D.J.*+O.F =+; -+c ,. +;+>+,+l %.%.m -             ",
"  ( W $+'+)+..>.E J.w :.U !+~+; h ( {+;+]+,+^+A #+/+_.-             ",
"(+t.Y '+V _+:+x.{.9.U <+[+}+; x.T -.|+1+2+^+3+3+/+/+4+-             ",
"  c x.J...5+2.6+O.7+f.8+` 9+e.'.0+m._ a+b+c+3+l.w.8._.-             ",
"    d.J g.*+6+9.<+E d+C.K.r t.t.D./ ,.e+f+g+l.w.m 4+4+-             ",
"      < _ W F h+:.0.f | D ,.i+b _ ,.j+k+l+m+8.m R n+R -             ",
"        ,.o+[ e.5+p+r D `.q+q+j+r+s+t+u+v+w+m x+x+n+x+-             ",
"        y+z+A+( v B+( C+{+R.D+E+F+G+u+H+I+_.x+x+x+n+B -             ",
"        J+K+L+M+o u.o N+.+O+P+Q+R+S+l+T+U+4+R n+n+n+B -             ",
"        V+W+X+Y+Z+;+N+`+ @.@+@m @@#@$@_._.4+R x+B B B -             ",
"        %@&@*@=@-@;@>@,@'@)@- - - - - - - - - - - - - -             ",
"                                                                    ",
"                                                                    "};
