/* XPM */
static char * update_ascii_xpm[] = {
"34 34 96 2",
"  	c None",
". 	c #BCBCBC",
"+ 	c #F7F7F7",
"@ 	c #F3F3F3",
"# 	c #F1F1F1",
"$ 	c #EFEFEF",
"% 	c #ECECEC",
"& 	c #EAEAEA",
"* 	c #E9E9E9",
"= 	c #C2C2C2",
"- 	c #808080",
"; 	c #FFFFFF",
"> 	c #FEFEFE",
", 	c #FBFBFB",
"' 	c #F2F2F2",
") 	c #EEEEEE",
"! 	c #E3E3E3",
"~ 	c #BDBDBD",
"{ 	c #C0C0C0",
"] 	c #BBBBBB",
"^ 	c #B6B6B6",
"/ 	c #AFAFAF",
"( 	c #A2A2A2",
"_ 	c #8E8E8E",
": 	c #828282",
"< 	c #FCFCFC",
"[ 	c #F8F8F8",
"} 	c #AEAEAE",
"| 	c #A9A9A9",
"1 	c #9E9E9E",
"2 	c #C4C4C4",
"3 	c #BABABA",
"4 	c #CACACA",
"5 	c #C9C9C9",
"6 	c #B5B5B5",
"7 	c #F9F9F9",
"8 	c #E0E0E0",
"9 	c #CCCCCC",
"0 	c #BEBEBE",
"a 	c #FDFDFD",
"b 	c #FAFAFA",
"c 	c #F5F5F5",
"d 	c #BFBFBF",
"e 	c #A0A0A0",
"f 	c #D5D5D5",
"g 	c #C6C6C6",
"h 	c #F4F4F4",
"i 	c #C1C1C1",
"j 	c #E1E1E1",
"k 	c #DBDBDB",
"l 	c #CECECE",
"m 	c #F6F6F6",
"n 	c #D4D4D4",
"o 	c #E4E4E4",
"p 	c #DEDEDE",
"q 	c #D1D1D1",
"r 	c #EBEBEB",
"s 	c #B8B8B8",
"t 	c #B7B7B7",
"u 	c #DCDCDC",
"v 	c #D3D3D3",
"w 	c #F0F0F0",
"x 	c #E8E8E8",
"y 	c #868686",
"z 	c #DADADA",
"A 	c #D2D2D2",
"B 	c #E7E7E7",
"C 	c #878787",
"D 	c #888888",
"E 	c #E5E5E5",
"F 	c #E2E2E2",
"G 	c #D7D7D7",
"H 	c #DFDFDF",
"I 	c #D0D0D0",
"J 	c #E6E6E6",
"K 	c #DDDDDD",
"L 	c #767676",
"M 	c #777777",
"N 	c #CDCDCD",
"O 	c #EDEDED",
"P 	c #D8D8D8",
"Q 	c #B9B9B9",
"R 	c #D6D6D6",
"S 	c #B3B3B3",
"T 	c #CBCBCB",
"U 	c #CFCFCF",
"V 	c #787878",
"W 	c #ACACAC",
"X 	c #A6A6A6",
"Y 	c #9D9D9D",
"Z 	c #9A9A9A",
"` 	c #969696",
" .	c #919191",
"..	c #8C8C8C",
"+.	c #848484",
"@.	c #818181",
"                                                                    ",
"        . . . . . . . . . . . . . . . .                             ",
"        . + + + + + + + + @ # $ % & * = -                           ",
"        . + ; ; ; ; ; ; ; ; > ; , ' ) = ; -                         ",
"        . + ; ; ; ; ; ; ; ; > ; ; , ' = ; ; -                       ",
"        . + ; ; ; ; ; ; ; ; > ; ; ; , = ! ; ; -                     ",
"        . + ; ; ; ; ; ; ; ; > ; ; ; ; = ! ! ; ; -                   ",
"        . + ; ; ; ; ; ; ; ; > ; ; ; ; = ! ! ! ; ; -                 ",
"        . + ; ; ; ; ; ; ; ; > ; ; ; ; = ! ! ! ! ; ; -               ",
"        . + ; ; ; ; ; ; ; ; > ; ; ; ; ~ { ] ^ / ( _ : -             ",
"        . + ; ; ; ; ; ; ; ; > ; ; ; ; < [ # } | 1 2 / -             ",
"        . + ; ; ; ; ; ; ; ; ; ; ; ; ; ; , ' ] 3 4 5 6 -             ",
"        . + ; ; ; ; ; ; ; ; ; ; ; ; < 7 + $ ~ 1 8 9 0 -             ",
"        . + ; ; ; ; ; ; ; ; ; ; a b + c # $ d e 8 f g -             ",
"        . + ; ; ; ; ; ; ; ; ; b [ + h # $ ) i ( j k l -             ",
"        . + ; ; ; ; ; ; ; < 7 + m @ ' $ $ & n o ! p q -             ",
"        . + ; ; ; ; ; ; , 7 [ c c ' $ $ r * s t n u v -             ",
"        . + ; ; ; ; ; , b [ m c ' w $ % * x 3 y 8 z A -             ",
"        . + ; ; ; ; < < [ [ m @ # $ % * x B ] C 8 u q -             ",
"        . + ; ; ; ; , b + m @ # $ % * x B o . D 8 z A -             ",
"        . + ; ; ; , b + c h # $ % * * E o F n 8 8 G q -             ",
"        . + ; ; , 7 [ c @ # ) % & x E o j H ^ 6 u f I -             ",
"        . + ; , 7 + c ' w ) % & B J ! j H K t L 8 n l -             ",
"        . + ; 7 m h ' w ) r * x o ! j p K k t M 8 n N -             ",
"        . + b m h ' w O r * x o F j p K k P Q M 8 q l -             ",
"        Q + [ h # $ O r * B J F j p u k P R n 8 8 N N -             ",
"        6 + c # $ O r * B J F 8 p u k G R v Q s H 4 9 -             ",
"        S + @ $ O r * B o ! 8 p u z G f v q Q M 8 4 T -             ",
"        / + # O r * B o F 8 K u z G f v I U s V 8 4 5 -             ",
"        W + ) r * B o ! F 8 u k P n n q q N Q V 8 4 5 -             ",
"        | + x J ! j H u z P R n n A I U l N n ! 8 5 5 -             ",
"        | X ( Y Z `  ...D +.@.- - - - - - - - - - - - -             ",
"                                                                    ",
"                                                                    "};
