/* XPM */
static char * update_info_xpm[] = {
"34 34 271 2",
"  	c None",
". 	c #BCBCBC",
"+ 	c #F7F7F7",
"@ 	c #F3F3F3",
"# 	c #F1F1F1",
"$ 	c #EFEFEF",
"% 	c #ECECEC",
"& 	c #EAEAEA",
"* 	c #E9E9E9",
"= 	c #C2C2C2",
"- 	c #808080",
"; 	c #FFFFFF",
"> 	c #FEFEFE",
", 	c #FBFBFB",
"' 	c #F2F2F2",
") 	c #EEEEEE",
"! 	c #E3E3E3",
"~ 	c #BDBDBD",
"{ 	c #C0C0C0",
"] 	c #BBBBBB",
"^ 	c #B6B6B6",
"/ 	c #AFAFAF",
"( 	c #A2A2A2",
"_ 	c #8E8E8E",
": 	c #828282",
"< 	c #FCFCFC",
"[ 	c #F8F8F8",
"} 	c #DBDBDB",
"| 	c #D0D0D0",
"1 	c #C4C4C4",
"2 	c #F0F1F4",
"3 	c #D5DAE9",
"4 	c #B2BFD9",
"5 	c #9DACCF",
"6 	c #E8E8E8",
"7 	c #E2E2E2",
"8 	c #D8D8D8",
"9 	c #C9C9C9",
"0 	c #B5B5B5",
"a 	c #F7F8FA",
"b 	c #C8D0E2",
"c 	c #8FA9DA",
"d 	c #789ED7",
"e 	c #87AFDF",
"f 	c #98BCE4",
"g 	c #8CA7D8",
"h 	c #C2CBDC",
"i 	c #E7E8EA",
"j 	c #EBEBEB",
"k 	c #E4E4E4",
"l 	c #DADADA",
"m 	c #CCCCCC",
"n 	c #BEBEBE",
"o 	c #ADBFE1",
"p 	c #85A9DB",
"q 	c #97BBE4",
"r 	c #AFC6E8",
"s 	c #B0C7E9",
"t 	c #AEC5E7",
"u 	c #A8C2E5",
"v 	c #92B0E1",
"w 	c #7F9DD7",
"x 	c #A5B4D4",
"y 	c #DDDFE1",
"z 	c #D5D5D5",
"A 	c #C6C6C6",
"B 	c #F7F8FB",
"C 	c #AFC0E3",
"D 	c #87ABDC",
"E 	c #A2BCE3",
"F 	c #A5BEE4",
"G 	c #9EBDE3",
"H 	c #9AB8E1",
"I 	c #99B9E0",
"J 	c #92B3E1",
"K 	c #91B1E0",
"L 	c #78A2D6",
"M 	c #A2B6D6",
"N 	c #E0E1E3",
"O 	c #DEDEDE",
"P 	c #CECECE",
"Q 	c #CAD6EA",
"R 	c #89ADDB",
"S 	c #87AADE",
"T 	c #79A2DA",
"U 	c #6C9CD7",
"V 	c #678FD2",
"W 	c #5F8CD0",
"X 	c #5886D3",
"Y 	c #618CD2",
"Z 	c #6890D3",
"` 	c #76A1D7",
" .	c #7196D2",
"..	c #B7C0D4",
"+.	c #D1D1D1",
"@.	c #F1F3F7",
"#.	c #93B0DE",
"$.	c #6C93D6",
"%.	c #638ED4",
"&.	c #5381CE",
"*.	c #4472C5",
"=.	c #3868C1",
"-.	c #3262BB",
";.	c #FDFDFD",
">.	c #2047A9",
",.	c #325CB3",
"'.	c #3666BD",
").	c #386DC5",
"!.	c #4678CB",
"~.	c #4A7ACC",
"{.	c #7998C9",
"].	c #D5D7DA",
"^.	c #DCDCDC",
"/.	c #D3D3D3",
"(.	c #D4DCEC",
"_.	c #6187CC",
":.	c #4674C9",
"<.	c #3867BD",
"[.	c #2F56AE",
"}.	c #2951A2",
"|.	c #274996",
"1.	c #264895",
"2.	c #183289",
"3.	c #254492",
"4.	c #254897",
"5.	c #2A509D",
"6.	c #2D55A6",
"7.	c #4B6CB6",
"8.	c #B9BFCF",
"9.	c #D2D2D2",
"0.	c #A9B7D5",
"a.	c #3A62B5",
"b.	c #2A57AB",
"c.	c #264F9B",
"d.	c #26448F",
"e.	c #223D83",
"f.	c #203A7D",
"g.	c #1E3879",
"h.	c #1F3974",
"i.	c #122871",
"j.	c #1F3A7E",
"k.	c #214388",
"l.	c #2E4E98",
"m.	c #949EB9",
"n.	c #95A4C8",
"o.	c #203E83",
"p.	c #11276E",
"q.	c #1B346E",
"r.	c #1A336D",
"s.	c #1C376F",
"t.	c #1F3D7F",
"u.	c #808CAC",
"v.	c #8E9AB4",
"w.	c #2F55AC",
"x.	c #2D53A2",
"y.	c #183593",
"z.	c #1C3473",
"A.	c #79839D",
"B.	c #D7D7D7",
"C.	c #9CA7C0",
"D.	c #274286",
"E.	c #3261B7",
"F.	c #3464BB",
"G.	c #244376",
"H.	c #838EA3",
"I.	c #C4CAD8",
"J.	c #38538D",
"K.	c #4C7FCB",
"L.	c #4A78CB",
"M.	c #406FC5",
"N.	c #2654BB",
"O.	c #284AB7",
"P.	c #34497F",
"Q.	c #A9AFBB",
"R.	c #D4D4D4",
"S.	c #E5E7ED",
"T.	c #697C9F",
"U.	c #8CAEE1",
"V.	c #7CA5DD",
"W.	c #739BD8",
"X.	c #3C61C1",
"Y.	c #4275C9",
"Z.	c #596990",
"`.	c #C3C5CA",
" +	c #CDCDCD",
".+	c #FAFAFA",
"++	c #B4BDCE",
"@+	c #4C6DB8",
"#+	c #D3DCF0",
"$+	c #CDDAEE",
"%+	c #C4D6EF",
"&+	c #BBD3EC",
"*+	c #8FA3D6",
"=+	c #859DD4",
"-+	c #7C97CF",
";+	c #6F8BD0",
">+	c #7DA8DE",
",+	c #3D5591",
"'+	c #9CA4B5",
")+	c #B9B9B9",
"!+	c #F4F4F4",
"~+	c #E7E9ED",
"{+	c #919EB6",
"]+	c #4772BF",
"^+	c #CDDAEF",
"/+	c #EDF3F8",
"(+	c #EAF2F9",
"_+	c #E7EEF8",
":+	c #E5EBF6",
"<+	c #E0E9F5",
"[+	c #DBE6F4",
"}+	c #D6E1F1",
"|+	c #92B3E0",
"1+	c #39589E",
"2+	c #818DA6",
"3+	c #CACBCF",
"4+	c #F5F5F5",
"5+	c #DADDE5",
"6+	c #8F9CB7",
"7+	c #618BCF",
"8+	c #B4C8E8",
"9+	c #F7F8FC",
"0+	c #F1F4FA",
"a+	c #F1F2FA",
"b+	c #F2F6FB",
"c+	c #DFE8F4",
"d+	c #9EBDE2",
"e+	c #4D75BF",
"f+	c #8290A9",
"g+	c #C1C4CB",
"h+	c #CACACA",
"i+	c #B3B3B3",
"j+	c #EDEDED",
"k+	c #E0E2E6",
"l+	c #ACB4C8",
"m+	c #6A85BA",
"n+	c #658ED2",
"o+	c #7BA5D9",
"p+	c #A5C0E6",
"q+	c #729FD7",
"r+	c #628BCF",
"s+	c #647CB2",
"t+	c #9EA6BA",
"u+	c #C9CBCF",
"v+	c #CBCBCB",
"w+	c #E7E7E7",
"x+	c #D0D3D9",
"y+	c #B3BCCE",
"z+	c #8E9EC1",
"A+	c #7F8BAD",
"B+	c #7E8AAC",
"C+	c #8A9BBD",
"D+	c #ABB3C6",
"E+	c #C2C6CC",
"F+	c #CFCFCF",
"G+	c #ACACAC",
"H+	c #E0E0E0",
"I+	c #A9A9A9",
"J+	c #E6E6E6",
"K+	c #E1E1E1",
"L+	c #DFDFDF",
"M+	c #D6D6D6",
"N+	c #A6A6A6",
"O+	c #9D9D9D",
"P+	c #9A9A9A",
"Q+	c #969696",
"R+	c #919191",
"S+	c #8C8C8C",
"T+	c #888888",
"U+	c #848484",
"V+	c #818181",
"                                                                    ",
"        . . . . . . . . . . . . . . . .                             ",
"        . + + + + + + + + @ # $ % & * = -                           ",
"        . + ; ; ; ; ; ; ; ; > ; , ' ) = ; -                         ",
"        . + ; ; ; ; ; ; ; ; > ; ; , ' = ; ; -                       ",
"        . + ; ; ; ; ; ; ; ; > ; ; ; , = ! ; ; -                     ",
"        . + ; ; ; ; ; ; ; ; > ; ; ; ; = ! ! ; ; -                   ",
"        . + ; ; ; ; ; ; ; ; > ; ; ; ; = ! ! ! ; ; -                 ",
"        . + ; ; ; ; ; ; ; ; > ; ; ; ; = ! ! ! ! ; ; -               ",
"        . + ; ; ; ; ; ; ; ; > ; ; ; ; ~ { ] ^ / ( _ : -             ",
"        . + ; ; ; ; ; ; ; ; > ; ; ; ; < [ # * } | 1 / -             ",
"        . + ; ; ; ; ; < 2 3 4 5 5 4 3 2 [ ' 6 7 8 9 0 -             ",
"        . + ; ; ; ; a b c d e f f e d g h i j k l m n -             ",
"        . + ; ; ; 2 o p q r s s r t u v w x y ! } z A -             ",
"        . + ; ; B C D E F G H I J K J I J L M N O } P -             ",
"        . + ; < Q R K S T U V W X X Y Z U `  ...O O +.-             ",
"        . + ; @.#.$.%.&.*.=.-.;.;.>.,.'.).!.~.{.].^./.-             ",
"        . + ; (._.:.<.[.}.|.1.;.;.2.3.4.5.6.,.7.8.l 9.-             ",
"        . + ; 0.a.b.c.d.e.f.g.h.i.i.h.g.j.k.3.l.m.^.+.-             ",
"        . + ; n.c.c.d.k.o.f.;.;.;.p.q.r.s.h.f.t.u.l 9.-             ",
"        . + ; v.k.w.b.x.}.}.5.;.< y.4.4.1.3.d.z.A.B.+.-             ",
"        . + ; C.D.E.F.F.-.E.,.< < >.[.b.6.6.}.G.H.z | -             ",
"        . + ; I.J.=.K.L.:.*.M.< < N.O.=.<.'.6.P.Q.R.P -             ",
"        . + ; S.T.*.K U.V.W.< < < < X.K.L.Y.}.Z.`.R. +-             ",
"        . + .+@ ++@+u #+$+%+&+*+=+-+;+>+W.*.,+'+| +.P -             ",
"        )++ [ !+~+{+]+^+/+(+_+:+<+[+}+$+|+1+2+3+|  + +-             ",
"        0 + 4+# $ 5+6+7+8+_+9+0+a+b+c+d+e+f+g+| m h+m -             ",
"        i++ @ $ j+j k+l+m+n+o+p+p+q+r+s+t+u+| v+v+h+v+-             ",
"        / + # j+j * w+7 x+y+z+A+B+C+D+E+P F+v+v+v+h+9 -             ",
"        G++ ) j * w+k ! 7 H+^.} 8 R.R.+.+. +m h+h+h+9 -             ",
"        I++ 6 J+! K+L+^.l 8 M+R.R.9.| F+P  +m v+9 9 9 -             ",
"        I+N+( O+P+Q+R+S+T+U+V+- - - - - - - - - - - - -             ",
"                                                                    ",
"                                                                    "};
