<svg width="24" height="24" viewBox="0 0 24 24" fill="none" xmlns="http://www.w3.org/2000/svg">
<path fill-rule="evenodd" clip-rule="evenodd" d="M18 8.16667C18 6.97005 17.03 6 15.8333 6H8.16667C6.97005 6 6 6.97005 6 8.16667V15.8333C6 17.03 6.97005 18 8.16667 18H15.8333C17.03 18 18 17.03 18 15.8333V8.16667ZM8.16667 6.375H15.8333L15.9131 6.37675C16.8656 6.4185 17.625 7.2039 17.625 8.16667V15.8333L17.6233 15.9131C17.5815 16.8656 16.7961 17.625 15.8333 17.625H8.16667L8.08686 17.6233C7.13438 17.5815 6.375 16.7961 6.375 15.8333V8.16667L6.37675 8.08686C6.4185 7.13438 7.2039 6.375 8.16667 6.375ZM12.3258 9.02108C12.2928 9.0075 12.2567 9 12.2188 9C12.1462 9 12.0801 9.02746 12.0302 9.07256L12.0089 9.09402C11.9645 9.14375 11.9375 9.20935 11.9375 9.28125V12.8278C11.6768 12.6588 11.349 12.5625 11 12.5625C10.6068 12.5625 10.2405 12.6848 9.96673 12.8954C9.69262 13.1062 9.5 13.417 9.5 13.7812C9.5 14.1454 9.69262 14.4563 9.96673 14.6671C10.2405 14.8777 10.6068 15 11 15C11.3932 15 11.7595 14.8777 12.0333 14.6671C12.3074 14.4563 12.5 14.1454 12.5 13.7812V11.0033L14.5553 11.7938C14.6418 11.827 14.7391 11.8155 14.8155 11.7631C14.8919 11.7106 14.9375 11.6239 14.9375 11.5312V10.8626C14.9375 10.3583 14.6269 9.90614 14.1563 9.72511L12.3258 9.02108Z" fill="black"/>
</svg>
