<?xml version="1.0" encoding="UTF-8"?>
<svg viewBox="0 0 24 24" xmlns="http://www.w3.org/2000/svg">
  <!-- colors values have a purpose, changing them may break the associated component -->
  <path d="m6.0364 10.32c-0.27614 0-0.5-0.2239-0.5-0.5v-2.32c0-1.3807 1.1193-2.5 2.5-2.5h7.04c1.3808 0 2.5 1.1193 2.5 2.5v0.88c0 0.05005-0.0073 0.09838-0.021 0.14398l1e-4 0.13826 1.1015-1.1016 0.0665-0.05554c0.1871-0.1296 0.4457-0.11109 0.6124 0.05554 0.1666 0.16662 0.1851 0.42527 0.0555 0.61234l-0.0555 0.06648-1.9217 1.9216-0.0665 0.0556c-0.1636 0.1134-0.3821 0.1134-0.5458 0l-0.0665-0.0556-1.9216-1.9216-0.0556-0.06648c-0.1134-0.16369-0.1134-0.38217 0-0.54586l0.0556-0.06648 0.0664-0.05554c0.1637-0.1134 0.3822-0.1134 0.5459 0l0.0665 0.05554 1.1029 1.1016-1e-4 -0.1454c-0.0123-0.04349-0.019-0.08939-0.019-0.13684v-0.88c0-0.82843-0.6715-1.5-1.5-1.5h-7.04c-0.82843 0-1.5 0.67157-1.5 1.5v2.32c0 0.2761-0.22386 0.5-0.5 0.5z" fill="#ff00ff"/>
  <path d="m6.0137 12.643-2.0137 5.377h0.97461l0.46484-1.3691h2.1152l0.48438 1.3691h0.97852l-1.998-5.377h-1.0059zm0.47266 0.79883h0.015625c0.025 0.155 0.047812 0.26789 0.070312 0.33789l0.74609 2.1445h-1.6465l0.74023-2.1445c0.0275-0.0825 0.051719-0.19539 0.074219-0.33789z" fill="#aaaaaa"/>
  <path d="m15.418 12.643v5.377h1.7266c0.5525 0 1.0086-0.14273 1.3711-0.42773s0.54492-0.65719 0.54492-1.1172c0-0.37-0.11148-0.67039-0.33398-0.90039-0.22-0.2325-0.51476-0.36961-0.88476-0.41211v-0.013671c0.305-0.095001 0.54234-0.25547 0.71484-0.48047s0.25976-0.48992 0.25976-0.79492c0-0.365-0.15203-0.66117-0.45703-0.88867-0.3025-0.2275-0.71438-0.3418-1.2344-0.3418h-1.707zm0.88867 0.7168h0.65039c0.615 0 0.92188 0.22945 0.92188 0.68945 0 0.2675-0.088125 0.47555-0.26562 0.62305-0.175 0.145-0.41852 0.2168-0.72852 0.2168h-0.57812v-1.5293zm0 2.2461h0.64648c0.7725 0 1.1582 0.27844 1.1582 0.83594 0 0.27-0.090937 0.48172-0.27344 0.63672-0.18 0.1525-0.43703 0.22852-0.76953 0.22852h-0.76172v-1.7012z" fill="#bbbbbb"/>
</svg>
