<svg width="24" height="24" viewBox="0 0 24 24" fill="none" xmlns="http://www.w3.org/2000/svg">
<path d="M15.8571 8C17.0406 8 18 8.95939 18 10.1429V14.4286C18 15.612 17.0406 16.5714 15.8571 16.5714H12.5896L9.96457 18.8683C9.42144 19.3436 8.57143 18.9579 8.57143 18.2362V16.5714H8.14286C6.95939 16.5714 6 15.612 6 14.4286V10.1429C6 8.95939 6.95939 8 8.14286 8H15.8571ZM15.8571 8.85714H8.14286C7.43277 8.85714 6.85714 9.43277 6.85714 10.1429V14.4286C6.85714 15.1386 7.43277 15.7143 8.14286 15.7143H9.42857V18.1984L12.2675 15.7143H15.8571C16.5672 15.7143 17.1429 15.1386 17.1429 14.4286V10.1429C17.1429 9.43277 16.5672 8.85714 15.8571 8.85714ZM12.6857 14.196V14.8925H8.50714V14.196H12.6857ZM15.4714 12.1067V12.8032H8.50714V12.1067H15.4714ZM15.4714 10.0175V10.7139H8.50714V10.0175H15.4714Z" fill="black"/>
</svg>
