<?xml version="1.0" encoding="UTF-8"?>
<svg fill="none" version="1.1" viewBox="0 0 24 24" xmlns="http://www.w3.org/2000/svg">
 <path d="m7.3845 7.9384c0-1.0706 0.8679-1.9385 1.9385-1.9385h5.354c1.0706 0 1.9385 0.8679 1.9385 1.9385v9.6002c0 0.17331-0.09711 0.33204-0.25141 0.41096-0.15434 0.07888-0.33989 0.06466-0.48038-0.03679l-3.8837-2.8049-3.8837 2.8049c-0.14051 0.10145-0.32603 0.11566-0.48035 0.03679-0.15432-0.07893-0.25143-0.23766-0.25143-0.41097zm1.9385-1.0154c-0.5608 0-1.0154 0.45461-1.0154 1.0154v8.6975l3.4222-2.4716c0.16131-0.1165 0.37912-0.1165 0.54043 0l3.4222 2.4716v-8.6975c0-0.5608-0.45463-1.0154-1.0154-1.0154z" fill="#212121"/>
</svg>
