<svg width="24" height="24" viewBox="0 0 24 24" fill="none" xmlns="http://www.w3.org/2000/svg">
<path d="M9.66667 6.5C9.66667 6.22386 9.44281 6 9.16667 6C8.89052 6 8.66667 6.22386 8.66667 6.5V8.16667C8.66667 8.44281 8.44281 8.66667 8.16667 8.66667H6.5C6.22386 8.66667 6 8.89052 6 9.16667C6 9.44281 6.22386 9.66667 6.5 9.66667H8.16667C8.99509 9.66667 9.66667 8.99509 9.66667 8.16667V6.5ZM9.66667 17.5C9.66667 17.7761 9.44281 18 9.16667 18C8.89052 18 8.66667 17.7761 8.66667 17.5V15.8333C8.66667 15.5572 8.44281 15.3333 8.16667 15.3333H6.5C6.22386 15.3333 6 15.1095 6 14.8333C6 14.5572 6.22386 14.3333 6.5 14.3333H8.16667C8.99509 14.3333 9.66667 15.0049 9.66667 15.8333V17.5ZM14.8333 6C14.5572 6 14.3333 6.22386 14.3333 6.5V8.16667C14.3333 8.99509 15.0049 9.66667 15.8333 9.66667H17.5C17.7761 9.66667 18 9.44281 18 9.16667C18 8.89052 17.7761 8.66667 17.5 8.66667H15.8333C15.5572 8.66667 15.3333 8.44281 15.3333 8.16667V6.5C15.3333 6.22386 15.1095 6 14.8333 6ZM14.3333 17.5C14.3333 17.7761 14.5572 18 14.8333 18C15.1095 18 15.3333 17.7761 15.3333 17.5V15.8333C15.3333 15.5572 15.5572 15.3333 15.8333 15.3333H17.5C17.7761 15.3333 18 15.1095 18 14.8333C18 14.5572 17.7761 14.3333 17.5 14.3333H15.8333C15.0049 14.3333 14.3333 15.0049 14.3333 15.8333V17.5Z" fill="black"/>
</svg>
