<svg width="24" height="24" viewBox="0 0 24 24" fill="none" xmlns="http://www.w3.org/2000/svg">
<path d="M11 11L11 15C11 15.2761 11.2239 15.5 11.5 15.5C11.7761 15.5 12 15.2761 12 15L12 11C12 10.7239 11.7761 10.5 11.5 10.5C11.2239 10.5 11 10.7239 11 11ZM13.5 10.5C13.7761 10.5 14 10.7239 14 11V15C14 15.2761 13.7761 15.5 13.5 15.5C13.2239 15.5 13 15.2761 13 15V11C13 10.7239 13.2239 10.5 13.5 10.5ZM14.5 8H17.5C17.7761 8 18 8.22386 18 8.5C18 8.77614 17.7761 9 17.5 9H16.9475L16.1946 15.7761C16.0539 17.0422 14.9838 18 13.7099 18H11.2901C10.0162 18 8.94605 17.0422 8.80537 15.7761L8.05247 9H7.5C7.22386 9 7 8.77614 7 8.5C7 8.22386 7.22386 8 7.5 8H10.5C10.5 6.89543 11.3954 6 12.5 6C13.6046 6 14.5 6.89543 14.5 8ZM12.5 7C11.9477 7 11.5 7.44772 11.5 8H13.5C13.5 7.44772 13.0523 7 12.5 7ZM9.05863 9L9.79925 15.6656C9.88366 16.4253 10.5258 17 11.2901 17H13.7099C14.4742 17 15.1163 16.4253 15.2007 15.6656L15.9414 9H9.05863Z" fill="#212121"/>
</svg>
