<svg width="24" height="24" viewBox="0 0 24 24" fill="none" xmlns="http://www.w3.org/2000/svg">
<path fill-rule="evenodd" clip-rule="evenodd" d="M4.07588 8C6.72772 8 8.05164 9.16793 8.05164 11.5038C8.05164 12.6137 7.68366 13.5037 6.9477 14.1776C6.21375 14.8516 5.22781 15.1876 3.98988 15.1876H2V8H4.07588ZM9.85012 8.0002L11.624 13.4539C11.682 13.6259 11.724 13.8279 11.754 14.0578H11.776C11.798 13.8698 11.848 13.6639 11.92 13.4439L13.7339 8.0002H14.9978L12.416 15.1878H11.084L8.54621 8.0002H9.85012ZM18.0242 8C20.6761 8 22 9.16793 22 11.5038C22 12.6137 21.632 13.5037 20.8981 14.1776C20.1621 14.8516 19.1762 15.1876 17.9382 15.1876H15.9504V8H18.0242ZM4.18586 9.01194H3.18793V14.1796H4.14188C4.97983 14.1796 5.63378 13.9496 6.09776 13.4877C6.56373 13.0277 6.79771 12.3757 6.79771 11.5338C6.79771 9.85189 5.92776 9.01194 4.18586 9.01194ZM18.1362 9.01194H17.1383V14.1796H18.0902C18.9302 14.1796 19.5821 13.9496 20.0481 13.4877C20.5121 13.0277 20.7481 12.3757 20.7481 11.5338C20.7481 9.85189 19.8761 9.01194 18.1362 9.01194Z" fill="black"/>
</svg>
