<svg width="24" height="24" viewBox="0 0 24 24" fill="none" xmlns="http://www.w3.org/2000/svg">
<path d="M6 7.68427C6 6.98928 6.78366 6.58322 7.35144 6.98401L13.4655 11.2998C13.9492 11.6413 13.9492 12.3588 13.4655 12.7003L7.35144 17.016C6.78366 17.4168 6 17.0107 6 16.3157V7.68427ZM15.8571 6.85717C16.0938 6.85717 16.2857 7.04905 16.2857 7.28574V16.7143C16.2857 16.951 16.0938 17.1429 15.8571 17.1429C15.6205 17.1429 15.4286 16.951 15.4286 16.7143V7.28574C15.4286 7.04905 15.6205 6.85717 15.8571 6.85717ZM6.85714 7.68427V16.3157L12.9711 12L6.85714 7.68427Z" fill="black"/>
</svg>
