<svg width="24" height="24" viewBox="0 0 24 24" fill="none" xmlns="http://www.w3.org/2000/svg">
<path d="M17 16.3158C17 17.0108 16.2164 17.4168 15.6486 17.0161L9.53456 12.7003C9.05079 12.3588 9.05079 11.6413 9.53456 11.2998L15.6486 6.98404C16.2164 6.58324 17 6.98935 17 7.68432V16.3158ZM7.14287 17.1429C6.90622 17.1429 6.7143 16.951 6.7143 16.7143V7.28575C6.7143 7.04909 6.90622 6.85718 7.14287 6.85718C7.37953 6.85718 7.57144 7.04909 7.57144 7.28575V16.7143C7.57144 16.951 7.37953 17.1429 7.14287 17.1429ZM16.1429 16.3158V7.68432L10.0289 12L16.1429 16.3158Z" fill="black"/>
</svg>
