<svg width="24" height="24" viewBox="0 0 24 24" fill="none" xmlns="http://www.w3.org/2000/svg">
<path d="M15 9.5C15.2455 9.5 15.4496 9.67688 15.4919 9.91012L15.5 10V13H18.5C18.7455 13 18.9496 13.1769 18.9919 13.4101L19 13.5C19 13.7455 18.8231 13.9496 18.5899 13.9919L18.5 14H15.5V17C15.5 17.2455 15.3231 17.4496 15.0899 17.4919L15 17.5C14.7545 17.5 14.5504 17.3231 14.5081 17.0899L14.5 17V14H11.5C11.2545 14 11.0504 13.8231 11.0081 13.5899L11 13.5C11 13.2545 11.1769 13.0504 11.4101 13.0081L11.5 13H14.5V10C14.5 9.78522 14.6354 9.60207 14.8255 9.53128L14.9101 9.50806L15 9.5ZM8.52046 15.9114C8.67198 15.9114 9 16.1992 9 16.5542C9 16.8797 8.6916 17.1487 8.55769 17.1912L8.52046 17.1971H5.46371C5.31219 17.1971 5 16.9093 5 16.5542C5 16.2288 5.29257 15.9598 5.42648 15.9173L5.46371 15.9114H8.52046ZM9.44452 11.1806C9.65223 11.1806 10 11.4684 10 11.8234C10 12.1489 9.67913 12.4178 9.49555 12.4604L9.44452 12.4663H5.50987C5.30215 12.4663 5 12.1785 5 11.8234C5 11.498 5.27526 11.229 5.45883 11.1864L5.50987 11.1806H9.44452ZM17.9017 6C18.3763 6 18.67 6.28782 18.67 6.64286C18.67 6.96831 18.4378 7.23728 18.0183 7.27985L17.9017 7.28571H5.7671C5.29244 7.28571 5 6.9979 5 6.64286C5 6.3174 5.23099 6.04844 5.65048 6.00587L5.7671 6H17.9017Z" fill="black"/>
</svg>
