<svg width="24" height="24" viewBox="0 0 24 24" fill="none" xmlns="http://www.w3.org/2000/svg">
<path fill-rule="evenodd" clip-rule="evenodd" d="M14.8469 15.8823H17.7057V16.588H14.8469C14.6836 17.3935 13.9714 18 13.1178 18C12.143 18 11.3528 17.2099 11.3528 16.2351C11.3528 15.2608 12.143 14.4706 13.1178 14.4706C13.9715 14.4706 14.6836 15.0766 14.8469 15.8821V15.8823ZM10.6118 11.6472H17.7057V12.353H10.6118C10.4481 13.1585 9.73585 13.7649 8.88222 13.7649C7.90795 13.7649 7.11778 12.9748 7.11778 12C7.11778 11.0252 7.90792 10.2351 8.88222 10.2351C9.73589 10.2351 10.4481 10.8415 10.6118 11.647V11.6472ZM16.2584 7.41215H17.7057V8.11791H16.2584C16.0951 8.92343 15.3829 9.52938 14.5293 9.52938C13.5545 9.52938 12.7643 8.73924 12.7643 7.76495C12.7643 6.79018 13.5545 6 14.5293 6C15.3829 6 16.0951 6.60649 16.2584 7.41198V7.41215ZM5 8.11791V7.41215H12.7643V8.11791H5ZM14.5293 8.82367C15.1139 8.82367 15.5879 8.34969 15.5879 7.76504C15.5879 7.17988 15.1139 6.7059 14.5293 6.7059C13.9446 6.7059 13.4706 7.17989 13.4706 7.76504C13.4706 8.3497 13.9446 8.82367 14.5293 8.82367ZM5 12.3529V11.6472H7.11778V12.3529H5ZM8.88222 13.0587C9.46688 13.0587 9.94135 12.5847 9.94135 12.0001C9.94135 11.4154 9.46687 10.9414 8.88222 10.9414C8.29755 10.9414 7.82359 11.4154 7.82359 12.0001C7.82359 12.5847 8.29757 13.0587 8.88222 13.0587ZM5 16.5879V15.8822H11.3528V16.5879H5ZM13.1178 17.2942C13.7024 17.2942 14.1764 16.8202 14.1764 16.2351C14.1764 15.6504 13.7024 15.1764 13.1178 15.1764C12.5326 15.1764 12.0586 15.6504 12.0586 16.2351C12.0586 16.8202 12.5326 17.2942 13.1178 17.2942Z" fill="black"/>
</svg>
