<svg width="24" height="24" viewBox="0 0 24 24" fill="none" xmlns="http://www.w3.org/2000/svg">
<path d="M6.59998 13.2C6.89452 13.2 7.1395 13.4123 7.19031 13.6922L7.20001 13.8V16.2C7.20001 16.4945 7.41224 16.7395 7.69214 16.7903L7.79999 16.8H10.2C10.5314 16.8 10.8 17.0687 10.8 17.4C10.8 17.6945 10.5878 17.9395 10.3079 17.9903L10.2 18H7.79999C6.86435 18 6.09546 17.2861 6.00824 16.3733L6 16.2V13.8C6 13.4687 6.26861 13.2 6.59998 13.2ZM17.4 13.2C17.6945 13.2 17.9395 13.4123 17.9904 13.6922L18 13.8V16.2C18 17.1356 17.2861 17.9045 16.3734 17.9918L16.2 18H13.8C13.4687 18 13.2 17.7313 13.2 17.4C13.2 17.1055 13.4123 16.8605 13.6921 16.8097L13.8 16.8H16.2C16.4945 16.8 16.7395 16.5877 16.7903 16.3078L16.8 16.2V13.8C16.8 13.4687 17.0687 13.2 17.4 13.2ZM10.2 6C10.5314 6 10.8 6.26863 10.8 6.6C10.8 6.89455 10.5878 7.13953 10.3079 7.19033L10.2 7.2H7.79999C7.50544 7.2 7.26046 7.41225 7.20966 7.69215L7.20001 7.8V10.2C7.20001 10.5314 6.93134 10.8 6.59998 10.8C6.30543 10.8 6.06045 10.5877 6.00964 10.3078L6 10.2V7.8C6 6.86436 6.71386 6.09546 7.62665 6.00824L7.79999 6H10.2ZM16.2 6C17.1356 6 17.9045 6.71386 17.9918 7.62665L18 7.8V10.2C18 10.5314 17.7313 10.8 17.4 10.8C17.1055 10.8 16.8605 10.5877 16.8097 10.3078L16.8 10.2V7.8C16.8 7.50545 16.5877 7.26047 16.3079 7.20967L16.2 7.2H13.8C13.4687 7.2 13.2 6.93137 13.2 6.6C13.2 6.30545 13.4123 6.06047 13.6921 6.00967L13.8 6H16.2Z" fill="black"/>
</svg>
