<svg width="24" height="24" viewBox="0 0 24 24" fill="none" xmlns="http://www.w3.org/2000/svg">
<path d="M10.125 12.75C10.7463 12.75 11.25 13.2537 11.25 13.875V16.875C11.25 17.4963 10.7463 18 10.125 18H7.125C6.50368 18 6 17.4963 6 16.875V13.875C6 13.2537 6.50368 12.75 7.125 12.75H10.125ZM16.875 12.75C17.4963 12.75 18 13.2537 18 13.875V16.875C18 17.4963 17.4963 18 16.875 18H13.875C13.2537 18 12.75 17.4963 12.75 16.875V13.875C12.75 13.2537 13.2537 12.75 13.875 12.75H16.875ZM10.125 13.5H7.125C6.91789 13.5 6.75 13.6679 6.75 13.875V16.875C6.75 17.0821 6.91789 17.25 7.125 17.25H10.125C10.3321 17.25 10.5 17.0821 10.5 16.875V13.875C10.5 13.6679 10.3321 13.5 10.125 13.5ZM16.875 13.5H13.875C13.6679 13.5 13.5 13.6679 13.5 13.875V16.875C13.5 17.0821 13.6679 17.25 13.875 17.25H16.875C17.0821 17.25 17.25 17.0821 17.25 16.875V13.875C17.25 13.6679 17.0821 13.5 16.875 13.5ZM10.125 6C10.7463 6 11.25 6.50368 11.25 7.125V10.125C11.25 10.7463 10.7463 11.25 10.125 11.25H7.125C6.50368 11.25 6 10.7463 6 10.125V7.125C6 6.50368 6.50368 6 7.125 6H10.125ZM16.875 6C17.4963 6 18 6.50368 18 7.125V10.125C18 10.7463 17.4963 11.25 16.875 11.25H13.875C13.2537 11.25 12.75 10.7463 12.75 10.125V7.125C12.75 6.50368 13.2537 6 13.875 6H16.875ZM10.125 6.75H7.125C6.91789 6.75 6.75 6.91789 6.75 7.125V10.125C6.75 10.3321 6.91789 10.5 7.125 10.5H10.125C10.3321 10.5 10.5 10.3321 10.5 10.125V7.125C10.5 6.91789 10.3321 6.75 10.125 6.75ZM16.875 6.75H13.875C13.6679 6.75 13.5 6.91789 13.5 7.125V10.125C13.5 10.3321 13.6679 10.5 13.875 10.5H16.875C17.0821 10.5 17.25 10.3321 17.25 10.125V7.125C17.25 6.91789 17.0821 6.75 16.875 6.75Z" fill="black"/>
</svg>
