<svg width="24" height="24" viewBox="0 0 24 24" fill="none" xmlns="http://www.w3.org/2000/svg">
<path d="M7.06664 10C7.0735 10.0001 7.08035 10.0001 7.08719 10H9.47761C9.75375 10 9.97761 9.77614 9.97761 9.5C9.97761 9.22386 9.75375 9 9.47761 9H7.97715C8.88979 7.78495 10.3423 7 11.9776 7C14.739 7 16.9776 9.23858 16.9776 12C16.9776 14.7614 14.739 17 11.9776 17C9.36968 17 7.22762 15.003 6.99801 12.4551C6.97323 12.1801 6.73018 11.9772 6.45516 12.002C6.18013 12.0268 5.97727 12.2698 6.00205 12.5449C6.27768 15.6035 8.8475 18 11.9776 18C15.2913 18 17.9776 15.3137 17.9776 12C17.9776 8.68629 15.2913 6 11.9776 6C10.1851 6 8.57667 6.78613 7.47761 8.03138V7C7.47761 6.72386 7.25375 6.5 6.97761 6.5C6.70147 6.5 6.47761 6.72386 6.47761 7V9.5C6.47761 9.77614 6.70147 10 6.97761 10H7.06664ZM11.4776 9C11.7538 9 11.9776 9.22386 11.9776 9.5V12H13.4776C13.7538 12 13.9776 12.2239 13.9776 12.5C13.9776 12.7761 13.7538 13 13.4776 13H11.4776C11.2015 13 10.9776 12.7761 10.9776 12.5V9.5C10.9776 9.22386 11.2015 9 11.4776 9Z" fill="black"/>
</svg>
