<?xml version="1.0" encoding="UTF-8"?>
<svg width="24" height="24" fill="none" version="1.1" viewBox="0 0 24 24" xmlns="http://www.w3.org/2000/svg">
 <path d="m6.0273 5.9199c-1.108 0-2 0.892-2 2v8c0 1.108 0.892 2 2 2h12c1.108 0 2-0.892 2-2v-8c0-1.108-0.892-2-2-2h-12zm0 1h12c0.554 0 1 0.446 1 1v8c0 0.554-0.446 1-1 1h-12c-0.554 0-1-0.446-1-1v-8c0-0.554 0.446-1 1-1zm0.5 1a0.50005 0.50005 0 0 0-0.5 0.5v2.5a0.5 0.5 0 0 0 0.5 0.5 0.5 0.5 0 0 0 0.5-0.5v-2h2a0.5 0.5 0 0 0 0.5-0.5 0.5 0.5 0 0 0-0.5-0.5h-2.5zm11 4.5a0.5 0.5 0 0 0-0.5 0.5v2h-2a0.5 0.5 0 0 0-0.5 0.5 0.5 0.5 0 0 0 0.5 0.5h2.5a0.50005 0.50005 0 0 0 0.5-0.5v-2.5a0.5 0.5 0 0 0-0.5-0.5z" fill="#000" style="paint-order:markers fill stroke"/>
</svg>
