<?xml version="1.0" encoding="UTF-8"?>
<svg width="24" height="24" fill="none" version="1.1" viewBox="0 0 24 24" xmlns="http://www.w3.org/2000/svg">
 <path d="m6.5273 5c-1.3807 0-2.5 1.1193-2.5 2.5v7c0 1.3807 1.1193 2.5 2.5 2.5h1.5v2.002c0.0071799 0.88556 1.077 1.3255 1.7051 0.70117l2.709-2.7031h5.0859c1.3807 0 2.5-1.1193 2.5-2.5v-7c0-1.3807-1.1193-2.5-2.5-2.5h-11zm0 1h11c0.8284 0 1.5 0.67157 1.5 1.5v7c0 0.8284-0.6716 1.5-1.5 1.5h-5.5l-3 3v-3h-2.5c-0.82843 0-1.5-0.6716-1.5-1.5v-7c0-0.82843 0.67157-1.5 1.5-1.5zm0.5 2a0.5 0.5 0 0 0-0.5 0.5 0.5 0.5 0 0 0 0.5 0.5h10a0.5 0.5 0 0 0 0.5-0.5 0.5 0.5 0 0 0-0.5-0.5h-10zm0 2.5a0.5 0.5 0 0 0-0.5 0.5 0.5 0.5 0 0 0 0.5 0.5h10a0.5 0.5 0 0 0 0.5-0.5 0.5 0.5 0 0 0-0.5-0.5h-10zm0 2.5a0.5 0.5 0 0 0-0.5 0.5 0.5 0.5 0 0 0 0.5 0.5h7a0.5 0.5 0 0 0 0.5-0.5 0.5 0.5 0 0 0-0.5-0.5h-7z" fill="#000"/>
</svg>
