<?xml version="1.0" encoding="UTF-8"?>
<svg id="svg4" width="24" height="24" fill="none" version="1.1" viewBox="0 0 24 24" xmlns="http://www.w3.org/2000/svg">
 <path id="path2" d="m16.95 7c-0.2316-1.1411-1.2405-2-2.45-2s-2.2184 0.85888-2.45 2h-7.55c-0.27614 0-0.5 0.22386-0.5 0.5s0.22386 0.5 0.5 0.5h7.55c0.2316 1.1411 1.2405 2 2.45 2 1.2297 0 2.252-0.88783 2.461-2.0575-0.0035 0.01923-0.0071 0.03839-0.011 0.05746h2.55c0.2761 0 0.5-0.22386 0.5-0.5s-0.2239-0.5-0.5-0.5zm-2.45 2c-0.8284 0-1.5-0.67157-1.5-1.5s0.6716-1.5 1.5-1.5 1.5 0.67157 1.5 1.5-0.6716 1.5-1.5 1.5zm-2.55 7c-0.23163-1.1411-1.2405-2-2.45-2s-2.2184 0.8589-2.45 2h-2.55c-0.27614 0-0.5 0.2239-0.5 0.5s0.22386 0.5 0.5 0.5h2.55c0.23163 1.1411 1.2405 2 2.45 2s2.2184-0.8589 2.45-2h7.55c0.2761 0 0.5-0.2239 0.5-0.5s-0.2239-0.5-0.5-0.5zm-2.45 2c-0.82843 0-1.5-0.6716-1.5-1.5s0.67157-1.5 1.5-1.5 1.5 0.6716 1.5 1.5-0.67157 1.5-1.5 1.5z" fill="#212121"/>
</svg>
