<?xml version="1.0" encoding="UTF-8"?>
<svg id="svg4" width="24" height="24" fill="none" version="1.1" viewBox="0 0 24 24" xmlns="http://www.w3.org/2000/svg">
 <path id="path2" d="m4.3536 9.3542 2.6444-2.6444v11.79c0 0.2761 0.22386 0.5 0.5 0.5 0.27615 0 0.5-0.2239 0.5-0.5v-11.795l2.6489 2.6489c0.19527 0.19526 0.51185 0.19526 0.70711 0 0.19526-0.19527 0.19526-0.51185 0-0.70711l-3.4901-3.4901-0.00999-0.01026c-0.03779-0.0378-0.08013-0.06828-0.12526-0.09144-0.07164-0.0369-0.15033-0.05533-0.22902-0.05531h-0.00167c-0.15382 0-0.29143 0.06947-0.38315 0.17874l-3.4683 3.4683c-0.19527 0.19526-0.19527 0.51184 0 0.70711 0.19526 0.19526 0.51184 0.19526 0.7071 0zm15.293 5.2916-2.6443 2.6444v-11.79c0-0.27614-0.2239-0.5-0.5-0.5-0.2762 0-0.5 0.22386-0.5 0.5v11.795l-2.6489-2.6489c-0.1953-0.1953-0.5119-0.1953-0.7072 0-0.1952 0.1953-0.1952 0.5119 0 0.7071l3.4901 3.4901 0.01 0.0103c0.0378 0.0377 0.0801 0.0682 0.1253 0.0914 0.0716 0.0369 0.1503 0.0553 0.229 0.0553h0.0017c0.1538 0 0.2914-0.0695 0.3831-0.1787l3.4683-3.4684c0.1953-0.1952 0.1953-0.5118 0-0.7071-0.1952-0.1952-0.5118-0.1952-0.7071 0z" fill="#212121"/>
</svg>
