<?xml version="1.0" encoding="UTF-8"?>
<svg width="24" height="24" fill="none" version="1.1" viewBox="0 0 24 24" xmlns="http://www.w3.org/2000/svg">
 <path d="m17.5 5c-0.2761 0-0.5 0.22386-0.5 0.5v13c0 0.2761 0.2239 0.5 0.5 0.5 0.2762 0 0.5-0.2239 0.5-0.5v-13c0-0.27614-0.2238-0.5-0.5-0.5zm-5.4468 0.21436c0.8304-0.5576 1.9468 0.0375 1.9468 1.0378v11.5c0 1.0041-1.1242 1.5984-1.954 1.0329l-8.4992-5.7929c-0.73106-0.4983-0.72732-1.5775 0.00717-2.0707zm0.9468 1.0378c0-0.20005-0.2233-0.31907-0.3893-0.20755l-8.4993 5.7071c-0.1469 0.09864-0.14764 0.31446-0.00143 0.41416l8.4992 5.7928c0.166 0.1131 0.3908-0.0057 0.3908-0.2065z" fill="#212121"/>
</svg>
