<?xml version="1.0" encoding="UTF-8"?>
<svg id="svg4" width="24" height="24" fill="none" version="1.1" viewBox="0 0 24 24" xmlns="http://www.w3.org/2000/svg">
 <path id="path2-224" d="m18.5 8.6712c0.1163 0 0.22329 0.039685 0.30822 0.1062l0.06731 0.063118 0.01625 0.018898c0.6931 0.85822 1.1082 1.9504 1.1082 3.1394 0 0.19691-0.01134 0.39152-0.03364 0.58273-0.30841-0.15496-0.6334-0.28195-0.9716-0.3772 0.0035-0.06803 0.0053-0.13682 0.0053-0.20561 0-0.95346-0.33358-1.829-0.8905-2.5163-0.06811-0.084661-0.10949-0.19351-0.10949-0.31257 0-0.27628 0.2239-0.50003 0.5-0.50003zm-6.293 7.3288c-0.09109 0.32239-0.1536 0.65658-0.18459 0.99999h-3.0224c-0.10174 0-0.20276-3e-3 -0.303-0.0076l1.6565 1.6554c0.17356 0.17348 0.19283 0.443 0.05787 0.63791l-0.05787 0.06916c-0.17356 0.17348-0.44299 0.19276-0.63786 0.05783l-0.06924-0.05783-2.5-2.5c-0.17357-0.17348-0.19285-0.44304-0.05786-0.63791l0.05786-0.06916 2.5-2.5c0.19526-0.19502 0.51184-0.19502 0.7071 0 0.17356 0.17348 0.19283 0.443 0.05787 0.63791l-0.05787 0.06916-1.6366 1.6365 0.14088 0.0076 0.14213 0.0025zm1.4394-11.354c0.17359-0.17348 0.443-0.19276 0.6379-0.057827l0.06932 0.057827 2.5 2.5 0.05779 0.069165c0.11811 0.17046 0.11811 0.39814 0 0.56863l-0.05779 0.069165-2.5 2.5-0.06932 0.05783c-0.17049 0.11792-0.3981 0.11792-0.5686 0l-0.06932-0.05783-0.05779-0.06916c-0.11811-0.17046-0.11811-0.3981 0-0.56863l0.05779-0.069165 1.6366-1.6366-0.1409-0.00756-0.14211-0.00249h-6c-2.2091 0-4 1.7909-4 4 0 0.9563 0.33557 1.8342 0.89537 2.5224 0.06417 0.08353 0.10463 0.19162 0.10463 0.30879 0 0.2759-0.22386 0.49999-0.5 0.49999-0.167 0-0.31488-0.08202-0.40568-0.2075-0.68439-0.85603-1.0943-1.9419-1.0943-3.1236 0-2.6888 2.1223-4.8818 4.7831-4.9954l0.21689-0.00378h6c0.10171 0 0.20281 0.00302 0.303 0.00756l-1.6566-1.6555-0.057789-0.069165c-0.13501-0.19502-0.11569-0.46428 0.057789-0.63783zm8.3536 12.854c0 2.4853-2.0147 4.5-4.5 4.5s-4.5-2.0147-4.5-4.5 2.0147-4.5 4.5-4.5 4.5 2.0147 4.5 4.5zm-3.9523-2.6614c-0.1844-0.05216-0.4905-0.03402-0.6794 0.2332-0.2132 0.30312-0.5812 0.72559-1.0919 0.9809-0.24699 0.12359-0.34711 0.4238-0.2236 0.67079 0.12352 0.24718 0.4238 0.34696 0.6708 0.22375 0.2993-0.14967 0.5578-0.33562 0.7764-0.52898v3.0818c0 0.27628 0.2239 0.49999 0.5 0.49999 0.27609 0 0.5-0.22375 0.5-0.49999v-4.0764c0-0.34847-0.26729-0.53261-0.4523-0.585z" fill="#212121"/>
</svg>
