<svg width="48" height="48" viewBox="0 0 48 48" fill="none" xmlns="http://www.w3.org/2000/svg">
<path d="M10.25 7C6.79822 7 4 9.79822 4 13.25V34.75C4 38.2018 6.79822 41 10.25 41H37.75C41.2018 41 44 38.2018 44 34.75V13.25C44 9.79822 41.2018 7 37.75 7H10.25ZM6.5 13.25C6.5 11.1789 8.17893 9.5 10.25 9.5H15.75L15.75 38.5H10.25C8.17893 38.5 6.5 36.8211 6.5 34.75V13.25ZM18.25 38.5L18.25 9.5H37.75C39.8211 9.5 41.5 11.1789 41.5 13.25V34.75C41.5 36.8211 39.8211 38.5 37.75 38.5H18.25Z" fill="#212121"/>
</svg>