<svg width="24" height="24" viewBox="0 0 24 24" fill="none" xmlns="http://www.w3.org/2000/svg">
<path d="M15.2803 6.03033C14.9874 6.32322 14.5126 6.32322 14.2197 6.03033L12.75 4.56066L12.75 8.25C12.75 8.66421 12.4142 9 12 9C11.5858 9 11.25 8.66421 11.25 8.25L11.25 4.56066L9.78033 6.03033C9.48744 6.32322 9.01256 6.32322 8.71967 6.03033C8.42678 5.73744 8.42678 5.26256 8.71967 4.96967L11.4697 2.21967C11.6103 2.07902 11.8011 2 12 2C12.1989 2 12.3897 2.07902 12.5303 2.21967L15.2803 4.96967C15.5732 5.26256 15.5732 5.73744 15.2803 6.03033ZM6.03033 14.2197C6.32322 14.5126 6.32322 14.9874 6.03033 15.2803C5.73744 15.5732 5.26256 15.5732 4.96967 15.2803L2.21967 12.5303C2.07902 12.3897 2 12.1989 2 12C2 11.8011 2.07902 11.6103 2.21967 11.4697L4.96967 8.71967C5.26256 8.42678 5.73744 8.42678 6.03033 8.71967C6.32322 9.01256 6.32322 9.48744 6.03033 9.78033L4.56066 11.25H8.25C8.66421 11.25 9 11.5858 9 12C9 12.4142 8.66421 12.75 8.25 12.75H4.56066L6.03033 14.2197ZM17.9697 15.2803C17.6768 14.9874 17.6768 14.5126 17.9697 14.2197L19.4393 12.75H15.75C15.3358 12.75 15 12.4142 15 12C15 11.5858 15.3358 11.25 15.75 11.25H19.4393L17.9697 9.78033C17.6768 9.48744 17.6768 9.01256 17.9697 8.71967C18.2626 8.42678 18.7374 8.42678 19.0303 8.71967L21.7803 11.4697C21.921 11.6103 22 11.8011 22 12C22 12.1989 21.921 12.3897 21.7803 12.5303L19.0303 15.2803C18.7374 15.5732 18.2626 15.5732 17.9697 15.2803ZM15.2803 17.9697C14.9874 17.6768 14.5126 17.6768 14.2197 17.9697L12.75 19.4393L12.75 15.75C12.75 15.3358 12.4142 15 12 15C11.5858 15 11.25 15.3358 11.25 15.75L11.25 19.4393L9.78033 17.9697C9.48744 17.6768 9.01256 17.6768 8.71967 17.9697C8.42678 18.2626 8.42678 18.7374 8.71967 19.0303L11.4697 21.7803C11.6103 21.921 11.8011 22 12 22C12.1989 22 12.3897 21.921 12.5303 21.7803L15.2803 19.0303C15.5732 18.7374 15.5732 18.2626 15.2803 17.9697Z" fill="#212121"/>
</svg>
