<?xml version="1.0" encoding="UTF-8"?>
<svg id="svg4" width="24" height="24" fill="none" version="1.1" viewBox="0 0 24 24" xmlns="http://www.w3.org/2000/svg">
 <path id="path2" d="m9.5 13c0.82843 0 1.5 0.6716 1.5 1.5v4c0 0.8284-0.67157 1.5-1.5 1.5h-4c-0.82843 0-1.5-0.6716-1.5-1.5v-4c0-0.8284 0.67157-1.5 1.5-1.5zm9 0c0.8284 0 1.5 0.6716 1.5 1.5v4c0 0.8284-0.6716 1.5-1.5 1.5h-4c-0.8284 0-1.5-0.6716-1.5-1.5v-4c0-0.8284 0.6716-1.5 1.5-1.5zm-9 1h-4c-0.27614 0-0.5 0.2239-0.5 0.5v4c0 0.2761 0.22386 0.5 0.5 0.5h4c0.27614 0 0.5-0.2239 0.5-0.5v-4c0-0.2761-0.22386-0.5-0.5-0.5zm9 0h-4c-0.2761 0-0.5 0.2239-0.5 0.5v4c0 0.2761 0.2239 0.5 0.5 0.5h4c0.2761 0 0.5-0.2239 0.5-0.5v-4c0-0.2761-0.2239-0.5-0.5-0.5zm-9-10c0.82843 0 1.5 0.67157 1.5 1.5v4c0 0.82843-0.67157 1.5-1.5 1.5h-4c-0.82843 0-1.5-0.67157-1.5-1.5v-4c0-0.82843 0.67157-1.5 1.5-1.5zm9 0c0.8284 0 1.5 0.67157 1.5 1.5v4c0 0.82843-0.6716 1.5-1.5 1.5h-4c-0.8284 0-1.5-0.67157-1.5-1.5v-4c0-0.82843 0.6716-1.5 1.5-1.5zm-9 1h-4c-0.27614 0-0.5 0.22386-0.5 0.5v4c0 0.27614 0.22386 0.5 0.5 0.5h4c0.27614 0 0.5-0.22386 0.5-0.5v-4c0-0.27614-0.22386-0.5-0.5-0.5zm9 0h-4c-0.2761 0-0.5 0.22386-0.5 0.5v4c0 0.27614 0.2239 0.5 0.5 0.5h4c0.2761 0 0.5-0.22386 0.5-0.5v-4c0-0.27614-0.2239-0.5-0.5-0.5z" fill="#212121"/>
</svg>
