<?xml version="1.0" encoding="UTF-8"?>
<svg id="svg4" width="24" height="24" fill="none" version="1.1" viewBox="0 0 24 24" xmlns="http://www.w3.org/2000/svg">
 <path id="path2" d="m5 7c0-1.1046 0.89543-2 2-2h2c0.27614 0 0.5 0.22386 0.5 0.5s-0.22386 0.5-0.5 0.5h-2c-0.55228 0-1 0.44772-1 1v2c0 0.27614-0.22386 0.5-0.5 0.5s-0.5-0.22386-0.5-0.5zm9.5-1.5c0-0.27614 0.2239-0.5 0.5-0.5h2c1.1046 0 2 0.89543 2 2v2c0 0.27614-0.2239 0.5-0.5 0.5s-0.5-0.22386-0.5-0.5v-2c0-0.55228-0.4477-1-1-1h-2c-0.2761 0-0.5-0.22386-0.5-0.5zm-9 9c0.27614 0 0.5 0.2239 0.5 0.5v2c0 0.5523 0.44772 1 1 1h2c0.27614 0 0.5 0.2239 0.5 0.5s-0.22386 0.5-0.5 0.5h-2c-1.1046 0-2-0.8954-2-2v-2c0-0.2761 0.22386-0.5 0.5-0.5zm13 0c0.2761 0 0.5 0.2239 0.5 0.5v2c0 1.1046-0.8954 2-2 2h-2c-0.2761 0-0.5-0.2239-0.5-0.5s0.2239-0.5 0.5-0.5h2c0.5523 0 1-0.4477 1-1v-2c0-0.2761 0.2239-0.5 0.5-0.5z" fill="#212121"/>
</svg>
