<?xml version="1.0" encoding="UTF-8"?>
<svg id="svg4" width="24" height="24" fill="none" version="1.1" viewBox="0 0 24 24" xmlns="http://www.w3.org/2000/svg">
 <path id="path2" d="m16.702 4.2259c0.644-0.20122 1.2983 0.27984 1.2983 0.95448v10.32c0 1.3807-1.1193 2.5-2.5 2.5s-2.5-1.1193-2.5-2.5 1.1193-2.5 2.5-2.5c0.5628 0 1.0822 0.186 1.5 0.4998v-5.3197l-7 2.1875v7.1324c0 1.3807-1.1193 2.5-2.5 2.5s-2.5-1.1193-2.5-2.5 1.1193-2.5 2.5-2.5c0.5628 0 1.0822 0.186 1.5 0.4998v-8.1322c0-0.43738 0.28425-0.82401 0.70173-0.95448zm-6.7017 5.0943 7-2.1875v-1.9523l-7 2.1875zm-2.5 6.6801c-0.82843 0-1.5 0.6716-1.5 1.5s0.67157 1.5 1.5 1.5 1.5-0.6716 1.5-1.5-0.67157-1.5-1.5-1.5zm6.5-0.5c0 0.8284 0.6716 1.5 1.5 1.5s1.5-0.6716 1.5-1.5-0.6716-1.5-1.5-1.5-1.5 0.6716-1.5 1.5z" fill="#212121"/>
</svg>
