<?xml version="1.0" encoding="UTF-8"?>
<svg id="svg4" width="24" height="24" fill="none" version="1.1" viewBox="0 0 24 24" xmlns="http://www.w3.org/2000/svg">
 <path id="path2" d="m18.5 8.6712c0.1163 0 0.2233 0.0397 0.3082 0.10629l0.0673 0.06306 0.0163 0.02c0.6931 0.8582 1.1082 1.9503 1.1082 3.1394 0 2.6888-2.1223 4.8818-4.7831 4.9954l-0.2169 0.0046h-6c-0.10174 0-0.20276-3e-3 -0.303-9e-3l1.6566 1.6554c0.17357 0.1736 0.19285 0.443 0.05786 0.6379l-0.05786 0.0693c-0.17356 0.1735-0.44299 0.1928-0.63786 0.0578l-0.06924-0.0578-2.5-2.5c-0.17357-0.1736-0.19285-0.443-0.05786-0.6379l0.05786-0.0693 2.5-2.5c0.19526-0.1952 0.51184-0.1952 0.7071 0 0.17357 0.1736 0.19285 0.443 0.05786 0.6379l-0.05786 0.0693-1.6366 1.6365 0.14088 0.0074 0.14213 0.0025h6c2.2091 0 4-1.7909 4-4 0-0.95348-0.3336-1.829-0.8905-2.5163-0.0681-0.08456-0.1095-0.19367-0.1095-0.31245 0-0.27614 0.2239-0.5 0.5-0.5zm-4.8536-4.0248c0.1736-0.17357 0.443-0.19285 0.6379-0.05786l0.0693 0.05786 2.5 2.5 0.0578 0.06924c0.1181 0.17051 0.1181 0.39811 0 0.56862l-0.0578 0.06924-2.5 2.5-0.0693 0.05786c-0.1705 0.11812-0.3981 0.11812-0.5686 0l-0.0693-0.05786-0.0578-0.06924c-0.1181-0.17051-0.1181-0.39811 0-0.56862l0.0578-0.06924 1.6366-1.6366-0.1409-0.00738-0.1421-0.00248h-6c-2.2091 0-4 1.7909-4 4 0 0.9563 0.33557 1.8342 0.89537 2.5224 0.06417 0.0836 0.10463 0.1915 0.10463 0.3089 0 0.2761-0.22386 0.5-0.5 0.5-0.167 0-0.31488-0.0819-0.40568-0.2077-0.68439-0.856-1.0943-1.9419-1.0943-3.1236 0-2.6888 2.1223-4.8818 4.7831-4.9954l0.21689-0.00462h6c0.1017 0 0.2028 0.00304 0.303 0.00903l-1.6566-1.6555-0.0578-0.06924c-0.135-0.19487-0.1157-0.4643 0.0578-0.63786z" fill="#212121"/>
</svg>
