<?xml version="1.0" encoding="UTF-8"?>
<svg id="svg4" width="24" height="24" fill="none" version="1.1" viewBox="0 0 24 24" xmlns="http://www.w3.org/2000/svg">
 <path id="path2" d="m4 8.5c0-1.3807 1.1193-2.5 2.5-2.5h11c1.3807 0 2.5 1.1193 2.5 2.5v7c0 1.3807-1.1193 2.5-2.5 2.5h-11c-1.3807 0-2.5-1.1193-2.5-2.5zm2.5-1.5c-0.82843 0-1.5 0.67157-1.5 1.5v7c0 0.8284 0.67157 1.5 1.5 1.5h11c0.8284 0 1.5-0.6716 1.5-1.5v-7c0-0.82843-0.6716-1.5-1.5-1.5zm10.5 1.5c0-0.27614 0.2239-0.5 0.5-0.5s0.5 0.22386 0.5 0.5v1c0 0.27614-0.2239 0.5-0.5 0.5s-0.5-0.22386-0.5-0.5zm0.5 5.5c-0.2761 0-0.5 0.2239-0.5 0.5v1c0 0.2761 0.2239 0.5 0.5 0.5s0.5-0.2239 0.5-0.5v-1c0-0.2761-0.2239-0.5-0.5-0.5zm-0.5-2.5c0-0.27614 0.2239-0.5 0.5-0.5s0.5 0.22386 0.5 0.5v1c0 0.2761-0.2239 0.5-0.5 0.5s-0.5-0.2239-0.5-0.5zm-10.5-3.5c-0.27614 0-0.5 0.22386-0.5 0.5v1c0 0.27614 0.22386 0.5 0.5 0.5s0.5-0.22386 0.5-0.5v-1c0-0.27614-0.22386-0.5-0.5-0.5zm-0.5 6.5c0-0.2761 0.22386-0.5 0.5-0.5s0.5 0.2239 0.5 0.5v1c0 0.2761-0.22386 0.5-0.5 0.5s-0.5-0.2239-0.5-0.5zm0.5-3.5c-0.27614 0-0.5 0.22386-0.5 0.5v1c0 0.2761 0.22386 0.5 0.5 0.5s0.5-0.2239 0.5-0.5v-1c0-0.27614-0.22386-0.5-0.5-0.5z" fill="#212121"/>
</svg>
