<?xml version="1.0" encoding="UTF-8"?>
<svg id="svg4" width="24" height="24" fill="none" version="1.1" viewBox="0 0 24 24" xmlns="http://www.w3.org/2000/svg">
 <path id="path2" d="m19 5.5c0-0.27614-0.2239-0.5-0.5-0.5-0.2762 0-0.5 0.22386-0.5 0.5v13c0 0.2761 0.2238 0.5 0.5 0.5 0.2761 0 0.5-0.2239 0.5-0.5zm-14 0.75211c0-1.0002 1.1164-1.5954 1.9468-1.0378l8.4992 5.7071c0.7345 0.4932 0.7383 1.5724 0.0072 2.0707l-8.4993 5.7929c-0.82977 0.5655-1.954-0.0288-1.954-1.0329zm1.3894-0.20755c-0.16608-0.11152-0.38937 0.0075-0.38937 0.20755v11.5c0 0.2008 0.22485 0.3196 0.3908 0.2065l8.4993-5.7928c0.1462-0.0997 0.1455-0.31552-0.0014-0.41415z" fill="#212121"/>
</svg>
