<?xml version="1.0" encoding="UTF-8"?>
<svg id="svg4" width="24" height="24" fill="none" version="1.1" viewBox="0 0 24 24" xmlns="http://www.w3.org/2000/svg">
 <path id="path2" d="m4 5.5c0-0.82843 0.67157-1.5 1.5-1.5h1c0.82843 0 1.5 0.67157 1.5 1.5v1c0 0.82843-0.67157 1.5-1.5 1.5h-1c-0.82843 0-1.5-0.67157-1.5-1.5zm1.5-0.5c-0.27614 0-0.5 0.22386-0.5 0.5v1c0 0.27614 0.22386 0.5 0.5 0.5h1c0.27614 0 0.5-0.22386 0.5-0.5v-1c0-0.27614-0.22386-0.5-0.5-0.5zm-1.5 6.5c0-0.82843 0.67157-1.5 1.5-1.5h1c0.82843 0 1.5 0.67157 1.5 1.5v1c0 0.8284-0.67157 1.5-1.5 1.5h-1c-0.82843 0-1.5-0.6716-1.5-1.5zm1.5-0.5c-0.27614 0-0.5 0.22386-0.5 0.5v1c0 0.2761 0.22386 0.5 0.5 0.5h1c0.27614 0 0.5-0.2239 0.5-0.5v-1c0-0.27614-0.22386-0.5-0.5-0.5zm-1.5 6.5c0-0.8284 0.67157-1.5 1.5-1.5h1c0.82843 0 1.5 0.6716 1.5 1.5v1c0 0.8284-0.67157 1.5-1.5 1.5h-1c-0.82843 0-1.5-0.6716-1.5-1.5zm1.5-0.5c-0.27614 0-0.5 0.2239-0.5 0.5v1c0 0.2761 0.22386 0.5 0.5 0.5h1c0.27614 0 0.5-0.2239 0.5-0.5v-1c0-0.2761-0.22386-0.5-0.5-0.5zm4.5-10.5c0-0.27614 0.22386-0.5 0.5-0.5h9c0.2761 0 0.5 0.22386 0.5 0.5s-0.2239 0.5-0.5 0.5h-9c-0.27614 0-0.5-0.22386-0.5-0.5zm0 6c0-0.2761 0.22386-0.5 0.5-0.5h9c0.2761 0 0.5 0.2239 0.5 0.5s-0.2239 0.5-0.5 0.5h-9c-0.27614 0-0.5-0.2239-0.5-0.5zm0 6c0-0.2761 0.22386-0.5 0.5-0.5h9c0.2761 0 0.5 0.2239 0.5 0.5s-0.2239 0.5-0.5 0.5h-9c-0.27614 0-0.5-0.2239-0.5-0.5z" fill="#212121"/>
</svg>
