<?xml version="1.0" encoding="UTF-8"?>
<svg id="svg4" width="24" height="24" fill="none" version="1.1" viewBox="0 0 24 24" xmlns="http://www.w3.org/2000/svg">
 <path id="path2" d="m12.018 7.4862c0-0.8191 0.9308-1.2908 1.5914-0.80641l5.8796 4.3117c0.681 0.49944 0.681 1.5165 0 2.016l-5.8796 4.3117c-0.6606 0.4844-1.5914 0.0127-1.5914-0.8064v-3.16l-5.4086 3.9664c-0.66052 0.4844-1.5914 0.0127-1.5914-0.8064v-9.0266c0-0.8191 0.93084-1.2908 1.5914-0.80641l5.4086 3.9663zm6.8796 4.3117-5.8796-4.3117v9.0266l5.8796-4.3117c0.1362-0.0999 0.1362-0.30335 0-0.40324zm-7 0-5.8796-4.3117v9.0266l5.8796-4.3117c0.1362-0.0999 0.1362-0.30335 0-0.40324z" fill="#212121"/>
</svg>
