<?xml version="1.0" encoding="UTF-8"?>
<svg id="svg4" width="24" height="24" fill="none" version="1.1" viewBox="0 0 24 24" xmlns="http://www.w3.org/2000/svg">
 <path id="path2" d="m4.998 5.5c0-0.27614 0.22385-0.5 0.5-0.5 0.27614 0 0.5 0.22386 0.5 0.5v2.2063c0.91262-1.0345 2.0839-1.8225 3.4064-2.2752 1.8362-0.62864 3.8384-0.56798 5.6332 0.17064s3.2597 2.1048 4.1216 3.8438c0.1226 0.24742 0.0215 0.54741-0.226 0.67003-0.2474 0.12263-0.5474 0.02146-0.67-0.22596-0.7541-1.5215-2.0358-2.7168-3.6062-3.3631-1.5703-0.64625-3.3221-0.69932-4.9287-0.1493-1.4133 0.48384-2.6293 1.4053-3.4765 2.6228h3.2462c0.27614 0 0.5 0.22386 0.5 0.5s-0.22386 0.5-0.5 0.5h-4c-0.27615 0-0.5-0.22386-0.5-0.5zm5.002 7c0-0.1844-0.10149-0.3538-0.26407-0.4408-0.16258-0.08705-0.35985-0.07751-0.51328 0.0248l-1.5 1c-0.22976 0.1532-0.29185 0.4636-0.13867 0.6934 0.15317 0.2297 0.46361 0.2918 0.69337 0.1386l0.72265-0.4817v5.0657c0 0.2761 0.22386 0.5 0.5 0.5 0.27615 0 0.5-0.2239 0.5-0.5zm4.5028-0.5c-0.9349 0-1.5971 0.4367-1.9958 1.1292-0.3765 0.6541-0.5042 1.5074-0.5042 2.3708s0.1277 1.7167 0.5042 2.3708c0.3987 0.6925 1.0609 1.1292 1.9958 1.1292 0.935 0 1.5972-0.4367 1.9959-1.1292 0.3765-0.6541 0.5041-1.5074 0.5041-2.3708s-0.1276-1.7167-0.5041-2.3708c-0.3987-0.6925-1.0609-1.1292-1.9959-1.1292zm-1.5 3.5c0-0.7935 0.1224-1.4402 0.3709-1.8719 0.2263-0.3932 0.5641-0.6281 1.1291-0.6281 0.5651 0 0.9029 0.2349 1.1292 0.6281 0.2485 0.4317 0.3708 1.0784 0.3708 1.8719s-0.1223 1.4402-0.3708 1.8719c-0.2263 0.3932-0.5641 0.6281-1.1292 0.6281-0.565 0-0.9028-0.2349-1.1291-0.6281-0.2485-0.4317-0.3709-1.0784-0.3709-1.8719z" fill="#212121"/>
</svg>
