<?xml version="1.0" encoding="UTF-8"?>
<svg id="svg4" width="24" height="24" fill="none" version="1.1" viewBox="0 0 24 24" xmlns="http://www.w3.org/2000/svg">
 <path id="path2" d="m4 7.5c0-0.82843 0.67157-1.5 1.5-1.5h13c0.8284 0 1.5 0.67157 1.5 1.5v9c0 0.8284-0.6716 1.5-1.5 1.5h-13c-0.82843 0-1.5-0.6716-1.5-1.5zm1.5-0.5c-0.27614 0-0.5 0.22386-0.5 0.5v9c0 0.2761 0.22386 0.5 0.5 0.5h13c0.2761 0 0.5-0.2239 0.5-0.5v-9c0-0.27614-0.2239-0.5-0.5-0.5zm1.9989 8.2495c0 0.4139-0.33554 0.7494-0.74945 0.7494s-0.74945-0.3355-0.74945-0.7494c0-0.414 0.33554-0.7495 0.74945-0.7495s0.74945 0.3355 0.74945 0.7495zm-1.5016-2.7495c0-0.2761 0.22386-0.5 0.5-0.5 1.9344 0 3.5025 1.5681 3.5025 3.5025 0 0.2762-0.22386 0.5-0.5 0.5s-0.5-0.2238-0.5-0.5c0-1.3821-1.1204-2.5025-2.5025-2.5025-0.27614 0-0.5-0.2239-0.5-0.5zm1e-5 -2.5c0-0.27614 0.22386-0.5 0.5-0.5 3.3152 0 6.0027 2.6875 6.0027 6.0027 0 0.2761-0.2239 0.5-0.5 0.5-0.27614 0-0.5-0.2239-0.5-0.5 0-2.7629-2.2398-5.0027-5.0027-5.0027-0.27614 0-0.5-0.22386-0.5-0.5z" fill="#212121"/>
</svg>
