<?xml version="1.0" encoding="UTF-8"?>
<svg id="svg4" width="24" height="24" fill="none" version="1.1" viewBox="0 0 24 24" xmlns="http://www.w3.org/2000/svg">
 <path id="path2" d="m12 8c-2.2092 0-4 1.7909-4 4 0 2.2092 1.7909 4 4 4 2.2091 0 4-1.7908 4-4 0-2.2091-1.7909-4-4-4zm-3 4c0-1.6568 1.3432-3 3-3 1.6568 0 3 1.3432 3 3 0 1.6569-1.3432 3-3 3-1.6569 0-3-1.3431-3-3zm1.1239-8c-0.56705 0-1.0856 0.31977-1.3403 0.82643l-0.58949 1.173h-1.6895c-1.3807 0-2.5 1.1193-2.5 2.5v8.0006c0 1.3807 1.1193 2.5 2.5 2.5h11c1.3807 0 2.5-1.1193 2.5-2.5v-8.0006c0-1.3807-1.1193-2.5-2.5-2.5h-1.69l-0.5849-1.1701c-0.254-0.50824-0.7735-0.8293-1.3417-0.8293zm-0.44676 1.2755c0.08488-0.16889 0.25774-0.27548 0.44676-0.27548h3.7642c0.1894 0 0.3626 0.10702 0.4473 0.27643l0.7231 1.4465c0.0846 0.16942 0.2578 0.27644 0.4472 0.27644h1.999c0.8284 0 1.5 0.67157 1.5 1.5v8.0006c0 0.8284-0.6716 1.5-1.5 1.5h-11c-0.82842 0-1.5-0.6716-1.5-1.5v-8.0006c0-0.82843 0.67158-1.5 1.5-1.5h1.9978c0.18901 0 0.36187-0.10659 0.44675-0.27548z" fill="#212121"/>
</svg>
