<?xml version="1.0" encoding="UTF-8"?>
<svg id="svg4" width="24" height="24" fill="none" version="1.1" viewBox="0 0 24 24" xmlns="http://www.w3.org/2000/svg">
 <path id="path2" d="m12 8c-0.69036 0-1.25-0.55964-1.25-1.25s0.55964-1.25 1.25-1.25c0.6904 0 1.25 0.55964 1.25 1.25s-0.5596 1.25-1.25 1.25zm0 5.25c-0.69036 0-1.25-0.5596-1.25-1.25 0-0.69036 0.55964-1.25 1.25-1.25 0.6904 0 1.25 0.55964 1.25 1.25 0 0.6904-0.5596 1.25-1.25 1.25zm-1.25 4c0 0.6904 0.55964 1.25 1.25 1.25 0.6904 0 1.25-0.5596 1.25-1.25s-0.5596-1.25-1.25-1.25c-0.69036 0-1.25 0.5596-1.25 1.25z" fill="#212121"/>
</svg>
