<?xml version="1.0" encoding="UTF-8"?>
<svg id="svg4" width="24" height="24" fill="none" version="1.1" viewBox="0 0 24 24" xmlns="http://www.w3.org/2000/svg">
 <path id="path2" d="m18.832 9.3836c0.4094 0.40939 0.7963 0.87749 1.1331 1.3654 0.1568 0.22727 0.0997 0.53866-0.1275 0.69551-0.2273 0.15686-0.5387 0.09978-0.6956-0.12749-0.3031-0.43925-0.6514-0.86073-1.0171-1.2264-3.363-3.3631-8.8156-3.3631-12.179 0-0.34824 0.34824-0.69283 0.76959-1.007 1.2225-0.15741 0.22689-0.46894 0.28322-0.69583 0.12582-0.22689-0.15741-0.28322-0.46894-0.12582-0.69583 0.34647-0.49942 0.72839-0.96642 1.1216-1.3596 3.7536-3.7536 9.8394-3.7536 13.593 0zm-2.2356 1.9734c0.4723 0.47233 0.8818 1.046 1.1938 1.656 0.1257 0.2459 0.0284 0.5471-0.2175 0.6729-0.2458 0.1257-0.5471 0.0284-0.6728-0.2175-0.2658-0.5196-0.6145-1.0081-1.0106-1.4043-2.1284-2.1283-5.5791-2.1283-7.7074 0-0.41337 0.4134-0.74933 0.8784-1.0079 1.3897-0.12464 0.2464-0.42544 0.3451-0.67185 0.2204-0.24641-0.1246-0.34513-0.4254-0.22049-0.6718 0.30624-0.6054 0.70461-1.1568 1.1932-1.6454 2.5189-2.5189 6.6027-2.5189 9.1216 0zm-1.709 2.4971c0.3543 0.3543 0.6462 0.7901 0.8494 1.2538 0.1108 0.2529-0.0044 0.5478-0.2573 0.6586-0.253 0.1108-0.5478-0.0044-0.6587-0.2573-0.1543-0.3522-0.3765-0.684-0.6405-0.9479-1.1845-1.1845-3.105-1.1845-4.2895 0-0.2627 0.2627-0.4755 0.5819-0.63106 0.9374-0.11069 0.253-0.40551 0.3683-0.6585 0.2576-0.25298-0.1107-0.36833-0.4055-0.25763-0.6585 0.20413-0.4665 0.48646-0.89 0.84009-1.2437 1.575-1.575 4.1287-1.575 5.7037 0zm-1.9247 1.9327c0.5071 0.507 0.5071 1.3292 0 1.8362-0.507 0.5071-1.3292 0.5071-1.8362 0-0.50706-0.507-0.50706-1.3292 0-1.8362 0.50707-0.5071 1.3292-0.5071 1.8362 0z" fill="#212121"/>
</svg>
