<?xml version="1.0" encoding="UTF-8"?>
<svg id="svg4" width="24" height="24" fill="none" version="1.1" viewBox="0 0 24 24" xmlns="http://www.w3.org/2000/svg">
 <path id="path2" d="m6 6.5c0-1.3807 1.1193-2.5 2.5-2.5h7c1.3807 0 2.5 1.1193 2.5 2.5v13c0 0.1881-0.1055 0.3602-0.2731 0.4456-0.1676 0.0853-0.3689 0.0694-0.521-0.0412l-5.2059-3.7862-5.2059 3.7862c-0.1521 0.1106-0.35339 0.1265-0.52098 0.0412-0.16758-0.0854-0.27311-0.2575-0.27311-0.4456zm2.5-1.5c-0.82843 0-1.5 0.67157-1.5 1.5v12.018l4.7059-3.4225c0.17532-0.1275 0.41288-0.1275 0.58818 0l4.7059 3.4225v-12.018c0-0.82843-0.6716-1.5-1.5-1.5z" fill="#212121"/>
</svg>
