<?xml version="1.0" encoding="UTF-8"?>
<svg id="svg4" width="24" height="24" fill="none" version="1.1" viewBox="0 0 24 24" xmlns="http://www.w3.org/2000/svg">
 <path id="path2" d="m12 20c4.4183 0 8-3.5817 8-8 0-4.4183-3.5817-8-8-8-4.4183 0-8 3.5817-8 8 0 4.4183 3.5817 8 8 8zm0-15c0.6568 0 1.4068 0.59025 2.0218 1.9081 0.2175 0.46605 0.4065 1.0016 0.5588 1.5919h-5.1612c0.15236-0.59022 0.34137-1.1258 0.55886-1.5919 0.61501-1.3179 1.3649-1.9081 2.0218-1.9081zm-2.928 1.4853c-0.27639 0.59227-0.50705 1.2717-0.68272 2.0147h-2.4528c0.83647-1.446 2.1753-2.565 3.7779-3.1184-0.24145 0.33059-0.45614 0.70454-0.64239 1.1036zm-0.87938 3.0147c-0.12542 0.78832-0.19265 1.6293-0.19265 2.5 0 0.8707 0.06723 1.7117 0.19265 2.5h-2.733c-0.29695-0.7764-0.45963-1.6192-0.45963-2.5s0.16268-1.7236 0.45963-2.5zm0.19666 6c0.17567 0.743 0.40633 1.4225 0.68272 2.0147 0.18625 0.3991 0.40094 0.7731 0.64239 1.1037-1.6026-0.5534-2.9415-1.6724-3.7779-3.1184zm1.03 0h5.1612c-0.1523 0.5902-0.3413 1.1258-0.5588 1.5919-0.615 1.3178-1.365 1.9081-2.0218 1.9081-0.65685 0-1.4068-0.5903-2.0218-1.9081-0.21749-0.4661-0.4065-1.0017-0.55886-1.5919zm5.3744-1h-5.5876c-0.13272-0.7747-0.20617-1.6167-0.20617-2.5 0-0.88331 0.07345-1.7253 0.20617-2.5h5.5876c0.1328 0.77472 0.2062 1.6167 0.2062 2.5 0 0.8833-0.0734 1.7253-0.2062 2.5zm0.8169 1h2.4528c-0.8364 1.446-2.1753 2.565-3.7779 3.1184 0.2414-0.3306 0.4561-0.7046 0.6424-1.1037 0.2764-0.5922 0.507-1.2717 0.6827-2.0147zm2.9297-1h-2.733c0.1254-0.7883 0.1926-1.6293 0.1926-2.5 0-0.87066-0.0672-1.7117-0.1926-2.5h2.733c0.2969 0.7764 0.4596 1.6192 0.4596 2.5s-0.1627 1.7236-0.4596 2.5zm-4.2548-9.1184c1.6026 0.55334 2.9415 1.6724 3.7779 3.1184h-2.4528c-0.1757-0.74304-0.4063-1.4225-0.6827-2.0147-0.1863-0.39909-0.401-0.77304-0.6424-1.1036z" fill="#212121"/>
</svg>
