<?xml version="1.0" encoding="UTF-8"?>
<svg width="24" height="24" fill="none" version="1.1" viewBox="0 0 24 24" xmlns="http://www.w3.org/2000/svg">
 <path d="m12 5c-0.47143 0-0.94696 0.15043-1.2988 0.49414-0.35187 0.34394-0.58137 0.82234-0.79688 1.4688l-3.1387 9.4121h-0.95117c-0.71884 0-1.3145 0.59544-1.3145 1.3145v0.8125a0.50005 0.50005 0 0 0 0.50195 0.50195h6.6016a5.5 5.5 0 0 1-0.39453-1.0059h-5.7129v-0.30859c0-0.17877 0.13966-0.31836 0.31836-0.31836h1.3145a0.50005 0.50005 0 0 0 0.4707-0.33984l3.248-9.75c0.19079-0.57233 0.38707-0.90647 0.55469-1.0703 0.16762-0.16403 0.30297-0.20703 0.59766-0.20703 0.29469 0 0.43004 0.043 0.59766 0.20703 0.16762 0.16365 0.36389 0.49798 0.55469 1.0703l1.3613 4.0898h0.001953a5.5 5.5 0 0 1 0.95898-0.27539l-1.3789-4.1328c-0.21551-0.64641-0.44501-1.1248-0.79688-1.4688-0.35187-0.34394-0.8274-0.49414-1.2988-0.49414zm4.5 7c-2.4853 0-4.5 2.0147-4.5 4.5s2.0147 4.5 4.5 4.5c2.4853 0 4.5-2.0147 4.5-4.5s-2.0147-4.5-4.5-4.5zm-1.5 2.5c0.12798 0 0.25587 0.048972 0.35352 0.14648l1.1465 1.1465 1.1465-1.1465c0.1953-0.19502 0.51174-0.19502 0.70703 0 0.19521 0.19529 0.19521 0.51163 0 0.70703l-1.1465 1.1465 1.1465 1.1465c0.19521 0.19529 0.19521 0.51163 0 0.70703-0.1953 0.19502-0.51174 0.19502-0.70703 0l-1.1465-1.1465-1.1465 1.1465c-0.1953 0.19502-0.51174 0.19502-0.70703 0-0.19521-0.19529-0.19521-0.51163 0-0.70703l1.1465-1.1465-1.1465-1.1465c-0.19521-0.19529-0.19521-0.51163 0-0.70703 0.09765-0.097512 0.22554-0.14648 0.35352-0.14648z" fill="#000000"/>
</svg>
