<?xml version="1.0" encoding="UTF-8"?>
<svg id="svg4" width="24" height="24" fill="none" version="1.1" viewBox="0 0 24 24" xmlns="http://www.w3.org/2000/svg">
 <path id="path4663" d="m4.5 6a0.5 0.5 0 0 0-0.5 0.5 0.5 0.5 0 0 0 0.5 0.5h9a0.5 0.5 0 0 0 0.5-0.5 0.5 0.5 0 0 0-0.5-0.5zm0 4a0.5 0.5 0 0 0-0.5 0.5 0.5 0.5 0 0 0 0.5 0.5h9a0.5 0.5 0 0 0 0.5-0.5 0.5 0.5 0 0 0-0.5-0.5zm9 3a0.5 0.5 0 0 0-0.35352 0.14648 0.5 0.5 0 0 0 0 0.70703l2.1465 2.1465-2.1465 2.1465a0.5 0.5 0 0 0 0 0.70703 0.5 0.5 0 0 0 0.70703 0l2.1465-2.1465 2.1465 2.1465a0.5 0.5 0 0 0 0.70703 0 0.5 0.5 0 0 0 0-0.70703l-2.1465-2.1465 2.1465-2.1465a0.5 0.5 0 0 0 0-0.70703 0.5 0.5 0 0 0-0.35352-0.14648 0.5 0.5 0 0 0-0.35352 0.14648l-2.1465 2.1465-2.1465-2.1465a0.5 0.5 0 0 0-0.35352-0.14648zm-9 1a0.5 0.5 0 0 0-0.5 0.5 0.5 0.5 0 0 0 0.5 0.5h5a0.5 0.5 0 0 0 0.5-0.5 0.5 0.5 0 0 0-0.5-0.5z" color="#000000" fill="#000" fill-rule="evenodd" stroke-linecap="round" style="-inkscape-stroke:none"/>
</svg>
