<svg width="24" height="24" viewBox="0 0 24 24" fill="none" xmlns="http://www.w3.org/2000/svg">
<path d="M12 11C12.2761 11 12.5 11.2239 12.5 11.5V14.5C12.5 14.7761 12.2761 15 12 15C11.7239 15 11.5 14.7761 11.5 14.5V11.5C11.5 11.2239 11.7239 11 12 11ZM12 10.2491C12.4137 10.2491 12.749 9.91371 12.749 9.50003C12.749 9.08635 12.4137 8.751 12 8.751C11.5863 8.751 11.251 9.08635 11.251 9.50003C11.251 9.91371 11.5863 10.2491 12 10.2491ZM6 12C6 8.68629 8.68629 6 12 6C15.3137 6 18 8.68629 18 12C18 15.3137 15.3137 18 12 18C8.68629 18 6 15.3137 6 12ZM12 7C9.23858 7 7 9.23858 7 12C7 14.7614 9.23858 17 12 17C14.7614 17 17 14.7614 17 12C17 9.23858 14.7614 7 12 7Z" fill="#212121"/>
</svg>
