<svg width="24" height="24" viewBox="0 0 24 24" fill="none" xmlns="http://www.w3.org/2000/svg">
<path d="M14.3558 16.6221C14.7363 16.6221 15.0448 16.9305 15.0448 17.311C15.0448 17.6598 14.7856 17.9481 14.4493 17.9937L14.3558 18H5.68895C5.30846 18 5 17.6915 5 17.311C5 16.9623 5.25919 16.674 5.59547 16.6284L5.68895 16.6221H14.3558ZM18.9656 11.552C19.3461 11.552 19.6545 11.8605 19.6545 12.241C19.6545 12.5898 19.3953 12.878 19.059 12.9237L18.9656 12.93H5.68895C5.30846 12.93 5 12.6215 5 12.241C5 11.8922 5.25919 11.604 5.59547 11.5583L5.68895 11.552H18.9656ZM15.2694 6C15.6499 6 15.9583 6.30846 15.9583 6.68895C15.9583 7.03775 15.6992 7.326 15.3629 7.37162L15.2694 7.37791H5.68895C5.30846 7.37791 5 7.06945 5 6.68895C5 6.34016 5.25919 6.05191 5.59547 6.00629L5.68895 6H15.2694Z" fill="black"/>
</svg>
