<svg width="24" height="24" viewBox="0 0 24 24" fill="none" xmlns="http://www.w3.org/2000/svg">
<path d="M7 7.68433C7 6.98934 7.78366 6.58328 8.35144 6.98407L14.4655 11.2998C14.9492 11.6413 14.9492 12.3588 14.4655 12.7003L8.35144 17.0161C7.78366 17.4169 7 17.0108 7 16.3158V7.68433ZM16.8571 6.85723C17.0938 6.85723 17.2857 7.04911 17.2857 7.2858V16.7144C17.2857 16.951 17.0938 17.1429 16.8571 17.1429C16.6205 17.1429 16.4286 16.951 16.4286 16.7144V7.2858C16.4286 7.04911 16.6205 6.85723 16.8571 6.85723ZM7.85714 7.68433V16.3158L13.9711 12.0001L7.85714 7.68433Z" fill="black"/>
</svg>
