<svg width="32" height="32" viewBox="0 0 32 32" fill="none" xmlns="http://www.w3.org/2000/svg">
<path d="M4.97656 13.875C4.97656 11.174 7.16617 8.98438 9.86719 8.98438C12.5682 8.98438 14.7578 11.174 14.7578 13.875V18.1016C14.7578 20.8026 12.5682 22.9922 9.86719 22.9922C7.16617 22.9922 4.97656 20.8026 4.97656 18.1016V13.875ZM9.86719 11.7344C8.68495 11.7344 7.72656 12.6928 7.72656 13.875V18.1016C7.72656 19.2838 8.68495 20.2422 9.86719 20.2422C11.0494 20.2422 12.0078 19.2838 12.0078 18.1016V13.875C12.0078 12.6928 11.0494 11.7344 9.86719 11.7344Z" fill="#212121"/>
<path d="M18.375 8.98438C19.1344 8.98438 19.75 9.59998 19.75 10.3594V13.441C19.75 13.5536 19.8873 13.6088 19.9653 13.5274L23.8822 9.43936C24.4075 8.89103 25.2779 8.87242 25.8263 9.39779C26.3746 9.92316 26.3932 10.7936 25.8678 11.3419L22.4216 14.9387C22.3816 14.9804 22.3755 15.0442 22.4068 15.0928L26.1407 20.8967C26.5516 21.5353 26.367 22.3861 25.7283 22.797C25.0897 23.2079 24.2389 23.0232 23.828 22.3846L20.4828 17.185C20.4391 17.117 20.3434 17.1078 20.2875 17.1661L19.7897 17.6856L19.7876 17.6879C19.764 17.7123 19.75 17.7446 19.75 17.7786V21.6172C19.75 22.3766 19.1344 22.9922 18.375 22.9922C17.6156 22.9922 17 22.3766 17 21.6172V10.3594C17 9.59998 17.6156 8.98438 18.375 8.98438Z" fill="#212121"/>
<path d="M6 1C3.23858 1 1 3.23858 1 6V26C1 28.7614 3.23858 31 6 31H26C28.7614 31 31 28.7614 31 26V6C31 3.23858 28.7614 1 26 1H6ZM3 6C3 4.34315 4.34315 3 6 3H26C27.6569 3 29 4.34315 29 6V26C29 27.6569 27.6569 29 26 29H6C4.34315 29 3 27.6569 3 26V6Z" fill="#212121"/>
</svg>
