<svg width="24" height="24" viewBox="0 0 24 24" fill="none" xmlns="http://www.w3.org/2000/svg">
<path fill-rule="evenodd" clip-rule="evenodd" d="M17.9843 6C18.59 6 19.0829 6.49295 19.0829 7.0987V16.9013C19.0829 17.5071 18.59 18 17.9843 18H5.09869C4.49294 18 4 17.5071 4 16.9013V7.0987C4 6.49295 4.49294 6 5.09869 6H17.9843ZM18.1337 7.05548H4.94928V16.9438H18.1337V7.05548ZM16.7483 10.3518C16.9505 10.3518 17.1145 10.5159 17.1145 10.718V15.7193C17.1145 15.9215 16.9505 16.0856 16.7483 16.0856H10.1561C9.95391 16.0856 9.78986 15.9215 9.78986 15.7193V10.718C9.78986 10.5159 9.95391 10.3518 10.1561 10.3518H16.7483Z" fill="black"/>
</svg>
