<svg width="24" height="24" viewBox="0 0 24 24" fill="none" xmlns="http://www.w3.org/2000/svg">
<path d="M19.087 9.65217V15.5872C19.087 16.3446 18.4599 16.9659 17.6957 16.9659C16.9314 16.9659 16.3043 16.3446 16.3043 15.5872C16.3043 14.8298 16.9314 14.2085 17.6957 14.2085C17.9504 14.2085 18.1852 14.2823 18.3913 14.4024V10.5992L13.5217 11.504V16.6213C13.5217 17.3786 12.8947 18 12.1304 18C11.3662 18 10.7391 17.3786 10.7391 16.6213C10.7391 15.8639 11.3662 15.2425 12.1304 15.2425C12.3852 15.2425 12.62 15.3163 12.8261 15.4364V10.8155L13.1087 10.7724L18.6739 9.73834L19.087 9.65217ZM8.67352 16.3423C8.83163 16.3423 9.17391 16.6426 9.17391 17.0131C9.17391 17.3527 8.85211 17.6334 8.71237 17.6778L8.67352 17.6839H5.48387C5.32577 17.6839 5 17.3836 5 17.0131C5 16.6735 5.30529 16.3929 5.44503 16.3484L5.48387 16.3423H8.67352ZM10.6812 11.4058C10.898 11.4058 11.2609 11.7061 11.2609 12.0766C11.2609 12.4162 10.926 12.6969 10.7345 12.7413L10.6812 12.7474H5.53204C5.31529 12.7474 5 12.4471 5 12.0766C5 11.737 5.28722 11.4564 5.47878 11.4119L5.53204 11.4058H10.6812ZM18.4626 6C18.9579 6 19.2643 6.30033 19.2643 6.67081C19.2643 7.01041 19.0221 7.29107 18.5843 7.33549L18.4626 7.34161H5.80045C5.30516 7.34161 5 7.04128 5 6.67081C5 6.3312 5.24103 6.05054 5.67876 6.00612L5.80045 6H18.4626Z" fill="black"/>
</svg>
