<svg width="24" height="24" viewBox="0 0 24 24" fill="none" xmlns="http://www.w3.org/2000/svg">
<path d="M12.125 14.25C13.3676 14.25 14.375 13.2426 14.375 12V8.25C14.375 7.00736 13.3676 6 12.125 6C10.8824 6 9.875 7.00736 9.875 8.25V12C9.875 13.2426 10.8824 14.25 12.125 14.25ZM12.125 13.5C11.2966 13.5 10.625 12.8284 10.625 12V8.25C10.625 7.42157 11.2966 6.75 12.125 6.75C12.9534 6.75 13.625 7.42157 13.625 8.25V12C13.625 12.8284 12.9534 13.5 12.125 13.5ZM8.375 11.625C8.58211 11.625 8.75 11.7929 8.75 12C8.75 13.864 10.261 15.375 12.125 15.375C13.989 15.375 15.5 13.864 15.5 12C15.5 11.7929 15.6679 11.625 15.875 11.625C16.0821 11.625 16.25 11.7929 16.25 12C16.25 14.1518 14.6024 15.9187 12.5 16.1082V17.625C12.5 17.8321 12.3321 18 12.125 18C11.9179 18 11.75 17.8321 11.75 17.625V16.1082C9.64756 15.9187 8 14.1518 8 12C8 11.7929 8.16789 11.625 8.375 11.625Z" fill="black"/>
</svg>
