<svg width="24" height="24" viewBox="0 0 24 24" fill="none" xmlns="http://www.w3.org/2000/svg">
<path d="M17 16.3157C17 17.0107 16.2164 17.4167 15.6486 17.0159L9.53456 12.7002C9.05079 12.3587 9.05079 11.6412 9.53456 11.2997L15.6486 6.98391C16.2164 6.58311 17 6.98923 17 7.6842V16.3157ZM7.14287 17.1428C6.90622 17.1428 6.7143 16.9509 6.7143 16.7142V7.28563C6.7143 7.04897 6.90622 6.85706 7.14287 6.85706C7.37953 6.85706 7.57144 7.04897 7.57144 7.28563V16.7142C7.57144 16.9509 7.37953 17.1428 7.14287 17.1428ZM16.1429 16.3157V7.6842L10.0289 11.9999L16.1429 16.3157Z" fill="black"/>
</svg>
