<svg width="24" height="24" viewBox="0 0 24 24" fill="none" xmlns="http://www.w3.org/2000/svg">
<path d="M12 15.6C13.9882 15.6 15.6 13.9882 15.6 12C15.6 10.0118 13.9882 8.4 12 8.4C10.0118 8.4 8.4 10.0118 8.4 12C8.4 13.9882 10.0118 15.6 12 15.6ZM12 6C8.68629 6 6 8.68629 6 12C6 15.3137 8.68629 18 12 18C15.3137 18 18 15.3137 18 12C18 8.68629 15.3137 6 12 6ZM6.9 12C6.9 9.18335 9.18335 6.9 12 6.9C14.8167 6.9 17.1 9.18335 17.1 12C17.1 14.8167 14.8167 17.1 12 17.1C9.18335 17.1 6.9 14.8167 6.9 12Z" fill="black"/>
</svg>
