<svg width="24" height="24" viewBox="0 0 24 24" fill="none" xmlns="http://www.w3.org/2000/svg">
<path fill-rule="evenodd" clip-rule="evenodd" d="M15.1539 11.5385C15.1539 11.4086 15.1298 11.2886 15.0818 11.1778C15.0338 11.0671 14.9674 10.9698 14.8837 10.8855C14.7994 10.8018 14.7021 10.7354 14.5914 10.6874C14.4806 10.6394 14.3606 10.6154 14.2308 10.6154V9.69231C14.4855 9.69231 14.7249 9.74031 14.9483 9.83631C15.1717 9.93292 15.368 10.0646 15.536 10.2332C15.7046 10.4012 15.8363 10.5975 15.9329 10.8209C16.0289 11.0443 16.0769 11.2837 16.0769 11.5385H15.1539ZM14.2308 7.84615C14.7403 7.84615 15.2197 7.94215 15.6696 8.13477C16.1188 8.32677 16.5108 8.59015 16.8449 8.92431C17.1791 9.25846 17.4425 9.65046 17.6345 10.0997C17.8271 10.5495 17.9231 11.0289 17.9231 11.5385H17C17 11.1588 16.928 10.8006 16.7834 10.464C16.6394 10.1274 16.4412 9.83323 16.1889 9.58031C15.936 9.328 15.6419 9.12985 15.3052 8.98585C14.9686 8.84123 14.6105 8.76923 14.2308 8.76923V7.84615ZM14.2308 6C14.7403 6 15.232 6.06585 15.7053 6.19815C16.1791 6.33046 16.6203 6.51692 17.0289 6.75692C17.4375 6.99754 17.8099 7.28615 18.1465 7.62277C18.4831 7.95938 18.7717 8.33169 19.0123 8.74031C19.2523 9.14892 19.4388 9.59015 19.5711 10.064C19.7034 10.5372 19.7692 11.0289 19.7692 11.5385H18.8461C18.8461 11.1157 18.7908 10.7065 18.68 10.3126C18.5698 9.91815 18.4148 9.55077 18.2154 9.20923C18.0154 8.86769 17.7754 8.55631 17.4941 8.27508C17.2129 7.99385 16.9015 7.75385 16.56 7.55385C16.2185 7.35446 15.8511 7.19939 15.4566 7.08923C15.0628 6.97846 14.6542 6.92308 14.2308 6.92308V6ZM17 12.4615H17.9231V17.0769C17.9231 17.2068 17.8991 17.3268 17.8511 17.4375C17.8031 17.5483 17.7366 17.6455 17.6529 17.7298C17.5686 17.8135 17.4714 17.88 17.3606 17.928C17.2498 17.976 17.1298 18 17 18H5.9231C5.79325 18 5.67321 17.976 5.56244 17.928C5.45167 17.88 5.35445 17.8135 5.27014 17.7298C5.18645 17.6455 5.12002 17.5483 5.07202 17.4375C5.02402 17.3268 5 17.2068 5 17.0769V8.76923C5 8.63938 5.02402 8.51938 5.07202 8.40862C5.12002 8.29785 5.18645 8.20062 5.27014 8.11631C5.35445 8.03262 5.45167 7.96615 5.56244 7.91815C5.67321 7.87015 5.79325 7.84615 5.9231 7.84615H13.3077V8.76923H5.9231V17.0769H17V12.4615Z" fill="black"/>
</svg>
