<svg width="24" height="24" viewBox="0 0 24 24" fill="none" xmlns="http://www.w3.org/2000/svg">
<path fill-rule="evenodd" clip-rule="evenodd" d="M17.2199 11.6431C17.2199 13.5417 15.695 15.0867 13.8198 15.0867H9.14031V15.0817L7.41018 15.0857L9.03236 13.4428L8.51117 12.9145L6 15.4572L8.51117 18L9.03187 17.4717L7.42093 15.8362L13.8198 15.8352C16.1023 15.8352 17.9595 13.9543 17.9595 11.6431H17.2199ZM6.04054 12.3609C6.04054 10.0491 7.89767 8.16878 10.1802 8.16878L16.5898 8.17125L14.9676 6.52834L15.4888 6L18 8.54277L15.4888 11.0855L14.9681 10.5572L16.5791 8.92171L10.1802 8.91726C8.30504 8.91726 6.78007 10.4617 6.78007 12.3609H6.04054Z" fill="black"/>
</svg>
