<svg width="24" height="24" viewBox="0 0 24 24" fill="none" xmlns="http://www.w3.org/2000/svg">
<path fill-rule="evenodd" clip-rule="evenodd" d="M18.3636 11.3636C20.3719 11.3636 22 12.9917 22 15C22 17.0083 20.3719 18.6364 18.3636 18.6364C16.3553 18.6364 14.7273 17.0083 14.7273 15C14.7273 12.9917 16.3553 11.3636 18.3636 11.3636ZM18.6849 13.1818H18.5311C18.4682 13.2364 18.3938 13.2922 18.3078 13.3492C18.2218 13.4063 18.1305 13.4609 18.0337 13.513C17.937 13.5651 17.8386 13.6122 17.7386 13.6543C17.6385 13.6965 17.5438 13.73 17.4545 13.7548V14.1666C17.5339 14.1467 17.6154 14.1194 17.6989 14.0847C17.7824 14.05 17.8618 14.0128 17.937 13.9731C18.0122 13.9334 18.08 13.8933 18.1404 13.8528C18.2008 13.8123 18.2466 13.7763 18.2781 13.7449V16.8182H18.6849V13.1818ZM12.8722 10.1301C12.8722 12.2312 11.1839 13.9411 9.10887 13.9411L3.29176 13.942L4.75625 15.4288L4.28289 15.9091L2 13.5975L4.28289 11.2859L4.75669 11.7662L3.28199 13.2597L4.85483 13.2561V13.2606H9.10887C10.8136 13.2606 12.1999 11.8561 12.1999 10.1301H12.8722ZM10.6262 5L12.9091 7.31161L10.6262 9.62322L10.1528 9.14291L11.6173 7.6561L5.80022 7.65206C4.09549 7.65206 2.70916 9.05611 2.70916 10.7826H2.03686C2.03686 8.68104 3.72515 6.97161 5.80022 6.97161L11.6271 6.97386L10.1524 5.48031L10.6262 5Z" fill="black"/>
</svg>
