<svg width="24" height="24" viewBox="0 0 24 24" fill="none" xmlns="http://www.w3.org/2000/svg">
<path fill-rule="evenodd" clip-rule="evenodd" d="M16.7156 11.4375C16.5424 11.8475 16.3068 12.205 16.0098 12.51C15.7122 12.8145 15.3639 13.0555 14.9634 13.2335C14.5634 13.411 14.1366 13.5 13.6829 13.5C13.2298 13.5 12.8029 13.411 12.4024 13.2335C12.0024 13.0555 11.6537 12.8145 11.3566 12.51C11.059 12.205 10.8239 11.8475 10.6502 11.4375C10.4771 11.0275 10.3902 10.59 10.3902 10.125C10.3902 9.66 10.4771 9.2225 10.6502 8.8125C10.8239 8.4025 11.059 8.045 11.3566 7.74C11.6537 7.4355 12.0024 7.1945 12.4024 7.0165C12.8029 6.839 13.2298 6.75 13.6829 6.75C14.1366 6.75 14.5634 6.839 14.9634 7.0165C15.3639 7.1945 15.7122 7.4355 16.0098 7.74C16.3068 8.045 16.5424 8.4025 16.7156 8.8125C16.8888 9.2225 16.9756 9.66 16.9756 10.125C16.9756 10.59 16.8888 11.0275 16.7156 11.4375ZM17.5644 9.0295C17.4693 8.6775 17.3341 8.3495 17.1585 8.045C16.9834 7.74 16.7727 7.462 16.5268 7.21C16.281 6.958 16.0098 6.742 15.7122 6.5625C15.4151 6.383 15.0951 6.244 14.7522 6.1465C14.4088 6.049 14.0527 6 13.6829 6C13.3132 6 12.9571 6.049 12.6141 6.1465C12.2712 6.244 11.9507 6.383 11.6537 6.5625C11.3566 6.742 11.0849 6.958 10.839 7.21C10.5932 7.462 10.3829 7.74 10.2073 8.045C10.0322 8.3495 9.89659 8.6775 9.80146 9.0295C9.70634 9.381 9.65854 9.746 9.65854 10.125C9.65854 10.6135 9.73854 11.081 9.89854 11.5285C10.059 11.9755 10.2893 12.3865 10.5902 12.7615L6.10878 17.3615C6.0361 17.4355 6 17.5235 6 17.625C6 17.7265 6.0361 17.8145 6.10878 17.8885C6.18098 17.963 6.26683 18 6.36585 18C6.46488 18 6.55073 17.963 6.62341 17.8885L11.1107 13.295C11.4766 13.6035 11.8776 13.84 12.3141 14.004C12.7502 14.168 13.2068 14.25 13.6829 14.25C14.0527 14.25 14.4088 14.201 14.7522 14.1035C15.0951 14.006 15.4151 13.867 15.7122 13.6875C16.0098 13.508 16.281 13.292 16.5268 13.04C16.7727 12.788 16.9834 12.51 17.1585 12.205C17.3341 11.9005 17.4693 11.5725 17.5644 11.2205C17.66 10.869 17.7073 10.504 17.7073 10.125C17.7073 9.746 17.66 9.381 17.5644 9.0295Z" fill="black"/>
</svg>
