<svg width="24" height="24" viewBox="0 0 24 24" fill="none" xmlns="http://www.w3.org/2000/svg">
<path fill-rule="evenodd" clip-rule="evenodd" d="M16.9686 13.8989L18.1385 15.0762C17.6149 15.0601 17.1035 14.9963 16.6041 14.8842C16.1054 14.7721 15.6214 14.6144 15.1543 14.4117C14.6878 14.2083 14.2401 13.9653 13.8125 13.6827C13.3856 13.3995 12.9802 13.082 12.5949 12.7289C12.4728 12.8571 12.356 12.9867 12.2466 13.1176C12.1372 13.2485 12.0237 13.378 11.9063 13.5062C12.3392 13.9016 12.7963 14.2566 13.2802 14.5714C13.7635 14.8869 14.2669 15.1554 14.7898 15.3769C15.3133 15.5984 15.857 15.7709 16.4202 15.8937C16.9833 16.0159 17.5592 16.0857 18.1465 16.1018L16.9686 17.2791L17.6895 18L20.1092 15.589L17.6895 13.178L16.9686 13.8989ZM12.948 10.967C13.4333 10.5555 13.9474 10.2018 14.4898 9.90581C15.0314 9.60913 15.606 9.37689 16.2121 9.20841C16.8175 9.04061 17.4599 8.94597 18.1385 8.92382L16.9686 10.1018L17.6895 10.8227L20.1092 8.41168L17.6895 6L16.9686 6.72156L18.1465 7.89887C17.5646 7.91498 16.9941 7.98344 16.4363 8.10292C15.8778 8.22307 15.3382 8.39289 14.818 8.6117C14.2978 8.83052 13.7977 9.09498 13.3198 9.40508C12.8426 9.71451 12.3868 10.0615 11.9539 10.4461C11.7405 10.6388 11.5391 10.8361 11.3498 11.0388C11.1599 11.2422 10.9712 11.453 10.7847 11.6718C10.3363 12.1846 9.8624 12.6504 9.36302 13.0699C8.86363 13.4888 8.33337 13.8465 7.77291 14.1432C7.21244 14.4392 6.61774 14.6688 5.99083 14.8319C5.36324 14.995 4.69941 15.0762 4 15.0762V16.1018C5.22296 16.1018 6.37946 15.8743 7.46884 15.4212C8.55823 14.9668 9.55096 14.3318 10.4484 13.5143C10.6511 13.327 10.8437 13.135 11.0256 12.9377C11.2068 12.7397 11.3887 12.537 11.57 12.3289C12.0029 11.8322 12.4613 11.3785 12.948 10.967ZM5.59414 9.08424C5.07596 8.97751 4.54436 8.92382 4 8.92382V7.89887C5.22296 7.89887 6.37946 8.12708 7.46884 8.58418C8.55823 9.04061 9.55096 9.67692 10.4484 10.4945C10.3302 10.6227 10.2168 10.7522 10.1074 10.8824C9.99799 11.014 9.88187 11.1435 9.7597 11.2711C9.36436 10.9079 8.94351 10.581 8.49782 10.2904C8.05213 9.9991 7.58564 9.7521 7.09968 9.54939C6.61372 9.34601 6.11165 9.19096 5.59414 9.08424Z" fill="black"/>
</svg>
