<svg width="24" height="24" viewBox="0 0 24 24" fill="none" xmlns="http://www.w3.org/2000/svg">
<path fill-rule="evenodd" clip-rule="evenodd" d="M13.9133 17.4155C14.1036 17.4155 14.2668 17.3736 14.405 17.2898C14.542 17.2048 14.6553 17.0961 14.7459 16.9613C14.8365 16.8254 14.909 16.6713 14.9622 16.4958C15.0155 16.3213 15.0563 16.1435 15.0846 15.9622C15.114 15.781 15.131 15.602 15.1378 15.4276C15.1446 15.2532 15.148 15.0968 15.148 14.9598C15.148 14.8273 15.1446 14.6721 15.1378 14.4954C15.131 14.3187 15.1152 14.1352 15.088 13.9471C15.0619 13.7591 15.0223 13.5745 14.9724 13.3932C14.9215 13.212 14.8501 13.05 14.7595 12.9062C14.6689 12.7623 14.5567 12.6456 14.4242 12.5573C14.2917 12.4689 14.1297 12.4248 13.9394 12.4248C13.7412 12.4248 13.5713 12.4689 13.4319 12.5573C13.2926 12.6456 13.1759 12.7623 13.0808 12.9062C12.9856 13.05 12.9098 13.2131 12.8543 13.3966C12.7999 13.5801 12.7568 13.7682 12.7285 13.9607C12.7002 14.1533 12.6821 14.3402 12.6753 14.5214C12.6685 14.7027 12.6651 14.8646 12.6651 15.0062C12.6651 15.1433 12.6696 15.2996 12.6787 15.474C12.6877 15.6485 12.7059 15.8252 12.7319 16.0019C12.758 16.1786 12.7999 16.353 12.8543 16.5229C12.9098 16.6928 12.9834 16.8446 13.074 16.9772C13.1646 17.1097 13.2779 17.2162 13.4161 17.2966C13.5532 17.3759 13.7185 17.4155 13.9133 17.4155ZM13.9734 11.8471C14.2475 11.8471 14.4831 11.8924 14.6802 11.983C14.8773 12.0736 15.0449 12.1971 15.1842 12.3511C15.3236 12.5063 15.4357 12.6864 15.5195 12.8926C15.6034 13.0976 15.6702 13.314 15.7189 13.5394C15.7676 13.7648 15.7993 13.9936 15.8152 14.2269C15.8299 14.4591 15.8378 14.6811 15.8378 14.893C15.8378 15.1104 15.8265 15.337 15.805 15.5737C15.7823 15.8105 15.7427 16.0438 15.6849 16.2737C15.6283 16.5037 15.5512 16.7234 15.4561 16.9307C15.361 17.1391 15.2398 17.3226 15.0914 17.4823C14.943 17.6409 14.7674 17.7678 14.5635 17.8607C14.3608 17.9536 14.1218 18 13.8465 18C13.586 18 13.3594 17.9547 13.1669 17.8641C12.9743 17.7723 12.8078 17.6523 12.6685 17.5016C12.5292 17.351 12.4148 17.1765 12.3241 16.9772C12.2335 16.7789 12.161 16.5694 12.1078 16.3508C12.0546 16.131 12.0183 15.909 11.9991 15.6836C11.9787 15.4571 11.9685 15.243 11.9685 15.0391C11.9685 14.8182 11.9787 14.5849 11.9991 14.3391C12.0183 14.0933 12.0546 13.8531 12.1078 13.6187C12.161 13.3842 12.2347 13.1599 12.3275 12.9458C12.4204 12.7306 12.5416 12.5414 12.6923 12.3783C12.8429 12.2141 13.0219 12.085 13.2292 11.9898C13.4376 11.8947 13.6857 11.8471 13.9734 11.8471ZM7.97337 12.7691C8.12402 12.7295 8.27921 12.6751 8.44119 12.6071C8.60317 12.538 8.76288 12.4621 8.92259 12.3783C9.08117 12.2945 9.2341 12.2028 9.38022 12.1065C9.52634 12.0091 9.65886 11.9116 9.77893 11.8142H10.0372V17.8935H9.35416V12.7567C9.28733 12.8224 9.19558 12.8937 9.07777 12.9685C8.9611 13.0444 8.83651 13.1135 8.70285 13.178C8.57032 13.2415 8.43893 13.2992 8.30867 13.3502C8.17841 13.4012 8.06626 13.4374 7.97337 13.4601V12.7691ZM13.475 6.22881C14.0504 6.38173 14.5952 6.60034 15.1084 6.88578C15.6215 7.17123 16.0938 7.51897 16.5254 7.92788C16.957 8.33679 17.3319 8.79894 17.6502 9.31206V7.69908H18.4997V11.0972H15.1016V10.2477H17.1982C16.9422 9.73004 16.6194 9.26222 16.2298 8.84425C15.8401 8.42515 15.4063 8.06947 14.9283 7.77497C14.4514 7.48046 13.9371 7.25278 13.3889 7.09194C12.8407 6.92996 12.2788 6.84954 11.7034 6.84954C11.0215 6.84954 10.3679 6.95488 9.74155 7.16443C9.11629 7.37512 8.54428 7.67076 8.02663 8.05362C7.50897 8.43647 7.05927 8.89636 6.67868 9.4344C6.29809 9.97244 6.00812 10.5682 5.80989 11.223L5 10.9715C5.22088 10.2364 5.5505 9.56353 5.98886 8.95299C6.42722 8.34246 6.94147 7.81801 7.53162 7.38078C8.12289 6.94242 8.77422 6.6026 9.48669 6.36134C10.1992 6.12007 10.9377 6 11.7034 6C12.3094 6 12.8996 6.07589 13.475 6.22881Z" fill="black"/>
</svg>
