<svg width="24" height="24" viewBox="0 0 24 24" fill="none" xmlns="http://www.w3.org/2000/svg">
<path d="M11.9953 9.00003C9.78616 9.00003 7.9953 10.7909 7.9953 13C7.9953 15.2092 9.78616 17 11.9953 17C14.2044 17 15.9953 15.2092 15.9953 13C15.9953 10.7909 14.2044 9.00003 11.9953 9.00003ZM8.9953 13C8.9953 11.3432 10.3384 10 11.9953 10C13.6522 10 14.9953 11.3432 14.9953 13C14.9953 14.6569 13.6522 16 11.9953 16C10.3384 16 8.9953 14.6569 8.9953 13ZM10.1192 5C9.55219 5 9.0336 5.31977 8.77897 5.82643L8.18948 6.9994H6.5C5.11929 6.9994 4 8.11868 4 9.4994V17.5C4 18.8807 5.11929 20 6.5 20H17.5C18.8807 20 20 18.8807 20 17.5V9.4994C20 8.11869 18.8807 6.9994 17.5 6.9994H15.8101L15.2251 5.8293C14.9711 5.32106 14.4516 5 13.8834 5H10.1192ZM9.67248 6.27548C9.75736 6.10659 9.93022 6 10.1192 6H13.8834C14.0728 6 14.246 6.10702 14.3307 6.27643L15.0538 7.72296C15.1385 7.89238 15.3116 7.9994 15.501 7.9994H17.5C18.3284 7.9994 19 8.67097 19 9.4994V17.5C19 18.3284 18.3284 19 17.5 19H6.5C5.67157 19 5 18.3284 5 17.5V9.4994C5 8.67097 5.67157 7.9994 6.5 7.9994H8.49779C8.68681 7.9994 8.85967 7.89281 8.94455 7.72392L9.67248 6.27548Z" fill="#212121"/>
</svg>
