<svg width="24" height="24" viewBox="0 0 24 24" fill="none" xmlns="http://www.w3.org/2000/svg">
<path d="M9.75 11.25C9.75 8.76472 11.7647 6.75 14.25 6.75H14.625C14.8321 6.75 15 6.58211 15 6.375C15 6.16789 14.8321 6 14.625 6H14.25C11.3505 6 9 8.35051 9 11.25V12C9 12.4142 8.66421 12.75 8.25 12.75H6.375C6.16789 12.75 6 12.9179 6 13.125C6 13.3321 6.16789 13.5 6.375 13.5H8.25C9.07843 13.5 9.75 12.8284 9.75 12V11.25ZM14.625 9C13.1753 9 12 10.1753 12 11.625V12.375C12 14.239 10.489 15.75 8.625 15.75H6.375C6.16789 15.75 6 15.5821 6 15.375C6 15.1679 6.16789 15 6.375 15H8.625C10.0747 15 11.25 13.8247 11.25 12.375V11.625C11.25 9.76104 12.761 8.25 14.625 8.25H17.625C17.8321 8.25 18 8.41789 18 8.625C18 8.83211 17.8321 9 17.625 9H14.625ZM15 11.25C14.5858 11.25 14.25 11.5858 14.25 12V12.75C14.25 15.6495 11.8995 18 9 18H8.625C8.41789 18 8.25 17.8321 8.25 17.625C8.25 17.4179 8.41789 17.25 8.625 17.25H9C11.4853 17.25 13.5 15.2353 13.5 12.75V12C13.5 11.1716 14.1716 10.5 15 10.5H17.625C17.8321 10.5 18 10.6679 18 10.875C18 11.0821 17.8321 11.25 17.625 11.25H15Z" fill="black"/>
</svg>
