<svg width="24" height="24" viewBox="0 0 24 24" fill="none" xmlns="http://www.w3.org/2000/svg">
<path fill-rule="evenodd" clip-rule="evenodd" d="M17.1541 13.4092L17.8657 13.6302C17.6716 14.2761 17.3819 14.8675 16.9966 15.4037C16.612 15.9405 16.1595 16.4013 15.6405 16.7866C15.1215 17.1719 14.5496 17.4698 13.9253 17.6819C13.301 17.894 12.6507 18 11.9741 18C11.441 18 10.922 17.9335 10.4165 17.8014C9.91019 17.6692 9.43304 17.478 8.98426 17.2271C8.53474 16.9762 8.11956 16.6708 7.73874 16.3109C7.35716 15.951 7.02711 15.544 6.74709 15.0893V16.5066H6.00037V13.5197H8.98725V14.2664H7.1436C7.37284 14.7212 7.65809 15.1326 7.99859 15.5C8.33835 15.8674 8.71843 16.1802 9.13883 16.4394C9.55849 16.6977 10.0088 16.8978 10.4896 17.0405C10.969 17.1823 11.4641 17.2533 11.9741 17.2533C12.573 17.2533 13.1472 17.1607 13.6976 16.9762C14.2479 16.7911 14.7497 16.5305 15.2029 16.1944C15.6562 15.8577 16.0505 15.4537 16.3872 14.981C16.7233 14.5083 16.9794 13.9841 17.1541 13.4092ZM11.8924 6C12.4248 6 12.9437 6.06571 13.45 6.19863C13.9555 6.33005 14.4327 6.52196 14.8822 6.77285C15.331 7.02375 15.7462 7.32916 16.1278 7.68908C16.5086 8.04825 16.8394 8.45596 17.1194 8.91071V7.49344H17.8661V10.4803H14.8792V9.7336H16.7229C16.4929 9.27884 16.2077 8.8674 15.8679 8.50002C15.5274 8.13188 15.1473 7.81901 14.7277 7.56064C14.3073 7.30153 13.857 7.10141 13.3768 6.95953C12.8967 6.81766 12.4016 6.74672 11.8924 6.74672C11.2927 6.74672 10.7185 6.83931 10.1682 7.02375C9.61786 7.20819 9.11606 7.4688 8.66355 7.80557C8.20954 8.14159 7.81527 8.54631 7.47925 9.01898C7.14248 9.49166 6.8871 10.0151 6.71162 10.5908L6 10.3698C6.19415 9.72389 6.48462 9.13249 6.86918 8.59634C7.25449 8.05945 7.707 7.59873 8.22597 7.21342C8.74494 6.82811 9.31693 6.52942 9.94118 6.3181C10.5654 6.10603 11.2158 6 11.8924 6Z" fill="black"/>
</svg>
