<svg width="24" height="24" viewBox="0 0 24 24" fill="none" xmlns="http://www.w3.org/2000/svg">
<path fill-rule="evenodd" clip-rule="evenodd" d="M12 12V8.25H11.25V12.75H14.25V12H12ZM12 6.75C11.5155 6.75 11.0505 6.81225 10.6058 6.9375C10.1603 7.06275 9.74325 7.239 9.35475 7.46775C8.96625 7.6965 8.6115 7.97025 8.29125 8.29125C7.971 8.6115 7.6965 8.96625 7.46775 9.35475C7.239 9.74325 7.06275 10.161 6.9375 10.6088C6.813 11.0558 6.75 11.5192 6.75 12C6.75 12.4845 6.813 12.9495 6.9375 13.3942C7.06275 13.8397 7.239 14.2568 7.46775 14.6453C7.6965 15.0338 7.971 15.3885 8.29125 15.7087C8.6115 16.0297 8.96625 16.3035 9.35475 16.5322C9.74325 16.761 10.1618 16.9373 10.6088 17.0625C11.0558 17.1877 11.5192 17.25 12 17.25C12.4808 17.25 12.945 17.1877 13.3912 17.0625C13.839 16.9373 14.2575 16.761 14.6453 16.5322C15.0345 16.3035 15.3892 16.0297 15.7087 15.7087C16.0297 15.3885 16.3035 15.0338 16.5322 14.6453C16.761 14.2568 16.938 13.839 17.0625 13.3912C17.1877 12.9442 17.25 12.4808 17.25 12C17.25 11.5192 17.1877 11.0558 17.0625 10.6088C16.938 10.161 16.761 9.74325 16.5322 9.35475C16.3035 8.96625 16.0297 8.6115 15.7087 8.29125C15.3892 7.97025 15.0345 7.6965 14.6453 7.46775C14.2575 7.239 13.839 7.06275 13.3912 6.9375C12.945 6.81225 12.4808 6.75 12 6.75ZM12 18C11.4457 18 10.9133 17.9288 10.4033 17.7863C9.89325 17.6438 9.41625 17.442 8.97075 17.1825C8.52525 16.923 8.12025 16.6102 7.755 16.245C7.3905 15.8798 7.07775 15.4747 6.8175 15.0292C6.558 14.5837 6.357 14.1053 6.21375 13.5938C6.072 13.0823 6 12.5505 6 12C6 11.4495 6.072 10.9177 6.21375 10.4062C6.357 9.89475 6.558 9.41625 6.8175 8.97075C7.07775 8.52525 7.3905 8.12025 7.755 7.755C8.12025 7.38975 8.52525 7.077 8.97075 6.8175C9.41625 6.558 9.89475 6.35625 10.4062 6.21375C10.9185 6.07125 11.4495 6 12 6C12.5505 6 13.0823 6.07125 13.5938 6.21375C14.106 6.35625 14.5837 6.558 15.0292 6.8175C15.4747 7.077 15.8805 7.38975 16.245 7.755C16.6102 8.12025 16.923 8.52525 17.1825 8.97075C17.4427 9.41625 17.6438 9.89475 17.7863 10.4062C17.9288 10.9177 18 11.4495 18 12C18 12.555 17.9288 13.0867 17.7863 13.5967C17.6438 14.1067 17.4427 14.5837 17.1825 15.0292C16.923 15.4747 16.6102 15.8798 16.245 16.245C15.8805 16.6102 15.4747 16.923 15.0292 17.1825C14.5837 17.442 14.106 17.6438 13.5938 17.7863C13.0823 17.9288 12.5505 18 12 18Z" fill="black"/>
</svg>
