<svg width="24" height="24" viewBox="0 0 24 24" fill="none" xmlns="http://www.w3.org/2000/svg">
<path d="M17.4187 11.4906C17.5628 11.4906 17.6795 11.6074 17.6795 11.7515V17.1079L19.0592 15.7282C19.1611 15.6264 19.3262 15.6264 19.4281 15.7282C19.53 15.8301 19.53 15.9953 19.4281 16.0972L17.6186 17.9068C17.5803 17.9523 17.5267 17.9847 17.4657 17.9958L17.4178 18C17.3768 18 17.3357 17.9904 17.2983 17.9711L17.2642 17.9502L17.2278 17.9181L15.4068 16.0972C15.305 15.9953 15.305 15.8301 15.4068 15.7282C15.5087 15.6263 15.6739 15.6263 15.7758 15.7282L17.1578 17.1103V11.7515C17.1578 11.6074 17.2746 11.4906 17.4187 11.4906ZM10.76 16.3423C10.9181 16.3423 11.2604 16.6426 11.2604 17.0131C11.2604 17.3527 10.9386 17.6334 10.7988 17.6778L10.76 17.6839H5.48387C5.32577 17.6839 5 17.3836 5 17.0131C5 16.6735 5.30529 16.3929 5.44503 16.3484L5.48387 16.3423H10.76ZM12.6825 11.4058C12.8993 11.4058 13.2622 11.7061 13.2622 12.0766C13.2622 12.4162 12.9273 12.6969 12.7358 12.7413L12.6825 12.7474H5.53204C5.31529 12.7474 5 12.4471 5 12.0766C5 11.737 5.28722 11.4564 5.47878 11.4119L5.53204 11.4058H12.6825ZM18.4626 6C18.9579 6 19.2643 6.30033 19.2643 6.67081C19.2643 7.01041 19.0221 7.29107 18.5843 7.33549L18.4626 7.34161H5.80045C5.30516 7.34161 5 7.04128 5 6.67081C5 6.3312 5.24103 6.05054 5.67876 6.00612L5.80045 6H18.4626Z" fill="black"/>
</svg>
