<svg width="24" height="24" viewBox="0 0 24 24" fill="none" xmlns="http://www.w3.org/2000/svg">
<path fill-rule="evenodd" clip-rule="evenodd" d="M12.75 14.2345C12.854 14.3385 12.9325 14.456 12.9845 14.586C13.0365 14.716 13.0625 14.849 13.0625 14.9845C13.0625 15.12 13.0365 15.253 12.9845 15.383C12.9325 15.513 12.854 15.6305 12.75 15.7345C12.646 15.8385 12.529 15.917 12.3985 15.969C12.2685 16.021 12.1355 16.047 12 16.047C11.8645 16.047 11.732 16.021 11.6015 15.969C11.4715 15.917 11.354 15.8385 11.25 15.7345C11.146 15.6305 11.068 15.513 11.0155 15.383C10.9635 15.253 10.9375 15.12 10.9375 14.9845C10.9375 14.849 10.9635 14.716 11.0155 14.586C11.068 14.456 11.146 14.3385 11.25 14.2345C11.354 14.1305 11.4715 14.052 11.6015 14C11.732 13.948 11.8645 13.922 12 13.922C12.1355 13.922 12.2685 13.948 12.3985 14C12.529 14.0525 12.646 14.1305 12.75 14.2345ZM9 13.4845C9.276 13.2085 9.5775 12.9785 9.9045 12.795C10.231 12.6115 10.571 12.4735 10.924 12.381C11.2765 12.2885 11.6355 12.2425 12 12.2425C12.3645 12.2425 12.7235 12.2885 13.076 12.381C13.429 12.4735 13.769 12.6115 14.0955 12.795C14.4225 12.9785 14.724 13.2085 15 13.4845L14.5 13.9845C14.271 13.7555 14.0195 13.564 13.746 13.4105C13.4725 13.2565 13.1895 13.1415 12.8965 13.0645C12.6035 12.988 12.3045 12.9495 12 12.9495C11.6955 12.9495 11.3965 12.988 11.1035 13.0645C10.8105 13.1415 10.5275 13.2565 10.254 13.4105C9.9805 13.564 9.729 13.7555 9.5 13.9845L9 13.4845ZM7.5 11.9845C7.914 11.5705 8.3665 11.2245 8.8575 10.9475C9.3485 10.67 9.858 10.4625 10.3865 10.3245C10.9155 10.1865 11.453 10.1175 12 10.1175C12.547 10.1175 13.0845 10.1865 13.6135 10.3245C14.142 10.4625 14.6515 10.67 15.1425 10.9475C15.6335 11.2245 16.086 11.5705 16.5 11.9845L16 12.4845C15.633 12.1175 15.2315 11.8115 14.797 11.5665C14.362 11.322 13.909 11.1385 13.4375 11.016C12.966 10.8935 12.487 10.832 12 10.832C11.513 10.832 11.034 10.8935 10.5625 11.016C10.091 11.1385 9.638 11.322 9.203 11.5665C8.7685 11.8115 8.367 12.1175 8 12.4845L7.5 11.9845ZM6 10.4845C6.552 9.9325 7.155 9.473 7.8085 9.1055C8.462 8.7385 9.142 8.4625 9.8475 8.2775C10.5535 8.0925 11.271 8 12 8C12.729 8 13.4465 8.0925 14.1525 8.2775C14.858 8.4625 15.538 8.7385 16.1915 9.1055C16.845 9.473 17.448 9.9325 18 10.4845L17.5 10.9845C16.995 10.4795 16.4425 10.0585 15.8435 9.723C15.245 9.387 14.6225 9.1345 13.9765 8.965C13.331 8.796 12.672 8.711 12 8.711C11.328 8.711 10.669 8.796 10.0235 8.965C9.3775 9.1345 8.755 9.387 8.156 9.723C7.5575 10.0585 7.005 10.4795 6.5 10.9845L6 10.4845Z" fill="black"/>
</svg>
