<svg width="24" height="24" viewBox="0 0 24 24" fill="none" xmlns="http://www.w3.org/2000/svg">
<path fill-rule="evenodd" clip-rule="evenodd" d="M6 16H18V8H6V16ZM16.5 9.45455V8.72727H17.25V15.2727H16.5V14.5455H15.75V15.2727H8.25V14.5455H7.5V15.2727H6.75V8.72727H7.5V9.45455H8.25V8.72727H15.75V9.45455H16.5ZM15.75 10.9091H16.4995V10.1823H15.75V10.9091ZM7.5 10.9091H8.25V10.1823H7.5V10.9091ZM15.75 12.3636H16.4995V11.6364H15.75V12.3636ZM7.5 12.3636H8.25V11.6364H7.5V12.3636ZM15.75 13.8182H16.4995V13.0909H15.75V13.8182ZM7.5 13.8182H8.25V13.0909H7.5V13.8182Z" fill="black"/>
</svg>
