<svg width="24" height="24" viewBox="0 0 24 24" fill="none" xmlns="http://www.w3.org/2000/svg">
<path d="M12 6C15.3137 6 18 8.68629 18 12C18 15.3137 15.3137 18 12 18C8.68629 18 6 15.3137 6 12C6 8.68629 8.68629 6 12 6ZM13.9355 14.625H10.0645C10.1788 15.0676 10.3205 15.4693 10.4837 15.8189C10.9449 16.8073 11.5074 17.25 12 17.25C12.4926 17.25 13.0551 16.8073 13.5163 15.8189C13.6795 15.4693 13.8212 15.0676 13.9355 14.625ZM9.29198 14.625H7.45236C8.07971 15.7095 9.08386 16.5488 10.2858 16.9638C10.1047 16.7159 9.94371 16.4354 9.80402 16.136C9.59673 15.6919 9.42373 15.1823 9.29198 14.625ZM16.5476 14.625H14.708C14.5763 15.1823 14.4033 15.6919 14.196 16.136C14.0563 16.4354 13.8952 16.7159 13.7142 16.9638C14.9162 16.5488 15.9203 15.7095 16.5476 14.625ZM9.14449 10.125H7.09472C6.87201 10.7073 6.75 11.3394 6.75 12C6.75 12.6606 6.87201 13.2927 7.09472 13.875H9.14449C9.05042 13.2838 9 12.653 9 12C9 11.347 9.05042 10.7162 9.14449 10.125ZM14.0954 10.125H9.90463C9.80509 10.706 9.75 11.3375 9.75 12C9.75 12.6625 9.80509 13.294 9.90463 13.875H14.0954C14.195 13.294 14.25 12.6625 14.25 12C14.25 11.3375 14.195 10.706 14.0954 10.125ZM16.9053 10.125H14.8555C14.9496 10.7162 15 11.347 15 12C15 12.653 14.9496 13.2838 14.8555 13.875H16.9053C17.128 13.2927 17.25 12.6606 17.25 12C17.25 11.3394 17.128 10.7073 16.9053 10.125ZM12 6.75C11.5074 6.75 10.9449 7.19269 10.4837 8.1811C10.3205 8.53064 10.1788 8.93233 10.0645 9.375H13.9355C13.8212 8.93233 13.6795 8.53064 13.5163 8.1811C13.0551 7.19269 12.4926 6.75 12 6.75ZM10.2858 7.03622C9.08386 7.45123 8.07971 8.29049 7.45236 9.375H9.29198C9.42373 8.81772 9.59673 8.30815 9.80402 7.86395C9.94371 7.56463 10.1047 7.28416 10.2858 7.03622ZM13.7142 7.03622C13.8952 7.28416 14.0563 7.56463 14.196 7.86395C14.4033 8.30815 14.5763 8.81772 14.708 9.375H16.5476C15.9203 8.29049 14.9162 7.45123 13.7142 7.03622Z" fill="black"/>
</svg>
