<svg width="24" height="24" viewBox="0 0 24 24" fill="none" xmlns="http://www.w3.org/2000/svg">
<path d="M6 8.5C6 8.22386 6.22386 8 6.5 8H17.5C17.7761 8 18 8.22386 18 8.5C18 8.77614 17.7761 9 17.5 9H6.5C6.22386 9 6 8.77614 6 8.5ZM8 12.5C8 12.2239 8.22386 12 8.5 12H15.5C15.7761 12 16 12.2239 16 12.5C16 12.7761 15.7761 13 15.5 13H8.5C8.22386 13 8 12.7761 8 12.5ZM10 16.5C10 16.2239 10.2239 16 10.5 16H13.5C13.7761 16 14 16.2239 14 16.5C14 16.7761 13.7761 17 13.5 17H10.5C10.2239 17 10 16.7761 10 16.5Z" fill="black"/>
</svg>
