<svg width="24" height="24" viewBox="0 0 24 24" fill="none" xmlns="http://www.w3.org/2000/svg">
<path fill-rule="evenodd" clip-rule="evenodd" d="M18 6L17.4062 6.12387L9.40625 7.61032L9 7.67226V8.09032V14.3148C8.7037 14.1422 8.36622 14.0361 8 14.0361C6.90135 14.0361 6 14.9293 6 16.0181C6 17.1068 6.90135 18 8 18C9.09865 18 10 17.1068 10 16.0181V10.4748L17 9.17419V12.8284C16.7037 12.6557 16.3662 12.5497 16 12.5497C14.9014 12.5497 14 13.4429 14 14.5316C14 15.6203 14.9014 16.5135 16 16.5135C17.0986 16.5135 18 15.6203 18 14.5316V6.60387V6ZM17 7.19226V8.18323L10 9.48387V8.4929L17 7.19226ZM16 13.5406C16.5582 13.5406 17 13.9784 17 14.5316C17 15.0848 16.5582 15.5226 16 15.5226C15.4418 15.5226 15 15.0848 15 14.5316C15 13.9784 15.4418 13.5406 16 13.5406ZM8 15.0271C8.55821 15.0271 9 15.4649 9 16.0181C9 16.5712 8.55821 17.009 8 17.009C7.44179 17.009 7 16.5712 7 16.0181C7 15.4649 7.44179 15.0271 8 15.0271Z" fill="black"/>
</svg>
