<svg width="24" height="24" viewBox="0 0 24 24" fill="none" xmlns="http://www.w3.org/2000/svg">
<path d="M17.4 20C18.8359 20 20 18.8359 20 17.4L20 11C20 9.56406 18.8359 8.4 17.4 8.4H16.4V9.6H17.4C18.1732 9.6 18.8 10.2268 18.8 11L18.8 17.4C18.8 18.1732 18.1732 18.8 17.4 18.8L11 18.8C10.2268 18.8 9.6 18.1732 9.6 17.4V16.4H8.4V17.4C8.4 18.8359 9.56406 20 11 20L17.4 20ZM13 15.6C14.4359 15.6 15.6 14.4359 15.6 13L15.6 6.6C15.6 5.16406 14.4359 4 13 4L6.6 4C5.16406 4 4 5.16406 4 6.6L4 13C4 14.4359 5.16406 15.6 6.6 15.6H13ZM14.4 13C14.4 13.7732 13.7732 14.4 13 14.4L12.3754 14.4L14.4 12.3754V13ZM14.4 10.7752L10.7752 14.4L9.17521 14.4L14.4 9.17521L14.4 10.7752ZM7.47815 14.4L6.6 14.4C6.41483 14.4 6.23805 14.364 6.07627 14.2987L14.2987 6.07628C14.364 6.23806 14.4 6.41483 14.4 6.6V7.47815L7.47815 14.4ZM5.26263 13.4153C5.22193 13.2841 5.2 13.1446 5.2 13V11.9752L11.9752 5.2L13 5.2C13.1446 5.2 13.2841 5.22193 13.4153 5.26264L5.26263 13.4153ZM5.2 10.2781L5.2 8.77518L8.77518 5.2L10.2781 5.2L5.2 10.2781ZM5.2 7.07812L5.2 6.6C5.2 5.8268 5.8268 5.2 6.6 5.2H7.07813L5.2 7.07812Z" fill="#212121"/>
</svg>
