<svg width="24" height="24" viewBox="0 0 24 24" fill="none" xmlns="http://www.w3.org/2000/svg">
<path fill-rule="evenodd" clip-rule="evenodd" d="M2 6.75C2 5.23122 3.23122 4 4.75 4H19.25C20.7688 4 22 5.23122 22 6.75V15.25C22 16.7688 20.7688 18 19.25 18H4.75C3.23122 18 2 16.7688 2 15.25V6.75ZM4.75 5.5C4.05964 5.5 3.5 6.05964 3.5 6.75V15.25C3.5 15.9404 4.05964 16.5 4.75 16.5H19.25C19.9404 16.5 20.5 15.9404 20.5 15.25V6.75C20.5 6.05964 19.9404 5.5 19.25 5.5H4.75ZM5 20.25C5 19.8358 5.33579 19.5 5.75 19.5H18.25C18.6642 19.5 19 19.8358 19 20.25C19 20.6642 18.6642 21 18.25 21H5.75C5.33579 21 5 20.6642 5 20.25ZM5 7.70588C5 7.31603 5.33579 7 5.75 7H18.25C18.6642 7 19 7.31603 19 7.70588C19 8.09573 18.6642 8.41176 18.25 8.41176H5.75C5.33579 8.41176 5 8.09573 5 7.70588ZM5.75 10.2941C5.33579 10.2941 5 10.6102 5 11C5 11.3898 5.33579 11.7059 5.75 11.7059H18.25C18.6642 11.7059 19 11.3898 19 11C19 10.6102 18.6642 10.2941 18.25 10.2941H5.75ZM5.75 13.5882C5.33579 13.5882 5 13.9043 5 14.2941C5 14.684 5.33579 15 5.75 15H18.25C18.6642 15 19 14.684 19 14.2941C19 13.9043 18.6642 13.5882 18.25 13.5882H5.75Z" fill="#212121"/>
</svg>
