<svg width="24" height="24" viewBox="0 0 24 24" fill="none" xmlns="http://www.w3.org/2000/svg">
<path fill-rule="evenodd" clip-rule="evenodd" d="M17.5694 11.7141H16.4801L16.1049 10.2755C16.0009 9.86194 15.4472 9.86194 15.367 10.2755L14.8686 12.6181L14.2595 8.6381C14.1929 8.18382 13.5589 8.19625 13.5035 8.6381L12.9927 13.0792L12.4096 6.35088C12.3667 5.88304 11.6762 5.88304 11.6401 6.35088L11.0491 13.0792L10.5383 8.6381C10.4897 8.18382 9.85686 8.18382 9.78792 8.6381L9.17996 12.6181L8.68161 10.2755C8.60138 9.8868 8.04087 9.8868 7.93804 10.2755L7.56738 11.7141H6.43055C6.19098 11.7141 6 11.9051 6 12.1446C6 12.3786 6.19098 12.5695 6.43055 12.5695H7.81373C7.98663 12.5695 8.14597 12.4825 8.20134 12.3096L8.27479 12.0588L8.8658 14.8263C8.94604 15.2139 9.55513 15.2139 9.61616 14.8263L10.1032 11.5909L10.7225 16.9541C10.7722 17.4152 11.4367 17.4095 11.4796 16.9541L12.0209 10.7795L12.5678 16.9541C12.6051 17.4152 13.2696 17.4152 13.325 16.9541L13.9409 11.5909L14.4324 14.8263C14.4878 15.2139 15.0969 15.2139 15.1828 14.8263L15.7727 12.0463L15.8416 12.2667C15.9139 12.4825 16.0755 12.5695 16.2654 12.5695H17.5694C17.809 12.5695 18 12.3786 18 12.1446C18 11.9051 17.809 11.7141 17.5694 11.7141Z" fill="black"/>
</svg>
