<svg width="24" height="24" viewBox="0 0 24 24" fill="none" xmlns="http://www.w3.org/2000/svg">
<path fill-rule="evenodd" clip-rule="evenodd" d="M12.3198 4.26898C12.9597 3.67513 14 4.12896 14 5.00198V18.9897C14 19.8628 12.9597 20.3166 12.3198 19.7227L8.4476 16.1294C8.35513 16.0435 8.23364 15.9959 8.10749 15.9959H5.5C4.67157 15.9959 4 15.3243 4 14.4959V9.49586C4 8.66743 4.67157 7.99586 5.5 7.99586H8.10749C8.23364 7.99586 8.35513 7.94817 8.4476 7.86236L12.3198 4.26898ZM13 5.00198L9.12783 8.59536C8.85042 8.8528 8.48594 8.99586 8.10749 8.99586H5.5C5.22386 8.99586 5 9.21971 5 9.49586V14.4959C5 14.772 5.22386 14.9959 5.5 14.9959H8.10749C8.48594 14.9959 8.85042 15.1389 9.12783 15.3964L13 18.9897V5.00198ZM17.9657 6.66218C17.7814 6.45652 17.4653 6.43917 17.2596 6.62344C17.0539 6.80772 17.0366 7.12382 17.2209 7.32949C19.5968 9.98128 19.5968 14.0104 17.2209 16.6622C17.0366 16.8679 17.054 17.184 17.2596 17.3682C17.4653 17.5525 17.7814 17.5352 17.9657 17.3295C20.6819 14.2979 20.6819 9.69377 17.9657 6.66218ZM15.9006 14.2463C15.7628 14.4855 15.8451 14.7913 16.0843 14.9291C16.3236 15.0669 16.6293 14.9847 16.7672 14.7454C17.7142 13.1013 17.784 11.009 16.766 9.24576C16.6279 9.00661 16.3221 8.92468 16.083 9.06275C15.8438 9.20082 15.7619 9.50661 15.9 9.74576C16.7323 11.1874 16.6768 12.8987 15.9006 14.2463ZM18.5392 4.28126C18.315 4.12009 18.0026 4.17119 17.8414 4.39541C17.6802 4.61964 17.7313 4.93207 17.9556 5.09325C20.1031 6.63695 21.5 9.15536 21.5 12C21.5 14.5174 20.4063 16.7787 18.6665 18.3358C18.4608 18.52 18.4433 18.8361 18.6274 19.0418C18.8116 19.2476 19.1277 19.2651 19.3335 19.0809C21.2762 17.3421 22.5 14.8137 22.5 12C22.5 8.81987 20.9369 6.00477 18.5392 4.28126Z" fill="black"/>
</svg>
