<svg width="24" height="24" viewBox="0 0 24 24" fill="none" xmlns="http://www.w3.org/2000/svg">
<path d="M14 5.00198C14 4.12896 12.9597 3.67513 12.3198 4.26898L8.4476 7.86236C8.35513 7.94817 8.23364 7.99586 8.10749 7.99586H5.5C4.67157 7.99586 4 8.66743 4 9.49586V14.4959C4 15.3243 4.67157 15.9959 5.5 15.9959H8.10749C8.23364 15.9959 8.35513 16.0435 8.4476 16.1294L12.3198 19.7227C12.9597 20.3166 14 19.8628 14 18.9897V5.00198ZM9.12783 8.59536L13 5.00198V18.9897L9.12783 15.3964C8.85042 15.1389 8.48594 14.9959 8.10749 14.9959H5.5C5.22386 14.9959 5 14.772 5 14.4959V9.49586C5 9.21971 5.22386 8.99586 5.5 8.99586H8.10749C8.48594 8.99586 8.85042 8.8528 9.12783 8.59536ZM15.1464 9.64231C15.3417 9.44705 15.6583 9.44705 15.8536 9.64231L17.5 11.2888L19.1464 9.64231C19.3417 9.44705 19.6583 9.44705 19.8536 9.64231C20.0488 9.83758 20.0488 10.1542 19.8536 10.3494L18.2071 11.9959L19.8536 13.6423C20.0488 13.8376 20.0488 14.1542 19.8536 14.3494C19.6583 14.5447 19.3417 14.5447 19.1464 14.3494L17.5 12.703L15.8536 14.3494C15.6583 14.5447 15.3417 14.5447 15.1464 14.3494C14.9512 14.1542 14.9512 13.8376 15.1464 13.6423L16.7929 11.9959L15.1464 10.3494C14.9512 10.1542 14.9512 9.83757 15.1464 9.64231Z" fill="black"/>
</svg>
