<svg width="24" height="24" viewBox="0 0 24 24" fill="none" xmlns="http://www.w3.org/2000/svg">
<path d="M14 5.00198C14 4.12896 12.9597 3.67513 12.3198 4.26898L8.4476 7.86236C8.35513 7.94817 8.23364 7.99586 8.10749 7.99586H5.5C4.67157 7.99586 4 8.66743 4 9.49586V14.4959C4 15.3243 4.67157 15.9959 5.5 15.9959H8.10749C8.23364 15.9959 8.35513 16.0435 8.4476 16.1294L12.3198 19.7227C12.9597 20.3166 14 19.8628 14 18.9897V5.00198ZM9.12783 8.59536L13 5.00198V18.9897L9.12783 15.3964C8.85042 15.1389 8.48594 14.9959 8.10749 14.9959H5.5C5.22386 14.9959 5 14.772 5 14.4959V9.49586C5 9.21971 5.22386 8.99586 5.5 8.99586H8.10749C8.48594 8.99586 8.85042 8.8528 9.12783 8.59536ZM17.2596 6.62344C17.4653 6.43917 17.7814 6.45652 17.9657 6.66218C20.6819 9.69377 20.6819 14.2979 17.9657 17.3295C17.7814 17.5352 17.4653 17.5525 17.2596 17.3682C17.054 17.184 17.0366 16.8679 17.2209 16.6622C19.5968 14.0104 19.5968 9.98128 17.2209 7.32949C17.0366 7.12382 17.0539 6.80772 17.2596 6.62344ZM16.0843 14.9291C15.8451 14.7913 15.7628 14.4855 15.9006 14.2463C16.6768 12.8987 16.7323 11.1874 15.9 9.74576C15.7619 9.50661 15.8438 9.20082 16.083 9.06275C16.3221 8.92468 16.6279 9.00661 16.766 9.24576C17.784 11.009 17.7142 13.1013 16.7672 14.7454C16.6293 14.9847 16.3236 15.0669 16.0843 14.9291Z" fill="black"/>
</svg>
