<svg width="24" height="24" viewBox="0 0 24 24" fill="none" xmlns="http://www.w3.org/2000/svg">
<path d="M4.85648 4.14645C4.66122 3.95118 4.34464 3.95118 4.14938 4.14645C3.95411 4.34171 3.95411 4.65829 4.14938 4.85355L7.29581 7.99999H5.5C4.67157 7.99999 4 8.67157 4 9.49999V14.5C4 15.3284 4.67157 16 5.5 16H8.10749C8.23364 16 8.35513 16.0477 8.4476 16.1335L12.3198 19.7269C12.9597 20.3207 14 19.8669 14 18.9939V14.7042L19.1494 19.8536C19.3446 20.0488 19.6612 20.0488 19.8565 19.8536C20.0517 19.6583 20.0517 19.3417 19.8565 19.1464L17.2938 16.5837C17.2938 16.5837 17.2938 16.5837 17.2938 16.5837L4.85648 4.14645ZM13 13.7042V18.9939L9.12783 15.4005C8.85042 15.1431 8.48594 15 8.10749 15H5.5C5.22386 15 5 14.7761 5 14.5V9.49999C5 9.22385 5.22386 8.99999 5.5 8.99999H8.10749C8.16718 8.99999 8.22653 8.99643 8.28525 8.98943L13 13.7042ZM13 5.00611V10.8757L14 11.8757V5.00611C14 4.13309 12.9597 3.67926 12.3198 4.27311L9.248 7.12372L9.9556 7.83132L13 5.00611ZM16.0639 13.9396L16.8057 14.6814C17.7159 13.0479 17.77 10.9889 16.766 9.2499C16.6279 9.01075 16.3221 8.92881 16.083 9.06688C15.8438 9.20496 15.7619 9.51075 15.9 9.7499C16.6695 11.0829 16.6801 12.6463 16.0639 13.9396ZM17.8994 15.7751L18.6211 16.4968C20.6608 13.502 20.4423 9.43048 17.9657 6.66632C17.7814 6.46065 17.4653 6.44331 17.2596 6.62758C17.0539 6.81185 17.0366 7.12796 17.2209 7.33363C19.3437 9.70288 19.5698 13.1716 17.8994 15.7751Z" fill="black"/>
</svg>
