<svg width="24" height="24" viewBox="0 0 24 24" fill="none" xmlns="http://www.w3.org/2000/svg">
<path d="M15 5.00198C15 4.12896 13.9597 3.67513 13.3198 4.26898L9.4476 7.86236C9.35513 7.94817 9.23364 7.99586 9.10749 7.99586H6.5C5.67157 7.99586 5 8.66743 5 9.49586V14.4959C5 15.3243 5.67157 15.9959 6.5 15.9959H9.10749C9.23364 15.9959 9.35513 16.0435 9.4476 16.1294L13.3198 19.7227C13.9597 20.3166 15 19.8628 15 18.9897V5.00198ZM10.1278 8.59536L14 5.00198V18.9897L10.1278 15.3964C9.85042 15.1389 9.48594 14.9959 9.10749 14.9959H6.5C6.22386 14.9959 6 14.772 6 14.4959V9.49586C6 9.21971 6.22386 8.99586 6.5 8.99586H9.10749C9.48594 8.99586 9.85042 8.8528 10.1278 8.59536ZM17.0843 14.9291C16.8451 14.7913 16.7628 14.4855 16.9006 14.2463C17.6768 12.8987 17.7323 11.1874 16.9 9.74576C16.7619 9.50661 16.8438 9.20082 17.083 9.06275C17.3221 8.92468 17.6279 9.00661 17.766 9.24576C18.784 11.009 18.7142 13.1013 17.7672 14.7454C17.6293 14.9847 17.3236 15.0669 17.0843 14.9291Z" fill="black"/>
</svg>
