<svg xmlns="http://www.w3.org/2000/svg" data-name="Calque 1" viewBox="0 0 48 48">
  <path
     style="fill:#090909;fill-opacity:1;stroke-width:3.20006394"
     d="M 14.672139,11.2 C 15.33111,9.3356802 17.109165,8.0000002 19.1992,8.0000002 H 30.399648 C 35.701908,8.0000002 40,12.29808 40,17.6 v 11.2 c 0,2.08992 -1.335734,3.86784 -3.200128,4.52672 V 17.6 c 0,-3.534624 -2.865395,-6.4 -6.400224,-6.4 z"/>
  <path
     style="fill:#090909;fill-opacity:1;stroke-width:3.20006394"
     d="m 12.800192,14.4 h 16.00064 c 2.650986,0 4.800192,2.149024 4.800192,4.8 v 16 c 0,2.65088 -2.149206,4.8 -4.800192,4.8 H 12.800192 C 10.14911,40 7.9999999,37.85088 7.9999999,35.2 v -16 c 0,-2.650976 2.1491101,-4.8 4.8001921,-4.8 z m 0,3.2 c -0.883684,0 -1.600064,0.716352 -1.600064,1.6 v 16 c 0,0.88352 0.71638,1.6 1.600064,1.6 h 16.00064 c 0.883683,0 1.600064,-0.71648 1.600064,-1.6 v -16 c 0,-0.883648 -0.716381,-1.6 -1.600064,-1.6 z"/>
</svg>
