/* XPM */
static char * audio_xpm[] = {
"16 16 83 1",
" 	c None",
".	c #00E000",
"+	c #00F100",
"@	c #00F500",
"#	c #00DE00",
"$	c #00AF00",
"%	c #00AF01",
"&	c #00A402",
"*	c #00A100",
"=	c #00A400",
"-	c #009401",
";	c #009301",
">	c #007700",
",	c #007A02",
"'	c #008101",
")	c #00EE00",
"!	c #00F300",
"~	c #00A701",
"{	c #009C02",
"]	c #009C00",
"^	c #007E03",
"/	c #007401",
"(	c #929292",
"_	c #9E9E9E",
":	c #A8A8A8",
"<	c #747474",
"[	c #737373",
"}	c #6C6C6C",
"|	c #666666",
"1	c #787878",
"2	c #8F8F8F",
"3	c #A7A7A7",
"4	c #B6B6B7",
"5	c #6D6D6D",
"6	c #626262",
"7	c #646464",
"8	c #848484",
"9	c #969696",
"0	c #B9B9B9",
"a	c #C6C6C6",
"b	c #A6A6AA",
"c	c #6A6A6A",
"d	c #7A7A7A",
"e	c #B2B2B2",
"f	c #BFBFBF",
"g	c #BABABA",
"h	c #B6B6B6",
"i	c #B4B4B4",
"j	c #D7D7D7",
"k	c #C3C3C4",
"l	c #6B6B6B",
"m	c #636363",
"n	c #606060",
"o	c #575757",
"p	c #555555",
"q	c #535353",
"r	c #888888",
"s	c #D3D3D3",
"t	c #E1E1E1",
"u	c #B3B3B4",
"v	c #383838",
"w	c #707070",
"x	c #585858",
"y	c #3C3C3C",
"z	c #3B3B3B",
"A	c #494949",
"B	c #DEDEDE",
"C	c #C4C4C4",
"D	c #57575D",
"E	c #242424",
"F	c #7C7C7C",
"G	c #949494",
"H	c #A2A2A2",
"I	c #BCBCBC",
"J	c #8B8B8D",
"K	c #444444",
"L	c #414141",
"M	c #464646",
"N	c #5D5D5D",
"O	c #7B7B7B",
"P	c #4A4A4F",
"Q	c #4A4A4B",
"R	c #515153",
"      .+@#      ",
"   $%&    *=-   ",
"  ;         >,  ",
" '              ",
"       )!       ",
"    ~{    ]-    ",
"   ^        /   ",
"      (_:       ",
"   <[}||1234    ",
"  5|667<89:0ab  ",
"  c66defghiajk  ",
"  l6mnopqmrstu  ",
"  vwcxyvzA3BCD  ",
"   EoF2GHIhJ    ",
"     KLMNOP     ",
"       QR       "};
