/* XPM */
static char * codec_xpm[] = {
"16 16 132 2",
"  	c None",
". 	c #131313",
"+ 	c #464646",
"@ 	c #E0E0E0",
"# 	c #656565",
"$ 	c #3D3D3D",
"% 	c #E4E9EC",
"& 	c #FBFFFF",
"* 	c #E8E9EB",
"= 	c #595858",
"- 	c #393A3B",
"; 	c #D1DBE6",
"> 	c #ECF8FF",
", 	c #E8F4FF",
"' 	c #D5DAE1",
") 	c #C1C1C1",
"! 	c #4F4E4D",
"~ 	c #0A0A0A",
"{ 	c #909295",
"] 	c #D8EAFD",
"^ 	c #DFF1FF",
"/ 	c #C0CAD6",
"( 	c #C6CCD4",
"_ 	c #E5ECF1",
": 	c #828385",
"< 	c #080808",
"[ 	c #989898",
"} 	c #5B5B5B",
"| 	c #2F2E2D",
"1 	c #898E94",
"2 	c #ADB8C6",
"3 	c #B6BDC7",
"4 	c #E6F1FD",
"5 	c #F6FFFF",
"6 	c #8D96A2",
"7 	c #121213",
"8 	c #646464",
"9 	c #B6B6B6",
"0 	c #898989",
"a 	c #767676",
"b 	c #3F3F3F",
"c 	c #292827",
"d 	c #6D6E6F",
"e 	c #D4E0F0",
"f 	c #F1FFFF",
"g 	c #B9C4D0",
"h 	c #868E98",
"i 	c #B0BBC6",
"j 	c #46484B",
"k 	c #1E1E1D",
"l 	c #C7C7C7",
"m 	c #8D8D8D",
"n 	c #818181",
"o 	c #A1A1A1",
"p 	c #5E5E5E",
"q 	c #343433",
"r 	c #777A7F",
"s 	c #B3BDC6",
"t 	c #959AA2",
"u 	c #DEE9F2",
"v 	c #F7FFFF",
"w 	c #B8C2CE",
"x 	c #363636",
"y 	c #030303",
"z 	c #8F8F8F",
"A 	c #BDBDBD",
"B 	c #999999",
"C 	c #AAAAAA",
"D 	c #E1E1E1",
"E 	c #F6F6F6",
"F 	c #EBEBEB",
"G 	c #7E7E7E",
"H 	c #3F3E3E",
"I 	c #6E6F6F",
"J 	c #D9DFE7",
"K 	c #FDFFFF",
"L 	c #EDF4F9",
"M 	c #7A7D81",
"N 	c #0C0B0B",
"O 	c #A7A7A7",
"P 	c #C4C4C4",
"Q 	c #B5B5B5",
"R 	c #C2C2C2",
"S 	c #D6D6D6",
"T 	c #D5D5D5",
"U 	c #CDCDCD",
"V 	c #C5C5C5",
"W 	c #727272",
"X 	c #5D5C5C",
"Y 	c #AEAFB0",
"Z 	c #F0F1F1",
"` 	c #929394",
" .	c #0B0B0A",
"..	c #868686",
"+.	c #D9D9D9",
"@.	c #D3D3D3",
"#.	c #B8B8B8",
"$.	c #9B9B9B",
"%.	c #969696",
"&.	c #A0A0A0",
"*.	c #D1D1D1",
"=.	c #919192",
"-.	c #111111",
";.	c #3E3E3E",
">.	c #BEBEBE",
",.	c #EFEFEF",
"'.	c #E7E7E7",
").	c #B0B0B0",
"!.	c #CFCFCF",
"~.	c #F4F4F4",
"{.	c #DFDFDF",
"].	c #5D5D5D",
"^.	c #0C0C0C",
"/.	c #585858",
"(.	c #FFFFFF",
"_.	c #FDFDFD",
":.	c #FBFBFB",
"<.	c #8E8E8E",
"[.	c #252525",
"}.	c #424242",
"|.	c #7F7F7F",
"1.	c #A8A8A8",
"2.	c #939393",
"3.	c #6D6D6D",
"4.	c #191919",
"5.	c #4C4C4C",
"6.	c #6B6B6B",
"7.	c #8B8B8B",
"8.	c #ADADAD",
"9.	c #B4B4B4",
"0.	c #333333",
"a.	c #6C6C6C",
"                .               ",
"              + @ #             ",
"            $ % & * =           ",
"          - ; > , ' ) !         ",
"        ~ { ] ^ / ( _ : <       ",
"      [ } | 1 2 3 4 5 6 7 .     ",
"  8 9 0 a b c d e f g h i j k   ",
"  l m n m o p q r s t u v w x y ",
"z A B C D E F G H I J K L M N   ",
"O P Q R S T U V W X Y Z `  .    ",
"..+.@.#.[ $.%.&.*...G =.-.      ",
";.>.,.'.).z B !.~.{.].^.        ",
"  /.9 ,.(._.(.:.T <.[.          ",
"    }.|.$.1.&.2.3.4.            ",
"      5.6.7.8.9.$               ",
"        0.# a.                  "};
