/* XPM */
static char * disc_xpm[] = {
"24 24 138 2",
"  	c None",
". 	c #000000",
"+ 	c #AEB3B3",
"@ 	c #C6C9CD",
"# 	c #D7D4DF",
"$ 	c #ECDEF3",
"% 	c #E7CBE9",
"& 	c #D9B5D3",
"* 	c #B1B7A5",
"= 	c #B0B8AD",
"- 	c #B3B9B6",
"; 	c #C1C6C8",
"> 	c #D5D3DC",
", 	c #E5CAE6",
"' 	c #E0BBD7",
") 	c #E1ADC2",
"! 	c #E3ACA3",
"~ 	c #CAC1A4",
"{ 	c #C5C7AC",
"] 	c #B7BEAF",
"^ 	c #ADB4AF",
"/ 	c #BDC2C3",
"( 	c #D1D0D8",
"_ 	c #E5C7E4",
": 	c #E0B6D1",
"< 	c #E7A9B4",
"[ 	c #EDCDB6",
"} 	c #D6CFAE",
"| 	c #DFA79F",
"1 	c #DDBFAA",
"2 	c #CFC5A9",
"3 	c #C1C4AC",
"4 	c #B2BAAF",
"5 	c #B6BBBB",
"6 	c #CDCED4",
"7 	c #E4C4E1",
"8 	c #E0AFC7",
"9 	c #EABCAE",
"0 	c #E1D6B6",
"a 	c #C7CCAE",
"b 	c #A2AB9A",
"c 	c #E3ABC0",
"d 	c #E6A3A7",
"e 	c #DFBAA8",
"f 	c #BDC2AE",
"g 	c #E2BFDC",
"h 	c #E7D6B8",
"i 	c #ACB6A6",
"j 	c #9DA89F",
"k 	c #D9AFCF",
"l 	c #E1B4D2",
"m 	c #E2B0CB",
"n 	c #E4A9BB",
"o 	c #E2B2A6",
"p 	c #6A6A6A",
"q 	c #0D0D0D",
"r 	c #A6B1A3",
"s 	c #98A29C",
"t 	c #8F9796",
"u 	c #7E8485",
"v 	c #E8C6E7",
"w 	c #E5C2E3",
"x 	c #E3BDDD",
"y 	c #E1B6D5",
"z 	c #8B9092",
"A 	c #979EA2",
"B 	c #A0A7AE",
"C 	c #E7D3ED",
"D 	c #E8D1ED",
"E 	c #E8CEEC",
"F 	c #E9CCEB",
"G 	c #A7AEB7",
"H 	c #B2B6C5",
"I 	c #BABCCE",
"J 	c #BFBED3",
"K 	c #E9DFF0",
"L 	c #E1D2F7",
"M 	c #CAC7D2",
"N 	c #C5C4CD",
"O 	c #BFBFC7",
"P 	c #B8B9C0",
"Q 	c #AEAFB6",
"R 	c #D5A8E1",
"S 	c #D8B2E9",
"T 	c #D9B8ED",
"U 	c #DBBDF0",
"V 	c #DCBFF1",
"W 	c #A4A6AC",
"X 	c #A8AAAF",
"Y 	c #A0A6A8",
"Z 	c #989E9C",
"` 	c #A1A89E",
" .	c #B1B6A1",
"..	c #C08CAD",
"+.	c #CC90B5",
"@.	c #D394CA",
"#.	c #D6A2DB",
"$.	c #CFA7DF",
"%.	c #989F9B",
"&.	c #ACB3A0",
"*.	c #B9B9A4",
"=.	c #D0B8A8",
"-.	c #C5B5B8",
";.	c #B6BBAD",
">.	c #E3D7B5",
",.	c #DDB4A9",
"'.	c #CB89AC",
").	c #C891B5",
"!.	c #D18DB7",
"~.	c #A1A798",
"{.	c #BDB9A5",
"].	c #CAB5B7",
"^.	c #B8B1B1",
"/.	c #C2C8B2",
"(.	c #E1BFAF",
"_.	c #DB929A",
":.	c #BE82A6",
"<.	c #C891B4",
"[.	c #C78BB0",
"}.	c #BCB6A1",
"|.	c #CDB6B7",
"1.	c #C0B4B5",
"2.	c #B1B1AA",
"3.	c #CAD1B4",
"4.	c #E2C1B0",
"5.	c #DBA8A3",
"6.	c #D28AA9",
"7.	c #B77EA2",
"8.	c #BD89A9",
"9.	c #C9AFAF",
"0.	c #D0D6B5",
"a.	c #E2BFAF",
"b.	c #C684A7",
"c.	c #ACAAA6",
"d.	c #BDC3B0",
"e.	c #D2D7B5",
"f.	c #E2BFAE",
"g.	c #DBB6A8",
"                                                ",
"                                                ",
"                                                ",
"                  . . . . . .                   ",
"              . . + @ # $ % & . .               ",
"            . * = - ; > $ , ' ) ! .             ",
"          . ~ { ] ^ / ( $ _ : < [ } .           ",
"        . | 1 2 3 4 5 6 $ 7 8 9 0 a b .         ",
"        . c d e 2 f ^ @ $ g < h a i j .         ",
"      . k l m n o 2 p q q p [ a r s t u .       ",
"      . v w x y m p .     . p j t z A B .       ",
"      . C D E F v q         q A G H I J .       ",
"      . K K K K K q         q L L L L L .       ",
"      . M N O P Q p .     . p R S T U V .       ",
"      . W X Y Z `  .p q q p ..+.@.#.R $..       ",
"        . %.` &.*.=.-.;.>.,.'...).!.@..         ",
"        . ~. .{.=.].^./.>.(._.:...<.[..         ",
"          . }.=.|.1.2.3.>.4.5.6.7.8..           ",
"            . 9.-.^.;.0.>.a.,._.b..             ",
"              . . c.d.e.>.f.g.. .               ",
"                  . . . . . .                   ",
"                                                ",
"                                                ",
"                                                "};
