/* XPM */
static char * fast_xpm[] = {
"36 36 23 1",
" 	c None",
".	c #000000",
"+	c #E4EBE2",
"@	c #E1EADF",
"#	c #FCFDFC",
"$	c #F0F4EF",
"%	c #D9E4D7",
"&	c #EDF2EC",
"*	c #CBDAC7",
"=	c #181818",
"-	c #B1C7AC",
";	c #9DBB90",
">	c #88AC80",
",	c #83A97A",
"'	c #7EA476",
")	c #749A6B",
"!	c #5D8554",
"~	c #3A5B32",
"{	c #537C49",
"]	c #445840",
"^	c #4B7040",
"/	c #96B88C",
"(	c #3F6534",
"                                    ",
"                                    ",
"                                    ",
"                                    ",
"                                    ",
"                                    ",
"                                    ",
"                                    ",
"                                    ",
"                                    ",
"                                    ",
"       ..           .... ....       ",
"       .+..         .@+. .@+.       ",
"       .#$%..       .##. .##.       ",
"       .#$&$*..     .##. .##.       ",
"       .##$$&$*..   .##. .##.       ",
"       .#$$&&&+$*=. .##. .##.       ",
"       .#$$$&%%%%$-..##. .##.       ",
"       .;>,>,,',)!~..;;. .;;.       ",
"       .;,,,,,){].. .;;. .;;.       ",
"       .;,,,){^..   .;/. .;/.       ",
"       .>,){~..     .//. .//.       ",
"       .,!~..       .,,. .,,.       ",
"       .(..         .((. .((.       ",
"       ..           .... ....       ",
"                                    ",
"                                    ",
"                                    ",
"                                    ",
"                                    ",
"                                    ",
"                                    ",
"                                    ",
"                                    ",
"                                    ",
"                                    "};
