/* XPM */
static char * file_xpm[] = {
"36 36 54 1",
" 	c None",
".	c #000000",
"+	c #0B0B0B",
"@	c #A4946F",
"#	c #131313",
"$	c #FEFEF7",
"%	c #FFFFFF",
"&	c #C0B59C",
"*	c #D5CEBD",
"=	c #C4BAA2",
"-	c #EFEDE7",
";	c #C5BBA4",
">	c #C5BBA3",
",	c #E9E5DC",
"'	c #D4CDBC",
")	c #AD9E7D",
"!	c #A99A77",
"~	c #DAD4C5",
"{	c #F1EEE8",
"]	c #B5A88A",
"^	c #AFA281",
"/	c #A59671",
"(	c #D5CDBC",
"_	c #EBE8E0",
":	c #ECE8E0",
"<	c #CBC2AD",
"[	c #B9AD91",
"}	c #B8AC8F",
"|	c #AA9B78",
"1	c #F3F1EC",
"2	c #C7BDA6",
"3	c #B7AA8D",
"4	c #B5A98B",
"5	c #B4A789",
"6	c #AB9C7B",
"7	c #D7D1C1",
"8	c #B7AB8E",
"9	c #B6A98C",
"0	c #B8AB8E",
"a	c #685E46",
"b	c #B3A688",
"c	c #B1A484",
"d	c #A89975",
"e	c #938463",
"f	c #D2CAB8",
"g	c #B4A788",
"h	c #CFC7B3",
"i	c #AEA07F",
"j	c #A79875",
"k	c #7D7155",
"l	c #C1B69D",
"m	c #A79774",
"n	c #8B7D5E",
"o	c #A0906C",
"                                    ",
"                                    ",
"                                    ",
"                                    ",
"                                    ",
"                                    ",
"                                    ",
"                                    ",
"                                    ",
"                                    ",
"                                    ",
"                    ..              ",
"                 +..@@.             ",
"          ..  .#.@@@@$$%...         ",
"         .@@..@@@@$$$$..&*.         ",
"         .@@@@@$$$$$..=-;@.         ",
"          .@@$$$$$..>,')!@.         ",
"          .@@$$$..~{~]]^/@.         ",
"           .@$$.(_:<[})|@@.         ",
"           .@@$.12[3456@@@.         ",
"            .@$.78]90)@@@a.         ",
"            .@@.*]b9cd@e..          ",
"             .@.f]]g|@..            ",
"             .@.h4ijk.              ",
"              ..lmn..               ",
"              ..o..                 ",
"               ..                   ",
"                                    ",
"                                    ",
"                                    ",
"                                    ",
"                                    ",
"                                    ",
"                                    ",
"                                    ",
"                                    "};
