/* XPM */
static char * net_xpm[] = {
"24 24 30 1",
" 	c None",
".	c #272727",
"+	c #888888",
"@	c #B0A5BA",
"#	c #7E6792",
"$	c #3C284D",
"%	c #B8B0C1",
"&	c #87709D",
"*	c #70518A",
"=	c #6C4C85",
"-	c #65477C",
";	c #513663",
">	c #856E99",
",	c #4B365F",
"'	c #573E6D",
")	c #483259",
"!	c #372544",
"~	c #4B335C",
"{	c #776684",
"]	c #A898B5",
"^	c #857991",
"/	c #8A759B",
"(	c #747474",
"_	c #9C89AA",
":	c #4D3663",
"<	c #A095AC",
"[	c #65477E",
"}	c #7A5695",
"|	c #826A97",
"1	c #412D52",
"                        ",
"                        ",
"                        ",
"                        ",
"           .            ",
"          .+            ",
"         .@#..$         ",
"        .%&**=-;.       ",
"         .>*.$,--.      ",
"       .  ..   $').     ",
"      .    .    !'.     ",
"     ..          ~!     ",
"     !{          !.     ",
"     .].    .    .      ",
"     .^/.   (.  .       ",
"      ._=:!.<[.         ",
"       !:**}|=*.        ",
"         1!.=-.         ",
"            ..          ",
"            .           ",
"                        ",
"                        ",
"                        ",
"                        "};
