/* XPM */
static char * next_xpm[] = {
"24 24 52 1",
" 	c None",
".	c #000000",
"+	c #F7F7F7",
"@	c #CBD6CA",
"#	c #BECEBA",
"$	c #E7EFE7",
"%	c #ACC8A9",
"&	c #EBF2EA",
"*	c #77A16E",
"=	c #E3EBE2",
"-	c #709867",
";	c #F8F8F7",
">	c #F1F5F0",
",	c #ECF2EB",
"'	c #E5EEE3",
")	c #E0EBDF",
"!	c #D8E6D6",
"~	c #C6D9C2",
"{	c #C5D7C3",
"]	c #B2CBB0",
"^	c #AAC7A8",
"/	c #0F1308",
"(	c #DDE6DB",
"_	c #AEC8AD",
":	c #ABC7A8",
"<	c #AAC6A7",
"[	c #A8C6A5",
"}	c #ADC8AD",
"|	c #A8C7A8",
"1	c #A5C4A3",
"2	c #7F9F76",
"3	c #D6E1D4",
"4	c #ABC7AA",
"5	c #A7C5A4",
"6	c #A9C7A6",
"7	c #AFC8AD",
"8	c #A4C3A2",
"9	c #6B9060",
"0	c #E4ECE3",
"a	c #A7B6A2",
"b	c #698D60",
"c	c #6B9063",
"d	c #445B2C",
"e	c #9FB79B",
"f	c #9FB199",
"g	c #5B7950",
"h	c #95A88F",
"i	c #9FAF99",
"j	c #789171",
"k	c #506B46",
"l	c #889D7F",
"m	c #475E3E",
"                        ",
"                        ",
"                        ",
"        .        ....   ",
"        ..       .+@.   ",
"        .#.      .$%.   ",
"        .&*.     .$%.   ",
" ........=%-.    .$%.   ",
" .;>,')!~{]^-/   .$%.   ",
" .(_:::<[^}|12.  .$%.   ",
" .34[5[6:%^:789. .0%.   ",
" .abccccccccccbd..ec.   ",
" .fgggggggggggd. .hg.   ",
" .iggggggggggd.  .hg.   ",
" .jkkkkkkgggd.   .hg.   ",
" ........kgd.    .hg.   ",
"        .kd.     .hg.   ",
"        .d.      .hg.   ",
"        ..       .lm.   ",
"        .        ....   ",
"                        ",
"                        ",
"                        ",
"                        "};
