/* XPM */
static char * pause_xpm[] = {
"24 24 7 1",
" 	c None",
".	c #000000",
"+	c #36582E",
"@	c #5B8851",
"#	c #608C56",
"$	c #67925C",
"%	c #C6D7C3",
"                        ",
"                        ",
"                        ",
"                        ",
"                        ",
"     .....  .....       ",
"     .%%%.  .%%%.       ",
"     .%%%.  .%%%.       ",
"     .%%%.  .%%%.       ",
"     .%%%.  .%%%.       ",
"     .%%%.  .%%%.       ",
"     .%%%.  .%%%.       ",
"     .$$$.  .$$$.       ",
"     .$$$.  .$$$.       ",
"     .$$$.  .$$$.       ",
"     .###.  .###.       ",
"     .@@@.  .@@@.       ",
"     .+++.  .+++.       ",
"     .....  .....       ",
"                        ",
"                        ",
"                        ",
"                        ",
"                        "};
