/* XPM */
static char * pause_xpm[] = {
"24 24 48 1",
" 	c None",
".	c #000000",
"+	c #C1D6BD",
"@	c #AEC5A8",
"#	c #A6BFA0",
"$	c #778E6F",
"%	c #6B8661",
"&	c #6C8562",
"*	c #65815C",
"=	c #BDD3B8",
"-	c #AEC8AD",
";	c #ABC7AA",
">	c #698D60",
",	c #5B7950",
"'	c #506B46",
")	c #BFD4BB",
"!	c #ABC7A8",
"~	c #A8C6A5",
"{	c #6B9063",
"]	c #C2D7BE",
"^	c #A7C5A4",
"/	c #AAC6A7",
"(	c #A9C7A6",
"_	c #8CA782",
":	c #B1CDAE",
"<	c #B4CEB1",
"[	c #B0CAAD",
"}	c #AAC7A8",
"|	c #ACC8A9",
"1	c #445B2C",
"2	c #77A16E",
"3	c #B2CBB0",
"4	c #ADC8AD",
"5	c #709867",
"6	c #A8C7A8",
"7	c #A5C4A3",
"8	c #AFC8AD",
"9	c #0F1308",
"0	c #7F9F76",
"a	c #A4C3A2",
"b	c #6B9060",
"c	c #F3F3F3",
"d	c #C9DBC7",
"e	c #9FB79B",
"f	c #95A88F",
"g	c #889D7F",
"h	c #C7D3C6",
"i	c #475E3E",
"                        ",
"                        ",
"       .........        ",
"       .+@#$%&*.        ",
"       .=-;>,,'.        ",
"       .)!~{,,'.        ",
"       .]!^{,,'.        ",
"       .]!~{,,'.        ",
"       .]/({,,'.        ",
"   .....]~!{,,'.....    ",
"    ._:<[}|{,,,''1.     ",
"     .2|34}{,,,,1.      ",
"      .5}6!{,,,1.       ",
"       .578{,,1.        ",
"        90a{,1.         ",
"         .b>1.          ",
"          .1.           ",
"           .            ",
"   .................    ",
"   .cddddddeffffffg.    ",
"   .h||||||{,,,,,,i.    ",
"   .................    ",
"                        ",
"                        "};
