/* XPM */
static char * playlist_xpm[] = {
"24 24 16 1",
" 	c None",
".	c #000000",
"+	c #464233",
"@	c #5C5543",
"#	c #736B54",
"$	c #7A735A",
"%	c #908669",
"&	c #998F70",
"*	c #949C8C",
"=	c #B4A884",
"-	c #BBB191",
";	c #A3A5A3",
">	c #C1B89B",
",	c #CAC3AA",
"'	c #D3CDB8",
")	c #E0E4E0",
"                        ",
"                        ",
"                        ",
"    ..................  ",
"    .)))))))))))))))).  ",
"    .)))))..*)))))))).  ",
"    .)))).%#.*))))))).  ",
"    ......,%..........  ",
"    .)))).'%.*))))))).  ",
"    .)))).,%...;))))).  ",
"    .)))).,%.$+...*)).  ",
"    ......-%.=$.&#....  ",
"    .)).#.>%.=%.=%.%#.  ",
"    .)).%.--%==%====%.  ",
"    .)).=.>>>--=====#.  ",
"    ....=.=>>->=====#.  ",
"    .)).%&->>>->-===@.  ",
"    .))).%=>>>>-===%+.  ",
"    .))).#=->>->===%.   ",
"    ......%>>>>-==%#.   ",
"         .#==>>>==%@.   ",
"          .%->>-==#.    ",
"           .=->>==@.    ",
"                        "};
