/* XPM */
static char * playlist_xpm[] = {
"36 36 16 1",
" 	c None",
".	c #000000",
"+	c #E0E4E0",
"@	c #949C8C",
"#	c #908669",
"$	c #736B54",
"%	c #CAC3AA",
"&	c #D3CDB8",
"*	c #A3A5A3",
"=	c #7A735A",
"-	c #464233",
";	c #BBB191",
">	c #B4A884",
",	c #998F70",
"'	c #C1B89B",
")	c #5C5543",
"                                    ",
"                                    ",
"                                    ",
"                                    ",
"                                    ",
"                                    ",
"                                    ",
"                                    ",
"                                    ",
"          ..................        ",
"          .++++++++++++++++.        ",
"          .+++++..@++++++++.        ",
"          .++++.#$.@+++++++.        ",
"          ......%#..........        ",
"          .++++.&#.@+++++++.        ",
"          .++++.%#...*+++++.        ",
"          .++++.%#.=-...@++.        ",
"          ......;#.>=.,$....        ",
"          .++.$.'#.>#.>#.#$.        ",
"          .++.#.;;#>>#>>>>#.        ",
"          .++.>.''';;>>>>>$.        ",
"          ....>.>'';'>>>>>$.        ",
"          .++.#,;''';';>>>).        ",
"          .+++.#>'''';>>>#-.        ",
"          .+++.$>;'';'>>>#.         ",
"          ......#'''';>>#$.         ",
"               .$>>'''>>#).         ",
"                .#;'';>>$.          ",
"                 .>;''>>).          ",
"                                    ",
"                                    ",
"                                    ",
"                                    ",
"                                    ",
"                                    ",
"                                    "};
