/* XPM */
static char * play_xpm[] = {
"36 36 23 1",
" 	c None",
".	c #000000",
"+	c #E4EBE2",
"@	c #F9FBF9",
"#	c #EDF2EC",
"$	c #D9E4D7",
"%	c #F0F4EF",
"&	c #CBDAC7",
"*	c #181818",
"=	c #2B2B2B",
"-	c #B1C7AC",
";	c #9DBB90",
">	c #88AC80",
",	c #83A87A",
"'	c #749A6B",
")	c #59814F",
"!	c #3A5B32",
"~	c #537C49",
"{	c #445840",
"]	c #96B88C",
"^	c #4B7040",
"/	c #5D8554",
"(	c #3F6534",
"                                    ",
"                                    ",
"                                    ",
"                                    ",
"                                    ",
"                                    ",
"                                    ",
"                                    ",
"                                    ",
"                                    ",
"                                    ",
"            ..                      ",
"            .+..                    ",
"            .@#$..                  ",
"            .@%##&..                ",
"            .@@%##%&..              ",
"            .@#%%##+%&*.            ",
"            =@####+$$$%-..          ",
"            .;>,,,,,,')!..          ",
"            .;,,,,,'~{..            ",
"            .]>,,'~^..              ",
"            .],'~!..                ",
"            .>/!..                  ",
"            .(..                    ",
"            ..                      ",
"                                    ",
"                                    ",
"                                    ",
"                                    ",
"                                    ",
"                                    ",
"                                    ",
"                                    ",
"                                    ",
"                                    ",
"                                    "};
