/* XPM */
static char * previous_xpm[] = {
"36 36 21 1",
" 	c None",
".	c #000000",
"+	c #C6D7C3",
"@	c #E5ECE4",
"#	c #F8FAF8",
"$	c #EDF2EC",
"%	c #DCE6DA",
"&	c #121B12",
"*	c #B1C7AC",
"=	c #67925C",
"-	c #375930",
";	c #548149",
">	c #719A67",
",	c #82A979",
"'	c #7DA473",
")	c #516F4A",
"!	c #4E7C44",
"~	c #608C56",
"{	c #47733D",
"]	c #5B8851",
"^	c #6FA763",
"                                    ",
"                                    ",
"                                    ",
"                                    ",
"                                    ",
"                                    ",
"                                    ",
"                                    ",
"                                    ",
"                                    ",
"                                    ",
"         ....           ..          ",
"         .++.         ..+.          ",
"         .++.       ..@#+.          ",
"         .++.     ..@##$+.          ",
"         .++.   ..%##$$#+.          ",
"         .++. .&@#$@$$$$+.          ",
"         .++..*#@%%@$$$$+.          ",
"         .==..-;>,',,,,,>.          ",
"         .==. ..)!>,,,,,=.          ",
"         .==.   ..-!>,',=.          ",
"         .~~.     ..{!>,~.          ",
"         .]].       ..{^].          ",
"         .--.         ..-.          ",
"         ....           ..          ",
"                                    ",
"                                    ",
"                                    ",
"                                    ",
"                                    ",
"                                    ",
"                                    ",
"                                    ",
"                                    ",
"                                    ",
"                                    "};
