/* XPM */
static char * previous_xpm[] = {
"24 24 22 1",
" 	c None",
".	c #000000",
"+	c #121B12",
"@	c #36582E",
"#	c #375930",
"$	c #47733D",
"%	c #4E7C44",
"&	c #516F4A",
"*	c #548149",
"=	c #5B8851",
"-	c #608C56",
";	c #67925C",
">	c #719A67",
",	c #6FA763",
"'	c #7DA473",
")	c #82A979",
"!	c #B1C7AC",
"~	c #C6D7C3",
"{	c #DCE6DA",
"]	c #E5ECE4",
"^	c #EDF2EC",
"/	c #F8FAF8",
"                        ",
"                        ",
"                        ",
"                        ",
"                        ",
"   ....           ..    ",
"   .~~.         ..~.    ",
"   .~~.       ..]/~.    ",
"   .~~.     ..]//^~.    ",
"   .~~.   ..{//^^/~.    ",
"   .~~. .+]/^]^^^^~.    ",
"   .~~..!/]{{]^^^^~.    ",
"   .;;..#*>)')))))>.    ",
"   .;;. ..&%>)))));.    ",
"   .;;.   ..#%>)');.    ",
"   .--.     ..$%>)-.    ",
"   .==.       ..$,=.    ",
"   .##.         ..#.    ",
"   ....           ..    ",
"                        ",
"                        ",
"                        ",
"                        ",
"                        "};
