/* XPM */
static char * previous_xpm[] = {
"24 24 57 1",
" 	c None",
".	c #000000",
"+	c #F7F7F7",
"@	c #CBD6CA",
"#	c #E7EFE7",
"$	c #ACC8A9",
"%	c #C9DBC9",
"&	c #E6EEE5",
"*	c #BFCEBF",
"=	c #E7EFE6",
"-	c #BBCFBA",
";	c #B3C4B3",
">	c #E6EEE6",
",	c #B9CEB7",
"'	c #B5CEB5",
")	c #B7CCB5",
"!	c #BFD4BF",
"~	c #C7D7C5",
"{	c #DBE5DB",
"]	c #DAE5D9",
"^	c #CBDAC9",
"/	c #7EAB78",
"(	c #BAD1B9",
"_	c #B3CAB1",
":	c #B0C9B0",
"<	c #B0C9AE",
"[	c #AEC7AC",
"}	c #AAC5A8",
"|	c #A9C4A7",
"1	c #698267",
"2	c #E4ECE3",
"3	c #2D2D2D",
"4	c #E0EADE",
"5	c #B3CCB1",
"6	c #B0C7AE",
"7	c #ADC6AB",
"8	c #ADC8AB",
"9	c #AAC7A8",
"0	c #678C63",
"a	c #9FB79B",
"b	c #6B9063",
"c	c #C2CDC2",
"d	c #8EB48A",
"e	c #87AF84",
"f	c #87B083",
"g	c #88AF84",
"h	c #88B085",
"i	c #86AF82",
"j	c #547150",
"k	c #95A88F",
"l	c #5B7950",
"m	c #3C5235",
"n	c #4A6342",
"o	c #3B5035",
"p	c #415639",
"q	c #889D7F",
"r	c #475E3E",
"                        ",
"                        ",
"                        ",
"  ....        .         ",
"  .+@.       ..         ",
"  .#$.      .%.         ",
"  .#$.     .&*.         ",
"  .#$.    .=-;........  ",
"  .#$.   .>,'),!~{]^/.  ",
"  .#$.  .>(_:<[}}}[|1.  ",
"  .2$. 34567789[[6[80.  ",
"  .ab..cdeeeeefgefhij.  ",
"  .kl. .mllllllllllln.  ",
"  .kl.  .mlllllllllln.  ",
"  .kl.   .mllnoooooop.  ",
"  .kl.    .mln........  ",
"  .kl.     .mn.         ",
"  .kl.      .n.         ",
"  .qr.       ..         ",
"  ....        .         ",
"                        ",
"                        ",
"                        ",
"                        "};
