/* XPM */
static char * sat_xpm[] = {
"36 36 14 1",
" 	c None",
".	c #000000",
"+	c #ABABAB",
"@	c #767676",
"#	c #D4D4D4",
"$	c #8A8A8A",
"%	c #F7F7F7",
"&	c #989898",
"*	c #525252",
"=	c #CCCCCC",
"-	c #6A6A6A",
";	c #BBBBBB",
">	c #4B4B4B",
",	c #3C3C3C",
"                                    ",
"                                    ",
"                                    ",
"                                    ",
"                                    ",
"                                    ",
"                                    ",
"                                    ",
"                                    ",
"                 ...                ",
"                .+@+.               ",
"               .#$%@&.              ",
"               .*%@=*.              ",
"               .&$#-&.              ",
"               .*%-=*.              ",
"             ...&$#-$...            ",
"             . .*%@;>. .            ",
"             . .$@#*@. .            ",
"             . .>&-$,. .            ",
"             .. ..... ..            ",
"              ..     ..             ",
"               .......              ",
"                 ...                ",
"                 ...                ",
"                 ...                ",
"                  .                 ",
"                                    ",
"                                    ",
"                                    ",
"                                    ",
"                                    ",
"                                    ",
"                                    ",
"                                    ",
"                                    ",
"                                    "};
