/* XPM */
static char * sat_xpm[] = {
"24 24 14 1",
" 	c None",
".	c #000000",
"+	c #3C3C3C",
"@	c #4B4B4B",
"#	c #525252",
"$	c #6A6A6A",
"%	c #767676",
"&	c #8A8A8A",
"*	c #989898",
"=	c #ABABAB",
"-	c #BBBBBB",
";	c #CCCCCC",
">	c #D4D4D4",
",	c #F7F7F7",
"                        ",
"                        ",
"                        ",
"           ...          ",
"          .=%=.         ",
"         .>&,%*.        ",
"         .#,%;#.        ",
"         .*&>$*.        ",
"         .#,$;#.        ",
"       ...*&>$&...      ",
"       . .#,%-@. .      ",
"       . .&%>#%. .      ",
"       . .@*$&+. .      ",
"       .. ..... ..      ",
"        ..     ..       ",
"         .......        ",
"           ...          ",
"           ...          ",
"           ...          ",
"            .           ",
"                        ",
"                        ",
"                        ",
"                        "};
