/* XPM */
static char * speaker_xpm[] = {
"16 16 17 1",
"*	c None",
".	c #000000",
"+	c #800000",
"@	c #008000",
"#	c #808000",
"$	c #000080",
"%	c #800080",
"&	c #008080",
" 	c #C0C0C0",
"=	c #808080",
"-	c #FF0000",
";	c #00FF00",
">	c #FFFF00",
",	c #0000FF",
"'	c #FF00FF",
")	c #00FFFF",
"!	c #FFFFFF",
"*********..*****",
"********#=.=****",
"*******#>.******",
"******#>==*!=***",
"*****#>!.*!!=***",
"***##>!>.*!!=***",
"**#!*!>!..!!=***",
"**#>*>!>.*.!=***",
"**#>*!>!.==!=***",
"**.#=>!>..!!=***",
"***..#>!.*!!=***",
"*****.#>.*!!=***",
"******.#==!!=***",
"*******.#.!=****",
"********.#.=****",
"*********..*****"};
