/* XPM */
static char * stop_xpm[] = {
"24 24 258 2",
"  	c None",
". 	c #010000",
"+ 	c #180801",
"@ 	c #2D1103",
"# 	c #2C1003",
"$ 	c #280F02",
"% 	c #84320B",
"& 	c #C75621",
"* 	c #DC794A",
"= 	c #DA7546",
"- 	c #D77445",
"; 	c #D37245",
"> 	c #B74918",
", 	c #772B09",
"' 	c #250D02",
") 	c #0B0400",
"! 	c #88360E",
"~ 	c #DF723D",
"{ 	c #E47F4E",
"] 	c #E1733D",
"^ 	c #DA5A1C",
"/ 	c #D65112",
"( 	c #D14E11",
"_ 	c #CC4C0F",
": 	c #C7490F",
"< 	c #C2460F",
"[ 	c #BB430F",
"} 	c #742909",
"| 	c #0A0300",
"1 	c #150701",
"2 	c #B5450F",
"3 	c #E47B46",
"4 	c #E5733A",
"5 	c #E25813",
"6 	c #DF5613",
"7 	c #DB5412",
"8 	c #D04E10",
"9 	c #CA4B0F",
"0 	c #C5480F",
"a 	c #BF450F",
"b 	c #B9420E",
"c 	c #97350B",
"d 	c #130600",
"e 	c #B3440F",
"f 	c #E57944",
"g 	c #E67034",
"h 	c #E75A13",
"i 	c #E95B13",
"j 	c #E85B13",
"k 	c #E45913",
"l 	c #E05713",
"m 	c #DA5312",
"n 	c #D44F12",
"o 	c #CD4D0F",
"p 	c #C1460F",
"q 	c #BB430E",
"r 	c #B53F0D",
"s 	c #93330B",
"t 	c #090300",
"u 	c #82340F",
"v 	c #E17641",
"w 	c #E46C2F",
"x 	c #ED5D13",
"y 	c #C94F10",
"z 	c #C14B0F",
"A 	c #E35813",
"B 	c #DC5512",
"C 	c #C6490F",
"D 	c #AC3F0C",
"E 	c #C3460F",
"F 	c #BC430F",
"G 	c #B6400E",
"H 	c #B03D0D",
"I 	c #6A2408",
"J 	c #230C02",
"K 	c #D7632C",
"L 	c #E37A47",
"M 	c #E95C13",
"N 	c #A24919",
"O 	c #9C7663",
"P 	c #8C634D",
"Q 	c #AA4410",
"R 	c #DA5512",
"S 	c #DE5612",
"T 	c #C14B12",
"U 	c #A0735D",
"V 	c #B38C7A",
"W 	c #A64F27",
"X 	c #BC440F",
"Y 	c #A93A0D",
"Z 	c #1F0A01",
"` 	c #7F3715",
" .	c #DE7A4A",
"..	c #AB8069",
"+.	c #FFFFFF",
"@.	c #DEB39D",
"#.	c #B14712",
"$.	c #C34D13",
"%.	c #A38272",
"&.	c #DBDBDB",
"*.	c #E6B49E",
"=.	c #C66035",
"-.	c #AA3A0D",
";.	c #642107",
">.	c #000000",
",.	c #C3683D",
"'.	c #D7602A",
").	c #D95312",
"!.	c #DF5713",
"~.	c #E55913",
"{.	c #AB7255",
"].	c #D8AF9B",
"^.	c #AC8978",
"/.	c #DADADA",
"(.	c #DC997B",
"_.	c #CA6D44",
":.	c #B5400E",
"<.	c #AF3D0D",
"[.	c #7F2B09",
"}.	c #100500",
"|.	c #D57548",
"1.	c #BC4A11",
"2.	c #B18771",
"3.	c #E7B39C",
"4.	c #CE724A",
"5.	c #C7663C",
"6.	c #B43F0D",
"7.	c #AE3C0D",
"8.	c #A8390C",
"9.	c #8E2F0A",
"0.	c #220C03",
"a.	c #D24E11",
"b.	c #D75112",
"c.	c #DD5512",
"d.	c #DE5714",
"e.	c #AF8673",
"f.	c #E8B49D",
"g.	c #D3774E",
"h.	c #C3592A",
"i.	c #B7410E",
"j.	c #B23E0D",
"k.	c #AC3B0D",
"l.	c #A6380C",
"m.	c #852C08",
"n.	c #1F0A02",
"o.	c #210C03",
"p.	c #D17045",
"q.	c #C8490F",
"r.	c #D45012",
"s.	c #D85415",
"t.	c #B28F7D",
"u.	c #EBC1AF",
"v.	c #C55625",
"w.	c #BA420E",
"x.	c #A4370C",
"y.	c #742606",
"z.	c #1A0801",
"A.	c #0D0400",
"B.	c #CC6E45",
"C.	c #C4470F",
"D.	c #CB4B0F",
"E.	c #CE4D0F",
"F.	c #A8410E",
"G.	c #B18D7D",
"H.	c #ECECEC",
"I.	c #EBC8B9",
"J.	c #BD5123",
"K.	c #AD3B0D",
"L.	c #A7380C",
"M.	c #A2360B",
"N.	c #672005",
"O.	c #0E0400",
"P.	c #AD5129",
"Q.	c #BE450F",
"R.	c #AA3E0C",
"S.	c #A7745D",
"T.	c #E6B39C",
"U.	c #DCA892",
"V.	c #B64F25",
"W.	c #8E2F09",
"X.	c #5F1E05",
"Y.	c #804A32",
"Z.	c #BD440F",
"`.	c #97360B",
" +	c #A87D6B",
".+	c #E5B29C",
"++	c #C96335",
"@+	c #C45729",
"#+	c #E2B19B",
"$+	c #DBA995",
"%+	c #B4512A",
"&+	c #9A330A",
"*+	c #7C2807",
"=+	c #441504",
"-+	c #190801",
";+	c #BC5B32",
">+	c #9A3E17",
",+	c #C08E78",
"'+	c #D89375",
")+	c #C66034",
"!+	c #BF5426",
"~+	c #BC5427",
"{+	c #D28E72",
"]+	c #D9A38D",
"^+	c #B4542D",
"/+	c #AF4C24",
"(+	c #872C08",
"_+	c #712506",
":+	c #160600",
"<+	c #672B11",
"[+	c #BB582E",
"}+	c #B64717",
"|+	c #C05A2F",
"1+	c #B85025",
"2+	c #B8552E",
"3+	c #B3512A",
"4+	c #B05029",
"5+	c #973109",
"6+	c #6F2307",
"7+	c #471604",
"8+	c #050100",
"9+	c #872E0A",
"0+	c #B7532A",
"a+	c #B44B1F",
"b+	c #A1360B",
"c+	c #963109",
"d+	c #6C2106",
"e+	c #5D1D05",
"f+	c #0C0300",
"g+	c #832C0A",
"h+	c #B4552E",
"i+	c #B0481F",
"j+	c #A5370C",
"k+	c #A2360C",
"l+	c #9F350B",
"m+	c #7B2707",
"n+	c #641F06",
"o+	c #652006",
"p+	c #0B0300",
"q+	c #040100",
"r+	c #5A1E06",
"s+	c #A1360C",
"t+	c #A2370C",
"u+	c #822A08",
"v+	c #661F05",
"w+	c #702406",
"x+	c #511905",
"y+	c #140600",
"z+	c #561D06",
"A+	c #752707",
"B+	c #892C08",
"C+	c #7F2907",
"D+	c #642005",
"E+	c #5E1D05",
"F+	c #4D1804",
"G+	c #150600",
"H+	c #080200",
"I+	c #160701",
"                                                ",
"                  . + @ # + .                   ",
"              $ % & * = - ; > , '               ",
"          ) ! ~ { ] ^ / ( _ : < [ } |           ",
"        1 2 3 4 5 5 6 7 / 8 9 0 a b c d         ",
"      | e f g h i j k l m n o : p q r s t       ",
"      u v w h x y z i A B / C D E F G H I       ",
"    J K L A M N O P Q R S T U V W X G H Y Z     ",
"    `  .7 5 j ..+.+.@.#.$.%.&.+.*.=.G H -.;.    ",
"  >.,.'.).!.~.{.+.+.+.].^./.+.+.(._.:.<.Y [.>.  ",
"  }.|.8 / 7 l 1.2.+.+.+.+.+.+.3.4.5.6.7.8.9.}.  ",
"  0.; _ a.b.m c.d.e.+.+.+.+.f.g.h.i.j.k.l.m.n.  ",
"  o.p.q._ ( r.b.s.t.+.+.+.+.u.v.w.r H -.x.y.z.  ",
"  A.B.C.: D.E.F.G.H.+.+.+.+.+.I.J.j.K.L.M.N.O.  ",
"  >.P.Q.< 0 R.S.+.+.+.3.T.+.+.+.U.V.Y x.W.X.>.  ",
"    Y.b Z.a `. ++.+..+++@+#++.+.$+%+l.&+*+=+    ",
"    -+;+i.b q >+,+'+)+w.!+~+{+]+^+/+M.(+_+:+    ",
"      <+[+}+:.G |+|+:.6.j.1+2+3+4+M.5+6+7+      ",
"      8+9+0+a+H H H H 7.k.-.L.x.b+c+d+e+8+      ",
"        f+g+h+i+-.-.Y 8.l.j+k+l+m+n+o+p+        ",
"          q+r+s+x.x.x.t+b+l+u+v+w+x+8+          ",
"              y+z+A+B+C+D+o+E+F+G+              ",
"                  >.H+I+I+H+>.                  ",
"                                                "};
