/* XPM */
static char * stop_xpm[] = {
"24 24 37 1",
" 	c None",
".	c #000000",
"+	c #160606",
"@	c #27090A",
"#	c #310D0D",
"$	c #633E3F",
"%	c #703F40",
"&	c #654040",
"*	c #754748",
"=	c #7D5E61",
"-	c #824E4F",
";	c #804F50",
">	c #8C5A5B",
",	c #905E5F",
"'	c #9F6869",
")	c #997171",
"!	c #A06D6E",
"~	c #A67577",
"{	c #B27C7E",
"]	c #AD8C8D",
"^	c #A29797",
"/	c #B8898B",
"(	c #B89A9B",
"_	c #B5A5A5",
":	c #BFB2B3",
"<	c #C4999A",
"[	c #C79FA0",
"}	c #C9A7A9",
"|	c #C9AFB0",
"1	c #CCB5B6",
"2	c #D7B7B9",
"3	c #DBC7C7",
"4	c #DED1D1",
"5	c #E0C7C8",
"6	c #E6DBDB",
"7	c #EDE1E1",
"8	c #F2E8E8",
"                        ",
"                        ",
"                        ",
"                        ",
"        ..+++++         ",
"      .._1351(=+@       ",
"     .^48766645{$#      ",
"     .6886666622)#      ",
"    .^876+666.13/%+     ",
"    .|87+++7.++:}~#     ",
"    +3767+.+.+_3}/@     ",
"    +16674+.+44|}/@     ",
"    @|666..+.+1}(!#     ",
"    +]34+++6++@<{'@     ",
"    +)}23+55|@/<!*@     ",
"     +/<12}2}</'*@      ",
"     +~<[<<<<~~,*@      ",
"      +@!//{!-$@+       ",
"        +@@@##@         ",
"                        ",
"                        ",
"                        ",
"                        ",
"                        "};
