/* XPM */
static char * stop_xpm[] = {
"36 36 7 1",
" 	c None",
".	c #000000",
"+	c #C6D7C3",
"@	c #67925C",
"#	c #608C56",
"$	c #5B8851",
"%	c #36582E",
"                                    ",
"                                    ",
"                                    ",
"                                    ",
"                                    ",
"                                    ",
"                                    ",
"                                    ",
"                                    ",
"                                    ",
"                                    ",
"           ............             ",
"           .++++++++++.             ",
"           .++++++++++.             ",
"           .++++++++++.             ",
"           .++++++++++.             ",
"           .++++++++++.             ",
"           .++++++++++.             ",
"           .@@@@@@@@@@.             ",
"           .@@@@@@@@@@.             ",
"           .@@@@@@@@@@.             ",
"           .##########.             ",
"           .$$$$$$$$$$.             ",
"           .%%%%%%%%%%.             ",
"           ............             ",
"                                    ",
"                                    ",
"                                    ",
"                                    ",
"                                    ",
"                                    ",
"                                    ",
"                                    ",
"                                    ",
"                                    ",
"                                    "};
