/* XPM */
static char * type_net_xpm[] = {
"16 16 154 2",
"  	c None",
". 	c #667AAC",
"+ 	c #8293BC",
"@ 	c #8192BA",
"# 	c #6677A0",
"$ 	c #8C9BC3",
"% 	c #E9EBF5",
"& 	c #F8F8FC",
"* 	c #FDFCFE",
"= 	c #FFFFFF",
"- 	c #FCFCFF",
"; 	c #E7EBF9",
"> 	c #8996B4",
", 	c #99A5CD",
"' 	c #E7E8F2",
") 	c #CED2DD",
"! 	c #C0C6D6",
"~ 	c #CBD1E1",
"{ 	c #E7E9F4",
"] 	c #E8EAF5",
"^ 	c #E7E8F4",
"/ 	c #F0F2FE",
"( 	c #919DC3",
"_ 	c #53659F",
": 	c #B3BBD7",
"< 	c #98A2BB",
"[ 	c #93A0BE",
"} 	c #98A5C5",
"| 	c #C8CEE1",
"1 	c #D5D8E7",
"2 	c #CBCFE0",
"3 	c #D0D4E5",
"4 	c #D7DBEC",
"5 	c #D0D5EF",
"6 	c #47578E",
"7 	c #3E579E",
"8 	c #5F709B",
"9 	c #7084B1",
"0 	c #7588B6",
"a 	c #CBD1E5",
"b 	c #EBEDF6",
"c 	c #E2E6F1",
"d 	c #D9DCEB",
"e 	c #D3D7E9",
"f 	c #CBCFE5",
"g 	c #C0C5E2",
"h 	c #7B89C2",
"i 	c #29396C",
"j 	c #6273AF",
"k 	c #56699E",
"l 	c #4A619B",
"m 	c #49629E",
"n 	c #A2AECE",
"o 	c #E4E7F0",
"p 	c #E9EBF3",
"q 	c #E3E5F2",
"r 	c #D4D8EB",
"s 	c #C0C5DF",
"t 	c #8D97BF",
"u 	c #6F7FBD",
"v 	c #1F2B51",
"w 	c #3B4C83",
"x 	c #98A1D3",
"y 	c #A7AFD6",
"z 	c #7481A9",
"A 	c #1F397C",
"B 	c #234089",
"C 	c #2C4789",
"D 	c #AEB7D0",
"E 	c #EBEDF7",
"F 	c #D4D8EC",
"G 	c #959FC6",
"H 	c #364B86",
"I 	c #4159A0",
"J 	c #152652",
"K 	c #303D69",
"L 	c #919CD1",
"M 	c #AAB1D9",
"N 	c #6B79A3",
"O 	c #072670",
"P 	c #0B2C7C",
"Q 	c #001F73",
"R 	c #7989B5",
"S 	c #EDEDF8",
"T 	c #B4BCDB",
"U 	c #253D7D",
"V 	c #374B87",
"W 	c #4A62AA",
"X 	c #05143D",
"Y 	c #8490C8",
"Z 	c #5A699A",
"` 	c #123079",
" .	c #0A2B7C",
"..	c #0F2F7E",
"+.	c #09297A",
"@.	c #3B5495",
"#.	c #B6BDDB",
"$.	c #485F9C",
"%.	c #09266D",
"&.	c #5D6B9E",
"*.	c #7483BD",
"=.	c #415186",
"-.	c #2F488D",
";.	c #102E7A",
">.	c #1A3885",
",.	c #24418A",
"'.	c #29458D",
").	c #27438B",
"!.	c #28438C",
"~.	c #0F2E7D",
"{.	c #233F89",
"].	c #284694",
"^.	c #172C60",
"/.	c #294183",
"(.	c #39549C",
"_.	c #455D9D",
":.	c #4C62A0",
"<.	c #5065A1",
"[.	c #4D63A0",
"}.	c #455C9C",
"|.	c #41599B",
"1.	c #314E99",
"2.	c #0E2766",
"3.	c #2F3E6D",
"4.	c #6375AE",
"5.	c #7D8DC2",
"6.	c #7A88BC",
"7.	c #7C8BBF",
"8.	c #7385BC",
"9.	c #5065A0",
"0.	c #1F305C",
"a.	c #363D58",
"b.	c #888FB2",
"c.	c #676D8F",
"d.	c #282F49",
"e.	c #C6C6C9",
"f.	c #8A8A8C",
"g.	c #A8A8AF",
"h.	c #C6C6CC",
"i.	c #B9B9C0",
"j.	c #C2C2C6",
"k.	c #DADAD9",
"l.	c #ADADB2",
"m.	c #ABABB1",
"n.	c #CCCCD2",
"o.	c #8A8A91",
"p.	c #373739",
"q.	c #39393C",
"r.	c #626268",
"s.	c #68686C",
"t.	c #6C6C6E",
"u.	c #555559",
"v.	c #313134",
"w.	c #38383A",
"            . + @ #             ",
"        $ % & * = - ; >         ",
"      , ' ) ! ~ { ] ^ / (       ",
"    _ : < [ } | 1 2 3 4 5 6     ",
"    7 8 9 0 a b c d e f g h     ",
"  i j k l m n o p q r s t u v   ",
"  w x y z A B C D E F G H I J   ",
"  K L M N O P Q R S T U V W X   ",
"    Y Z `  ...+.@.#.$.%.&.*.    ",
"    =.-.;.>.,.'.).!.~.{.].^.    ",
"      /.(._.:.<.[.}.|.1.2.      ",
"        3.4.5.6.7.8.9.0.        ",
"            a.b.c.d.            ",
"              e.f.              ",
"      g.h.i.j.k.k.l.m.n.o.      ",
"        p.q.r.s.t.u.v.w.        "};
