/* XPM */
static char * type_card_xpm[] = {
"16 16 174 2",
"  	c #FFFFFF",
". 	c #E7E7E7",
"+ 	c #888888",
"@ 	c #696969",
"# 	c #B1B1B1",
"$ 	c #D4D4D4",
"% 	c #5D5D5D",
"& 	c #AFAFAF",
"* 	c #DCDCDC",
"= 	c #5E5E5E",
"- 	c #ECECEC",
"; 	c #FCFCFC",
"> 	c #D9D9D9",
", 	c #D3D3D3",
"' 	c #D2D2D2",
") 	c #CFCFCF",
"! 	c #7D7D7D",
"~ 	c #B2B6B1",
"{ 	c #72896A",
"] 	c #6D7E60",
"^ 	c #6E7E5F",
"/ 	c #6C7B5C",
"( 	c #6B7A5B",
"_ 	c #606C50",
": 	c #616C4F",
"< 	c #646F53",
"[ 	c #5D684C",
"} 	c #606A4F",
"| 	c #536148",
"1 	c #717370",
"2 	c #989B95",
"3 	c #667B5C",
"4 	c #7F8C7B",
"5 	c #8D978A",
"6 	c #889185",
"7 	c #868F83",
"8 	c #858E81",
"9 	c #677163",
"0 	c #48563D",
"a 	c #727C67",
"b 	c #495642",
"c 	c #697164",
"d 	c #48573E",
"e 	c #686B67",
"f 	c #BFBFBF",
"g 	c #FEFEFE",
"h 	c #969993",
"i 	c #7B8875",
"j 	c #A9AAA8",
"k 	c #B7B7B7",
"l 	c #ADADAD",
"m 	c #A8A8A8",
"n 	c #A2A2A2",
"o 	c #666766",
"p 	c #545D4D",
"q 	c #8A8D72",
"r 	c #52573D",
"s 	c #969276",
"t 	c #3E4933",
"u 	c #6D706C",
"v 	c #9F9F9F",
"w 	c #7E8C78",
"x 	c #929492",
"y 	c #959595",
"z 	c #818181",
"A 	c #7C7C7C",
"B 	c #7F7F7F",
"C 	c #4E4F4E",
"D 	c #495143",
"E 	c #857664",
"F 	c #4D3C2B",
"G 	c #936C5E",
"H 	c #393F2C",
"I 	c #676A66",
"J 	c #9A9A9A",
"K 	c #979B94",
"L 	c #586B50",
"M 	c #4F574C",
"N 	c #535851",
"O 	c #4F544D",
"P 	c #4D514B",
"Q 	c #4B4E49",
"R 	c #393E37",
"S 	c #3B432F",
"T 	c #58634F",
"U 	c #3D4737",
"V 	c #545C4F",
"W 	c #37432F",
"X 	c #61635F",
"Y 	c #A9A9A9",
"Z 	c #FDFDFD",
"` 	c #979C96",
" .	c #6D8462",
"..	c #536045",
"+.	c #484F39",
"@.	c #414833",
"#.	c #3E4531",
"$.	c #424733",
"%.	c #3E4430",
"&.	c #535B3F",
"*.	c #566445",
"=.	c #566243",
"-.	c #59634A",
";.	c #4E5843",
">.	c #696B67",
",.	c #F6F6F6",
"'.	c #979C95",
").	c #81916F",
"!.	c #6C7257",
"~.	c #75795F",
"{.	c #676D55",
"].	c #5E634A",
"^.	c #6B6E53",
"/.	c #566143",
"(.	c #576746",
"_.	c #65734F",
":.	c #69785B",
"<.	c #71736F",
"[.	c #676766",
"}.	c #989796",
"|.	c #7E7E7E",
"1.	c #959A93",
"2.	c #778663",
"3.	c #484834",
"4.	c #53523B",
"5.	c #54553D",
"6.	c #444431",
"7.	c #494733",
"8.	c #576143",
"9.	c #65724E",
"0.	c #62714D",
"a.	c #687859",
"b.	c #5E605C",
"c.	c #4A4A4A",
"d.	c #656565",
"e.	c #8C8C8C",
"f.	c #666666",
"g.	c #AEB1AC",
"h.	c #637A5A",
"i.	c #677352",
"j.	c #5E694A",
"k.	c #5E684A",
"l.	c #5D6748",
"m.	c #5B6647",
"n.	c #626E4C",
"o.	c #677450",
"p.	c #64714D",
"q.	c #445135",
"r.	c #293121",
"s.	c #161B12",
"t.	c #5C5C5C",
"u.	c #DEDEDE",
"v.	c #F8F8F8",
"w.	c #757B73",
"x.	c #A2A175",
"y.	c #9C9A70",
"z.	c #9C9A6F",
"A.	c #9B996E",
"B.	c #9A986D",
"C.	c #98956B",
"D.	c #323A2D",
"E.	c #AAAAAA",
"F.	c #979797",
"G.	c #AFB1AE",
"H.	c #6F6E59",
"I.	c #6C6B56",
"J.	c #6C6A55",
"K.	c #6B6A55",
"L.	c #6A6954",
"M.	c #5B5F58",
"N.	c #EEEEEE",
"O.	c #D7D7D7",
"P.	c #5F5F5F",
"Q.	c #EDEDED",
"                        . + @ # ",
"                        $ % & * ",
"                        $ = -   ",
"; > $ $ $ $ $ , ' $ $ $ ) ! -   ",
"~ { ] ^ / / ( _ : < [ } | 1 -   ",
"2 3 4 5 6 7 8 9 0 a b c d e f g ",
"h i j k l m n o p q r s t u v ; ",
"h w x y z A B C D E F G H I J ; ",
"K L M N O P Q R S T U V W X Y Z ",
"`  ...+.@.#.$.%.&.*.=.-.;.>.f ,.",
"'.).!.~.{.].^./.(._.:.<.% [.}.|.",
"1.2.3.4.5.6.7.8.9.0.a.b.c.d.e.f.",
"g.h.i.j.k.l.m.n.o.p.q.r.s.t.& u.",
"v.w.x.y.z.A.B.B.B.C.D.E.F.= -   ",
"  G.H.I.I.I.J.K.K.L.M.N.O.P.Q.  ",
"                                "};
