/* XPM */
static char * type_directory_xpm[] = {
"32 32 4 1",
" 	c None",
".	c #000000",
"+	c #FFFF00",
"@	c #808000",
"                                ",
"                                ",
"                                ",
"                                ",
"  ..........                    ",
"  ..........                    ",
"  ..++++++................      ",
"  ..++++++................      ",
"  ..++++++++++++++++++++..      ",
"  ..++++++++++++++++++++..      ",
"  ..++++++++++++++++++++..      ",
"  ..++++++++++++++++++++..      ",
"  ..++++......................  ",
"  ..++++......................  ",
"  ..+++.@@@@@@@@@@@@@@@@@@@@..  ",
"  ..+++.@@@@@@@@@@@@@@@@@@@@..  ",
"  ..++..@@@@@@@@@@@@@@@@@@@@.   ",
"  ..++..@@@@@@@@@@@@@@@@@@@@.   ",
"  ..+.@@@@@@@@@@@@@@@@@@@@..    ",
"  ..+.@@@@@@@@@@@@@@@@@@@@..    ",
"  ....@@@@@@@@@@@@@@@@@@@@.     ",
"  ....@@@@@@@@@@@@@@@@@@@@.     ",
"  ..@@@@@@@@@@@@@@@@@@@@..      ",
"  ..@@@@@@@@@@@@@@@@@@@@..      ",
"  ......................        ",
"  ......................        ",
"                                ",
"                                ",
"                                ",
"                                ",
"                                ",
"                                "};
