/* XPM */
static char * type_disc_xpm[] = {
"16 16 144 2",
"  	c None",
". 	c #FFFFFF",
"+ 	c #BEB2CA",
"@ 	c #B8A7C8",
"# 	c #AF99C3",
"$ 	c #B19CC5",
"% 	c #BEAECD",
"& 	c #C7BCD1",
"* 	c #C9C1D3",
"= 	c #BDADCF",
"- 	c #D6C9E2",
"; 	c #D9CDE5",
"> 	c #D5C7E2",
", 	c #E1D4EC",
"' 	c #ECE3F4",
") 	c #F4F0F8",
"! 	c #CFC3DA",
"~ 	c #CEC7D4",
"{ 	c #C8BED2",
"] 	c #CDBFDB",
"^ 	c #DED4E8",
"/ 	c #DCD1E7",
"( 	c #DACEE5",
"_ 	c #E4D7EE",
": 	c #F4EEF8",
"< 	c #FAF9FC",
"[ 	c #F9F8FB",
"} 	c #E2DAE9",
"| 	c #C7C0CF",
"1 	c #E5E2E9",
"2 	c #D2C5DE",
"3 	c #E1D8EB",
"4 	c #DFD5E9",
"5 	c #D5C8E2",
"6 	c #E8DDF1",
"7 	c #F8F6FB",
"8 	c #F9F8FC",
"9 	c #D9CEE3",
"0 	c #C8C2CF",
"a 	c #C8BBD6",
"b 	c #E3D9EB",
"c 	c #E2D9EB",
"d 	c #D6C9E3",
"e 	c #EFE6F5",
"f 	c #F9F6FB",
"g 	c #F0E9F6",
"h 	c #E5D8EF",
"i 	c #AE9CBF",
"j 	c #D9D4DE",
"k 	c #D7CCE3",
"l 	c #E4DCED",
"m 	c #D4C6E1",
"n 	c #C7B6D8",
"o 	c #D3C5E0",
"p 	c #F0EBF5",
"q 	c #F5F0F9",
"r 	c #EBE0F3",
"s 	c #E0D2EB",
"t 	c #D4C5E2",
"u 	c #AE98C4",
"v 	c #C7C2CC",
"w 	c #C8BDD3",
"x 	c #E3DAEC",
"y 	c #D8CCE4",
"z 	c #C6B6D7",
"A 	c #CFC0DE",
"B 	c #CFC1DE",
"C 	c #CBBCDB",
"D 	c #DACCE7",
"E 	c #D0C1E0",
"F 	c #C9B9DA",
"G 	c #C5B3D6",
"H 	c #BDAACF",
"I 	c #ADA2B8",
"J 	c #C9BED5",
"K 	c #D2C5E0",
"L 	c #CBBBDA",
"M 	c #CCC7D1",
"N 	c #C9B8D8",
"O 	c #C8B7D8",
"P 	c #CABADA",
"Q 	c #C7B7D8",
"R 	c #BEABD1",
"S 	c #A697B3",
"T 	c #C8BCD4",
"U 	c #E3DBEC",
"V 	c #BDB0CA",
"W 	c #CEC0DD",
"X 	c #A495B1",
"Y 	c #C7BDD2",
"Z 	c #E2DAEB",
"` 	c #E5DCED",
" .	c #E5DDED",
"..	c #E8E1EF",
"+.	c #D1C4DF",
"@.	c #CCBCDB",
"#.	c #B9A6CD",
"$.	c #ABA0B5",
"%.	c #D6D2DB",
"&.	c #D6CBE2",
"*.	c #EAE4F1",
"=.	c #F2EEF6",
"-.	c #F4F1F8",
";.	c #C8B8D8",
">.	c #CABBDA",
",.	c #CEBFDD",
"'.	c #CDBDDC",
").	c #A28BB9",
"!.	c #C9C6CC",
"~.	c #C5B8D2",
"{.	c #F6F4F9",
"].	c #D2C4E0",
"^.	c #A190B1",
"/.	c #D8D4DC",
"(.	c #D9D0E3",
"_.	c #F9F7FB",
":.	c #F5F2F9",
"<.	c #C4B3D6",
"[.	c #A590B9",
"}.	c #CAC8CD",
"|.	c #D6D1DB",
"1.	c #DED6E7",
"2.	c #F8F6FA",
"3.	c #FAF8FC",
"4.	c #EFEAF4",
"5.	c #C5B4D6",
"6.	c #A490B8",
"7.	c #BFBAC5",
"8.	c #D7D3DB",
"9.	c #C9BED4",
"0.	c #E7E0EF",
"a.	c #D3C5E1",
"b.	c #D0C2DE",
"c.	c #B39EC6",
"d.	c #A392B4",
"e.	c #D4D0D8",
"f.	c #C0B5CB",
"g.	c #AD9CBE",
"h.	c #A593B6",
"i.	c #AFA3BA",
"j.	c #CCC9CF",
"k.	c #E1E2E1",
"l.	c #FDFDFD",
"m.	c #FBFBFB",
". . . . . + @ # $ % & . . . . . ",
". . . * = - ; > , ' ) ! ~ . . . ",
". . { ] ^ / ( > _ : < [ } | . . ",
". 1 2 3 4 / ( 5 6 7 < < 8 9 0 . ",
". a b c 4 / ( d e < < f g h i . ",
"j k l c 4 / m n o p q r s t u v ",
"w x l c 4 y z A B C D E F G H I ",
"J l l c 4 K L M N O F P Q G R S ",
"T U l c 4 5 P V W n P P Q G R X ",
"Y Z ` U  ...+.+.P n @.P Q G #.$.",
"%.&...*.=.[ -.;.>.,.'.P Q G ).!.",
". ~.*.{.< < [ > ].A '.P Q R ^.. ",
". /.(._.< < :.> ].A '.P <.[.}.. ",
". . |.1.2.3.4.> ].A '.5.6.7.. . ",
". . . 8.9.Z 0.a.b.C c.d.!.. . . ",
". . . . . e.f.g.h.i.j.k.l.l.l.m."};
