/* XPM */
static char * type_disc_xpm[] = {
"17 16 154 2",
"  	c #FFFFFF",
". 	c #BEB2CA",
"+ 	c #B8A7C8",
"@ 	c #B8A6CA",
"# 	c #AF99C3",
"$ 	c #B19CC5",
"% 	c #BEAECD",
"& 	c #C7BCD1",
"* 	c #C9C1D3",
"= 	c #BDADCF",
"- 	c #D6C9E2",
"; 	c #D9CDE5",
"> 	c #D7CBE3",
", 	c #D5C7E2",
"' 	c #E1D4EC",
") 	c #ECE3F4",
"! 	c #F4F0F8",
"~ 	c #CFC3DA",
"{ 	c #CEC7D4",
"] 	c #C8BED2",
"^ 	c #CDBFDB",
"/ 	c #DED4E8",
"( 	c #DCD1E7",
"_ 	c #DACEE5",
": 	c #E4D7EE",
"< 	c #F4EEF8",
"[ 	c #FAF9FC",
"} 	c #F9F8FB",
"| 	c #E2DAE9",
"1 	c #C7C0CF",
"2 	c #E5E2E9",
"3 	c #D2C5DE",
"4 	c #E1D8EB",
"5 	c #DFD5E9",
"6 	c #D5C8E2",
"7 	c #E8DDF1",
"8 	c #F8F6FB",
"9 	c #F9F8FC",
"0 	c #D9CEE3",
"a 	c #C8C2CF",
"b 	c #C8BBD6",
"c 	c #E3D9EB",
"d 	c #E2D9EB",
"e 	c #D7CAE3",
"f 	c #D6C9E3",
"g 	c #EFE6F5",
"h 	c #F9F6FB",
"i 	c #F0E9F6",
"j 	c #E5D8EF",
"k 	c #AE9CBF",
"l 	c #D9D4DE",
"m 	c #D7CCE3",
"n 	c #E4DCED",
"o 	c #D4C6E1",
"p 	c #C8B7D8",
"q 	c #C7B6D8",
"r 	c #D3C5E0",
"s 	c #F0EBF5",
"t 	c #F5F0F9",
"u 	c #EBE0F3",
"v 	c #E0D2EB",
"w 	c #D4C5E2",
"x 	c #AE98C4",
"y 	c #C7C2CC",
"z 	c #C8BDD3",
"A 	c #E3DAEC",
"B 	c #D8CCE4",
"C 	c #C6B6D7",
"D 	c #D2C4DF",
"E 	c #CFC0DE",
"F 	c #CFC1DE",
"G 	c #CBBCDB",
"H 	c #DACCE7",
"I 	c #D0C1E0",
"J 	c #C9B9DA",
"K 	c #C5B3D6",
"L 	c #BDAACF",
"M 	c #ADA2B8",
"N 	c #C9BED5",
"O 	c #D2C5E0",
"P 	c #CBBBDA",
"Q 	c #BCABCC",
"R 	c #CCC7D1",
"S 	c #C9B8D8",
"T 	c #CABADA",
"U 	c #C7B7D8",
"V 	c #BEABD1",
"W 	c #A697B3",
"X 	c #C8BCD4",
"Y 	c #E3DBEC",
"Z 	c #CCBDD9",
"` 	c #BDB0CA",
" .	c #CEC0DD",
"..	c #A495B1",
"+.	c #C7BDD2",
"@.	c #E2DAEB",
"#.	c #E5DCED",
"$.	c #E5DDED",
"%.	c #E8E1EF",
"&.	c #D1C4DF",
"*.	c #CCBDDB",
"=.	c #CCBCDB",
"-.	c #B9A6CD",
";.	c #ABA0B5",
">.	c #D6D2DB",
",.	c #D6CBE2",
"'.	c #EAE4F1",
").	c #F2EEF6",
"!.	c #F4F1F8",
"~.	c #DBD0E6",
"{.	c #C8B8D8",
"].	c #CABBDA",
"^.	c #CEBFDD",
"/.	c #CDBDDC",
"(.	c #A28BB9",
"_.	c #C9C6CC",
":.	c #C5B8D2",
"<.	c #F6F4F9",
"[.	c #E8E1F0",
"}.	c #D2C4E0",
"|.	c #A190B1",
"1.	c #D8D4DC",
"2.	c #D9D0E3",
"3.	c #F9F7FB",
"4.	c #F5F2F9",
"5.	c #C4B3D6",
"6.	c #A590B9",
"7.	c #CAC8CD",
"8.	c #D6D1DB",
"9.	c #DED6E7",
"0.	c #F8F6FA",
"a.	c #FAF8FC",
"b.	c #EFEAF4",
"c.	c #E0D6EA",
"d.	c #C5B4D6",
"e.	c #A490B8",
"f.	c #BFBAC5",
"g.	c #D7D3DB",
"h.	c #C9BED4",
"i.	c #E7E0EF",
"j.	c #DCD2E7",
"k.	c #D3C5E1",
"l.	c #D0C2DE",
"m.	c #B39EC6",
"n.	c #A392B4",
"o.	c #D4D0D8",
"p.	c #C0B5CB",
"q.	c #BCAFC9",
"r.	c #AD9CBE",
"s.	c #A593B6",
"t.	c #AFA3BA",
"u.	c #CCC9CF",
"v.	c #E1E2E1",
"w.	c #E6E7E6",
"          . + @ # $ % &           ",
"      * = - ; > , ' ) ! ~ {       ",
"    ] ^ / ( _ > , : < [ } | 1     ",
"  2 3 4 5 ( _ > 6 7 8 [ [ 9 0 a   ",
"  b c d 5 ( _ e f g [ [ h i j k   ",
"l m n d 5 ( o p q r s t u v w x y ",
"z A n d 5 B C D E F G H I J K L M ",
"N n n d 5 O P Q R S p J T U K V W ",
"X Y n d 5 6 T Z `  .q T T U K V ..",
"+.@.#.Y $.%.&.*.&.T q =.T U K -.;.",
">.,.%.'.).} !.~.{.].^./.T U K (._.",
"  :.'.<.[ [ } [., }.E /.T U V |.  ",
"  1.2.3.[ [ 4.A , }.E /.T 5.6.7.  ",
"    8.9.0.a.b.c., }.E /.d.e.f.    ",
"      g.h.@.i.j.k.l.G m.n._.      ",
"          o.p.q.r.s.t.u.v.w.w.w.w."};
