/* XPM */
static char * type_directory_xpm[] = {
"16 16 4 1",
" 	c None",
".	c #000000",
"+	c #FFFF00",
"@	c #808000",
"                ",
"                ",
" .....          ",
" .+++........   ",
" .++++++++++.   ",
" .++++++++++.   ",
" .++........... ",
" .+@@@@@@@@@@@. ",
" .+.@@@@@@@@@@. ",
" .@@@@@@@@@@@.  ",
" ..@@@@@@@@@@.  ",
" .@@@@@@@@@@.   ",
" ...........    ",
"                ",
"                ",
"                "};
