/* XPM */
static char * type_net_xpm[] = {
"16 16 209 2",
"  	c #E6E7E6",
". 	c #E3E4E5",
"+ 	c #DCDAE2",
"@ 	c #D2CCDE",
"# 	c #D0C8E2",
"$ 	c #D2CAE6",
"% 	c #D4CDE6",
"& 	c #C8C2D8",
"* 	c #E5E6E5",
"= 	c #E5E5E6",
"- 	c #DDDAE5",
"; 	c #D7D1E9",
"> 	c #D2CBED",
", 	c #D2CBEF",
"' 	c #D6D2F1",
") 	c #C4CBED",
"! 	c #93A8ED",
"~ 	c #6578DD",
"{ 	c #5A69D3",
"] 	c #CAC4DA",
"^ 	c #DCDDDC",
"/ 	c #DFDDE5",
"( 	c #D5CEF8",
"_ 	c #BABCEB",
": 	c #8AACEE",
"< 	c #4686EA",
"[ 	c #0B5AF9",
"} 	c #0041EF",
"| 	c #002FDB",
"1 	c #0022C9",
"2 	c #0B1CB8",
"3 	c #B5B0D9",
"4 	c #D6D7D6",
"5 	c #CEC6F5",
"6 	c #93A8E4",
"7 	c #3987FD",
"8 	c #0865FD",
"9 	c #004EFC",
"0 	c #003EEC",
"a 	c #0030D9",
"b 	c #0020C8",
"c 	c #0615AF",
"d 	c #9C9BD6",
"e 	c #CFCFD0",
"f 	c #E3E2E5",
"g 	c #CFC8EC",
"h 	c #8EAAE4",
"i 	c #156EFD",
"j 	c #0157FE",
"k 	c #0049F7",
"l 	c #003DE7",
"m 	c #002CD5",
"n 	c #001ABF",
"o 	c #0209A3",
"p 	c #8A8DD1",
"q 	c #C5C2CB",
"r 	c #CEC7E6",
"s 	c #9DA8F2",
"t 	c #0C5DF9",
"u 	c #004EFA",
"v 	c #0042EC",
"w 	c #0034DE",
"x 	c #001EC8",
"y 	c #000CB1",
"z 	c #00049C",
"A 	c #7B82BA",
"B 	c #BFBBC9",
"C 	c #D3CDE1",
"D 	c #B9BAE3",
"E 	c #1F5CE8",
"F 	c #002EDE",
"G 	c #001DCB",
"H 	c #0010B9",
"I 	c #0008A8",
"J 	c #020096",
"K 	c #5852AF",
"L 	c #C3BFCD",
"M 	c #DFE4E9",
"N 	c #BECDEE",
"O 	c #A7B9F3",
"P 	c #9DB1F1",
"Q 	c #ABB3E4",
"R 	c #C0B6EB",
"S 	c #355EE2",
"T 	c #0030DC",
"U 	c #001FCB",
"V 	c #0013BD",
"W 	c #000BAC",
"X 	c #00029D",
"Y 	c #070885",
"Z 	c #3A7162",
"` 	c #C9C4D2",
" .	c #E1E5EA",
"..	c #A8C1FA",
"+.	c #CCE4FD",
"@.	c #DBEEFD",
"#.	c #AAC9FD",
"$.	c #7797FC",
"%.	c #7885EC",
"&.	c #5F78BC",
"*.	c #0020CA",
"=.	c #0015BC",
"-.	c #000AB2",
";.	c #0101A3",
">.	c #0D0E97",
",.	c #6472A6",
"'.	c #CAD9D4",
").	c #B6B1C3",
"!.	c #99AFF3",
"~.	c #BFD3FD",
"{.	c #E2EDFD",
"].	c #CEE4FD",
"^.	c #A5C2FD",
"/.	c #7090FD",
"(.	c #4963F4",
"_.	c #5561C5",
":.	c #0011B7",
"<.	c #0008AF",
"[.	c #2124A9",
"}.	c #7C85C1",
"|.	c #C4C8DA",
"1.	c #BCB4CF",
"2.	c #B0ABBA",
"3.	c #D0D1D0",
"4.	c #657FF1",
"5.	c #B4CFFD",
"6.	c #C7DAFD",
"7.	c #96B5FD",
"8.	c #7D9EFD",
"9.	c #5B7CFD",
"0.	c #3445E8",
"a.	c #575BCD",
"b.	c #5762AD",
"c.	c #9393D3",
"d.	c #C4BEE7",
"e.	c #ADA0D3",
"f.	c #AEA7C1",
"g.	c #CECED1",
"h.	c #3D48E4",
"i.	c #4E6BF0",
"j.	c #BBD0FC",
"k.	c #BDD2FD",
"l.	c #5D7CFB",
"m.	c #4E66F0",
"n.	c #2729D9",
"o.	c #5F64D0",
"p.	c #B2A9D6",
"q.	c #D4CDEE",
"r.	c #D8D3FB",
"s.	c #A596D4",
"t.	c #B2AAE6",
"u.	c #B8AEEC",
"v.	c #C5BDE8",
"w.	c #D9D7E0",
"x.	c #4C4FDA",
"y.	c #6A74EA",
"z.	c #C0D3FB",
"A.	c #CFDFFC",
"B.	c #6872E8",
"C.	c #7681EC",
"D.	c #3130DA",
"E.	c #9397D2",
"F.	c #BAB0D4",
"G.	c #DBD5F1",
"H.	c #B3A6DC",
"I.	c #A294D1",
"J.	c #BAB1ED",
"K.	c #B7ACED",
"L.	c #9D8FCA",
"M.	c #B5B2BF",
"N.	c #B3BAE2",
"O.	c #8D99F1",
"P.	c #D5E4FD",
"Q.	c #EEF3FD",
"R.	c #DEEAFD",
"S.	c #B6C9FA",
"T.	c #8E9FE6",
"U.	c #C7C8D6",
"V.	c #E3E0F4",
"W.	c #C4BAE3",
"X.	c #D1CAF4",
"Y.	c #BDB2EA",
"Z.	c #A294C9",
"`.	c #A6A0B6",
" +	c #CDCECD",
".+	c #E2E3E2",
"++	c #E4E5E4",
"@+	c #AFB9D9",
"#+	c #727DE0",
"$+	c #6769E4",
"%+	c #7982E8",
"&+	c #8D9BCE",
"*+	c #A2A0BA",
"=+	c #ECEDF0",
"-+	c #EFEFFD",
";+	c #CBC4E9",
">+	c #A79CC5",
",+	c #ACA7B9",
"'+	c #CECFCE",
")+	c #E3E4E3",
"!+	c #CCCDCC",
"~+	c #B1B2B1",
"{+	c #AEAEAE",
"]+	c #B9BAB9",
"^+	c #C9C6D0",
"/+	c #C2B8DA",
"(+	c #ADA3C6",
"_+	c #B4B1BD",
":+	c #D3D4D3",
"                . + @ # $ % & * ",
"        = - ; > , ' ) ! ~ { ] ^ ",
"        / ( _ : < [ } | 1 2 3 4 ",
"        / 5 6 7 8 9 0 a b c d e ",
"        f g h i j k l m n o p q ",
"          r s t u v w x y z A B ",
"          C D E v F G H I J K L ",
"  M N O P Q R S T U V W X Y Z ` ",
" ...+.@.#.$.%.&.*.=.-.;.>.,.'.).",
"!.~.{.].^./.(._.:.<.[.}.|.1.2.3.",
"4.5.6.7.8.9.0.a.b.c.d.e.f.g.*   ",
"h.i.j.k.l.m.n.o.p.q.r.s.t.u.v.w.",
"x.y.z.A.B.C.D.E.F.G.H.I.J.K.L.M.",
"N.O.P.Q.R.S.T.U.V.W.X.Y.Z.`. +.+",
"++@+#+$+%+&+*+=+-+;+>+,+'+.+    ",
"  )+!+~+{+]+^+/+(+_+:+++        "};
