/* XPM */
static char * type_playlist_xpm[] = {
"16 16 126 2",
"  	c None",
". 	c #959695",
"+ 	c #000000",
"@ 	c #0E0E0E",
"# 	c #282828",
"$ 	c #696969",
"% 	c #DADBDA",
"& 	c #E4E5E4",
"* 	c #E6E7E6",
"= 	c #D3D3D3",
"- 	c #FFFFFF",
"; 	c #F9F9F9",
"> 	c #F9F9F8",
", 	c #E7E7E7",
"' 	c #E4E4E4",
") 	c #CDCDCD",
"! 	c #252525",
"~ 	c #C8C9C8",
"{ 	c #E3E4E3",
"] 	c #F6F6F6",
"^ 	c #DADADA",
"/ 	c #9F9F9F",
"( 	c #FEFEFE",
"_ 	c #FCFCFB",
": 	c #FBFBFB",
"< 	c #F2F2F2",
"[ 	c #AFAFAE",
"} 	c #E9E9E9",
"| 	c #B3B3B3",
"1 	c #383838",
"2 	c #CECFCE",
"3 	c #9E9E9E",
"4 	c #FDFDFD",
"5 	c #FAFAF9",
"6 	c #F3F3F3",
"7 	c #A9A9A8",
"8 	c #F0F0F0",
"9 	c #F4F4F4",
"0 	c #ABABAB",
"a 	c #414141",
"b 	c #9D9D9C",
"c 	c #9A9A9A",
"d 	c #9A9A99",
"e 	c #9B9B9A",
"f 	c #9D9C9C",
"g 	c #0A0A0A",
"h 	c #9B9B9B",
"i 	c #F8F8F7",
"j 	c #F7F6F5",
"k 	c #F6F6F4",
"l 	c #F4F3F2",
"m 	c #F1F0EF",
"n 	c #F0EFED",
"o 	c #E5E4E2",
"p 	c #848381",
"q 	c #6A6763",
"r 	c #F8F7F6",
"s 	c #989897",
"t 	c #989796",
"u 	c #EBEAE8",
"v 	c #E1DFDC",
"w 	c #B6B6B4",
"x 	c #72706C",
"y 	c #B1B0AF",
"z 	c #818180",
"A 	c #AFAFAD",
"B 	c #EFEFED",
"C 	c #EFEEEC",
"D 	c #ECEBE9",
"E 	c #E8E7E5",
"F 	c #A4A4A1",
"G 	c #C4C3C0",
"H 	c #817D74",
"I 	c #7F7F7E",
"J 	c #7F7E7D",
"K 	c #EEEDEB",
"L 	c #EDECEA",
"M 	c #E8E7E4",
"N 	c #E7E6E3",
"O 	c #8B867D",
"P 	c #7D7D7C",
"Q 	c #ACABA9",
"R 	c #91908E",
"S 	c #8E8E8C",
"T 	c #E6E4E1",
"U 	c #A2A19F",
"V 	c #646462",
"W 	c #A49E93",
"X 	c #7C7B7A",
"Y 	c #7B7B7A",
"Z 	c #E7E5E2",
"` 	c #E4E3DF",
" .	c #E3E2DE",
"..	c #DEDDD9",
"+.	c #DDDCD8",
"@.	c #E0DFDB",
"#.	c #A19C90",
"$.	c #E6E5E2",
"%.	c #E5E4E1",
"&.	c #8E8E8B",
"*.	c #747371",
"=.	c #0B0B0B",
"-.	c #DCDBD7",
";.	c #DBD9D5",
">.	c #A19B90",
",.	c #E3E2DF",
"'.	c #E4E2DF",
").	c #DCDAD6",
"!.	c #D9D7D3",
"~.	c #E1E0DC",
"{.	c #E2E1DD",
"].	c #71716F",
"^.	c #0B0B0A",
"/.	c #706F6D",
"(.	c #D8D6D1",
"_.	c #9F998D",
":.	c #999891",
"<.	c #A39D92",
"[.	c #A39D91",
"}.	c #A29C90",
"|.	c #A19B8F",
"1.	c #9D978C",
"2.	c #9B968A",
"3.	c #676359",
"4.	c #919191",
"5.	c #757575",
". + + + + + + + + + @ # $ % & * ",
"+ = - - - - - ; > > , ' ) ! ~ { ",
"+ ] ^ / - ( _ : > < [ } - | 1 2 ",
"+ - / 3 4 _ 5 > > 6 7 8 - 9 0 a ",
"+ - 4 b : 5 c d e f } + + + + g ",
"+ - : h > i j k l m n n o p q + ",
"+ - > i r j s t t t l u v w x + ",
"+ - y z A B n C D E + + F G H + ",
"+ - I B J K L D M N + + + v O + ",
"+ - L P Q D R R S T + U V v W + ",
"+ - X X Y M N Z `  .+ ..+.@.#.+ ",
"+ - $.$.$.%.&.*.=.=.+ -.;.+.>.+ ",
"+ - ,. .'.`  .+ + + + ).!.-.>.+ ",
"+ - v ~.@.{.~.].=.^./.!.(.!._.+ ",
"+ :.W <.[.<.}.|.>._._.1.1.2.3.+ ",
"4.+ + + + + + + + + + + + + + 5."};
