<?xml version="1.0" encoding="UTF-8" standalone="no"?>
<!-- Created with Inkscape (http://www.inkscape.org/) -->

<svg
   xmlns:dc="http://purl.org/dc/elements/1.1/"
   xmlns:cc="http://creativecommons.org/ns#"
   xmlns:rdf="http://www.w3.org/1999/02/22-rdf-syntax-ns#"
   xmlns:svg="http://www.w3.org/2000/svg"
   xmlns="http://www.w3.org/2000/svg"
   xmlns:sodipodi="http://sodipodi.sourceforge.net/DTD/sodipodi-0.dtd"
   xmlns:inkscape="http://www.inkscape.org/namespaces/inkscape"
   width="12.7mm"
   height="12.7mm"
   viewBox="0 0 12.7 12.7"
   version="1.1"
   id="svg5502"
   inkscape:version="0.92.1 r15371"
   sodipodi:docname="library.svg">
  <defs
     id="defs5496" />
  <sodipodi:namedview
     id="base"
     pagecolor="#ffffff"
     bordercolor="#666666"
     borderopacity="1.0"
     inkscape:pageopacity="0.0"
     inkscape:pageshadow="2"
     inkscape:zoom="14.481547"
     inkscape:cx="10.747005"
     inkscape:cy="23.309147"
     inkscape:document-units="mm"
     inkscape:current-layer="layer1"
     showgrid="true"
     fit-margin-top="0"
     fit-margin-left="0"
     fit-margin-right="0"
     fit-margin-bottom="0"
     inkscape:window-width="1920"
     inkscape:window-height="1027"
     inkscape:window-x="0"
     inkscape:window-y="27"
     inkscape:window-maximized="1">
    <inkscape:grid
       type="xygrid"
       id="grid6077" />
  </sodipodi:namedview>
  <metadata
     id="metadata5499">
    <rdf:RDF>
      <cc:Work
         rdf:about="">
        <dc:format>image/svg+xml</dc:format>
        <dc:type
           rdf:resource="http://purl.org/dc/dcmitype/StillImage" />
        <dc:title></dc:title>
      </cc:Work>
    </rdf:RDF>
  </metadata>
  <g
     inkscape:label="Layer 1"
     inkscape:groupmode="layer"
     id="layer1"
     transform="translate(-96.459526,-120.56071)">
    <path
       style="color:#000000;display:inline;overflow:visible;visibility:visible;opacity:1;fill:#ff950d;fill-opacity:1;fill-rule:evenodd;stroke:none;stroke-width:1.05833328;stroke-linecap:butt;stroke-linejoin:round;stroke-miterlimit:4;stroke-dasharray:none;stroke-dashoffset:4.19999981;stroke-opacity:1;marker:none;enable-background:accumulate"
       d="m 102.54494,121.61905 a 3.96875,1.0583333 0 0 0 -3.968747,1.05834 v 1.5875 a 3.96875,1.0583333 0 0 0 3.968747,1.05833 3.96875,1.0583333 0 0 0 3.96875,-1.05833 v -1.5875 a 3.96875,1.0583333 0 0 0 -3.96875,-1.05834 z m -3.968747,3.70417 v 1.5875 a 3.96875,1.0583333 0 0 0 2.116667,0.93534 v -1.5875 a 3.96875,1.0583333 0 0 1 -2.116667,-0.93534 z m 0,2.64583 v 1.5875 a 3.96875,1.0583333 0 0 0 2.116667,0.93535 v -1.5875 a 3.96875,1.0583333 0 0 1 -2.116667,-0.93535 z"
       id="path11233"
       inkscape:connector-curvature="0" />
    <path
       style="color:#000000;display:inline;overflow:visible;visibility:visible;opacity:1;fill:#747474;fill-opacity:1;fill-rule:evenodd;stroke:none;stroke-width:1.05833328;stroke-linecap:butt;stroke-linejoin:round;stroke-miterlimit:4;stroke-dasharray:none;stroke-dashoffset:4.19999981;stroke-opacity:1;marker:none;enable-background:accumulate"
       d="m 101.48661,125.85239 v 6.35 h 0.79375 v -0.92605 h 1.05833 v 0.92605 h 3.70417 v -6.35 h -3.70417 v 0.92604 h -1.05833 v -0.92604 z m 3.43958,0.52916 h 1.5875 v 0.79375 h -0.79375 v 3.57188 a 0.92604167,0.92604167 0 0 1 -0.92604,0.92604 0.92604167,0.92604167 0 0 1 -0.92604,-0.92604 0.92604167,0.92604167 0 0 1 0.92604,-0.92604 0.92604167,0.92604167 0 0 1 0.13229,0.0108 v -2.65668 z m -2.64583,1.19063 h 1.05833 v 1.05833 h -1.05833 z m 0,1.85208 h 1.05833 v 1.05833 h -1.05833 z"
       id="rect11214"
       inkscape:connector-curvature="0" />
  </g>
</svg>
