<?xml version="1.0" encoding="UTF-8" standalone="no"?>
<!-- Created with Inkscape (http://www.inkscape.org/) -->

<svg
   xmlns:dc="http://purl.org/dc/elements/1.1/"
   xmlns:cc="http://creativecommons.org/ns#"
   xmlns:rdf="http://www.w3.org/1999/02/22-rdf-syntax-ns#"
   xmlns:svg="http://www.w3.org/2000/svg"
   xmlns="http://www.w3.org/2000/svg"
   xmlns:sodipodi="http://sodipodi.sourceforge.net/DTD/sodipodi-0.dtd"
   xmlns:inkscape="http://www.inkscape.org/namespaces/inkscape"
   width="12.7mm"
   height="12.7mm"
   viewBox="0 0 12.7 12.7"
   version="1.1"
   id="svg5502"
   inkscape:version="0.92.1 r15371"
   sodipodi:docname="network.svg">
  <defs
     id="defs5496" />
  <sodipodi:namedview
     id="base"
     pagecolor="#ffffff"
     bordercolor="#666666"
     borderopacity="1.0"
     inkscape:pageopacity="0.0"
     inkscape:pageshadow="2"
     inkscape:zoom="16"
     inkscape:cx="9.6726276"
     inkscape:cy="32.234401"
     inkscape:document-units="mm"
     inkscape:current-layer="layer1"
     showgrid="true"
     fit-margin-top="0"
     fit-margin-left="0"
     fit-margin-right="0"
     fit-margin-bottom="0"
     inkscape:window-width="1920"
     inkscape:window-height="1027"
     inkscape:window-x="0"
     inkscape:window-y="27"
     inkscape:window-maximized="1">
    <inkscape:grid
       type="xygrid"
       id="grid6077" />
  </sodipodi:namedview>
  <metadata
     id="metadata5499">
    <rdf:RDF>
      <cc:Work
         rdf:about="">
        <dc:format>image/svg+xml</dc:format>
        <dc:type
           rdf:resource="http://purl.org/dc/dcmitype/StillImage" />
        <dc:title></dc:title>
      </cc:Work>
    </rdf:RDF>
  </metadata>
  <g
     inkscape:label="Layer 1"
     inkscape:groupmode="layer"
     id="layer1"
     transform="translate(-96.459526,-120.56071)">
    <path
       inkscape:connector-curvature="0"
       id="path5434"
       d="m 102.80953,121.62124 a 5.2916648,5.2916656 0 0 0 -1.52207,0.22825 l 0.37792,0.62986 0.57207,0.14301 0.28605,-0.71508 0.54603,-0.27303 a 5.2916648,5.2916656 0 0 0 -0.26,-0.013 z m 1.07558,0.11169 0.49762,0.74642 0.45297,-0.45298 a 5.2916648,5.2916656 0 0 0 -0.95059,-0.29344 z m -3.78697,0.64246 a 5.2916648,5.2916656 0 0 0 -2.479855,3.51965 l 0.757682,-0.12628 0.286043,0.57207 h 0.28603 l -0.14301,-0.42905 0.57206,-0.42905 -0.28603,-0.28604 0.42905,-0.28604 h 0.28603 v -0.57207 l 1.43019,-0.57207 z m 5.57174,0.39 -0.28603,0.28604 0.42905,0.42905 -0.14302,0.28603 h 0.42905 v -0.42905 z m -0.42905,0.42905 -0.28603,0.42906 0.28603,0.28603 0.14302,-0.42905 z m 1.5732,0.28604 -0.42905,0.42905 h -0.28605 l -0.28603,0.14302 -0.14302,0.14302 0.14302,0.14301 v 0.28603 h -0.71508 l 0.42905,0.85812 0.71509,-0.71509 h 0.28604 l 0.28603,-0.14303 0.14302,0.14303 0.28603,0.28603 0.14302,0.28604 0.28604,-0.28604 -0.14302,-0.14302 -0.14302,-0.28604 -0.14302,-0.28603 h 0.18258 a 5.2916648,5.2916656 0 0 0 -0.55128,-0.80638 z m 0.14302,1.57319 v 0.28604 h 0.28603 l -0.14302,-0.28604 z m -1.00113,0.28604 -1.43018,1.14414 0.14302,1.43018 0.42906,0.42905 h 1.28716 l 0.42905,0.42906 -0.28603,0.14302 0.42905,0.42905 0.14301,0.57208 v 0.0856 a 5.2916648,5.2916656 0 0 0 1.00113,-3.08901 5.2916648,5.2916656 0 0 0 -0.18639,-1.38681 l -0.0996,0.0996 -0.14301,0.14301 -0.28604,0.14302 -0.14302,-0.14302 h -0.28603 l -0.14302,-0.42905 z m -6.57883,0.85811 -0.28603,0.14301 0.28603,0.14302 z m -1.430174,0.42905 -0.427821,0.32086 a 5.2916648,5.2916656 0 0 0 0.05339,0.68027 h 0.08839 0.429054 l 0.286031,0.42905 h 0.42906 v 0.42905 l -0.14302,0.28604 0.42905,1.43018 0.42905,0.14302 -0.12243,0.61218 a 5.2916648,5.2916656 0 0 0 1.7973,0.99219 l 1.32852,-1.46136 v -0.57206 l 0.28603,-0.42907 -1.00113,-0.71508 h -0.42905 l -0.14302,-0.57207 -0.42906,-0.14302 -0.14301,-0.28603 -0.71509,-0.14302 -0.42906,-0.14303 -0.14302,0.14303 -0.28603,0.14302 -0.57207,-0.14302 -0.14302,-0.28604 h -0.286031 l 0.143015,-0.42906 z m 0.715094,0 -0.14302,0.14302 0.57207,0.28603 v -0.42905 z m 0.8581,0.14302 v 0.14301 c 0,0 0.57208,0.42906 0.7151,0.42906 0.14302,0 0.14302,-0.14302 0.14302,-0.14302 z"
       style="display:inline;fill:#ff950d;fill-opacity:1;fill-rule:evenodd;stroke:none;stroke-width:0.21166667px;stroke-linecap:butt;stroke-linejoin:miter;stroke-opacity:1" />
    <path
       style="color:#000000;display:inline;overflow:visible;visibility:visible;opacity:1;fill:#757575;fill-opacity:1;fill-rule:nonzero;stroke:none;stroke-width:18.75006866;stroke-linecap:round;stroke-linejoin:round;stroke-miterlimit:4;stroke-dasharray:none;stroke-dashoffset:0;stroke-opacity:1;marker:none;enable-background:accumulate"
       d="m 102.80953,121.61903 a 5.2916648,5.2916656 0 0 0 -3.55999,1.38545 5.2916648,5.2916656 0 0 1 0.84852,-0.6289 l 1.13844,1.39113 -1.43041,0.57205 v 0.57206 h -0.28577 l -0.42943,0.28577 0.28629,0.28629 -0.57206,0.42891 0.14314,0.42892 h -0.28628 l -0.285775,-0.57206 -0.754994,0.12609 a 5.2916648,5.2916656 0 0 0 -0.103352,1.01596 5.2916648,5.2916656 0 0 0 0.0021,0.0367 l 0.426847,-0.3204 0.286287,0.28578 -0.143142,0.42943 h 0.286287 l 0.142622,0.28577 0.57206,0.14314 0.28629,-0.14314 0.14314,-0.14315 0.42892,0.14315 0.7152,0.14314 0.14262,0.28577 0.42944,0.14315 0.14262,0.57206 h 0.42943 l 1.00098,0.7152 -0.28577,0.42891 v 0.57206 l -1.32447,1.45676 a 5.2916648,5.2916656 0 0 0 1.61019,0.25735 5.2916648,5.2916656 0 0 0 4.29069,-2.20607 v -0.0801 l -0.14314,-0.57206 -0.42892,-0.42891 0.28577,-0.14314 -0.42891,-0.42892 h -1.28726 l -0.42892,-0.42891 -0.14314,-1.43041 1.4304,-1.14411 h 0.85783 l 0.14315,0.42891 h 0.28577 l 0.14314,0.14314 0.28629,-0.14314 0.14263,-0.14314 0.0966,-0.0961 a 5.2916648,5.2916656 0 0 0 -3.0763,-3.50263 l -0.45268,0.45268 -0.49558,-0.74362 a 5.2916648,5.2916656 0 0 0 -1.07745,-0.11679 z m -3.55999,1.38545 a 5.2916648,5.2916656 0 0 0 -0.36949,0.37155 5.2916648,5.2916656 0 0 1 0.36949,-0.37155 z m 3.55999,-1.38338 a 5.2916648,5.2916656 0 0 1 0.25993,0.0129 l -0.54571,0.27337 -0.28628,0.7152 -0.57206,-0.14314 -0.37775,-0.62994 a 5.2916648,5.2916656 0 0 1 1.52187,-0.2284 z m 1.1684,0.13539 a 5.2916648,5.2916656 0 0 1 0.34365,0.0873 5.2916648,5.2916656 0 0 0 -0.34365,-0.0873 z m 0.40876,0.10904 a 5.2916648,5.2916656 0 0 1 0.4377,0.15658 5.2916648,5.2916656 0 0 0 -0.4377,-0.15658 z m 1.28313,0.89969 0.42891,0.57205 v 0.42944 h -0.42891 l 0.14314,-0.28629 -0.42891,-0.42892 z m -0.42892,0.42943 0.14315,0.28577 -0.14315,0.42891 -0.28629,-0.28577 z m -6.36964,0.1912 a 5.2916648,5.2916656 0 0 0 -0.31781,0.39119 5.2916648,5.2916656 0 0 1 0.31781,-0.39119 z m 7.94267,0.0946 0.0605,0.0517 a 5.2916648,5.2916656 0 0 1 0.55139,0.80667 h -0.18293 l 0.14314,0.28578 0.14314,0.28628 0.14315,0.14263 -0.28629,0.28629 -0.14314,-0.28629 -0.28577,-0.28577 -0.14315,-0.14314 -0.28577,0.14314 h -0.28628 l -0.71521,0.7152 -0.42891,-0.85834 h 0.7152 v -0.28578 l -0.14314,-0.14314 0.14314,-0.14314 0.28577,-0.14315 h 0.28629 z m -8.2858,0.33176 a 5.2916648,5.2916656 0 0 0 -0.26458,0.40153 5.2916648,5.2916656 0 0 1 0.26458,-0.40153 z m -0.293001,0.45062 a 5.2916648,5.2916656 0 0 0 -0.212392,0.40514 5.2916648,5.2916656 0 0 1 0.212392,-0.40514 z m -0.251148,0.49248 a 5.2916648,5.2916656 0 0 0 -0.156062,0.38653 5.2916648,5.2916656 0 0 1 0.156062,-0.38653 z m 8.973099,0.29817 h 0.14314 l 0.14263,0.28629 h -0.28577 z m -9.172571,0.21962 a 5.2916648,5.2916656 0 0 0 -0.105936,0.36536 5.2916648,5.2916656 0 0 1 0.105936,-0.36536 z m 10.187491,0.49248 a 5.2916648,5.2916656 0 0 1 0.12919,1.14515 5.2916648,5.2916656 0 0 0 -0.12919,-1.14515 z m -8.59482,0.43202 v 0.28628 l -0.28629,-0.14314 z m -0.7152,0.42942 h 0.42891 v 0.42892 l -0.57206,-0.28577 z m 0.85834,0.14315 0.85783,0.42891 c 0,0 -1.2e-4,0.14315 -0.14314,0.14315 -0.14302,0 -0.71469,-0.42943 -0.71469,-0.42943 z m -1.997809,0.23358 a 5.2916648,5.2916656 0 0 0 0.04909,0.6165 5.2916648,5.2916656 0 0 1 -0.04909,-0.6165 z m 10.571449,0.11162 a 5.2916648,5.2916656 0 0 1 -0.0238,0.31626 5.2916648,5.2916656 0 0 0 0.0238,-0.31626 z M 97.572636,127.628 a 5.2916648,5.2916656 0 0 0 1.826764,3.32176 l 0.12092,-0.60461 -0.42943,-0.14263 -0.42891,-1.4304 0.14314,-0.28578 v -0.42943 H 98.376205 L 98.089918,127.628 h -0.428914 z m 10.468094,0.0465 a 5.2916648,5.2916656 0 0 1 -0.0532,0.29972 5.2916648,5.2916656 0 0 0 0.0532,-0.29972 z m -0.0992,0.50332 a 5.2916648,5.2916656 0 0 1 -0.0904,0.3204 5.2916648,5.2916656 0 0 0 0.0904,-0.3204 z m -0.14934,0.49765 a 5.2916648,5.2916656 0 0 1 -0.12919,0.32866 5.2916648,5.2916656 0 0 0 0.12919,-0.32866 z m -0.19689,0.47956 a 5.2916648,5.2916656 0 0 1 -0.17105,0.33279 5.2916648,5.2916656 0 0 0 0.17105,-0.33279 z m -0.24288,0.45785 a 5.2916648,5.2916656 0 0 1 -0.21445,0.33124 5.2916648,5.2916656 0 0 0 0.21445,-0.33124 z m -7.87601,1.40456 a 5.2916648,5.2916656 0 0 0 0.16382,0.12403 5.2916648,5.2916656 0 0 1 -0.16382,-0.12403 z m 0.41704,0.30593 a 5.2916648,5.2916656 0 0 0 0.20463,0.12506 5.2916648,5.2916656 0 0 1 -0.20463,-0.12506 z m 0.45268,0.26717 a 5.2916648,5.2916656 0 0 0 0.22273,0.10748 5.2916648,5.2916656 0 0 1 -0.22273,-0.10748 z m 0.48059,0.22324 a 5.2916648,5.2916656 0 0 0 0.20206,0.0744 5.2916648,5.2916656 0 0 1 -0.20206,-0.0744 z"
       id="path5430"
       inkscape:connector-curvature="0" />
  </g>
</svg>
