<?xml version="1.0" encoding="UTF-8" standalone="no"?>
<!-- Created with Inkscape (http://www.inkscape.org/) -->

<svg
   xmlns:dc="http://purl.org/dc/elements/1.1/"
   xmlns:cc="http://creativecommons.org/ns#"
   xmlns:rdf="http://www.w3.org/1999/02/22-rdf-syntax-ns#"
   xmlns:svg="http://www.w3.org/2000/svg"
   xmlns="http://www.w3.org/2000/svg"
   xmlns:sodipodi="http://sodipodi.sourceforge.net/DTD/sodipodi-0.dtd"
   xmlns:inkscape="http://www.inkscape.org/namespaces/inkscape"
   width="48"
   height="48"
   viewBox="0 0 48 48"
   version="1.1"
   id="svg5502"
   inkscape:version="0.92.1 r15371"
   sodipodi:docname="network.svg">
  <defs
     id="defs5496" />
  <sodipodi:namedview
     id="base"
     pagecolor="#ffffff"
     bordercolor="#666666"
     borderopacity="1.0"
     inkscape:pageopacity="0.0"
     inkscape:pageshadow="2"
     inkscape:zoom="16"
     inkscape:cx="9.9226276"
     inkscape:cy="25.923624"
     inkscape:document-units="px"
     inkscape:current-layer="layer1"
     showgrid="true"
     fit-margin-top="0"
     fit-margin-left="0"
     fit-margin-right="0"
     fit-margin-bottom="0"
     inkscape:window-width="1920"
     inkscape:window-height="1016"
     inkscape:window-x="1366"
     inkscape:window-y="27"
     inkscape:window-maximized="1"
     units="px">
    <inkscape:grid
       type="xygrid"
       id="grid6077" />
  </sodipodi:namedview>
  <metadata
     id="metadata5499">
    <rdf:RDF>
      <cc:Work
         rdf:about="">
        <dc:format>image/svg+xml</dc:format>
        <dc:type
           rdf:resource="http://purl.org/dc/dcmitype/StillImage" />
        <dc:title></dc:title>
      </cc:Work>
    </rdf:RDF>
  </metadata>
  <g
     inkscape:label="Layer 1"
     inkscape:groupmode="layer"
     id="layer1"
     transform="translate(-96.459526,-120.56071)">
    <path
       inkscape:connector-curvature="0"
       id="path5434"
       d="m 120.45955,124.56906 a 19.999999,19.999964 0 0 0 -5.75271,0.86268 l 1.42836,2.38057 2.16216,0.54051 1.08113,-2.70266 2.06374,-1.03193 a 19.999999,19.999964 0 0 0 -0.98268,-0.0491 z m 4.06518,0.42214 1.88077,2.82111 1.71202,-1.71205 a 19.999999,19.999964 0 0 0 -3.59279,-1.10906 z m -14.31296,2.42819 a 19.999999,19.999964 0 0 0 -9.3727,13.30259 l 2.86367,-0.47728 1.08114,2.16216 h 1.08106 l -0.54051,-1.62161 2.16211,-1.6216 -1.08106,-1.0811 1.62161,-1.08109 h 1.08106 v -2.16215 l 5.40544,-2.16215 z m 21.05855,1.47401 -1.08105,1.0811 1.6216,1.6216 -0.54055,1.08106 h 1.62161 v -1.62161 z m -1.6216,1.62161 -1.08106,1.62164 1.08106,1.08105 0.54055,-1.6216 z m 5.94595,1.08109 -1.62161,1.6216 h -1.08113 l -1.08106,0.54055 -0.54055,0.54055 0.54055,0.54051 v 1.08105 h -2.70266 l 1.6216,3.24329 2.70271,-2.7027 h 1.08109 l 1.08106,-0.54059 0.54055,0.54059 1.08106,1.08106 0.54055,1.08109 1.08109,-1.08109 -0.54055,-0.54055 -0.54054,-1.0811 -0.54055,-1.08105 h 0.69006 a 19.999999,19.999964 0 0 0 -2.08357,-3.04773 z m 0.54055,5.94591 v 1.08109 h 1.08106 l -0.54055,-1.08109 z m -3.7838,1.08109 -5.40541,4.3243 0.54055,5.4054 1.62165,1.6216 h 4.86485 l 1.62161,1.62164 -1.08106,0.54055 1.62161,1.6216 0.54051,2.16219 v 0.32353 a 19.999999,19.999964 0 0 0 3.7838,-11.67498 19.999999,19.999964 0 0 0 -0.70447,-5.24148 l -0.37644,0.37644 -0.54051,0.54051 -1.08109,0.54055 -0.54055,-0.54055 h -1.08106 l -0.54055,-1.6216 z m -24.86488,3.24325 -1.08106,0.54051 1.08106,0.54054 z m -5.4054,1.6216 -1.61696,1.2127 a 19.999999,19.999964 0 0 0 0.20183,2.57109 h 0.33411 1.62164 l 1.08106,1.62161 h 1.62164 v 1.6216 l -0.54054,1.08109 1.6216,5.4054 1.62161,0.54055 -0.46273,2.31374 a 19.999999,19.999964 0 0 0 6.79295,3.75001 l 5.02118,-5.52324 v -2.16212 l 1.08106,-1.62168 -3.7838,-2.70266 h -1.62161 l -0.54055,-2.16215 -1.62164,-0.54054 -0.54051,-1.08106 -2.70271,-0.54055 -1.62164,-0.54058 -0.54055,0.54058 -1.08106,0.54055 -2.16215,-0.54055 -0.54055,-1.08109 h -1.08106 l 0.54051,-1.62164 z m 2.70274,0 -0.54055,0.54055 2.16215,1.08105 v -1.6216 z m 3.24321,0.54055 v 0.54051 c 0,0 2.16219,1.62164 2.70274,1.62164 0.54055,0 0.54055,-0.54055 0.54055,-0.54055 z"
       style="display:inline;fill:#ff950d;fill-opacity:1;fill-rule:evenodd;stroke:none;stroke-width:0.79999954px;stroke-linecap:butt;stroke-linejoin:miter;stroke-opacity:1" />
    <path
       style="color:#000000;display:inline;overflow:visible;visibility:visible;opacity:1;fill:#757575;fill-opacity:1;fill-rule:nonzero;stroke:none;stroke-width:70.8663559;stroke-linecap:round;stroke-linejoin:round;stroke-miterlimit:4;stroke-dasharray:none;stroke-dashoffset:0;stroke-opacity:1;marker:none;enable-background:accumulate"
       d="m 120.45955,124.56071 a 19.999999,19.999964 0 0 0 -13.45509,5.23634 19.999999,19.999964 0 0 1 3.20701,-2.37694 l 4.30277,5.2578 -5.40628,2.16208 v 2.16211 h -1.08007 l -1.62305,1.08008 1.08204,1.08203 -2.16211,1.62108 0.541,1.62111 h -1.08201 l -1.08011,-2.16211 -2.85351,0.47656 a 19.999999,19.999964 0 0 0 -0.39061,3.83984 19.999999,19.999964 0 0 0 0.008,0.13871 l 1.61325,-1.21096 1.08204,1.08011 -0.541,1.62304 h 1.08201 l 0.53907,1.08008 2.16212,0.541 1.08204,-0.541 0.541,-0.54104 1.62112,0.54104 2.70312,0.541 0.53903,1.08007 1.62308,0.54104 0.53904,2.16211 h 1.62304 l 3.78323,2.70312 -1.08007,1.62107 v 2.16211 l -5.00587,5.50586 a 19.999999,19.999964 0 0 0 6.08576,0.97266 19.999999,19.999964 0 0 0 16.21678,-8.33789 v -0.30274 l -0.541,-2.16211 -1.62112,-1.62108 1.08008,-0.541 -1.62108,-1.62111 h -4.86523 l -1.62112,-1.62107 -0.541,-5.40627 5.40624,-4.32419 h 3.24219 l 0.54104,1.62108 h 1.08008 l 0.541,0.541 1.08204,-0.541 0.53907,-0.541 0.36511,-0.36322 a 19.999999,19.999964 0 0 0 -11.62697,-13.23826 l -1.71092,1.71091 -1.87305,-2.81053 a 19.999999,19.999964 0 0 0 -4.07226,-0.44141 z m -13.45509,5.23634 a 19.999999,19.999964 0 0 0 -1.39649,1.40428 19.999999,19.999964 0 0 1 1.39649,-1.40428 z m 13.45509,-5.22852 a 19.999999,19.999964 0 0 1 0.98241,0.0488 l -2.06252,1.03321 -1.08201,2.70311 -2.16212,-0.541 -1.42771,-2.38087 a 19.999999,19.999964 0 0 1 5.75195,-0.86324 z m 4.416,0.51171 a 19.999999,19.999964 0 0 1 1.29884,0.32996 19.999999,19.999964 0 0 0 -1.29884,-0.32996 z m 1.54492,0.41212 a 19.999999,19.999964 0 0 1 1.6543,0.5918 19.999999,19.999964 0 0 0 -1.6543,-0.5918 z m 4.84963,3.4004 1.62107,2.16208 v 1.62307 h -1.62107 l 0.541,-1.08204 -1.62108,-1.62111 z m -1.62112,1.62304 0.54104,1.08007 -0.54104,1.62108 -1.08204,-1.08008 z m -24.07424,0.72264 a 19.999999,19.999964 0 0 0 -1.20117,1.47852 19.999999,19.999964 0 0 1 1.20117,-1.47852 z m 30.01955,0.35755 0.22867,0.1954 a 19.999999,19.999964 0 0 1 2.08399,3.04883 h -0.69139 l 0.541,1.08011 0.541,1.082 0.54104,0.53907 -1.08204,1.08204 -0.541,-1.08204 -1.08008,-1.08007 -0.54103,-0.541 -1.08008,0.541 h -1.082 l -2.70316,2.70311 -1.62108,-3.24411 h 2.70312 v -1.08011 l -0.541,-0.54101 0.541,-0.541 1.08008,-0.54103 h 1.08204 z m -31.31642,1.25389 a 19.999999,19.999964 0 0 0 -0.99998,1.51759 19.999999,19.999964 0 0 1 0.99998,-1.51759 z m -1.1074,1.70313 a 19.999999,19.999964 0 0 0 -0.80277,1.53123 19.999999,19.999964 0 0 1 0.80277,-1.53123 z m -0.94923,1.86134 a 19.999999,19.999964 0 0 0 -0.58983,1.4609 19.999999,19.999964 0 0 1 0.58983,-1.4609 z m 33.91409,1.12694 h 0.54101 l 0.53907,1.08204 h -1.08008 z m -34.66799,0.83006 a 19.999999,19.999964 0 0 0 -0.4004,1.38088 19.999999,19.999964 0 0 1 0.4004,-1.38088 z m 38.50391,1.86134 a 19.999999,19.999964 0 0 1 0.48828,4.32811 19.999999,19.999964 0 0 0 -0.48828,-4.32811 z m -32.48437,1.63282 v 1.08201 l -1.08204,-0.54101 z m -2.70312,1.62301 h 1.62108 v 1.62111 l -2.16212,-1.08008 z m 3.24413,0.54103 3.24219,1.62108 c 0,0 -4.6e-4,0.54104 -0.541,0.54104 -0.54055,0 -2.70119,-1.62304 -2.70119,-1.62304 z m -7.55079,0.88283 a 19.999999,19.999964 0 0 0 0.18558,2.33007 19.999999,19.999964 0 0 1 -0.18558,-2.33007 z m 39.9551,0.42187 a 19.999999,19.999964 0 0 1 -0.0899,1.19531 19.999999,19.999964 0 0 0 0.0899,-1.19531 z m -39.76567,1.93749 a 19.999999,19.999964 0 0 0 6.90433,12.55467 l 0.45703,-2.28514 -1.62305,-0.53907 -1.62108,-5.40623 0.54101,-1.08011 v -1.62304 h -1.62112 l -1.08204,-1.62108 h -1.62108 z m 39.56449,0.17575 a 19.999999,19.999964 0 0 1 -0.20107,1.1328 19.999999,19.999964 0 0 0 0.20107,-1.1328 z m -0.37493,1.90231 a 19.999999,19.999964 0 0 1 -0.34167,1.21096 19.999999,19.999964 0 0 0 0.34167,-1.21096 z m -0.56443,1.88088 a 19.999999,19.999964 0 0 1 -0.48828,1.24218 19.999999,19.999964 0 0 0 0.48828,-1.24218 z m -0.74416,1.8125 a 19.999999,19.999964 0 0 1 -0.64648,1.25779 19.999999,19.999964 0 0 0 0.64648,-1.25779 z m -0.91797,1.73046 a 19.999999,19.999964 0 0 1 -0.81052,1.25193 19.999999,19.999964 0 0 0 0.81052,-1.25193 z m -29.7676,5.30856 a 19.999999,19.999964 0 0 0 0.61916,0.46878 19.999999,19.999964 0 0 1 -0.61916,-0.46878 z m 1.57621,1.15627 a 19.999999,19.999964 0 0 0 0.77341,0.47267 19.999999,19.999964 0 0 1 -0.77341,-0.47267 z m 1.71092,1.00978 a 19.999999,19.999964 0 0 0 0.84181,0.40622 19.999999,19.999964 0 0 1 -0.84181,-0.40622 z m 1.8164,0.84374 a 19.999999,19.999964 0 0 0 0.76369,0.28119 19.999999,19.999964 0 0 1 -0.76369,-0.28119 z"
       id="path5430"
       inkscape:connector-curvature="0" />
  </g>
</svg>
