<?xml version="1.0" encoding="UTF-8" standalone="no"?>
<!-- Created with Inkscape (http://www.inkscape.org/) -->

<svg
   xmlns:dc="http://purl.org/dc/elements/1.1/"
   xmlns:cc="http://creativecommons.org/ns#"
   xmlns:rdf="http://www.w3.org/1999/02/22-rdf-syntax-ns#"
   xmlns:svg="http://www.w3.org/2000/svg"
   xmlns="http://www.w3.org/2000/svg"
   xmlns:sodipodi="http://sodipodi.sourceforge.net/DTD/sodipodi-0.dtd"
   xmlns:inkscape="http://www.inkscape.org/namespaces/inkscape"
   width="48"
   height="48"
   viewBox="0 0 48 48"
   version="1.1"
   id="svg5502"
   inkscape:version="0.92.1 r15371"
   sodipodi:docname="podcast.svg">
  <defs
     id="defs5496" />
  <sodipodi:namedview
     id="base"
     pagecolor="#ffffff"
     bordercolor="#666666"
     borderopacity="1.0"
     inkscape:pageopacity="0.0"
     inkscape:pageshadow="2"
     inkscape:zoom="16"
     inkscape:cx="32.479902"
     inkscape:cy="24.144969"
     inkscape:document-units="px"
     inkscape:current-layer="layer1"
     showgrid="true"
     fit-margin-top="0"
     fit-margin-left="0"
     fit-margin-right="0"
     fit-margin-bottom="0"
     inkscape:window-width="1920"
     inkscape:window-height="1016"
     inkscape:window-x="1366"
     inkscape:window-y="27"
     inkscape:window-maximized="1"
     units="px">
    <inkscape:grid
       type="xygrid"
       id="grid6077" />
  </sodipodi:namedview>
  <metadata
     id="metadata5499">
    <rdf:RDF>
      <cc:Work
         rdf:about="">
        <dc:format>image/svg+xml</dc:format>
        <dc:type
           rdf:resource="http://purl.org/dc/dcmitype/StillImage" />
        <dc:title></dc:title>
      </cc:Work>
    </rdf:RDF>
  </metadata>
  <g
     inkscape:label="Layer 1"
     inkscape:groupmode="layer"
     id="layer1"
     transform="translate(-96.459526,-120.56071)">
    <path
       style="color:#000000;display:inline;overflow:visible;visibility:visible;opacity:1;fill:#ff950d;fill-opacity:1;fill-rule:evenodd;stroke:none;stroke-width:3.00000024;stroke-linecap:butt;stroke-linejoin:round;stroke-miterlimit:4;stroke-dasharray:none;stroke-dashoffset:4.19999981;stroke-opacity:1;marker:none;enable-background:accumulate"
       d="m 122.24623,124.56071 -1.00029,2.85883 a 18.182907,18.182881 0 0 1 12.18309,17.14117 18.182907,18.182881 0 0 1 -12.18309,17.14313 l 1.00029,2.85687 a 21.213392,21.213362 0 0 0 14.2133,-20 21.213392,21.213362 0 0 0 -14.2133,-20 z m -2.00058,5.71373 -1.00033,2.85687 a 12.121941,12.12192 0 0 1 8.12274,11.4294 12.121941,12.12192 0 0 1 -8.12274,11.42743 l 1.00033,2.85884 a 15.152423,15.152397 0 0 0 10.15291,-14.28627 15.152423,15.152397 0 0 0 -10.15291,-14.28627 z m -1.99862,5.7137 -1.00029,2.85884 a 6.0609655,6.0609603 0 0 1 4.06035,5.71373 6.0609655,6.0609603 0 0 1 -4.06035,5.7137 l 0.99829,2.85686 a 9.0914562,9.0914407 0 0 0 6.09256,-8.57056 9.0914562,9.0914407 0 0 0 -6.09056,-8.57257 z"
       id="ellipse9978"
       inkscape:connector-curvature="0" />
    <path
       style="color:#000000;display:inline;overflow:visible;visibility:visible;opacity:1;fill:#757575;fill-opacity:1;fill-rule:evenodd;stroke:none;stroke-width:3.00000024;stroke-linecap:butt;stroke-linejoin:round;stroke-miterlimit:4;stroke-dasharray:none;stroke-dashoffset:4.19999981;stroke-opacity:1;marker:none;enable-background:accumulate"
       d="m 110.4595,138.56071 a 6.0000081,5.9999962 0 0 0 -5.99997,6 6.0000081,5.9999962 0 0 0 3.14453,5.27539 c -0.98116,3.12491 -2.025,7.9054 -3.14453,14.72461 h 11.99997 c -0.98449,-5.96836 -2.00092,-11.21423 -3.08394,-14.76369 a 6.0000081,5.9999962 0 0 0 3.08394,-5.23631 6.0000081,5.9999962 0 0 0 -6,-6 z"
       id="path9967"
       inkscape:connector-curvature="0" />
  </g>
</svg>
