/* XPM */
static char * advanced_xpm[] = {
"16 16 106 2",
"  	c None",
". 	c #AEAEBE",
"+ 	c #D7D7E0",
"@ 	c #D5D5DD",
"# 	c #C2C2CE",
"$ 	c #CECED7",
"% 	c #FEFEFE",
"& 	c #DCDCE2",
"* 	c #9F9FB2",
"= 	c #C3C3CE",
"- 	c #FBFBFB",
"; 	c #D0D0D8",
"> 	c #86869E",
", 	c #8F8FA4",
"' 	c #EBEBEE",
") 	c #EEEEF2",
"! 	c #9595A9",
"~ 	c #A2A2B5",
"{ 	c #9A9AAE",
"] 	c #CACAD5",
"^ 	c #F8F8F9",
"/ 	c #F7F7F9",
"( 	c #9999AC",
"_ 	c #A8A8B8",
": 	c #E7E7EB",
"< 	c #87879F",
"[ 	c #6F6F8B",
"} 	c #BFBFCB",
"| 	c #F1F1F5",
"1 	c #E9E9EE",
"2 	c #EDEDF2",
"3 	c #DBDBE2",
"4 	c #7C7F9B",
"5 	c #818199",
"6 	c #E2E2E7",
"7 	c #D2D2DC",
"8 	c #BDBDCA",
"9 	c #E3E3E8",
"0 	c #E0E0E6",
"a 	c #E0E0E4",
"b 	c #E1E1E7",
"c 	c #C6C6D1",
"d 	c #707599",
"e 	c #9B9BAE",
"f 	c #DEDEE4",
"g 	c #D8D8E1",
"h 	c #DADAE2",
"i 	c #D8D8E0",
"j 	c #BEBECB",
"k 	c #B2B6CE",
"l 	c #B09E8F",
"m 	c #CC8B22",
"n 	c #808098",
"o 	c #AFAFBF",
"p 	c #B9B9C8",
"q 	c #B3B3C2",
"r 	c #BCBCC9",
"s 	c #C3C6DA",
"t 	c #BDAA9A",
"u 	c #CF8925",
"v 	c #E68208",
"w 	c #DA9217",
"x 	c #49496A",
"y 	c #565674",
"z 	c #4B4B6D",
"A 	c #5D6186",
"B 	c #B3A196",
"C 	c #CF8B28",
"D 	c #E98606",
"E 	c #FD8606",
"F 	c #F38F0B",
"G 	c #D59018",
"H 	c #B2721C",
"I 	c #F19C0D",
"J 	c #FEA310",
"K 	c #FEA210",
"L 	c #F8A410",
"M 	c #D28F19",
"N 	c #CF8918",
"O 	c #FEBC19",
"P 	c #FEBE1B",
"Q 	c #FEB518",
"R 	c #FEA913",
"S 	c #FDA610",
"T 	c #CF8717",
"U 	c #C98819",
"V 	c #FECE20",
"W 	c #FEAC13",
"X 	c #FE8907",
"Y 	c #FE8506",
"Z 	c #FC980B",
"` 	c #B26E16",
" .	c #C27F18",
"..	c #FEA410",
"+.	c #FE9109",
"@.	c #FE8004",
"#.	c #FE9106",
"$.	c #BD7013",
"%.	c #BB650F",
"&.	c #FE9F0D",
"*.	c #FE9808",
"=.	c #ED8108",
"-.	c #915216",
";.	c #994E10",
">.	c #AB5A0D",
",.	c #894914",
"      . + @ #                   ",
"        $ % % & *               ",
"          = - % ;               ",
">         , ' % ) !             ",
"~ {       ] ^ / ) (             ",
"_ : < [ } | 1 2 3 4             ",
"5 6 7 8 9 0 a b c d             ",
"  e f b g h i j k l m           ",
"    n o p q r s t u v w         ",
"      x y z A B C D E F G       ",
"              H I J J K L M     ",
"                N O P Q R S T   ",
"                  U V W X Y Z ` ",
"                     ...+.@.#.$.",
"                      %.&.*.=.-.",
"                        ;.>.,.  "};
