/* XPM */
static char * hotkeys_50x50_xpm[] = {
"50 50 2 1",
" 	c #FFFFFF",
".	c #000000",
"                                                  ",
"                                                  ",
"                                                  ",
"                                                  ",
"                                                  ",
"                                                  ",
"                                                  ",
"                                                  ",
"             ..............................       ",
"             ...................................  ",
"            ....................................  ",
"            ....                         .......  ",
"            ....                                  ",
"            ...                                   ",
"           ....  ...                              ",
"           ....  ...                              ",
"           ....  ...    ...    .......  ......    ",
"           ...   ...    ...    ...............    ",
"           ...   ...    ...    ...............    ",
"    ...   ....   ... ......         ......        ",
"    ...   ....   ... .........        ....        ",
"    ...   ....   ... .........       .....        ",
"    ....  ...    ... .........      ......        ",
"    ..... ...    ....    .... ...  .......        ",
"     ........    ....     ... ...............     ",
"     ........     ...     ... ........ ......     ",
"       ......                  .......  .....     ",
"       ....                                       ",
"       ....                                       ",
"  ...                                             ",
"  ............................................    ",
"  ............................................    ",
"   ...........................................    ",
"                                                  ",
"                                                  ",
"                 ...                              ",
"             ..............     ....              ",
"             ...............   .....              ",
"             .......................              ",
"                 ...     .........                ",
"                 ...      .......                 ",
"                 ...      .......                 ",
"                 ...      ...                     ",
"                 ...      ...                     ",
"                 ...      ...                     ",
"                 ...      ...                     ",
"                 ...      ...                     ",
"                          ....                    ",
"                          ....                    ",
"                          ....                    "};
