/* XPM */
static char * input_and_codecs_50x50_xpm[] = {
"50 50 5 1",
" 	c #FFFFFF",
".	c #000000",
"+	c #00FF00",
"@	c #FF0000",
"#	c #FF00FF",
"  .....                   +++++  .........        ",
"   .....                 ++++++........  @@@@@@   ",
"    .....               +++++........@@@@@@@@@@   ",
"     .....         ### +++++....@@@@@@@@@@@@@@@   ",
"      .....        ####++++@@@@@@@@@@@@@@@@       ",
"       .....       ######+@@@@@@@@@@@@@           ",
"        .....   ....######@@@@@@@@                ",
"+        ....   ....+#######@                     ",
"+         .... ....++++###### .....              @",
"++        .....@@@+++++@#######....           @@@@",
"+++      ..@@@@@@+++++@   ######...        @@@@@@@",
"+++    ...@@@@@@@++++      ######..    @@@@@@@@@@@",
"++++ ...@@@@@@@@++++         ######@@@@@@@@@@@@@  ",
"+++++..@@@@@@...++++          ######@@@@@@@@@     ",
"@++++++@@@@@  .++++            ######@@@@         ",
".@++++++@@    +++++            @@#####            ",
".@@+++++++++  ++++.          @@@@@######          ",
"@@@@@+++++++ ++++...    @@@@@@@@@@ ######         ",
"@@@@@@++++++ ++++..@@@@@@@@@@@@@@.  ######        ",
"@@@  @@@@@@@.+++@@@@@@@@@@@@@@@...    #####...    ",
"@     .@@@@@@+++@@@@@@@@@@.......+++ ..######.    ",
" @@@@@@@@@@@++++@@@@@............+++....######    ",
" @@@@@@@@@@@++++@@  .............++++....######   ",
" @@@@@@@@@@+++++     ............++++......#####..",
"    ...    ++++@@   ..............++++  ....#####.",
"    ...  ..+++@@@@@......... .... +++++ +++++#####",
"    ......++++@@@@@@.......  ...  ++++++++++++####",
"..........++++.@@@@@@@.....  ...  .++++++++++++###",
"..........+++... @@@@@@ ...  ... ..+++++++...   ##",
".........++++..   @@@@@@.... .....++++++++.      #",
"    .... ++++..     @@@@........+++++++++++       ",
".   .....+++...      @@@@......++++++ +++++       ",
".... ...++++...      @@@@@...+++++++  ++++++      ",
".....+++++++.         @@@@.+++++++    .++++++     ",
"+++++++++++............@+++++++++.    ..++++++    ",
"+++++++++++..........++++++++++...   ....++++++   ",
"+++++++++++..........++++++++@....   ....+++++++  ",
"@     ++++...........+++++@@@@@@     ...  +++++++ ",
"      ++++   ........+++...@@@@@@    ...   ++++++ ",
"     ++++     ..... ........@@@@@@@  ...    +++++ ",
"     ++++      ..........  ...@@@@@@ ...    +++++ ",
"    ++++      ..........   ....@@@@@@...     +++++",
"   +++++   ..............  ......@@@@@@.      ++++",
". +++++ .....@@@..................@@@@@@       +++",
".+++++.......@@@     ..............@@@@@@..    +++",
"+++++.....@@@@@@@@@@@@@@@@@@@@@ .....@@@@@....  ++",
"++++....@@@@@@@@@@@@@@@@@@@@@@@ ......@@@@@......+",
"+++ ....@@@@@@@@@@@@@@@@@@@@@@@......  @@@@@......",
"++  ....@@@@  @@@@@@@@    ..........    @@@@@@@@..",
"+   ....@@@..            .........       @@@@@@@@@"};
