/* XPM */
static char * intf_xpm[] = {
"16 16 216 2",
"  	c None",
". 	c #715F39",
"+ 	c #DDA434",
"@ 	c #CD8A01",
"# 	c #CC8A04",
"$ 	c #B79042",
"% 	c #D49411",
"& 	c #D18D03",
"* 	c #B27D11",
"= 	c #ECECEC",
"- 	c #FFFDFA",
"; 	c #FEFBF8",
"> 	c #FDFAF7",
", 	c #FCFAF7",
"' 	c #FCF9F6",
") 	c #FBF8F6",
"! 	c #F8F8FA",
"~ 	c #BAAB8C",
"{ 	c #D09824",
"] 	c #CD8B02",
"^ 	c #C88600",
"/ 	c #987D48",
"( 	c #CFD1D6",
"_ 	c #B0B0AF",
": 	c #FCFCFD",
"< 	c #BAC7DC",
"[ 	c #C0D1E6",
"} 	c #C5D6E8",
"| 	c #C9DAEB",
"1 	c #CDDEED",
"2 	c #CFE3F3",
"3 	c #C0CCD7",
"4 	c #BE9648",
"5 	c #D3910C",
"6 	c #CD8B03",
"7 	c #A06E0A",
"8 	c #868A90",
"9 	c #FFFFFF",
"0 	c #797979",
"a 	c #B4B4B2",
"b 	c #E9ECF2",
"c 	c #2962B7",
"d 	c #3C7ED0",
"e 	c #4D8ED9",
"f 	c #5B9DE2",
"g 	c #66A9EA",
"h 	c #64A8ED",
"i 	c #868978",
"j 	c #D4961A",
"k 	c #CD8A02",
"l 	c #C08205",
"m 	c #5D5844",
"n 	c #4977C2",
"o 	c #7B7B7A",
"p 	c #B5B4B1",
"q 	c #ECEFF5",
"r 	c #3670C4",
"s 	c #3A7DD1",
"t 	c #4A8DDA",
"u 	c #5397E1",
"v 	c #60A5EC",
"w 	c #92ABC7",
"x 	c #A88A4F",
"y 	c #CF8E09",
"z 	c #C88602",
"A 	c #8E691F",
"B 	c #295A9D",
"C 	c #5287D4",
"D 	c #F4F5F7",
"E 	c #797978",
"F 	c #B6B6B5",
"G 	c #EDF0F5",
"H 	c #2E68BD",
"I 	c #3577CE",
"J 	c #3F81D4",
"K 	c #619BDE",
"L 	c #639CDB",
"M 	c #91A0B1",
"N 	c #CFCDCB",
"O 	c #A4916A",
"P 	c #9F7012",
"Q 	c #455C77",
"R 	c #2268CA",
"S 	c #4D7FCA",
"T 	c #E9E9EB",
"U 	c #787676",
"V 	c #BAB9B6",
"W 	c #EEF1F7",
"X 	c #1850AF",
"Y 	c #2363C2",
"Z 	c #3878CE",
"` 	c #4B8DDA",
" .	c #638DBE",
"..	c #C2C3C3",
"+.	c #C6C5C5",
"@.	c #8E8D8E",
"#.	c #4E6277",
"$.	c #2E6DC3",
"%.	c #1A5DC0",
"&.	c #3E6EBF",
"*.	c #E7E8E9",
"=.	c #797876",
"-.	c #BBBBB9",
";.	c #F0F3F9",
">.	c #1048AA",
",.	c #033FAB",
"'.	c #2465C3",
").	c #4F96E0",
"!.	c #97A9BD",
"~.	c #CFCBC6",
"{.	c #949290",
"].	c #6B7E8C",
"^.	c #6EA5D8",
"/.	c #2766C3",
"(.	c #023CAA",
"_.	c #3766BA",
":.	c #E5E6E7",
"<.	c #797976",
"[.	c #BDBBBA",
"}.	c #F1F4FA",
"|.	c #164EAF",
"1.	c #0948B1",
"2.	c #114FB2",
"3.	c #365885",
"4.	c #767472",
"5.	c #949495",
"6.	c #566E8D",
"7.	c #7DB0DB",
"8.	c #70AAE6",
"9.	c #0D4BB2",
"0.	c #0039A8",
"a.	c #3868BA",
"b.	c #E3E4E5",
"c.	c #BEBDBB",
"d.	c #F2F5FC",
"e.	c #215AB6",
"f.	c #1459C1",
"g.	c #21477E",
"h.	c #95918B",
"i.	c #17130F",
"j.	c #536774",
"k.	c #7FB4E5",
"l.	c #76B1E9",
"m.	c #2F6DC5",
"n.	c #1957BA",
"o.	c #0747B1",
"p.	c #3C6CBD",
"q.	c #E0E0E2",
"r.	c #BFBEBD",
"s.	c #F3F6FC",
"t.	c #2965BF",
"u.	c #1D5CB8",
"v.	c #344256",
"w.	c #3A352F",
"x.	c #020407",
"y.	c #789DBB",
"z.	c #5694E0",
"A.	c #397ACE",
"B.	c #3070C9",
"C.	c #2564C2",
"D.	c #1152B8",
"E.	c #4272C2",
"F.	c #DDDDDF",
"G.	c #C0BFBE",
"H.	c #F1F4FB",
"I.	c #346EC2",
"J.	c #4067A3",
"K.	c #29364B",
"L.	c #09182B",
"M.	c #336298",
"N.	c #4F93E1",
"O.	c #498DDC",
"P.	c #4386D8",
"Q.	c #3B7DD3",
"R.	c #2F71CB",
"S.	c #195CC0",
"T.	c #4879C8",
"U.	c #D9DADB",
"V.	c #C2C1C1",
"W.	c #FBFCFE",
"X.	c #BAC9E2",
"Y.	c #BFCADD",
"Z.	c #AFBBCB",
"`.	c #B2C6DE",
" +	c #BAD4F1",
".+	c #B7CFE9",
"++	c #B4CCE7",
"@+	c #B0C8E3",
"#+	c #ABC2DF",
"$+	c #A4BBDA",
"%+	c #9BB2D5",
"&+	c #A8B9D5",
"*+	c #D7D7D7",
"=+	c #7B7B7B",
"-+	c #848484",
";+	c #FFFFFE",
">+	c #FDFBF9",
",+	c #F8F6F3",
"'+	c #F3F0EC",
")+	c #EFEBE7",
"!+	c #EBE7E3",
"~+	c #E8E5E0",
"{+	c #E4E1DD",
"]+	c #E1DED9",
"^+	c #DEDBD6",
"/+	c #D8D6D2",
"(+	c #D3D3D3",
"_+	c #535353",
":+	c #4F4F4F",
"<+	c #5B5B5B",
"[+	c #5A5A5A",
"}+	c #595959",
"|+	c #575757",
"1+	c #555555",
"2+	c #545454",
"3+	c #414141",
"                    . + @ #     ",
"                    $ % & *     ",
"  = - ; > , ' ) ! ~ { ] ^ / (   ",
"_ : < [ } | 1 2 3 4 5 6 7 8 9 0 ",
"a b c d e f g h i j k l m n 9 o ",
"p q r s t u v w x y z A B C D E ",
"F G H I J K L M N O P Q R S T U ",
"V W X Y Z `  ...+.@.#.$.%.&.*.=.",
"-.;.>.,.'.).!.~.{.].^./.(._.:.<.",
"[.}.|.1.2.3.4.5.6.7.8.9.0.a.b.E ",
"c.d.e.f.g.h.i.j.k.l.m.n.o.p.q.E ",
"r.s.t.u.v.w.x.y.z.A.B.C.D.E.F.E ",
"G.H.I.J.K.L.M.N.O.P.Q.R.S.T.U.E ",
"V.W.X.Y.Z.`. +.+++@+#+$+%+&+*+=+",
"-+9 ;+- >+,+'+)+!+~+{+]+^+/+(+_+",
"  :+<+[+}+}+|+|+|+1+1+1+_+2+3+  "};
