/* XPM */
static char * type_disc_xpm[] = {
"16 16 91 1",
" 	c None",
".	c #676767",
"+	c #989898",
"@	c #B7B7B7",
"#	c #BEBEBE",
"$	c #919191",
"%	c #5B5B5B",
"&	c #CDCDCD",
"*	c #FEFEFE",
"=	c #FFFFFF",
"-	c #FDFDFD",
";	c #BDBDBD",
">	c #717171",
",	c #F3F3F3",
"'	c #FBFBFB",
")	c #F9F9F9",
"!	c #F7F7F7",
"~	c #FAFAFA",
"{	c #EDEDED",
"]	c #4A4A4A",
"^	c #DFDFDF",
"/	c #E4E4E4",
"(	c #F1F1F1",
"_	c #F8F8F8",
":	c #F4F4F4",
"<	c #E5E5E5",
"[	c #AEAEAE",
"}	c #D8D8D8",
"|	c #D6D6D6",
"1	c #E2E2E2",
"2	c #F5F5F5",
"3	c #FCFCFC",
"4	c #979797",
"5	c #CFCFCF",
"6	c #CCCCCC",
"7	c #D7D7D7",
"8	c #EBEBEB",
"9	c #EEEEEE",
"0	c #EAEAEA",
"a	c #E7E7E7",
"b	c #D5D5D5",
"c	c #6B6B6B",
"d	c #C8C8C8",
"e	c #E3E3E3",
"f	c #DBDBDB",
"g	c #C3C3C3",
"h	c #EFEFEF",
"i	c #DDDDDD",
"j	c #D2D2D2",
"k	c #D1D1D1",
"l	c #484848",
"m	c #787878",
"n	c #CBCBCB",
"o	c #CECECE",
"p	c #E6E6E6",
"q	c #C9C9C9",
"r	c #C4C4C4",
"s	c #5A5A5A",
"t	c #757575",
"u	c #E1E1E1",
"v	c #E9E9E9",
"w	c #E0E0E0",
"x	c #7D7D7D",
"y	c #BCBCBC",
"z	c #B9B9B9",
"A	c #515151",
"B	c #545454",
"C	c #DEDEDE",
"D	c #E8E8E8",
"E	c #DCDCDC",
"F	c #C7C7C7",
"G	c #BABABA",
"H	c #BBBBBB",
"I	c #C1C1C1",
"J	c #333333",
"K	c #ECECEC",
"L	c #C0C0C0",
"M	c #A6A6A6",
"N	c #777777",
"O	c #C2C2C2",
"P	c #C6C6C6",
"Q	c #555555",
"R	c #828282",
"S	c #9E9E9E",
"T	c #848484",
"U	c #9B9B9B",
"V	c #B4B4B4",
"W	c #DADADA",
"X	c #454545",
"Y	c #313131",
"Z	c #2F2F2F",
"     .+@#$      ",
"   %&*====-;    ",
"  >,='')!~-={]  ",
"  ^/(_)!:!)-=<  ",
" [}|1:~_2!3-!*4 ",
" 567^8,90!-:8ab ",
"cd6}1efg&<haijkl",
"mnofpin  |}7q;rs",
"t}7uvw7.xd&dyzrA",
"BC1D{!wEf6F;GHIJ",
" o{{_~KpK0d@GLM ",
" N_~~{^p{DuOzPQ ",
"  [=hwjCD<ae&R  ",
"   S/fqE88h/T   ",
"    QUV5WnUX    ",
"       YZ       "};
