/* XPM */
static char * type_node_xpm[] = {
"16 16 55 1",
" 	c None",
".	c #949494",
"+	c #919191",
"@	c #FAFAFA",
"#	c #8F8F8F",
"$	c #F5F5F5",
"%	c #F6F6F6",
"&	c #999999",
"*	c #909090",
"=	c #8D8D8D",
"-	c #F0F0F0",
";	c #EFEFEF",
">	c #898989",
",	c #E9E9E9",
"'	c #888888",
")	c #868686",
"!	c #E2E2E2",
"~	c #E3E3E3",
"{	c #D0D0D0",
"]	c #FDFDFD",
"^	c #DCDCDC",
"/	c #848484",
"(	c #DBDBDB",
"_	c #C4C4C4",
":	c #CECECE",
"<	c #CDCDCD",
"[	c #828282",
"}	c #D4D4D4",
"|	c #BFBFBF",
"1	c #858585",
"2	c #7E7E7E",
"3	c #CCCCCC",
"4	c #808080",
"5	c #B1B1B1",
"6	c #7F7F7F",
"7	c #7C7C7C",
"8	c #C6C6C6",
"9	c #7A7A7A",
"0	c #A5A5A5",
"a	c #797979",
"b	c #C0C0C0",
"c	c #747474",
"d	c #9C9C9C",
"e	c #9B9B9B",
"f	c #777777",
"g	c #BABABA",
"h	c #6D6D6D",
"i	c #FEFEFE",
"j	c #6E6E6E",
"k	c #676767",
"l	c #727272",
"m	c #606060",
"n	c #707070",
"o	c #5B5B5B",
"p	c #5A5A5A",
"  ......        ",
" +@@@@@@+       ",
"#$$$$$%$&##*### ",
"=-----;---;---;=",
">,,,,,,,,'''''''",
")!!~!~!~'{]]]]^'",
"/(('''''_]:<<<<'",
"[}/|]]]]]||||||1",
"2345555555555556",
"7890000000000009",
"abcdddddddededdc",
"fghiiiiiiiiiii8j",
"cgkiiiiiiiiiii8k",
"l5m888888888888m",
" noopopopoppooo ",
"                "};
