/* XPM */
static char * video_xpm[] = {
"16 16 124 2",
"  	c None",
". 	c #FFFFFF",
"+ 	c #1B4260",
"@ 	c #1E4869",
"# 	c #1E4B6D",
"$ 	c #1E4A6B",
"% 	c #204F73",
"& 	c #215175",
"* 	c #325C7C",
"= 	c #37607E",
"- 	c #255B84",
"; 	c #296491",
"> 	c #4D7CA0",
", 	c #6A90AB",
"' 	c #7697B0",
") 	c #235174",
"! 	c #2C6894",
"~ 	c #3375A7",
"{ 	c #3677A8",
"] 	c #4E8BBA",
"^ 	c #81ADCE",
"/ 	c #AFCBE0",
"( 	c #C7DAE9",
"_ 	c #42759D",
": 	c #275478",
"< 	c #326D9B",
"[ 	c #3C81B7",
"} 	c #447FAE",
"| 	c #5390BF",
"1 	c #5994C2",
"2 	c #5C95C2",
"3 	c #92B8D6",
"4 	c #C8DBEA",
"5 	c #4D7EA4",
"6 	c #2D5B80",
"7 	c #366E9D",
"8 	c #3974A3",
"9 	c #336893",
"0 	c #3D7DB0",
"a 	c #5592C3",
"b 	c #5792C3",
"c 	c #89B3D5",
"d 	c #B4CFE4",
"e 	c #CADDEC",
"f 	c #4A7DA6",
"g 	c #3E6688",
"h 	c #42749D",
"i 	c #BDBDBD",
"j 	c #326088",
"k 	c #4380B5",
"l 	c #396D99",
"m 	c #6C9FCA",
"n 	c #8CB6D8",
"o 	c #99BDDD",
"p 	c #6EA2CE",
"q 	c #3C74A4",
"r 	c #446B8C",
"s 	c #000000",
"t 	c #5F5F5F",
"u 	c #969696",
"v 	c #959595",
"w 	c #447AA5",
"x 	c #3D6B94",
"y 	c #6198C9",
"z 	c #6BA1D1",
"A 	c #639CCE",
"B 	c #4E8FC8",
"C 	c #4279A9",
"D 	c #424242",
"E 	c #7F7F7F",
"F 	c #606060",
"G 	c #636363",
"H 	c #484848",
"I 	c #1E1E1E",
"J 	c #7A7A7A",
"K 	c #5C80A2",
"L 	c #6594C1",
"M 	c #70A5D6",
"N 	c #6FA3D4",
"O 	c #5E8AB4",
"P 	c #8C8C8C",
"Q 	c #383838",
"R 	c #3D3D3D",
"S 	c #5D5D5D",
"T 	c #B8B8B8",
"U 	c #6A6A6A",
"V 	c #4C4C4C",
"W 	c #171717",
"X 	c #94BCE2",
"Y 	c #205B07",
"Z 	c #1F5A06",
"` 	c #2A2A2A",
" .	c #4E4E4E",
"..	c #4B4B4B",
"+.	c #585858",
"@.	c #727272",
"#.	c #454545",
"$.	c #050505",
"%.	c #2B2B2B",
"&.	c #121212",
"*.	c #36960D",
"=.	c #318A0C",
"-.	c #246608",
";.	c #363636",
">.	c #323232",
",.	c #4D4D4D",
"'.	c #3E3E3E",
").	c #1B1B1B",
"!.	c #154700",
"~.	c #236308",
"{.	c #2B780A",
"].	c #31840E",
"^.	c #3E7326",
"/.	c #468A29",
"(.	c #0B0B0B",
"_.	c #040404",
":.	c #517D3E",
"<.	c #328E0B",
"[.	c #389013",
"}.	c #3E9A17",
"|.	c #2F840B",
"1.	c #308C09",
"2.	c #FDFDFD",
"3.	c #FBFBFB",
". . . . . . . . . . . . . . . . ",
". + @ # $ % & & & & * = * & & . ",
". # - ; ; ; ; ; ; > , ' , > ; . ",
". ) ! ~ ~ { { ~ ] ^ / ( / ^ _ . ",
". : < [ [ } | 1 2 3 4 . 4 3 5 . ",
". 6 7 8 . 9 0 a b c d e d c f . ",
". g h . i . j k l m n o n p q . ",
". r s t u v . w . x y z A B C . ",
". s D E F G H I J . K L M N O . ",
". s P D Q R s S T U V W X Y Z . ",
". `  .s s ..+.@.#.$.%.&.Y *.=.. ",
". -.Y ;.>.V ,.'.).s !.~.{.{.].. ",
". ^./.{.~.(._.!.~.{.].*.~.{.*.. ",
". :.*.*.<.].].{.].[.}.|.*.1.*.. ",
". . . . . . . . . 2.3.3.. . . . ",
"                                "};
