/* XPM */
static char * video_50x50_xpm[] = {
"50 50 3 1",
" 	c #FFFFFF",
".	c #000000",
"+	c #00FF00",
"                                                  ",
"                                                  ",
"                                                  ",
"                                                  ",
"                                                  ",
"                                                  ",
"                                                  ",
"                                                  ",
"                                                  ",
"    .........                                     ",
"  ...............                                 ",
" ...................                              ",
"........   ...........                            ",
".... ....    ..........                           ",
".... ....................                         ",
"+++................ ......                        ",
"++.................. .......                      ",
"+.......+++++++...... ..........           ...... ",
"+....++++.....+++................................ ",
"+...++++......++++............................... ",
"+...++++......++++.........   ..................  ",
"++++++++......+++.............. ....    ........  ",
"++++++++......+++.....+.........................  ",
"+++++++++.....+++...+++++.......................  ",
"++++++++++...++++...+++++++++.................    ",
"++++++++++...++++...++++++++++++++...             ",
"++++++++++...++++...+++.......++++...             ",
"++++++++......+++...+++.......++++...             ",
"++++++++......+++...+++.......++++...             ",
"++++++++......+++...+++......+++++...   ....      ",
"....................+++......+++++...   ....      ",
"....................++++....++++++...   ....      ",
".....................+++...+++++++... ......      ",
"       ...     .............++++++... ......      ",
"       ....     ............++++++... .....       ",
"    ........    ............++++++... ...         ",
"    ........... ... .....+++++++++... .....       ",
"    ...............   ....++++++++... .....       ",
"          ..........  .....+++++++...   ......... ",
"             ........ ......++++++...  .......... ",
"              ................................... ",
"                ..............................    ",
"                   ........................  .....",
"                     ............. ... ...........",
"                        ..........................",
"                            ....................  ",
"                                ..............    ",
"                                                  ",
"                                                  ",
"                                                  "};
