/* XPM */
static char *vlc_xmas[] = {
/* columns rows colors chars-per-pixel */
"32 32 159 2 ",
"   c #350202",
".  c #7C0101",
"X  c #777A7B",
"o  c #830000",
"O  c #920000",
"+  c #970808",
"@  c #9C0C0C",
"#  c #8F1212",
"$  c #941616",
"%  c #A30303",
"&  c #AB0000",
"*  c #B60403",
"=  c #BB0000",
"-  c #AE1212",
";  c #9B3400",
":  c #A13600",
">  c #AE3E00",
",  c #A43E02",
"<  c #B73D00",
"1  c #C30404",
"2  c #CD0202",
"3  c #C30909",
"4  c #CE0B0C",
"5  c #D60000",
"6  c #DC0202",
"7  c #D8090A",
"8  c #CE1415",
"9  c #E40000",
"0  c #EE0202",
"q  c #F40000",
"w  c #FB0000",
"e  c #CA2B2C",
"r  c #DE2426",
"t  c #DB2F30",
"y  c #CD3031",
"u  c #DF3D3F",
"i  c #F72E2D",
"p  c #E43131",
"a  c #F73739",
"s  c #AC4301",
"d  c #B34400",
"f  c #B84500",
"g  c #B94900",
"h  c #B64B00",
"j  c #A74E1D",
"k  c #974F27",
"l  c #995126",
"z  c #C34D00",
"x  c #CA4D00",
"c  c #C15300",
"v  c #CD5200",
"b  c #CE5B00",
"n  c #D15500",
"m  c #D45B01",
"M  c #D95B00",
"N  c #E45F00",
"B  c #D56600",
"V  c #DA6400",
"C  c #DC6900",
"Z  c #DF7313",
"A  c #E46300",
"S  c #EB6500",
"D  c #E36901",
"F  c #EC6C00",
"G  c #F26E00",
"H  c #E77300",
"J  c #EC7400",
"K  c #ED7902",
"L  c #F17400",
"P  c #F47D00",
"I  c #F87E00",
"U  c #E47C14",
"Y  c #D77F2D",
"T  c #D97C29",
"R  c #BF7C48",
"E  c #B67446",
"W  c #957562",
"Q  c #837F7C",
"!  c #D05F5F",
"~  c #EF464A",
"^  c #F74F51",
"/  c #D86A6B",
"(  c #F06E6E",
")  c #EF8206",
"_  c #F48300",
"`  c #FA8500",
"'  c #F68D01",
"]  c #FB8D00",
"[  c #FA9300",
"{  c #FB9C00",
"}  c #F7A000",
"|  c #FCA500",
" . c #FDAB00",
".. c #FDB101",
"X. c #FFBB00",
"o. c #E38E39",
"O. c #B38B70",
"+. c #BE9A7A",
"@. c #DC8741",
"#. c #D9965C",
"$. c #E09041",
"%. c #D79C6A",
"&. c #E29F6D",
"*. c #DAA16C",
"=. c #7C7F80",
"-. c #818A90",
";. c #8D9498",
":. c #979C9F",
">. c #9B9FA2",
",. c #9CA2A5",
"<. c #A5AAAC",
"1. c #AAAEAF",
"2. c #B2ABA4",
"3. c #BEB6AE",
"4. c #AAAFB1",
"5. c #ACB1B3",
"6. c #B6BBBE",
"7. c #BABDBF",
"8. c #E6999A",
"9. c #F69F9F",
"0. c #E2B58D",
"q. c #EBA7A8",
"w. c #F4A1A2",
"e. c #E9B9BA",
"r. c #F8CC9F",
"t. c #D3C9BD",
"y. c #E0C2A9",
"u. c #FDD7AF",
"i. c #FCD8AE",
"p. c #BABEC1",
"a. c #B7C1C7",
"s. c #BCC5CA",
"d. c #BFC9D0",
"f. c #C1C5C7",
"g. c #C1C6C9",
"h. c #C6CACD",
"j. c #CACBCC",
"k. c #C9C9C6",
"l. c #D0CBCD",
"z. c #C4CCD3",
"x. c #C9CED1",
"c. c #CDD1D4",
"v. c #CBD6DF",
"b. c #FFCACC",
"n. c #F5DBDC",
"m. c #E2DFE0",
"M. c #E5E2E3",
"N. c #E8E5E6",
"B. c #EEECED",
"V. c #F1ECED",
"C. c #FDE8E8",
"Z. c #F1EFF0",
"A. c #EFF2F7",
"S. c #F5F3F4",
"D. c #F9F6F6",
"F. c #F8F7F8",
"G. c #FDFCFD",
"H. c #F3F5F8",
"J. c None",
/* pixels */
"J.J.J.J.J.J.J.J.J.J.J.J.J.J.J.J.J.J.J.J.J.J.J.J.J.J.J.J.J.J.J.J.",
"J.J.J.J.J.J.J.J.J.J.J.J.J.J.J.J.r a a 2 3 7 3 7 8 ! G.G.G.J.J.J.",
"J.J.J.J.J.J.J.J.J.J.J.J.J.J.t e % * 5 = 9 & . &   q.G.Z.F.G.J.J.",
"J.J.J.J.J.J.J.J.J.J.J.J.J.y # + 1 5 q * o = 4 3 / G.M.Z.S.N.J.J.",
"J.J.J.J.J.J.J.J.J.J.J.J.~ $ @ = 5 q w 0 . - J.G.G.G.B.N.l.B.J.J.",
"J.J.J.J.J.J.J.J.J.J.J.J.y + = 2 q w w 9 % J.J.G.G.F.M.Z.F.J.J.J.",
"J.J.J.J.J.J.J.J.J.J.G.b.u * 1 9 q w q 9 = J.J.J.G.G.F.F.J.J.J.J.",
"J.J.J.J.J.J.J.J.J.G.G.S.D.9.( p i ^ 0 6 O J.J.J.J.G.G.J.J.J.J.J.",
"J.J.J.J.J.J.J.J.J.G.G.G.F.G.G.n.N.9.e.8.e.C.G.J.J.J.J.J.J.J.J.J.",
"J.J.J.J.J.J.J.J.J.G.V.F.F.S.G.S.G.F.F.S.M.F.N.J.J.J.J.J.J.J.J.J.",
"J.J.J.J.J.J.J.J.J.G.F.B.V.Z.G.F.F.F.S.S.S.F.F.J.J.J.J.J.J.J.J.J.",
"J.J.J.J.J.J.J.J.J.J.G.G.F.G.F.F.F.G.B.F.G.S.S.J.J.J.J.J.J.J.J.J.",
"J.J.J.J.J.J.J.J.J.J.J.J.y.H.H.G.F.G.F.G.G.F.G.J.J.J.J.J.J.J.J.J.",
"J.J.J.J.J.J.J.J.J.J.J.J.b U o.0.u.u.r.&.j J.J.J.J.J.J.J.J.J.J.J.",
"J.J.J.J.J.J.J.J.J.J.J.s B H K L P _ P b s J.J.J.J.J.J.J.J.J.J.J.",
"J.J.J.J.J.J.J.J.J.J.J.h B K J L P _ P m s J.J.J.J.J.J.J.J.J.J.J.",
"J.J.J.J.J.J.J.J.J.J.J.h C J F L P _ P V g J.J.J.J.J.J.J.J.J.J.J.",
"J.J.J.J.J.J.J.J.J.J.l b C K F L P P _ A z k J.J.J.J.J.J.J.J.J.J.",
"J.J.J.J.J.J.J.J.J.J.;.+.Y J S G L P P T O.-.J.J.J.J.J.J.J.J.J.J.",
"J.J.J.J.J.J.J.J.J.J.:.6.s.v.k.t.k.k.d.a.<.;.J.J.J.J.J.J.J.J.J.J.",
"J.J.J.J.J.J.J.J.J.=.,.p.f.c.x.x.c.j.g.p.4.>.=.J.J.J.J.J.J.J.J.J.",
"J.J.J.J.J.J.K F V O.,.p.f.x.h.x.c.j.g.p.4.>.Q < n m J.J.J.J.J.J.",
"J.J.J.J.J.J.K F c W 4.p.s.j.h.h.c.h.g.p.5.,.W : x M J.J.J.J.J.J.",
"J.J.J.J.J.J.K D d h R 5.d.h.h.h.c.h.g.a.2.E > ; x M J.J.J.J.J.J.",
"J.J.J.J.J.) K J : c b M U @.#.%.*.#.$.U A v d ; n m D J.J.J.J.J.",
"J.J.J.J.J.) K K d z n V D A A S F J L K V n f > D F ' J.J.J.J.J.",
"J.J.J.J.J.[ _ _ J x n V D N A S F G F F D n x K _ ' { J.J.J.J.J.",
"J.J.J.J.J.[ ' ' ] P L A N N A S S F F L L _ _ [ [ [ { J.J.J.J.J.",
"J.J.J.J.} | { { { ` ` ] ] ` I I _ ` ] [ ] ] ` | | | | ..J.J.J.J.",
"J.J.J.J. . . .|  .| ] ] ] ] ] [ ] ] ] [ ] [ | .. .....X.J.J.J.J.",
"J.J.J.J.} | | |  . . . .| | | | | | |  . . .............J.J.J.J.",
"J.J.J.J.J.J.J.J.J.J.J.J.J.J.J.J.J.J.J.J.J.J.J.J.J.J.J.J.J.J.J.J."
};
