/* XPM */
static char *vlc__[] = {
/* columns rows colors chars-per-pixel */
"32 32 119 2",
"   c #AD5A03",
".  c #AD5D0A",
"X  c #B35300",
"o  c #B45E03",
"O  c #B15F09",
"+  c #AB5E14",
"@  c #B56007",
"#  c #BB6301",
"$  c #B5610A",
"%  c #BC650A",
"&  c #BD680F",
"*  c #AB6016",
"=  c #AB6119",
"-  c #B46211",
";  c #B96612",
":  c #BD6811",
">  c #B2611B",
",  c #BB7034",
"<  c #C16301",
"1  c #C96500",
"2  c #C26900",
"3  c #C46B0C",
"4  c #D07300",
"5  c #DB7400",
"6  c #DB7A00",
"7  c #D1750E",
"8  c #C06C15",
"9  c #C36E1B",
"0  c #D37A14",
"q  c #D1761B",
"w  c #D57A1D",
"e  c #E37C00",
"r  c #E27F0A",
"t  c #C37021",
"y  c #D17721",
"u  c #D17926",
"i  c #D97E25",
"p  c #D27A2A",
"a  c #D97F2C",
"s  c #C37735",
"d  c #BB7540",
"f  c #BA794D",
"g  c #BB7A50",
"h  c #C77D43",
"j  c #CB7F42",
"k  c #C27C4C",
"l  c #DF801F",
"z  c #EC8B06",
"x  c #E38014",
"c  c #E3831E",
"v  c #ED8918",
"b  c #F18E1E",
"n  c #DC8125",
"m  c #D9802D",
"M  c #CD803E",
"N  c #ED8A25",
"B  c #E3892C",
"V  c #E08939",
"C  c #F69535",
"Z  c #FA9633",
"A  c #FF9A33",
"S  c #F6963A",
"D  c #FB9739",
"F  c #F7993C",
"G  c #F8993C",
"H  c #FFA73A",
"J  c #FFA839",
"K  c #BE8C6F",
"L  c #BE9278",
"P  c #C5845C",
"I  c #ED974D",
"U  c #E2955B",
"Y  c #C08D72",
"T  c #CF9773",
"R  c #C2977F",
"E  c #E49B64",
"W  c #C49B84",
"Q  c #C19E8A",
"!  c #D0A184",
"~  c #D8B49E",
"^  c #EBAC83",
"/  c #E6B79B",
"(  c #EDBA9C",
")  c #CEB5A7",
"_  c #CBB6A9",
"`  c #CBBAAF",
"'  c #DCBEAD",
"]  c #CCBCB2",
"[  c #E7BDA4",
"{  c #CFC2B9",
"}  c #D2C5BC",
"|  c #EACAB6",
" . c #E0C9BE",
".. c #EACBBA",
"X. c #F5CDB7",
"o. c #D8CCC4",
"O. c #D3CFC8",
"+. c #D6D2CD",
"@. c #D9D4CE",
"#. c #D5D4D0",
"$. c #D9D6D0",
"%. c #D7D8D4",
"&. c #DCD9D5",
"*. c #DFDCD8",
"=. c #EBD1C2",
"-. c #E3D4CB",
";. c #F3DACB",
":. c #E5DBD3",
">. c #F1DFD4",
",. c #E1E1DF",
"<. c #F2E5DC",
"1. c #F8E7DD",
"2. c #F2ECE6",
"3. c #F4EEE9",
"4. c #F3F1EE",
"5. c #FAF4EF",
"6. c #F5F5F2",
"7. c #FCF9F5",
"8. c None",
/* pixels */
"8.8.8.8.8.8.8.8.8.8.8.8.8.8.8.8.8.8.8.8.8.8.8.8.8.8.8.8.8.8.8.8.",
"8.8.8.8.8.8.8.8.8.8.8.8.8.F S S G 8.8.8.8.8.8.8.8.8.8.8.8.8.8.8.",
"8.8.8.8.8.8.8.8.8.8.8.8.8.H Z Z J F 8.8.8.8.8.8.8.8.8.8.8.8.8.8.",
"8.8.8.8.8.8.8.8.8.8.8.8.S A C C Z C 8.8.8.8.8.8.8.8.8.8.8.8.8.8.",
"8.8.8.8.8.8.8.8.8.8.8.8.C D S S S Z 8.8.8.8.8.8.8.8.8.8.8.8.8.8.",
"8.8.8.8.8.8.8.8.8.8.8.8.N e e e e b 8.8.8.8.8.8.8.8.8.8.8.8.8.8.",
"8.8.8.8.8.8.8.8.8.8.8.z ;.:. . .-.>.I 8.8.8.8.8.8.8.8.8.8.8.8.8.",
"8.8.8.8.8.8.8.8.8.8.8.E 5.7.7.7.7.7.^ 8.8.8.8.8.8.8.8.8.8.8.8.8.",
"8.8.8.8.8.8.8.8.8.8.8.( 6.3.3.3.3.6.X.8.8.8.8.8.8.8.8.8.8.8.8.8.",
"8.8.8.8.8.8.8.8.8.8.e ;.6.2.3.3.2.4.1.B 8.8.8.8.8.8.8.8.8.8.8.8.",
"8.8.8.8.8.8.8.8.8.8.V <.6.4.4.4.4.6.2.U 8.8.8.8.8.8.8.8.8.8.8.8.",
"8.8.8.8.8.8.8.8.8.8.c U / | =.=...[ E v 8.8.8.8.8.8.8.8.8.8.8.8.",
"8.8.8.8.8.8.8.8.8.8.N 6 5 5 5 5 5 5 6 N n 8.8.8.8.8.8.8.8.8.8.8.",
"8.8.8.8.8.8.8.8.8.n c i m m a a m m i l i 8.8.8.8.8.8.8.8.8.8.8.",
"8.8.8.8.8.8.8.8.8.i w w w w w w w w w w n 8.8.8.8.8.8.8.8.8.8.8.",
"8.8.8.8.8.8.8.8.8.r p w q q q q q q q p x 0 8.8.8.8.8.8.8.8.8.8.",
"8.8.8.8.8.8.8.8.M h 1 4 q u u u u y 7 1 s j 8.8.8.8.8.8.8.8.8.8.",
"8.8.8.8.8.8.8.8.T @.Q d # # < < < # , L +.! 8.8.8.8.8.8.8.8.8.8.",
"8.8.8.8.8.8.8.8.~ ,.*.@.} ] _ _ ` { +.*.,.' 8.8.8.8.8.8.8.8.8.8.",
"8.8.8.8.8.9 9 2 } &.@.&.*.*.*.*.*.*.&.@.&.o.t 3 9 8.8.8.8.8.8.8.",
"8.8.8.8.8 q 2 k $.@.@.@.+.+.+.+.+.+.@.@.@.%.P < q 8 8.8.8.8.8.8.",
"8.8.8.8.: & ; # ) %.@.+.+.+.+.+.+.+.+.#.%.) # : & 8 8.8.8.8.8.8.",
"8.8.8.8.3 % ; # # W { O.+.#.#.#.+.+.O.} W # # ; % 3 8.8.8.8.8.8.",
"8.8.8.- 3 $ @ $ - X o f K R W W W Y g o X - $ $ $ % ; 8.8.8.8.8.",
"8.8.8.$ @ O @ @ $ > - o X X X X X X o - > $ @ @ @ @ $ 8.8.8.8.8.",
"8.8.8.% o O O O O o O - > > > > > > - O O O O O O O % 8.8.8.8.8.",
"8.8.. #                                             # O 8.8.8.8.",
"8.8.. o                                             o . 8.8.8.8.",
"8.8.                                                    8.8.8.8.",
"8.8.# o o o o o o o o o o o o o o o o o o o o o o o o < 8.8.8.8.",
"8.8.8.= * = = * * + + + + + + * = = = = + + + + . + + 8.8.8.8.8.",
"8.8.8.8.8.8.8.8.8.8.8.8.8.8.8.8.8.8.8.8.8.8.8.8.8.8.8.8.8.8.8.8."
};
