<?xml version="1.0" encoding="UTF-8"?>
<svg viewBox="0 0 114 114" transform="translate(33,33)" xmlns="http://www.w3.org/2000/svg">
 <path transform="translate(-96.46 -120.56)" d="M116.707 155.527c-.705-.135-1.47-.697-2.293-1.683a13.593 13.593 0 0 1-2.512-4.488c-.48-1.446-.606-2.127-.657-3.57-.038-1.086-.019-1.419.13-2.135.504-2.43 2.238-4.268 4.474-4.738.974-.205 1.632-.124 3.168.388.72.24 1.444.437 1.607.437.162 0 .864-.192 1.558-.427 1.557-.525 2.284-.64 3.228-.512 1.364.186 2.333.641 3.201 1.505.295.293.535.566.534.606 0 .04-.197.204-.436.366a4.726 4.726 0 0 0-1.84 2.591c-.066.254-.122.81-.123 1.236-.002 1.44.386 2.4 1.37 3.395.355.36.869.779 1.141.932.571.322.568.23.05 1.426-.563 1.301-1.93 3.25-2.75 3.922-.21.172-.605.415-.878.54-.713.326-1.447.268-2.88-.23-.978-.34-1.144-.372-1.888-.37-.737.003-.925.04-1.973.394-1.224.414-1.74.51-2.23.415zm3.798-17.44c.149-1.976 1.522-3.661 3.549-4.359.268-.092.617-.167.774-.167.287 0 .287 0 .287.424 0 1.123-.489 2.258-1.385 3.218-.922.986-1.902 1.505-2.844 1.505h-.428l.046-.622z" fill="#FF8800"/>
 <path transform="translate(-96.46 -120.56)" d="M100.46 130.56v28h40v-28zm3 1h3v3h-3zm31 0h3v3h-3zm-9.631 2c.286 0 .287 0 .287.425 0 1.122-.49 2.258-1.387 3.218-.921.987-1.9 1.506-2.844 1.506h-.427l.047-.623c.149-1.975 1.521-3.66 3.548-4.357.268-.093.618-.168.776-.168zm-21.37 3.75h3v3h-3zm31 0h3v3h-3zm-9.732 1.44c.225 0 .448.015.684.049 1.364.186 2.332.642 3.2 1.506.296.293.535.565.534.605 0 .04-.197.204-.435.365a4.728 4.728 0 0 0-1.84 2.592c-.068.253-.123.81-.124 1.237-.002 1.438.386 2.4 1.37 3.394.355.36.87.778 1.142.932.571.32.567.23.049 1.425-.564 1.302-1.93 3.25-2.75 3.922-.21.172-.606.416-.879.541-.713.327-1.446.268-2.879-.23-.978-.34-1.145-.372-1.888-.37-.738.003-.926.04-1.973.393-1.225.414-1.74.51-2.23.416-.706-.136-1.472-.697-2.296-1.683a13.596 13.596 0 0 1-2.511-4.489c-.48-1.446-.605-2.125-.657-3.568-.038-1.086-.018-1.42.131-2.137.504-2.43 2.239-4.268 4.475-4.738.973-.205 1.631-.124 3.168.389.72.24 1.442.437 1.605.437.163 0 .864-.193 1.559-.428 1.168-.394 1.87-.557 2.545-.56zm-21.267 4.31h3v3h-3zm31 0h3v3h-3zm-31 5.75h3v3h-3zm31 0h3v3h-3zm-31 5.75h3v3h-3zm31 0h3v3h-3z" fill="#747474" fill-rule="evenodd"/>
</svg>
