<?xml version="1.0" encoding="UTF-8"?>
<svg version="1.1" viewBox="0 0 114 114" transform="translate(33,33)" xmlns="http://www.w3.org/2000/svg">
  <path d="m19.93 7.3218 4.6428 4.6428h14.28c1.3539 2.79e-4 2.6537 0.53876 3.6109 1.4962 0.95747 0.95717 1.4959 2.2571 1.4962 3.6109v18.571c4.6e-5 1.3543-0.53846 2.6534-1.4962 3.6109-0.95738 0.95698-2.2572 1.4962-3.6109 1.4962h-29.714c-1.3537 0-2.6535-0.53922-3.6109-1.4962-0.95777-0.95754-1.4963-2.2566-1.4962-3.6109v-23.214c2.879e-4 -1.3539 0.53877-2.6538 1.4962-3.6109 0.95717-0.95745 2.257-1.4959 3.6109-1.4962zm-1.1535 2.7857h-9.6375c-0.61616 9.3e-5 -1.2057 0.24431-1.6413 0.68008-0.43576 0.43568-0.67997 1.0251-0.6801 1.6413v23.214c-1.86e-5 0.61638 0.2442 1.2056 0.6801 1.6413 0.43572 0.4355 1.0252 0.68008 1.6413 0.68008h29.714c0.61608 0 1.2056-0.24458 1.6413-0.68008 0.4359-0.43578 0.68012-1.025 0.6801-1.6413v-18.571c-1.3e-4 -0.6162-0.24434-1.2057-0.6801-1.6413-0.43563-0.43578-1.0252-0.67999-1.6413-0.68008h-15.434z"  fill="#ff00ff"/>
</svg>
