<?xml version="1.0" encoding="UTF-8"?>
<svg viewBox="0 0 114 114" transform="translate(33,33)" xmlns="http://www.w3.org/2000/svg">
 <g transform="translate(-384 -1004.4)" fill-rule="evenodd">
  <path d="m403.1 1013.7a15.5 15.5 0 0 0-10.602 14.693h9.5a6 6 0 0 1 4.105-5.685zm10.898 14.693a6 6 0 0 1-4.105 5.686l3.003 9.008a15.5 15.5 0 0 0 10.602-14.694z" fill="#FF8800"/>
  <path d="m408 1008.4a20 20 0 0 0-20 20 20 20 0 0 0 20 20 20 20 0 0 0 20-20 20 20 0 0 0-20-20zm0 3a17 17 0 0 1 17 17 17 17 0 0 1-17 17 17 17 0 0 1-17-17 17 17 0 0 1 17-17z" fill="#747474"/>
  <circle cx="408" cy="1028.4" r="4.5" fill="#747474"/>
  <path d="m408 1011.4a17 17 0 0 0-17 17 17 17 0 0 0 17 17 17 17 0 0 0 17-17 17 17 0 0 0-17-17zm-4.898 2.307 3.003 9.008a6 6 0 0 0-4.105 5.685h-9.5a15.5 15.5 0 0 1 10.602-14.693zm4.898 10.193a4.5 4.5 0 0 1 4.5 4.5 4.5 4.5 0 0 1-4.5 4.5 4.5 4.5 0 0 1-4.5-4.5 4.5 4.5 0 0 1 4.5-4.5zm6 4.5h9.5a15.5 15.5 0 0 1-10.602 14.694l-3.003-9.008a6 6 0 0 0 4.105-5.686z" fill="#fafafa"/>
 </g>
</svg>
