<?xml version="1.0" encoding="UTF-8"?>
<svg viewBox="0 0 48 48" xmlns="http://www.w3.org/2000/svg">
 <g transform="translate(-96.46 -120.56)" fill-rule="evenodd">
  <path d="M120.461 132.56a16.998 15 0 0 0-16.711 12.298 6 6 0 0 0-1.287 3.703 6 6 0 0 0 6 6 6 6 0 0 0 5.999-6 6 6 0 0 0-6-6 6 6 0 0 0-2.34.482 14.999 12 0 0 1 14.34-8.482 14.999 12 0 0 1 14.316 8.467 6 6 0 0 0-2.318-.467 6 6 0 0 0-6 6 6 6 0 0 0 6 6 6 6 0 0 0 6-6 6 6 0 0 0-1.295-3.723 16.998 15 0 0 0-16.704-12.277z" fill="#747474"/>
  <g fill="#747474">
   <path transform="matrix(.33672 0 0 .33675 106.66 126.15)" d="M99.724-4.72 82.945-2.632c-.825.257-.467 1.3-.545 1.966v19.083c-1.228-.88-2.796-1.136-4.214-.672-1.565.338-3.101 1.656-3.022 3.455-.152 1.709 1.077 3.304 2.693 3.565 1.322.27 2.73.294 4.034-.07 1.802-.659 3.176-2.533 2.992-4.572V2.756l13.024-1.138v14.68c-1.755-1.115-4.04-.96-5.8.043-2.222 1.319-1.773 5.304.62 6.15 1.227.475 2.588.483 3.872.358 1.853-.378 3.69-1.846 3.774-3.951.039-7.66.006-15.324.017-22.985-.007-.345-.316-.703-.666-.632z" fill="#747474"/>
  </g>
  <g fill="#747474">
   <path transform="matrix(.26882 0 0 .27262 80.606 129.84)" d="M99.217-4.69 81.9-2.626c-.852.255-.482 1.285-.563 1.944V18.18a5.06 5.06 0 0 0-4.35-.665c-1.614.335-3.2 1.637-3.119 3.415-.156 1.69 1.112 3.266 2.78 3.524 1.364.267 2.818.291 4.164-.068 1.86-.652 3.278-2.505 3.088-4.52V2.7l13.443-1.125v14.51c-1.81-1.102-4.17-.95-5.987.043-2.293 1.303-1.83 5.242.64 6.078 1.267.47 2.671.478 3.997.354 1.912-.373 3.809-1.824 3.895-3.905.04-7.572.006-15.146.018-22.72-.008-.34-.326-.694-.688-.624z" fill="#747474"/>
  </g>
  <ellipse cx="120.46" cy="149.56" rx="12.999" ry="13" fill="#f80"/>
 </g>
</svg>
