<?xml version="1.0" encoding="UTF-8"?>
<svg viewBox="0 0 114 114" transform="translate(33,33)" xmlns="http://www.w3.org/2000/svg">
 <g>
  <path transform="translate(-384 -1004.4)" d="M396 1008.362c-2.216 0-4 1.784-4 4v32c0 2.216 1.784 4 4 4h24c2.216 0 4-1.784 4-4v-32c0-2.216-1.784-4-4-4zm1 3a2 2 0 0 1 2 2 2 2 0 0 1-2 2 2 2 0 0 1-2-2 2 2 0 0 1 2-2zm22 0a2 2 0 0 1 2 2 2 2 0 0 1-2 2 2 2 0 0 1-2-2 2 2 0 0 1 2-2zm-11 2a11 11 0 0 1 11 11 11 11 0 0 1-10.082 10.955l1.93-3.217a1.165 1.165 0 0 0-1.659-1.544l-6.078 3.646a11 11 0 0 1-6.111-9.84 11 11 0 0 1 11-11zm0 7a4 4 0 0 0-4 4 4 4 0 0 0 4 4 4 4 0 0 0 4-4 4 4 0 0 0-4-4zm7.691 15.692 4.309 4.308v4h-24v-4l3.557-3.556a3.634 3.634 0 0 0 .507 4.492 3.638 3.638 0 0 0 5.606-.565l1.445-2.408a14 14 0 0 0 .885.037 14 14 0 0 0 7.691-2.309z" fill="#747474" fill-rule="evenodd"/>
 </g>
</svg>
