<?xml version="1.0" encoding="UTF-8"?>
<svg viewBox="0 0 48 48" xmlns="http://www.w3.org/2000/svg">
 <path transform="translate(-96.46 -120.56)" d="m100.46 138.77 2.858 1a18.183 18.183 0 0 1 17.142-12.183 18.183 18.183 0 0 1 17.143 12.183l2.857-1a21.213 21.213 0 0 0-20-14.213 21.213 21.213 0 0 0-20 14.213zm5.713 2 2.857 1a12.122 12.122 0 0 1 11.43-8.122 12.122 12.122 0 0 1 11.427 8.123l2.859-1a15.152 15.152 0 0 0-14.286-10.153 15.152 15.152 0 0 0-14.287 10.153zm5.714 2 2.859 1a6.061 6.061 0 0 1 5.714-4.06 6.061 6.061 0 0 1 5.713 4.06l2.857-0.999a9.091 9.091 0 0 0-8.57-6.092 9.091 9.091 0 0 0-8.573 6.09z" fill="#ff950d" fill-rule="evenodd"/>
 <path transform="translate(-96.46 -120.56)" d="m120.545 144.56-8.04 2.22 8.302 3.412 7.665-3.73zm8.733 2.434-8.042 3.914v13.546l8.042-7.715zm-17.637.329v10.193l8.766 7.045v-13.636Z" fill="#747474" fill-rule="evenodd"/>
</svg>
