<?xml version="1.0" encoding="UTF-8" standalone="no"?>
<!-- Created with Inkscape (http://www.inkscape.org/) -->

<svg
   xmlns:dc="http://purl.org/dc/elements/1.1/"
   xmlns:cc="http://creativecommons.org/ns#"
   xmlns:rdf="http://www.w3.org/1999/02/22-rdf-syntax-ns#"
   xmlns:svg="http://www.w3.org/2000/svg"
   xmlns="http://www.w3.org/2000/svg"
   xmlns:sodipodi="http://sodipodi.sourceforge.net/DTD/sodipodi-0.dtd"
   xmlns:inkscape="http://www.inkscape.org/namespaces/inkscape"
   width="48"
   height="48"
   viewBox="0 0 48 48"
   version="1.1"
   id="svg5502"
   inkscape:version="0.92.1 r15371"
   sodipodi:docname="jamendo.svg">
  <defs
     id="defs5496" />
  <sodipodi:namedview
     id="base"
     pagecolor="#ffffff"
     bordercolor="#666666"
     borderopacity="1.0"
     inkscape:pageopacity="0.0"
     inkscape:pageshadow="2"
     inkscape:zoom="4.5052083"
     inkscape:cx="147.33666"
     inkscape:cy="22.634612"
     inkscape:document-units="px"
     inkscape:current-layer="layer1"
     showgrid="true"
     fit-margin-top="0"
     fit-margin-left="0"
     fit-margin-right="0"
     fit-margin-bottom="0"
     inkscape:window-width="1920"
     inkscape:window-height="1016"
     inkscape:window-x="1366"
     inkscape:window-y="27"
     inkscape:window-maximized="1"
     units="px"
     inkscape:snap-global="true"
     inkscape:snap-bbox="true"
     inkscape:bbox-paths="true"
     inkscape:bbox-nodes="true"
     inkscape:snap-bbox-edge-midpoints="true"
     inkscape:snap-bbox-midpoints="true"
     inkscape:snap-nodes="true"
     inkscape:object-paths="true"
     inkscape:snap-midpoints="true"
     inkscape:snap-smooth-nodes="true"
     inkscape:snap-intersection-paths="true">
    <inkscape:grid
       type="xygrid"
       id="grid6077" />
  </sodipodi:namedview>
  <metadata
     id="metadata5499">
    <rdf:RDF>
      <cc:Work
         rdf:about="">
        <dc:format>image/svg+xml</dc:format>
        <dc:type
           rdf:resource="http://purl.org/dc/dcmitype/StillImage" />
        <dc:title></dc:title>
      </cc:Work>
    </rdf:RDF>
  </metadata>
  <g
     inkscape:label="Layer 1"
     inkscape:groupmode="layer"
     id="layer1"
     transform="translate(-96.459526,-120.56071)">
    <path
       style="color:#000000;display:inline;overflow:visible;visibility:visible;opacity:1;fill:#ff950d;fill-opacity:1;fill-rule:evenodd;stroke:none;stroke-width:2.99998307;stroke-linecap:butt;stroke-linejoin:round;stroke-miterlimit:4;stroke-dasharray:none;stroke-dashoffset:4.19999981;stroke-opacity:1;marker:none;enable-background:accumulate"
       d="m 120.45604,124.56071 a 0.05523284,0.05523344 0 0 0 -0.008,9.9e-4 0.05523284,0.05523344 0 0 0 -0.0189,0.008 l -17.27302,9.97254 a 0.05523284,0.05523344 0 0 0 -0.0276,0.0476 v 19.94509 a 0.05523284,0.05523344 0 0 0 0.0276,0.0476 l 17.27302,9.9713 a 0.05523284,0.05523344 0 0 0 0.0548,0 l 17.27308,-9.9713 a 0.05523284,0.05523344 0 0 0 0.0265,-0.0476 v -19.94509 a 0.05523284,0.05523344 0 0 0 -0.0265,-0.0476 l -17.27293,-9.97254 a 0.05523284,0.05523344 0 0 0 -0.0302,-0.008 z m 0.004,3.31919 14.44754,8.34168 v 16.68086 l -14.44754,8.34047 -14.44752,-8.34047 v -16.68086 z m 0.50985,10.87853 c -0.40939,0.0302 -0.79626,0.25588 -1.01725,0.63984 l -5.10615,8.87406 c -0.35376,0.61452 -0.14324,1.39351 0.47111,1.74709 0.61451,0.35339 1.3935,0.14324 1.74707,-0.47112 l 5.10619,-8.87406 c 0.35339,-0.61452 0.14325,-1.39351 -0.47115,-1.74709 -0.23055,-0.13266 -0.48415,-0.18633 -0.72982,-0.16857 z m 4.30768,0 c -0.46345,-0.034 -0.94098,0.21959 -1.19848,0.68485 l -2.47935,4.47889 c -0.34317,0.6203 -0.16025,1.37405 0.40989,1.68957 l 0.18104,0.10015 c 0.57017,0.31559 1.30506,0.0703 1.64835,-0.54984 l 2.47938,-4.47889 c 0.34318,-0.6203 0.16025,-1.37405 -0.40992,-1.6896 l -0.18104,-0.10016 c -0.14249,-0.079 -0.29556,-0.12321 -0.44987,-0.13493 z m 4.67254,0 c -0.40943,0.0302 -0.79751,0.25588 -1.0185,0.63984 l -5.10495,8.87406 c -0.35338,0.61452 -0.14325,1.39351 0.47115,1.74709 0.61447,0.35339 1.3935,0.14324 1.74703,-0.47112 l 5.10619,-8.87406 c 0.35339,-0.61452 0.14325,-1.39351 -0.47115,-1.74709 -0.23055,-0.13266 -0.48414,-0.18633 -0.72977,-0.16857 z m -16.15836,4.34268 c -0.46345,-0.034 -0.94098,0.21846 -1.19844,0.6836 l -2.47935,4.47889 c -0.34333,0.6203 -0.16025,1.37405 0.40989,1.6896 l 0.18104,0.10016 c 0.57013,0.31559 1.30505,0.0703 1.64834,-0.54985 l 2.47935,-4.47889 c 0.34318,-0.62029 0.16025,-1.37404 -0.40989,-1.6896 l -0.18141,-0.10015 c -0.14249,-0.079 -0.29556,-0.12208 -0.44987,-0.1338 z"
       id="path10371"
       inkscape:connector-curvature="0" />
  </g>
</svg>
