<?xml version="1.0" encoding="UTF-8"?>
<svg viewBox="0 0 114 114" transform="translate(33,33)" xmlns="http://www.w3.org/2000/svg">
 <path transform="translate(-96.46 -120.56)" d="M120.456 124.56a.055.055 0 0 0-.008.002.055.055 0 0 0-.019.008l-17.273 9.972a.055.055 0 0 0-.027.048v19.945a.055.055 0 0 0 .027.048l17.273 9.97a.055.055 0 0 0 .055 0l17.273-9.97a.055.055 0 0 0 .027-.048V134.59a.055.055 0 0 0-.027-.048l-17.273-9.972a.055.055 0 0 0-.03-.008zm.004 3.32 14.448 8.342v16.68l-14.448 8.34-14.447-8.34v-16.68zm.51 10.878c-.41.03-.796.256-1.017.64l-5.107 8.874a1.277 1.277 0 0 0 .472 1.747 1.277 1.277 0 0 0 1.747-.47l5.106-8.875a1.277 1.277 0 0 0-.471-1.747 1.275 1.275 0 0 0-.73-.168zm4.308 0c-.464-.034-.941.22-1.199.685l-2.48 4.48c-.342.62-.16 1.373.41 1.689l.182.1c.57.315 1.305.07 1.648-.55l2.48-4.479c.343-.62.16-1.374-.41-1.69l-.182-.1a1.096 1.096 0 0 0-.45-.135zm4.672 0a1.28 1.28 0 0 0-1.018.64l-5.105 8.874a1.277 1.277 0 0 0 .47 1.747 1.277 1.277 0 0 0 1.748-.47l5.106-8.875a1.277 1.277 0 0 0-.471-1.747 1.275 1.275 0 0 0-.73-.168zm-16.158 4.343c-.464-.034-.941.219-1.199.684l-2.479 4.479c-.343.62-.16 1.374.41 1.69l.18.1c.571.315 1.306.07 1.65-.55l2.479-4.48c.343-.62.16-1.373-.41-1.689l-.182-.1a1.095 1.095 0 0 0-.45-.134z" fill="#FF8800" fill-rule="evenodd"/>
</svg>
