<?xml version="1.0" encoding="UTF-8"?>
<svg viewBox="0 0 48 48" xmlns="http://www.w3.org/2000/svg">
 <path transform="translate(-96.46 -120.56)" d="M104.46 124.56c-2.216 0-4 1.785-4 4v32c0 2.217 1.784 4 4 4h32c2.216 0 4-1.783 4-4v-32c0-2.215-1.784-4-4-4zm16 3.5c9.112 0 16.5 7.388 16.5 16.5 0 9.113-7.388 16.5-16.5 16.5-9.113 0-16.5-7.387-16.5-16.5 0-9.112 7.387-16.5 16.5-16.5zm-3.653 9.458a.646.646 0 0 0-.347.18c-.95.948-.923 12.834.03 13.888.139.153.349.277.466.277.808 0 6.558-3.533 9.15-5.622 1.121-.905 1.274-1.087 1.314-1.562.041-.493-.026-.6-.82-1.276-2.404-2.047-5.104-3.886-7.557-5.146-1.14-.586-1.814-.817-2.236-.739z" fill="#ff950d" fill-rule="evenodd"/>
</svg>
