<?xml version="1.0" encoding="UTF-8"?>
<svg version="1.1" viewBox="0 0 48 48" xmlns="http://www.w3.org/2000/svg">
 <path d="M24 3.95A21 21 0 0 0 23 4v2.985a18 18 0 0 1 1-.034 18 18 0 0 1 17.298 13.05h3.084a21 21 0 0 0-20.383-16.05zm0 6a15 15 0 0 0-1 .049v2.998a12 12 0 0 1 1-.047A12 12 0 0 1 34.915 20h3.227A15 15 0 0 0 23.999 9.95zm0 6a9 9 0 0 0-1 .06v3.026a6 6 0 0 1 1-.086A6 6 0 0 1 27.39 20h4.12A9 9 0 0 0 24 15.95zM3.629 28a21 21 0 0 0 20.37 16 21 21 0 0 0 1-.05v-2.984a18 18 0 0 1-1 .034 18 18 0 0 1-17.28-13zm6.247 0a15 15 0 0 0 14.123 10 15 15 0 0 0 1-.048v-2.998a12 12 0 0 1-1 .047 12 12 0 0 1-10.892-7zm6.645 0a9 9 0 0 0 7.478 4 9 9 0 0 0 1-.06v-3.025a6 6 0 0 1-1 .086 6 6 0 0 1-3.308-1z" fill="#ff950d" fill-rule="evenodd"/>
 <path d="m45.875 29.154h-3.6837l-3.8002-7.3237h-0.0582q0.0291 0.33488 0.0582 0.81536 0.0291 0.46592 0.0437 0.9464 0.0291 0.48048 0.0291 0.8736v4.6883h-2.4898v-10.396h3.6691l3.7856 7.2218h0.0437q-0.0146-0.33488-0.0437-0.78624t-0.0437-0.91728-0.0146-0.81536v-4.7029h2.5043zm-14.094 0-0.5096-1.951h-3.3779l-0.52416 1.951h-3.0867l3.3925-10.44h3.7419l3.4362 10.44zm-1.092-4.2515-0.45136-1.7035q-0.0728-0.27664-0.20384-0.78624-0.13104-0.52416-0.26208-1.0774t-0.20384-0.90272q-0.0582 0.34944-0.18928 0.8736-0.11648 0.52416-0.24752 1.0338-0.11648 0.5096-0.20384 0.85904l-0.45136 1.7035zm-7.5275 4.2515h-2.8246v-4.237h-3.2614v4.237h-2.8246v-10.396h2.8246v3.8584h3.2614v-3.8584h2.8246zm-13.73-8.241q-0.99008 0-1.5579 0.81536t-0.56784 2.2714q0 1.4706 0.56784 2.2422 0.56784 0.75712 1.7181 0.75712 0.68432 0 1.325-0.18928 0.6552-0.18928 1.3104-0.46592v2.3733q-0.68432 0.30576-1.4123 0.4368-0.71344 0.1456-1.5288 0.1456-1.689 0-2.7664-0.66976t-1.587-1.8637q-0.5096-1.2085-0.5096-2.781t0.5824-2.781 1.7035-1.8928q1.1357-0.69888 2.7518-0.69888 0.75712 0 1.587 0.17472t1.6307 0.55328l-0.85904 2.2131q-0.56784-0.27664-1.1502-0.45136-0.5824-0.18928-1.2376-0.18928z" fill="#757575"/>
</svg>
