<?xml version="1.0" encoding="UTF-8"?>
<svg viewBox="0 0 48 48" xmlns="http://www.w3.org/2000/svg">
 <path transform="translate(-96.46 -120.56)" d="m122.25 124.56-1 2.86a18.183 18.183 0 0 1 12.183 17.14 18.183 18.183 0 0 1-12.183 17.144l1 2.857a21.213 21.213 0 0 0 14.214-20 21.213 21.213 0 0 0-14.214-20zm-2 5.714-1 2.857a12.122 12.122 0 0 1 8.122 11.43 12.122 12.122 0 0 1-8.123 11.427l1 2.859a15.152 15.152 0 0 0 10.154-14.286 15.152 15.152 0 0 0-10.153-14.287zm-1.999 5.714-1 2.859a6.061 6.061 0 0 1 4.06 5.714 6.061 6.061 0 0 1-4.06 5.713l0.998 2.857a9.091 9.091 0 0 0 6.093-8.57 9.091 9.091 0 0 0-6.091-8.573z" fill="#ff950d" fill-rule="evenodd"/>
 <path transform="translate(-96.46 -120.56)" d="M110.46 138.56a6 6 0 0 0-6 6 6 6 0 0 0 3.144 5.276c-.981 3.125-2.025 7.905-3.144 14.725h12c-.985-5.969-2.001-11.215-3.084-14.764a6 6 0 0 0 3.084-5.236 6 6 0 0 0-6-6z" fill="#757575" fill-rule="evenodd"/>
</svg>
