<?xml version="1.0" encoding="UTF-8"?>
<svg viewBox="0 0 48 48" xmlns="http://www.w3.org/2000/svg">
 <path transform="translate(-96.46 -120.56)" d="M111.46 137.56c-1.108 0-2 .893-2 2v10c0 1.109.892 2 2 2h12c1.108 0 2-.891 2-2v-3l6 5v-14l-6 5v-3c0-1.107-.892-2-2-2z" fill="#ff950d" fill-rule="evenodd"/>
 <path transform="translate(-96.46 -120.56)" d="m104.46 128.56c-2.216 0-4 1.785-4 4v24c0 2.217 1.784 4 4 4h8v2h16v-2h8c2.216 0 4-1.783 4-4v-24c0-2.215-1.784-4-4-4zm0 4h32v24h-32z" fill="#747474" fill-rule="evenodd"/>
</svg>
