<?xml version="1.0" encoding="UTF-8"?>
<svg viewBox="0 0 114 114" transform="translate(33,33)" xmlns="http://www.w3.org/2000/svg">
 <g>
  <path transform="translate(-379.99 -1004.2)" d="M403.994 1008.215a20 20 0 0 0-5.753.862l1.429 2.381 2.162.54 1.081-2.702 2.064-1.032a20 20 0 0 0-.983-.049zm4.065.422 1.881 2.821 1.712-1.712a20 20 0 0 0-3.593-1.109zm-14.313 2.428a20 20 0 0 0-9.372 13.303l2.863-.477 1.081 2.162h1.081l-.54-1.622 2.162-1.622-1.081-1.08 1.622-1.082h1.08v-2.162l5.406-2.162zm21.059 1.474-1.081 1.081 1.621 1.622-.54 1.08h1.621v-1.62zm-1.622 1.622-1.08 1.621 1.08 1.081.54-1.621zm5.946 1.08-1.621 1.622h-1.082l-1.08.541-.541.54.54.541v1.081h-2.702l1.621 3.243 2.703-2.702h1.081l1.081-.54.54.54 1.082 1.08.54 1.082 1.081-1.081-.54-.54-.54-1.082-.541-1.08h.69a20 20 0 0 0-2.084-3.049zm.54 5.947v1.08h1.082l-.54-1.08zm-3.783 1.08-5.406 4.325.541 5.406 1.622 1.621h4.865l1.621 1.622-1.08.54 1.62 1.622.541 2.162v.324a20 20 0 0 0 3.784-11.675 20 20 0 0 0-.704-5.242l-.377.377-.54.54-1.082.541-.54-.54h-1.081l-.54-1.622zm-24.865 3.244-1.081.54 1.081.541zm-5.405 1.622-1.617 1.212a20 20 0 0 0 .201 2.571h1.956l1.081 1.622h1.622v1.622l-.54 1.08 1.621 5.406 1.622.54-.463 2.315a20 20 0 0 0 6.793 3.75l5.021-5.524v-2.162l1.081-1.622-3.784-2.702h-1.621l-.54-2.162-1.623-.54-.54-1.082-2.703-.54-1.621-.541-.541.54-1.081.541-2.162-.54-.54-1.082h-1.082l.54-1.621zm2.702 0-.54.54 2.162 1.081v-1.621zm3.244.54v.54s2.162 1.623 2.702 1.623.54-.541.54-.541z" fill="#FF8800" fill-rule="evenodd"/>
  <path transform="translate(-379.99 -1004.2)" d="M404.137 1008.223a20 20 0 0 1 .84.041l-2.063 1.032-1.082 2.703-2.162-.541-1.428-2.381a20 20 0 0 1 5.086-.826 20 20 0 0 0-9.578 2.818l4.299 5.254-5.407 2.162v2.162h-1.08l-1.623 1.082 1.082 1.08-2.162 1.621.541 1.623h-1.082l-1.08-2.162-2.851.475a20 20 0 0 0-.393 3.852 20 20 0 0 0 .006.126l1.615-1.21 1.082 1.082-.54 1.62h1.081l.54 1.08 2.161.542 1.082-.541.541-.54 1.622.54 2.703.54.539 1.083 1.623.539.539 2.162h1.623l3.783 2.703-1.08 1.621v2.162l-5.014 5.514a20 20 0 0 0 6.094.977 20 20 0 0 0 16.217-8.338v-.315l-.541-2.162-1.621-1.621 1.08-.541-1.621-1.621h-4.866l-1.62-1.621-.542-5.406 5.407-4.325h3.242l.54 1.623h1.08l.542.54 1.082-.54.539-.54.363-.364a20 20 0 0 0-11.633-13.23l-1.703 1.7-1.865-2.796a20 20 0 0 0-3.937-.438zm4.595.586a20 20 0 0 1 .85.217 20 20 0 0 0-.85-.217zm1.606.467a20 20 0 0 1 1.162.416 20 20 0 0 0-1.162-.416zm-16.703 1.864a20 20 0 0 0-1.487.992 20 20 0 0 1 1.487-.992zm-1.645 1.113a20 20 0 0 0-1.379 1.13 20 20 0 0 1 1.38-1.13zm22.815.287 1.62 2.162v1.621h-1.62l.54-1.082-1.62-1.621zm-24.377 1.016a20 20 0 0 0-1.2 1.205 20 20 0 0 1 1.2-1.205zm22.755.605.541 1.08-.54 1.623-1.083-1.082zm-24.203.88a20 20 0 0 0-1.013 1.249 20 20 0 0 1 1.013-1.248zm30.149.2.228.197a20 20 0 0 1 2.084 3.047h-.691l.54 1.08.542 1.082.54.541-1.081 1.08-.541-1.08-1.08-1.082-.541-.54-1.08.54h-1.082l-2.703 2.703-1.622-3.244h2.704v-1.08l-.541-.54.54-.542 1.08-.539h1.083zm-31.399 1.379a20 20 0 0 0-.867 1.316 20 20 0 0 1 .867-1.316zm-1.095 1.713a20 20 0 0 0-.702 1.34 20 20 0 0 1 .702-1.34zm-.92 1.83a20 20 0 0 0-.528 1.305 20 20 0 0 1 .528-1.305zm33.955 1.025h.54l.54 1.08h-1.08zm-34.696.92a20 20 0 0 0-.36 1.25 20 20 0 0 1 .36-1.25zm38.575 1.953a20 20 0 0 1 .44 4.05 20 20 0 0 0-.44-4.05zm-32.528 1.452v1.08l-1.082-.54zm-2.703 1.62h1.621v1.622l-2.162-1.08zm3.244.542 3.243 1.62s0 .542-.541.542-2.702-1.621-2.702-1.621zm-7.552.843a20 20 0 0 0 .191 2.399 20 20 0 0 1-.191-2.399zm.191 2.399a20 20 0 0 0 6.902 12.564l.46-2.293-1.624-.54-1.62-5.407.54-1.08v-1.621h-1.62l-1.083-1.623h-1.621zm39.766-1.95a20 20 0 0 1-.094 1.239 20 20 0 0 0 .094-1.238zm-.198 2.1a20 20 0 0 1-.214 1.215 20 20 0 0 0 .214-1.215zm-.365 1.881a20 20 0 0 1-.377 1.336 20 20 0 0 0 .377-1.336zm-.553 1.863a20 20 0 0 1-.552 1.407 20 20 0 0 0 .552-1.407zm-.728 1.8a20 20 0 0 1-.746 1.45 20 20 0 0 0 .746-1.45zm-.9 1.718a20 20 0 0 1-.95 1.465 20 20 0 0 0 .95-1.465zm-29.922 5.324a20 20 0 0 0 .953.725 20 20 0 0 1-.953-.725zm1.576 1.172a20 20 0 0 0 1.154.707 20 20 0 0 1-1.154-.707zm1.676 1.006a20 20 0 0 0 1.302.629 20 20 0 0 1-1.302-.63zm1.796.85a20 20 0 0 0 1.23.455 20 20 0 0 1-1.23-.455z" fill="#757575"/>
 </g>
</svg>
