<?xml version="1.0" encoding="UTF-8" standalone="no"?>
<!-- Created with Inkscape (http://www.inkscape.org/) -->

<svg
   xmlns:dc="http://purl.org/dc/elements/1.1/"
   xmlns:cc="http://creativecommons.org/ns#"
   xmlns:rdf="http://www.w3.org/1999/02/22-rdf-syntax-ns#"
   xmlns:svg="http://www.w3.org/2000/svg"
   xmlns="http://www.w3.org/2000/svg"
   xmlns:sodipodi="http://sodipodi.sourceforge.net/DTD/sodipodi-0.dtd"
   xmlns:inkscape="http://www.inkscape.org/namespaces/inkscape"
   width="48"
   height="48"
   viewBox="0 0 48 48"
   id="svg2"
   version="1.1"
   inkscape:version="0.92.2 (5c3e80d, 2017-08-06)"
   sodipodi:docname="type_stream.svg">
  <defs
     id="defs8" />
  <sodipodi:namedview
     pagecolor="#ffffff"
     bordercolor="#666666"
     borderopacity="1"
     objecttolerance="10"
     gridtolerance="10"
     guidetolerance="10"
     inkscape:pageopacity="0"
     inkscape:pageshadow="2"
     inkscape:window-width="956"
     inkscape:window-height="900"
     id="namedview6"
     showgrid="false"
     inkscape:zoom="4.9166666"
     inkscape:cx="29.033936"
     inkscape:cy="56.952869"
     inkscape:window-x="2556"
     inkscape:window-y="36"
     inkscape:window-maximized="0"
     inkscape:current-layer="layer1"
     showguides="true"
     inkscape:guide-bbox="true">
    <sodipodi:guide
       position="0,24.017661"
       orientation="1,0"
       id="guide2390"
       inkscape:locked="false" />
    <sodipodi:guide
       position="23.59322,0"
       orientation="0,1"
       id="guide2392"
       inkscape:locked="false" />
  </sodipodi:namedview>
  <metadata
     id="metadata7">
    <rdf:RDF>
      <cc:Work
         rdf:about="">
        <dc:format>image/svg+xml</dc:format>
        <dc:type
           rdf:resource="http://purl.org/dc/dcmitype/StillImage" />
        <dc:title></dc:title>
      </cc:Work>
    </rdf:RDF>
  </metadata>
  <g
     inkscape:label="Master"
     inkscape:groupmode="layer"
     id="layer1"
     transform="translate(-384,-1004.3622)"
     style="display:inline">
    <g
       id="g3032"
       transform="translate(4.006005,0.146)">
      <path
         style="display:inline;fill:#ff950d;fill-opacity:1;fill-rule:evenodd;stroke:none;stroke-width:0.80000001px;stroke-linecap:butt;stroke-linejoin:miter;stroke-opacity:1"
         d="m 403.99402,1008.2148 a 19.999993,19.999996 0 0 0 -5.7527,0.8627 l 1.42837,2.3806 2.16214,0.5405 1.08113,-2.7027 2.06376,-1.0319 a 19.999993,19.999996 0 0 0 -0.9827,-0.049 z m 4.06518,0.4222 1.88076,2.8211 1.71204,-1.7121 a 19.999993,19.999996 0 0 0 -3.5928,-1.109 z m -14.31295,2.4282 a 19.999993,19.999996 0 0 0 -9.37268,13.3026 l 2.86368,-0.4773 1.0811,2.1621 h 1.08107 l -0.54052,-1.6216 2.16213,-1.6216 -1.08106,-1.0811 1.62161,-1.0811 h 1.08106 v -2.1621 l 5.40543,-2.1622 z m 21.05855,1.4739 -1.08106,1.0811 1.62161,1.6217 -0.54055,1.081 h 1.62162 v -1.6216 z m -1.62161,1.6217 -1.08106,1.6216 1.08106,1.0811 0.54055,-1.6216 z m 5.94594,1.0811 -1.62161,1.6216 h -1.0811 l -1.08107,0.5405 -0.54055,0.5405 0.54055,0.5406 v 1.081 h -2.70267 l 1.62159,3.2433 2.70272,-2.7027 h 1.08108 l 1.08106,-0.5406 0.54057,0.5406 1.08105,1.0811 0.54053,1.0811 1.08112,-1.0811 -0.54055,-0.5406 -0.54057,-1.0811 -0.54053,-1.081 h 0.69005 a 19.999993,19.999996 0 0 0 -2.08358,-3.0478 z m 0.54057,5.9459 v 1.0811 h 1.08105 l -0.54053,-1.0811 z m -3.78381,1.0811 -5.4054,4.3243 0.54053,5.4054 1.62166,1.6216 h 4.86484 l 1.62161,1.6217 -1.08106,0.5405 1.62163,1.6216 0.54052,2.1622 v 0.3236 a 19.999993,19.999996 0 0 0 3.78377,-11.675 19.999993,19.999996 0 0 0 -0.70446,-5.2415 l -0.37662,0.3767 -0.54051,0.5405 -1.08112,0.5405 -0.54053,-0.5405 h -1.08105 l -0.54057,-1.6216 z m -24.86486,3.2432 -1.08106,0.5405 1.08106,0.5406 z m -5.40539,1.6216 -1.61696,1.2127 a 19.999993,19.999996 0 0 0 0.2018,2.5711 h 0.33409 1.62162 l 1.08106,1.6216 h 1.62165 v 1.6216 l -0.54055,1.0812 1.62162,5.4053 1.62161,0.5406 -0.46275,2.3138 a 19.999993,19.999996 0 0 0 6.79295,3.7499 l 5.02118,-5.5232 v -2.1621 l 1.08106,-1.6217 -3.78378,-2.7026 h -1.62161 l -0.54056,-2.1622 -1.62163,-0.5406 -0.54053,-1.081 -2.70272,-0.5406 -1.62161,-0.5405 -0.54055,0.5405 -1.08106,0.5406 -2.16217,-0.5406 -0.54055,-1.081 h -1.08106 l 0.54053,-1.6217 z m 2.70271,0 -0.54055,0.5406 2.16217,1.0811 v -1.6217 z m 3.24323,0.5406 v 0.5405 c 0,0 2.16217,1.6217 2.70272,1.6217 0.54055,0 0.54055,-0.5406 0.54055,-0.5406 z"
         id="path5434-6"
         inkscape:connector-curvature="0" />
      <path
         inkscape:connector-curvature="0"
         id="path5430-0"
         d="m 404.13658,1008.2234 a 19.999993,19.999996 0 0 1 0.83984,0.041 l -2.0625,1.0313 -1.08203,2.7031 -2.16211,-0.541 -1.42773,-2.3809 a 19.999993,19.999996 0 0 1 5.08593,-0.8261 19.999993,19.999996 0 0 0 -9.57812,2.8183 l 4.29883,5.2539 -5.40625,2.1621 v 2.1622 h -1.08008 l -1.62305,1.082 1.08203,1.0801 -2.16211,1.621 0.54102,1.6231 h -1.08203 l -1.08008,-2.1621 -2.85156,0.4746 a 19.999993,19.999996 0 0 0 -0.39258,3.8516 19.999993,19.999996 0 0 0 0.006,0.1269 l 1.61523,-1.2109 1.08203,1.082 -0.54101,1.6211 h 1.08203 l 0.53906,1.0801 2.16211,0.541 1.08203,-0.541 0.54102,-0.5391 1.62109,0.5391 2.70313,0.541 0.53906,1.082 1.62305,0.5391 0.53906,2.1621 h 1.62305 l 3.7832,2.7031 -1.08008,1.6211 v 2.1621 l -5.01367,5.5137 a 19.999993,19.999996 0 0 0 6.09361,0.9766 19.999993,19.999996 0 0 0 16.2168,-8.3379 v -0.3145 l -0.54102,-2.1621 -1.62109,-1.6211 1.08008,-0.541 -1.6211,-1.6211 h -4.86523 l -1.6211,-1.6211 -0.54101,-5.4062 5.40625,-4.3243 h 3.24219 l 0.54101,1.6231 h 1.08008 l 0.54102,0.5391 1.08203,-0.5391 0.53906,-0.541 0.36328,-0.3633 a 19.999993,19.999996 0 0 0 -11.63281,-13.2305 l -1.70313,1.7012 -1.86523,-2.7969 a 19.999993,19.999996 0 0 0 -3.9375,-0.4375 z m 4.5957,0.586 a 19.999993,19.999996 0 0 1 0.84961,0.2168 19.999993,19.999996 0 0 0 -0.84961,-0.2168 z m 1.60547,0.4668 a 19.999993,19.999996 0 0 1 1.16211,0.416 19.999993,19.999996 0 0 0 -1.16211,-0.416 z m -16.70313,1.8633 a 19.999993,19.999996 0 0 0 -1.48632,0.9921 19.999993,19.999996 0 0 1 1.48632,-0.9921 z m -1.64453,1.1132 a 19.999993,19.999996 0 0 0 -1.3789,1.1309 19.999993,19.999996 0 0 1 1.3789,-1.1309 z m 22.81446,0.2871 1.62109,2.1622 v 1.621 h -1.62109 l 0.54101,-1.082 -1.62109,-1.6211 z m -24.37696,1.0157 a 19.999993,19.999996 0 0 0 -1.19921,1.205 19.999993,19.999996 0 0 1 1.19921,-1.205 z m 22.75586,0.6054 0.54102,1.0801 -0.54102,1.6231 -1.08203,-1.0821 z m -24.20312,0.8809 a 19.999993,19.999996 0 0 0 -1.01367,1.248 19.999993,19.999996 0 0 1 1.01367,-1.248 z m 30.14844,0.1992 0.22851,0.1973 a 19.999993,19.999996 0 0 1 2.08399,3.0469 h -0.69141 l 0.54102,1.08 0.54101,1.0821 0.54102,0.541 -1.08203,1.08 -0.54102,-1.08 -1.08008,-1.0821 -0.54101,-0.541 -1.08008,0.541 h -1.08203 l -2.70313,2.7032 -1.62109,-3.2442 h 2.70312 v -1.08 l -0.54101,-0.5411 0.54101,-0.541 1.08008,-0.539 h 1.08203 z m -31.39844,1.3789 a 19.999993,19.999996 0 0 0 -0.86719,1.3164 19.999993,19.999996 0 0 1 0.86719,-1.3164 z m -1.09571,1.7129 a 19.999993,19.999996 0 0 0 -0.70117,1.3399 19.999993,19.999996 0 0 1 0.70117,-1.3399 z m -0.91992,1.8301 a 19.999993,19.999996 0 0 0 -0.52734,1.3047 19.999993,19.999996 0 0 1 0.52734,-1.3047 z m 33.95508,1.0254 h 0.54102 l 0.53906,1.08 h -1.08008 z m -34.69531,0.9199 a 19.999993,19.999996 0 0 0 -0.36133,1.25 19.999993,19.999996 0 0 1 0.36133,-1.25 z m 38.57422,1.9531 a 19.999993,19.999996 0 0 1 0.43945,4.0489 19.999993,19.999996 0 0 0 -0.43945,-4.0489 z m -32.52735,1.4512 v 1.0801 l -1.08203,-0.5391 z m -2.70312,1.6211 h 1.62109 v 1.6211 l -2.16211,-1.0801 z m 3.24414,0.541 3.24219,1.6211 c 0,0 -4.7e-4,0.541 -0.54102,0.541 -0.54055,0 -2.70117,-1.6211 -2.70117,-1.6211 z m -7.55274,0.8438 a 19.999993,19.999996 0 0 0 0.19141,2.3984 19.999993,19.999996 0 0 1 -0.19141,-2.3984 z m 0.19141,2.3984 a 19.999993,19.999996 0 0 0 6.90235,12.5644 l 0.45898,-2.2929 -1.62305,-0.541 -1.62109,-5.4063 0.54101,-1.0801 v -1.6211 h -1.62109 l -1.08203,-1.623 h -1.62109 z m 39.76563,-1.9492 a 19.999993,19.999996 0 0 1 -0.0937,1.2383 19.999993,19.999996 0 0 0 0.0937,-1.2383 z m -0.19727,2.0996 a 19.999993,19.999996 0 0 1 -0.21484,1.2148 19.999993,19.999996 0 0 0 0.21484,-1.2148 z m -0.36523,1.8808 a 19.999993,19.999996 0 0 1 -0.37696,1.336 19.999993,19.999996 0 0 0 0.37696,-1.336 z m -0.55274,1.8633 a 19.999993,19.999996 0 0 1 -0.55273,1.4063 19.999993,19.999996 0 0 0 0.55273,-1.4063 z m -0.72851,1.7989 a 19.999993,19.999996 0 0 1 -0.7461,1.4511 19.999993,19.999996 0 0 0 0.7461,-1.4511 z m -0.90039,1.7187 a 19.999993,19.999996 0 0 1 -0.94922,1.4649 19.999993,19.999996 0 0 0 0.94922,-1.4649 z m -29.92188,5.3242 a 19.999993,19.999996 0 0 0 0.95313,0.7246 19.999993,19.999996 0 0 1 -0.95313,-0.7246 z m 1.57617,1.1719 a 19.999993,19.999996 0 0 0 1.1543,0.707 19.999993,19.999996 0 0 1 -1.1543,-0.707 z m 1.67578,1.0059 a 19.999993,19.999996 0 0 0 1.30274,0.6289 19.999993,19.999996 0 0 1 -1.30274,-0.6289 z m 1.79688,0.8496 a 19.999993,19.999996 0 0 0 1.23047,0.455 19.999993,19.999996 0 0 1 -1.23047,-0.455 z"
         style="color:#000000;display:inline;overflow:visible;visibility:visible;opacity:1;fill:#757575;fill-opacity:1;fill-rule:nonzero;stroke:none;stroke-width:70.86640167;stroke-linecap:round;stroke-linejoin:round;stroke-miterlimit:4;stroke-dasharray:none;stroke-dashoffset:0;stroke-opacity:1;marker:none;enable-background:accumulate" />
    </g>
  </g>
</svg>
