<?xml version="1.0" encoding="UTF-8"?>
<svg viewBox="0 0 48 48" xmlns="http://www.w3.org/2000/svg">
 <g>
  <g fill="#ff950d" fill-rule="evenodd">
   <path transform="matrix(2.0178 0 0 2.0074 9.919 11.837)" d="M8.97 10.045H6.98c-.005-.249-.007-.4-.007-.454 0-.56.092-.519.277-.88.185-.36.556-.767 1.11-1.218.556-.452.968-.756 1.076-.896.167-.22.25-.464.25-.73 0-.37-.149-.687-.446-.949-.294-.266-.69-.399-1.192-.399-.483 0-.887.138-1.212.413-.325.275-.548.57-.67 1.134L4.51 6.059c.05-.808.393-1.493 1.03-2.058.64-.564 1.388-.93 2.426-.93 1.092 0 2.146.295 2.792.868.645.568.968 1.232.968 1.99 0 .42-.12.817-.359 1.191-.235.375-.74.885-1.516 1.53-.402.334-.652.603-.752.806-.095.203-.137.065-.128.589m-1.983 2.989.01-1.993H8.97l-.01 1.993H6.988" fill="#ff950d"/>
  </g>
  <path transform="translate(-384 -1004.4)" d="M398 1008.362c-2.2 0-3.98 1.8-3.98 4l-.02 32c0 2.2 1.78 4 3.98 4H422c2.2 0 4-1.8 4-4v-24l-12-12zm-1 3h17v9h9v25h-26z" fill="#747474" stroke-width="2"/>
 </g>
</svg>
