/* XPM */
static char * fullscreen_xpm[] = {
"15 12 4 1",
" 	c None",
".	c #999999",
"+	c #989898",
"@	c #9A9A9A",
".             +",
" .+         +. ",
" +.  +.+@.@ .. ",
"   ...+.+++.   ",
"   +........   ",
"   +........   ",
"   +........   ",
"   +........   ",
"   ..+..+++.   ",
" +.  @+...  .. ",
" +.         .+ ",
".             ."};
