/* XPM */
static const char * fullscreen_xpm[] = {
"26 20 5 1",
" 	c None",
".	c #999999",
"+	c #989898",
"@	c #9A9A9A",
"#	c #9B9B9B",
" .                      . ",
"... .                . ...",
" ....                .... ",
"  ...                ...  ",
" ....   +.+@+.@@..#  .... ",
"     ................     ",
"     ...............@     ",
"     ................     ",
"     ................     ",
"     ................     ",
"     ................     ",
"     ................     ",
"     ................     ",
"     ................     ",
"     ................     ",
" ....   .@+....@.@   .... ",
"  ...                ...  ",
" ....                .... ",
"... .                . ...",
" .                      . "};
