/* XPM */
static const char * pause_xpm[] = {
"33 27 3 1",
"+	c None",
".	c #999999",
"*	c #FFFFFF",
".............+++++++.............",
".............+++++++.............",
".............+++++++.............",
".............+++++++.............",
".............+++++++.............",
".............+++++++.............",
".............+++++++.............",
".............+++++++.............",
".............+++++++.............",
".............+++++++.............",
".............+++++++.............",
".............+++++++.............",
".............+++++++.............",
".............+++++++.............",
".............+++++++.............",
".............+++++++.............",
".............+++++++.............",
".............+++++++.............",
".............+++++++.............",
".............+++++++.............",
".............+++++++.............",
".............+++++++.............",
".............+++++++.............",
".............+++++++.............",
".............+++++++.............",
".............+++++++.............",
".............+++++++............."};
