/* XPM */
static const char * play_xpm[] = {
"34 27 3 1",
"+	c None",
".	c #999999",
"*	c #FFFFFF",
".+++++++++++++++++++++++++++++++++",
"....++++++++++++++++++++++++++++++",
"......++++++++++++++++++++++++++++",
".........+++++++++++++++++++++++++",
"...........+++++++++++++++++++++++",
"..............++++++++++++++++++++",
"................++++++++++++++++++",
"...................+++++++++++++++",
".....................+++++++++++++",
"........................++++++++++",
"..........................++++++++",
".............................+++++",
"...............................+++",
".................................+",
"...............................+++",
".............................+++++",
"..........................++++++++",
"........................++++++++++",
".....................+++++++++++++",
"...................+++++++++++++++",
"................++++++++++++++++++",
"..............++++++++++++++++++++",
"...........+++++++++++++++++++++++",
".........+++++++++++++++++++++++++",
"......++++++++++++++++++++++++++++",
"....++++++++++++++++++++++++++++++",
".+++++++++++++++++++++++++++++++++"};
