/* XPM */
static char * play_xpm[] = {
"15 12 3 1",
" 	c None",
".	c #999999",
"+	c #989898",
".              ",
"..+            ",
".+++..         ",
"....++..       ",
"........+..    ",
".........++++  ",
".........+.... ",
".......+...+   ",
".......++      ",
"...+.++        ",
"..+.+          ",
"++             "};
