/* XPM */
static const char * skip_next_xpm[] = {
"30 18 2 1",
" 	c None",
".	c #999999",
".             .             ..",
"..            ..            ..",
"....          ....          ..",
".....         ......        ..",
".......       .......       ..",
".........     .........     ..",
"..........    ..........    ..",
"............  ............  ..",
"............. ................",
"............. ............. ..",
"............  ............  ..",
"..........    ..........    ..",
".........     .........     ..",
".......       .......       ..",
"......        .....         ..",
"....          ....          ..",
"..            ..            ..",
".             .             .."};
