/* XPM */
static char * skip_next_xpm[] = {
"15 9 2 1",
" 	c None",
".	c #999999",
".      .      .",
"..     ...    .",
"....   ....   .",
"...... ...... .",
"...............",
"...... ...... .",
"....   ....   .",
"...    ..     .",
".      .      ."};
