/* XPM */
static const char * skip_previous_xpm[] = {
"30 18 2 1",
" 	c None",
".	c #999999",
"..             .             .",
"..            ..            ..",
"..          ....          ....",
"..        ......        ......",
"..       .......       .......",
"..     .........     .........",
"..    ..........    ..........",
"..  ............  ............",
".. ............. .............",
".. ............. .............",
"..  ............  ............",
"..    ..........    ..........",
"..     .........     .........",
"..       .......       .......",
"..        ......        ......",
"..          ....          ....",
"..            ..            ..",
"..             .             ."};
