/* XPM */
static const char * time_slider_knob_xpm[] = {
"8 6 3 1",
" 	c None",
".	c #999999",
"*	c #999999",
"  *..*  ",
" *....* ",
"*......*",
"*......*",
" *....* ",
"  *..*  "};
