/* XPM */
static const char * volume_max_xpm[] = {
"15 13 3 1",
" 	c None",
".	c #999999",
"+	c #9A9A9A",
"               ",
"      .     .  ",
"     ..      . ",
"    ...   .  . ",
"  .....    .  .",
".......  + .  .",
".......  +    .",
".......  + +  .",
"   ....    .  .",
"    ...   +  . ",
"     ..      . ",
"            .  ",
"               "};
