/* XPM */
static const char * volume_knob_xpm[] = {
"9 9 10 1",
" 	c None",
".	c #989898",
"+	c #999999",
"@	c #8D8D8D",
"#	c #7A7A7A",
"$	c #686868",
"%	c #272727",
"&	c #262626",
"*	c #2F2F2F",
"=	c #585858",
"   ...   ",
" .+@#@+. ",
" +$%&%$+ ",
".@%*=*%@.",
".#&=+=&#.",
".@%*=*%@.",
" +$%&%$+ ",
" .+@#@+. ",
"   ...   "};
