/* XPM */
static const char * volume_mute_xpm[] = {
"7 11 2 1",
" 	c None",
".	c #999999",
"      .",
"     ..",
"    ...",
"   ....",
".......",
".......",
".......",
"  .....",
"    ...",
"     ..",
"      ."};
