<svg viewBox="0 0 48 48" xmlns="http://www.w3.org/2000/svg">
  <path d="M8 8v32h3v-4h4v4h5v-5a11 11 0 0 1 11-11h9V8h-3v4h-4V8H15v4h-4V8H8zm3 7h4v4h-4v-4zm22 0h4v4h-4v-4zm-22 7h4v4h-4v-4zm23.273 4.59c-.362-.03-.72.183-1.005.482l-1.012 1.047A7.023 7.023 0 0 0 31 28c-.43 0-.848.045-1.256.12l-1.012-1.048c-.286-.3-.643-.51-1.005-.48a.85.85 0 0 0-.362.113l-.865.502-.865.498c-.479.276-.523.837-.367 1.367l.4 1.399a6.992 6.992 0 0 0-1.254 2.175L23 33c-.537.13-1 .448-1 1v2c0 .552.463.87 1 1l1.414.354a6.985 6.985 0 0 0 1.254 2.175l-.4 1.4c-.156.53-.112 1.09.367 1.366l.865.5.865.5c.479.276.986.032 1.367-.367l1.012-1.047c.408.074.827.119 1.256.119.43 0 .848-.045 1.256-.12l1.012 1.048c.381.4.888.643 1.367.367l.865-.5.865-.5c.479-.276.523-.835.367-1.365l-.4-1.4a6.985 6.985 0 0 0 1.254-2.176L39 37c.537-.13 1-.448 1-1v-2c0-.552-.463-.87-1-1l-1.414-.354a6.992 6.992 0 0 0-1.254-2.175l.4-1.399c.156-.53.112-1.09-.367-1.367l-.865-.498-.865-.502a.855.855 0 0 0-.362-.115zM11 29h4v4h-4v-4zm20 2a4 4 0 1 1 0 8 4 4 0 0 1 0-8z" fill="#757575"/>
</svg>

