<svg viewBox="0 0 48 48" xmlns="http://www.w3.org/2000/svg">
  <path d="M38 3.962c-7.177 3.191-14.364 6.15-21.145 9.174C15 13.963 15 16.462 15 16.462v15.59a5.987 5.987 0 0 0-1-.09 6 6 0 1 0 6 6v-19l13-5v10h5zm-3.727 22.59c-.362-.029-.72.183-1.005.482l-1.012 1.047A7.023 7.023 0 0 0 31 27.962c-.43 0-.848.045-1.256.12l-1.012-1.047c-.286-.3-.643-.51-1.005-.481a.85.85 0 0 0-.362.113l-.865.502-.865.498c-.479.276-.522.837-.367 1.368l.4 1.398a6.992 6.992 0 0 0-1.254 2.176L23 32.962c-.537.13-1 .448-1 1v2c0 .552.463.87 1 1l1.414.354a6.985 6.985 0 0 0 1.254 2.176l-.4 1.4c-.156.53-.112 1.089.367 1.365l.865.5.865.5c.479.276.986.032 1.367-.367l1.012-1.047c.408.074.827.12 1.256.12.43 0 .848-.046 1.256-.12l1.012 1.047c.381.4.888.643 1.367.367l.865-.5.865-.5c.479-.276.522-.835.367-1.365l-.4-1.4a6.985 6.985 0 0 0 1.254-2.176L39 36.962c.537-.13 1-.448 1-1v-2c0-.552-.463-.87-1-1l-1.414-.353a6.992 6.992 0 0 0-1.254-2.176l.4-1.398c.156-.53.112-1.092-.367-1.368l-.865-.498-.865-.502a.855.855 0 0 0-.362-.115zM31 30.962a4 4 0 1 1 0 8 4 4 0 0 1 0-8z" fill="#757575"/>
</svg>

