<?xml version="1.0" encoding="UTF-8" standalone="no"?>
<!-- Created with Inkscape (http://www.inkscape.org/) -->

<svg
   xmlns:dc="http://purl.org/dc/elements/1.1/"
   xmlns:cc="http://creativecommons.org/ns#"
   xmlns:rdf="http://www.w3.org/1999/02/22-rdf-syntax-ns#"
   xmlns:svg="http://www.w3.org/2000/svg"
   xmlns="http://www.w3.org/2000/svg"
   xmlns:sodipodi="http://sodipodi.sourceforge.net/DTD/sodipodi-0.dtd"
   xmlns:inkscape="http://www.inkscape.org/namespaces/inkscape"
   width="48"
   height="48"
   viewBox="0 0 48 48"
   id="svg2"
   version="1.1"
   inkscape:version="0.92.1 r15371"
   sodipodi:docname="advprefs_intf.svg">
  <defs
     id="defs8" />
  <sodipodi:namedview
     pagecolor="#ffffff"
     bordercolor="#666666"
     borderopacity="1"
     objecttolerance="10"
     gridtolerance="10"
     guidetolerance="10"
     inkscape:pageopacity="0"
     inkscape:pageshadow="2"
     inkscape:window-width="960"
     inkscape:window-height="1028"
     id="namedview6"
     showgrid="true"
     inkscape:zoom="11.313709"
     inkscape:cx="23.056549"
     inkscape:cy="22.118172"
     inkscape:window-x="960"
     inkscape:window-y="27"
     inkscape:window-maximized="0"
     inkscape:current-layer="layer1"
     showguides="true"
     inkscape:guide-bbox="true">
    <sodipodi:guide
       position="0,24.017661"
       orientation="1,0"
       id="guide2390"
       inkscape:locked="false" />
    <sodipodi:guide
       position="23.59322,0"
       orientation="0,1"
       id="guide2392"
       inkscape:locked="false" />
    <inkscape:grid
       type="xygrid"
       id="grid4485" />
  </sodipodi:namedview>
  <metadata
     id="metadata7">
    <rdf:RDF>
      <cc:Work
         rdf:about="">
        <dc:format>image/svg+xml</dc:format>
        <dc:type
           rdf:resource="http://purl.org/dc/dcmitype/StillImage" />
        <dc:title></dc:title>
      </cc:Work>
    </rdf:RDF>
  </metadata>
  <g
     inkscape:label="Master"
     inkscape:groupmode="layer"
     id="layer1"
     transform="translate(-384,-1004.3622)"
     style="display:inline">
    <path
       style="color:#000000;display:inline;overflow:visible;visibility:visible;opacity:1;fill:#757575;fill-opacity:1;fill-rule:evenodd;stroke:none;stroke-width:16.03315353;stroke-linecap:butt;stroke-linejoin:round;stroke-miterlimit:4;stroke-dasharray:none;stroke-dashoffset:4.19999981;stroke-opacity:1;marker:none;enable-background:accumulate"
       d="m 396,1012.3622 c -2.216,0 -4,1.7834 -4,3.9987 v 3.9988 c 0,2.2153 1.784,3.9987 4,3.9987 h 22 c 2.216,0 4.04729,-1.7839 4,-3.9987 h 2 v 6.9977 h -13 -2 a 4,3.9987411 0 0 0 -0.79492,0.08 4,3.9987411 0 0 0 -0.76172,0.2363 c -0.0131,0.01 -0.0261,0.011 -0.0391,0.017 -0.0686,0.029 -0.13631,0.061 -0.20313,0.094 -5.8e-4,0 -10e-4,0 -0.002,0.01 a 4,3.9987411 0 0 0 -1.00977,0.7225 2.0002,1.9995714 0 0 0 -0.0117,0.029 c -0.73717,0.7372 -1.17654,1.7416 -1.17773,2.8175 v 3.4365 1.0621 5.3108 c 0,0.034 0.009,0.066 0.01,0.1 -9.2e-4,0.031 -0.01,0.059 -0.01,0.09 0,1.6615 1.338,2.9991 3,2.9991 1.662,0 3,-1.3376 3,-2.9991 0,-0.031 -0.009,-0.059 -0.01,-0.09 9.6e-4,-0.033 0.01,-0.066 0.01,-0.1 v -5.3108 -1.0621 -3.4404 h 13 a 4,3.9987411 0 0 0 3.74414,-2.6008 c 0.0119,-0.032 0.0221,-0.064 0.0332,-0.096 a 4,3.9987411 0 0 0 0.0957,-0.3183 c 0.0117,-0.046 0.0212,-0.092 0.0312,-0.1386 a 4,3.9987411 0 0 0 0.0547,-0.3046 c 0.006,-0.043 0.0111,-0.087 0.0156,-0.1308 a 4,3.9987411 0 0 0 0.0254,-0.4023 v -6.9978 c 0,0 0,0 0,0 a 3.9999981,3.998743 0 0 0 -0.0918,-0.8414 c -1.3e-4,-7e-4 1.4e-4,0 0,0 a 3.9999981,3.998743 0 0 0 -0.26562,-0.7986 3.9999981,3.998743 0 0 0 -0.42774,-0.7263 A 3.9999981,3.998743 0 0 0 424,1016.3609 h -2 c -0.002,-2.2134 -1.78533,-3.9948 -4,-3.9948 z"
       id="rect6331"
       inkscape:connector-curvature="0" />
  </g>
</svg>
