<svg viewBox="0 0 48 48" xmlns="http://www.w3.org/2000/svg">
  <path d="M12 7.962a3.99 3.99 0 0 0-4 3.999v3.999a3.99 3.99 0 0 0 4 3.998h22c2.216 0 4.047-1.783 4-3.998h2v6.997H25a4 3.999 0 0 0-.795.08 4 3.999 0 0 0-.762.237c-.013.01-.026.01-.039.017a3.815 3.815 0 0 0-.203.094l-.002.01a4 3.999 0 0 0-1.01.722 2 2 0 0 0-.011.03A3.99 3.99 0 0 0 21 26.964v9.809c0 .034.009.066.01.1-.001.031-.01.06-.01.09 0 1.662 1.338 3 3 3s3-1.338 3-3c0-.03-.01-.059-.01-.09 0-.033.01-.066.01-.1V26.96h13a4 3.999 0 0 0 3.744-2.601l.033-.096a4 3.999 0 0 0 .096-.318c.012-.046.021-.092.031-.139a4 3.999 0 0 0 .055-.304c.006-.043.011-.087.015-.131a4 3.999 0 0 0 .026-.403v-6.997a4 3.999 0 0 0-.092-.842 4 3.999 0 0 0-.266-.798 4 3.999 0 0 0-.427-.727A4 3.999 0 0 0 40 11.961h-2a3.99 3.99 0 0 0-4-3.995z" fill="#757575" fill-rule="evenodd"/>
</svg>

