<?xml version="1.0" encoding="UTF-8"?>
<svg version="1.1" viewBox="0 0 48 48" xmlns="http://www.w3.org/2000/svg">
 <defs>
  <solidColor id="color1" solid-color="#FF00FF"/>
  <solidColor id="accent" solid-color="#FF8800"/>
 </defs>
 <path d="m1.04 0.128c0.20447-0.084738 0.42367-0.12824 0.645-0.128h4.56v1.68h-4.56v4.56h-1.68v-4.56c0-0.227 0.0455-0.445 0.128-0.645l0.189-0.455 0.104-0.163 0.163-0.104zm11-0.128h9.12v1.68h-9.12zm14.9 0h9.12v1.68h-9.12zm14.9 0h4.56c0.227 0 0.445 0.0455 0.645 0.128l0.455 0.189 0.163 0.104 0.104 0.163 0.189 0.455c0.0825 0.2 0.128 0.418 0.128 0.645v4.56h-1.68v-4.56h-4.56zm-40.1 12v9.12h-1.68v-9.12zm46.3 0v9.12h-1.68v-9.12zm-46.3 14.9v9.12h-1.68v-9.12zm46.3 0v9.12h-1.68v-9.12zm-46.3 14.9v4.56h4.56v1.68h-4.56c-0.22131-2.3e-5 -0.44045-0.043513-0.645-0.128l-0.455-0.189-0.163-0.104-0.104-0.163-0.189-0.455c-0.084738-0.20447-0.12824-0.42367-0.128-0.645v-4.56zm46.3 0v4.56c-2.3e-5 0.22131-0.04351 0.44046-0.128 0.645l-0.189 0.455-0.104 0.163-0.163 0.104-0.455 0.189c-0.20454 0.08449-0.42369 0.12798-0.645 0.128h-4.56v-1.68h4.56v-4.56zm-36 4.56h9.12v1.68h-9.12zm14.9 0h9.12v1.68h-9.12z" clip-rule="evenodd" fill="url(#color1)" fill-rule="evenodd" stroke-width=".421"/>
 <path d="m24.862 15.84c0-0.45186-0.36638-0.81818-0.81818-0.81818s-0.81818 0.36632-0.81818 0.81818v7.3636h-7.3636c-0.45186 0-0.81818 0.36638-0.81818 0.81818s0.36632 0.81818 0.81818 0.81818h7.3636v7.3636c0 0.4518 0.36638 0.81818 0.81818 0.81818s0.81818-0.36638 0.81818-0.81818v-7.3636h7.3636c0.4518 0 0.81818-0.36638 0.81818-0.81818s-0.36638-0.81818-0.81818-0.81818h-7.3636z" fill="url(#accent)" stroke-width="1.6364"/>
</svg>
