<svg viewBox="0 0 96 96" xmlns="http://www.w3.org/2000/svg">
  <g transform="translate(-384 -956.36)" fill-rule="evenodd">
    <path d="M428.53 993.95a10.981 10.981 0 0 0-7.511 10.41h6.73a4.25 4.25 0 0 1 2.909-4.028zm7.72 10.41a4.25 4.25 0 0 1-2.908 4.028l2.128 6.382a10.981 10.981 0 0 0 7.511-10.41z" fill="#ff950d"/>
    <path d="M432 990.193a14.17 14.17 0 0 0-14.17 14.17 14.17 14.17 0 0 0 14.17 14.169 14.17 14.17 0 0 0 14.17-14.17 14.17 14.17 0 0 0-14.17-14.17Zm0 2.125a12.044 12.044 0 0 1 12.044 12.044A12.044 12.044 0 0 1 432 1016.406a12.044 12.044 0 0 1-12.044-12.044A12.044 12.044 0 0 1 432 992.318Z" fill="#747474"/>
    <circle cx="432" cy="1004.4" r="3.188" fill="#747474"/>
    <path d="M432 992.318a12.044 12.044 0 0 0-12.044 12.044A12.044 12.044 0 0 0 432 1016.406a12.044 12.044 0 0 0 12.044-12.044A12.044 12.044 0 0 0 432 992.318zm-3.47 1.634 2.128 6.382a4.25 4.25 0 0 0-2.909 4.028h-6.73a10.981 10.981 0 0 1 7.51-10.41zm3.47 7.222a3.188 3.188 0 0 1 3.188 3.188 3.188 3.188 0 0 1-3.188 3.189 3.188 3.188 0 0 1-3.188-3.189 3.188 3.188 0 0 1 3.188-3.188zm4.25 3.188h6.731a10.981 10.981 0 0 1-7.51 10.41l-2.129-6.382a4.25 4.25 0 0 0 2.909-4.028z" fill="#c8c8c8"/>
  </g>
</svg>

