<svg xmlns="http://www.w3.org/2000/svg" width="114" height="114" viewBox="0 0 114 114">
  <g fill="none" fill-rule="evenodd">
    <rect fill="#ECECEC" width="114" height="114" x="0" y="0" rx="2"/>
    <g fill-rule="nonzero" transform="translate(41 41)">
      <path stroke="#979797" d="M26.222.5c1.458 0 2.777.59 3.732 1.546C30.91 3 31.5 4.32 31.5 5.778h0v20.444c0 1.458-.59 2.777-1.546 3.732C29 30.91 27.68 31.5 26.222 31.5h0H5.778c-1.458 0-2.777-.59-3.732-1.546C1.09 29 .5 27.68.5 26.222h0V5.778C.5 4.32 1.09 3 2.046 2.046 3 1.09 4.32.5 5.778.5h0z" />
      <path fill="#FF610A" d="M15.5 8.75c0-.192.072-.367.19-.5.018-.02.037-.038.057-.056.133-.12.31-.194.503-.194.101 0 .197.02.285.056l4.882 1.878c1.255.482 2.083 1.688 2.083 3.033v1.783c0 .247-.122.478-.325.618-.204.14-.464.17-.694.082L17 13.342v7.408c0 .971-.514 1.8-1.245 2.362-.73.562-1.706.888-2.755.888s-2.025-.326-2.755-.888C9.514 22.55 9 21.722 9 20.75c0-.971.514-1.8 1.245-2.362.73-.562 1.706-.888 2.755-.888.93 0 1.805.257 2.5.707V8.75z"/>
    </g>
  </g>
</svg>
