<svg viewBox="0 0 114 114" xmlns="http://www.w3.org/2000/svg">
  <g fill="none" fill-rule="evenodd">
    <rect width="114" height="114" rx="2" fill="#ECECEC"/>
    <path d="M67.222 41.5c1.458 0 2.777.59 3.732 1.546a5.255 5.255 0 0 1 1.546 3.732v20.444c0 1.458-.59 2.777-1.546 3.732a5.255 5.255 0 0 1-3.732 1.546H46.778a5.257 5.257 0 0 1-3.732-1.546 5.255 5.255 0 0 1-1.546-3.732V46.778c0-1.458.59-2.778 1.546-3.732a5.255 5.255 0 0 1 3.732-1.546z" stroke="#979797"/>
    <path d="M64.034 61.469a.465.465 0 0 1 .154-.348.462.462 0 0 1 .489-.086l3.03 1.174A2.03 2.03 0 0 1 69 64.104v1.115a.47.47 0 0 1-.202.386.458.458 0 0 1-.43.051l-3.402-1.317v4.63c0 .607-.32 1.125-.773 1.476s-1.06.555-1.71.555c-.651 0-1.257-.204-1.71-.555-.454-.351-.773-.87-.773-1.476 0-.607.319-1.125.773-1.477.453-.35 1.059-.555 1.71-.555.577 0 1.12.161 1.551.443v-5.911z" fill="#FF610A" fill-rule="nonzero"/>
    <path d="M50.975 57.832a6.107 6.107 0 0 0 1.289 1.904 6.107 6.107 0 0 0 1.904 1.289 5.769 5.769 0 0 0 2.332.475c.828 0 1.605-.158 2.332-.475a6.107 6.107 0 0 0 1.904-1.289 6.107 6.107 0 0 0 1.289-1.904A5.769 5.769 0 0 0 62.5 55.5c0-.828-.158-1.605-.475-2.332a6.107 6.107 0 0 0-1.289-1.904 6.107 6.107 0 0 0-1.904-1.289A5.769 5.769 0 0 0 56.5 49.5c-.828 0-1.605.158-2.332.475a6.107 6.107 0 0 0-1.904 1.289 6.107 6.107 0 0 0-1.289 1.904A5.769 5.769 0 0 0 50.5 55.5c0 .828.158 1.605.475 2.332zm11.787 5.484-2.4.487c-.09-.033-.187-.073-.294-.117C58.971 63.229 57.781 63 56.5 63a9.128 9.128 0 0 0-4.576 1.213 8.785 8.785 0 0 0-3.211 3.211A9.128 9.128 0 0 0 47.5 72H46c0-1.125.164-2.201.492-3.229a10.294 10.294 0 0 1 3.58-5.103 10.656 10.656 0 0 1 2.866-1.559 7.407 7.407 0 0 1-2.877-2.759 7.715 7.715 0 0 1-.786-1.84A7.414 7.414 0 0 1 49 55.5c0-1.039.195-2.014.586-2.924a7.567 7.567 0 0 1 1.605-2.385 7.567 7.567 0 0 1 2.385-1.605c.91-.391 1.885-.586 2.924-.586s2.014.195 2.924.586c.91.391 1.705.926 2.385 1.605a7.567 7.567 0 0 1 1.605 2.385c.391.91.586 1.885.586 2.924a7.35 7.35 0 0 1-.275 2.004 7.612 7.612 0 0 1-.786 1.828 7.73 7.73 0 0 1-1.23 1.564 7.224 7.224 0 0 1-1.623 1.202c.708.245 1.6.65 2.676 1.218z" fill="#979797"/>
  </g>
</svg>

