<svg viewBox="0 0 114 114" xmlns="http://www.w3.org/2000/svg">
  <g fill="none" fill-rule="evenodd">
    <rect width="114" height="114" rx="2" fill="#ECECEC"/>
    <g fill-rule="nonzero">
      <path d="M67.222 41.5c1.458 0 2.777.59 3.732 1.546a5.255 5.255 0 0 1 1.546 3.732v20.444c0 1.458-.59 2.777-1.546 3.732a5.255 5.255 0 0 1-3.732 1.546H46.778a5.257 5.257 0 0 1-3.732-1.546 5.255 5.255 0 0 1-1.546-3.732V46.778c0-1.458.59-2.778 1.546-3.732a5.255 5.255 0 0 1 3.732-1.546z" stroke="#979797"/>
      <path d="M56.5 49.75a.75.75 0 0 1 1.035-.694l4.882 1.878a3.248 3.248 0 0 1 2.083 3.033v1.783a.751.751 0 0 1-1.019.7L58 54.342v7.408c0 .971-.514 1.8-1.245 2.362-.73.562-1.706.888-2.755.888s-2.025-.326-2.755-.888C50.514 63.55 50 62.722 50 61.75c0-.971.514-1.8 1.245-2.362.73-.562 1.706-.888 2.755-.888.93 0 1.805.257 2.5.707V49.75z" fill="#FF610A"/>
    </g>
  </g>
</svg>

