<?xml version="1.0" encoding="UTF-8" standalone="no"?>
<!-- Created with Inkscape (http://www.inkscape.org/) -->

<svg
   xmlns:dc="http://purl.org/dc/elements/1.1/"
   xmlns:cc="http://creativecommons.org/ns#"
   xmlns:rdf="http://www.w3.org/1999/02/22-rdf-syntax-ns#"
   xmlns:svg="http://www.w3.org/2000/svg"
   xmlns="http://www.w3.org/2000/svg"
   xmlns:sodipodi="http://sodipodi.sourceforge.net/DTD/sodipodi-0.dtd"
   xmlns:inkscape="http://www.inkscape.org/namespaces/inkscape"
   width="48"
   height="48"
   viewBox="0 0 12.7 12.7"
   version="1.1"
   id="svg5502"
   inkscape:version="0.92.1 r15371"
   sodipodi:docname="appletrailers.svg">
  <defs
     id="defs5496" />
  <sodipodi:namedview
     id="base"
     pagecolor="#ffffff"
     bordercolor="#666666"
     borderopacity="1.0"
     inkscape:pageopacity="0.0"
     inkscape:pageshadow="2"
     inkscape:zoom="8"
     inkscape:cx="-3.3307697"
     inkscape:cy="13.966158"
     inkscape:document-units="mm"
     inkscape:current-layer="layer1"
     showgrid="true"
     fit-margin-top="0"
     fit-margin-left="0"
     fit-margin-right="0"
     fit-margin-bottom="0"
     inkscape:window-width="1920"
     inkscape:window-height="1027"
     inkscape:window-x="0"
     inkscape:window-y="27"
     inkscape:window-maximized="1"
     units="px">
    <inkscape:grid
       type="xygrid"
       id="grid6077" />
  </sodipodi:namedview>
  <metadata
     id="metadata5499">
    <rdf:RDF>
      <cc:Work
         rdf:about="">
        <dc:format>image/svg+xml</dc:format>
        <dc:type
           rdf:resource="http://purl.org/dc/dcmitype/StillImage" />
        <dc:title></dc:title>
      </cc:Work>
    </rdf:RDF>
  </metadata>
  <g
     inkscape:label="Layer 1"
     inkscape:groupmode="layer"
     id="layer1"
     transform="translate(-96.459526,-120.56071)">
    <path
       style="display:inline;fill:#ff950d;fill-opacity:1;stroke-width:0.26458332"
       d="m 101.81676,129.81231 c -0.18661,-0.0359 -0.38903,-0.18448 -0.60689,-0.44541 -0.30099,-0.36047 -0.52015,-0.752 -0.66461,-1.18732 -0.12703,-0.3828 -0.16014,-0.56287 -0.1737,-0.94459 -0.0102,-0.28744 -0.005,-0.37547 0.0344,-0.56495 0.13321,-0.64318 0.59218,-1.12922 1.18381,-1.25362 0.25754,-0.0541 0.43159,-0.0328 0.83817,0.10271 0.19064,0.0635 0.38187,0.11554 0.42497,0.11554 0.0431,0 0.2287,-0.0508 0.41246,-0.11283 0.41195,-0.13912 0.60428,-0.16966 0.8539,-0.1356 0.36095,0.0492 0.61724,0.16974 0.84706,0.39826 0.078,0.0776 0.14161,0.14967 0.14129,0.16019 -2.6e-4,0.0105 -0.0522,0.0541 -0.11531,0.097 -0.22963,0.1558 -0.41534,0.41739 -0.48672,0.68558 -0.0178,0.067 -0.0326,0.2142 -0.0327,0.32706 -5.3e-4,0.38064 0.10216,0.63511 0.36235,0.89819 0.0939,0.095 0.22987,0.20596 0.30205,0.2466 0.15108,0.085 0.15023,0.0607 0.0132,0.37713 -0.14914,0.34433 -0.51081,0.86007 -0.72783,1.0379 -0.0554,0.0454 -0.15985,0.10961 -0.2321,0.14269 -0.18879,0.0864 -0.38292,0.071 -0.7621,-0.0607 -0.25875,-0.0898 -0.30274,-0.0985 -0.49939,-0.0978 -0.19504,5.3e-4 -0.24494,0.0106 -0.52209,0.10418 -0.32395,0.10938 -0.46054,0.1348 -0.59019,0.10983 z m 1.00468,-4.61466 c 0.0395,-0.52251 0.40272,-0.96843 0.93912,-1.15297 0.0709,-0.0244 0.16313,-0.0444 0.20487,-0.0444 0.0758,0 0.0759,8e-5 0.0759,0.11238 0,0.29693 -0.12931,0.59722 -0.3666,0.85131 -0.24378,0.26103 -0.5031,0.39829 -0.7525,0.39829 h -0.11324 l 0.0124,-0.16463 z"
       id="path10031"
       inkscape:connector-curvature="0" />
    <path
       style="display:inline;fill:#747474;fill-opacity:1;fill-rule:evenodd;stroke:none;stroke-width:0.26458332"
       d="m 97.517853,123.20655 v 7.40834 h 10.583327 v -7.40834 z m 0.79375,0.26459 h 0.79375 v 0.79375 h -0.79375 z m 8.202077,0 h 0.79375 v 0.79375 h -0.79375 z m -2.54816,0.52916 c 0.0758,0 0.076,-1.6e-4 0.076,0.11214 0,0.29693 -0.12961,0.59754 -0.3669,0.85163 -0.24378,0.26103 -0.503,0.39842 -0.75241,0.39842 h -0.11317 l 0.0124,-0.16484 c 0.0395,-0.52252 0.40256,-0.96836 0.93896,-1.15291 0.0709,-0.0244 0.16341,-0.0444 0.20516,-0.0444 z m -5.653917,0.99219 h 0.79375 v 0.79375 h -0.79375 z m 8.202077,0 h 0.79375 v 0.79375 h -0.79375 z m -2.57503,0.38085 c 0.0596,-2.4e-4 0.11846,0.004 0.18086,0.0129 0.36094,0.0492 0.61716,0.1699 0.84698,0.39842 0.078,0.0776 0.1414,0.14967 0.14108,0.1602 -2.7e-4,0.0105 -0.0521,0.0538 -0.11524,0.0966 -0.22963,0.15581 -0.41541,0.41756 -0.48679,0.68575 -0.0178,0.067 -0.0324,0.21425 -0.0326,0.32711 -5.3e-4,0.38064 0.10206,0.63505 0.36225,0.89814 0.094,0.095 0.23013,0.20586 0.30231,0.24649 0.15107,0.085 0.14997,0.0608 0.0129,0.37724 -0.14914,0.34433 -0.51059,0.85984 -0.7276,1.03767 -0.0554,0.0454 -0.1603,0.11006 -0.23255,0.14314 -0.18878,0.0864 -0.38252,0.0707 -0.76171,-0.061 -0.25875,-0.0898 -0.30306,-0.0983 -0.49971,-0.0977 -0.19503,5.3e-4 -0.24477,0.0103 -0.52193,0.10387 -0.32395,0.10938 -0.4605,0.13504 -0.59015,0.11007 -0.18661,-0.0359 -0.38933,-0.18452 -0.60719,-0.44545 -0.30099,-0.36047 -0.5201,-0.7522 -0.66456,-1.18752 -0.12703,-0.38279 -0.16008,-0.56241 -0.17364,-0.94413 -0.0102,-0.28744 -0.005,-0.37585 0.0346,-0.56534 0.1332,-0.64317 0.59228,-1.12927 1.18391,-1.25367 0.25754,-0.0541 0.43161,-0.0327 0.83819,0.10283 0.19063,0.0636 0.38168,0.11576 0.42478,0.11576 0.0431,0 0.22861,-0.0511 0.41238,-0.11317 0.30895,-0.10434 0.49463,-0.14757 0.67334,-0.14831 z m -5.627047,1.1405 h 0.79375 v 0.79375 h -0.79375 z m 8.202077,0 h 0.79375 v 0.79375 h -0.79375 z m -8.202077,1.52136 h 0.79375 v 0.79375 h -0.79375 z m 8.202077,0 h 0.79375 v 0.79375 h -0.79375 z m -8.202077,1.52135 h 0.79375 v 0.79375 h -0.79375 z m 8.202077,0 h 0.79375 v 0.79375 h -0.79375 z"
       id="rect6982"
       inkscape:connector-curvature="0" />
  </g>
</svg>
