<?xml version="1.0" encoding="UTF-8" standalone="no"?>
<!-- Created with Inkscape (http://www.inkscape.org/) -->

<svg
   xmlns:dc="http://purl.org/dc/elements/1.1/"
   xmlns:cc="http://creativecommons.org/ns#"
   xmlns:rdf="http://www.w3.org/1999/02/22-rdf-syntax-ns#"
   xmlns:svg="http://www.w3.org/2000/svg"
   xmlns="http://www.w3.org/2000/svg"
   xmlns:sodipodi="http://sodipodi.sourceforge.net/DTD/sodipodi-0.dtd"
   xmlns:inkscape="http://www.inkscape.org/namespaces/inkscape"
   width="48"
   height="48"
   viewBox="0 0 48 48"
   version="1.1"
   id="svg5502"
   inkscape:version="0.92.1 r15371"
   sodipodi:docname="appletrailers.svg">
  <defs
     id="defs5496" />
  <sodipodi:namedview
     id="base"
     pagecolor="#ffffff"
     bordercolor="#666666"
     borderopacity="1.0"
     inkscape:pageopacity="0.0"
     inkscape:pageshadow="2"
     inkscape:zoom="8"
     inkscape:cx="-3.0807697"
     inkscape:cy="13.966158"
     inkscape:document-units="px"
     inkscape:current-layer="layer1"
     showgrid="true"
     fit-margin-top="0"
     fit-margin-left="0"
     fit-margin-right="0"
     fit-margin-bottom="0"
     inkscape:window-width="1920"
     inkscape:window-height="1016"
     inkscape:window-x="1366"
     inkscape:window-y="27"
     inkscape:window-maximized="1"
     units="px">
    <inkscape:grid
       type="xygrid"
       id="grid6077" />
  </sodipodi:namedview>
  <metadata
     id="metadata5499">
    <rdf:RDF>
      <cc:Work
         rdf:about="">
        <dc:format>image/svg+xml</dc:format>
        <dc:type
           rdf:resource="http://purl.org/dc/dcmitype/StillImage" />
        <dc:title></dc:title>
      </cc:Work>
    </rdf:RDF>
  </metadata>
  <g
     inkscape:label="Layer 1"
     inkscape:groupmode="layer"
     id="layer1"
     transform="translate(-96.459526,-120.56071)">
    <path
       style="display:inline;fill:#ff950d;fill-opacity:1;stroke-width:1.00000012"
       d="m 116.70736,155.52734 c -0.7053,-0.13569 -1.47035,-0.69725 -2.29376,-1.68344 -1.1376,-1.3624 -1.96592,-2.8422 -2.51191,-4.4875 -0.48012,-1.4468 -0.60526,-2.12738 -0.65651,-3.5701 -0.0386,-1.08639 -0.0189,-1.4191 0.13002,-2.13525 0.50347,-2.43091 2.23816,-4.26791 4.47425,-4.73808 0.97338,-0.20448 1.6312,-0.12397 3.16789,0.38819 0.72053,0.24 1.44329,0.43669 1.60618,0.43669 0.1629,0 0.86438,-0.192 1.55891,-0.42645 1.55698,-0.5258 2.2839,-0.64123 3.22734,-0.5125 1.36422,0.18595 2.33288,0.64154 3.20149,1.50523 0.29481,0.2933 0.53522,0.56569 0.53401,0.60545 -9.8e-4,0.0397 -0.19729,0.20447 -0.43581,0.36661 -0.8679,0.58885 -1.5698,1.57754 -1.83958,2.59117 -0.0673,0.25322 -0.12321,0.80957 -0.12359,1.23613 -0.002,1.43864 0.38612,2.40041 1.36951,3.39473 0.3549,0.35905 0.86881,0.77843 1.14161,0.93203 0.57101,0.32126 0.5678,0.22942 0.0499,1.42537 -0.56368,1.3014 -1.93062,3.25066 -2.75086,3.92277 -0.20938,0.17159 -0.60415,0.41427 -0.87722,0.5393 -0.71354,0.32655 -1.44726,0.26835 -2.88039,-0.22942 -0.97795,-0.3394 -1.14421,-0.37228 -1.88746,-0.36964 -0.73716,0.002 -0.92576,0.0401 -1.97325,0.39376 -1.22438,0.4134 -1.74063,0.50948 -2.23065,0.4151 z m 3.79722,-17.44122 c 0.14929,-1.97484 1.5221,-3.6602 3.54944,-4.35768 0.26797,-0.0922 0.61655,-0.16781 0.77431,-0.16781 0.28649,0 0.28687,3e-4 0.28687,0.42474 0,1.12226 -0.48874,2.25721 -1.38558,3.21755 -0.92138,0.98657 -1.90148,1.50535 -2.8441,1.50535 h -0.42799 l 0.0469,-0.62223 z"
       id="path10031"
       inkscape:connector-curvature="0" />
    <path
       style="display:inline;fill:#747474;fill-opacity:1;fill-rule:evenodd;stroke:none;stroke-width:1.00000012"
       d="m 100.45953,130.56071 v 28 h 40 v -28 z m 3,1.00002 h 3.00001 v 3 h -3.00001 z m 30.99999,0 h 3.00001 v 3 h -3.00001 z m -9.63085,1.99998 c 0.28649,0 0.28724,-6.1e-4 0.28724,0.42383 0,1.12226 -0.48986,2.25842 -1.38671,3.21876 -0.92137,0.98657 -1.9011,1.50584 -2.84375,1.50584 h -0.42773 l 0.0469,-0.62302 c 0.14929,-1.97488 1.52149,-3.65994 3.54883,-4.35745 0.26797,-0.0922 0.61762,-0.16781 0.77541,-0.16781 z m -21.36914,3.75 h 3.00001 v 3 h -3.00001 z m 30.99999,0 h 3.00001 v 3 h -3.00001 z m -9.73241,1.43944 c 0.22526,-9.1e-4 0.44773,0.0151 0.68357,0.0488 1.36418,0.18595 2.33258,0.64214 3.20119,1.50584 0.2948,0.29329 0.53442,0.56568 0.53321,0.60548 -0.001,0.0397 -0.19691,0.20334 -0.43555,0.3651 -0.86789,0.58889 -1.57005,1.57818 -1.83984,2.59181 -0.0673,0.25323 -0.12245,0.80976 -0.12321,1.23632 -0.002,1.43864 0.38574,2.40019 1.36914,3.39454 0.35527,0.35906 0.86978,0.77805 1.14259,0.93162 0.57097,0.32126 0.56681,0.22979 0.0488,1.42578 -0.56368,1.30141 -1.92979,3.24979 -2.74999,3.9219 -0.20938,0.17159 -0.60586,0.41598 -0.87893,0.541 -0.7135,0.32655 -1.44574,0.26722 -2.8789,-0.23055 -0.97796,-0.3394 -1.14543,-0.37152 -1.88867,-0.36926 -0.73713,0.002 -0.92512,0.0389 -1.97266,0.39258 -1.22437,0.41341 -1.74047,0.51039 -2.23049,0.41601 -0.70529,-0.13568 -1.47148,-0.69739 -2.29489,-1.68358 -1.1376,-1.36241 -1.96574,-2.84296 -2.51173,-4.48826 -0.48011,-1.44677 -0.60502,-2.12565 -0.65627,-3.56837 -0.0386,-1.08638 -0.0189,-1.42053 0.13077,-2.13671 0.50343,-2.43088 2.23854,-4.26811 4.47462,-4.73828 0.97338,-0.20447 1.63129,-0.12359 3.16797,0.38865 0.72049,0.24038 1.44257,0.43752 1.60547,0.43752 0.1629,0 0.86404,-0.19314 1.5586,-0.42773 1.16769,-0.39436 1.86947,-0.55775 2.54491,-0.56054 z m -21.26758,4.31054 h 3.00001 v 3 h -3.00001 z m 30.99999,0 h 3.00001 v 3 h -3.00001 z m -30.99999,5.75002 h 3.00001 v 3 h -3.00001 z m 30.99999,0 h 3.00001 v 3 h -3.00001 z m -30.99999,5.74998 h 3.00001 v 3 h -3.00001 z m 30.99999,0 h 3.00001 v 3 h -3.00001 z"
       id="rect6982"
       inkscape:connector-curvature="0" />
  </g>
</svg>
