<?xml version="1.0" encoding="UTF-8" standalone="no"?>
<!-- Created with Inkscape (http://www.inkscape.org/) -->

<svg
   xmlns:dc="http://purl.org/dc/elements/1.1/"
   xmlns:cc="http://creativecommons.org/ns#"
   xmlns:rdf="http://www.w3.org/1999/02/22-rdf-syntax-ns#"
   xmlns:svg="http://www.w3.org/2000/svg"
   xmlns="http://www.w3.org/2000/svg"
   xmlns:sodipodi="http://sodipodi.sourceforge.net/DTD/sodipodi-0.dtd"
   xmlns:inkscape="http://www.inkscape.org/namespaces/inkscape"
   width="48"
   height="48"
   viewBox="0 0 48 48"
   version="1.1"
   id="svg5502"
   inkscape:version="0.92.1 r15371"
   sodipodi:docname="frenchtv.svg">
  <defs
     id="defs5496" />
  <sodipodi:namedview
     id="base"
     pagecolor="#ffffff"
     bordercolor="#666666"
     borderopacity="1.0"
     inkscape:pageopacity="0.0"
     inkscape:pageshadow="2"
     inkscape:zoom="5.6568543"
     inkscape:cx="-23.73983"
     inkscape:cy="58.207599"
     inkscape:document-units="px"
     inkscape:current-layer="layer1"
     showgrid="true"
     fit-margin-top="0"
     fit-margin-left="0"
     fit-margin-right="0"
     fit-margin-bottom="0"
     inkscape:window-width="1920"
     inkscape:window-height="1016"
     inkscape:window-x="1366"
     inkscape:window-y="27"
     inkscape:window-maximized="1"
     units="px"
     inkscape:snap-global="true"
     inkscape:snap-bbox="true"
     inkscape:bbox-paths="true"
     inkscape:bbox-nodes="true"
     inkscape:snap-bbox-edge-midpoints="true"
     inkscape:snap-bbox-midpoints="true"
     inkscape:snap-nodes="true"
     inkscape:object-paths="true"
     inkscape:snap-midpoints="true"
     inkscape:snap-smooth-nodes="true"
     inkscape:snap-intersection-paths="true">
    <inkscape:grid
       type="xygrid"
       id="grid6077" />
  </sodipodi:namedview>
  <metadata
     id="metadata5499">
    <rdf:RDF>
      <cc:Work
         rdf:about="">
        <dc:format>image/svg+xml</dc:format>
        <dc:type
           rdf:resource="http://purl.org/dc/dcmitype/StillImage" />
        <dc:title></dc:title>
      </cc:Work>
    </rdf:RDF>
  </metadata>
  <g
     inkscape:label="Layer 1"
     inkscape:groupmode="layer"
     id="layer1"
     transform="translate(-96.459526,-120.56071)">
    <rect
       style="color:#000000;display:inline;overflow:visible;visibility:visible;opacity:1;fill:#ff950d;fill-opacity:1;fill-rule:evenodd;stroke:none;stroke-width:3.00000072;stroke-linecap:butt;stroke-linejoin:round;stroke-miterlimit:4;stroke-dasharray:none;stroke-dashoffset:4.19999981;stroke-opacity:1;marker:none;enable-background:accumulate"
       id="rect10119"
       width="24.000025"
       height="17.999989"
       x="106.4595"
       y="140.56071"
       rx="4.0000038"
       ry="3.9999974" />
    <ellipse
       style="color:#000000;display:inline;overflow:visible;visibility:visible;opacity:1;fill:#ff950d;fill-opacity:1;fill-rule:evenodd;stroke:none;stroke-width:3.00000072;stroke-linecap:butt;stroke-linejoin:round;stroke-miterlimit:4;stroke-dasharray:none;stroke-dashoffset:4.19999981;stroke-opacity:1;marker:none;enable-background:accumulate"
       id="path10121"
       cx="134.45955"
       cy="145.56073"
       rx="2.0000019"
       ry="1.9999987" />
    <ellipse
       style="color:#000000;display:inline;overflow:visible;visibility:visible;opacity:1;fill:#ff950d;fill-opacity:1;fill-rule:evenodd;stroke:none;stroke-width:3.00000072;stroke-linecap:butt;stroke-linejoin:round;stroke-miterlimit:4;stroke-dasharray:none;stroke-dashoffset:4.19999981;stroke-opacity:1;marker:none;enable-background:accumulate"
       id="path10123"
       cx="134.45955"
       cy="153.56075"
       rx="2.0000019"
       ry="1.9999987" />
    <path
       style="color:#000000;display:inline;overflow:visible;visibility:visible;opacity:1;fill:#747474;fill-opacity:1;fill-rule:evenodd;stroke:none;stroke-width:3.00000072;stroke-linecap:butt;stroke-linejoin:round;stroke-miterlimit:4;stroke-dasharray:none;stroke-dashoffset:4.19999981;stroke-opacity:1;marker:none;enable-background:accumulate"
       d="m 106.45952,136.5607 c -2.21601,0 -3.99999,1.78401 -3.99999,4.00003 v 17.99998 c 0,2.21598 1.78398,3.99999 3.99999,3.99999 h 3.99999 c 0,1.10456 0.89545,2.00001 2.00002,2.00001 1.10457,0 2.00001,-0.89545 2.00001,-2.00001 h 12.00002 c 0,1.10456 0.8954,2.00001 1.99997,2.00001 1.10457,0 2.00002,-0.89545 2.00002,-2.00001 h 3.99999 c 2.21601,0 4.00003,-1.78401 4.00003,-3.99999 v -17.99998 c 0,-2.21602 -1.78402,-4.00003 -4.00003,-4.00003 z m 3.99999,4.00003 h 16.00005 c 2.21597,0 3.99999,1.78397 3.99999,3.99998 v 9.99998 c 0,2.21601 -1.78402,4.00002 -3.99999,4.00002 h -16.00005 c -2.21597,0 -3.99999,-1.78401 -3.99999,-4.00002 v -9.99998 c 0,-2.21601 1.78402,-3.99998 3.99999,-3.99998 z m 24.00003,2.99999 a 2.0000021,1.9999988 0 0 1 2.00001,1.99998 2.0000021,1.9999988 0 0 1 -2.00001,2.00001 2.0000021,1.9999988 0 0 1 -1.99998,-2.00001 2.0000021,1.9999988 0 0 1 1.99998,-1.99998 z m 0,7.99997 a 2.0000021,1.9999988 0 0 1 2.00001,2.00001 2.0000021,1.9999988 0 0 1 -2.00001,2.00002 2.0000021,1.9999988 0 0 1 -1.99998,-2.00002 2.0000021,1.9999988 0 0 1 1.99998,-2.00001 z"
       id="rect10117"
       inkscape:connector-curvature="0" />
    <path
       style="display:inline;fill:#747474;fill-opacity:1;fill-rule:evenodd;stroke:none;stroke-width:1.00000012px;stroke-linecap:butt;stroke-linejoin:miter;stroke-opacity:1"
       d="m 116.45952,136.5607 -7.99998,-7.99997 9.99999,7.99997 z"
       id="path10130"
       inkscape:connector-curvature="0" />
    <path
       inkscape:connector-curvature="0"
       id="path10132"
       d="m 120.45955,136.5607 3.99999,-11.99999 -6.00001,11.99999 z"
       style="display:inline;fill:#747474;fill-opacity:1;fill-rule:evenodd;stroke:none;stroke-width:1.00000012px;stroke-linecap:butt;stroke-linejoin:miter;stroke-opacity:1"
       sodipodi:nodetypes="cccc" />
    <rect
       style="color:#000000;display:inline;overflow:visible;visibility:visible;opacity:1;fill:#ff0000;fill-opacity:1;fill-rule:evenodd;stroke:none;stroke-width:3.00000072;stroke-linecap:butt;stroke-linejoin:round;stroke-miterlimit:4;stroke-dasharray:none;stroke-dashoffset:4.19999981;stroke-opacity:1;marker:none;enable-background:accumulate"
       id="rect10134"
       width="4.0000038"
       height="7.9999948"
       x="136.45952"
       y="124.56071"
       rx="0"
       ry="0" />
    <rect
       ry="0"
       rx="0"
       y="124.56071"
       x="132.45958"
       height="7.9999948"
       width="4.0000038"
       id="rect10138"
       style="color:#000000;display:inline;overflow:visible;visibility:visible;opacity:1;fill:#ffffff;fill-opacity:1;fill-rule:evenodd;stroke:none;stroke-width:3.00000072;stroke-linecap:butt;stroke-linejoin:round;stroke-miterlimit:4;stroke-dasharray:none;stroke-dashoffset:4.19999981;stroke-opacity:1;marker:none;enable-background:accumulate" />
    <rect
       style="color:#000000;display:inline;overflow:visible;visibility:visible;opacity:1;fill:#0000ff;fill-opacity:1;fill-rule:evenodd;stroke:none;stroke-width:3.00000072;stroke-linecap:butt;stroke-linejoin:round;stroke-miterlimit:4;stroke-dasharray:none;stroke-dashoffset:4.19999981;stroke-opacity:1;marker:none;enable-background:accumulate"
       id="rect10140"
       width="4.0000038"
       height="7.9999948"
       x="128.45949"
       y="124.56071"
       rx="0"
       ry="0" />
  </g>
</svg>
