<?xml version="1.0" encoding="UTF-8" standalone="no"?>
<!-- Created with Inkscape (http://www.inkscape.org/) -->

<svg
   xmlns:dc="http://purl.org/dc/elements/1.1/"
   xmlns:cc="http://creativecommons.org/ns#"
   xmlns:rdf="http://www.w3.org/1999/02/22-rdf-syntax-ns#"
   xmlns:svg="http://www.w3.org/2000/svg"
   xmlns="http://www.w3.org/2000/svg"
   xmlns:sodipodi="http://sodipodi.sourceforge.net/DTD/sodipodi-0.dtd"
   xmlns:inkscape="http://www.inkscape.org/namespaces/inkscape"
   width="48"
   height="48"
   viewBox="0 0 12.7 12.7"
   version="1.1"
   id="svg5502"
   inkscape:version="0.92.1 r15371"
   sodipodi:docname="frenchtv.svg">
  <defs
     id="defs5496" />
  <sodipodi:namedview
     id="base"
     pagecolor="#ffffff"
     bordercolor="#666666"
     borderopacity="1.0"
     inkscape:pageopacity="0.0"
     inkscape:pageshadow="2"
     inkscape:zoom="5.6568543"
     inkscape:cx="-24.093383"
     inkscape:cy="58.207599"
     inkscape:document-units="mm"
     inkscape:current-layer="layer1"
     showgrid="true"
     fit-margin-top="0"
     fit-margin-left="0"
     fit-margin-right="0"
     fit-margin-bottom="0"
     inkscape:window-width="1920"
     inkscape:window-height="1027"
     inkscape:window-x="0"
     inkscape:window-y="27"
     inkscape:window-maximized="1"
     units="px"
     inkscape:snap-global="true"
     inkscape:snap-bbox="true"
     inkscape:bbox-paths="true"
     inkscape:bbox-nodes="true"
     inkscape:snap-bbox-edge-midpoints="true"
     inkscape:snap-bbox-midpoints="true"
     inkscape:snap-nodes="true"
     inkscape:object-paths="true"
     inkscape:snap-midpoints="true"
     inkscape:snap-smooth-nodes="true"
     inkscape:snap-intersection-paths="true">
    <inkscape:grid
       type="xygrid"
       id="grid6077" />
  </sodipodi:namedview>
  <metadata
     id="metadata5499">
    <rdf:RDF>
      <cc:Work
         rdf:about="">
        <dc:format>image/svg+xml</dc:format>
        <dc:type
           rdf:resource="http://purl.org/dc/dcmitype/StillImage" />
        <dc:title></dc:title>
      </cc:Work>
    </rdf:RDF>
  </metadata>
  <g
     inkscape:label="Layer 1"
     inkscape:groupmode="layer"
     id="layer1"
     transform="translate(-96.459526,-120.56071)">
    <rect
       style="color:#000000;display:inline;overflow:visible;visibility:visible;opacity:1;fill:#ff950d;fill-opacity:1;fill-rule:evenodd;stroke:none;stroke-width:0.79374999;stroke-linecap:butt;stroke-linejoin:round;stroke-miterlimit:4;stroke-dasharray:none;stroke-dashoffset:4.19999981;stroke-opacity:1;marker:none;enable-background:accumulate"
       id="rect10119"
       width="6.3499999"
       height="4.7624998"
       x="99.10537"
       y="125.85238"
       rx="1.0583333"
       ry="1.0583333" />
    <circle
       style="color:#000000;display:inline;overflow:visible;visibility:visible;opacity:1;fill:#ff950d;fill-opacity:1;fill-rule:evenodd;stroke:none;stroke-width:0.79374999;stroke-linecap:butt;stroke-linejoin:round;stroke-miterlimit:4;stroke-dasharray:none;stroke-dashoffset:4.19999981;stroke-opacity:1;marker:none;enable-background:accumulate"
       id="path10121"
       cx="106.5137"
       cy="127.17529"
       r="0.52916664" />
    <circle
       style="color:#000000;display:inline;overflow:visible;visibility:visible;opacity:1;fill:#ff950d;fill-opacity:1;fill-rule:evenodd;stroke:none;stroke-width:0.79374999;stroke-linecap:butt;stroke-linejoin:round;stroke-miterlimit:4;stroke-dasharray:none;stroke-dashoffset:4.19999981;stroke-opacity:1;marker:none;enable-background:accumulate"
       id="path10123"
       cx="106.5137"
       cy="129.29196"
       r="0.52916664" />
    <path
       style="color:#000000;display:inline;overflow:visible;visibility:visible;opacity:1;fill:#747474;fill-opacity:1;fill-rule:evenodd;stroke:none;stroke-width:0.79374999;stroke-linecap:butt;stroke-linejoin:round;stroke-miterlimit:4;stroke-dasharray:none;stroke-dashoffset:4.19999981;stroke-opacity:1;marker:none;enable-background:accumulate"
       d="m 99.105369,124.79404 c -0.58632,0 -1.05833,0.47202 -1.05833,1.05834 v 4.7625 c 0,0.58631 0.47201,1.05833 1.05833,1.05833 h 1.058331 c 0,0.29225 0.23692,0.52917 0.52917,0.52917 0.29225,0 0.52917,-0.23692 0.52917,-0.52917 h 3.175 c 0,0.29225 0.23691,0.52917 0.52916,0.52917 0.29225,0 0.52917,-0.23692 0.52917,-0.52917 h 1.05833 c 0.58632,0 1.05834,-0.47202 1.05834,-1.05833 v -4.7625 c 0,-0.58632 -0.47202,-1.05834 -1.05834,-1.05834 z m 1.058331,1.05834 h 4.23334 c 0.58631,0 1.05833,0.47201 1.05833,1.05833 v 2.64583 c 0,0.58632 -0.47202,1.05834 -1.05833,1.05834 h -4.23334 c -0.586311,0 -1.058331,-0.47202 -1.058331,-1.05834 v -2.64583 c 0,-0.58632 0.47202,-1.05833 1.058331,-1.05833 z m 6.35,0.79375 a 0.52916667,0.52916667 0 0 1 0.52917,0.52916 0.52916667,0.52916667 0 0 1 -0.52917,0.52917 0.52916667,0.52916667 0 0 1 -0.52916,-0.52917 0.52916667,0.52916667 0 0 1 0.52916,-0.52916 z m 0,2.11666 a 0.52916667,0.52916667 0 0 1 0.52917,0.52917 0.52916667,0.52916667 0 0 1 -0.52917,0.52917 0.52916667,0.52916667 0 0 1 -0.52916,-0.52917 0.52916667,0.52916667 0 0 1 0.52916,-0.52917 z"
       id="rect10117"
       inkscape:connector-curvature="0" />
    <path
       style="display:inline;fill:#747474;fill-opacity:1;fill-rule:evenodd;stroke:none;stroke-width:0.26458332px;stroke-linecap:butt;stroke-linejoin:miter;stroke-opacity:1"
       d="m 101.7512,124.79404 -2.116661,-2.11666 2.645831,2.11666 z"
       id="path10130"
       inkscape:connector-curvature="0" />
    <path
       inkscape:connector-curvature="0"
       id="path10132"
       d="m 102.80954,124.79404 1.05833,-3.175 -1.5875,3.175 z"
       style="display:inline;fill:#747474;fill-opacity:1;fill-rule:evenodd;stroke:none;stroke-width:0.26458332px;stroke-linecap:butt;stroke-linejoin:miter;stroke-opacity:1"
       sodipodi:nodetypes="cccc" />
    <rect
       style="color:#000000;display:inline;overflow:visible;visibility:visible;opacity:1;fill:#ff0000;fill-opacity:1;fill-rule:evenodd;stroke:none;stroke-width:0.79374999;stroke-linecap:butt;stroke-linejoin:round;stroke-miterlimit:4;stroke-dasharray:none;stroke-dashoffset:4.19999981;stroke-opacity:1;marker:none;enable-background:accumulate"
       id="rect10134"
       width="1.0583333"
       height="2.1166666"
       x="107.04287"
       y="121.61904"
       rx="0"
       ry="0" />
    <rect
       ry="0"
       rx="0"
       y="121.61904"
       x="105.98454"
       height="2.1166666"
       width="1.0583333"
       id="rect10138"
       style="color:#000000;display:inline;overflow:visible;visibility:visible;opacity:1;fill:#ffffff;fill-opacity:1;fill-rule:evenodd;stroke:none;stroke-width:0.79374999;stroke-linecap:butt;stroke-linejoin:round;stroke-miterlimit:4;stroke-dasharray:none;stroke-dashoffset:4.19999981;stroke-opacity:1;marker:none;enable-background:accumulate" />
    <rect
       style="color:#000000;display:inline;overflow:visible;visibility:visible;opacity:1;fill:#0000ff;fill-opacity:1;fill-rule:evenodd;stroke:none;stroke-width:0.79374999;stroke-linecap:butt;stroke-linejoin:round;stroke-miterlimit:4;stroke-dasharray:none;stroke-dashoffset:4.19999981;stroke-opacity:1;marker:none;enable-background:accumulate"
       id="rect10140"
       width="1.0583333"
       height="2.1166666"
       x="104.9262"
       y="121.61904"
       rx="0"
       ry="0" />
  </g>
</svg>
