<?xml version="1.0" encoding="UTF-8" standalone="no"?>
<!-- Created with Inkscape (http://www.inkscape.org/) -->

<svg
   xmlns:dc="http://purl.org/dc/elements/1.1/"
   xmlns:cc="http://creativecommons.org/ns#"
   xmlns:rdf="http://www.w3.org/1999/02/22-rdf-syntax-ns#"
   xmlns:svg="http://www.w3.org/2000/svg"
   xmlns="http://www.w3.org/2000/svg"
   xmlns:sodipodi="http://sodipodi.sourceforge.net/DTD/sodipodi-0.dtd"
   xmlns:inkscape="http://www.inkscape.org/namespaces/inkscape"
   width="48"
   height="48"
   viewBox="0 0 12.7 12.7"
   version="1.1"
   id="svg5502"
   inkscape:version="0.92.1 r15371"
   sodipodi:docname="icecast.svg">
  <defs
     id="defs5496" />
  <sodipodi:namedview
     id="base"
     pagecolor="#ffffff"
     bordercolor="#666666"
     borderopacity="1.0"
     inkscape:pageopacity="0.0"
     inkscape:pageshadow="2"
     inkscape:zoom="5.6568543"
     inkscape:cx="-24.093383"
     inkscape:cy="58.207599"
     inkscape:document-units="mm"
     inkscape:current-layer="layer1"
     showgrid="true"
     fit-margin-top="0"
     fit-margin-left="0"
     fit-margin-right="0"
     fit-margin-bottom="0"
     inkscape:window-width="1920"
     inkscape:window-height="1027"
     inkscape:window-x="0"
     inkscape:window-y="27"
     inkscape:window-maximized="1"
     units="px"
     inkscape:snap-global="true"
     inkscape:snap-bbox="true"
     inkscape:bbox-paths="true"
     inkscape:bbox-nodes="true"
     inkscape:snap-bbox-edge-midpoints="true"
     inkscape:snap-bbox-midpoints="true"
     inkscape:snap-nodes="true"
     inkscape:object-paths="true"
     inkscape:snap-midpoints="true"
     inkscape:snap-smooth-nodes="true"
     inkscape:snap-intersection-paths="true">
    <inkscape:grid
       type="xygrid"
       id="grid6077" />
  </sodipodi:namedview>
  <metadata
     id="metadata5499">
    <rdf:RDF>
      <cc:Work
         rdf:about="">
        <dc:format>image/svg+xml</dc:format>
        <dc:type
           rdf:resource="http://purl.org/dc/dcmitype/StillImage" />
        <dc:title></dc:title>
      </cc:Work>
    </rdf:RDF>
  </metadata>
  <g
     inkscape:label="Layer 1"
     inkscape:groupmode="layer"
     id="layer1"
     transform="translate(-96.459526,-120.56071)">
    <path
       inkscape:connector-curvature="0"
       id="path10142"
       d="m 97.51786,125.37964 0.756402,0.26466 a 4.8108904,4.8108904 0 0 1 4.535268,-3.22344 4.8108904,4.8108904 0 0 1 4.53578,3.22344 l 0.75588,-0.26466 a 5.6127055,5.6127055 0 0 0 -5.29166,-3.7606 5.6127055,5.6127055 0 0 0 -5.29167,3.7606 z m 1.511755,0.52932 0.755881,0.26467 a 3.2072601,3.2072609 0 0 1 3.024034,-2.14914 3.2072601,3.2072609 0 0 1 3.02351,2.14914 l 0.7564,-0.26467 a 4.0090741,4.0090754 0 0 0 -3.77991,-2.68629 4.0090741,4.0090754 0 0 0 -3.779915,2.68629 z m 1.511755,0.5288 0.7564,0.26466 a 1.6036301,1.6036292 0 0 1 1.51176,-1.0743 1.6036301,1.6036292 0 0 1 1.51175,1.0743 l 0.75588,-0.26413 a 2.4054452,2.4054459 0 0 0 -2.26763,-1.61199 2.4054452,2.4054459 0 0 0 -2.26816,1.61146 z"
       style="color:#000000;display:inline;overflow:visible;visibility:visible;opacity:1;fill:#ff950d;fill-opacity:1;fill-rule:evenodd;stroke:none;stroke-width:0.79374999;stroke-linecap:butt;stroke-linejoin:round;stroke-miterlimit:4;stroke-dasharray:none;stroke-dashoffset:4.19999981;stroke-opacity:1;marker:none;enable-background:accumulate" />
    <path
       style="display:inline;fill:#747474;fill-opacity:1;fill-rule:evenodd;stroke:none;stroke-width:0.20509106;stroke-linecap:butt;stroke-linejoin:round;stroke-miterlimit:4;stroke-dasharray:none;stroke-opacity:1"
       d="m 102.83224,126.91071 -2.12719,0.58735 2.19646,0.90263 2.02801,-0.98685 z m 2.3106,0.64387 -2.12775,1.03561 v 3.58393 l 2.12775,-2.04131 z m -4.66663,0.087 v 2.69681 l 2.31946,1.864 v -3.60776 z"
       id="path7098"
       inkscape:connector-curvature="0" />
  </g>
</svg>
