<?xml version="1.0" encoding="UTF-8" standalone="no"?>
<!-- Created with Inkscape (http://www.inkscape.org/) -->

<svg
   xmlns:dc="http://purl.org/dc/elements/1.1/"
   xmlns:cc="http://creativecommons.org/ns#"
   xmlns:rdf="http://www.w3.org/1999/02/22-rdf-syntax-ns#"
   xmlns:svg="http://www.w3.org/2000/svg"
   xmlns="http://www.w3.org/2000/svg"
   xmlns:sodipodi="http://sodipodi.sourceforge.net/DTD/sodipodi-0.dtd"
   xmlns:inkscape="http://www.inkscape.org/namespaces/inkscape"
   width="48"
   height="48"
   viewBox="0 0 48 48"
   version="1.1"
   id="svg5502"
   inkscape:version="0.92.1 r15371"
   sodipodi:docname="icecast.svg">
  <defs
     id="defs5496" />
  <sodipodi:namedview
     id="base"
     pagecolor="#ffffff"
     bordercolor="#666666"
     borderopacity="1.0"
     inkscape:pageopacity="0.0"
     inkscape:pageshadow="2"
     inkscape:zoom="5.6568543"
     inkscape:cx="-23.386276"
     inkscape:cy="44.957332"
     inkscape:document-units="px"
     inkscape:current-layer="layer1"
     showgrid="true"
     fit-margin-top="0"
     fit-margin-left="0"
     fit-margin-right="0"
     fit-margin-bottom="0"
     inkscape:window-width="1920"
     inkscape:window-height="1016"
     inkscape:window-x="1366"
     inkscape:window-y="27"
     inkscape:window-maximized="1"
     units="px"
     inkscape:snap-global="true"
     inkscape:snap-bbox="true"
     inkscape:bbox-paths="true"
     inkscape:bbox-nodes="true"
     inkscape:snap-bbox-edge-midpoints="true"
     inkscape:snap-bbox-midpoints="true"
     inkscape:snap-nodes="true"
     inkscape:object-paths="true"
     inkscape:snap-midpoints="true"
     inkscape:snap-smooth-nodes="true"
     inkscape:snap-intersection-paths="true">
    <inkscape:grid
       type="xygrid"
       id="grid6077" />
  </sodipodi:namedview>
  <metadata
     id="metadata5499">
    <rdf:RDF>
      <cc:Work
         rdf:about="">
        <dc:format>image/svg+xml</dc:format>
        <dc:type
           rdf:resource="http://purl.org/dc/dcmitype/StillImage" />
        <dc:title></dc:title>
      </cc:Work>
    </rdf:RDF>
  </metadata>
  <g
     inkscape:label="Layer 1"
     inkscape:groupmode="layer"
     id="layer1"
     transform="translate(-96.459526,-120.56071)">
    <path
       inkscape:connector-curvature="0"
       id="path10142"
       d="m 100.45953,138.77398 2.85884,1.00029 a 18.182899,18.182864 0 0 1 17.14118,-12.18306 18.182899,18.182864 0 0 1 17.14311,12.18306 l 2.85687,-1.00029 a 21.213382,21.213342 0 0 0 -19.99998,-14.21327 21.213382,21.213342 0 0 0 -20.00002,14.21327 z m 5.7137,2.00058 2.85687,1.00032 a 12.121932,12.121912 0 0 1 11.42945,-8.12272 12.121932,12.121912 0 0 1 11.42744,8.12272 l 2.85884,-1.00032 a 15.152411,15.152387 0 0 0 -14.28628,-10.1529 15.152411,15.152387 0 0 0 -14.28632,10.1529 z m 5.71374,1.99861 2.85884,1.00028 a 6.0609661,6.0609512 0 0 1 5.71374,-4.06034 6.0609661,6.0609512 0 0 1 5.7137,4.06034 l 2.85687,-0.99828 a 9.0914493,9.0914348 0 0 0 -8.57057,-6.09255 9.0914493,9.0914348 0 0 0 -8.57258,6.09055 z"
       style="color:#000000;display:inline;overflow:visible;visibility:visible;opacity:1;fill:#ff950d;fill-opacity:1;fill-rule:evenodd;stroke:none;stroke-width:2.99999809;stroke-linecap:butt;stroke-linejoin:round;stroke-miterlimit:4;stroke-dasharray:none;stroke-dashoffset:4.19999981;stroke-opacity:1;marker:none;enable-background:accumulate" />
    <path
       style="display:inline;fill:#747474;fill-opacity:1;fill-rule:evenodd;stroke:none;stroke-width:0.77514684;stroke-linecap:butt;stroke-linejoin:round;stroke-miterlimit:4;stroke-dasharray:none;stroke-opacity:1"
       d="m 120.54538,144.56069 -8.03977,2.2199 8.30158,3.41151 7.66492,-3.72982 z m 8.73298,2.43352 -8.04189,3.91411 v 13.54554 l 8.04189,-7.71517 z m -17.63766,0.32882 v 10.19265 l 8.76646,7.04503 V 150.9251 Z"
       id="path7098"
       inkscape:connector-curvature="0" />
  </g>
</svg>
