<?xml version="1.0" encoding="UTF-8" standalone="no"?>
<!-- Created with Inkscape (http://www.inkscape.org/) -->

<svg
   xmlns:dc="http://purl.org/dc/elements/1.1/"
   xmlns:cc="http://creativecommons.org/ns#"
   xmlns:rdf="http://www.w3.org/1999/02/22-rdf-syntax-ns#"
   xmlns:svg="http://www.w3.org/2000/svg"
   xmlns="http://www.w3.org/2000/svg"
   xmlns:sodipodi="http://sodipodi.sourceforge.net/DTD/sodipodi-0.dtd"
   xmlns:inkscape="http://www.inkscape.org/namespaces/inkscape"
   width="48"
   height="48"
   viewBox="0 0 48 48"
   version="1.1"
   id="svg5502"
   inkscape:version="0.92.1 r15371"
   sodipodi:docname="katsomo.svg">
  <defs
     id="defs5496" />
  <sodipodi:namedview
     id="base"
     pagecolor="#ffffff"
     bordercolor="#666666"
     borderopacity="1.0"
     inkscape:pageopacity="0.0"
     inkscape:pageshadow="2"
     inkscape:zoom="8"
     inkscape:cx="-5.957956"
     inkscape:cy="29.35406"
     inkscape:document-units="px"
     inkscape:current-layer="layer1"
     showgrid="true"
     fit-margin-top="0"
     fit-margin-left="0"
     fit-margin-right="0"
     fit-margin-bottom="0"
     inkscape:window-width="1920"
     inkscape:window-height="1016"
     inkscape:window-x="1366"
     inkscape:window-y="27"
     inkscape:window-maximized="1"
     units="px"
     inkscape:snap-global="true"
     inkscape:snap-bbox="true"
     inkscape:bbox-paths="true"
     inkscape:bbox-nodes="true"
     inkscape:snap-bbox-edge-midpoints="true"
     inkscape:snap-bbox-midpoints="true"
     inkscape:snap-nodes="true"
     inkscape:object-paths="true"
     inkscape:snap-midpoints="true"
     inkscape:snap-smooth-nodes="true"
     inkscape:snap-intersection-paths="true">
    <inkscape:grid
       type="xygrid"
       id="grid6077" />
  </sodipodi:namedview>
  <metadata
     id="metadata5499">
    <rdf:RDF>
      <cc:Work
         rdf:about="">
        <dc:format>image/svg+xml</dc:format>
        <dc:type
           rdf:resource="http://purl.org/dc/dcmitype/StillImage" />
        <dc:title></dc:title>
      </cc:Work>
    </rdf:RDF>
  </metadata>
  <g
     inkscape:label="Layer 1"
     inkscape:groupmode="layer"
     id="layer1"
     transform="translate(-96.459526,-120.56071)">
    <path
       style="color:#000000;display:inline;overflow:visible;visibility:visible;opacity:1;fill:#ff950d;fill-opacity:1;fill-rule:evenodd;stroke:none;stroke-width:2.99999952;stroke-linecap:butt;stroke-linejoin:round;stroke-miterlimit:4;stroke-dasharray:none;stroke-dashoffset:4.19999981;stroke-opacity:1;marker:none;enable-background:accumulate"
       d="m 104.45952,124.56071 c -2.21601,0 -3.99999,1.78401 -3.99999,4.00002 v 31.99996 c 0,2.21601 1.78398,4.00002 3.99999,4.00002 h 32.00002 c 2.21601,0 3.99999,-1.78401 3.99999,-4.00002 v -31.99996 c 0,-2.21601 -1.78398,-4.00002 -3.99999,-4.00002 z m 16.00003,3.49999 c 9.11267,0 16.49999,7.38731 16.49999,16.50001 0,9.1127 -7.38732,16.49997 -16.49999,16.49997 -9.11271,0 -16.50003,-7.38727 -16.50003,-16.49997 0,-9.1127 7.38732,-16.50001 16.50003,-16.50001 z m -3.65216,9.45717 c -0.1406,0.0265 -0.25474,0.0866 -0.34772,0.17952 -0.94907,0.94908 -0.92288,12.83459 0.0302,13.88825 0.13871,0.15345 0.34885,0.27779 0.46602,0.27779 0.80802,0 6.55823,-3.53351 9.1494,-5.62265 1.12203,-0.90462 1.27503,-1.08646 1.3149,-1.56211 0.0412,-0.49262 -0.0265,-0.60019 -0.82046,-1.27548 -2.40393,-2.04672 -5.10406,-3.88577 -7.55668,-5.14575 -1.14096,-0.58616 -1.81398,-0.81785 -2.23593,-0.73946 z"
       id="rect10441"
       inkscape:connector-curvature="0"
       sodipodi:nodetypes="sssssssssssssscccssccscc" />
  </g>
</svg>
