<?xml version="1.0" encoding="UTF-8" standalone="no"?>
<!-- Created with Inkscape (http://www.inkscape.org/) -->

<svg
   xmlns:dc="http://purl.org/dc/elements/1.1/"
   xmlns:cc="http://creativecommons.org/ns#"
   xmlns:rdf="http://www.w3.org/1999/02/22-rdf-syntax-ns#"
   xmlns:svg="http://www.w3.org/2000/svg"
   xmlns="http://www.w3.org/2000/svg"
   xmlns:sodipodi="http://sodipodi.sourceforge.net/DTD/sodipodi-0.dtd"
   xmlns:inkscape="http://www.inkscape.org/namespaces/inkscape"
   width="48"
   height="48"
   viewBox="0 0 12.7 12.7"
   version="1.1"
   id="svg5502"
   inkscape:version="0.92.1 r15371"
   sodipodi:docname="metachannels.svg">
  <defs
     id="defs5496" />
  <sodipodi:namedview
     id="base"
     pagecolor="#ffffff"
     bordercolor="#666666"
     borderopacity="1.0"
     inkscape:pageopacity="0.0"
     inkscape:pageshadow="2"
     inkscape:zoom="8"
     inkscape:cx="13.746525"
     inkscape:cy="37.865933"
     inkscape:document-units="mm"
     inkscape:current-layer="layer1"
     showgrid="true"
     fit-margin-top="0"
     fit-margin-left="0"
     fit-margin-right="0"
     fit-margin-bottom="0"
     inkscape:window-width="1920"
     inkscape:window-height="1027"
     inkscape:window-x="0"
     inkscape:window-y="27"
     inkscape:window-maximized="1"
     units="px"
     inkscape:snap-global="true"
     inkscape:snap-bbox="true"
     inkscape:bbox-paths="true"
     inkscape:bbox-nodes="true"
     inkscape:snap-bbox-edge-midpoints="true"
     inkscape:snap-bbox-midpoints="true"
     inkscape:snap-nodes="true"
     inkscape:object-paths="true"
     inkscape:snap-midpoints="true"
     inkscape:snap-smooth-nodes="true"
     inkscape:snap-intersection-paths="true">
    <inkscape:grid
       type="xygrid"
       id="grid6077" />
  </sodipodi:namedview>
  <metadata
     id="metadata5499">
    <rdf:RDF>
      <cc:Work
         rdf:about="">
        <dc:format>image/svg+xml</dc:format>
        <dc:type
           rdf:resource="http://purl.org/dc/dcmitype/StillImage" />
        <dc:title></dc:title>
      </cc:Work>
    </rdf:RDF>
  </metadata>
  <g
     inkscape:label="Layer 1"
     inkscape:groupmode="layer"
     id="layer1"
     transform="translate(-96.459526,-120.56071)">
    <path
       style="color:#000000;display:inline;overflow:visible;visibility:visible;opacity:1;fill:#ff950d;fill-opacity:1;fill-rule:evenodd;stroke:none;stroke-width:0.79374999;stroke-linecap:butt;stroke-linejoin:round;stroke-miterlimit:4;stroke-dasharray:none;stroke-dashoffset:4.19999981;stroke-opacity:1;marker:none;enable-background:accumulate"
       d="m 102.80953,121.60562 a 5.55625,5.55625 0 0 0 -0.26459,0.0134 v 0.78962 a 4.7625,4.7625 0 0 1 0.26459,-0.009 4.7625,4.7625 0 0 1 4.57698,3.45303 h 0.81597 a 5.55625,5.55625 0 0 0 -5.39295,-4.24677 z m 0,1.5875 a 3.96875,3.9687489 0 0 0 -0.26459,0.0129 v 0.79323 a 3.1750008,3.175 0 0 1 0.26459,-0.0124 3.1750008,3.175 0 0 1 2.88819,1.86554 h 0.8537 a 3.96875,3.9687489 0 0 0 -3.74189,-2.65927 z m 0,1.5875 a 2.3812508,2.38125 0 0 0 -0.26459,0.016 v 0.80047 a 1.5874991,1.5875 0 0 1 0.26459,-0.0227 1.5874991,1.5875 0 0 1 0.8971,0.27802 h 1.08986 a 2.3812508,2.38125 0 0 0 -1.98696,-1.07176 z m -5.389857,3.18843 a 5.55625,5.55625 0 0 0 5.389857,4.23334 5.55625,5.55625 0 0 0 0.26458,-0.0134 v -0.78962 a 4.7625,4.7625 0 0 1 -0.26458,0.009 4.7625,4.7625 0 0 1 -4.572337,-3.43958 z m 1.653127,0 a 3.96875,3.9687489 0 0 0 3.73673,2.64584 3.96875,3.9687489 0 0 0 0.26458,-0.0129 v -0.79323 a 3.1750008,3.175 0 0 1 -0.26458,0.0124 3.1750008,3.175 0 0 1 -2.882001,-1.85208 z m 1.75803,0 a 2.3812508,2.38125 0 0 0 1.9787,1.05834 2.3812508,2.38125 0 0 0 0.26458,-0.016 v -0.80047 a 1.5874991,1.5875 0 0 1 -0.26458,0.0227 1.5874991,1.5875 0 0 1 -0.8754,-0.26458 z"
       id="path10447"
       inkscape:connector-curvature="0" />
    <text
       xml:space="preserve"
       style="font-style:normal;font-variant:normal;font-weight:normal;font-stretch:normal;font-size:3.17499995px;line-height:0%;font-family:Raleway;-inkscape-font-specification:'Raleway, Normal';text-align:start;letter-spacing:0px;word-spacing:0px;writing-mode:lr-tb;text-anchor:start;display:inline;fill:#757575;fill-opacity:1;stroke:none;stroke-width:0.26458332px;stroke-linecap:butt;stroke-linejoin:miter;stroke-opacity:1"
       x="97.433113"
       y="128.27449"
       id="text10460"><tspan
         sodipodi:role="line"
         id="tspan10462"
         x="97.433113"
         y="128.27449"
         style="font-style:normal;font-variant:normal;font-weight:900;font-stretch:normal;font-size:3.85244679px;line-height:1.25;font-family:Raleway;-inkscape-font-specification:'Raleway Heavy';fill:#757575;fill-opacity:1;stroke-width:0.26458332px">CHAN</tspan></text>
  </g>
</svg>
