<svg id="Calque_1" data-name="Calque 1" xmlns="http://www.w3.org/2000/svg" viewBox="0 0 48 48"><title>Icon-Vinyl</title><path d="M20,22.6l-2.84-1a7.26,7.26,0,0,1,3.69-4.16l1.33,2.7A4.27,4.27,0,0,0,20,22.6Zm10.9,3.79L28,25.4a4.17,4.17,0,0,1-2.16,2.44l1.29,2.72A7.14,7.14,0,0,0,30.87,26.39ZM17.19,30.81a9.61,9.61,0,1,1,16.33-5.38c0,.31-.11.62-.18.93s-.17.6-.27.9c0,.14-.11.29-.17.43a9.37,9.37,0,0,1-.4.85,8.21,8.21,0,0,1-.48.81,8.41,8.41,0,0,1-.88,1.11l-.33.35a9.66,9.66,0,0,1-13.62,0ZM15.28,24a8.73,8.73,0,0,0,14.9,6.17A8.59,8.59,0,0,0,32.72,24a8.72,8.72,0,1,0-17.44,0ZM24,25.85A1.85,1.85,0,1,0,22.15,24,1.84,1.84,0,0,0,24,25.85ZM40,10.67V37.33A2.66,2.66,0,0,1,37.33,40H10.67A2.66,2.66,0,0,1,8,37.33V10.67A2.66,2.66,0,0,1,10.67,8H37.33A2.66,2.66,0,0,1,40,10.67Zm-2.67,0H10.67V37.33H37.33Z"/></svg>