<?xml version="1.0" encoding="UTF-8" standalone="no"?>
<!-- Generator: Adobe Illustrator 19.1.0, SVG Export Plug-In . SVG Version: 6.00 Build 0)  -->

<svg
   xmlns:dc="http://purl.org/dc/elements/1.1/"
   xmlns:cc="http://creativecommons.org/ns#"
   xmlns:rdf="http://www.w3.org/1999/02/22-rdf-syntax-ns#"
   xmlns:svg="http://www.w3.org/2000/svg"
   xmlns="http://www.w3.org/2000/svg"
   xmlns:sodipodi="http://sodipodi.sourceforge.net/DTD/sodipodi-0.dtd"
   xmlns:inkscape="http://www.inkscape.org/namespaces/inkscape"
   version="1.1"
   id="Capa_1"
   x="0px"
   y="0px"
   viewBox="0 0 48.000002 48.000002"
   xml:space="preserve"
   inkscape:version="0.91 r13725"
   sodipodi:docname="close.svg"
   width="48"
   height="48"><metadata
     id="metadata3450"><rdf:RDF><cc:Work
         rdf:about=""><dc:format>image/svg+xml</dc:format><dc:type
           rdf:resource="http://purl.org/dc/dcmitype/StillImage" /><dc:title></dc:title></cc:Work></rdf:RDF></metadata><defs
     id="defs3448" /><sodipodi:namedview
     pagecolor="#ffffff"
     bordercolor="#666666"
     borderopacity="1"
     objecttolerance="10"
     gridtolerance="10"
     guidetolerance="10"
     inkscape:pageopacity="0"
     inkscape:pageshadow="2"
     inkscape:window-width="1329"
     inkscape:window-height="750"
     id="namedview3446"
     showgrid="false"
     inkscape:zoom="9.503293"
     inkscape:cx="10.549814"
     inkscape:cy="17.065547"
     inkscape:window-x="37"
     inkscape:window-y="18"
     inkscape:window-maximized="1"
     inkscape:current-layer="Capa_1" /><path
     style="fill:#1e201d"
     d="m 0.98605217,4.2419239 c -0.89082947,-0.8908295 -0.89082947,-2.3734687 0,-3.29544608 0.92197733,-0.89082942 2.37346873,-0.89082942 3.29544603,0 L 24.056251,20.754455 43.864228,0.94647782 c 0.89083,-0.89082942 2.373469,-0.89082942 3.262222,0 0.921977,0.92197738 0.921977,2.40669318 0,3.29544608 L 27.351697,24.018754 47.12645,43.826731 c 0.921977,0.890829 0.921977,2.373469 0,3.295446 -0.89083,0.890829 -2.373469,0.890829 -3.262222,0 L 24.056251,27.3142 4.2814982,47.122177 c -0.9219773,0.890829 -2.3734687,0.890829 -3.29544603,0 -0.89082947,-0.921977 -0.89082947,-2.406693 0,-3.295446 L 20.760805,24.018754 0.98605217,4.2419239 Z"
     id="path3414"
     inkscape:connector-curvature="0" /><g
     id="g3416"
     transform="translate(0,25.120002)" /><g
     id="g3418"
     transform="translate(0,25.120002)" /><g
     id="g3420"
     transform="translate(0,25.120002)" /><g
     id="g3422"
     transform="translate(0,25.120002)" /><g
     id="g3424"
     transform="translate(0,25.120002)" /><g
     id="g3426"
     transform="translate(0,25.120002)" /><g
     id="g3428"
     transform="translate(0,25.120002)" /><g
     id="g3430"
     transform="translate(0,25.120002)" /><g
     id="g3432"
     transform="translate(0,25.120002)" /><g
     id="g3434"
     transform="translate(0,25.120002)" /><g
     id="g3436"
     transform="translate(0,25.120002)" /><g
     id="g3438"
     transform="translate(0,25.120002)" /><g
     id="g3440"
     transform="translate(0,25.120002)" /><g
     id="g3442"
     transform="translate(0,25.120002)" /><g
     id="g3444"
     transform="translate(0,25.120002)" /></svg>