<svg xmlns="http://www.w3.org/2000/svg" viewBox="0 0 48 48">
  <path d="m 8.4501033,10.669523 c -0.6001377,-0.599987 -0.6001377,-1.5985675 0,-2.2195325 0.6211215,-0.599987 1.5989687,-0.599987 2.2200897,0 L 23.992131,21.790957 37.336452,8.4499905 c 0.600138,-0.599987 1.598968,-0.599987 2.197707,0 0.621121,0.620965 0.621121,1.6209445 0,2.2195325 L 26.212221,23.989512 39.534159,37.330478 c 0.621121,0.599986 0.621121,1.598566 0,2.219532 -0.600138,0.599986 -1.598968,0.599986 -2.197707,0 L 23.992131,26.209043 10.670193,39.55001 c -0.621121,0.599986 -1.5989682,0.599986 -2.2200897,0 -0.6001377,-0.620966 -0.6001377,-1.620944 0,-2.219532 L 21.772041,23.989512 Z"/>
</svg>
