<?xml version="1.0" encoding="UTF-8" standalone="no"?>
<!-- Generator: Adobe Illustrator 18.1.1, SVG Export Plug-In . SVG Version: 6.00 Build 0)  -->

<svg
   xmlns:dc="http://purl.org/dc/elements/1.1/"
   xmlns:cc="http://creativecommons.org/ns#"
   xmlns:rdf="http://www.w3.org/1999/02/22-rdf-syntax-ns#"
   xmlns:svg="http://www.w3.org/2000/svg"
   xmlns="http://www.w3.org/2000/svg"
   xmlns:sodipodi="http://sodipodi.sourceforge.net/DTD/sodipodi-0.dtd"
   xmlns:inkscape="http://www.inkscape.org/namespaces/inkscape"
   version="1.1"
   id="Capa_1"
   x="0px"
   y="0px"
   viewBox="0 0 48 48"
   xml:space="preserve"
   inkscape:version="0.91 r13725"
   sodipodi:docname="del.svg"
   width="48"
   height="48"><metadata
     id="metadata3584"><rdf:RDF><cc:Work
         rdf:about=""><dc:format>image/svg+xml</dc:format><dc:type
           rdf:resource="http://purl.org/dc/dcmitype/StillImage" /><dc:title></dc:title></cc:Work></rdf:RDF></metadata><defs
     id="defs3582" /><sodipodi:namedview
     pagecolor="#ffffff"
     bordercolor="#666666"
     borderopacity="1"
     objecttolerance="10"
     gridtolerance="10"
     guidetolerance="10"
     inkscape:pageopacity="0"
     inkscape:pageshadow="2"
     inkscape:window-width="1329"
     inkscape:window-height="750"
     id="namedview3580"
     showgrid="false"
     inkscape:zoom="7.375"
     inkscape:cx="2.2372881"
     inkscape:cy="16"
     inkscape:window-x="37"
     inkscape:window-y="18"
     inkscape:window-maximized="1"
     inkscape:current-layer="Capa_1" /><g
     id="g3550"
     transform="translate(0,16)" /><g
     id="g3552"
     transform="translate(0,16)" /><g
     id="g3554"
     transform="translate(0,16)" /><g
     id="g3556"
     transform="translate(0,16)" /><g
     id="g3558"
     transform="translate(0,16)" /><g
     id="g3560"
     transform="translate(0,16)" /><g
     id="g3562"
     transform="translate(0,16)" /><g
     id="g3564"
     transform="translate(0,16)" /><g
     id="g3566"
     transform="translate(0,16)" /><g
     id="g3568"
     transform="translate(0,16)" /><g
     id="g3570"
     transform="translate(0,16)" /><g
     id="g3572"
     transform="translate(0,16)" /><g
     id="g3574"
     transform="translate(0,16)" /><g
     id="g3576"
     transform="translate(0,16)" /><g
     id="g3578"
     transform="translate(0,16)" /><g
     id="g3539"
     transform="matrix(1.4915254,0,0,1.4915254,0.64406779,0.13559322)"><g
       id="trash"><path
         style="fill:#010002"
         d="M 29.98,6.818 C 29.884,5.248 28.593,4.002 27,4.002 l -3,0 0,-1 L 24,3 C 24,1.343 22.656,0 21,0 L 11,0 C 9.343,0 8,1.343 8,3 l 0,10e-4 0,1 -3,0 c -1.595,0 -2.885,1.246 -2.981,2.816 L 2,6.817 2,8 2,9 c 0,1.104 0.896,2 2,2 l 0,0 0,17 c 0,2.209 1.791,4 4,4 l 16,0 c 2.209,0 4,-1.791 4,-4 l 0,-17 0,0 c 1.104,0 2,-0.896 2,-2 l 0,-1 0,-1.182 -0.02,0 z M 10,3.001 c 0,-0.553 0.447,-1 1,-1 l 10,0 c 0.553,0 1,0.447 1,1 l 0,1 -12,0 0,-1 z m 16,25 c 0,1.102 -0.898,2 -2,2 l -16,0 c -1.103,0 -2,-0.898 -2,-2 l 0,-17 20,0 0,17 z M 28,8 28,9 4,9 4,8 4,7.001 c 0,-0.553 0.447,-1 1,-1 l 22,0 c 0.553,0 1,0.447 1,1 L 28,8 Z"
         id="path3542"
         inkscape:connector-curvature="0" /><path
         style="fill:#010002"
         d="m 9,28.005 2,0 c 0.553,0 1,-0.447 1,-1 l 0,-13 c 0,-0.553 -0.447,-1 -1,-1 l -2,0 c -0.553,0 -1,0.447 -1,1 l 0,13 c 0,0.553 0.447,1 1,1 z m 0,-14.001 2,0 0,13 -2,0 0,-13 z"
         id="path3544"
         inkscape:connector-curvature="0" /><path
         style="fill:#010002"
         d="m 15,28.005 2,0 c 0.553,0 1,-0.447 1,-1 l 0,-13 c 0,-0.553 -0.447,-1 -1,-1 l -2,0 c -0.553,0 -1,0.447 -1,1 l 0,13 c 0,0.553 0.447,1 1,1 z m 0,-14.001 2,0 0,13 -2,0 0,-13 z"
         id="path3546"
         inkscape:connector-curvature="0" /><path
         style="fill:#010002"
         d="m 21,28.005 2,0 c 0.553,0 1,-0.447 1,-1 l 0,-13 c 0,-0.553 -0.447,-1 -1,-1 l -2,0 c -0.553,0 -1,0.447 -1,1 l 0,13 c 0,0.553 0.447,1 1,1 z m 0,-14.001 2,0 0,13 -2,0 0,-13 z"
         id="path3548"
         inkscape:connector-curvature="0" /></g></g></svg>