<?xml version="1.0" encoding="UTF-8" standalone="no"?>
<svg
   xmlns:dc="http://purl.org/dc/elements/1.1/"
   xmlns:cc="http://creativecommons.org/ns#"
   xmlns:rdf="http://www.w3.org/1999/02/22-rdf-syntax-ns#"
   xmlns:svg="http://www.w3.org/2000/svg"
   xmlns="http://www.w3.org/2000/svg"
   xmlns:sodipodi="http://sodipodi.sourceforge.net/DTD/sodipodi-0.dtd"
   xmlns:inkscape="http://www.inkscape.org/namespaces/inkscape"
   width="48"
   height="48"
   viewBox="0 0 48 48"
   version="1.1"
   id="svg2"
   inkscape:version="0.91 r13725"
   sodipodi:docname="ellipsis.svg">
  <metadata
     id="metadata11">
    <rdf:RDF>
      <cc:Work
         rdf:about="">
        <dc:format>image/svg+xml</dc:format>
        <dc:type
           rdf:resource="http://purl.org/dc/dcmitype/StillImage" />
        <dc:title />
      </cc:Work>
    </rdf:RDF>
  </metadata>
  <defs
     id="defs9" />
  <sodipodi:namedview
     pagecolor="#ffffff"
     bordercolor="#666666"
     borderopacity="1"
     objecttolerance="10"
     gridtolerance="10"
     guidetolerance="10"
     inkscape:pageopacity="0"
     inkscape:pageshadow="2"
     inkscape:window-width="1329"
     inkscape:window-height="750"
     id="namedview7"
     showgrid="false"
     inkscape:zoom="3.9333333"
     inkscape:cx="-30.381355"
     inkscape:cy="-0.50847483"
     inkscape:window-x="37"
     inkscape:window-y="18"
     inkscape:window-maximized="1"
     inkscape:current-layer="svg2"
     units="px" />
  <g
     id="surface1"
     transform="matrix(0,2.4101695,-2.4101695,0,78.802046,-37.322035)">
    <path
       style="fill:#000000;fill-opacity:1;fill-rule:nonzero;stroke:none"
       d="M 27,16.5 C 27,15.671875 26.328125,15 25.5,15 24.671875,15 24,15.671875 24,16.5 c 0,0.828125 0.671875,1.5 1.5,1.5 0.828125,0 1.5,-0.671875 1.5,-1.5 z m 0,6 C 27,21.671875 26.328125,21 25.5,21 24.671875,21 24,21.671875 24,22.5 c 0,0.828125 0.671875,1.5 1.5,1.5 0.828125,0 1.5,-0.671875 1.5,-1.5 z m 0,6 C 27,27.671875 26.328125,27 25.5,27 24.671875,27 24,27.671875 24,28.5 c 0,0.828125 0.671875,1.5 1.5,1.5 0.828125,0 1.5,-0.671875 1.5,-1.5 z m 0,0"
       id="path5"
       inkscape:connector-curvature="0" />
  </g>
</svg>
