<?xml version="1.0" encoding="UTF-8" standalone="no"?>
<!-- Created with Inkscape (http://www.inkscape.org/) -->

<svg
   xmlns:dc="http://purl.org/dc/elements/1.1/"
   xmlns:cc="http://creativecommons.org/ns#"
   xmlns:rdf="http://www.w3.org/1999/02/22-rdf-syntax-ns#"
   xmlns:svg="http://www.w3.org/2000/svg"
   xmlns="http://www.w3.org/2000/svg"
   xmlns:sodipodi="http://sodipodi.sourceforge.net/DTD/sodipodi-0.dtd"
   xmlns:inkscape="http://www.inkscape.org/namespaces/inkscape"
   width="48"
   height="48"
   viewBox="0 0 48 48"
   id="svg2"
   version="1.1"
   inkscape:version="0.92.1 r15371"
   sodipodi:docname="faster2.svg">
  <defs
     id="defs8" />
  <sodipodi:namedview
     pagecolor="#ffffff"
     bordercolor="#666666"
     borderopacity="1"
     objecttolerance="10"
     gridtolerance="10"
     guidetolerance="10"
     inkscape:pageopacity="0"
     inkscape:pageshadow="2"
     inkscape:window-width="956"
     inkscape:window-height="1021"
     id="namedview6"
     showgrid="true"
     inkscape:zoom="4.9166667"
     inkscape:cx="30.57839"
     inkscape:cy="0.84031181"
     inkscape:window-x="2560"
     inkscape:window-y="30"
     inkscape:window-maximized="0"
     inkscape:current-layer="layer1"
     showguides="true"
     inkscape:guide-bbox="true">
    <sodipodi:guide
       position="0,24.017661"
       orientation="1,0"
       id="guide2390"
       inkscape:locked="false" />
    <sodipodi:guide
       position="23.59322,0"
       orientation="0,1"
       id="guide2392"
       inkscape:locked="false" />
    <inkscape:grid
       type="xygrid"
       id="grid4485" />
  </sodipodi:namedview>
  <metadata
     id="metadata7">
    <rdf:RDF>
      <cc:Work
         rdf:about="">
        <dc:format>image/svg+xml</dc:format>
        <dc:type
           rdf:resource="http://purl.org/dc/dcmitype/StillImage" />
        <dc:title />
      </cc:Work>
    </rdf:RDF>
  </metadata>
  <g
     inkscape:label="Master"
     inkscape:groupmode="layer"
     id="layer1"
     transform="translate(-384,-1004.3622)"
     style="display:inline">
    <path
       inkscape:connector-curvature="0"
       id="path7201"
       d="m 415.20117,1011.58 a 6,2 73.213859 0 0 -0.13867,0.027 6,2 73.213859 0 0 -0.37695,5.6132 6,2 40.402232 0 0 -5.29688,-1.9043 6,2 40.402232 0 0 3.27344,5.4122 6,2 40.402232 0 0 2.44531,1.7304 4,3.9999917 0 0 0 -0.10742,0.9024 4,3.9999917 0 0 0 0.61133,2.1191 11.000002,3.9999928 0 0 0 -7.61133,-1.1191 11.000002,3.9999928 0 0 0 -4.06836,0.2871 3.9999983,3.9999917 0 0 0 -2.93164,-1.2871 3.9999983,3.9999917 0 0 0 -2.08789,0.5938 1.0000017,1 0 0 0 -0.91211,-0.5938 1.0000017,1 0 0 0 -1,1 1.0000017,1 0 0 0 0.59375,0.9141 3.9999983,3.9999917 0 0 0 -0.59375,2.0859 3.9999983,3.9999917 0 0 0 0.0508,0.625 11.000002,3.9999928 0 0 0 -0.0273,0.2031 2.0000019,4 80 0 0 -1.41602,0.1153 2.0000019,4 80 0 0 -3.5918,2.664 2.0000019,4 80 0 0 4.28711,1.2754 2.0000019,4 80 0 0 2.94922,-1.289 3.9999983,3.9999917 0 0 0 1.43946,0.3906 11.000002,3.9999928 0 0 0 7.30859,1.0156 11.000002,3.9999928 0 0 0 8.62695,-1.5234 4,2.0000019 10 0 0 3.07032,1.4062 4,2.0000019 10 0 0 4.28711,-1.2754 4,2.0000019 10 0 0 -3.5918,-2.664 4,2.0000019 10 0 0 -1.41016,-0.1192 11.000002,3.9999928 0 0 0 -0.35156,-0.8418 4,3.9999917 0 0 0 0.36914,0.018 4,3.9999917 0 0 0 4,-4 4,3.9999917 0 0 0 -3.72266,-3.9844 6,2 73.213859 0 0 -0.56836,-2.6035 6,2 73.213859 0 0 -3.50781,-5.1933 z"
       style="color:#000000;display:inline;overflow:visible;visibility:visible;opacity:1;fill:#747474;fill-opacity:1;fill-rule:nonzero;stroke:none;stroke-width:3.54330707;stroke-linecap:round;stroke-linejoin:round;stroke-miterlimit:4;stroke-dasharray:14.17322835, 14.17322835;stroke-dashoffset:0;stroke-opacity:1;marker:none;enable-background:accumulate" />
  </g>
</svg>
