<svg id="Calque_1" data-name="Calque 1" xmlns="http://www.w3.org/2000/svg" viewBox="0 0 48 48"><defs><style>.cls-1{fill:#1d1d1b;fill-rule:evenodd;}</style></defs><title>Icon-History</title><path class="cls-1" d="M38.75,17.77a16.15,16.15,0,0,1,0,12.46,16.23,16.23,0,0,1-8.52,8.52A16.08,16.08,0,0,1,24,40a16.06,16.06,0,0,1-9.77-3.33A16.2,16.2,0,0,1,10.75,33,14.26,14.26,0,0,1,9.48,30.7a15.67,15.67,0,0,1-.89-2.43l1.92-.54a13.66,13.66,0,0,0,1.94,4.16,14,14,0,0,0,7,5.36A13.68,13.68,0,0,0,24,38a13.84,13.84,0,0,0,3.71-.5,14,14,0,0,0,3.35-1.41,14.42,14.42,0,0,0,5-5,14,14,0,0,0,0-14.12,14.42,14.42,0,0,0-5-5,14,14,0,0,0-3.35-1.41,14,14,0,0,0-7.65.07,14.1,14.1,0,0,0-3.55,1.62,14.28,14.28,0,0,0-3,2.52A13.74,13.74,0,0,0,11.36,18H16v2H8V12h2v4.28c.18-.33.37-.66.58-1s.43-.62.65-.92A16,16,0,0,1,14.67,11a16.27,16.27,0,0,1,4.42-2.23A15.86,15.86,0,0,1,24,8a16.08,16.08,0,0,1,6.23,1.25,16.23,16.23,0,0,1,8.52,8.52ZM24,16v8.58l5.7,5.72-1.4,1.4L22,25.42V16Z"/></svg>