<svg id="Calque_1" data-name="Calque 1" xmlns="http://www.w3.org/2000/svg" viewBox="0 0 48 48"><title>Icon-Sync</title><path d="M38.08,27.76l1.92.59a16,16,0,0,1-2.34,4.73,16.76,16.76,0,0,1-8.29,6.07,16.24,16.24,0,0,1-5.26.85,16.79,16.79,0,0,1-4.2-.53,16.19,16.19,0,0,1-3.86-1.53,17,17,0,0,1-3.36-2.44A16.23,16.23,0,0,1,10,32.24V36H8v-8h8.06v2h-5a14.12,14.12,0,0,0,2.31,3.29,14.73,14.73,0,0,0,3.07,2.51,15.27,15.27,0,0,0,3.65,1.6,14.12,14.12,0,0,0,4,.57A14.46,14.46,0,0,0,36,32,14.26,14.26,0,0,0,38.08,27.76ZM38,12v3.78a16.23,16.23,0,0,0-2.68-3.26A17,17,0,0,0,32,10.06a16.36,16.36,0,0,0-3.86-1.53A16.79,16.79,0,0,0,23.89,8a16.28,16.28,0,0,0-5.26.85,16.76,16.76,0,0,0-8.29,6.07A16,16,0,0,0,8,19.65l1.92.59A14.26,14.26,0,0,1,12,16.05,14.59,14.59,0,0,1,23.89,10a14.12,14.12,0,0,1,4,.57,15.27,15.27,0,0,1,3.65,1.6,14.42,14.42,0,0,1,3.07,2.51A14.12,14.12,0,0,1,36.92,18H32v2H40V12Z"/></svg>