<?xml version="1.0" encoding="UTF-8"?>
<svg width="87px" height="154px" viewBox="0 0 87 154" version="1.1" xmlns="http://www.w3.org/2000/svg" xmlns:xlink="http://www.w3.org/1999/xlink">
    <title>Theme - dark@3x</title>
    <defs>
        <rect id="path-1" x="0" y="0" width="87" height="154" rx="2"></rect>
    </defs>
    <g id="Theme---dark" stroke="none" stroke-width="1" fill="none" fill-rule="evenodd">
        <g id="phone-dark-theme">
            <g id="Combined-Shape-+-Combined-Shape-Copy-+-Combined-Shape-Copy-2-+-Combined-Shape-Copy-3-+-Combined-Shape-Copy-4-+-Combined-Shape-Copy-5-Mask">
                <mask id="mask-2" fill="white">
                    <use xlink:href="#path-1"></use>
                </mask>
                <use id="Mask" fill="#222222" xlink:href="#path-1"></use>
                <path d="M21.75,63.765625 L21.75,66.171875 L4.83333333,66.171875 L4.83333333,63.765625 L21.75,63.765625 Z M36.25,58.953125 L36.25,61.359375 L4.83333333,61.359375 L4.83333333,58.953125 L36.25,58.953125 Z M40.0833333,20.453125 C40.6356181,20.453125 41.0833333,20.9008403 41.0833333,21.453125 L41.0833333,55.546875 C41.0833333,56.0991597 40.6356181,56.546875 40.0833333,56.546875 L5.83333333,56.546875 C5.28104858,56.546875 4.83333333,56.0991597 4.83333333,55.546875 L4.83333333,21.453125 C4.83333333,20.9008403 5.28104858,20.453125 5.83333333,20.453125 L40.0833333,20.453125 Z" id="Combined-Shape" fill-opacity="0.08" fill="#FFFFFF" mask="url(#mask-2)"></path>
                <path d="M62.8333333,63.765625 L62.8333333,66.171875 L45.9166667,66.171875 L45.9166667,63.765625 L62.8333333,63.765625 Z M77.3333333,58.953125 L77.3333333,61.359375 L45.9166667,61.359375 L45.9166667,58.953125 L77.3333333,58.953125 Z M81.1666667,20.453125 C81.7189514,20.453125 82.1666667,20.9008403 82.1666667,21.453125 L82.1666667,55.546875 C82.1666667,56.0991597 81.7189514,56.546875 81.1666667,56.546875 L46.9166667,56.546875 C46.3643819,56.546875 45.9166667,56.0991597 45.9166667,55.546875 L45.9166667,21.453125 C45.9166667,20.9008403 46.3643819,20.453125 46.9166667,20.453125 L81.1666667,20.453125 Z" id="Combined-Shape-Copy" fill-opacity="0.08" fill="#FFFFFF" mask="url(#mask-2)"></path>
                <path d="M21.75,114.296875 L21.75,116.703125 L4.83333333,116.703125 L4.83333333,114.296875 L21.75,114.296875 Z M36.25,109.484375 L36.25,111.890625 L4.83333333,111.890625 L4.83333333,109.484375 L36.25,109.484375 Z M40.0833333,70.984375 C40.6356181,70.984375 41.0833333,71.4320903 41.0833333,71.984375 L41.0833333,106.078125 C41.0833333,106.63041 40.6356181,107.078125 40.0833333,107.078125 L5.83333333,107.078125 C5.28104858,107.078125 4.83333333,106.63041 4.83333333,106.078125 L4.83333333,71.984375 C4.83333333,71.4320903 5.28104858,70.984375 5.83333333,70.984375 L40.0833333,70.984375 Z" id="Combined-Shape-Copy-2" fill-opacity="0.08" fill="#FFFFFF" mask="url(#mask-2)"></path>
                <path d="M62.8333333,114.296875 L62.8333333,116.703125 L45.9166667,116.703125 L45.9166667,114.296875 L62.8333333,114.296875 Z M77.3333333,109.484375 L77.3333333,111.890625 L45.9166667,111.890625 L45.9166667,109.484375 L77.3333333,109.484375 Z M81.1666667,70.984375 C81.7189514,70.984375 82.1666667,71.4320903 82.1666667,71.984375 L82.1666667,106.078125 C82.1666667,106.63041 81.7189514,107.078125 81.1666667,107.078125 L46.9166667,107.078125 C46.3643819,107.078125 45.9166667,106.63041 45.9166667,106.078125 L45.9166667,71.984375 C45.9166667,71.4320903 46.3643819,70.984375 46.9166667,70.984375 L81.1666667,70.984375 Z" id="Combined-Shape-Copy-3" fill-opacity="0.08" fill="#FFFFFF" mask="url(#mask-2)"></path>
                <path d="M21.75,164.828125 L21.75,167.234375 L4.83333333,167.234375 L4.83333333,164.828125 L21.75,164.828125 Z M36.25,160.015625 L36.25,162.421875 L4.83333333,162.421875 L4.83333333,160.015625 L36.25,160.015625 Z M40.0833333,121.515625 C40.6356181,121.515625 41.0833333,121.96334 41.0833333,122.515625 L41.0833333,156.609375 C41.0833333,157.16166 40.6356181,157.609375 40.0833333,157.609375 L5.83333333,157.609375 C5.28104858,157.609375 4.83333333,157.16166 4.83333333,156.609375 L4.83333333,122.515625 C4.83333333,121.96334 5.28104858,121.515625 5.83333333,121.515625 L40.0833333,121.515625 Z" id="Combined-Shape-Copy-4" fill-opacity="0.08" fill="#FFFFFF" mask="url(#mask-2)"></path>
                <path d="M62.8333333,164.828125 L62.8333333,167.234375 L45.9166667,167.234375 L45.9166667,164.828125 L62.8333333,164.828125 Z M77.3333333,160.015625 L77.3333333,162.421875 L45.9166667,162.421875 L45.9166667,160.015625 L77.3333333,160.015625 Z M81.1666667,121.515625 C81.7189514,121.515625 82.1666667,121.96334 82.1666667,122.515625 L82.1666667,156.609375 C82.1666667,157.16166 81.7189514,157.609375 81.1666667,157.609375 L46.9166667,157.609375 C46.3643819,157.609375 45.9166667,157.16166 45.9166667,156.609375 L45.9166667,122.515625 C45.9166667,121.96334 46.3643819,121.515625 46.9166667,121.515625 L81.1666667,121.515625 Z" id="Combined-Shape-Copy-5" fill-opacity="0.08" fill="#FFFFFF" mask="url(#mask-2)"></path>
            </g>
            <path d="M2,0 L85,0 C86.1045695,-4.2495073e-16 87,0.8954305 87,2 L87,14.4375 L87,14.4375 L0,14.4375 L0,2 C-1.3527075e-16,0.8954305 0.8954305,2.02906125e-16 2,0 Z" id="Rectangle" fill="#FF8800"></path>
            <ellipse id="Oval" fill="#FF8800" cx="72.5" cy="139.5625" rx="7.25" ry="7.21875"></ellipse>
        </g>
    </g>
</svg>