<?xml version="1.0" encoding="utf-8"?>
<!-- Generator: Adobe Illustrator 24.0.3, SVG Export Plug-In . SVG Version: 6.00 Build 0)  -->
<svg version="1.1" id="Calque_1" xmlns="http://www.w3.org/2000/svg" xmlns:xlink="http://www.w3.org/1999/xlink" x="0px" y="0px"
	 viewBox="0 0 48 48" style="enable-background:new 0 0 48 48;" xml:space="preserve">
<title>Icon-Time</title>
<path d="M39.4,19.8c-0.4-1.3-0.9-2.6-1.6-3.8c-1.4-2.4-3.4-4.4-5.7-5.7c-1.2-0.7-2.5-1.2-3.8-1.6c-2.8-0.8-5.7-0.8-8.5,0
	c-1.3,0.4-2.6,0.9-3.8,1.6c-2.4,1.4-4.4,3.4-5.7,5.7c-0.7,1.2-1.2,2.5-1.6,3.8c-0.8,2.8-0.8,5.7,0,8.5c0.4,1.3,0.9,2.6,1.6,3.8
	c1.4,2.4,3.4,4.4,5.7,5.7c1.2,0.7,2.5,1.2,3.8,1.6c2.8,0.8,5.7,0.8,8.5,0c1.3-0.4,2.6-0.9,3.8-1.6c2.4-1.4,4.4-3.4,5.7-5.7
	c0.7-1.2,1.2-2.5,1.6-3.8C40.2,25.5,40.2,22.5,39.4,19.8z M37.4,27.8L37.4,27.8c-0.2,1.2-0.7,2.3-1.3,3.3c-1.2,2.1-2.9,3.8-5,5
	c-1,0.6-2.2,1.1-3.3,1.4c-2.4,0.7-5,0.7-7.4,0c-1.2-0.3-2.3-0.8-3.3-1.4c-2.1-1.2-3.8-2.9-5-5c-0.6-1-1.1-2.2-1.4-3.3
	c-0.7-2.4-0.7-5,0-7.4c0.3-1.2,0.7-2.3,1.3-3.3c1.2-2.1,2.9-3.8,5-5c1-0.6,2.2-1.1,3.3-1.4c2.4-0.7,5-0.7,7.4,0
	c1.2,0.3,2.3,0.8,3.3,1.4c2.1,1.2,3.8,2.9,5,5c0.6,1,1.1,2.2,1.4,3.3C38.1,22.8,38.1,25.3,37.4,27.8z M24,24h6v2h-8V14h2V24z"/>
</svg>
