<?xml version="1.0" encoding="utf-8"?>
<!-- Generator: Adobe Illustrator 24.0.3, SVG Export Plug-In . SVG Version: 6.00 Build 0)  -->
<svg version="1.1" id="Calque_1" xmlns="http://www.w3.org/2000/svg" xmlns:xlink="http://www.w3.org/1999/xlink" x="0px" y="0px"
	 viewBox="0 0 48 48" style="enable-background:new 0 0 48 48;" xml:space="preserve">
<style type="text/css">
	.st0{fill-rule:evenodd;clip-rule:evenodd;}
</style>
<title>Icon-Vizualisation</title>
<path class="st0" d="M38.8,24.2H36l-1-4.1c0-0.6-0.4-1-1-1s-1,0.4-1,1l-1.3,6.6L30,15.5c0-0.6-0.4-1-1-1s-1,0.4-1,1L26.6,28L25.1,9
	c0-0.6-0.5-1-1-1s-1,0.5-1,1l-1.5,19l-1.4-12.6c0-0.6-0.4-1-1-1s-1,0.4-1,1l-1.6,11.3l-1.3-6.6c0-0.6-0.4-1-1-1s-1,0.4-1,1l-1,4.1
	h-3c-0.7,0-1.2,0.5-1.2,1.2c0,0.7,0.5,1.2,1.2,1.2h3.7c0.5,0,0.9-0.3,1-0.7l0.2-0.7l1.6,7.8c0,0.6,0.4,1,1,1c0.6,0,1-0.4,1-1
	l1.3-9.2L20.6,39c0,0.6,0.4,1,1,1s1-0.4,1-1L24,21.5L25.5,39c0,0.6,0.4,1,1,1s1-0.4,1-1l1.6-15.2l1.3,9.2c0,0.6,0.4,1,1,1
	c0.6,0,1-0.4,1-1l1.6-7.9l0.2,0.6c0.1,0.5,0.6,0.9,1.1,0.9h3.5c0.7,0,1.2-0.5,1.2-1.2C40.1,24.7,39.5,24.2,38.8,24.2L38.8,24.2z"/>
</svg>
