<?xml version="1.0" encoding="UTF-8"?>
<svg viewBox="0 0 48 48" xmlns="http://www.w3.org/2000/svg">
 <g fill-rule="evenodd">
  <path d="M19.102 9.307A15.5 15.5 0 0 0 8.5 24H18a6 6 0 0 1 4.105-5.685zM30 24a6 6 0 0 1-4.105 5.686l3.003 9.008A15.5 15.5 0 0 0 39.5 24Z" fill="#ff950d"/>
  <path d="M24 4A20 20 0 0 0 4 24a20 20 0 0 0 20 20 20 20 0 0 0 20-20A20 20 0 0 0 24 4zm0 3a17 17 0 0 1 17 17 17 17 0 0 1-17 17A17 17 0 0 1 7 24 17 17 0 0 1 24 7z" fill="#747474"/>
  <circle cx="24" cy="24" r="4.5" fill="#747474"/>
  <path d="M24 7A17 17 0 0 0 7 24a17 17 0 0 0 17 17 17 17 0 0 0 17-17A17 17 0 0 0 24 7zm-4.898 2.307 3.003 9.008A6 6 0 0 0 18 24H8.5A15.5 15.5 0 0 1 19.102 9.307zM24 19.5a4.5 4.5 0 0 1 4.5 4.5 4.5 4.5 0 0 1-4.5 4.5 4.5 4.5 0 0 1-4.5-4.5 4.5 4.5 0 0 1 4.5-4.5zm6 4.5h9.5a15.5 15.5 0 0 1-10.602 14.694l-3.003-9.008A6 6 0 0 0 30 24z" fill="#fafafa"/>
 </g>
</svg>
