<svg viewBox="0 0 48 48" xmlns="http://www.w3.org/2000/svg">
  <path d="M31.201 7.218a6 2 73.214 0 0-.139.027 6 2 73.214 0 0-.376 5.613 6 2 40.402 0 0-5.297-1.904 6 2 40.402 0 0 3.273 5.412 6 2 40.402 0 0 2.445 1.73 4 4 0 0 0-.107.903 4 4 0 0 0 .611 2.119A11 4 0 0 0 24 19.998a11 4 0 0 0-4.068.288A4 4 0 0 0 17 18.999a4 4 0 0 0-2.088.594 1 1 0 0 0-.912-.594 1 1 0 0 0-1 1 1 1 0 0 0 .594.914A4 4 0 0 0 13 22.999a4 4 0 0 0 .05.625 11 4 0 0 0-.027.203 2 4 80 0 0-1.416.115 2 4 80 0 0-3.591 2.664 2 4 80 0 0 4.287 1.276 2 4 80 0 0 2.949-1.29 4 4 0 0 0 1.44.391A11 4 0 0 0 24 27.999a11 4 0 0 0 8.627-1.524 4 2 10 0 0 3.07 1.407 4 2 10 0 0 4.287-1.276 4 2 10 0 0-3.591-2.664 4 2 10 0 0-1.41-.119 11 4 0 0 0-.352-.842 4 4 0 0 0 .37.018 4 4 0 0 0 4-4 4 4 0 0 0-3.724-3.984 6 2 73.214 0 0-.568-2.604 6 2 73.214 0 0-3.508-5.193z" fill="#747474"/>
</svg>

