<svg viewBox="0 0 48 48" xmlns="http://www.w3.org/2000/svg">
  <path d="M24 3.962a20 20 0 0 0-20 20 20 20 0 0 0 20 20 20 20 0 0 0 20-20 20 20 0 0 0-20-20zm-.033 7.656c2.737 0 4.913.716 6.531 2.145 1.618 1.418 2.428 3.072 2.428 4.963 0 1.047-.301 2.037-.9 2.97-.589.935-1.856 2.206-3.801 3.815-1.007.833-1.634 1.503-1.883 2.01-.238.506-.345.161-.322 1.467h-4.329a82.706 82.706 0 0 1-.015-1.131c0-1.396.231-1.293.695-2.194.464-.9 1.392-1.913 2.783-3.039 1.392-1.125 2.223-1.862 2.494-2.21a2.95 2.95 0 0 0 .627-1.825c0-.923-.372-1.71-1.119-2.363-.735-.664-1.73-.994-2.986-.994-1.21 0-2.223.343-3.037 1.029-.815.687-1.374 1.42-1.68 2.826l-4.379-.226c.125-2.015.985-3.726 2.58-5.133 1.607-1.407 3.711-2.11 6.313-2.11zm-2.276 20.1h4.77v4.744h-4.77z" fill="#ff950d" fill-rule="evenodd"/>
</svg>

