<?xml version="1.0" encoding="UTF-8"?>
<svg id="svg4" width="24" height="24" fill="none" version="1.1" viewBox="0 0 24 24" xmlns="http://www.w3.org/2000/svg">
 <path id="path2" d="m5 5.5c0-0.27614 0.22386-0.5 0.5-0.5s0.5 0.22386 0.5 0.5v13c0 0.2761-0.22386 0.5-0.5 0.5s-0.5-0.2239-0.5-0.5zm14 0.75211c0-1.0002-1.1164-1.5954-1.9468-1.0378l-8.4992 5.7071c-0.73449 0.4932-0.73822 1.5724-0.00717 2.0707l8.4992 5.7929c0.8298 0.5655 1.954-0.0288 1.954-1.0329zm-1.3893-0.20755c0.1661-0.11152 0.3893 0.0075 0.3893 0.20755v11.5c0 0.2008-0.2248 0.3196-0.3908 0.2065l-8.4992-5.7928c-0.14621-0.0997-0.14547-0.31552 0.00143-0.41415z" fill="#212121"/>
</svg>
