<?xml version="1.0" encoding="UTF-8"?>
<svg id="svg4" width="24" height="24" fill="none" version="1.1" viewBox="0 0 24 24" xmlns="http://www.w3.org/2000/svg">
 <path id="path2" d="m17.854 6.1464c-0.1953-0.19527-0.5119-0.19527-0.7072 0-0.1952 0.19526-0.1952 0.51184 0 0.7071l1.1488 1.1487c-3.3225 0.07241-5.2825 1.9019-7.1044 3.6025l-0.03192 0.02979c-1.8819 1.7565-3.6259 3.3655-6.6588 3.3655-0.27614 0-0.5 0.2239-0.5 0.5 0 0.2762 0.22386 0.5 0.5 0.5 3.4473 0 5.4502-1.8694 7.3092-3.6046l0.03192-0.0298c1.8381-1.7156 3.5446-3.2906 6.4491-3.363l-1.1439 1.1439c-0.1952 0.19526-0.1952 0.51184 0 0.70711 0.1953 0.19526 0.5119 0.19526 0.7072 0l2-2c0.1953-0.19526 0.1953-0.51184 0-0.7071zm-13.354 1.8536c2.8107 0 4.6612 1.2428 6.2564 2.6423l-0.27993 0.26122c-0.15483 0.14451-0.3069 0.28607-0.45704 0.42419-1.5026-1.3049-3.1014-2.3277-5.5195-2.3277-0.27614 0-0.5-0.22386-0.5-0.5s0.22386-0.5 0.5-0.5zm13.795 7.9978c-2.6964-0.0588-4.4954-1.2748-6.0516-2.64l0.2799-0.2611c0.1548-0.1446 0.3069-0.2862 0.4571-0.4243 1.4587 1.2667 3.0081 2.2677 5.3097 2.325l-1.1439-1.1439c-0.1952-0.1952-0.1952-0.5118 0-0.7071 0.1953-0.1953 0.5119-0.1953 0.7072 0l2 2c0.1953 0.1953 0.1953 0.5119 0 0.7072l-2 2c-0.1953 0.1953-0.5119 0.1953-0.7072 0-0.1952-0.1953-0.1952-0.5118 0-0.7071z" fill="#FF00FF"/>
</svg>
