<?xml version="1.0" encoding="UTF-8"?>
<svg id="svg4" width="24" height="24" fill="none" version="1.1" viewBox="0 0 24 24" xmlns="http://www.w3.org/2000/svg">
 <path id="path2" d="m11.598 7.2002c0.19996-0.26692 0.6002-0.26697 0.8003-1e-4l4.4982 6.0013c0.247 0.3296 0.0118 0.7999-0.4001 0.7999h-8.994c-0.41189 0-0.64712-0.4702-0.40016-0.7998zm1.6004-0.59987c-0.6001-0.8006-1.8009-0.80044-2.4007 3.2e-4l-4.4958 6.0012c-0.74086 0.989-0.03518 2.3994 1.2005 2.3994h8.994c1.2358 0 1.9415-1.4108 1.2002-2.3997zm-7.1987 10.4c-0.27614 0-0.5 0.2239-0.5 0.5s0.22386 0.5 0.5 0.5h12c0.2761 0 0.5-0.2239 0.5-0.5s-0.2239-0.5-0.5-0.5z" fill="#212121"/>
</svg>
