<?xml version="1.0" encoding="UTF-8"?>
<svg id="svg4" width="24" height="24" fill="none" version="1.1" viewBox="0 0 24 24" xmlns="http://www.w3.org/2000/svg">
 <path id="path2" d="m12 7.4871c0-0.8191-0.93084-1.2908-1.5914-0.8064l-5.8796 4.3117c-0.68106 0.49945-0.68106 1.5166 0 2.016l5.8796 4.3117c0.66052 0.4844 1.5914 0.0127 1.5914-0.8064v-3.1599l5.4086 3.9663c0.6606 0.4844 1.5914 0.0127 1.5914-0.8064v-9.0266c0-0.8191-0.9308-1.2908-1.5914-0.8064l-5.4086 3.9663zm-6.8796 4.3117 5.8796-4.3117v9.0266l-5.8796-4.3117c-0.13621-0.0998-0.13621-0.30327 0-0.40316zm7 0 5.8796-4.3117v9.0266l-5.8796-4.3117c-0.1362-0.0998-0.1362-0.30327 0-0.40316z" fill="#FF00FF"/>
</svg>
