<?xml version="1.0" encoding="UTF-8"?>
<svg id="svg4" width="24" height="24" fill="none" version="1.1" viewBox="0 0 24 24" xmlns="http://www.w3.org/2000/svg">
 <path id="path2158" d="m4.5 6a0.5 0.5 0 0 0-0.5 0.5 0.5 0.5 0 0 0 0.5 0.5h9a0.5 0.5 0 0 0 0.5-0.5 0.5 0.5 0 0 0-0.5-0.5h-9zm0 4a0.5 0.5 0 0 0-0.5 0.5 0.5 0.5 0 0 0 0.5 0.5h9a0.5 0.5 0 0 0 0.5-0.5 0.5 0.5 0 0 0-0.5-0.5h-9zm9.7188 3.002c-0.63441 0.02776-1.2188 0.5487-1.2188 1.2441v5.5078c0 0.92717 1.0373 1.5446 1.8496 1.0957l4.9883-2.7539c0.8396-0.46365 0.83939-1.7274 0-2.1914l-4.9883-2.7539c-0.20304-0.11215-0.41939-0.15769-0.63086-0.14844zm0.013672 0.98438c0.043094 9.6e-4 0.088524 0.013522 0.13477 0.039063l4.9863 2.7539c0.19449 0.1075 0.19428 0.33412 0 0.44141l-4.9863 2.7539c-0.18484 0.10215-0.36719-0.005178-0.36719-0.2207v-5.5078c0-0.16187 0.10314-0.26264 0.23242-0.25977zm-9.7324 0.013672a0.5 0.5 0 0 0-0.5 0.5 0.5 0.5 0 0 0 0.5 0.5h5a0.5 0.5 0 0 0 0.5-0.5 0.5 0.5 0 0 0-0.5-0.5h-5z" color="#000000" fill="#000" fill-rule="evenodd"/>
</svg>
