<?xml version="1.0" encoding="utf-8"?>
<!-- Generator: Adobe Illustrator 24.0.3, SVG Export Plug-In . SVG Version: 6.00 Build 0)  -->
<svg version="1.1" id="Calque_1" xmlns="http://www.w3.org/2000/svg" xmlns:xlink="http://www.w3.org/1999/xlink" x="0px" y="0px"
	 viewBox="0 0 48 48" style="enable-background:new 0 0 48 48;" xml:space="preserve">
<style type="text/css">
	.st0{fill-rule:evenodd;clip-rule:evenodd;}
</style>
<title>Icon-Loop</title>
<path class="st0" d="M8.1,25c0-6.1,4.9-11.1,11-11.2h17.1l-4.3-4.4L33.3,8l6.7,6.8l-6.7,6.8l-1.4-1.4l4.3-4.4H19.1
	c-5,0-9.1,4.2-9.1,9.2c0,0,0,0,0,0H8.1z M37.9,23.1c0,5-4,9.1-9.1,9.2H11.8l4.3-4.4l-1.4-1.4L8,33.2l6.7,6.8l1.4-1.4l-4.3-4.4h17.1
	c6.1-0.1,11-5.1,11-11.2L37.9,23.1z"/>
</svg>
