<?xml version="1.0" encoding="utf-8"?>
<!-- Generator: Adobe Illustrator 24.0.3, SVG Export Plug-In . SVG Version: 6.00 Build 0)  -->
<svg version="1.1" id="Calque_1" xmlns="http://www.w3.org/2000/svg" xmlns:xlink="http://www.w3.org/1999/xlink" x="0px" y="0px"
	 viewBox="0 0 48 48" style="enable-background:new 0 0 48 48;" xml:space="preserve">
<title>Icon-Loop-One</title>
<path d="M39.5,24.4c-0.2,0.2-0.5,0.4-0.8,0.6c-0.3,0.2-0.7,0.4-1,0.6c-0.3,0.2-0.7,0.3-1,0.5c-0.3,0.1-0.7,0.3-1,0.4v1.4
	c0.3-0.1,0.6-0.2,0.8-0.3c0.3-0.1,0.6-0.2,0.8-0.4c0.2-0.1,0.5-0.3,0.7-0.4c0.2-0.1,0.3-0.2,0.5-0.4V37H40V24.4H39.5z"/>
<path d="M24.7,30.3h-10l0,0H11l3.5-3.5l-1.1-1.1L8,31.1l5.4,5.4l1.1-1.1L11,31.9h13.7c4.9,0,8.8-4,8.8-8.9h-1.6
	C31.9,27,28.7,30.3,24.7,30.3z"/>
<path d="M27.1,12.1l3.5,3.5H16.9c-4.9,0-8.8,4-8.8,8.9h1.6c0-4,3.2-7.3,7.2-7.3h13.6l-3.4,3.5l1.1,1.1l5.3-5.4L28.2,11L27.1,12.1z"
	/>
</svg>
