<svg viewBox="0 0 48 48" xml:space="preserve" xmlns="http://www.w3.org/2000/svg">
  <path d="M14.2 19.1c1 .4 1.9.9 2.8 1.5.9.6 1.7 1.3 2.5 2 .2-.2.5-.5.7-.8.2-.3.4-.5.7-.8-1.7-1.6-3.7-2.9-5.9-3.8-2.2-.9-4.5-1.4-6.9-1.4v2.1c2-.1 4.1.4 6.1 1.2zm19.6 8.7 2.3 2.4c-2-.1-4.1-.5-5.9-1.3-.9-.4-1.8-.9-2.7-1.5-.9-.6-1.7-1.2-2.4-1.9-.2.3-.5.5-.7.8-.2.3-.4.5-.7.8.8.8 1.8 1.5 2.7 2.1.9.6 2 1.2 3 1.6 1 .4 2.1.8 3.2 1 1.1.2 2.3.4 3.4.4l-2.3 2.4 1.4 1.5 4.8-4.8-4.8-4.8-1.3 1.3z"/>
  <path d="M25.8 21.9c.9-.8 2-1.5 3.1-2.1 1.1-.6 2.2-1.1 3.4-1.4 1.2-.3 2.5-.5 3.8-.6l-2.3 2.3 1.4 1.5 4.8-4.8-4.8-4.8-1.4 1.4 2.3 2.4c-2.3.1-4.5.5-6.6 1.4-1 .4-2 1-3 1.6-1 .6-1.9 1.3-2.7 2.1l-1.2 1.2c-.4.4-.8.8-1.1 1.3-.9 1-1.8 1.9-2.8 2.8-1 .8-2 1.5-3.2 2.1-1.1.6-2.3 1.1-3.5 1.4-1.3.3-2.7.5-4 .5v2.1c2.4 0 4.7-.4 6.9-1.4 2.2-.9 4.2-2.2 5.9-3.8l1.1-1.1 1-1.2c1-1.1 1.9-2 2.9-2.9z"/>
</svg>

