<svg viewBox="0 0 48 48" xmlns="http://www.w3.org/2000/svg">
  <path d="M9.87 9.8a20 20 0 0 0-5.867 14.132A20 20 0 0 0 9.87 38.065l2.826-2.826a16 16 0 0 1-4.693-11.307 16 16 0 0 1 4.693-11.306zm28.266 0-2.826 2.826a16 16 0 0 1 4.693 11.306 16 16 0 0 1-4.693 11.307l2.826 2.826a20 20 0 0 0 5.867-14.133 20 20 0 0 0-5.867-14.133zm-22.613 5.652a12 12 0 0 0-3.52 8.48 12 12 0 0 0 3.52 8.48l2.826-2.826a8 8 0 0 1-2.346-5.654 8 8 0 0 1 2.346-5.654zm16.96 0-2.826 2.826a8 8 0 0 1 2.346 5.654 8 8 0 0 1-2.346 5.654l2.826 2.827a12 12 0 0 0 3.52-8.48 12 12 0 0 0-3.52-8.481zm-8.48 4.48a4 4 0 0 0-4 4 4 4 0 0 0 4 4 4 4 0 0 0 4-4 4 4 0 0 0-4-4z" fill="#747474" fill-rule="evenodd"/>
</svg>

