<svg viewBox="0 0 48 48" xmlns="http://www.w3.org/2000/svg">
  <path d="M24 8c-4.189 0-8.352 1.724-11.314 4.686C9.724 15.648 8 19.81 8 24H3l8 8 8-8h-5c0-2.618 1.079-5.22 2.93-7.07S21.382 14 24 14c1.417 0 2.821.334 4.112.918l4.424-4.415C29.99 8.905 27.007 8 24 8zm-1 32c4.189 0 8.352-1.724 11.314-4.686C37.276 32.352 39 28.19 39 24h5l-8-8-8 8h5c0 2.618-1.079 5.22-2.93 7.07S25.617 34 23 34c-1.418 0-2.821-.334-4.112-.918l-4.424 4.415C17.01 39.095 19.993 40 23 40z" fill="#747474" fill-rule="evenodd"/>
</svg>

