<?xml version="1.0" encoding="UTF-8"?>
<svg viewBox="0 0 48 48" xmlns="http://www.w3.org/2000/svg">
 <path d="m35.92 6.105-2.822 2.822A20 20 0 0 1 40 24.025a20 20 0 0 1-6.77 14.964l2.752 2.907A24 24 0 0 0 44 24.025a24 24 0 0 0-8.08-17.92zm-5.662 5.662-2.842 2.842A12 12 0 0 1 32 24.025a12 12 0 0 1-4.27 9.16l2.758 2.91A16 16 0 0 0 36 24.025a16 16 0 0 0-5.742-12.258zm-5.697 5.697-2.918 2.918A4 4 0 0 1 24 24.025a4 4 0 0 1-1.791 3.332l2.768 2.921A8 8 0 0 0 28 24.025a8 8 0 0 0-3.44-6.56z" fill="#ff950d"/>
 <path d="M4 16h4l8-8h4v32h-4l-8-8H4z" fill="#747474" fill-rule="evenodd"/>
</svg>
