<?xml version="1.0" encoding="UTF-8"?>
<svg viewBox="0 0 48 48" xmlns="http://www.w3.org/2000/svg">
 <g fill="#747474" fill-rule="evenodd">
  <path transform="translate(-384 -1004.4)" d="M408 1008.362c-3.314 0-6 2.239-6 5 .003 1.083 2.375 3 1.209 3H392v14.211c0 1.166 1.917-1.208 3-1.21 2.761 0 5 2.686 5 6 0 3.313-2.239 6-5 6-1.083 0-3-2.376-3-1.21v6.21h11l3-2v-4l3-2v-6l5-3 1-5 5-2 2-1.335v-.666a4 4 0 0 0-4-4h-5.21c-1.167 0 1.207-1.917 1.21-3 0-2.761-2.686-5-6-5z"/>
  <g>
   <path transform="matrix(1.6142 0 0 1.6059 21.363 23.07)" d="M8.785 10.036H7.059c-.005-.248-.007-.4-.007-.454 0-.56.093-.518.278-.88.185-.36.555-.767 1.11-1.218.555-.451.887-.747.995-.887.167-.22.25-.464.25-.73 0-.37-.149-.687-.446-.949-.294-.266-.69-.399-1.192-.399-.483 0-.887.138-1.212.413-.325.275-.548.57-.67 1.134L4.42 5.975c.05-.808.392-1.494 1.029-2.058.64-.565 1.48-.847 2.518-.847 1.092 0 1.96.287 2.606.86.646.569.968 1.232.968 1.99 0 .42-.12.817-.359 1.192-.234.374-.74.884-1.516 1.53-.402.334-.652.602-.751.805-.095.203-.138.065-.129.589m-1.726 2.998V11.13H8.96v1.903H7.059" fill="#747474"/>
  </g>
 </g>
</svg>
