<?xml version="1.0" encoding="UTF-8"?>
<svg viewBox="0 0 192 48" xmlns="http://www.w3.org/2000/svg">
 <path transform="translate(-13.91 -173.48)" d="m32.136 183.285-2.394 7.18.004-.003c4.102 3.077 8.188 3.103 12.335.006.002 0 .002-.002.004-.004l-2.394-7.18c-2.835 1.496-4.82 1.368-7.555 0zm-5.129 15.384-1.367 4.102h-2.883v.002h2.883s-.428 1.375-.656 2.059c-.342 1.025-.516 1.548 0 2.052 2.754 2.695 7.277 4.005 11.72 3.834 3.92-.149 7.757-1.43 10.16-3.834.494-.568.331-1.06 0-2.052l-.683-2.051.006-.01-1.361-4.09-.01-.006a13.517 13.517 0 0 1-17.778-.002c-.012.005-.022.01-.035.014z" fill="#fafafa" stroke-width="2.5"/>
 <path transform="translate(-13.91 -173.48)" d="M35.913 177.476c-.475 0-1.003.055-1.384.34-.752.562-1.055 1.465-1.71 3.417-.654 1.952-.683 2.051-.683 2.051 2.735 1.367 4.72 1.495 7.555 0 0 0-.031-.107-.684-2.05-.652-1.945-.953-2.842-1.71-3.419-.377-.288-.909-.339-1.384-.339zm-6.17 12.988-2.735 8.205-.005.018c.013-.003.023-.008.035-.013a13.518 13.518 0 0 0 17.778.001l.01.005-.005-.012-2.735-8.204c-.002.002-.003.005-.005.005-4.148 3.097-8.234 3.07-12.336-.007zm-6.986 12.307c-.909 0-1.755.687-2.02 1.593l-1.593 5.418-1.559 5.33c-.219.747 0 1.296.353 1.676.219.235.489.405.737.519.249.11.419.17.615.17.456 0 8.427-.006 16.623-.006 8.197 0 16.168.005 16.624.005.196 0 .366-.06.615-.17.248-.113.518-.283.736-.518.353-.38.573-.929.354-1.676l-1.56-5.33-1.592-5.418c-.266-.906-1.111-1.593-2.02-1.593h-2.884l-.005.01.684 2.05c.33.993.493 1.484 0 2.052-2.404 2.404-6.24 3.686-10.16 3.836-4.443.17-8.967-1.14-11.72-3.836-.517-.504-.343-1.026 0-2.051.227-.684.655-2.06.655-2.06h-2.883z" fill="#f80" stroke-width="2.5"/>
 <path transform="translate(-13.91 -173.48)" d="m69.136 183.285-2.394 7.18.004-.003c4.102 3.077 8.188 3.103 12.335.006.002 0 .002-.002.004-.004l-2.394-7.18c-2.835 1.496-4.82 1.368-7.555 0zm-5.129 15.384-1.367 4.102h-2.883v.002h2.883s-.428 1.375-.656 2.059c-.342 1.025-.516 1.548 0 2.052 2.754 2.695 7.277 4.005 11.72 3.834 3.92-.149 7.757-1.43 10.16-3.834.494-.568.331-1.06 0-2.052l-.683-2.051.006-.01-1.361-4.09-.01-.006a13.517 13.517 0 0 1-17.778-.002c-.012.005-.022.01-.035.014z" fill="#fafafa" stroke-width="2.5"/>
 <path transform="translate(-13.91 -173.48)" d="M72.913 177.476c-.475 0-1.003.055-1.384.34-.752.562-1.055 1.465-1.71 3.417-.654 1.952-.683 2.051-.683 2.051 2.735 1.367 4.72 1.495 7.555 0 0 0-.031-.107-.684-2.05-.652-1.945-.953-2.842-1.71-3.419-.377-.288-.909-.339-1.384-.339zm-6.17 12.988-2.735 8.205-.005.018c.013-.003.023-.008.035-.013a13.518 13.518 0 0 0 17.778.001l.01.005-.005-.012-2.735-8.204c-.002.002-.003.005-.005.005-4.148 3.097-8.234 3.07-12.336-.007zm-6.986 12.307c-.909 0-1.755.687-2.02 1.593l-1.593 5.418-1.559 5.33c-.219.747 0 1.296.353 1.676.219.235.489.405.737.519.249.11.419.17.615.17.456 0 8.427-.006 16.623-.006 8.197 0 16.168.005 16.624.005.196 0 .366-.06.615-.17.248-.113.518-.283.736-.518.353-.38.573-.929.354-1.676l-1.56-5.33-1.592-5.418c-.266-.906-1.111-1.593-2.02-1.593h-2.884l-.005.01.684 2.05c.33.993.493 1.484 0 2.052-2.404 2.404-6.24 3.686-10.16 3.836-4.443.17-8.967-1.14-11.72-3.836-.517-.504-.343-1.026 0-2.051.227-.684.655-2.06.655-2.06h-2.883z" fill="#f80" stroke-width="2.5"/>
 <path transform="translate(-13.91 -173.48)" d="m106.136 183.285-2.394 7.18.004-.003c4.102 3.077 8.188 3.103 12.335.006.002 0 .002-.002.004-.004l-2.394-7.18c-2.835 1.496-4.82 1.368-7.555 0zm-5.129 15.384-1.367 4.102h-2.883v.002h2.883s-.428 1.375-.656 2.059c-.342 1.025-.516 1.548 0 2.052 2.754 2.695 7.277 4.005 11.72 3.834 3.92-.149 7.757-1.43 10.16-3.834.494-.568.331-1.06 0-2.052l-.683-2.051.006-.01-1.361-4.09-.01-.006a13.517 13.517 0 0 1-17.778-.002c-.012.005-.022.01-.035.014z" fill="#fafafa" stroke-width="2.5"/>
 <path transform="translate(-13.91 -173.48)" d="M109.913 177.476c-.475 0-1.003.055-1.384.34-.752.562-1.055 1.465-1.71 3.417-.654 1.952-.683 2.051-.683 2.051 2.735 1.367 4.72 1.495 7.555 0 0 0-.031-.107-.684-2.05-.652-1.945-.953-2.842-1.71-3.419-.377-.288-.909-.339-1.384-.339zm-6.17 12.988-2.735 8.205-.005.018c.013-.003.023-.008.035-.013a13.518 13.518 0 0 0 17.778.001l.01.005-.005-.012-2.735-8.204c-.002.002-.003.005-.005.005-4.148 3.097-8.234 3.07-12.336-.007zm-6.986 12.307c-.909 0-1.755.687-2.02 1.593l-1.593 5.418-1.559 5.33c-.219.747 0 1.296.353 1.676.219.235.489.405.737.519.249.11.419.17.615.17.456 0 8.427-.006 16.623-.006 8.197 0 16.168.005 16.624.005.196 0 .366-.06.615-.17.248-.113.518-.283.736-.518.353-.38.573-.929.354-1.676l-1.56-5.33-1.592-5.418c-.266-.906-1.111-1.593-2.02-1.593h-2.884l-.005.01.684 2.05c.33.993.493 1.484 0 2.052-2.404 2.404-6.24 3.686-10.16 3.836-4.443.17-8.967-1.14-11.72-3.836-.517-.504-.343-1.026 0-2.051.227-.684.655-2.06.655-2.06h-2.883z" fill="#f80" stroke-width="2.5"/>
 <path transform="translate(-13.91 -173.48)" d="m143.136 183.285-2.394 7.18.004-.003c4.102 3.077 8.188 3.103 12.335.006.002 0 .002-.002.004-.004l-2.394-7.18c-2.835 1.496-4.82 1.368-7.555 0zm-5.129 15.384-1.367 4.102h-2.883v.002h2.883s-.428 1.375-.656 2.059c-.342 1.025-.516 1.548 0 2.052 2.754 2.695 7.277 4.005 11.72 3.834 3.92-.149 7.757-1.43 10.16-3.834.494-.568.331-1.06 0-2.052l-.683-2.051.006-.01-1.361-4.09-.01-.006a13.517 13.517 0 0 1-17.778-.002c-.012.005-.022.01-.035.014z" fill="#fafafa" stroke-width="2.5"/>
 <path transform="translate(-13.91 -173.48)" d="M146.913 177.476c-.475 0-1.003.055-1.384.34-.752.562-1.055 1.465-1.71 3.417-.654 1.952-.683 2.051-.683 2.051 2.735 1.367 4.72 1.495 7.555 0 0 0-.031-.107-.684-2.05-.652-1.945-.953-2.842-1.71-3.419-.377-.288-.909-.339-1.384-.339zm-6.17 12.988-2.735 8.205-.005.018c.013-.003.023-.008.035-.013a13.518 13.518 0 0 0 17.778.001l.01.005-.005-.012-2.735-8.204c-.002.002-.003.005-.005.005-4.148 3.097-8.234 3.07-12.336-.007zm-6.986 12.307c-.909 0-1.755.687-2.02 1.593l-1.593 5.418-1.559 5.33c-.219.747 0 1.296.353 1.676.219.235.489.405.737.519.249.11.419.17.615.17.456 0 8.427-.006 16.623-.006 8.197 0 16.168.005 16.624.005.196 0 .366-.06.615-.17.248-.113.518-.283.736-.518.353-.38.573-.929.354-1.676l-1.56-5.33-1.592-5.418c-.266-.906-1.111-1.593-2.02-1.593h-2.884l-.005.01.684 2.05c.33.993.493 1.484 0 2.052-2.404 2.404-6.24 3.686-10.16 3.836-4.443.17-8.967-1.14-11.72-3.836-.516-.504-.343-1.026 0-2.051.227-.684.655-2.06.655-2.06h-2.883z" fill="#f80" stroke-width="2.5"/>
 <path transform="translate(-13.91 -173.48)" d="m180.136 183.285-2.394 7.18.004-.003c4.102 3.077 8.188 3.103 12.335.006.002 0 .002-.002.004-.004l-2.394-7.18c-2.835 1.496-4.82 1.368-7.555 0zm-5.129 15.384-1.367 4.102h-2.883v.002h2.883s-.428 1.375-.656 2.059c-.342 1.025-.516 1.548 0 2.052 2.754 2.695 7.277 4.005 11.72 3.834 3.92-.149 7.757-1.43 10.16-3.834.494-.568.331-1.06 0-2.052l-.683-2.051.006-.01-1.361-4.09-.01-.006a13.517 13.517 0 0 1-17.778-.002c-.012.005-.022.01-.035.014z" fill="#fafafa" stroke-width="2.5"/>
 <path transform="translate(-13.91 -173.48)" d="M183.913 177.476c-.475 0-1.003.055-1.384.34-.752.562-1.055 1.465-1.71 3.417-.654 1.952-.683 2.051-.683 2.051 2.735 1.367 4.72 1.495 7.555 0 0 0-.031-.107-.684-2.05-.652-1.945-.953-2.842-1.71-3.419-.377-.288-.909-.339-1.384-.339zm-6.17 12.988-2.735 8.205-.005.018c.013-.003.023-.008.035-.013a13.518 13.518 0 0 0 17.778.001l.01.005-.005-.012-2.735-8.204c-.002.002-.003.005-.005.005-4.148 3.097-8.234 3.07-12.336-.007zm-6.986 12.307c-.909 0-1.755.687-2.02 1.593l-1.593 5.418-1.559 5.33c-.219.747 0 1.296.353 1.676.219.235.489.405.737.519.249.11.419.17.615.17.456 0 8.427-.006 16.623-.006 8.197 0 16.168.005 16.624.005.196 0 .366-.06.615-.17.248-.113.518-.283.736-.518.353-.38.573-.929.354-1.676l-1.56-5.33-1.592-5.418c-.266-.906-1.111-1.593-2.02-1.593h-2.884l-.005.01.684 2.05c.33.993.493 1.484 0 2.052-2.404 2.404-6.24 3.686-10.16 3.836-4.443.17-8.967-1.14-11.72-3.836-.516-.504-.343-1.026 0-2.051.227-.684.655-2.06.655-2.06h-2.883z" fill="#f80" stroke-width="2.5"/>
</svg>
