<?xml version="1.0" encoding="UTF-8"?>
<svg viewBox="0 0 48 48" xmlns="http://www.w3.org/2000/svg">
 <g>
  <path transform="translate(-384 -1004.4)" d="M408 1008.362c-3.314 0-6 2.239-6 5 .003 1.083 2.375 3 1.209 3H392v14.211c0 1.166 1.917-1.208 3-1.21 2.761 0 5 2.686 5 6 0 3.313-2.239 6-5 6-1.083 0-3-2.376-3-1.21v6.21h16.395c.795 0-.894-1.262-.895-2 0-1.658 1.567-3 3.5-3s3.5 1.342 3.5 3c-.001.738-1.692 2-.897 2H422v-5.395c0-.796 1.262.893 2 .894 1.657 0 3-1.567 3-3.5s-1.343-3.5-3-3.5c-.739.001-2 1.693-2 .897v-15.397a4 4 0 0 0-4-4h-5.211c-1.166 0 1.208-1.917 1.211-3 0-2.761-2.686-5-6-5z" fill="#fff000" fill-rule="evenodd"/>
 </g>
</svg>
