<?xml version="1.0" encoding="UTF-8" standalone="no"?>
<!-- Created with Inkscape (http://www.inkscape.org/) -->

<svg
   xmlns:dc="http://purl.org/dc/elements/1.1/"
   xmlns:cc="http://creativecommons.org/ns#"
   xmlns:rdf="http://www.w3.org/1999/02/22-rdf-syntax-ns#"
   xmlns:svg="http://www.w3.org/2000/svg"
   xmlns="http://www.w3.org/2000/svg"
   xmlns:sodipodi="http://sodipodi.sourceforge.net/DTD/sodipodi-0.dtd"
   xmlns:inkscape="http://www.inkscape.org/namespaces/inkscape"
   width="192"
   height="48"
   viewBox="0 0 192 48"
   version="1.1"
   id="svg2471"
   inkscape:version="0.92.2 (5c3e80d, 2017-08-06)"
   sodipodi:docname="score.svg">
  <defs
     id="defs17" />
  <sodipodi:namedview
     pagecolor="#ffffff"
     bordercolor="#666666"
     borderopacity="1"
     objecttolerance="10"
     gridtolerance="10"
     guidetolerance="10"
     inkscape:pageopacity="0"
     inkscape:pageshadow="2"
     inkscape:window-width="1920"
     inkscape:window-height="1021"
     id="namedview15"
     showgrid="false"
     inkscape:zoom="2"
     inkscape:cx="426.13978"
     inkscape:cy="233.4377"
     inkscape:window-x="1600"
     inkscape:window-y="30"
     inkscape:window-maximized="1"
     inkscape:current-layer="layer1" />
  <metadata
     id="metadata2468">
    <rdf:RDF>
      <cc:Work
         rdf:about="">
        <dc:format>image/svg+xml</dc:format>
        <dc:type
           rdf:resource="http://purl.org/dc/dcmitype/StillImage" />
        <dc:title></dc:title>
      </cc:Work>
    </rdf:RDF>
  </metadata>
  <g
     inkscape:label="Layer 1"
     inkscape:groupmode="layer"
     id="layer1"
     transform="translate(-13.909524,-173.47739)">
    <path
       style="display:inline;fill:#fafafa;fill-opacity:1;stroke-width:2.50000477"
       d="m 32.136086,183.28468 -2.39454,7.17969 0.004,-0.002 c 4.10268,3.07709 8.18813,3.10305 12.33594,0.006 0.002,0 0.002,-0.002 0.004,-0.004 l -2.39454,-7.17969 c -2.83488,1.49535 -4.81955,1.3675 -7.55468,0 z m -5.12891,15.38477 -1.367186,4.10156 h -2.88281 v 0.002 h 2.88281 c 0,-1e-5 -0.42825,1.37486 -0.65625,2.05859 -0.34202,1.02572 -0.51572,1.5481 0,2.05273 2.753926,2.69483 7.277526,4.00424 11.720706,3.83399 3.92011,-0.14913 7.75632,-1.43012 10.16015,-3.83399 0.49387,-0.56858 0.3304,-1.06028 0,-2.05273 -0.2277,-0.68395 -0.68359,-2.05078 -0.68359,-2.05078 0.002,-0.005 0.005,-0.007 0.006,-0.01 l -1.36133,-4.08984 c -0.005,-0.002 -0.008,-0.005 -0.01,-0.006 -5.12834,4.44469 -12.649,4.44274 -17.77734,-0.002 -0.0122,0.005 -0.0227,0.0107 -0.0352,0.0137 z"
       id="path10976"
       inkscape:connector-curvature="0" />
    <path
       id="path6786"
       d="m 35.913416,177.47609 c -0.475,0 -1.0038,0.0545 -1.38406,0.33913 -0.752,0.56297 -1.05505,1.46617 -1.70987,3.41798 -0.65483,1.9518 -0.6836,2.05078 -0.6836,2.05078 2.73513,1.3675 4.72018,1.49535 7.55506,0 0,0 -0.0312,-0.1065 -0.6836,-2.05078 -0.6523,-1.94423 -0.95335,-2.84151 -1.70988,-3.41798 -0.3778,-0.28788 -0.90905,-0.33913 -1.38405,-0.33913 z m -6.17099,12.9883 -2.73438,8.20491 -0.005,0.0175 c 0.0125,-0.003 0.0225,-0.008 0.0347,-0.0125 5.12834,4.44469 12.64957,4.44559 17.77791,9e-4 0.002,0.001 0.005,0.003 0.01,0.005 l -0.005,-0.0125 -2.73438,-8.20404 c -0.002,0.002 -0.003,0.005 -0.005,0.005 -4.14781,3.09719 -8.23399,3.07009 -12.33667,-0.007 z m -6.985106,12.3065 c -0.90908,0 -1.75493,0.68667 -2.02061,1.59268 l -1.59267,5.41816 c -0.52036,1.77795 -1.03621,3.54303 -1.558959,5.33026 -0.21875,0.747 4.5e-4,1.29637 0.353349,1.67615 0.2185,0.235 0.48845,0.40515 0.73685,0.51845 0.24851,0.1105 0.41853,0.1695 0.61436,0.1695 0.4565,0 8.426936,-0.005 16.623776,-0.005 8.19684,0 16.16728,0.005 16.62378,0.005 0.19575,0 0.36577,-0.0593 0.61435,-0.1695 0.2485,-0.11325 0.51823,-0.28338 0.73688,-0.51845 0.35282,-0.37978 0.57215,-0.92915 0.35332,-1.67615 -0.52275,-1.78723 -1.0386,-3.55231 -1.55895,-5.33026 l -1.59268,-5.41816 c -0.26565,-0.90601 -1.1115,-1.59268 -2.0206,-1.59268 h -2.88353 c -10e-4,0.003 -0.003,0.005 -0.005,0.01 0,0 0.4559,1.36683 0.6836,2.05078 0.3304,0.99245 0.49387,1.4831 0,2.05168 -2.40383,2.40387 -6.23971,3.6861 -10.15982,3.83523 -4.44318,0.17025 -8.96662,-1.1404 -11.720546,-3.83523 -0.51572,-0.50463 -0.34202,-1.02596 0,-2.05168 0.228,-0.68373 0.65608,-2.05966 0.65608,-2.05966 h -2.88353 z"
       style="display:inline;fill:#ff8800;stroke-width:2.50000477"
       inkscape:connector-curvature="0" />
    <path
       id="path10981"
       d="m 69.136086,183.28469 -2.39454,7.17969 0.004,-0.002 c 4.10268,3.07709 8.18813,3.10305 12.33594,0.006 0.002,0 0.002,-0.002 0.004,-0.004 l -2.39454,-7.17969 c -2.83488,1.49535 -4.81955,1.3675 -7.55468,0 z m -5.12891,15.38477 -1.36719,4.10156 h -2.88281 v 0.002 h 2.88281 c 0,-1e-5 -0.42825,1.37486 -0.65625,2.05859 -0.34202,1.02572 -0.51572,1.5481 0,2.05273 2.75393,2.69483 7.27753,4.00424 11.72071,3.83399 3.92011,-0.14913 7.75632,-1.43012 10.16015,-3.83399 0.49387,-0.56858 0.3304,-1.06028 0,-2.05273 -0.2277,-0.68395 -0.68359,-2.05078 -0.68359,-2.05078 0.002,-0.005 0.005,-0.007 0.006,-0.01 l -1.36133,-4.08984 c -0.005,-0.002 -0.008,-0.005 -0.01,-0.006 -5.12834,4.44469 -12.649,4.44274 -17.77734,-0.002 -0.0122,0.005 -0.0227,0.0107 -0.0352,0.0137 z"
       style="display:inline;fill:#fafafa;fill-opacity:1;stroke-width:2.50000477"
       inkscape:connector-curvature="0" />
    <path
       inkscape:connector-curvature="0"
       style="display:inline;fill:#ff8800;stroke-width:2.50000477"
       d="m 72.913416,177.47609 c -0.475,0 -1.0038,0.0545 -1.38406,0.33913 -0.752,0.56297 -1.05505,1.46617 -1.70987,3.41798 -0.65483,1.9518 -0.6836,2.05078 -0.6836,2.05078 2.73513,1.3675 4.72018,1.49535 7.55506,0 0,0 -0.0312,-0.1065 -0.6836,-2.05078 -0.6523,-1.94423 -0.95335,-2.84151 -1.70988,-3.41798 -0.3778,-0.28788 -0.90905,-0.33913 -1.38405,-0.33913 z m -6.17099,12.9883 -2.73438,8.20491 -0.005,0.0175 c 0.0125,-0.003 0.0225,-0.008 0.0347,-0.0125 5.12834,4.44469 12.64957,4.44559 17.77791,9e-4 0.002,0.001 0.005,0.003 0.01,0.005 l -0.005,-0.0125 -2.73438,-8.20404 c -0.002,0.002 -0.003,0.005 -0.005,0.005 -4.14781,3.09719 -8.23399,3.07009 -12.33667,-0.007 z m -6.98511,12.3065 c -0.90908,0 -1.75493,0.68667 -2.02061,1.59268 l -1.59267,5.41816 c -0.52036,1.77795 -1.03621,3.54303 -1.55896,5.33026 -0.21875,0.747 4.5e-4,1.29637 0.35335,1.67615 0.2185,0.235 0.48845,0.40515 0.73685,0.51845 0.24851,0.1105 0.41853,0.1695 0.61436,0.1695 0.4565,0 8.42694,-0.005 16.62378,-0.005 8.19684,0 16.16728,0.005 16.62378,0.005 0.19575,0 0.36577,-0.0593 0.61435,-0.1695 0.2485,-0.11325 0.51823,-0.28338 0.73688,-0.51845 0.35282,-0.37978 0.57215,-0.92915 0.35332,-1.67615 -0.52275,-1.78723 -1.0386,-3.55231 -1.55895,-5.33026 l -1.59268,-5.41816 c -0.26565,-0.90601 -1.1115,-1.59268 -2.0206,-1.59268 h -2.88353 c -0.001,0.003 -0.003,0.005 -0.005,0.01 0,0 0.4559,1.36683 0.6836,2.05078 0.3304,0.99245 0.49387,1.4831 0,2.05168 -2.40383,2.40387 -6.23971,3.6861 -10.15982,3.83523 -4.44318,0.17025 -8.96662,-1.1404 -11.72055,-3.83523 -0.51572,-0.50463 -0.34202,-1.02596 0,-2.05168 0.228,-0.68373 0.65608,-2.05966 0.65608,-2.05966 h -2.88353 z"
       id="path10983" />
    <path
       inkscape:connector-curvature="0"
       style="display:inline;fill:#fafafa;fill-opacity:1;stroke-width:2.50000477"
       d="m 106.13609,183.28469 -2.39454,7.17969 0.004,-0.002 c 4.10268,3.07709 8.18813,3.10305 12.33594,0.006 0.002,0 0.002,-0.002 0.004,-0.004 l -2.39454,-7.17969 c -2.83488,1.49535 -4.81955,1.3675 -7.55468,0 z m -5.12891,15.38477 -1.367194,4.10156 h -2.88281 v 0.002 h 2.88281 c 0,-1e-5 -0.42825,1.37486 -0.65625,2.05859 -0.34202,1.02572 -0.51572,1.5481 0,2.05273 2.753934,2.69483 7.277534,4.00424 11.720714,3.83399 3.92011,-0.14913 7.75632,-1.43012 10.16015,-3.83399 0.49387,-0.56858 0.3304,-1.06028 0,-2.05273 -0.2277,-0.68395 -0.68359,-2.05078 -0.68359,-2.05078 0.002,-0.005 0.005,-0.007 0.006,-0.01 l -1.36133,-4.08984 c -0.005,-0.002 -0.008,-0.005 -0.01,-0.006 -5.12834,4.44469 -12.649,4.44274 -17.77734,-0.002 -0.0122,0.005 -0.0227,0.0107 -0.0352,0.0137 z"
       id="path10985" />
    <path
       id="path10987"
       d="m 109.91342,177.47609 c -0.475,0 -1.0038,0.0545 -1.38406,0.33913 -0.752,0.56297 -1.05505,1.46617 -1.70987,3.41798 -0.65483,1.9518 -0.6836,2.05078 -0.6836,2.05078 2.73513,1.3675 4.72018,1.49535 7.55506,0 0,0 -0.0312,-0.1065 -0.6836,-2.05078 -0.6523,-1.94423 -0.95335,-2.84151 -1.70988,-3.41798 -0.3778,-0.28788 -0.90905,-0.33913 -1.38405,-0.33913 z m -6.17099,12.9883 -2.73438,8.20491 -0.005,0.0175 c 0.0125,-0.003 0.0225,-0.008 0.0347,-0.0125 5.12834,4.44469 12.64957,4.44559 17.77791,9e-4 0.002,0.001 0.005,0.003 0.01,0.005 l -0.005,-0.0125 -2.73438,-8.20404 c -0.002,0.002 -0.003,0.005 -0.005,0.005 -4.14781,3.09719 -8.23399,3.07009 -12.33667,-0.007 z m -6.985114,12.3065 c -0.90908,0 -1.75493,0.68667 -2.02061,1.59268 l -1.59267,5.41816 c -0.52036,1.77795 -1.03621,3.54303 -1.55896,5.33026 -0.21875,0.747 4.5e-4,1.29637 0.35335,1.67615 0.2185,0.235 0.48845,0.40515 0.73685,0.51845 0.24851,0.1105 0.41853,0.1695 0.61436,0.1695 0.4565,0 8.426944,-0.005 16.623784,-0.005 8.19684,0 16.16728,0.005 16.62378,0.005 0.19575,0 0.36577,-0.0593 0.61435,-0.1695 0.2485,-0.11325 0.51823,-0.28338 0.73688,-0.51845 0.35282,-0.37978 0.57215,-0.92915 0.35332,-1.67615 -0.52275,-1.78723 -1.0386,-3.55231 -1.55895,-5.33026 l -1.59268,-5.41816 c -0.26565,-0.90601 -1.1115,-1.59268 -2.0206,-1.59268 h -2.88353 c -0.001,0.003 -0.003,0.005 -0.005,0.01 0,0 0.4559,1.36683 0.6836,2.05078 0.3304,0.99245 0.49387,1.4831 0,2.05168 -2.40383,2.40387 -6.23971,3.6861 -10.15982,3.83523 -4.44318,0.17025 -8.96662,-1.1404 -11.720554,-3.83523 -0.51572,-0.50463 -0.34202,-1.02596 0,-2.05168 0.228,-0.68373 0.65608,-2.05966 0.65608,-2.05966 h -2.88353 z"
       style="display:inline;fill:#ff8800;stroke-width:2.50000477"
       inkscape:connector-curvature="0" />
    <path
       id="path10989"
       d="m 143.1361,183.28469 -2.39454,7.17969 0.004,-0.002 c 4.10268,3.07709 8.18813,3.10305 12.33594,0.006 0.002,0 0.002,-0.002 0.004,-0.004 l -2.39454,-7.17969 c -2.83488,1.49535 -4.81955,1.3675 -7.55468,0 z m -5.12891,15.38477 -1.36719,4.10156 h -2.88281 v 0.002 H 136.64 c 0,-1e-5 -0.42825,1.37486 -0.65625,2.05859 -0.34202,1.02572 -0.51572,1.5481 0,2.05273 2.75393,2.69483 7.27753,4.00424 11.72071,3.83399 3.92011,-0.14913 7.75632,-1.43012 10.16015,-3.83399 0.49387,-0.56858 0.3304,-1.06028 0,-2.05273 -0.2277,-0.68395 -0.68359,-2.05078 -0.68359,-2.05078 0.002,-0.005 0.005,-0.007 0.006,-0.01 l -1.36133,-4.08984 c -0.005,-0.002 -0.008,-0.005 -0.01,-0.006 -5.12834,4.44469 -12.649,4.44274 -17.77734,-0.002 -0.0122,0.005 -0.0227,0.0107 -0.0352,0.0137 z"
       style="display:inline;fill:#fafafa;fill-opacity:1;stroke-width:2.50000477"
       inkscape:connector-curvature="0" />
    <path
       inkscape:connector-curvature="0"
       style="display:inline;fill:#ff8800;stroke-width:2.50000477"
       d="m 146.91343,177.47609 c -0.475,0 -1.0038,0.0545 -1.38406,0.33913 -0.752,0.56297 -1.05505,1.46617 -1.70987,3.41798 -0.65483,1.9518 -0.6836,2.05078 -0.6836,2.05078 2.73513,1.3675 4.72018,1.49535 7.55506,0 0,0 -0.0312,-0.1065 -0.6836,-2.05078 -0.6523,-1.94423 -0.95335,-2.84151 -1.70988,-3.41798 -0.3778,-0.28788 -0.90905,-0.33913 -1.38405,-0.33913 z m -6.17099,12.9883 -2.73438,8.20491 -0.005,0.0175 c 0.0125,-0.003 0.0225,-0.008 0.0347,-0.0125 5.12834,4.44469 12.64957,4.44559 17.77791,9e-4 0.002,0.001 0.005,0.003 0.01,0.005 l -0.005,-0.0125 -2.73438,-8.20404 c -0.002,0.002 -0.003,0.005 -0.005,0.005 -4.14781,3.09719 -8.23399,3.07009 -12.33667,-0.007 z m -6.98511,12.3065 c -0.90908,0 -1.75493,0.68667 -2.02061,1.59268 l -1.59267,5.41816 c -0.52036,1.77795 -1.03621,3.54303 -1.55896,5.33026 -0.21875,0.747 4.5e-4,1.29637 0.35335,1.67615 0.2185,0.235 0.48845,0.40515 0.73685,0.51845 0.24851,0.1105 0.41853,0.1695 0.61436,0.1695 0.4565,0 8.42694,-0.005 16.62378,-0.005 8.19684,0 16.16728,0.005 16.62378,0.005 0.19575,0 0.36577,-0.0593 0.61435,-0.1695 0.2485,-0.11325 0.51823,-0.28338 0.73688,-0.51845 0.35282,-0.37978 0.57215,-0.92915 0.35332,-1.67615 -0.52275,-1.78723 -1.0386,-3.55231 -1.55895,-5.33026 l -1.59268,-5.41816 c -0.26565,-0.90601 -1.1115,-1.59268 -2.0206,-1.59268 H 157.186 c -0.001,0.003 -0.003,0.005 -0.005,0.01 0,0 0.4559,1.36683 0.6836,2.05078 0.3304,0.99245 0.49387,1.4831 0,2.05168 -2.40383,2.40387 -6.23971,3.6861 -10.15982,3.83523 -4.44318,0.17025 -8.96662,-1.1404 -11.72055,-3.83523 -0.51572,-0.50463 -0.34202,-1.02596 0,-2.05168 0.228,-0.68373 0.65608,-2.05966 0.65608,-2.05966 h -2.88353 z"
       id="path10991" />
    <path
       inkscape:connector-curvature="0"
       style="display:inline;fill:#fafafa;fill-opacity:1;stroke-width:2.50000477"
       d="m 180.1361,183.28469 -2.39454,7.17969 0.004,-0.002 c 4.10268,3.07709 8.18813,3.10305 12.33594,0.006 0.002,0 0.002,-0.002 0.004,-0.004 l -2.39454,-7.17969 c -2.83488,1.49535 -4.81955,1.3675 -7.55468,0 z m -5.12891,15.38477 -1.36719,4.10156 h -2.88281 v 0.002 H 173.64 c 0,-1e-5 -0.42825,1.37486 -0.65625,2.05859 -0.34202,1.02572 -0.51572,1.5481 0,2.05273 2.75393,2.69483 7.27753,4.00424 11.72071,3.83399 3.92011,-0.14913 7.75632,-1.43012 10.16015,-3.83399 0.49387,-0.56858 0.3304,-1.06028 0,-2.05273 -0.2277,-0.68395 -0.68359,-2.05078 -0.68359,-2.05078 0.002,-0.005 0.005,-0.007 0.006,-0.01 l -1.36133,-4.08984 c -0.005,-0.002 -0.008,-0.005 -0.01,-0.006 -5.12834,4.44469 -12.649,4.44274 -17.77734,-0.002 -0.0122,0.005 -0.0227,0.0107 -0.0352,0.0137 z"
       id="path10993" />
    <path
       id="path10995"
       d="m 183.91343,177.47609 c -0.475,0 -1.0038,0.0545 -1.38406,0.33913 -0.752,0.56297 -1.05505,1.46617 -1.70987,3.41798 -0.65483,1.9518 -0.6836,2.05078 -0.6836,2.05078 2.73513,1.3675 4.72018,1.49535 7.55506,0 0,0 -0.0312,-0.1065 -0.6836,-2.05078 -0.6523,-1.94423 -0.95335,-2.84151 -1.70988,-3.41798 -0.3778,-0.28788 -0.90905,-0.33913 -1.38405,-0.33913 z m -6.17099,12.9883 -2.73438,8.20491 -0.005,0.0175 c 0.0125,-0.003 0.0225,-0.008 0.0347,-0.0125 5.12834,4.44469 12.64957,4.44559 17.77791,9e-4 0.002,0.001 0.005,0.003 0.01,0.005 l -0.005,-0.0125 -2.73438,-8.20404 c -0.002,0.002 -0.003,0.005 -0.005,0.005 -4.14781,3.09719 -8.23399,3.07009 -12.33667,-0.007 z m -6.98511,12.3065 c -0.90908,0 -1.75493,0.68667 -2.02061,1.59268 l -1.59267,5.41816 c -0.52036,1.77795 -1.03621,3.54303 -1.55896,5.33026 -0.21875,0.747 4.5e-4,1.29637 0.35335,1.67615 0.2185,0.235 0.48845,0.40515 0.73685,0.51845 0.24851,0.1105 0.41853,0.1695 0.61436,0.1695 0.4565,0 8.42694,-0.005 16.62378,-0.005 8.19684,0 16.16728,0.005 16.62378,0.005 0.19575,0 0.36577,-0.0593 0.61435,-0.1695 0.2485,-0.11325 0.51823,-0.28338 0.73688,-0.51845 0.35282,-0.37978 0.57215,-0.92915 0.35332,-1.67615 -0.52275,-1.78723 -1.0386,-3.55231 -1.55895,-5.33026 l -1.59268,-5.41816 c -0.26565,-0.90601 -1.1115,-1.59268 -2.0206,-1.59268 H 194.186 c -0.001,0.003 -0.003,0.005 -0.005,0.01 0,0 0.4559,1.36683 0.6836,2.05078 0.3304,0.99245 0.49387,1.4831 0,2.05168 -2.40383,2.40387 -6.23971,3.6861 -10.15982,3.83523 -4.44318,0.17025 -8.96662,-1.1404 -11.72055,-3.83523 -0.51572,-0.50463 -0.34202,-1.02596 0,-2.05168 0.228,-0.68373 0.65608,-2.05966 0.65608,-2.05966 h -2.88353 z"
       style="display:inline;fill:#ff8800;stroke-width:2.50000477"
       inkscape:connector-curvature="0" />
  </g>
</svg>
