<svg id="Calque_1" data-name="Calque 1" xmlns="http://www.w3.org/2000/svg" viewBox="0 0 48 48"><title>Icon-Discover</title><path d="M30.64,15.9l-8.79,4c-.43.19-.9.36-1.32.59s-.5.59-.67,1c-.72,1.68-1.45,3.37-2.18,5.05-.58,1.37-1.17,2.74-1.76,4.11a1.17,1.17,0,0,0,0,1.12l.06.07,0,0a.91.91,0,0,0,.64.38h.13a1.09,1.09,0,0,0,.62-.13l8.83-3.74a5,5,0,0,0,1.1-.5A3,3,0,0,0,28,26.63c.78-1.75,1.56-3.49,2.33-5.24l1.79-4.05A1.06,1.06,0,0,0,30.64,15.9Zm-4.32,9.29-.45,1-7.08,3,2.62-6.1.41-1,7.3-3.27Z"/><path d="M39,18.37a16.29,16.29,0,0,0-6.16-7.74A16.11,16.11,0,0,0,14.59,11a18.68,18.68,0,0,0-1.92,1.62,16,16,0,0,0-4.45,8.6,16.29,16.29,0,0,0,1.31,9.58A16,16,0,0,0,39,18.37Zm-1.17,7,0,.29s0,.19,0,.19l-.06.39c-.06.38-.15.76-.24,1.14s-.19.69-.3,1a3.57,3.57,0,0,1-.16.46l-.1.27,0,.11a.52.52,0,0,0-.06.15,15.75,15.75,0,0,1-1,1.87A11.51,11.51,0,0,1,34.59,33a13.17,13.17,0,0,1-1.68,1.66l-.39.33-.07,0,0,0-.24.17c-.31.23-.63.44-1,.64s-.6.35-.9.5l-.53.26-.27.12s-.18.07-.17.08a16.32,16.32,0,0,1-2.05.66c-.34.09-.69.16-1,.22l-.39.06-.19,0-.38,0a16.55,16.55,0,0,1-2.11,0c-.33,0-.65-.06-1-.09l-.19,0-.29-.05-.57-.1A14.45,14.45,0,0,1,19,37l-.4-.15-.17-.07-.26-.12q-.54-.26-1.05-.54a10.13,10.13,0,0,1-.89-.55,4.73,4.73,0,0,1-.46-.32l-.25-.17,0,0-.06,0a15.49,15.49,0,0,1-1.73-1.61c-.25-.27-.49-.56-.72-.86l-.06-.06,0,0-.15-.2-.37-.54a15.88,15.88,0,0,1-1.1-2,1.34,1.34,0,0,1-.07-.18s-.1-.23-.08-.16L11,28.92c-.13-.35-.25-.7-.35-1.06s-.18-.69-.26-1c0-.19-.07-.38-.1-.57a1.08,1.08,0,0,1,0-.19,1.31,1.31,0,0,1,0-.25,15.41,15.41,0,0,1-.11-2.15c0-.35,0-.7.06-1.06,0-.13,0-.26,0-.39s0-.17,0-.19a2.88,2.88,0,0,1,0-.33,15.65,15.65,0,0,1,.53-2.12c.1-.31.22-.63.34-.94,0,0,.07-.15.08-.16a2.21,2.21,0,0,1,.12-.27c.08-.17.16-.36.26-.53a16,16,0,0,1,1.19-1.94l.12-.16,0,0a.23.23,0,0,1,.05-.07c.12-.16.25-.31.38-.47s.51-.56.77-.82a.81.81,0,0,0,.09-.1c.24-.24.49-.48.75-.7l.46-.39.05,0,0,0c.1-.06.19-.14.29-.21a14.13,14.13,0,0,1,1.94-1.18l.45-.22.26-.12.17-.07c.34-.14.68-.26,1-.38a14.72,14.72,0,0,1,2.06-.5l.29,0s.34-.05.11,0l.47,0c.39,0,.76-.05,1.15-.06s.71,0,1.06,0l.48,0,.28,0,.27,0a14.39,14.39,0,0,1,2.05.44c.33.09.66.2,1,.31l.49.19.16.07.27.12a13.87,13.87,0,0,1,3.67,2.46A15.72,15.72,0,0,1,35,15.49l0,.07.17.24.29.42c.22.33.43.66.63,1s.34.64.49,1l.12.27s.07.17.07.18l0-.07c.06.18.14.36.21.54a16.21,16.21,0,0,1,.6,2.14c0,.16.07.32.1.48l0,.29v0s0,.07,0,.1v0c0,.35.08.7.09,1.05A14.8,14.8,0,0,1,37.82,25.38Z"/></svg>