<?xml version="1.0" encoding="UTF-8"?>
<svg width="28px" height="28px" viewBox="0 0 28 28" version="1.1" xmlns="http://www.w3.org/2000/svg" xmlns:xlink="http://www.w3.org/1999/xlink">
    <!-- Generator: Sketch 59.1 (86144) - https://sketch.com -->
    <title>ic_fluent_grid_28_regular</title>
    <desc>Created with Sketch.</desc>
    <g id="ðŸ”-Product-Icons" stroke="none" stroke-width="1" fill="none" fill-rule="evenodd">
        <g id="ic_fluent_grid_28_regular" fill="#212121" fill-rule="nonzero">
            <path d="M10.75,15 C11.9926407,15 13,16.0073593 13,17.25 L13,22.75 C13,23.9926407 11.9926407,25 10.75,25 L5.25,25 C4.00735931,25 3,23.9926407 3,22.75 L3,17.25 C3,16.0073593 4.00735931,15 5.25,15 L10.75,15 Z M22.75,15 C23.9926407,15 25,16.0073593 25,17.25 L25,22.75 C25,23.9926407 23.9926407,25 22.75,25 L17.25,25 C16.0073593,25 15,23.9926407 15,22.75 L15,17.25 C15,16.0073593 16.0073593,15 17.25,15 L22.75,15 Z M10.75,16.5 L5.25,16.5 C4.83578644,16.5 4.5,16.8357864 4.5,17.25 L4.5,22.75 C4.5,23.1642136 4.83578644,23.5 5.25,23.5 L10.75,23.5 C11.1642136,23.5 11.5,23.1642136 11.5,22.75 L11.5,17.25 C11.5,16.8357864 11.1642136,16.5 10.75,16.5 Z M22.75,16.5 L17.25,16.5 C16.8357864,16.5 16.5,16.8357864 16.5,17.25 L16.5,22.75 C16.5,23.1642136 16.8357864,23.5 17.25,23.5 L22.75,23.5 C23.1642136,23.5 23.5,23.1642136 23.5,22.75 L23.5,17.25 C23.5,16.8357864 23.1642136,16.5 22.75,16.5 Z M10.75,3 C11.9926407,3 13,4.00735931 13,5.25 L13,10.75 C13,11.9926407 11.9926407,13 10.75,13 L5.25,13 C4.00735931,13 3,11.9926407 3,10.75 L3,5.25 C3,4.00735931 4.00735931,3 5.25,3 L10.75,3 Z M22.75,3 C23.9926407,3 25,4.00735931 25,5.25 L25,10.75 C25,11.9926407 23.9926407,13 22.75,13 L17.25,13 C16.0073593,13 15,11.9926407 15,10.75 L15,5.25 C15,4.00735931 16.0073593,3 17.25,3 L22.75,3 Z M10.75,4.5 L5.25,4.5 C4.83578644,4.5 4.5,4.83578644 4.5,5.25 L4.5,10.75 C4.5,11.1642136 4.83578644,11.5 5.25,11.5 L10.75,11.5 C11.1642136,11.5 11.5,11.1642136 11.5,10.75 L11.5,5.25 C11.5,4.83578644 11.1642136,4.5 10.75,4.5 Z M22.75,4.5 L17.25,4.5 C16.8357864,4.5 16.5,4.83578644 16.5,5.25 L16.5,10.75 C16.5,11.1642136 16.8357864,11.5 17.25,11.5 L22.75,11.5 C23.1642136,11.5 23.5,11.1642136 23.5,10.75 L23.5,5.25 C23.5,4.83578644 23.1642136,4.5 22.75,4.5 Z" id="ðŸŽ¨-Color"/>
        </g>
    </g>
</svg>