<?xml version="1.0" encoding="UTF-8" standalone="no"?>
<svg
   xmlns:dc="http://purl.org/dc/elements/1.1/"
   xmlns:cc="http://creativecommons.org/ns#"
   xmlns:rdf="http://www.w3.org/1999/02/22-rdf-syntax-ns#"
   xmlns:svg="http://www.w3.org/2000/svg"
   xmlns="http://www.w3.org/2000/svg"
   xmlns:sodipodi="http://sodipodi.sourceforge.net/DTD/sodipodi-0.dtd"
   xmlns:inkscape="http://www.inkscape.org/namespaces/inkscape"
   width="48"
   height="48"
   viewBox="0 0 48 48"
   version="1.1"
   id="svg2"
   inkscape:version="0.91 r13725"
   sodipodi:docname="list.svg">
  <metadata
     id="metadata25">
    <rdf:RDF>
      <cc:Work
         rdf:about="">
        <dc:format>image/svg+xml</dc:format>
        <dc:type
           rdf:resource="http://purl.org/dc/dcmitype/StillImage" />
        <dc:title />
      </cc:Work>
    </rdf:RDF>
  </metadata>
  <defs
     id="defs23" />
  <sodipodi:namedview
     pagecolor="#ffffff"
     bordercolor="#666666"
     borderopacity="1"
     objecttolerance="10"
     gridtolerance="10"
     guidetolerance="10"
     inkscape:pageopacity="0"
     inkscape:pageshadow="2"
     inkscape:window-width="1329"
     inkscape:window-height="750"
     id="namedview21"
     showgrid="false"
     units="px"
     inkscape:zoom="3.9333333"
     inkscape:cx="-4.0677969"
     inkscape:cy="30"
     inkscape:window-x="37"
     inkscape:window-y="18"
     inkscape:window-maximized="1"
     inkscape:current-layer="svg2" />
  <g
     id="surface1"
     transform="translate(0.25423729,-1.7186449)">
    <path
       style="fill:#000000;fill-opacity:1;fill-rule:nonzero;stroke:none"
       d="m 8.050781,17.550781 -4.609375,0 c -0.207031,0 -0.386718,0.07422 -0.539062,0.226563 C 2.75,17.929688 2.675781,18.109375 2.675781,18.320312 l 0,4.605469 c 0,0.210938 0.074219,0.390625 0.226563,0.542969 0.152344,0.148438 0.332031,0.226562 0.539062,0.226562 l 4.609375,0 c 0.207031,0 0.390625,-0.07422 0.539063,-0.226562 0.152344,-0.152344 0.230468,-0.332031 0.230468,-0.542969 l 0,-4.605469 c 0,-0.210937 -0.078124,-0.390624 -0.230468,-0.542968 C 8.441406,17.625 8.257812,17.550781 8.050781,17.550781 Z m 0,0"
       id="path5"
       inkscape:connector-curvature="0" />
    <path
       style="fill:#000000;fill-opacity:1;fill-rule:nonzero;stroke:none"
       d="m 8.050781,35.984375 -4.609375,0 c -0.207031,0 -0.386718,0.07422 -0.539062,0.226563 C 2.75,36.363281 2.675781,36.542969 2.675781,36.753906 l 0,4.609375 c 0,0.207031 0.074219,0.386719 0.226563,0.539063 0.152344,0.152344 0.332031,0.226562 0.539062,0.226562 l 4.609375,0 c 0.207031,0 0.390625,-0.07422 0.539063,-0.226562 C 8.742188,41.75 8.820312,41.570312 8.820312,41.363281 l 0,-4.609375 c 0,-0.210937 -0.078124,-0.390625 -0.230468,-0.542968 C 8.441406,36.0625 8.257812,35.984375 8.050781,35.984375 Z m 0,0"
       id="path7"
       inkscape:connector-curvature="0" />
    <path
       style="fill:#000000;fill-opacity:1;fill-rule:nonzero;stroke:none"
       d="m 8.050781,26.765625 -4.609375,0 c -0.207031,0 -0.386718,0.07813 -0.539062,0.230469 C 2.75,27.148438 2.675781,27.328125 2.675781,27.535156 l 0,4.609375 c 0,0.207031 0.074219,0.386719 0.226563,0.539063 0.152344,0.152344 0.332031,0.226562 0.539062,0.226562 l 4.609375,0 c 0.207031,0 0.390625,-0.07422 0.539063,-0.226562 0.152344,-0.152344 0.230468,-0.332032 0.230468,-0.539063 l 0,-4.609375 c 0,-0.207031 -0.078124,-0.386718 -0.230468,-0.539062 C 8.441406,26.84375 8.257812,26.765625 8.050781,26.765625 Z m 0,0"
       id="path9"
       inkscape:connector-curvature="0" />
    <path
       style="fill:#000000;fill-opacity:1;fill-rule:nonzero;stroke:none"
       d="m 8.050781,8.332031 -4.609375,0 C 3.234375,8.332031 3.054688,8.410156 2.902344,8.5625 2.75,8.714844 2.675781,8.894531 2.675781,9.101562 l 0,4.609376 c 0,0.207031 0.074219,0.386718 0.226563,0.539062 0.152344,0.152344 0.332031,0.226562 0.539062,0.226562 l 4.609375,0 c 0.207031,0 0.390625,-0.07422 0.539063,-0.226562 0.152344,-0.152344 0.230468,-0.332031 0.230468,-0.539062 l 0,-4.609376 C 8.820312,8.894531 8.742188,8.714844 8.589844,8.5625 8.441406,8.410156 8.257812,8.332031 8.050781,8.332031 Z m 0,0"
       id="path11"
       inkscape:connector-curvature="0" />
    <path
       style="fill:#000000;fill-opacity:1;fill-rule:nonzero;stroke:none"
       d="m 44.921875,35.984375 -32.261719,0 c -0.207031,0 -0.386718,0.07422 -0.539062,0.226563 -0.152344,0.152343 -0.230469,0.332031 -0.230469,0.542968 l 0,4.609375 c 0,0.207031 0.07813,0.386719 0.230469,0.539063 0.152344,0.152344 0.332031,0.226562 0.539062,0.226562 l 32.261719,0 c 0.207031,0 0.386719,-0.07422 0.539063,-0.226562 C 45.613281,41.75 45.6875,41.570312 45.6875,41.363281 l 0,-4.609375 c 0,-0.210937 -0.07422,-0.390625 -0.226562,-0.542968 -0.152344,-0.148438 -0.332032,-0.226563 -0.539063,-0.226563 z m 0,0"
       id="path13"
       inkscape:connector-curvature="0" />
    <path
       style="fill:#000000;fill-opacity:1;fill-rule:nonzero;stroke:none"
       d="m 44.921875,26.765625 -32.261719,0 c -0.207031,0 -0.386718,0.07813 -0.539062,0.230469 -0.152344,0.152344 -0.230469,0.332031 -0.230469,0.539062 l 0,4.609375 c 0,0.207031 0.07813,0.386719 0.230469,0.539063 0.152344,0.152344 0.332031,0.226562 0.539062,0.226562 l 32.261719,0 c 0.207031,0 0.386719,-0.07422 0.539063,-0.226562 0.152343,-0.152344 0.226562,-0.332032 0.226562,-0.539063 l 0,-4.609375 c 0,-0.207031 -0.07422,-0.386718 -0.226562,-0.539062 -0.152344,-0.152344 -0.332032,-0.230469 -0.539063,-0.230469 z m 0,0"
       id="path15"
       inkscape:connector-curvature="0" />
    <path
       style="fill:#000000;fill-opacity:1;fill-rule:nonzero;stroke:none"
       d="M 45.460938,8.5625 C 45.308594,8.410156 45.128906,8.332031 44.921875,8.332031 l -32.261719,0 c -0.207031,0 -0.386718,0.078125 -0.539062,0.230469 -0.152344,0.152344 -0.230469,0.332031 -0.230469,0.539062 l 0,4.609376 c 0,0.207031 0.07813,0.386718 0.230469,0.539062 0.152344,0.152344 0.332031,0.226562 0.539062,0.226562 l 32.261719,0 c 0.207031,0 0.386719,-0.07422 0.539063,-0.226562 0.152343,-0.152344 0.226562,-0.332031 0.226562,-0.539062 l 0,-4.609376 c 0,-0.207031 -0.07422,-0.386718 -0.226562,-0.539062 z m 0,0"
       id="path17"
       inkscape:connector-curvature="0" />
    <path
       style="fill:#000000;fill-opacity:1;fill-rule:nonzero;stroke:none"
       d="m 44.921875,17.550781 -32.261719,0 c -0.207031,0 -0.386718,0.07422 -0.539062,0.226563 -0.152344,0.152344 -0.230469,0.332031 -0.230469,0.542968 l 0,4.605469 c 0,0.210938 0.07813,0.390625 0.230469,0.542969 0.152344,0.148438 0.332031,0.226562 0.539062,0.226562 l 32.261719,0 c 0.207031,0 0.386719,-0.07422 0.539063,-0.226562 0.152343,-0.152344 0.226562,-0.332031 0.226562,-0.542969 l 0,-4.605469 c 0,-0.210937 -0.07422,-0.390624 -0.226562,-0.542968 C 45.308594,17.625 45.128906,17.550781 44.921875,17.550781 Z m 0,0"
       id="path19"
       inkscape:connector-curvature="0" />
  </g>
</svg>
