<?xml version="1.0" encoding="UTF-8"?>
<svg width="28px" height="28px" viewBox="0 0 28 28" version="1.1" xmlns="http://www.w3.org/2000/svg" xmlns:xlink="http://www.w3.org/1999/xlink">
    <!-- Generator: Sketch 59.1 (86144) - https://sketch.com -->
    <title>ic_fluent_list_28_regular</title>
    <desc>Created with Sketch.</desc>
    <g id="ðŸ”-Product-Icons" stroke="none" stroke-width="1" fill="none" fill-rule="evenodd">
        <g id="ic_fluent_list_28_regular" fill="#212121" fill-rule="nonzero">
            <path d="M16.25,21 C16.664,21 17,21.336 17,21.75 C17,22.164 16.664,22.5 16.25,22.5 L3.75,22.5 C3.336,22.5 3,22.164 3,21.75 C3,21.336 3.336,21 3.75,21 L16.25,21 Z M24.2484387,13.4983804 C24.6624387,13.4983804 24.9984387,13.8343804 24.9984387,14.2483804 C24.9984387,14.6623804 24.6624387,14.9983804 24.2484387,14.9983804 L3.74843873,14.9983804 C3.33443873,14.9983804 2.99843873,14.6623804 2.99843873,14.2483804 C2.99843873,13.8343804 3.33443873,13.4983804 3.74843873,13.4983804 L24.2484387,13.4983804 Z M20.25,6 C20.664,6 21,6.336 21,6.75 C21,7.164 20.664,7.5 20.25,7.5 L3.75,7.5 C3.336,7.5 3,7.164 3,6.75 C3,6.336 3.336,6 3.75,6 L20.25,6 Z" id="ðŸŽ¨-Color"/>
        </g>
    </g>
</svg>