<svg id="Calque_1" data-name="Calque 1" xmlns="http://www.w3.org/2000/svg" viewBox="0 0 48 48"><defs><style>.cls-1{fill-rule:evenodd;}</style></defs><title>Icon-Music</title><path class="cls-1" d="M13.33,32.07a2.65,2.65,0,1,1-2.66,2.64A2.64,2.64,0,0,1,13.33,32.07Zm21.34-4A2.64,2.64,0,1,1,32,30.75,2.63,2.63,0,0,1,34.67,28.11Zm2.66-16.93v2.64L18.67,17.29V14.65ZM40,8l-1.58.33-21.34,4L16,12.46V30.17a5.27,5.27,0,0,0-2.67-.74,5.29,5.29,0,1,0,5.34,5.28V19.93l18.66-3.47v9.75a5.26,5.26,0,0,0-2.66-.74A5.29,5.29,0,1,0,40,30.75V8Z"/></svg>