<svg id="Calque_1" data-name="Calque 1" xmlns="http://www.w3.org/2000/svg" viewBox="0 0 48 48"><title>Icon-Browse</title><path d="M26.87,25a11.29,11.29,0,0,0-8.46,1.11A11.09,11.09,0,0,0,16,27.9l1.33,1.33a9.22,9.22,0,0,1,2-1.53,9.41,9.41,0,0,1,2.27-.92,9.37,9.37,0,0,1,4.78,0,9.41,9.41,0,0,1,2.27.92,9.22,9.22,0,0,1,2,1.53L32,27.9a11.09,11.09,0,0,0-2.41-1.84A11.62,11.62,0,0,0,26.87,25Z"/><path d="M26,29.9a2.82,2.82,0,0,0-2-.84,2.82,2.82,0,0,0-1.06.21,2.78,2.78,0,0,0-.94.63,2.74,2.74,0,0,0-.63.93,2.94,2.94,0,0,0,0,2.13,2.78,2.78,0,0,0,.63.94,2.9,2.9,0,0,0,.94.62,2.82,2.82,0,0,0,1.06.21,2.78,2.78,0,0,0,1.06-.21A2.9,2.9,0,0,0,26,33.9a2.78,2.78,0,0,0,.63-.94,2.94,2.94,0,0,0,0-2.13A2.74,2.74,0,0,0,26,29.9Z"/><path d="M28.3,19.47a17.08,17.08,0,0,0-8.6,0,17.07,17.07,0,0,0-4.08,1.66A16.51,16.51,0,0,0,12,23.9l1.33,1.33a14.7,14.7,0,0,1,3.21-2.45,15.17,15.17,0,0,1,14.92,0,14.7,14.7,0,0,1,3.21,2.45L36,23.9a16.51,16.51,0,0,0-3.62-2.77A17.07,17.07,0,0,0,28.3,19.47Z"/><path d="M35.18,16.22A23,23,0,0,0,29.74,14a22.63,22.63,0,0,0-11.48,0,23,23,0,0,0-5.44,2.21A21.94,21.94,0,0,0,8,19.9l1.33,1.33a20,20,0,0,1,4.42-3.36,21.38,21.38,0,0,1,5-2,21.06,21.06,0,0,1,10.54,0,21.38,21.38,0,0,1,5,2,20,20,0,0,1,4.42,3.36L40,19.9A21.94,21.94,0,0,0,35.18,16.22Z"/></svg>