/* XPM */
static char * familiar_rewindb16x16_xpm[] = {
"16 16 2 1",
" 	c None",
".	c #000000",
"                ",
"                ",
"   ...    ..    ",
"   ...   ...    ",
"   ...  ....    ",
"   ... .....    ",
"   .........    ",
"   .........    ",
"   .........    ",
"   ... .....    ",
"   ...  ....    ",
"   ...   ...    ",
"   ...    ..    ",
"                ",
"                ",
"                "};
