/* XPM */
static char * gnome_vlc_xpm[] = {
"48 48 540 2",
"  	c None",
". 	c #000000",
"+ 	c #C76D00",
"@ 	c #DD831A",
"# 	c #D78626",
"$ 	c #B16E1F",
"% 	c #C66C00",
"& 	c #CC7F24",
"* 	c #B07633",
"= 	c #B68857",
"- 	c #D88F3B",
"; 	c #E39C4C",
"> 	c #DE9F58",
", 	c #E3A969",
"' 	c #F4B675",
") 	c #CD9962",
"! 	c #DD9038",
"~ 	c #FFAE51",
"{ 	c #FFB562",
"] 	c #FFBC72",
"^ 	c #FFBF7B",
"/ 	c #DDA56A",
"( 	c #E39235",
"_ 	c #FFAC4D",
": 	c #FFB35D",
"< 	c #FFBA6D",
"[ 	c #E3AA6D",
"} 	c #CD7D1F",
"| 	c #F99F36",
"1 	c #FFAA48",
"2 	c #FFB158",
"3 	c #FFB869",
"4 	c #FFBF79",
"5 	c #F9BA78",
"6 	c #040404",
"7 	c #D78C33",
"8 	c #F9A849",
"9 	c #FDA947",
"0 	c #FFAF54",
"a 	c #FFB664",
"b 	c #FFBD74",
"c 	c #FFC07E",
"d 	c #DDAB76",
"e 	c #050505",
"f 	c #181818",
"g 	c #C3A887",
"h 	c #E1C6A6",
"i 	c #F3B369",
"j 	c #FAB667",
"k 	c #FCBE77",
"l 	c #FFC688",
"m 	c #FFD09F",
"n 	c #E3CBB4",
"o 	c #393939",
"p 	c #343434",
"q 	c #C2B5A5",
"r 	c #D7D3CF",
"s 	c #DBCEBF",
"t 	c #E7D9C9",
"u 	c #F3E6D7",
"v 	c #FFF3E6",
"w 	c #FFF5EC",
"x 	c #F9F4F0",
"y 	c #CDBDAE",
"z 	c #232323",
"A 	c #1D1D1D",
"B 	c #B49B7B",
"C 	c #D1CECA",
"D 	c #D6D6D6",
"E 	c #D6D5D5",
"F 	c #E3E2E2",
"G 	c #F1F0F0",
"H 	c #FFFEFE",
"I 	c #DDD2C9",
"J 	c #212121",
"K 	c #1B1B1B",
"L 	c #BFAE99",
"M 	c #D6D5D4",
"N 	c #E3E3E3",
"O 	c #F1F1F1",
"P 	c #FFFFFF",
"Q 	c #E3DAD1",
"R 	c #3E3E3E",
"S 	c #E9E8E7",
"T 	c #BAB0A9",
"U 	c #5A5047",
"V 	c #C3A57F",
"W 	c #DBCBB8",
"X 	c #D7D4D0",
"Y 	c #FFFCFA",
"Z 	c #F9EDE2",
"` 	c #CCB69F",
" .	c #40403F",
"..	c #E0DEDD",
"+.	c #EEECEB",
"@.	c #ADA59E",
"#.	c #4B423B",
"$.	c #1D1A17",
"%.	c #070707",
"&.	c #DD851A",
"*.	c #F3A240",
"=.	c #E1C3A0",
"-.	c #DDCBB7",
";.	c #E7D8C6",
">.	c #F3E5D4",
",.	c #FFF1E2",
"'.	c #FFF2E5",
").	c #FFECD9",
"!.	c #D8AC80",
"~.	c #BFBDBC",
"{.	c #B5ADA7",
"].	c #6B5E54",
"^.	c #ACA9A8",
"/.	c #DEDBDA",
"(.	c #DCD9D6",
"_.	c #9E948D",
":.	c #49413A",
"<.	c #0E0C0B",
"[.	c #CD7000",
"}.	c #F98800",
"|.	c #FD8E07",
"1.	c #F99C2C",
"2.	c #F8A340",
"3.	c #FAAC50",
"4.	c #FCB460",
"5.	c #FFBC70",
"6.	c #FFC27D",
"7.	c #FFC687",
"8.	c #FEBF7D",
"9.	c #C7AC8D",
"0.	c #E4E2E0",
"a.	c #BCB2AB",
"b.	c #5D5249",
"c.	c #484039",
"d.	c #9F9E9C",
"e.	c #DBD7D4",
"f.	c #BEB6AE",
"g.	c #96887D",
"h.	c #4D443C",
"i.	c #050504",
"j.	c #DD7900",
"k.	c #FF8C00",
"l.	c #FF910E",
"m.	c #FF981E",
"n.	c #FF9F2E",
"o.	c #FFA63F",
"p.	c #FFAD4F",
"q.	c #FFB45F",
"r.	c #FFBB70",
"s.	c #FDBD7A",
"t.	c #BDA287",
"u.	c #B8B0A9",
"v.	c #A79C93",
"w.	c #4F463E",
"x.	c #322C28",
"y.	c #6D6863",
"z.	c #ADA39A",
"A.	c #998C81",
"B.	c #7F7166",
"C.	c #37312B",
"D.	c #020101",
"E.	c #FF8F09",
"F.	c #FF9619",
"G.	c #FF9D2A",
"H.	c #FFA43A",
"I.	c #FFAB4A",
"J.	c #FFB25B",
"K.	c #FFB96B",
"L.	c #FEBE7A",
"M.	c #C59C70",
"N.	c #8A7D73",
"O.	c #635950",
"P.	c #1C1816",
"Q.	c #070605",
"R.	c #171413",
"S.	c #5B5149",
"T.	c #5B5048",
"U.	c #403832",
"V.	c #0E0D0B",
"W.	c #E37C00",
"X.	c #FF8D04",
"Y.	c #FF9415",
"Z.	c #FF9B25",
"`.	c #FFA235",
" +	c #FFA946",
".+	c #FEB056",
"++	c #EFB778",
"@+	c #EEB679",
"#+	c #E6AC70",
"$+	c #62503D",
"%+	c #171411",
"&+	c #181613",
"*+	c #2C2622",
"=+	c #0B0909",
"-+	c #C87817",
";+	c #F3921C",
">+	c #FD8E05",
",+	c #FF9210",
"'+	c #FF9920",
")+	c #FFA031",
"!+	c #FFA741",
"~+	c #F2AB5A",
"{+	c #EBE6E2",
"]+	c #BAAFA3",
"^+	c #B4895D",
"/+	c #BB8C5C",
"(+	c #4A3A28",
"_+	c #010101",
":+	c #312C29",
"<+	c #141210",
"[+	c #060505",
"}+	c #E1C199",
"|+	c #F3A03B",
"1+	c #F89824",
"2+	c #F9961D",
"3+	c #FD9110",
"4+	c #FF971C",
"5+	c #FF9E2C",
"6+	c #FFA53C",
"7+	c #DEA360",
"8+	c #CFCBC9",
"9+	c #948A83",
"0+	c #42372D",
"a+	c #B89673",
"b+	c #D0BAA5",
"c+	c #2D2D2D",
"d+	c #C8C8C8",
"e+	c #E0DFDE",
"f+	c #D1CECC",
"g+	c #B9B4AF",
"h+	c #91857C",
"i+	c #74685E",
"j+	c #D7D3CE",
"k+	c #DBCBB7",
"l+	c #DDC9B1",
"m+	c #FAA239",
"n+	c #FCAA49",
"o+	c #FFB259",
"p+	c #D69E5E",
"q+	c #A19489",
"r+	c #5A524B",
"s+	c #090807",
"t+	c #635F5B",
"u+	c #EFEAE6",
"v+	c #CCBCAD",
"w+	c #6F6E6E",
"x+	c #E8E6E4",
"y+	c #E8E5E3",
"z+	c #DCD9D7",
"A+	c #E0DCD9",
"B+	c #B7B0AB",
"C+	c #ACA097",
"D+	c #87796D",
"E+	c #494139",
"F+	c #BEAE99",
"G+	c #E7D5BF",
"H+	c #F3E2CE",
"I+	c #FFEFDC",
"J+	c #EDDFCF",
"K+	c #8A7F75",
"L+	c #332E29",
"M+	c #010000",
"N+	c #494949",
"O+	c #E5E4E4",
"P+	c #D7D0C9",
"Q+	c #DEDCDA",
"R+	c #E2DEDA",
"S+	c #D4CFCA",
"T+	c #BDB4AD",
"U+	c #B8AFA8",
"V+	c #9F968F",
"W+	c #988D84",
"X+	c #71655A",
"Y+	c #1B1715",
"Z+	c #030202",
"`+	c #C2B4A2",
" @	c #F8F7F7",
".@	c #C9C7C6",
"+@	c #706E6D",
"@@	c #454545",
"#@	c #919191",
"$@	c #E1E1E0",
"%@	c #EBE8E8",
"&@	c #E3E0DD",
"*@	c #C7BFB8",
"=@	c #AA9E95",
"-@	c #9C8F84",
";@	c #9F9288",
">@	c #92857B",
",@	c #70655C",
"'@	c #453C36",
")@	c #030303",
"!@	c #B89368",
"~@	c #D2CCC3",
"{@	c #F0F0F0",
"]@	c #EEEEEE",
"^@	c #C9C2BE",
"/@	c #B3B0AD",
"(@	c #EAE9E9",
"_@	c #EEEDED",
":@	c #E8E6E5",
"<@	c #F1EFEE",
"[@	c #D6D0CB",
"}@	c #9E9186",
"|@	c #93857A",
"1@	c #9B8E83",
"2@	c #9F9187",
"3@	c #908176",
"4@	c #807368",
"5@	c #1E1B18",
"6@	c #D3882D",
"7@	c #DCC9B1",
"8@	c #E8E7E7",
"9@	c #D5D1CE",
"0@	c #D0CCC8",
"a@	c #A1978E",
"b@	c #4A423C",
"c@	c #B4ABA3",
"d@	c #E5DDD4",
"e@	c #E5E1DE",
"f@	c #E1DEDB",
"g@	c #B7AEA5",
"h@	c #9F9085",
"i@	c #9E9084",
"j@	c #9C8E83",
"k@	c #A09288",
"l@	c #908277",
"m@	c #514841",
"n@	c #090806",
"o@	c #DB7B04",
"p@	c #F89823",
"q@	c #E7D4BC",
"r@	c #EBD9C4",
"s@	c #A89B8E",
"t@	c #6E655C",
"u@	c #4A433D",
"v@	c #574736",
"w@	c #D2B595",
"x@	c #DFDAD6",
"y@	c #CDC7C2",
"z@	c #9F948A",
"A@	c #91857A",
"B@	c #93857B",
"C@	c #998B80",
"D@	c #7C6F65",
"E@	c #4A413A",
"F@	c #12100E",
"G@	c #FA9A26",
"H@	c #FCA031",
"I@	c #E8983C",
"J@	c #654724",
"K@	c #0A0805",
"L@	c #372919",
"M@	c #C6A786",
"N@	c #D6D1CC",
"O@	c #B6ACA4",
"P@	c #A49990",
"Q@	c #81766E",
"R@	c #877C73",
"S@	c #1B1815",
"T@	c #FF8E07",
"U@	c #FE9416",
"V@	c #EC9024",
"W@	c #A86B24",
"X@	c #6F4A1F",
"Y@	c #AB773C",
"Z@	c #CCA982",
"`@	c #D8D2CD",
" #	c #BFB6AD",
".#	c #AA9D92",
"+#	c #9F9287",
"@#	c #6A5F55",
"##	c #211D1A",
"$#	c #FF8C02",
"%#	c #FF9312",
"&#	c #FF9A23",
"*#	c #FB9E32",
"=#	c #F4A040",
"-#	c #F6A951",
";#	c #CFA77A",
">#	c #C8BFB9",
",#	c #A2958A",
"'#	c #96887C",
")#	c #554B43",
"!#	c #070604",
"~#	c #221300",
"{#	c #DBD8D5",
"]#	c #DEDBD8",
"^#	c #D8D3D0",
"/#	c #BFB7B1",
"(#	c #84776D",
"_#	c #B16100",
":#	c #FEAC4E",
"<#	c #D2A471",
"[#	c #C3BAB1",
"}#	c #C4BCB4",
"|#	c #A6998D",
"1#	c #847569",
"2#	c #39322D",
"3#	c #804600",
"4#	c #DF7A00",
"5#	c #151414",
"6#	c #DAD6D4",
"7#	c #E8E5E2",
"8#	c #E4E0DD",
"9#	c #D1CBC6",
"0#	c #BCB3AB",
"a#	c #75685E",
"b#	c #28231F",
"c#	c #FA8900",
"d#	c #FEAA49",
"e#	c #D59F63",
"f#	c #BBAEA3",
"g#	c #A5988D",
"h#	c #8B7C70",
"i#	c #36302A",
"j#	c #AA5C00",
"k#	c #F38500",
"l#	c #A96008",
"m#	c #989088",
"n#	c #B2A79E",
"o#	c #BAB0A7",
"p#	c #A79A90",
"q#	c #94877D",
"r#	c #040303",
"s#	c #B66300",
"t#	c #FE8B00",
"u#	c #E97F00",
"v#	c #E88000",
"w#	c #A05C00",
"x#	c #F9A544",
"y#	c #E19F55",
"z#	c #B8A694",
"A#	c #BFB6AF",
"B#	c #A99D92",
"C#	c #8A7B6F",
"D#	c #4E453D",
"E#	c #1B130B",
"F#	c #B76400",
"G#	c #F88700",
"H#	c #D27300",
"I#	c #38332F",
"J#	c #8E837A",
"K#	c #AFA49B",
"L#	c #9F9186",
"M#	c #26221E",
"N#	c #F98900",
"O#	c #D27500",
"P#	c #885100",
"Q#	c #774800",
"R#	c #81581A",
"S#	c #857460",
"T#	c #A6998F",
"U#	c #7C6F63",
"V#	c #4F463D",
"W#	c #6D4921",
"X#	c #C16A00",
"Y#	c #8D8B88",
"Z#	c #D1CCC7",
"`#	c #A7998F",
" $	c #74675D",
".$	c #0F0D0C",
"+$	c #DE7B00",
"@$	c #DC7B00",
"#$	c #CC7200",
"$$	c #764800",
"%$	c #764903",
"&$	c #764A05",
"*$	c #774D0B",
"=$	c #885914",
"-$	c #C97000",
";$	c #9C641E",
">$	c #85786C",
",$	c #9A8C81",
"'$	c #9D8E83",
")$	c #948578",
"!$	c #84766A",
"~$	c #897F76",
"{$	c #87807C",
"]$	c #A09B97",
"^$	c #CFCDCC",
"/$	c #EBEAE9",
"($	c #D5CFCA",
"_$	c #A0948A",
":$	c #534942",
"<$	c #D97700",
"[$	c #CB7000",
"}$	c #D87800",
"|$	c #DD7B00",
"1$	c #E37E00",
"2$	c #DC7A04",
"3$	c #79644F",
"4$	c #8C7F75",
"5$	c #9B8D82",
"6$	c #988A7E",
"7$	c #95867A",
"8$	c #A09287",
"9$	c #ACA096",
"0$	c #CFC8C2",
"a$	c #DCD7D3",
"b$	c #887B71",
"c$	c #292420",
"d$	c #DE7900",
"e$	c #E47D00",
"f$	c #C96E00",
"g$	c #201C19",
"h$	c #6D6056",
"i$	c #8A7D72",
"j$	c #98897D",
"k$	c #938479",
"l$	c #A4978D",
"m$	c #B9AFA6",
"n$	c #040403",
"o$	c #39332D",
"p$	c #5D5149",
"q$	c #75675C",
"r$	c #908175",
"s$	c #A09388",
"t$	c #AA9E94",
"u$	c #9A8C80",
"v$	c #A4968C",
"w$	c #998A80",
"x$	c #9E9086",
"y$	c #73675D",
"z$	c #1E1A18",
"A$	c #0B0908",
"B$	c #2F2924",
"C$	c #64584F",
"D$	c #7C6F64",
"E$	c #918277",
"F$	c #8F8175",
"G$	c #94867A",
"H$	c #2C2723",
"I$	c #171412",
"J$	c #25211D",
"K$	c #302A25",
"L$	c #514840",
"M$	c #554B42",
"N$	c #191614",
"O$	c #060504",
"                                                                                                ",
"                                                                                                ",
"                                                                                                ",
"                                                                                                ",
"                                    . . . .                                                     ",
"                                  . + @ # $ .                                                   ",
"                                . . % @ & . .                                                   ",
"                                . * . . . = .                                                   ",
"                                . - ; > , ' ) .                                                 ",
"                                . ! ~ { ] ^ / .                                                 ",
"                                . ( _ : < ^ [ .                                                 ",
"                              . } | 1 2 3 4 5 ) .                                               ",
"                              6 7 8 9 0 a b c d e                                               ",
"                              f g h i j k l m n o                                               ",
"                              p q r s t u v w x y z                                             ",
"                            A B C D E F G H H H I J                                             ",
"                            K L M D D N O P P H Q R             S T U                           ",
"                            f V W X E F G H H Y Z `  .        ..+.@.#.$.                        ",
"                            %.&.*.=.-.;.>.,.'.).m !.~.{.].  ^./.(._.:.<.                        ",
"                          . [.}.|.1.2.3.4.5.6.7.8.9.0.a.b.c.d.e.f.g.h.i.                        ",
"                          . j.k.k.l.m.n.o.p.q.r.s.t.u.v.w.x.y.z.A.B.C.D..                       ",
"                          . j.k.k.E.F.G.H.I.J.K.L.M.N.O.P.Q.R.S.T.U.V.. .                       ",
"                          . W.k.k.X.Y.Z.`. +.+++@+#+$+%+. .   &+*+=+. .                         ",
"                        %.-+;+>+k.k.,+'+)+!+~+{+]+^+/+(+_+.       :+<+[+                        ",
"                        f V }+|+1+2+3+4+5+6+7+8+9+0+a+b+c+    d+e+f+g+h+i+                      ",
"                        K L j+k+l+}+*.m+n+o+p+q+r+s+t+u+v+w+x+y+z+A+B+C+D+E+                    ",
"                        K F+E E E r W G+H+I+J+K+L+M+N+O+P+Q+R+S+T+U+V+W+X+Y+Z+                  ",
"                        p `+E D D D E F G H  @.@+@@@#@$@%@&@*@=@-@;@>@,@'@)@.                   ",
"                      f !@~@E E E D D N {@]@G ^@/@(@_@:@<@[@}@|@1@2@3@4@5@. .                   ",
"                      6 6@}+l+7@k+r E F 8@9@0@a@b@c@d@e@f@g@h@i@j@k@l@m@n@. .                   ",
"                      . o@2+p@1+|+}+l+q@r@s@t@u@<+v@w@x@y@z@A@B@C@D@E@F@_+.                     ",
"                      . W.k.k.k.>+2+p@G@H@I@J@K@. L@M@N@O@P@Q@R@T.S@. . .                       ",
"                    . [.}.k.k.k.k.k.k.k.T@U@V@W@X@Y@Z@`@ #.#+#@###. . .                         ",
"                  . . j.k.k.k.k.k.k.k.k.$#%#&#*#=#-#;#>#*@,#'#)#!#~#. .     {#]#^#/#(#          ",
"              . . _#. j.k.k.k.k.k.k.k.k.k.l.m.n.o.:#<#[#}#|#1#2#. 3#4#[.5#6#7#8#9#0#a#b#        ",
"            . [.W.j.. W.c#k.c#k.k.k.k.k.k.E.F.G.H.d#e#f# #g#h#i#. j#k.k#l#m#n#o#p#q##.r#.       ",
"          . s#k#t#}.u#}.v#w#k.k.k.k.k.k.k.X.Y.Z.`.x#y#z#A#B#C#D#E#F#G#H#. I#J#K#L#B.M#. .       ",
"          . . [.j.j.W.}.N#O#P#Q#P#k.k.k.k.k.,+'+)+!+R#S#T#g#3@U#V#W#X#.     Y#Z#`# $.$.         ",
"              . . . . [.j.4#+$@$#$P#Q#$$$$$$%$&$*$=$-$;$>$,$'$)$!$>$~${$]$^$/$($_$:$r#.         ",
"                . . . . . . [.j.<$[$}$@$@$@$@$@$|$1$N#2$3$4$5$6$7$8$9$T+0$&@a$0#b$c$_+.         ",
"                . . . . . . . . . . [.j.d$e$}.k.k.}.W.f$g$h$i$5$j$k$8$5$l$m$9$,$)#s+.           ",
"                  . . . . . . . . . . . . . [.j.j.[.. . n$o$p$q$r$s$t$u$v$w$x$y$z$. .           ",
"                        . . . . . . . . . . . . . . . . . A$B$E@C$D$E$F$7$G$y$H$D..             ",
"                              . . . . . . . . . . . . . . . . I$J$K$E@L$M$:.N$_+. .             ",
"                                      . . . . . . . . . .       [+r#O$[+O$D.. . .               ",
"                                              . . . .               . . . . .                   ",
"                                                                                                ",
"                                                                                                "};
