/* XPM */
static char * gnome_vlc_xpm[] = {
"32 32 335 2",
"  	c None",
". 	c #8A4E06",
"+ 	c #915917",
"@ 	c #583710",
"# 	c #271A0B",
"$ 	c #894D06",
"% 	c #8C5616",
"& 	c #281E13",
"* 	c #875A26",
"= 	c #966935",
"- 	c #966E42",
"; 	c #C2915D",
"> 	c #3B2C1C",
", 	c #956025",
"' 	c #FFB055",
") 	c #FFB96B",
"! 	c #F4B776",
"~ 	c #4A3824",
"{ 	c #3B2409",
"] 	c #CF832B",
"^ 	c #FFAD4F",
"/ 	c #FFB665",
"( 	c #FBBC78",
"_ 	c #AC8052",
": 	c #4D3921",
"< 	c #E6A860",
"[ 	c #FBAE55",
"} 	c #FEB665",
"| 	c #FFC27F",
"1 	c #EABB8A",
"2 	c #161616",
"3 	c #5D5750",
"4 	c #D2C5B5",
"5 	c #E6C8A4",
"6 	c #F3D5B2",
"7 	c #FFE6CB",
"8 	c #F6E7D9",
"9 	c #7E756E",
"0 	c #1C1C1C",
"a 	c #C1B19D",
"b 	c #D5D4D3",
"c 	c #DADADA",
"d 	c #ECECEC",
"e 	c #FFFEFE",
"f 	c #A39C96",
"g 	c #191919",
"h 	c #CAB59B",
"i 	c #D8D3CC",
"j 	c #FFFDFC",
"k 	c #D5C9BD",
"l 	c #68615A",
"m 	c #E9E8E7",
"n 	c #918881",
"o 	c #332D28",
"p 	c #3F2404",
"q 	c #EC8D1B",
"r 	c #EDAD60",
"s 	c #E8C294",
"t 	c #F3D1A8",
"u 	c #FFE0BE",
"v 	c #FFE0BF",
"w 	c #F0C08F",
"x 	c #CEC0B1",
"y 	c #9C928B",
"z 	c #5A5047",
"A 	c #B9B7B5",
"B 	c #D6D1CE",
"C 	c #80766E",
"D 	c #201C19",
"E 	c #904F00",
"F 	c #FD8B01",
"G 	c #FD9211",
"H 	c #FD9E2F",
"I 	c #FEA844",
"J 	c #FFB45F",
"K 	c #FFBD73",
"L 	c #E9B680",
"M 	c #C5B8AB",
"N 	c #90867D",
"O 	c #423A34",
"P 	c #938D88",
"Q 	c #ADA39A",
"R 	c #6F6359",
"S 	c #171412",
"T 	c #955100",
"U 	c #FF8C00",
"V 	c #FF8E05",
"W 	c #FF981D",
"X 	c #FFA133",
"Y 	c #FFAD4E",
"Z 	c #FBB668",
"` 	c #EBB376",
" .	c #987F66",
"..	c #37312C",
"+.	c #090807",
"@.	c #2B2622",
"#.	c #49403A",
"$.	c #221E1B",
"%.	c #030302",
"&.	c #3D260B",
"*.	c #CB7712",
"=.	c #FE8D02",
"-.	c #FF8C01",
";.	c #FF9517",
">.	c #FF9E2D",
",.	c #FCA94A",
"'.	c #F0C89D",
").	c #C9A884",
"!.	c #AA8258",
"~.	c #261E16",
"{.	c #000000",
"].	c #1D1A18",
"^.	c #070606",
"/.	c #51493E",
"(.	c #D4BD9F",
"_.	c #ECAC5F",
":.	c #F0A64B",
"<.	c #FB9822",
"[.	c #FEA030",
"}.	c #F3A74E",
"|.	c #C9B198",
"1.	c #655D56",
"2.	c #776552",
"3.	c #B2A69A",
"4.	c #676461",
"5.	c #DBDAD9",
"6.	c #DBD9D8",
"7.	c #CCC8C5",
"8.	c #A49A93",
"9.	c #73675D",
"0.	c #514C45",
"a.	c #CEC8BF",
"b.	c #D8D1CA",
"c.	c #DACEC1",
"d.	c #E6C091",
"e.	c #F3CC9D",
"f.	c #F6D5AE",
"g.	c #AE9C8B",
"h.	c #2C2824",
"i.	c #383635",
"j.	c #E1DCD8",
"k.	c #C2BDB9",
"l.	c #E1DDDA",
"m.	c #CEC8C3",
"n.	c #BBB4AE",
"o.	c #A1978F",
"p.	c #5E544B",
"q.	c #14110F",
"r.	c #827668",
"s.	c #D1CDC8",
"t.	c #D6D6D6",
"u.	c #ECEBEB",
"v.	c #F8F7F7",
"w.	c #D8D5D4",
"x.	c #838180",
"y.	c #9F9E9E",
"z.	c #E7E5E4",
"A.	c #E3E0DD",
"B.	c #B2A79E",
"C.	c #9E9186",
"D.	c #9A8D83",
"E.	c #7F7268",
"F.	c #26211E",
"G.	c #010101",
"H.	c #0B0B0B",
"I.	c #D09F63",
"J.	c #DBCAB6",
"K.	c #DACDBE",
"L.	c #D8D2CC",
"M.	c #E8E7E7",
"N.	c #DDDAD8",
"O.	c #BDB6B0",
"P.	c #8B847F",
"Q.	c #DDD7D1",
"R.	c #E6E3E1",
"S.	c #CEC7C2",
"T.	c #9D8F84",
"U.	c #9B8D82",
"V.	c #9A8C82",
"W.	c #70655C",
"X.	c #0B0A08",
"Y.	c #E78308",
"Z.	c #FB9416",
"`.	c #F9961E",
" +	c #EDAA58",
".+	c #E8BB84",
"++	c #F0C490",
"@+	c #A28565",
"#+	c #473E35",
"$+	c #221C16",
"%+	c #A38A6F",
"&+	c #D4CFCA",
"*+	c #ADA39B",
"=+	c #8D8177",
"-+	c #887B71",
";+	c #4E453E",
">+	c #181613",
",+	c #663800",
"'+	c #F68700",
")+	c #FD8E07",
"!+	c #FD900C",
"~+	c #FE9312",
"{+	c #E48B23",
"]+	c #8D591D",
"^+	c #5D401E",
"/+	c #B38F68",
"(+	c #CEC7C1",
"_+	c #AFA39A",
":+	c #8A7E74",
"<+	c #49423B",
"[+	c #060505",
"}+	c #271600",
"|+	c #935100",
"1+	c #FF9516",
"2+	c #FD9D2C",
"3+	c #F8A545",
"4+	c #DEA76A",
"5+	c #C6BEB6",
"6+	c #AFA49A",
"7+	c #796D62",
"8+	c #1C1916",
"9+	c #442600",
"0+	c #462600",
"a+	c #DFDBD9",
"b+	c #DDD9D5",
"c+	c #C6BFB9",
"d+	c #73675E",
"e+	c #3B2000",
"f+	c #925000",
"g+	c #8A4B00",
"h+	c #965200",
"i+	c #FD8B00",
"j+	c #FF9210",
"k+	c #FF9B26",
"l+	c #FFA741",
"m+	c #E2A45E",
"n+	c #BFB4AA",
"o+	c #AEA398",
"p+	c #6D6157",
"q+	c #12100E",
"r+	c #B96500",
"s+	c #EB8100",
"t+	c #8A673E",
"u+	c #BDB5AE",
"v+	c #C2B9B1",
"w+	c #A89D94",
"x+	c #413933",
"y+	c #070605",
"z+	c #9E5600",
"A+	c #EF8300",
"B+	c #ED8100",
"C+	c #F38500",
"D+	c #D97900",
"E+	c #CA7200",
"F+	c #D47600",
"G+	c #F28500",
"H+	c #FF8F08",
"I+	c #FF981E",
"J+	c #FEA339",
"K+	c #D49142",
"L+	c #AC9D8E",
"M+	c #ADA197",
"N+	c #7C6F64",
"O+	c #3D342B",
"P+	c #B66607",
"Q+	c #AA5D00",
"R+	c #131110",
"S+	c #78716B",
"T+	c #B2A79F",
"U+	c #887A70",
"V+	c #141210",
"W+	c #291600",
"X+	c #482700",
"Y+	c #4A2900",
"Z+	c #AC5E00",
"`+	c #E27C00",
" @	c #CA7100",
".@	c #B96900",
"+@	c #B26500",
"@@	c #A45F00",
"#@	c #A46002",
"$@	c #A4630C",
"%@	c #A86C1B",
"&@	c #B16C11",
"*@	c #93724B",
"=@	c #998C81",
"-@	c #94867A",
";@	c #7B6E62",
">@	c #876E52",
",@	c #706151",
"'@	c #B0ACA9",
")@	c #CCCBCA",
"!@	c #C3BBB5",
"~@	c #756961",
"{@	c #050404",
"]@	c #5B3200",
"^@	c #8A4C00",
"/@	c #D77700",
"(@	c #DD7A00",
"_@	c #E17D00",
":@	c #E78000",
"<@	c #E98100",
"[@	c #EF8400",
"}@	c #AD6816",
"|@	c #75675B",
"1@	c #97897E",
"2@	c #97887C",
"3@	c #A09287",
"4@	c #AEA39A",
"5@	c #C7C0B9",
"6@	c #CFC8C3",
"7@	c #9D9289",
"8@	c #3C3530",
"9@	c #4A2800",
"0@	c #7C4400",
"a@	c #E47D00",
"b@	c #311C03",
"c@	c #36302B",
"d@	c #73665D",
"e@	c #8D7E73",
"f@	c #9F9287",
"g@	c #A4968C",
"h@	c #A3968C",
"i@	c #655B53",
"j@	c #28231F",
"k@	c #483F38",
"l@	c #6A5F56",
"m@	c #7A6D63",
"n@	c #7E7166",
"o@	c #62584F",
"p@	c #110F0E",
"q@	c #161311",
"r@	c #1E1B18",
"s@	c #1E1A17",
"t@	c #0E0C0B",
"                                                                ",
"                                                                ",
"                                                                ",
"                        . + @                                   ",
"                      # $ % &                                   ",
"                      * = - ; >                                 ",
"                      , ' ) ! ~                                 ",
"                    { ] ^ / ( _                                 ",
"                    : < [ } | 1 2                               ",
"                    3 4 5 6 7 8 9                               ",
"                  0 a b c d e e f                               ",
"                  g h i c d e j k l       m n o                 ",
"                  p q r s t u v w x y z A B C D                 ",
"                  E F G H I J K L M N O P Q R S                 ",
"                  T U V W X Y Z `  ...+.@.#.$.%.                ",
"                &.*.=.-.;.>.,.'.).!.~.{.    ].^.                ",
"                /.(._.:.<.[.}.|.1.2.3.4.5.6.7.8.9.              ",
"                0.a.b.c.d.e.f.g.h.i.j.k.l.m.n.o.p.q.            ",
"                r.s.t.t.c u.v.w.x.y.z.A.B.C.D.E.F.G.            ",
"              H.I.J.K.L.c M.N.O.P.Q.R.S.T.U.V.W.X.{.            ",
"              {.Y.Z.`. +.+++@+#+$+%+&+*+=+-+;+>+{.              ",
"              ,+'+U -.)+!+~+{+]+^+/+(+_+:+<+[+{.                ",
"            }+|+U U U U U -.1+2+3+4+5+6+7+8+9+0+  a+b+c+d+      ",
"        e+f+g+h+i+i+U U U U j+k+l+m+n+o+p+q+r+s+t+u+v+w+x+y+    ",
"      {.z+A+B+C+D+E+F+G+U U H+I+J+K+L+M+N+O+P+Q+R+S+T+U+V+{.    ",
"        W+X+Y+Z+`+ @.@+@@@@@#@$@%@&@*@=@-@;@>@,@'@)@!@~@{@      ",
"          {.{.{.{.]@f+^@/@(@_@:@<@[@}@|@1@2@3@4@5@6@7@8@{.      ",
"            {.{.{.{.{.{.0+9@0@a@a@0@b@c@d@e@f@C.g@h@i@q+{.      ",
"                {.{.{.{.{.{.{.{.{.{.{.{@j@k@l@m@n@o@V+{.        ",
"                        {.{.{.{.{.{.{.{.  p@q@r@s@t@{.{.        ",
"                                {.{.          {.{.{.            ",
"                                                                "};
