/* XPM */
static char * gnome_vlc_xpm[] = {
"48 48 427 2",
"  	c None",
". 	c #000000",
"+ 	c #B96500",
"@ 	c #D47E18",
"# 	c #CD7F24",
"$ 	c #9D611C",
"% 	c #B86500",
"& 	c #BF7722",
"* 	c #9C682D",
"= 	c #A47A4F",
"- 	c #CE8838",
"; 	c #DC974A",
"> 	c #D69955",
", 	c #DCA366",
"' 	c #F1B474",
") 	c #C08F5C",
"! 	c #D58B36",
"~ 	c #FFAE51",
"{ 	c #FFB562",
"] 	c #FFBC72",
"^ 	c #FFBF7B",
"/ 	c #D59F66",
"( 	c #DC8E33",
"_ 	c #FFAC4D",
": 	c #FFB35D",
"< 	c #FFBA6D",
"[ 	c #DCA46A",
"} 	c #C0751D",
"| 	c #F89E36",
"1 	c #FFAA48",
"2 	c #FFB158",
"3 	c #FFB869",
"4 	c #FFBF79",
"5 	c #F8B977",
"6 	c #030303",
"7 	c #D38A35",
"8 	c #FDAC4D",
"9 	c #FFAF54",
"0 	c #FFB664",
"a 	c #FFBD74",
"b 	c #FDBF7D",
"c 	c #D3A371",
"d 	c #020202",
"e 	c #111111",
"f 	c #D3B898",
"g 	c #FDE2C2",
"h 	c #FDBD73",
"i 	c #FDB96B",
"j 	c #FDBF78",
"k 	c #FDC587",
"l 	c #FDCF9E",
"m 	c #DAC4AE",
"n 	c #272727",
"o 	c #2A2A2A",
"p 	c #DACDBC",
"q 	c #FDF9F5",
"r 	c #FDF0E1",
"s 	c #FDEFDE",
"t 	c #FDF1E4",
"u 	c #FDF4EA",
"v 	c #F6F2ED",
"w 	c #BEB0A2",
"x 	c #171717",
"y 	c #BEA689",
"z 	c #F6F2EE",
"A 	c #FEFEFE",
"B 	c #FDFCFC",
"C 	c #D3CAC0",
"D 	c #131313",
"E 	c #D3C2AE",
"F 	c #FDFCFB",
"G 	c #DAD2C9",
"H 	c #2B2B2B",
"I 	c #D3B591",
"J 	c #FDEDD9",
"K 	c #FDFBF8",
"L 	c #F6EBDF",
"M 	c #BEAA95",
"N 	c #050505",
"O 	c #DA851D",
"P 	c #FDAC4A",
"Q 	c #FDDFBC",
"R 	c #FDECD8",
"S 	c #FDEDDB",
"T 	c #FDF1E3",
"U 	c #FDEBD7",
"V 	c #D5A675",
"W 	c #C06900",
"X 	c #F88800",
"Y 	c #FF8F08",
"Z 	c #FDA031",
"` 	c #FDA946",
" .	c #FDAF54",
"..	c #FDB561",
"+.	c #FDBB6F",
"@.	c #FDC07C",
"#.	c #FDC485",
"$.	c #FFC07E",
"%.	c #D57400",
"&.	c #FF8C00",
"*.	c #FF910E",
"=.	c #FF981E",
"-.	c #FF9F2E",
";.	c #FFA63F",
">.	c #FFAD4F",
",.	c #FFB45F",
"'.	c #FFBB70",
").	c #FF8F09",
"!.	c #FF9619",
"~.	c #FF9D2A",
"{.	c #FFA43A",
"].	c #FFAB4A",
"^.	c #FFB25B",
"/.	c #FFB96B",
"(.	c #BEB7B1",
"_.	c #DC7800",
":.	c #FF8D04",
"<.	c #FF9415",
"[.	c #FF9B25",
"}.	c #FFA235",
"|.	c #FFA946",
"1.	c #FFB056",
"2.	c #FFB766",
"3.	c #FFBE77",
"4.	c #F1F1F0",
"5.	c #BBB4AE",
"6.	c #433A34",
"7.	c #BE7318",
"8.	c #F69520",
"9.	c #FF8F07",
"0.	c #FF9210",
"a.	c #FF9920",
"b.	c #FFA031",
"c.	c #FFA741",
"d.	c #F6B979",
"e.	c #BE9366",
"f.	c #50504F",
"g.	c #E3DFDC",
"h.	c #84786E",
"i.	c #BAB7B5",
"j.	c #E2DEDB",
"k.	c #A59C94",
"l.	c #39332D",
"m.	c #FDDDB5",
"n.	c #FDAA45",
"o.	c #FD9E29",
"p.	c #FD9A21",
"q.	c #FF9311",
"r.	c #FF971C",
"s.	c #FF9E2C",
"t.	c #FFA53C",
"u.	c #FFBB71",
"v.	c #FDC68C",
"w.	c #D9C3AD",
"x.	c #8B8784",
"y.	c #C7C1BA",
"z.	c #796E65",
"A.	c #433B35",
"B.	c #9F9995",
"C.	c #B7ADA6",
"D.	c #8D7E73",
"E.	c #342D28",
"F.	c #FDF9F4",
"G.	c #FDE9D1",
"H.	c #FDA53D",
"I.	c #FDAB4A",
"J.	c #FDB158",
"K.	c #FDB765",
"L.	c #FDCA91",
"M.	c #F5F1EC",
"N.	c #9D9287",
"O.	c #7A6E65",
"P.	c #332D29",
"Q.	c #070605",
"R.	c #5E534A",
"S.	c #463D37",
"T.	c #0B0A08",
"U.	c #141414",
"V.	c #D3C2AF",
"W.	c #FDEBD5",
"X.	c #FDEDDA",
"Y.	c #FDEEDD",
"Z.	c #FDEFE0",
"`.	c #FDF2E7",
" +	c #FDFAF8",
".+	c #F2F1F1",
"++	c #E0DEDC",
"@+	c #B6AEA5",
"#+	c #26221F",
"$+	c #010101",
"%+	c #26221E",
"&+	c #1A1715",
"*+	c #040303",
"=+	c #DACCBB",
"-+	c #E4E4E4",
";+	c #B8B1AC",
">+	c #5F5751",
",+	c #252525",
"'+	c #BE9C73",
")+	c #F6EEE6",
"!+	c #B5ACA5",
"~+	c #736961",
"{+	c #090908",
"]+	c #938473",
"^+	c #EEECEA",
"/+	c #DCD9D8",
"(+	c #DFDCD9",
"_+	c #B6AEA8",
":+	c #A3968B",
"<+	c #544B43",
"[+	c #D58C34",
"}+	c #FDE9D2",
"|+	c #FDFAF7",
"1+	c #FDF3E7",
"2+	c #CAC1B6",
"3+	c #413B35",
"4+	c #846849",
"5+	c #6D6D6C",
"6+	c #EAE8E6",
"7+	c #D6D0CC",
"8+	c #B7ADA5",
"9+	c #A1968C",
"0+	c #8D847C",
"a+	c #8B7D71",
"b+	c #1E1B18",
"c+	c #D57705",
"d+	c #FD9D28",
"e+	c #FDEAD5",
"f+	c #FDECD7",
"g+	c #FDEEDC",
"h+	c #FDE6CC",
"i+	c #F1CA9D",
"j+	c #EAD1B6",
"k+	c #AA8B6B",
"l+	c #B28657",
"m+	c #C49667",
"n+	c #E5E4E3",
"o+	c #DCD7D3",
"p+	c #A3978C",
"q+	c #98897E",
"r+	c #A09388",
"s+	c #918378",
"t+	c #584E46",
"u+	c #050404",
"v+	c #FDA133",
"w+	c #FDA741",
"x+	c #FDAD4E",
"y+	c #FDB25A",
"z+	c #F7B364",
"A+	c #CFC7BF",
"B+	c #C4BCB6",
"C+	c #5B5047",
"D+	c #BA8E5E",
"E+	c #D3BDA7",
"F+	c #E6E4E2",
"G+	c #B9B0A8",
"H+	c #9D8E83",
"I+	c #9B8D82",
"J+	c #9F9287",
"K+	c #887B70",
"L+	c #2E2924",
"M+	c #FF8E07",
"N+	c #FF9517",
"O+	c #FF9C27",
"P+	c #FFA338",
"Q+	c #FCA847",
"R+	c #946D43",
"S+	c #423932",
"T+	c #0A0908",
"U+	c #52402F",
"V+	c #CFC5BB",
"W+	c #D2CCC8",
"X+	c #9D9188",
"Y+	c #877B72",
"Z+	c #998B81",
"`+	c #6D6157",
" @	c #231F1B",
".@	c #FF8C02",
"+@	c #FF9312",
"@@	c #FF9A23",
"#@	c #FFA133",
"$@	c #FFA843",
"%@	c #FAAB52",
"&@	c #AB7A43",
"*@	c #392A19",
"=@	c #896743",
"-@	c #CEC3BB",
";@	c #C9C0BB",
">@	c #AB9F96",
",@	c #95887E",
"'@	c #060504",
")@	c #9D5600",
"!@	c #FEB35E",
"~@	c #F6B46C",
"{@	c #F4B776",
"]@	c #BBADA0",
"^@	c #CCC5BE",
"/@	c #A3958B",
"(@	c #8C7E73",
"_@	c #171411",
":@	c #1D1000",
"<@	c #914F00",
"[@	c #1E1E1E",
"}@	c #CFCDCA",
"|@	c #DCD8D5",
"1@	c #D2CCC9",
"2@	c #8A7D73",
"3@	c #FA8900",
"4@	c #E98100",
"5@	c #F7B876",
"6@	c #AC9A87",
"7@	c #C4BBB4",
"8@	c #A6998E",
"9@	c #786A5F",
"0@	c #070604",
"a@	c #844800",
"b@	c #EE8100",
"c@	c #A35A01",
"d@	c #B6B1AD",
"e@	c #D5CFCA",
"f@	c #D0C9C4",
"g@	c #BAB1A9",
"h@	c #6D6259",
"i@	c #120F0E",
"j@	c #A45A00",
"k@	c #F08300",
"l@	c #FE8B00",
"m@	c #E37C00",
"n@	c #E88000",
"o@	c #A05C00",
"p@	c #CC7200",
"q@	c #DC7B00",
"r@	c #E37E00",
"s@	c #F98900",
"t@	c #F9A544",
"u@	c #E39D4A",
"v@	c #DC9E55",
"w@	c #CB9759",
"x@	c #876F51",
"y@	c #C1B7B0",
"z@	c #A89C91",
"A@	c #7C6D62",
"B@	c #110F0C",
"C@	c #995400",
"D@	c #C76D00",
"E@	c #35302C",
"F@	c #9A8D83",
"G@	c #A2948A",
"H@	c #998B80",
"I@	c #37312B",
"J@	c #D27500",
"K@	c #885100",
"L@	c #774800",
"M@	c #DC800D",
"N@	c #DC851A",
"O@	c #DC8B28",
"P@	c #CC8731",
"Q@	c #885C1B",
"R@	c #77541D",
"S@	c #88632B",
"T@	c #BC6901",
"U@	c #A19285",
"V@	c #A6988E",
"W@	c #8B7C71",
"X@	c #5E5249",
"Y@	c #5B4226",
"Z@	c #010000",
"`@	c #95918F",
" #	c #C8C0BA",
".#	c #8D7F73",
"+#	c #181413",
"@#	c #D77600",
"##	c #DC7A00",
"$#	c #764800",
"%#	c #764903",
"&#	c #764A05",
"*#	c #774D0B",
"=#	c #885914",
"-#	c #F68700",
";#	c #8D6E4B",
">#	c #93867C",
",#	c #9A8B80",
"'#	c #918276",
")#	c #8E8074",
"!#	c #A59A91",
"~#	c #BDB5AF",
"{#	c #DEDBD9",
"]#	c #EFEDEC",
"^#	c #C1B8B1",
"/#	c #71655A",
"(#	c #D07200",
"_#	c #C46D00",
":#	c #D67700",
"<#	c #DD7B00",
"[#	c #DD7900",
"}#	c #8F5919",
"|#	c #796B61",
"1#	c #96897D",
"2#	c #95867A",
"3#	c #9C8D82",
"4#	c #A4978D",
"5#	c #B1A69D",
"6#	c #C9C1BB",
"7#	c #BCB2AA",
"8#	c #D67500",
"9#	c #322B27",
"0#	c #62564D",
"a#	c #85766B",
"b#	c #9F9186",
"c#	c #A5988E",
"d#	c #9C8E82",
"e#	c #998A80",
"f#	c #9E9085",
"g#	c #574D45",
"h#	c #241F1B",
"i#	c #443C35",
"j#	c #62574D",
"k#	c #817267",
"l#	c #84766B",
"m#	c #8B7C70",
"n#	c #080707",
"o#	c #060505",
"p#	c #0A0808",
"q#	c #0F0E0C",
"r#	c #12100E",
"s#	c #0C0A09",
"t#	c #030202",
"                                                                                                ",
"                                                                                                ",
"                                                                                                ",
"                                                                                                ",
"                                    . . . .                                                     ",
"                                  . + @ # $ .                                                   ",
"                                . . % @ & . .                                                   ",
"                                . * . . . = .                                                   ",
"                                . - ; > , ' ) .                                                 ",
"                                . ! ~ { ] ^ / .                                                 ",
"                                . ( _ : < ^ [ .                                                 ",
"                              . } | 1 2 3 4 5 ) .                                               ",
"                              6 7 8 1 9 0 a b c d                                               ",
"                              e f g h i j k l m n                                               ",
"                              o p q r s r t u v w x                                             ",
"                            x y z A B B B B B B C D                                             ",
"                            D E F A A A A A A B G H                                             ",
"                            e I J q B B B B B K L M D                                           ",
"                            N O P Q R S s r T U l V 6                                           ",
"                          . W X Y Z `  ...+.@.#.$.[ .                                           ",
"                          . %.&.&.*.=.-.;.>.,.'.^ 5 ) .                                         ",
"                          . %.&.&.).!.~.{.].^./.^ ^ / .             (.                          ",
"                          . _.&.&.:.<.[.}.|.1.2.3.^ [ .           4.5.6.                        ",
"                        N 7.8.9.&.&.0.a.b.c.~ { ] ^ d.e.f.g.h.  i.j.k.l..                       ",
"                        e I m.n.o.p.q.r.s.t._ : u.v.l w.x.y.z.A.B.C.D.E..                       ",
"                        D E F.J G.m.P H.I.J.K.h L.U u M.N.O.P.Q.  R.S.T..                       ",
"                        U.V.B B B q J W.R X.Y.Z.`. +.+++@+#+$+.   %+&+*+.                       ",
"                        H =+B A A A B B B B B B B A -+;+>+,+                                    ",
"                      D '+)+B B B A A A A A A A A B !+~+{+]+D   ^+/+(+_+:+<+                    ",
"                      6 [+m.G.}+J q B B B B B B |+1+2+3+$+4+5+6+7+8+9+0+a+b+                    ",
"                      . c+p.d+o.n.m.G.}+e+f+X.g+h+i+j+k+l+m+n+o+p+q+r+s+t+u+.                   ",
"                      . _.&.&.&.9.p.d+o.v+w+x+y+z+A+B+C+D+E+F+G+H+I+J+K+L+.                     ",
"                    . W X &.&.&.&.&.&.&.M+N+O+P+Q+R+S+T+U+V+W+X+Y+Z+`+ @. .                     ",
"                  . . %.&.&.&.&.&.&.&.&..@+@@@#@$@%@&@*@=@-@;@>@,@<+'@. .                       ",
"              . . )@. %.&.&.&.&.&.&.&.&.&.*.=.-.;.>.!@~@{@]@^@/@(@_@:@<@. [@}@|@1@2@            ",
"              W _.%.. _.3@4@3@&.&.&.&.&.&.).!.~.{.].^./.5@6@7@8@9@0@a@b@c@d@e@f@g@h@i@          ",
"          . j@k@l@X m@X n@o@p@q@r@s@&.&.&.:.<.[.}.t@u@v@w@x@y@z@A@B@C@D@. E@F@G@H@I@.           ",
"          . . W %.%._.X s@J@K@L@K@p@q@q@q@q@M@N@O@P@Q@R@S@T@U@V@W@X@Y@Z@    `@ #.#+#.           ",
"              . . . . W %.@###q@p@K@L@$#$#$#%#&#*#=#p@q@r@-#;#>#,#'#)#!#~#{#]#^#/#'@.           ",
"                    . . . . W %.(#_#:#q@q@q@q@q@<#r@s@X [#%.}#|#1#2#3#4#5#6#7#,@%+.             ",
"                . . . . . . . . . . W %.8#[#X &.&.X _.W . . . 9#0#a#b#c#d#e#f#g#. .             ",
"                . . . . . . . . . . . . . . W %.%.W . . . . . . h#i#j#k#l#m#g#n#.               ",
"                . . . . . . . . . . . . . . . . . . . . . . . . . o#p#q#r#s#t#.                 ",
"                        . . . . . . . . . . . . . . . . . . . . . .   . . . .                   ",
"                              . . . . . . . . . . . . . . . . .                                 ",
"                                      . . . . . . . . . .                                       ",
"                                              . . . .                                           ",
"                                                                                                "};
