/* XPM */
static char * gvlc_xpm[] = {
"48 48 514 2",
"  	c None",
". 	c #000000",
"+ 	c #B96500",
"@ 	c #D47E18",
"# 	c #CD7F24",
"$ 	c #9D611C",
"% 	c #B86500",
"& 	c #BF7722",
"* 	c #9C682D",
"= 	c #A47A4F",
"- 	c #CE8838",
"; 	c #DC974A",
"> 	c #D69955",
", 	c #DCA366",
"' 	c #F1B474",
") 	c #C08F5C",
"! 	c #D58B36",
"~ 	c #FFAE51",
"{ 	c #FFB562",
"] 	c #FFBC72",
"^ 	c #FFBF7B",
"/ 	c #D59F66",
"( 	c #DC8E33",
"_ 	c #FFAC4D",
": 	c #FFB35D",
"< 	c #FFBA6D",
"[ 	c #DCA46A",
"} 	c #C0751D",
"| 	c #F89E36",
"1 	c #FFAA48",
"2 	c #FFB158",
"3 	c #FFB869",
"4 	c #FFBF79",
"5 	c #F8B977",
"6 	c #030303",
"7 	c #D38A35",
"8 	c #FDAC4D",
"9 	c #FFAF54",
"0 	c #FFB664",
"a 	c #FFBD74",
"b 	c #FDBF7D",
"c 	c #D3A371",
"d 	c #020202",
"e 	c #111111",
"f 	c #D3B898",
"g 	c #FDE2C2",
"h 	c #FDBD73",
"i 	c #FDB96B",
"j 	c #FDBF78",
"k 	c #FDC587",
"l 	c #FDCF9E",
"m 	c #DAC4AE",
"n 	c #272727",
"o 	c #2A2A2A",
"p 	c #DACDBC",
"q 	c #FDF9F5",
"r 	c #FDF0E1",
"s 	c #FDEFDE",
"t 	c #FDF1E4",
"u 	c #FDF4EA",
"v 	c #F6F2ED",
"w 	c #BEB0A2",
"x 	c #171717",
"y 	c #BEA689",
"z 	c #F6F2EE",
"A 	c #FEFEFE",
"B 	c #FDFCFC",
"C 	c #D3CAC0",
"D 	c #131313",
"E 	c #D3C2AE",
"F 	c #FDFCFB",
"G 	c #DAD2C9",
"H 	c #2B2B2B",
"I 	c #D3B591",
"J 	c #FDEDD9",
"K 	c #FDFBF8",
"L 	c #F6EBDF",
"M 	c #BEAA95",
"N 	c #050505",
"O 	c #DA851D",
"P 	c #FDAC4A",
"Q 	c #FDDFBC",
"R 	c #FDECD8",
"S 	c #FDEDDB",
"T 	c #FDF1E3",
"U 	c #FDEBD7",
"V 	c #D5A675",
"W 	c #C06900",
"X 	c #F88800",
"Y 	c #FF8F08",
"Z 	c #FDA031",
"` 	c #FDA946",
" .	c #FDAF54",
"..	c #FDB561",
"+.	c #FDBB6F",
"@.	c #FDC07C",
"#.	c #FDC485",
"$.	c #FFC07E",
"%.	c #D57400",
"&.	c #FF8C00",
"*.	c #FF910E",
"=.	c #FF981E",
"-.	c #FF9F2E",
";.	c #FFA63F",
">.	c #FFAD4F",
",.	c #FFB45F",
"'.	c #FFBB70",
").	c #101439",
"!.	c #11245A",
"~.	c #FF8F09",
"{.	c #FF9619",
"].	c #FF9D2A",
"^.	c #FFA43A",
"/.	c #FFAB4A",
"(.	c #FFB25B",
"_.	c #FFB96B",
":.	c #0C1A1D",
"<.	c #080F1A",
"[.	c #030911",
"}.	c #121944",
"|.	c #4071E5",
"1.	c #1E3B62",
"2.	c #030208",
"3.	c #DC7800",
"4.	c #FF8D04",
"5.	c #FF9415",
"6.	c #FF9B25",
"7.	c #FFA235",
"8.	c #FFA946",
"9.	c #FFB056",
"0.	c #FFB766",
"a.	c #FFBE77",
"b.	c #010408",
"c.	c #080C20",
"d.	c #24408D",
"e.	c #4171E1",
"f.	c #3A71DF",
"g.	c #3E71DE",
"h.	c #3976DE",
"i.	c #070108",
"j.	c #BE7318",
"k.	c #F69520",
"l.	c #FF8F07",
"m.	c #FF9210",
"n.	c #FF9920",
"o.	c #FFA031",
"p.	c #FFA741",
"q.	c #F6B979",
"r.	c #BE9366",
"s.	c #040404",
"t.	c #040608",
"u.	c #08051D",
"v.	c #0C223E",
"w.	c #080720",
"x.	c #050408",
"y.	c #070407",
"z.	c #070007",
"A.	c #030308",
"B.	c #315FB0",
"C.	c #3972DE",
"D.	c #193067",
"E.	c #050108",
"F.	c #FDDDB5",
"G.	c #FDAA45",
"H.	c #FD9E29",
"I.	c #FD9A21",
"J.	c #FF9311",
"K.	c #FF971C",
"L.	c #FF9E2C",
"M.	c #FFA53C",
"N.	c #FFBB71",
"O.	c #FDC68C",
"P.	c #000408",
"Q.	c #060408",
"R.	c #2E5CB9",
"S.	c #070B07",
"T.	c #010308",
"U.	c #15164D",
"V.	c #3C72DE",
"W.	c #4075DE",
"X.	c #0D0930",
"Y.	c #000405",
"Z.	c #0F123A",
"`.	c #4175E6",
" +	c #3975DE",
".+	c #040808",
"++	c #290C4A",
"@+	c #FDF9F4",
"#+	c #FDE9D1",
"$+	c #FDA53D",
"%+	c #FDAB4A",
"&+	c #FDB158",
"*+	c #FDB765",
"=+	c #FDCA91",
"-+	c #02040F",
";+	c #3165C6",
">+	c #3971DE",
",+	c #3D73E2",
"'+	c #1E4B85",
")+	c #08010A",
"!+	c #0D114D",
"~+	c #3E73E3",
"{+	c #3C72E1",
"]+	c #3A75DF",
"^+	c #3C76E1",
"/+	c #080A1D",
"(+	c #080729",
"_+	c #3D73DE",
":+	c #346BC7",
"<+	c #080408",
"[+	c #141414",
"}+	c #D3C2AF",
"|+	c #FDEBD5",
"1+	c #FDEDDA",
"2+	c #FDEEDD",
"3+	c #FDEFE0",
"4+	c #FDF2E7",
"5+	c #0C1010",
"6+	c #A43936",
"7+	c #40456E",
"8+	c #3D71DE",
"9+	c #3C71E1",
"0+	c #1C2684",
"a+	c #3E74E3",
"b+	c #001208",
"c+	c #07041F",
"d+	c #366ED8",
"e+	c #3E75E3",
"f+	c #4075E5",
"g+	c #4175E5",
"h+	c #3C76DE",
"i+	c #3766D2",
"j+	c #383C49",
"k+	c #7B2F7E",
"l+	c #DACCBB",
"m+	c #1C1620",
"n+	c #F65E5C",
"o+	c #AE3E37",
"p+	c #13040E",
"q+	c #3D71E2",
"r+	c #3C6ACD",
"s+	c #080D2A",
"t+	c #2C4BA4",
"u+	c #3E74DE",
"v+	c #2F61BD",
"w+	c #030403",
"x+	c #3A71DE",
"y+	c #112022",
"z+	c #33C139",
"A+	c #41E641",
"B+	c #BE9C73",
"C+	c #F6EEE6",
"D+	c #140C14",
"E+	c #F65D5C",
"F+	c #F66368",
"G+	c #EA5555",
"H+	c #1C0610",
"I+	c #3E66C1",
"J+	c #04110C",
"K+	c #030408",
"L+	c #070008",
"M+	c #366FD5",
"N+	c #4072DE",
"O+	c #0C201C",
"P+	c #294529",
"Q+	c #39E639",
"R+	c #39E739",
"S+	c #39EA39",
"T+	c #D58C34",
"U+	c #FDE9D2",
"V+	c #FDFAF7",
"W+	c #08080C",
"X+	c #F1605C",
"Y+	c #EF615B",
"Z+	c #F65A55",
"`+	c #E14F4A",
" @	c #BB3739",
".@	c #120A0E",
"+@	c #3974DE",
"@@	c #3C73E1",
"#@	c #3C71DE",
"$@	c #346BC3",
"%@	c #1F232C",
"&@	c #1B1417",
"*@	c #3AE63A",
"=@	c #3DE83D",
"-@	c #39E939",
";@	c #39DE39",
">@	c #D57705",
",@	c #FD9D28",
"'@	c #FDEAD5",
")@	c #FDECD7",
"!@	c #FDEEDC",
"~@	c #FDE6CC",
"{@	c #080808",
"]@	c #F65B57",
"^@	c #F65850",
"/@	c #5A1224",
"(@	c #F25650",
"_@	c #DD4547",
":@	c #E0414A",
"<@	c #300E15",
"[@	c #3457C5",
"}@	c #3E72E3",
"|@	c #336EC5",
"1@	c #273DA2",
"2@	c #050105",
"3@	c #39E439",
"4@	c #3CE63C",
"5@	c #0C4214",
"6@	c #3BE03B",
"7@	c #092A19",
"8@	c #FDA133",
"9@	c #FDA741",
"0@	c #FDAD4E",
"a@	c #FDB25A",
"b@	c #FDB664",
"c@	c #F15A4F",
"d@	c #F5574E",
"e@	c #08040B",
"f@	c #040408",
"g@	c #A53836",
"h@	c #E54746",
"i@	c #49131C",
"j@	c #A73A36",
"k@	c #08120F",
"l@	c #349535",
"m@	c #3EE63E",
"n@	c #39DF39",
"o@	c #051108",
"p@	c #2B8A30",
"q@	c #3FE73F",
"r@	c #010608",
"s@	c #FF8E07",
"t@	c #FF9517",
"u@	c #FF9C27",
"v@	c #FFA338",
"w@	c #000808",
"x@	c #F15151",
"y@	c #F35A55",
"z@	c #050405",
"A@	c #080008",
"B@	c #8E352E",
"C@	c #1F0C0E",
"D@	c #24191D",
"E@	c #39E539",
"F@	c #40E640",
"G@	c #27A12A",
"H@	c #070208",
"I@	c #39E839",
"J@	c #3BE93B",
"K@	c #FF8C02",
"L@	c #FF9312",
"M@	c #FF9A23",
"N@	c #FFA133",
"O@	c #FFA843",
"P@	c #080208",
"Q@	c #A32A3A",
"R@	c #F75B56",
"S@	c #F75A55",
"T@	c #331417",
"U@	c #000401",
"V@	c #EF4E42",
"W@	c #202828",
"X@	c #3AEA3A",
"Y@	c #030703",
"Z@	c #102F18",
"`@	c #083408",
" #	c #010401",
".#	c #9D5600",
"+#	c #080404",
"@#	c #AF2B38",
"##	c #EF5A4D",
"$#	c #25120F",
"%#	c #16040F",
"&#	c #070408",
"*#	c #F25042",
"=#	c #121A12",
"-#	c #3AE93A",
";#	c #39E239",
">#	c #030808",
",#	c #082F0D",
"'#	c #258C26",
")#	c #3DE63D",
"!#	c #3EE23F",
"~#	c #100408",
"{#	c #FA8900",
"]#	c #E98100",
"^#	c #F7584E",
"/#	c #F4584E",
"(#	c #120B0B",
"_#	c #050308",
":#	c #F25246",
"<#	c #E54845",
"[#	c #F35144",
"}#	c #051305",
"|#	c #32CA32",
"1#	c #3AE23A",
"2#	c #030708",
"3#	c #000407",
"4#	c #2FB431",
"5#	c #47135E",
"6#	c #A45A00",
"7#	c #F08300",
"8#	c #FE8B00",
"9#	c #E37C00",
"0#	c #E88000",
"a#	c #A05C00",
"b#	c #CC7200",
"c#	c #DC7B00",
"d#	c #E37E00",
"e#	c #F98900",
"f#	c #10040C",
"g#	c #C6383F",
"h#	c #F25652",
"i#	c #EC574D",
"j#	c #10080C",
"k#	c #080108",
"l#	c #F65243",
"m#	c #F35246",
"n#	c #F35342",
"o#	c #051308",
"p#	c #18521C",
"q#	c #25A126",
"r#	c #011208",
"s#	c #135424",
"t#	c #155815",
"u#	c #D27500",
"v#	c #885100",
"w#	c #774800",
"x#	c #DC800D",
"y#	c #DC851A",
"z#	c #DC8B28",
"A#	c #290814",
"B#	c #DB4048",
"C#	c #E15045",
"D#	c #EA4E46",
"E#	c #0B060C",
"F#	c #08050B",
"G#	c #F65446",
"H#	c #F65346",
"I#	c #EE5244",
"J#	c #030E08",
"K#	c #2BAA2B",
"L#	c #39E339",
"M#	c #080F08",
"N#	c #3DDB3D",
"O#	c #249C24",
"P#	c #3B4B43",
"Q#	c #D77600",
"R#	c #DC7A00",
"S#	c #764800",
"T#	c #764903",
"U#	c #764A05",
"V#	c #774D0B",
"W#	c #424331",
"X#	c #5B1721",
"Y#	c #EC5442",
"Z#	c #EE5342",
"`#	c #F65242",
" $	c #10050B",
".$	c #F35042",
"+$	c #EA5142",
"@$	c #D84545",
"#$	c #081208",
"$$	c #081C18",
"%$	c #D07200",
"&$	c #C46D00",
"*$	c #D67700",
"=$	c #DD7B00",
"-$	c #2D232E",
";$	c #F15245",
">$	c #EC5142",
",$	c #D64742",
"'$	c #D64246",
")$	c #DA4344",
"!$	c #40E540",
"~$	c #15781C",
"{$	c #05180D",
"]$	c #3CD83C",
"^$	c #201A24",
"/$	c #020406",
"($	c #D67500",
"_$	c #DD7900",
":$	c #BA6702",
"<$	c #12090B",
"[$	c #D94045",
"}$	c #DA4343",
"|$	c #DB4343",
"1$	c #DC4442",
"2$	c #D54445",
"3$	c #000403",
"4$	c #3EE33E",
"5$	c #3CE33C",
"6$	c #010F08",
"7$	c #08100C",
"8$	c #6D1D26",
"9$	c #D64544",
"0$	c #39E53A",
"a$	c #33D336",
"b$	c #292731",
"c$	c #170312",
"d$	c #DC4443",
"e$	c #DC4643",
"f$	c #060C0B",
"g$	c #1C0A0E",
"h$	c #080B0F",
"i$	c #C5413F",
"j$	c #000708",
"k$	c #0F4316",
"l$	c #0A0E12",
"m$	c #251140",
"n$	c #180F3E",
"o$	c #573666",
"                                                                                                ",
"                                                                                                ",
"                                                                                                ",
"                                                                                                ",
"                                    . . . .                                                     ",
"                                  . + @ # $ .                                                   ",
"                                . . % @ & . .                                                   ",
"                                . * . . . = .                                                   ",
"                                . - ; > , ' ) .                                                 ",
"                                . ! ~ { ] ^ / .                                                 ",
"                                . ( _ : < ^ [ .                                                 ",
"                              . } | 1 2 3 4 5 ) .                                               ",
"                              6 7 8 1 9 0 a b c d                                               ",
"                              e f g h i j k l m n                                               ",
"                              o p q r s r t u v w x                                             ",
"                            x y z A B B B B B B C D                                             ",
"                            D E F A A A A A A B G H                                             ",
"                            e I J q B B B B B K L M D                                           ",
"                            N O P Q R S s r T U l V 6                                           ",
"                          . W X Y Z `  ...+.@.#.$.[ .                                           ",
"                          . %.&.&.*.=.-.;.>.,.'.^ 5 ) .             ).  !.                      ",
"                          . %.&.&.~.{.].^./.(._.^ ^ / .         :.<.[.}.|.1.2.                  ",
"                          . 3.&.&.4.5.6.7.8.9.0.a.^ [ .       b.c.d.e.|.f.g.h.i.                ",
"                        N j.k.l.&.&.m.n.o.p.~ { ] ^ q.r.s.t.u.|.v.w.x.y.z.A.B.C.D.E.            ",
"                        e I F.G.H.I.J.K.L.M._ : N.O.l P.Q.R.C.S.T.U.V.W.|.X.Y.Z.`. +.+++        ",
"                        D E @+J #+F.P $+%+&+*+h =+U -+;+>+,+'+)+!+~+{+f.]+^+/+(+|.^+_+:+<+      ",
"                        [+}+B B B q J |+R 1+2+3+4+5+6+7+C.8+9+z.0+h.a+b+c+d+e+f+g+h+_+i+j+k+    ",
"                        H l+B A A A B B B B B B B m+n+o+p+q+^+r+s+t+u+v+b.w+9+C.x+{+y+z+A+      ",
"                      D B+C+B B B A A A A A A A A D+E+F+G+H+I+f.J+K+E.L+y.M+u+N+O+P+Q+R+S+      ",
"                      6 T+F.#+U+J q B B B B B B V+W+X+Y+Z+`+ @.@+@@@#@]+`.$@%@&@*@R+=@-@;@      ",
"                      . >@I.,@H.G.F.#+U+'@)@1+!@~@{@]@^@/@(@_@:@<@[@}@|@1@2@3@Q+Q+4@5@6@7@      ",
"                      . 3.&.&.&.l.I.,@H.8@9@0@a@b@W+c@d@e@f@g@h@i@j@<+k@l@R+m@n@S+o@p@q@r@      ",
"                    . W X &.&.&.&.&.&.&.s@t@u@v@1 w@x@y@K+P.z@A@B@C@D@E@F@P.G@Q+H@E.I@J@<+      ",
"                  . . %.&.&.&.&.&.&.&.&.K@L@M@N@O@P@Q@R@S@T@2@U@i.V@W@X@Q+Y@Z@`@ #R+=@-@P.      ",
"              . . .#. %.&.&.&.&.&.&.&.&.&.*.=.-.;.+#@###S@$#2@%#&#*#=#-#;#>#,# #'#R+)#!#~#      ",
"              W 3.%.. 3.{#]#{#&.&.&.&.&.&.~.{.].^.~#Q@^#/#(#_#:#<#[#}#|#1#Y@2#3#b.Q+3@4#5#      ",
"          . 6#7#8#X 9#X 0#a#b#c#d#e#&.&.&.4.5.6.7.f#g#h#i#j#k#l#m#n#o#*@Q+w+p#q#r#2#s#t#        ",
"          . . W %.%.3.X e#u#v#w#v#b#c#c#c#c#x#y#z#A#B#C#D#E#F#G#H#I#J#*@K#6 L#n@Q+M#N#O#P#      ",
"              . . . . W %.Q#R#c#b#v#w#S#S#S#T#U#V#W#X#Y#Z#`# $.$+$@$E.Q+K#E.4@R+*@-@I@#$$$      ",
"                    . . . . W %.%$&$*$c#c#c#c#c#=$d#-$<+;$*#>$,$'$)$E.!$~${$4@*@S+]$^$/$        ",
"                . . . . . . . . . . W %.($_$X &.&.X 3.:$<$[$}$|$1$2$3$F@X@4$5$Q+6$E.            ",
"                . . . . . . . . . . . . . . W %.%.W . . . 7$8$|$1$9$Y.Q+0$Q+a$T.                ",
"                . . . . . . . . . . . . . . . . . . . . . . b$c$d$e$k#!$Q+f$g$                  ",
"                        . . . . . . . . . . . . . . . . . . . . h$i$j$k$<+                      ",
"                              . . . . . . . . . . . . . . . . .   l$m$n$                        ",
"                                      . . . . . . . . . .           o$                          ",
"                                              . . . .                                           ",
"                                                                                                "};
