/* XPM */
static char * gvlc_xpm[] = {
"32 32 352 2",
"  	c None",
". 	c #8A4E06",
"+ 	c #915917",
"@ 	c #583710",
"# 	c #271A0B",
"$ 	c #894D06",
"% 	c #8C5616",
"& 	c #281E13",
"* 	c #875A26",
"= 	c #966935",
"- 	c #966E42",
"; 	c #C2915D",
"> 	c #3B2C1C",
", 	c #956025",
"' 	c #FFB055",
") 	c #FFB96B",
"! 	c #F4B776",
"~ 	c #4A3824",
"{ 	c #3B2409",
"] 	c #CF832B",
"^ 	c #FFAD4F",
"/ 	c #FFB665",
"( 	c #FBBC78",
"_ 	c #AC8052",
": 	c #4D3921",
"< 	c #E6A860",
"[ 	c #FBAE55",
"} 	c #FEB665",
"| 	c #FFC27F",
"1 	c #EABB8A",
"2 	c #161616",
"3 	c #5D5750",
"4 	c #D2C5B5",
"5 	c #E6C8A4",
"6 	c #F3D5B2",
"7 	c #FFE6CB",
"8 	c #F6E7D9",
"9 	c #7E756E",
"0 	c #1C1C1C",
"a 	c #C1B19D",
"b 	c #D5D4D3",
"c 	c #DADADA",
"d 	c #ECECEC",
"e 	c #FFFEFE",
"f 	c #A39C96",
"g 	c #191919",
"h 	c #CAB59B",
"i 	c #D8D3CC",
"j 	c #FFFDFC",
"k 	c #D6C9BD",
"l 	c #534D46",
"m 	c #3F2404",
"n 	c #EC8D1B",
"o 	c #EDAD60",
"p 	c #E8C294",
"q 	c #F3D1A8",
"r 	c #FFE0BE",
"s 	c #FFE0BF",
"t 	c #F4C08A",
"u 	c #4D3B29",
"v 	c #904F00",
"w 	c #FD8B01",
"x 	c #FD9211",
"y 	c #FD9E2F",
"z 	c #FEA844",
"A 	c #FFB45F",
"B 	c #FFBD73",
"C 	c #FBBC79",
"D 	c #955100",
"E 	c #FF8C00",
"F 	c #FF8E05",
"G 	c #FF981D",
"H 	c #FFA133",
"I 	c #FFAD4E",
"J 	c #FFB664",
"K 	c #FFBF7A",
"L 	c #EAAF70",
"M 	c #000000",
"N 	c #09131B",
"O 	c #132348",
"P 	c #1E336E",
"Q 	c #3765C6",
"R 	c #1C3563",
"S 	c #3D260B",
"T 	c #CB7712",
"U 	c #FE8D02",
"V 	c #FF8C01",
"W 	c #FF9517",
"X 	c #FF9E2D",
"Y 	c #FFAA48",
"Z 	c #FFB35E",
"` 	c #FFBD76",
" .	c #F6B978",
"..	c #685239",
"+.	c #050708",
"@.	c #172453",
"#.	c #152B56",
"$.	c #141F48",
"%.	c #1A2851",
"&.	c #18264F",
"*.	c #2A529A",
"=.	c #24458B",
"-.	c #0C1128",
";.	c #51493E",
">.	c #D4BD9F",
",.	c #ECAC5F",
"'.	c #F0A64B",
").	c #FB9822",
"!.	c #FEA030",
"~.	c #FFAC4B",
"{.	c #FFB460",
"].	c #FFC78A",
"^.	c #C7A481",
"/.	c #13264A",
"(.	c #2A509F",
"_.	c #224683",
":.	c #060817",
"<.	c #2B499F",
"[.	c #3D73DF",
"}.	c #335BBB",
"|.	c #0B132C",
"1.	c #1E306F",
"2.	c #3C75E1",
"3.	c #1E2C5B",
"4.	c #1E1C49",
"5.	c #514C45",
"6.	c #CEC8BF",
"7.	c #D8D1CA",
"8.	c #DACEC1",
"9.	c #E6C091",
"0.	c #F3CC9D",
"a.	c #FFDCB2",
"b.	c #FFDFBB",
"c.	c #C9B7A4",
"d.	c #683837",
"e.	c #3A5BA7",
"f.	c #3C72DF",
"g.	c #244384",
"h.	c #12154E",
"i.	c #3C74E1",
"j.	c #214881",
"k.	c #234188",
"l.	c #305CB4",
"m.	c #345CBB",
"n.	c #3E75E1",
"o.	c #3B6FD9",
"p.	c #2D3E67",
"q.	c #827668",
"r.	c #D1CDC8",
"s.	c #D6D6D6",
"t.	c #B2B0B3",
"u.	c #AC4547",
"v.	c #A23C3C",
"w.	c #403E75",
"x.	c #3C6FD6",
"y.	c #182E5C",
"z.	c #233C7D",
"A.	c #254588",
"B.	c #09101D",
"C.	c #2F59AE",
"D.	c #3669C8",
"E.	c #325FA2",
"F.	c #26862F",
"G.	c #3BDF3D",
"H.	c #0B0B0B",
"I.	c #D09F63",
"J.	c #DBCAB6",
"K.	c #DACDBE",
"L.	c #D8D2CC",
"M.	c #AEACAC",
"N.	c #A64343",
"O.	c #F25F5C",
"P.	c #BB4241",
"Q.	c #6C3E61",
"R.	c #254681",
"S.	c #294D98",
"T.	c #294D97",
"U.	c #3059AB",
"V.	c #2D4D88",
"W.	c #28594C",
"X.	c #31AD32",
"Y.	c #3BE83B",
"Z.	c #39E439",
"`.	c #E78308",
" +	c #FB9416",
".+	c #F9961E",
"++	c #EDAA58",
"@+	c #E8BB84",
"#+	c #F3C793",
"$+	c #FFD7A9",
"%+	c #FFDAB1",
"&+	c #AD9275",
"*+	c #A63F3B",
"=+	c #B93F3E",
"-+	c #822C2F",
";+	c #D34244",
">+	c #712128",
",+	c #4B4D97",
"'+	c #274F8E",
")+	c #24565B",
"!+	c #2FB22F",
"~+	c #39E539",
"{+	c #2FB72F",
"]+	c #238728",
"^+	c #185F21",
"/+	c #663800",
"(+	c #F68700",
"_+	c #FD8E07",
":+	c #FD900C",
"<+	c #FE9312",
"[+	c #FF9E2A",
"}+	c #FFA63F",
"|+	c #AB773A",
"1+	c #A23B39",
"2+	c #A43D3A",
"3+	c #020408",
"4+	c #421618",
"5+	c #6B2424",
"6+	c #3C181A",
"7+	c #247024",
"8+	c #2EA230",
"9+	c #259529",
"0+	c #2EB22E",
"a+	c #0B1F0D",
"b+	c #37D338",
"c+	c #185119",
"d+	c #271600",
"e+	c #935100",
"f+	c #FF9516",
"g+	c #FF9E2C",
"h+	c #AD702E",
"i+	c #721D28",
"j+	c #F55A54",
"k+	c #712B2A",
"l+	c #060205",
"m+	c #070307",
"n+	c #AA4137",
"o+	c #30A832",
"p+	c #279B28",
"q+	c #0A220F",
"r+	c #082808",
"s+	c #2AAA2A",
"t+	c #3CE73C",
"u+	c #175019",
"v+	c #3B2000",
"w+	c #925000",
"x+	c #8A4B00",
"y+	c #965200",
"z+	c #FD8B00",
"A+	c #FF9210",
"B+	c #FF9B26",
"C+	c #AE6F2A",
"D+	c #741E28",
"E+	c #F5594F",
"F+	c #622623",
"G+	c #3C1416",
"H+	c #A03432",
"I+	c #A53D30",
"J+	c #269526",
"K+	c #279928",
"L+	c #041008",
"M+	c #051309",
"N+	c #2AAA2C",
"O+	c #38DA39",
"P+	c #344A3D",
"Q+	c #9E5600",
"R+	c #EF8300",
"S+	c #ED8100",
"T+	c #F38500",
"U+	c #D97900",
"V+	c #CA7200",
"W+	c #D47600",
"X+	c #F28500",
"Y+	c #FF8F08",
"Z+	c #FF981E",
"`+	c #B26D27",
" @	c #912931",
".@	c #EF574E",
"+@	c #592222",
"@@	c #571D1D",
"#@	c #F55245",
"$@	c #A33D2F",
"%@	c #289F29",
"&@	c #248D24",
"*@	c #18581A",
"=@	c #249726",
"-@	c #0A240D",
";@	c #1F7B26",
">@	c #27602A",
",@	c #291600",
"'@	c #482700",
")@	c #4A2900",
"!@	c #AC5E00",
"~@	c #E27C00",
"{@	c #CA7100",
"]@	c #B96900",
"^@	c #B26500",
"/@	c #A45F00",
"(@	c #A46002",
"_@	c #A4630C",
":@	c #81561D",
"<@	c #6C282C",
"[@	c #EA5243",
"}@	c #BF4136",
"|@	c #5A1E1E",
"1@	c #F15243",
"2@	c #973330",
"3@	c #289B29",
"4@	c #1E721F",
"5@	c #299929",
"6@	c #2EB82E",
"7@	c #2DAD2D",
"8@	c #16321F",
"9@	c #5B3200",
"0@	c #8A4C00",
"a@	c #D77700",
"b@	c #DD7A00",
"c@	c #E17D00",
"d@	c #E78000",
"e@	c #E98100",
"f@	c #955614",
"g@	c #672E15",
"h@	c #D4453D",
"i@	c #E54C43",
"j@	c #DF4646",
"k@	c #972F31",
"l@	c #2C9A2D",
"m@	c #1E8823",
"n@	c #30B732",
"o@	c #33CF34",
"p@	c #29962A",
"q@	c #16131A",
"r@	c #462600",
"s@	c #4A2800",
"t@	c #7C4400",
"u@	c #E47D00",
"v@	c #2E1902",
"w@	c #361716",
"x@	c #AF3437",
"y@	c #E54745",
"z@	c #963131",
"A@	c #3AE63A",
"B@	c #38DD39",
"C@	c #114616",
"D@	c #17121A",
"E@	c #6E2326",
"F@	c #963130",
"G@	c #227624",
"H@	c #207721",
"I@	c #150B0D",
"J@	c #3A1A26",
"K@	c #161A30",
"                                                                ",
"                                                                ",
"                                                                ",
"                        . + @                                   ",
"                      # $ % &                                   ",
"                      * = - ; >                                 ",
"                      , ' ) ! ~                                 ",
"                    { ] ^ / ( _                                 ",
"                    : < [ } | 1 2                               ",
"                    3 4 5 6 7 8 9                               ",
"                  0 a b c d e e f                               ",
"                  g h i c d e j k l                             ",
"                  m n o p q r s t u                             ",
"                  v w x y z A B C _                             ",
"                  D E F G H I J K L M     N O P Q R             ",
"                S T U V W X Y Z `  ...+.@.#.$.%.&.*.=.-.        ",
"                ;.>.,.'.).!.~.{.].^./.(._.:.<.[.}.|.1.2.3.4.    ",
"                5.6.7.8.9.0.a.b.c.d.e.f.g.h.i.j.k.l.m.n.o.p.    ",
"                q.r.s.s.c d e e t.u.v.w.x.y.z.A.B.C.D.E.F.G.    ",
"              H.I.J.K.L.c d e e M.N.O.P.Q.R.S.T.U.V.W.X.Y.Z.    ",
"              M `. +.+++@+#+$+%+&+*+=+-+;+>+,+'+)+!+~+{+]+^+    ",
"              /+(+E V _+:+<+[+}+|+1+2+3+4+5+6+7+8+9+0+a+b+c+    ",
"            d+e+E E E E E V f+g+h+i+j+k+l+m+n+o+p+q+r+s+t+u+    ",
"        v+w+x+y+z+z+E E E E A+B+C+D+E+F+G+H+I+J+K+L+M+N+O+P+    ",
"      M Q+R+S+T+U+V+W+X+E E Y+Z+`+ @.@+@@@#@$@%@&@*@=@-@;@>@    ",
"        ,@'@)@!@~@{@]@^@/@/@(@_@:@<@[@}@|@1@2@3@4@5@~+6@7@8@    ",
"          M M M M 9@w+0@a@b@c@d@e@f@g@h@i@j@k@l@m@n@o@p@q@      ",
"            M M M M M M r@s@t@u@u@t@v@w@x@y@z@3@A@B@C@          ",
"                M M M M M M M M M M M M D@E@F@G@H@I@            ",
"                        M M M M M M M M     J@K@                ",
"                                M M                             ",
"                                                                "};
