/* XPM */
static char * gvlc_xpm[] = {
"48 48 527 2",
"  	c None",
". 	c #000000",
"+ 	c #C76D00",
"@ 	c #DD831A",
"# 	c #D78626",
"$ 	c #B16E1F",
"% 	c #C66C00",
"& 	c #CC7F24",
"* 	c #B07633",
"= 	c #B68857",
"- 	c #D88F3B",
"; 	c #E39C4C",
"> 	c #DE9F58",
", 	c #E3A969",
"' 	c #F4B675",
") 	c #CD9962",
"! 	c #DD9038",
"~ 	c #FFAE51",
"{ 	c #FFB562",
"] 	c #FFBC72",
"^ 	c #FFBF7B",
"/ 	c #DDA56A",
"( 	c #E39235",
"_ 	c #FFAC4D",
": 	c #FFB35D",
"< 	c #FFBA6D",
"[ 	c #E3AA6D",
"} 	c #CD7D1F",
"| 	c #F99F36",
"1 	c #FFAA48",
"2 	c #FFB158",
"3 	c #FFB869",
"4 	c #FFBF79",
"5 	c #F9BA78",
"6 	c #040404",
"7 	c #D78C33",
"8 	c #F9A849",
"9 	c #FDA947",
"0 	c #FFAF54",
"a 	c #FFB664",
"b 	c #FFBD74",
"c 	c #FFC07E",
"d 	c #DDAB76",
"e 	c #050505",
"f 	c #181818",
"g 	c #C3A887",
"h 	c #E1C6A6",
"i 	c #F3B369",
"j 	c #FAB667",
"k 	c #FCBE77",
"l 	c #FFC688",
"m 	c #FFD09F",
"n 	c #E3CBB4",
"o 	c #393939",
"p 	c #343434",
"q 	c #C2B5A5",
"r 	c #D7D3CF",
"s 	c #DBCEBF",
"t 	c #E7D9C9",
"u 	c #F3E6D7",
"v 	c #FFF3E6",
"w 	c #FFF5EC",
"x 	c #F9F4F0",
"y 	c #CDBDAE",
"z 	c #232323",
"A 	c #1D1D1D",
"B 	c #B49B7B",
"C 	c #D1CECA",
"D 	c #D6D6D6",
"E 	c #D6D5D5",
"F 	c #E3E2E2",
"G 	c #F1F0F0",
"H 	c #FFFEFE",
"I 	c #DDD2C9",
"J 	c #212121",
"K 	c #1B1B1B",
"L 	c #BFAE99",
"M 	c #D6D5D4",
"N 	c #E3E3E3",
"O 	c #F1F1F1",
"P 	c #FFFFFF",
"Q 	c #E3DAD1",
"R 	c #3E3E3E",
"S 	c #C3A57F",
"T 	c #DBCBB8",
"U 	c #D7D4D0",
"V 	c #FFFCFA",
"W 	c #F9EDE2",
"X 	c #CDB79F",
"Y 	c #1C1C1C",
"Z 	c #070707",
"` 	c #DD851A",
" .	c #F3A240",
"..	c #E1C3A0",
"+.	c #DDCBB7",
"@.	c #E7D8C6",
"#.	c #F3E5D4",
"$.	c #FFF1E2",
"%.	c #FFF2E5",
"&.	c #FFECD9",
"*.	c #DDAC7A",
"=.	c #CD7000",
"-.	c #F98800",
";.	c #FD8E07",
">.	c #F99C2C",
",.	c #F8A340",
"'.	c #FAAC50",
").	c #FCB460",
"!.	c #FFBC70",
"~.	c #FFC27D",
"{.	c #FFC687",
"].	c #DD7900",
"^.	c #FF8C00",
"/.	c #FF910E",
"(.	c #FF981E",
"_.	c #FF9F2E",
":.	c #FFA63F",
"<.	c #FFAD4F",
"[.	c #FFB45F",
"}.	c #FFBB70",
"|.	c #101439",
"1.	c #11245A",
"2.	c #FF8F09",
"3.	c #FF9619",
"4.	c #FF9D2A",
"5.	c #FFA43A",
"6.	c #FFAB4A",
"7.	c #FFB25B",
"8.	c #FFB96B",
"9.	c #0C1A1D",
"0.	c #080F1A",
"a.	c #030911",
"b.	c #121944",
"c.	c #4071E5",
"d.	c #1E3B62",
"e.	c #030208",
"f.	c #E37C00",
"g.	c #FF8D04",
"h.	c #FF9415",
"i.	c #FF9B25",
"j.	c #FFA235",
"k.	c #FFA946",
"l.	c #FFB056",
"m.	c #FFB766",
"n.	c #FFBE77",
"o.	c #010408",
"p.	c #080C20",
"q.	c #24408D",
"r.	c #4171E1",
"s.	c #3A71DF",
"t.	c #3E71DE",
"u.	c #3976DE",
"v.	c #070108",
"w.	c #C87817",
"x.	c #F3921C",
"y.	c #FD8E05",
"z.	c #FF9210",
"A.	c #FF9920",
"B.	c #FFA031",
"C.	c #FFA741",
"D.	c #F9BB7B",
"E.	c #CD9F6E",
"F.	c #080808",
"G.	c #040608",
"H.	c #08051D",
"I.	c #0C223E",
"J.	c #080720",
"K.	c #050408",
"L.	c #070407",
"M.	c #070007",
"N.	c #030308",
"O.	c #315FB0",
"P.	c #3972DE",
"Q.	c #193067",
"R.	c #050108",
"S.	c #E1C199",
"T.	c #F3A03B",
"U.	c #F89824",
"V.	c #F9961D",
"W.	c #FD9110",
"X.	c #FF971C",
"Y.	c #FF9E2C",
"Z.	c #FFA53C",
"`.	c #FFBB71",
" +	c #FFC88D",
".+	c #000408",
"++	c #060408",
"@+	c #2E5CB9",
"#+	c #070B07",
"$+	c #010308",
"%+	c #15164D",
"&+	c #3C72DE",
"*+	c #4075DE",
"=+	c #0D0930",
"-+	c #000405",
";+	c #0F123A",
">+	c #4175E6",
",+	c #3975DE",
"'+	c #040808",
")+	c #290C4A",
"!+	c #D7D3CE",
"~+	c #DBCBB7",
"{+	c #DDC9B1",
"]+	c #FAA239",
"^+	c #FCAA49",
"/+	c #FFB259",
"(+	c #FFB866",
"_+	c #FFBE74",
":+	c #FFCB92",
"<+	c #02040F",
"[+	c #3165C6",
"}+	c #3971DE",
"|+	c #3D73E2",
"1+	c #1E4B85",
"2+	c #08010A",
"3+	c #0D114D",
"4+	c #3E73E3",
"5+	c #3C72E1",
"6+	c #3A75DF",
"7+	c #3C76E1",
"8+	c #080A1D",
"9+	c #080729",
"0+	c #3D73DE",
"a+	c #346BC7",
"b+	c #080408",
"c+	c #BEAE99",
"d+	c #E7D5BF",
"e+	c #F3E2CE",
"f+	c #FFEFDC",
"g+	c #FFF0DF",
"h+	c #FFF4E9",
"i+	c #0C1010",
"j+	c #A43936",
"k+	c #40456E",
"l+	c #3D71DE",
"m+	c #3C71E1",
"n+	c #1C2684",
"o+	c #3E74E3",
"p+	c #001208",
"q+	c #07041F",
"r+	c #366ED8",
"s+	c #3E75E3",
"t+	c #4075E5",
"u+	c #4175E5",
"v+	c #3C76DE",
"w+	c #3766D2",
"x+	c #383C49",
"y+	c #7B2F7E",
"z+	c #C2B4A2",
"A+	c #1C1620",
"B+	c #F65E5C",
"C+	c #AE3E37",
"D+	c #13040E",
"E+	c #3D71E2",
"F+	c #3C6ACD",
"G+	c #080D2A",
"H+	c #2C4BA4",
"I+	c #3E74DE",
"J+	c #2F61BD",
"K+	c #030403",
"L+	c #3A71DE",
"M+	c #112022",
"N+	c #33C139",
"O+	c #41E641",
"P+	c #B89368",
"Q+	c #D2CCC3",
"R+	c #140C14",
"S+	c #F76368",
"T+	c #EA5555",
"U+	c #1C0610",
"V+	c #3F67C3",
"W+	c #04110C",
"X+	c #030408",
"Y+	c #070008",
"Z+	c #366FD5",
"`+	c #4072DE",
" @	c #0C201C",
".@	c #294529",
"+@	c #39E639",
"@@	c #39E739",
"#@	c #39EA39",
"$@	c #D3882D",
"%@	c #DCC9B1",
"&@	c #FFFCF9",
"*@	c #08080C",
"=@	c #F1615D",
"-@	c #EF615B",
";@	c #F65A55",
">@	c #E14F4A",
",@	c #BB3739",
"'@	c #120A0E",
")@	c #3974DE",
"!@	c #3C73E1",
"~@	c #3C71DE",
"{@	c #346BC3",
"]@	c #1F232C",
"^@	c #1B1417",
"/@	c #3AE63A",
"(@	c #3DE83D",
"_@	c #39E939",
":@	c #39DE39",
"<@	c #DB7B04",
"[@	c #F89823",
"}@	c #E7D4BC",
"|@	c #F3E0CB",
"1@	c #FFEDD9",
"2@	c #FFEEDC",
"3@	c #FFEFDE",
"4@	c #FFE8CD",
"5@	c #F75B57",
"6@	c #F65850",
"7@	c #5A1224",
"8@	c #F35750",
"9@	c #DF4548",
"0@	c #E0414A",
"a@	c #300E15",
"b@	c #3457C5",
"c@	c #3E72E3",
"d@	c #336EC5",
"e@	c #273DA2",
"f@	c #050105",
"g@	c #39E439",
"h@	c #3CE63C",
"i@	c #0C4214",
"j@	c #3BE03B",
"k@	c #092A19",
"l@	c #FA9A26",
"m@	c #FCA031",
"n@	c #FFA842",
"o@	c #FFAE4F",
"p@	c #FFB35C",
"q@	c #FFB765",
"r@	c #F15A4F",
"s@	c #F5574E",
"t@	c #08040B",
"u@	c #040408",
"v@	c #A53936",
"w@	c #E84746",
"x@	c #49131C",
"y@	c #A73A36",
"z@	c #08120F",
"A@	c #349535",
"B@	c #3EE63E",
"C@	c #39DF39",
"D@	c #051108",
"E@	c #2B8A30",
"F@	c #3FE73F",
"G@	c #010608",
"H@	c #FF8E07",
"I@	c #FF9517",
"J@	c #FF9C27",
"K@	c #FFA338",
"L@	c #000808",
"M@	c #F15151",
"N@	c #F35A55",
"O@	c #050405",
"P@	c #080008",
"Q@	c #8E352E",
"R@	c #1F0C0E",
"S@	c #24191D",
"T@	c #39E539",
"U@	c #40E640",
"V@	c #27A12A",
"W@	c #070208",
"X@	c #39E839",
"Y@	c #3BE93B",
"Z@	c #FF8C02",
"`@	c #FF9312",
" #	c #FF9A23",
".#	c #FFA133",
"+#	c #FFA843",
"@#	c #080208",
"##	c #A32A3A",
"$#	c #F75B56",
"%#	c #F75A55",
"&#	c #331417",
"*#	c #000401",
"=#	c #F14F42",
"-#	c #202828",
";#	c #3AEA3A",
">#	c #030703",
",#	c #102F18",
"'#	c #083408",
")#	c #010401",
"!#	c #B16100",
"~#	c #080404",
"{#	c #AF2B38",
"]#	c #EF5A4D",
"^#	c #25120F",
"/#	c #16040F",
"(#	c #070408",
"_#	c #F35042",
":#	c #121A12",
"<#	c #3AE93A",
"[#	c #39E239",
"}#	c #030808",
"|#	c #082F0D",
"1#	c #258C26",
"2#	c #3DE63D",
"3#	c #3EE23F",
"4#	c #100408",
"5#	c #FA8900",
"6#	c #F7584E",
"7#	c #F4584E",
"8#	c #120B0B",
"9#	c #050308",
"0#	c #F35246",
"a#	c #E64845",
"b#	c #F35144",
"c#	c #051305",
"d#	c #32CA32",
"e#	c #3AE23A",
"f#	c #030708",
"g#	c #000407",
"h#	c #2FB431",
"i#	c #47135E",
"j#	c #B66300",
"k#	c #F38500",
"l#	c #FE8B00",
"m#	c #E97F00",
"n#	c #E88000",
"o#	c #A05C00",
"p#	c #10040C",
"q#	c #C7383F",
"r#	c #F75A54",
"s#	c #F15B50",
"t#	c #10080C",
"u#	c #080108",
"v#	c #F65243",
"w#	c #F45246",
"x#	c #F35342",
"y#	c #051308",
"z#	c #18521C",
"A#	c #25A126",
"B#	c #011208",
"C#	c #135424",
"D#	c #155815",
"E#	c #F98900",
"F#	c #D27500",
"G#	c #885100",
"H#	c #774800",
"I#	c #290814",
"J#	c #DB4048",
"K#	c #E15045",
"L#	c #EA4E46",
"M#	c #0B060C",
"N#	c #08050B",
"O#	c #F65446",
"P#	c #F65346",
"Q#	c #EF5344",
"R#	c #030E08",
"S#	c #2BAA2B",
"T#	c #030303",
"U#	c #39E339",
"V#	c #080F08",
"W#	c #3DDB3D",
"X#	c #249C24",
"Y#	c #3B4B43",
"Z#	c #DF7A00",
"`#	c #DE7B00",
" $	c #DC7B00",
".$	c #CC7200",
"+$	c #764800",
"@$	c #764903",
"#$	c #764A05",
"$$	c #774D0B",
"%$	c #424331",
"&$	c #5B1721",
"*$	c #EC5442",
"=$	c #EE5342",
"-$	c #F65242",
";$	c #10050B",
">$	c #F45042",
",$	c #EB5242",
"'$	c #DA4645",
")$	c #081208",
"!$	c #081C18",
"~$	c #D97700",
"{$	c #CB7000",
"]$	c #D87800",
"^$	c #DD7B00",
"/$	c #E37E00",
"($	c #2D232E",
"_$	c #F15345",
":$	c #ED5242",
"<$	c #DB4944",
"[$	c #DC4448",
"}$	c #E24546",
"|$	c #40E540",
"1$	c #15781C",
"2$	c #05180D",
"3$	c #3CD83C",
"4$	c #201A24",
"5$	c #020406",
"6$	c #DE7900",
"7$	c #E47D00",
"8$	c #C76E02",
"9$	c #12090B",
"0$	c #DC4146",
"a$	c #DF4444",
"b$	c #E34645",
"c$	c #E54644",
"d$	c #E04748",
"e$	c #000403",
"f$	c #3EE33E",
"g$	c #3CE33C",
"h$	c #010F08",
"i$	c #08100C",
"j$	c #6E1D26",
"k$	c #E54746",
"l$	c #E64745",
"m$	c #E14847",
"n$	c #39E53A",
"o$	c #33D336",
"p$	c #292731",
"q$	c #170312",
"r$	c #E84A46",
"s$	c #060C0B",
"t$	c #1C0A0E",
"u$	c #080B0F",
"v$	c #CA4341",
"w$	c #000708",
"x$	c #0F4316",
"y$	c #0A0E12",
"z$	c #251140",
"A$	c #180F3E",
"B$	c #593769",
"                                                                                                ",
"                                                                                                ",
"                                                                                                ",
"                                                                                                ",
"                                    . . . .                                                     ",
"                                  . + @ # $ .                                                   ",
"                                . . % @ & . .                                                   ",
"                                . * . . . = .                                                   ",
"                                . - ; > , ' ) .                                                 ",
"                                . ! ~ { ] ^ / .                                                 ",
"                                . ( _ : < ^ [ .                                                 ",
"                              . } | 1 2 3 4 5 ) .                                               ",
"                              6 7 8 9 0 a b c d e                                               ",
"                              f g h i j k l m n o                                               ",
"                              p q r s t u v w x y z                                             ",
"                            A B C D E F G H H H I J                                             ",
"                            K L M D D N O P P H Q R                                             ",
"                            f S T U E F G H H V W X Y                                           ",
"                            Z `  ...+.@.#.$.%.&.m *.e                                           ",
"                          . =.-.;.>.,.'.).!.~.{.c [ .                                           ",
"                          . ].^.^./.(._.:.<.[.}.^ 5 ) .             |.  1.                      ",
"                          . ].^.^.2.3.4.5.6.7.8.^ ^ / .         9.0.a.b.c.d.e.                  ",
"                          . f.^.^.g.h.i.j.k.l.m.n.^ [ .       o.p.q.r.c.s.t.u.v.                ",
"                        Z w.x.y.^.^.z.A.B.C.~ { ] ^ D.E.F.G.H.c.I.J.K.L.M.N.O.P.Q.R.            ",
"                        f S S.T.U.V.W.X.Y.Z._ : `. +m .+++@+P.#+$+%+&+*+c.=+-+;+>+,+'+)+        ",
"                        K L !+~+{+S. .]+^+/+(+_+:+&.<+[+}+|+1+2+3+4+5+s.6+7+8+9+c.7+0+a+b+      ",
"                        K c+E E E r T d+e+f+g+$.h+i+j+k+P.l+m+M.n+u.o+p+q+r+s+t+u+v+0+w+x+y+    ",
"                        p z+E D D D E F G H H H H A+B+C+D+E+7+F+G+H+I+J+o.K+m+P.L+5+M+N+O+      ",
"                      f P+Q+E E E D D N O P P P P R+B+S+T+U+V+s.W+X+R.Y+L.Z+I+`+ @.@+@@@#@      ",
"                      6 $@S.{+%@~+r E F G H H H &@*@=@-@;@>@,@'@)@!@~@6+>+{@]@^@/@@@(@_@:@      ",
"                      . <@V.[@U.T.S.{+}@|@1@2@3@4@F.5@6@7@8@9@0@a@b@c@d@e@f@g@+@+@h@i@j@k@      ",
"                      . f.^.^.^.y.V.[@l@m@n@o@p@q@*@r@s@t@u@v@w@x@y@b+z@A@@@B@C@#@D@E@F@G@      ",
"                    . =.-.^.^.^.^.^.^.^.H@I@J@K@1 L@M@N@X+.+O@P@Q@R@S@T@U@.+V@+@W@R.X@Y@b+      ",
"                  . . ].^.^.^.^.^.^.^.^.Z@`@ #.#+#@###$#%#&#f@*#v.=#-#;#+@>#,#'#)#@@(@_@.+      ",
"              . . !#. ].^.^.^.^.^.^.^.^.^./.(._.:.~#{#]#%#^#f@/#(#_#:#<#[#}#|#)#1#@@2#3#4#      ",
"            . =.f.].. f.5#^.5#^.^.^.^.^.^.2.3.4.5.4###6#7#8#9#0#a#b#c#d#e#>#f#g#o.+@g@h#i#      ",
"          . j#k#l#-.m#-.n#o#^.^.^.^.^.^.^.g.h.i.j.p#q#r#s#t#u#v#w#x#y#/@+@K+z#A#B#f#C#D#        ",
"          . . =.].].f.-.E#F#G#H#G#^.^.^.^.^.z.A.B.I#J#K#L#M#N#O#P#Q#R#/@S#T#U#C@+@V#W#X#Y#      ",
"              . . . . =.].Z#`# $.$G#H#+$+$+$@$#$$$%$&$*$=$-$;$>$,$'$R.+@S#R.h@@@/@_@X@)$!$      ",
"                . . . . . . =.].~${$]$ $ $ $ $ $^$/$($b+_$_#:$<$[$}$R.|$1$2$h@/@#@3$4$5$        ",
"                . . . . . . . . . . =.].6$7$-.^.^.-.f.8$9$0$a$b$c$d$e$U@;#f$g$+@h$R.            ",
"                  . . . . . . . . . . . . . =.].].=.. . . i$j$k$l$m$-++@n$+@o$$+                ",
"                        . . . . . . . . . . . . . . . . . . p$q$w@r$u#|$+@s$t$                  ",
"                              . . . . . . . . . . . . . . . . . u$v$w$x$b+                      ",
"                                      . . . . . . . . . .         y$z$A$                        ",
"                                              . . . .               B$                          ",
"                                                                                                ",
"                                                                                                "};
