/* XPM */
static char * kvlc_xpm[] = {
"32 32 256 2",
"  	c None",
". 	c #AA6007",
"+ 	c #AA681B",
"@ 	c #804F17",
"# 	c #392610",
"$ 	c #392A1B",
"% 	c #AA7130",
"& 	c #AA773D",
"* 	c #AA7D4C",
"= 	c #E3AA6D",
"- 	c #493723",
"; 	c #AA6F2A",
"> 	c #FFB055",
", 	c #FFB96B",
"' 	c #FFBF7B",
") 	c #554029",
"! 	c #492D0B",
"~ 	c #E3902F",
"{ 	c #FFAD4F",
"] 	c #FFB665",
"^ 	c #FFBF7A",
"/ 	c #C69560",
"( 	c #503A1E",
"_ 	c #F1B064",
": 	c #FBAE55",
"< 	c #FEB665",
"[ 	c #FFC27F",
"} 	c #FFCD98",
"| 	c #000000",
"1 	c #4A433B",
"2 	c #DBCDBC",
"3 	c #E6C8A4",
"4 	c #F3D5B2",
"5 	c #FFE6CB",
"6 	c #FFF0E1",
"7 	c #80766C",
"8 	c #DDC9B1",
"9 	c #D6D5D4",
"0 	c #DADADA",
"a 	c #ECECEC",
"b 	c #FFFEFE",
"c 	c #AAA29B",
"d 	c #DEC6A9",
"e 	c #D8D3CC",
"f 	c #FFFDFC",
"g 	c #E3D5C8",
"h 	c #494139",
"i 	c #492800",
"j 	c #F9961C",
"k 	c #EDAD60",
"l 	c #E8C294",
"m 	c #F3D1A8",
"n 	c #FFE0BE",
"o 	c #FFE0BF",
"p 	c #FFC990",
"q 	c #55412D",
"r 	c #AA5D00",
"s 	c #FF8C01",
"t 	c #FD9211",
"u 	c #FD9E2F",
"v 	c #FEA844",
"w 	c #FFB45F",
"x 	c #FFBD73",
"y 	c #FFBF7C",
"z 	c #FF8C00",
"A 	c #FF8E05",
"B 	c #FF981D",
"C 	c #FFA133",
"D 	c #FFAD4E",
"E 	c #FFB664",
"F 	c #E3AA6C",
"G 	c #AA7F52",
"H 	c #545454",
"I 	c #FEFEFE",
"J 	c #FDFDFD",
"K 	c #555555",
"L 	c #2C2C2C",
"M 	c #BCBCBC",
"N 	c #BABABA",
"O 	c #4D4D4D",
"P 	c #472B08",
"Q 	c #DF8313",
"R 	c #FE8D02",
"S 	c #FF9517",
"T 	c #FF9E2D",
"U 	c #FFAA48",
"V 	c #FFB35E",
"W 	c #5D4F3F",
"X 	c #727272",
"Y 	c #35312B",
"Z 	c #2A2A2A",
"` 	c #3C3C3C",
" .	c #A8A8A8",
"..	c #FAFAFA",
"+.	c #FCFCFC",
"@.	c #BFBFBF",
"#.	c #020202",
"$.	c #4B4134",
"%.	c #DFC5A6",
"&.	c #ECAC5F",
"*.	c #F0A64B",
"=.	c #FB9822",
"-.	c #FEA030",
";.	c #FFAC4B",
">.	c #553B1C",
",.	c #C9C9C8",
"'.	c #969696",
").	c #444444",
"!.	c #363636",
"~.	c #C6C6C6",
"{.	c #262626",
"].	c #49433B",
"^.	c #D8D1C7",
"/.	c #D8D1CA",
"(.	c #DACEC1",
"_.	c #E6C091",
":.	c #F3CC9D",
"<.	c #FFDCB2",
"[.	c #C3B19E",
"}.	c #646464",
"|.	c #DCDCDC",
"1.	c #535353",
"2.	c #D9D9D9",
"3.	c #303030",
"4.	c #7C6D5C",
"5.	c #D7D2CD",
"6.	c #D6D6D6",
"7.	c #BDBDBD",
"8.	c #1A1919",
"9.	c #A9A9A9",
"0.	c #5A5A59",
"a.	c #838383",
"b.	c #E9E9E9",
"c.	c #3F3F3F",
"d.	c #171717",
"e.	c #EAB16C",
"f.	c #DCCBB6",
"g.	c #DACDBE",
"h.	c #D8D2CC",
"i.	c #C3C2C1",
"j.	c #7E7D7D",
"k.	c #72716E",
"l.	c #A6A6A4",
"m.	c #F4F4F4",
"n.	c #A2A2A2",
"o.	c #0E0E0E",
"p.	c #040404",
"q.	c #FD8F09",
"r.	c #FB9416",
"s.	c #F9961E",
"t.	c #EDAA58",
"u.	c #E8BB84",
"v.	c #F3C793",
"w.	c #CDB8A0",
"x.	c #64615D",
"y.	c #494949",
"z.	c #999999",
"A.	c #535352",
"B.	c #FDFDF4",
"C.	c #F7F7F7",
"D.	c #C2C2C2",
"E.	c #474747",
"F.	c #373737",
"G.	c #804600",
"H.	c #FD8E07",
"I.	c #FD900C",
"J.	c #FE9312",
"K.	c #60564A",
"L.	c #D3D3D3",
"M.	c #D8D8D8",
"N.	c #C1C1C1",
"O.	c #55554B",
"P.	c #FEF9D3",
"Q.	c #818181",
"R.	c #F9F9F9",
"S.	c #FBFBFB",
"T.	c #A7A7A7",
"U.	c #5C5C5C",
"V.	c #8D8D8D",
"W.	c #3E3E3E",
"X.	c #391F00",
"Y.	c #65533E",
"Z.	c #BBBBBB",
"`.	c #C9C9C9",
" +	c #BEBEBE",
".+	c #554D39",
"++	c #FDDA98",
"@+	c #4E3F30",
"#+	c #C3C1BF",
"$+	c #8C8C8C",
"%+	c #575757",
"&+	c #CA740D",
"*+	c #4E3A23",
"=+	c #4F4F4F",
"-+	c #B4B4B4",
";+	c #4E412B",
">+	c #ECBC72",
",+	c #A2703A",
"'+	c #54483C",
")+	c #F6F6F6",
"!+	c #E8E8E8",
"~+	c #686868",
"{+	c #C66D00",
"]+	c #8E4E00",
"^+	c #E37C00",
"/+	c #FE8E08",
"(+	c #F7931C",
"_+	c #AC6D24",
":+	c #655D53",
"<+	c #858585",
"[+	c #927145",
"}+	c #BB8446",
"|+	c #402E19",
"1+	c #808080",
"2+	c #F1F1F1",
"3+	c #050505",
"4+	c #331C00",
"5+	c #552F00",
"6+	c #713E00",
"7+	c #552F02",
"8+	c #553209",
"9+	c #513311",
"0+	c #6E665C",
"a+	c #5D554B",
"b+	c #1C1C1C",
"c+	c #815C34",
"d+	c #756F68",
"e+	c #1B1B1B",
"f+	c #C26B01",
"g+	c #7E7E7E",
"h+	c #949494",
"i+	c #514B46",
"j+	c #785D45",
"k+	c #7B5B3C",
"l+	c #8B7966",
"m+	c #525252",
"n+	c #777777",
"o+	c #888888",
"p+	c #252525",
"q+	c #A09C98",
"r+	c #C8C8C8",
"s+	c #707070",
"t+	c #222222",
"u+	c #3D3D3D",
"v+	c #5E5E5E",
"w+	c #242424",
"x+	c #6E6E6E",
"y+	c #565656",
"z+	c #181818",
"A+	c #292929",
"B+	c #7A7A7A",
"C+	c #B1B1B1",
"D+	c #6D6D6D",
"E+	c #010101",
"F+	c #C3C3C3",
"G+	c #070707",
"                                                                ",
"                                                                ",
"                                                                ",
"                        . + @                                   ",
"                      # . + $                                   ",
"                      % & * = -                                 ",
"                      ; > , ' )                                 ",
"                    ! ~ { ] ^ /                                 ",
"                    ( _ : < [ } |                               ",
"                    1 2 3 4 5 6 7                               ",
"                  | 8 9 0 a b b c                               ",
"                  | d e 0 a b f g h                             ",
"                  i j k l m n o p q                             ",
"                  r s t u v w x y /     | | | |                 ",
"                  r z A B C D E F G |   H I J K     L M N O     ",
"                P Q R s S T U V W X Y   K I I K Z `  ...+.@.#.  ",
"                $.%.&.*.=.-.;.>.,...'.` K I I K ).!.J I ~.{.    ",
"                ].^./.(._.:.<.[.}.|.@.@.K I I K 1.2.I a 3.|     ",
"                4.5.6.6.0 a b b 7.8.9.0.K I I a.b.I 2.c.d.      ",
"              | e.f.g.h.0 a b b i.j.k.l.K I I m.I I n.o.p.      ",
"              | q.r.s.t.u.v.w.x.y.z.A.B.K I I M C.I D.E.F.Z     ",
"              G.z z s H.I.J.K.L.M.N.O.P.K I I K Q.R.S.T.U.V.W.  ",
"            X.r z z z z z s Y.Z.`. +.+++K I I K @+#+I +.$+%+!.  ",
"        i r r r z z z z z z &+*+=+-+;+>+K I I K ,+'+)+I !+~+|   ",
"      | {+z z z {+]+r ^+z z /+(+_+:+<+[+K I I K }+|+1+2+J  .3+  ",
"        4+5+5+{+z {+r 6+5+5+7+8+9+0+T.a+b+K K b+c+d+1.9.z.e+    ",
"                | G.r r z z z f+g+!+ .h+i+j+k+l+m+n+o+%+p+      ",
"                        5+5+]+5+q+r+s+t+u+K v+K w+p.x+Z.y+      ",
"                              | z+A+|     B+C+D+|   3+#.E+      ",
"                                          }.F+`                 ",
"                                            G+t+                ",
"                                                                "};
