/* XPM */
static char * kvlc_xpm[] = {
"48 48 295 2",
"  	c None",
". 	c #000000",
"+ 	c #FF8C00",
"@ 	c #FF981E",
"# 	c #FF9F2E",
"$ 	c #FFAB4A",
"% 	c #FFBF7B",
"& 	c #FFA946",
"* 	c #FFB056",
"= 	c #FFB766",
"- 	c #FFBE77",
"; 	c #FFA741",
"> 	c #FFAE51",
", 	c #FFB562",
"' 	c #FFBC72",
") 	c #FFA53C",
"! 	c #FFAC4D",
"~ 	c #FFB35D",
"{ 	c #FFBA6D",
"] 	c #FF9C27",
"^ 	c #FFA338",
"/ 	c #FFAA48",
"( 	c #FFB158",
"_ 	c #FFB869",
": 	c #FFBF79",
"< 	c #F9A23B",
"[ 	c #F9A849",
"} 	c #FDA947",
"| 	c #FFAF54",
"1 	c #FFB664",
"2 	c #FFBD74",
"3 	c #FFC07E",
"4 	c #FFC689",
"5 	c #E2C29C",
"6 	c #E1C6A6",
"7 	c #F3B369",
"8 	c #FAB667",
"9 	c #FCBE77",
"0 	c #FFC688",
"a 	c #FFD09F",
"b 	c #FFE5CB",
"c 	c #DBCCBA",
"d 	c #D7D3CF",
"e 	c #DBCEBF",
"f 	c #E7D9C9",
"g 	c #F3E6D7",
"h 	c #FFF3E6",
"i 	c #FFF5EC",
"j 	c #FFFAF6",
"k 	c #FFECD9",
"l 	c #E1C19A",
"m 	c #D6D6D6",
"n 	c #D6D5D5",
"o 	c #E3E2E2",
"p 	c #F1F0F0",
"q 	c #FFFEFE",
"r 	c #FFF3E8",
"s 	c #DDC9B1",
"t 	c #D6D5D4",
"u 	c #E3E3E3",
"v 	c #F1F1F1",
"w 	c #FFFFFF",
"x 	c #FFF5EB",
"y 	c #E2BF93",
"z 	c #DBCBB8",
"A 	c #D7D4D0",
"B 	c #FFFCFA",
"C 	c #FFE4C7",
"D 	c #F9961E",
"E 	c #F3A240",
"F 	c #E1C3A0",
"G 	c #DDCBB7",
"H 	c #E7D8C6",
"I 	c #F3E5D4",
"J 	c #FFF1E2",
"K 	c #FFF2E5",
"L 	c #FFC78D",
"M 	c #FD8E07",
"N 	c #F99C2C",
"O 	c #F8A340",
"P 	c #FAAC50",
"Q 	c #FCB460",
"R 	c #FFBC70",
"S 	c #FFC27D",
"T 	c #FFC687",
"U 	c #FF910E",
"V 	c #FFA63F",
"W 	c #FFAD4F",
"X 	c #FFB45F",
"Y 	c #FFBB70",
"Z 	c #050505",
"` 	c #FF8F09",
" .	c #FF9619",
"..	c #FF9D2A",
"+.	c #FFA43A",
"@.	c #FFB25B",
"#.	c #FFB96B",
"$.	c #FDFDFD",
"%.	c #FEFEFE",
"&.	c #FCFCFC",
"*.	c #E4E4E4",
"=.	c #FF8D04",
"-.	c #FF9415",
";.	c #FF9B25",
">.	c #FFA235",
",.	c #747474",
"'.	c #DADADA",
").	c #0B0B0B",
"!.	c #F9961D",
"~.	c #FD8E05",
"{.	c #FF9210",
"].	c #FF9920",
"^.	c #FFA031",
"/.	c #A5A5A5",
"(.	c #AFAFAE",
"_.	c #6B6156",
":.	c #7E7E7E",
"<.	c #C6C6C6",
"[.	c #F7F7F7",
"}.	c #868686",
"|.	c #E1C199",
"1.	c #F3A03B",
"2.	c #F89824",
"3.	c #FD9110",
"4.	c #FF971C",
"5.	c #FF9E2C",
"6.	c #B6B5B3",
"7.	c #F4F4F4",
"8.	c #FAFAFA",
"9.	c #CACACA",
"0.	c #505050",
"a.	c #FBFBFB",
"b.	c #AAAAAA",
"c.	c #D7D3CE",
"d.	c #DBCBB7",
"e.	c #FAA239",
"f.	c #FCAA49",
"g.	c #FFB259",
"h.	c #FFB866",
"i.	c #ADADAC",
"j.	c #EAEAEA",
"k.	c #4B4B4B",
"l.	c #919191",
"m.	c #D7D7D7",
"n.	c #DCC9B1",
"o.	c #E7D5BF",
"p.	c #F3E2CE",
"q.	c #FFEFDC",
"r.	c #FFF0DF",
"s.	c #F7E9DA",
"t.	c #989898",
"u.	c #E5E5E5",
"v.	c #B8B8B8",
"w.	c #BABABA",
"x.	c #FEFDFD",
"y.	c #CCCCCC",
"z.	c #A6A6A6",
"A.	c #D0D0D0",
"B.	c #DEDEDE",
"C.	c #222222",
"D.	c #E6B882",
"E.	c #D8D1C8",
"F.	c #E6E5E5",
"G.	c #BBBBBB",
"H.	c #EEEEEC",
"I.	c #F5F5F5",
"J.	c #3E3E3E",
"K.	c #F49E34",
"L.	c #FFFCF9",
"M.	c #E1E1E1",
"N.	c #A4A09A",
"O.	c #FEFEFC",
"P.	c #060606",
"Q.	c #F89823",
"R.	c #E7D4BC",
"S.	c #F3E0CB",
"T.	c #FAE8D5",
"U.	c #E8DACA",
"V.	c #F8F8F6",
"W.	c #FEFEFA",
"X.	c #E9E9E9",
"Y.	c #676767",
"Z.	c #FA9A26",
"`.	c #FCA031",
" +	c #BD915D",
".+	c #F6F6F6",
"++	c #A9A9A9",
"@+	c #C4C4C4",
"#+	c #FEFEF4",
"$+	c #FEFEE5",
"%+	c #E0E0E0",
"&+	c #E6E6E6",
"*+	c #8F8F8F",
"=+	c #FF8E07",
"-+	c #F2F2F2",
";+	c #E2E2E2",
">+	c #BEBEBE",
",+	c #C8C8C8",
"'+	c #FEFED9",
")+	c #FEF3BF",
"!+	c #C1C1C1",
"~+	c #B6B6B6",
"{+	c #7B7B7B",
"]+	c #FF8C02",
"^+	c #0F0F0F",
"/+	c #F0F0F0",
"(+	c #B7B7B7",
"_+	c #FEF1B5",
":+	c #FED99B",
"<+	c #ACA399",
"[+	c #F8F8F8",
"}+	c #F9F9F9",
"|+	c #7A7A7A",
"1+	c #C97817",
"2+	c #8B8B8B",
"3+	c #8C8C8C",
"4+	c #CFCFCF",
"5+	c #FDD794",
"6+	c #FAC776",
"7+	c #B47A3F",
"8+	c #D1D1D1",
"9+	c #6F6F6F",
"0+	c #F88B08",
"a+	c #D47C14",
"b+	c #5F5F5F",
"c+	c #DBDBDB",
"d+	c #E1B776",
"e+	c #E7B365",
"f+	c #BE8446",
"g+	c #AB753C",
"h+	c #EDEDED",
"i+	c #595959",
"j+	c #FA9114",
"k+	c #EF9122",
"l+	c #CE822A",
"m+	c #ACACAC",
"n+	c #C2C2C2",
"o+	c #E4AC61",
"p+	c #BA8346",
"q+	c #C38B4A",
"r+	c #7F7F7F",
"s+	c #FE981F",
"t+	c #FA9C30",
"u+	c #E1943A",
"v+	c #C7A376",
"w+	c #B87F41",
"x+	c #B7864C",
"y+	c #A4A4A4",
"z+	c #F3F3F3",
"A+	c #C0C0C0",
"B+	c #A1A1A1",
"C+	c #996D42",
"D+	c #D9D8D7",
"E+	c #929292",
"F+	c #D5D5D5",
"G+	c #9D9D9D",
"H+	c #F58802",
"I+	c #BDA38B",
"J+	c #AF8055",
"K+	c #B58251",
"L+	c #BF966B",
"M+	c #DAC5AF",
"N+	c #CDCDCD",
"O+	c #636363",
"P+	c #777777",
"Q+	c #D4D4D4",
"R+	c #CECECE",
"S+	c #707070",
"T+	c #AFAFAF",
"U+	c #A3A3A3",
"V+	c #C5C5C5",
"W+	c #ADADAD",
"X+	c #6D655C",
"Y+	c #B9B9B9",
"Z+	c #C3C3C3",
"`+	c #313131",
" @	c #656565",
".@	c #8D8D8D",
"+@	c #8E8E8E",
"@@	c #797979",
"#@	c #080808",
"$@	c #C7C7C7",
"%@	c #717171",
"&@	c #0E0E0E",
"*@	c #515151",
"=@	c #343434",
"-@	c #A8A8A8",
";@	c #727272",
">@	c #010101",
",@	c #070707",
"'@	c #040404",
")@	c #8A8A8A",
"!@	c #B2B2B2",
"~@	c #2E2E2E",
"{@	c #333333",
"                                                                                                ",
"                                                                                                ",
"                                                                                                ",
"                                                                                                ",
"                                    . . . .                                                     ",
"                                  . + @ # # .                                                   ",
"                                . . + @ # . .                                                   ",
"                                . $ . . . % .                                                   ",
"                                . & * = - % % .                                                 ",
"                                . ; > , ' % % .                                                 ",
"                                . ) ! ~ { % % .                                                 ",
"                              . ] ^ / ( _ : % % .                                               ",
"                              . < [ } | 1 2 3 4 .                                               ",
"                              . 5 6 7 8 9 0 a b .                                               ",
"                              . c d e f g h i j k .                                             ",
"                            . l d m n o p q q q r .                                             ",
"                            . s t m m u v w w q x .                                             ",
"                            . y z A n o p q q B r C .                                           ",
"                            . D E F G H I J K k a L .                                           ",
"                          . + + M N O P Q R S T 3 % .                                           ",
"                          . + + + U @ # V W X Y % % % .     . . . . . .           Z .           ",
"                          . + + + `  ...+.$ @.#.% % % .     . $.%.&.%..         . v *.. .       ",
"                          . + + + =.-.;.>.& * = - . . .     . %.%.%.%..     ,.. '.%.%.%.'.. ).  ",
"                        . !.!.~.+ + {.].^.; > , . /.(._..   . %.%.%.%.. . :.. <.$.%.%.[.}..     ",
"                        . y |.1.2.!.3.4.5.) ! . 6.7.8.9.. . . %.%.%.%.. 0.. . a.%.%.&.b..       ",
"                        . s c.d.s |.E e.f.g.h.. i.a.%.j.k.j.. %.%.%.%.. l.. v %.%.$.m.. .       ",
"                        . n.n n n d z o.p.q.r.s.. t.u.v.'.w.. %.%.%.%.. . u %.%.&.m.. .         ",
"                        . d.n m m m n o p q q x.p . . y.z.. . %.%.%.%.. A.$.%.%.B.. C.          ",
"                      . D.E.n n n m m u v w w w %.F.. G.. H.. %.%.%.%.A.$.%.%.I.. J..           ",
"                      . K.|.s n.d.d n o p q q q L.. M.N.. O.. %.%.%.%.%.%.%.%.v . . P.          ",
"                      . ~.!.Q.2.1.|.s R.S.T.U.. . . y.. V.W.. %.%.%.%.X.%.%.%.a.. Y.. .         ",
"                      . + + + + ~.!.Q.Z.`. +. '..+++@+. #+$+. %.%.%.%.. %+%.%.%.&+. *+A.. .     ",
"                    . + + + + + + + + + =+. -+I.;+>+,+. '+)+. %.%.%.%.. . &+%.%.&.!+. z.~+{+.   ",
"                  . . + + + + + + + + + ]+^+%+/+&+(+<.. _+:+. %.%.%.%.. . <+[+%.%.}+/.. ++|+.   ",
"              . . + . + + + + + + + + + + 1+. 2+>+3+4+. 5+6+. %.%.%.%.. 7+. 8+%.%.%.I.9+. . .   ",
"            . + + + . + + + + + + + + + + 0+a+. . b+c+. d+e+. %.%.%.%.. f+g+. h+%.%.%.j.i+.     ",
"          . + + + + + + + . + + + + + + + =.j+k+l+. m+n+. o+. %.%.%.%.. p+q+. r+v %.%.%.>+.     ",
"          . . + + + + + + + . . . + + + + + {.s+t+u+. 8+. v+. %.%.%.%.. w+x+. . y+%.%.z+. ^+    ",
"              . . . . + + + + + + . . . . . . . . . A+B+c+. . . . . . . C+. D+E+. F+G+. .       ",
"                      . . . + + + + + + + + + H+. &.X.b.t.*.. I+J+K+L+M+. N+z.O+P+. . P.        ",
"                            . . . . + + + + + . ,+&+Q+R+S+. T+. . . . . U+. . <.V+W+B+.         ",
"                                    . . . . + . X+Y+Z+|+. `+.  @.@+@.@@@. . #@. $@Y+%@.         ",
"                                            . . &@*@=@. .     . G.y+-@;@.     #@. . . .         ",
"                                                . . . .       . T+A.w.. >@        ,@'@          ",
"                                                              . )@,+!@.                         ",
"                                                                . . . ~@                        ",
"                                                                  '@{@                          ",
"                                                                                                "};
