/* XPM */
static char * kvlc_xpm[] = {
"48 48 125 2",
"  	c None",
". 	c #000000",
"+ 	c #FF8C02",
"@ 	c #FE9B24",
"# 	c #FE8F08",
"$ 	c #FE981D",
"% 	c #FEDAAF",
"& 	c #FEDDB6",
"* 	c #FEAB48",
"= 	c #FE9F2C",
"- 	c #FED19B",
"; 	c #FEEDD9",
"> 	c #FEF9F5",
", 	c #FEEDDA",
"' 	c #FEEAD3",
") 	c #FEF6EE",
"! 	c #FEFAF6",
"~ 	c #FEFEFE",
"{ 	c #FEFDFD",
"] 	c #FEEAD2",
"^ 	c #FEFDFC",
"/ 	c #FECE94",
"( 	c #FE9C25",
"_ 	c #FE9E2B",
": 	c #030303",
"< 	c #FDFDFD",
"[ 	c #D0D0D0",
"} 	c #F8F8F8",
"| 	c #B9B9B9",
"1 	c #F4F3F3",
"2 	c #9F9F9F",
"3 	c #8C8C8C",
"4 	c #F4F4F4",
"5 	c #EEEEEE",
"6 	c #EBEBEB",
"7 	c #585858",
"8 	c #878787",
"9 	c #F7F7F7",
"0 	c #C4C4C4",
"a 	c #EFEEEE",
"b 	c #FBFBFB",
"c 	c #A2A2A2",
"d 	c #D2D2D2",
"e 	c #E5E5E5",
"f 	c #E6E6E6",
"g 	c #FEA840",
"h 	c #FDECD9",
"i 	c #C2B2A0",
"j 	c #AAAAAA",
"k 	c #DBDBDB",
"l 	c #E0E0E0",
"m 	c #F3F3F3",
"n 	c #FD9E2B",
"o 	c #C1771E",
"p 	c #A0A0A0",
"q 	c #BDBDBD",
"r 	c #F5F5F5",
"s 	c #323232",
"t 	c #C7C7C7",
"u 	c #FDFDFB",
"v 	c #DEDEDE",
"w 	c #DF8315",
"x 	c #919191",
"y 	c #FEFEF7",
"z 	c #7B7B7B",
"A 	c #F2F2F2",
"B 	c #FEFEEB",
"C 	c #FEFED9",
"D 	c #FCFCFC",
"E 	c #EAEAEA",
"F 	c #EFEFEF",
"G 	c #C2C2C2",
"H 	c #FEF9C3",
"I 	c #FEE3A6",
"J 	c #ABABAB",
"K 	c #8F5E23",
"L 	c #9C9C9C",
"M 	c #FBDE94",
"N 	c #FBC87A",
"O 	c #A9763C",
"P 	c #F68701",
"Q 	c #C96E01",
"R 	c #693A02",
"S 	c #E8B465",
"T 	c #CC9350",
"U 	c #64503B",
"V 	c #0B0B0B",
"W 	c #BBBBBB",
"X 	c #D7A365",
"Y 	c #C8904B",
"Z 	c #C3AD91",
"` 	c #F0F0F0",
" .	c #68461E",
"..	c #CECECE",
"+.	c #AF8357",
"@.	c #DFD9D4",
"#.	c #818181",
"$.	c #D8D8D8",
"%.	c #FB8A02",
"&.	c #E2E2E2",
"*.	c #D1D1D1",
"=.	c #DDD6CF",
"-.	c #B98B5E",
";.	c #C39E78",
">.	c #E6DBD0",
",.	c #D4D4D4",
"'.	c #777777",
").	c #111111",
"!.	c #ED8407",
"~.	c #DFDFDF",
"{.	c #CDCDCD",
"].	c #787878",
"^.	c #989898",
"/.	c #CBCBCB",
"(.	c #BFBFBF",
"_.	c #8E8E8E",
":.	c #FE8B01",
"<.	c #1C1C1C",
"[.	c #7D7D7D",
"}.	c #747474",
"|.	c #A3A3A3",
"1.	c #939393",
"2.	c #686868",
"3.	c #D6D6D6",
"4.	c #A7A7A7",
"                                                                                                ",
"                                                                                                ",
"                                                                                                ",
"                                                                                                ",
"                                    . . . .                                                     ",
"                                  . + + + + .                                                   ",
"                                . . + + + . .                                                   ",
"                                . + . . . + .                                                   ",
"                                . + + + + + + .                                                 ",
"                                . + + + + + + .                                                 ",
"                                . + + + + + + .                                                 ",
"                              . + + + + + + + + .                                               ",
"                              . @ @ # + + + # $ .                                               ",
"                              . % & * = = = * - .                                               ",
"                              . ; > , ' ' ' , ) & .                                             ",
"                            . & ! ~ { { { { { { ] .                                             ",
"                            . ] ^ ~ ~ ~ ~ ~ ~ { ; .                                             ",
"                            . % ; ! { { { { { ! ] / .                                           ",
"                            . ( * & ] ' ' ' ] & * @ .                                           ",
"                          . + + # @ _ = = = _ @ # + .                                           ",
"                          . + + + + + + + + + + + + + .                                         ",
"                          . + + + + + + + + + + + + + .                                         ",
"                          . + + + + + + + + + + + + + .                                         ",
"                        . @ @ # + + + + + + + + + + # $ .                                       ",
"                        . % & * = @ # + + + + + # ( * - .     . . : . .       . . .             ",
"                        . ] > , ] & * = = = = = * & ; ) & .   . ~ < ~ .     . [ } | .           ",
"                        . ' { { { ! , ' ' ' ' ' , ! 1 . . .   . ~ ~ ~ .   . 2 < ~ < 3 .         ",
"                        . , { ~ ~ ~ { { { { { { { 4 . 5 6 7 . . ~ ~ ~ . . 8 9 ~ < 0 .           ",
"                      . - ) { { { ~ ~ ~ ~ ~ ~ ~ ~ a . 9 b c d . ~ ~ ~ . . e ~ ~ f .             ",
"                      . g & ] ' , ! { { { { { { ! h i . j k . . ~ ~ ~ . l ~ ~ m .   .           ",
"                      . # @ _ = * & ] ' ' ' ' ] & * n o . p . . ~ ~ ~ q ~ ~ r . s .             ",
"                      . + + + + # @ _ = = = = _ @ # + . t . u . ~ ~ ~ < ~ ~ v . .               ",
"                    . + + + + + + + + + + + + + w . . . x . y . ~ ~ ~ l ~ ~ 9 . z . .           ",
"                  . . + + + + + + + + + + + + + . A 5 q . B C . ~ ~ ~ . D ~ ~ E . q q .         ",
"              . . + . + + + + + + + + + + + + + . F f G . H I . ~ ~ ~ . . r ~ ~ q . J .         ",
"            . + + + . + + + + + + + + + + + + + K . 0 . L M N . ~ ~ ~ . O . ~ ~ b . .           ",
"          . + + + + + + + . + + + + + + + + + + P Q R . d . S . ~ ~ ~ . T U v ~ ~ 4 .           ",
"          . . + + + + + + + . . . + + + + + + + + + . V W . X . ~ ~ ~ . Y Z . ` ~ < 2 .         ",
"              . . . . + + + + + + . . . . . . . . . +  .. ... . . . . . +.@.#.. $.. .           ",
"                      . . . + + + + + + + + + + + %.. } &.. *.=.. -.;.>.,.p '.. . ).            ",
"                            . . . . + + + + + + + !.. ~.{.#.. ].^./.(._.. . W 0 J .             ",
"                                    . . . . + + + :.<.[.}.. . . |.. . .     . 1.2..             ",
"                                            . . . .   . .       . 3.W .       . .               ",
"                                                                . ..4..                         ",
"                                                                  . .                           ",
"                                                                                                ",
"                                                                                                ",
"                                                                                                "};
