/* XPM */
static const char *const familiar_preferencesb16x16_xpm[] = {
"16 16 2 1",
"     c None",
".    c #000000",
"                ",
"                ",
"     .......    ",
"    .........   ",
"   ...........  ",
"  .....   ..... ",
"  .....   ..... ",
"  .....   ..... ",
"  .....   ..... ",
"  .....   ..... ",
"  .....   ..... ",
"  .....   ..... ",
"   ...........  ",
"    .........   ",
"     .......    ",
"                "};
