/* XPM */
static char * qvlc_xpm[] = {
"48 48 147 2",
"  	c None",
". 	c #000000",
"+ 	c #FF8C00",
"@ 	c #FF981E",
"# 	c #FF9F2E",
"$ 	c #FFAB4A",
"% 	c #FFBF7B",
"& 	c #FFA946",
"* 	c #FFB056",
"= 	c #FFB766",
"- 	c #FFBE77",
"; 	c #FFA741",
"> 	c #FFAE51",
", 	c #FFB562",
"' 	c #FFBC72",
") 	c #FFA53C",
"! 	c #FFAC4D",
"~ 	c #FFB35D",
"{ 	c #FFBA6D",
"] 	c #FF9C27",
"^ 	c #FFA338",
"/ 	c #FFAA48",
"( 	c #FFB158",
"_ 	c #FFB869",
": 	c #FFBF79",
"< 	c #F9A23B",
"[ 	c #F9A849",
"} 	c #FDA947",
"| 	c #FFAF54",
"1 	c #FFB664",
"2 	c #FFBD74",
"3 	c #FFC07E",
"4 	c #FFC689",
"5 	c #E2C29C",
"6 	c #E1C6A6",
"7 	c #F3B369",
"8 	c #FAB667",
"9 	c #FCBE77",
"0 	c #FFC688",
"a 	c #FFD09F",
"b 	c #FFE5CB",
"c 	c #DBCCBA",
"d 	c #D7D3CF",
"e 	c #DBCEBF",
"f 	c #E7D9C9",
"g 	c #F3E6D7",
"h 	c #FFF3E6",
"i 	c #FFF5EC",
"j 	c #FFFAF6",
"k 	c #FFECD9",
"l 	c #E1C19A",
"m 	c #D6D6D6",
"n 	c #D6D5D5",
"o 	c #E3E2E2",
"p 	c #F1F0F0",
"q 	c #FFFEFE",
"r 	c #FFF3E8",
"s 	c #DDC9B1",
"t 	c #D6D5D4",
"u 	c #E3E3E3",
"v 	c #F1F1F1",
"w 	c #FFFFFF",
"x 	c #FFF5EB",
"y 	c #E2BF93",
"z 	c #DBCBB8",
"A 	c #D7D4D0",
"B 	c #FFFCFA",
"C 	c #FFE4C7",
"D 	c #F9961E",
"E 	c #F3A240",
"F 	c #E1C3A0",
"G 	c #DDCBB7",
"H 	c #E7D8C6",
"I 	c #F3E5D4",
"J 	c #FFF1E2",
"K 	c #FFF2E5",
"L 	c #FFC78D",
"M 	c #FD8E07",
"N 	c #F99C2C",
"O 	c #F8A340",
"P 	c #FAAC50",
"Q 	c #FCB460",
"R 	c #FFBC70",
"S 	c #FFC27D",
"T 	c #FFC687",
"U 	c #FF910E",
"V 	c #FFA63F",
"W 	c #FFAD4F",
"X 	c #FFB45F",
"Y 	c #FFBB70",
"Z 	c #FF8F09",
"` 	c #FF9619",
" .	c #FF9D2A",
"..	c #FFA43A",
"+.	c #FFB25B",
"@.	c #FFB96B",
"#.	c #FF8D04",
"$.	c #FF9415",
"%.	c #FF9B25",
"&.	c #FFA235",
"*.	c #F9961D",
"=.	c #FD8E05",
"-.	c #FF9210",
";.	c #FF9920",
">.	c #FFA031",
",.	c #0000D2",
"'.	c #E1C199",
").	c #F3A03B",
"!.	c #F89824",
"~.	c #FD9110",
"{.	c #FF971C",
"].	c #FF9E2C",
"^.	c #FFBB71",
"/.	c #FFC88D",
"(.	c #0101D2",
"_.	c #D7D3CE",
":.	c #DBCBB7",
"<.	c #FAA239",
"[.	c #FCAA49",
"}.	c #FFB259",
"|.	c #FFB866",
"1.	c #FFBE74",
"2.	c #FFCB92",
"3.	c #DCC9B1",
"4.	c #E7D5BF",
"5.	c #F3E2CE",
"6.	c #FFEFDC",
"7.	c #FFF0DF",
"8.	c #E6B882",
"9.	c #D8D1C8",
"0.	c #0606D3",
"a.	c #0C0CD4",
"b.	c #F49E34",
"c.	c #F89823",
"d.	c #E7D4BC",
"e.	c #F3E0CB",
"f.	c #FFEDD9",
"g.	c #FFEEDC",
"h.	c #FA9A26",
"i.	c #FCA031",
"j.	c #FFA842",
"k.	c #FFAE4F",
"l.	c #FF8E07",
"m.	c #FF9517",
"n.	c #FF8C02",
"o.	c #FF9312",
"p.	c #FF9A23",
"                                                                                                ",
"                                                                                                ",
"                                                                                                ",
"                                                                                                ",
"                                    . . . .                                                     ",
"                                  . + @ # # .                                                   ",
"                                . . + @ # . .                                                   ",
"                                . $ . . . % .                                                   ",
"                                . & * = - % % .                                                 ",
"                                . ; > , ' % % .                                                 ",
"                                . ) ! ~ { % % .                                                 ",
"                              . ] ^ / ( _ : % % .                                               ",
"                              . < [ } | 1 2 3 4 .                                               ",
"                              . 5 6 7 8 9 0 a b .                                               ",
"                              . c d e f g h i j k .                                             ",
"                            . l d m n o p q q q r .                                             ",
"                            . s t m m u v w w q x .                                             ",
"                            . y z A n o p q q B r C .                                           ",
"                            . D E F G H I J K k a L .                                           ",
"                          . + + M N O P Q R S T 3 % .                                           ",
"                          . + + + U @ # V W X Y % % % .                                         ",
"                          . + + + Z `  ...$ +.@.% % % .                                         ",
"                          . + + + #.$.%.&.& * = - % % .   . . . . . . . .                       ",
"                        . *.*.=.+ + -.;.>.; > , ' % 3 . . ,.,.,.,.,.,.,.,.. .                   ",
"                        . y '.).!.*.~.{.].) ! ~ ^./.. ,.,.,.,.,.,.,.,.,.,.,.(..                 ",
"                        . s _.:.s '.E <.[.}.|.1.2.. ,.,.,.(.,.,.,.,.,.,.,.,.,.,..               ",
"                        . 3.n n n d z 4.5.6.7.J . ,.,.,.,.,.. . . . . . ,.,.,.,.,..             ",
"                        . :.n m m m n o p q q q . ,.,.,.. .       .     . . ,.,.,..             ",
"                      . 8.9.n n n m m u v w w . ,.,.0.,.. C .   . ,..     . ,.,.,.a..           ",
"                      . b.'.s 3.:.d n o p q q . ,.,.,.. a L . . ,.,.,..     . ,.,.,..           ",
"                      . =.*.c.!.).'.s d.e.f.g.. ,.,.,.. 3 % . ,.,.,.,.,..   . ,.,.,..           ",
"                      . + + + + =.*.c.h.i.j.k.. ,.,.,.. % . ,.,.,.,.,..     . ,.,.,..           ",
"                    . + + + + + + + + + l.m.] . ,.,.,.. . ,.,.,.,.,.,.,..   . ,.,.,..           ",
"                  . . + + + + + + + + + n.o.p.. ,.,.,.. % . ,.,.,.,.,.,.,.. ,.,.,.,..           ",
"              . . + . + + + + + + + + + + U @ . ,.,.,.. % % . ,.. ,.,.,.,.,.,.,.,.,..           ",
"            . + + + . + + + + + + + + + + Z ` . ,.,.,.,.. % X . . . ,.,.,.,.,.,.,..             ",
"          . + + + + + + + . + + + + + + + #.$.%.. ,.,.,.. . + + + + . ,.,.,.,.,..               ",
"          . . + + + + + + + . . . + + + + + -.;.. ,.,.,.,.,.. . . . ,.,.,.,.,.,.,..             ",
"              . . . . + + + + + + . . . . . . . . . ,.,.,.,.,.,.,.,.,.,.,.,.,.,.,.,..           ",
"                      . . . + + + + + + + + + + + + . ,.,.,.,.,.,.,.,.,.,.. ,.,.,.,.,..         ",
"                            . . . . + + + + + + + + + . . ,.,.,.,.,.,.,..   . ,.,.,..           ",
"                                    . . . . + + + + . .   . . . . . . .       . ,..             ",
"                                            . . . .                             .               ",
"                                                                                                ",
"                                                                                                ",
"                                                                                                ",
"                                                                                                ",
"                                                                                                "};
