/* XPM */
static char * qvlc_xpm[] = {
"32 32 156 2",
"  	c None",
". 	c #AA6007",
"+ 	c #AA681B",
"@ 	c #804F17",
"# 	c #392610",
"$ 	c #392A1B",
"% 	c #AA7130",
"& 	c #AA773D",
"* 	c #AA7D4C",
"= 	c #E3AA6D",
"- 	c #493723",
"; 	c #AA6F2A",
"> 	c #FFB055",
", 	c #FFB96B",
"' 	c #FFBF7B",
") 	c #554029",
"! 	c #492D0B",
"~ 	c #E3902F",
"{ 	c #FFAD4F",
"] 	c #FFB665",
"^ 	c #FFBF7A",
"/ 	c #C69560",
"( 	c #503A1E",
"_ 	c #F1B064",
": 	c #FBAE55",
"< 	c #FEB665",
"[ 	c #FFC27F",
"} 	c #FFCD98",
"| 	c #000000",
"1 	c #4A433B",
"2 	c #DBCDBC",
"3 	c #E6C8A4",
"4 	c #F3D5B2",
"5 	c #FFE6CB",
"6 	c #FFF0E1",
"7 	c #80766C",
"8 	c #DDC9B1",
"9 	c #D6D5D4",
"0 	c #DADADA",
"a 	c #ECECEC",
"b 	c #FFFEFE",
"c 	c #AAA29B",
"d 	c #DEC6A9",
"e 	c #D8D3CC",
"f 	c #FFFDFC",
"g 	c #E3D5C8",
"h 	c #494139",
"i 	c #492800",
"j 	c #F9961C",
"k 	c #EDAD60",
"l 	c #E8C294",
"m 	c #F3D1A8",
"n 	c #FFE0BE",
"o 	c #FFE0BF",
"p 	c #FFC990",
"q 	c #55412D",
"r 	c #AA5D00",
"s 	c #FF8C01",
"t 	c #FD9211",
"u 	c #FD9E2F",
"v 	c #FEA844",
"w 	c #FFB45F",
"x 	c #FFBD73",
"y 	c #FFBF7C",
"z 	c #FF8C00",
"A 	c #FF8E05",
"B 	c #FF981D",
"C 	c #FFA133",
"D 	c #FFAD4E",
"E 	c #FFB664",
"F 	c #472B08",
"G 	c #DF8313",
"H 	c #FE8D02",
"I 	c #FF9517",
"J 	c #FF9E2D",
"K 	c #FFAA48",
"L 	c #FFB35E",
"M 	c #FFBD76",
"N 	c #000069",
"O 	c #00008C",
"P 	c #4B4134",
"Q 	c #DFC5A6",
"R 	c #ECAC5F",
"S 	c #F0A64B",
"T 	c #FB9822",
"U 	c #FEA030",
"V 	c #FFAC4B",
"W 	c #FFB460",
"X 	c #E3AD72",
"Y 	c #392C4E",
"Z 	c #0000D2",
"` 	c #00003C",
" .	c #49433B",
"..	c #D8D1C7",
"+.	c #D8D1CA",
"@.	c #DACEC1",
"#.	c #E6C091",
"$.	c #F3CC9D",
"%.	c #FFDCB2",
"&.	c #FFDFBB",
"*.	c #392D4F",
"=.	c #0000BB",
"-.	c #000046",
";.	c #7C6D5C",
">.	c #D7D2CD",
",.	c #D6D6D6",
"'.	c #C6C6C6",
").	c #000075",
"!.	c #0101D2",
"~.	c #39332C",
"{.	c #030375",
"].	c #EAB16C",
"^.	c #DCCBB6",
"/.	c #DACDBE",
"(.	c #D8D2CC",
"_.	c #555555",
":.	c #392E52",
"<.	c #E3B98E",
"[.	c #0303D2",
"}.	c #FD8F09",
"|.	c #FB9416",
"1.	c #F9961E",
"2.	c #EDAA58",
"3.	c #E8BB84",
"4.	c #F3C793",
"5.	c #FFD7A9",
"6.	c #55483A",
"7.	c #55402A",
"8.	c #0000A3",
"9.	c #804600",
"0.	c #FD8E07",
"a.	c #FD900C",
"b.	c #FE9312",
"c.	c #FF9E2A",
"d.	c #553611",
"e.	c #1C150E",
"f.	c #1C156B",
"g.	c #391F00",
"h.	c #FF9516",
"i.	c #55330B",
"j.	c #8E6A44",
"k.	c #FF9210",
"l.	c #553209",
"m.	c #715042",
"n.	c #000017",
"o.	c #C66D00",
"p.	c #8E4E00",
"q.	c #E37C00",
"r.	c #FF8F08",
"s.	c #FF981E",
"t.	c #713E17",
"u.	c #00002A",
"v.	c #331C00",
"w.	c #552F00",
"x.	c #713E00",
"y.	c #552F02",
"                                                                ",
"                                                                ",
"                                                                ",
"                        . + @                                   ",
"                      # . + $                                   ",
"                      % & * = -                                 ",
"                      ; > , ' )                                 ",
"                    ! ~ { ] ^ /                                 ",
"                    ( _ : < [ } |                               ",
"                    1 2 3 4 5 6 7                               ",
"                  | 8 9 0 a b b c                               ",
"                  | d e 0 a b f g h                             ",
"                  i j k l m n o p q                             ",
"                  r s t u v w x y /                             ",
"                  r z A B C D E ^ ' |                           ",
"                F G H s I J K L M y | N O O O O N |             ",
"                P Q R S T U V W X Y Z Z Z Z Z Z Z Z `           ",
"                 ...+.@.#.$.%.&.*.=.Z Z -.-.-.-.Z Z =.`         ",
"                ;.>.,.,.0 a b '.).!.O ~.    `   | O Z {.        ",
"              | ].^./.(.0 a b _.Z !.:.<.| N =.`   ` Z [.|       ",
"              | }.|.1.2.3.4.5.6.Z Z 7./ ).Z Z 8.  | Z Z |       ",
"              9.z z s 0.a.b.c.d.Z Z e.f.Z Z Z 8.  | Z Z |       ",
"            g.r z z z z z s h.i.Z Z ) j.8.8.Z Z 8.8.Z Z |       ",
"        i r r r z z z z z z k.l.Z Z f./ m.n.).Z Z Z Z ).        ",
"      | o.z z z o.p.r q.z z r.s.-.Z 8.-.r r t.8.Z Z 8.u.        ",
"        v.w.w.o.z o.r x.w.w.y.l.n.8.Z Z O O 8.Z Z Z Z 8.        ",
"                | 9.r r z z z z z p.O =.Z Z Z Z N N Z Z N       ",
"                        w.w.p.z z p.| ` -.-.-.-.    ).).        ",
"                              | |                               ",
"                                                                ",
"                                                                ",
"                                                                "};
