/* XPM */
static char * qvlc_xpm[] = {
"48 48 32 1",
" 	c None",
".	c #000000",
"+	c #FF8C02",
"@	c #FE9B24",
"#	c #FE8F08",
"$	c #FE981D",
"%	c #FEDAAF",
"&	c #FEDDB6",
"*	c #FEAB48",
"=	c #FE9F2C",
"-	c #FED19B",
";	c #FEEDD9",
">	c #FEF9F5",
",	c #FEEDDA",
"'	c #FEEAD3",
")	c #FEF6EE",
"!	c #FEFAF6",
"~	c #FEFEFE",
"{	c #FEFDFD",
"]	c #FEEAD2",
"^	c #FEFDFC",
"/	c #FECE94",
"(	c #FE9C25",
"_	c #FE9E2B",
":	c #0000D2",
"<	c #0101D2",
"[	c #FEA840",
"}	c #0606D1",
"|	c #0C0CD4",
"1	c #FD8B03",
"2	c #0B0BD4",
"3	c #0A0AD4",
"                                                ",
"                                                ",
"                                                ",
"                                                ",
"                  ....                          ",
"                 .++++.                         ",
"                ..+++..                         ",
"                .+...+.                         ",
"                .++++++.                        ",
"                .++++++.                        ",
"                .++++++.                        ",
"               .++++++++.                       ",
"               .@@#+++#$.                       ",
"               .%&*===*-.                       ",
"               .;>,''',)&.                      ",
"              .&!~{{{{{{].                      ",
"              .]^~~~~~~{;.                      ",
"              .%;!{{{{{!]/.                     ",
"              .(*&]''']&*@.                     ",
"             .++#@_===_@#+.                     ",
"             .+++++++++++++.                    ",
"             .+++++++++++++.                    ",
"             .+++++++++++++.                    ",
"            .@@#++++++++++#$.  .......          ",
"            .%&*=@#+++++#(*-...:::::::..        ",
"            .]>,]&*=====*&;).::::::::::<.       ",
"            .'{{{!,''''',!{.:::<.....::::.      ",
"            .,{~~~{{{{{{{~.:::..     ..:::.     ",
"           .-){{{~~~~~~~~{.::..     .  .::.     ",
"           .[&]',!{{{{{{!.::}..    .:. .::|.    ",
"           .#@_=*&]'''']&.::.+.   .:::. .::.    ",
"           .++++#@_====_@.::.++. .:::.  .::.    ",
"          .++++++++++++++.::.++..:::.   .::.    ",
"         ..++++++++++++++.::.++.:::::.  .::.    ",
"       ..+.++++++++++++++.::.+.:::.:::. .::.    ",
"      .+++.++++++++++++++.:::.+.:.+.:::.::.     ",
"     .+++++++.++++++++++++.::.+1.+++.:::::.     ",
"     ..+++++++...+++++++++.:::..+++. .:::.      ",
"       ....++++++.........+.::::.....:::::.     ",
"           ...++++++++++++++.::::::::::.::2.    ",
"              ....++++++++++...::::::.. .3.     ",
"                  ....++++..   ......    .      ",
"                      ....                      ",
"                                                ",
"                                                ",
"                                                ",
"                                                ",
"                                                "};
