/* XPM */
static char * vlc_xpm[] = {
"48 48 243 2",
"  	c None",
". 	c #000000",
"+ 	c #C76D00",
"@ 	c #DD831A",
"# 	c #D78626",
"$ 	c #B16E1F",
"% 	c #C66C00",
"& 	c #CC7F24",
"* 	c #B07633",
"= 	c #B68857",
"- 	c #D88F3B",
"; 	c #E39C4C",
"> 	c #DE9F58",
", 	c #E3A969",
"' 	c #F4B675",
") 	c #CD9962",
"! 	c #DD9038",
"~ 	c #FFAE51",
"{ 	c #FFB562",
"] 	c #FFBC72",
"^ 	c #FFBF7B",
"/ 	c #DDA56A",
"( 	c #E39235",
"_ 	c #FFAC4D",
": 	c #FFB35D",
"< 	c #FFBA6D",
"[ 	c #E3AA6D",
"} 	c #CD7D1F",
"| 	c #F99F36",
"1 	c #FFAA48",
"2 	c #FFB158",
"3 	c #FFB869",
"4 	c #FFBF79",
"5 	c #F9BA78",
"6 	c #040404",
"7 	c #D78C33",
"8 	c #F9A849",
"9 	c #FDA947",
"0 	c #FFAF54",
"a 	c #FFB664",
"b 	c #FFBD74",
"c 	c #FFC07E",
"d 	c #DDAB76",
"e 	c #050505",
"f 	c #181818",
"g 	c #C3A887",
"h 	c #E1C6A6",
"i 	c #F3B369",
"j 	c #FAB667",
"k 	c #FCBE77",
"l 	c #FFC688",
"m 	c #FFD09F",
"n 	c #E3CBB4",
"o 	c #393939",
"p 	c #343434",
"q 	c #C2B5A5",
"r 	c #D7D3CF",
"s 	c #DBCEBF",
"t 	c #E7D9C9",
"u 	c #F3E6D7",
"v 	c #FFF3E6",
"w 	c #FFF5EC",
"x 	c #F9F4F0",
"y 	c #CDBDAE",
"z 	c #232323",
"A 	c #1D1D1D",
"B 	c #B49B7B",
"C 	c #D1CECA",
"D 	c #D6D6D6",
"E 	c #D6D5D5",
"F 	c #E3E2E2",
"G 	c #F1F0F0",
"H 	c #FFFEFE",
"I 	c #DDD2C9",
"J 	c #212121",
"K 	c #1B1B1B",
"L 	c #BFAE99",
"M 	c #D6D5D4",
"N 	c #E3E3E3",
"O 	c #F1F1F1",
"P 	c #FFFFFF",
"Q 	c #E3DAD1",
"R 	c #3E3E3E",
"S 	c #C3A57F",
"T 	c #DBCBB8",
"U 	c #D7D4D0",
"V 	c #FFFCFA",
"W 	c #F9EDE2",
"X 	c #CDB79F",
"Y 	c #1C1C1C",
"Z 	c #070707",
"` 	c #DD851A",
" .	c #F3A240",
"..	c #E1C3A0",
"+.	c #DDCBB7",
"@.	c #E7D8C6",
"#.	c #F3E5D4",
"$.	c #FFF1E2",
"%.	c #FFF2E5",
"&.	c #FFECD9",
"*.	c #DDAC7A",
"=.	c #CD7000",
"-.	c #F98800",
";.	c #FD8E07",
">.	c #F99C2C",
",.	c #F8A340",
"'.	c #FAAC50",
").	c #FCB460",
"!.	c #FFBC70",
"~.	c #FFC27D",
"{.	c #FFC687",
"].	c #DD7900",
"^.	c #FF8C00",
"/.	c #FF910E",
"(.	c #FF981E",
"_.	c #FF9F2E",
":.	c #FFA63F",
"<.	c #FFAD4F",
"[.	c #FFB45F",
"}.	c #FFBB70",
"|.	c #FF8F09",
"1.	c #FF9619",
"2.	c #FF9D2A",
"3.	c #FFA43A",
"4.	c #FFAB4A",
"5.	c #FFB25B",
"6.	c #FFB96B",
"7.	c #E37C00",
"8.	c #FF8D04",
"9.	c #FF9415",
"0.	c #FF9B25",
"a.	c #FFA235",
"b.	c #FFA946",
"c.	c #FFB056",
"d.	c #FFB766",
"e.	c #FFBE77",
"f.	c #C87817",
"g.	c #F3921C",
"h.	c #FD8E05",
"i.	c #FF9210",
"j.	c #FF9920",
"k.	c #FFA031",
"l.	c #FFA741",
"m.	c #F9BB7B",
"n.	c #CD9F6E",
"o.	c #080808",
"p.	c #E1C199",
"q.	c #F3A03B",
"r.	c #F89824",
"s.	c #F9961D",
"t.	c #FD9110",
"u.	c #FF971C",
"v.	c #FF9E2C",
"w.	c #FFA53C",
"x.	c #FFBB71",
"y.	c #FFC88D",
"z.	c #D7D3CE",
"A.	c #DBCBB7",
"B.	c #DDC9B1",
"C.	c #FAA239",
"D.	c #FCAA49",
"E.	c #FFB259",
"F.	c #FFB866",
"G.	c #FFBE74",
"H.	c #FFCB92",
"I.	c #FFF5EB",
"J.	c #BEAE99",
"K.	c #E7D5BF",
"L.	c #F3E2CE",
"M.	c #FFEFDC",
"N.	c #FFF0DF",
"O.	c #FFF4E9",
"P.	c #C2B4A2",
"Q.	c #B89368",
"R.	c #D2CCC3",
"S.	c #D3882D",
"T.	c #DCC9B1",
"U.	c #FFFCF9",
"V.	c #FFF3E7",
"W.	c #DB7B04",
"X.	c #F89823",
"Y.	c #E7D4BC",
"Z.	c #F3E0CB",
"`.	c #FFEDD9",
" +	c #FFEEDC",
".+	c #FFEFDE",
"++	c #FFE8CD",
"@+	c #FFC98D",
"#+	c #FFC789",
"$+	c #FFC78D",
"%+	c #FA9A26",
"&+	c #FCA031",
"*+	c #FFA842",
"=+	c #FFAE4F",
"-+	c #FFB35C",
";+	c #FFB765",
">+	c #FFB561",
",+	c #FF8E07",
"'+	c #FF9517",
")+	c #FF9C27",
"!+	c #FFA338",
"~+	c #FF8C02",
"{+	c #FF9312",
"]+	c #FF9A23",
"^+	c #FFA133",
"/+	c #FFA843",
"(+	c #B06000",
"_+	c #B16100",
":+	c #FA8900",
"<+	c #FABB78",
"[+	c #E38B25",
"}+	c #F38500",
"|+	c #B66300",
"1+	c #FE8B00",
"2+	c #E97F00",
"3+	c #E88000",
"4+	c #A05C00",
"5+	c #F9A544",
"6+	c #A07842",
"7+	c #D27300",
"8+	c #F98900",
"9+	c #D27500",
"0+	c #885100",
"a+	c #774800",
"b+	c #885C1B",
"c+	c #77541D",
"d+	c #88632B",
"e+	c #DF7A00",
"f+	c #DE7B00",
"g+	c #DC7B00",
"h+	c #CC7200",
"i+	c #764800",
"j+	c #764903",
"k+	c #764A05",
"l+	c #774D0B",
"m+	c #885914",
"n+	c #E37E00",
"o+	c #D97700",
"p+	c #CB7000",
"q+	c #D87800",
"r+	c #DD7B00",
"s+	c #E47D00",
"t+	c #DE7900",
"                                                                                                ",
"                                                                                                ",
"                                                                                                ",
"                                                                                                ",
"                                    . . . .                                                     ",
"                                  . + @ # $ .                                                   ",
"                                . . % @ & . .                                                   ",
"                                . * . . . = .                                                   ",
"                                . - ; > , ' ) .                                                 ",
"                                . ! ~ { ] ^ / .                                                 ",
"                                . ( _ : < ^ [ .                                                 ",
"                              . } | 1 2 3 4 5 ) .                                               ",
"                              6 7 8 9 0 a b c d e                                               ",
"                              f g h i j k l m n o                                               ",
"                              p q r s t u v w x y z                                             ",
"                            A B C D E F G H H H I J                                             ",
"                            K L M D D N O P P H Q R                                             ",
"                            f S T U E F G H H V W X Y                                           ",
"                            Z `  ...+.@.#.$.%.&.m *.e                                           ",
"                          . =.-.;.>.,.'.).!.~.{.c [ .                                           ",
"                          . ].^.^./.(._.:.<.[.}.^ 5 ) .                                         ",
"                          . ].^.^.|.1.2.3.4.5.6.^ ^ / .                                         ",
"                          . 7.^.^.8.9.0.a.b.c.d.e.^ [ .                                         ",
"                        Z f.g.h.^.^.i.j.k.l.~ { ] ^ m.n.o.                                      ",
"                        f S p.q.r.s.t.u.v.w._ : x.y.m n o                                       ",
"                        K L z.A.B.p. .C.D.E.F.G.H.&.I.x y z                                     ",
"                        K J.E E E r T K.L.M.N.$.O.V H H I J                                     ",
"                        p P.E D D D E F G H H H H P P H Q R                                     ",
"                      f Q.R.E E E D D N O P P P P H H V W X Y                                   ",
"                      6 S.p.B.T.A.r E F G H H H U.O.V.&.m *.e                                   ",
"                      . W.s.X.r.q.p.B.Y.Z.`. +.+++@+#+$+c [ .                                   ",
"                      . 7.^.^.^.h.s.X.%+&+*+=+-+;+>+< ^ ^ 5 ) .                                 ",
"                    . =.-.^.^.^.^.^.^.^.,+'+)+!+1 2 3 4 ^ ^ / . . .                             ",
"                  . . ].^.^.^.^.^.^.^.^.~+{+]+^+/+0 a b ^ ^ [ . (+% . .                         ",
"              . . _+. ].^.^.^.^.^.^.^.^.^./.(._.:.<.[.}.^ ^ 5 ) . ].7.=.. .                     ",
"            . =.7.].. 7.:+^.:+^.^.^.^.^.^.|.1.2.3.4.5.6.<+^ [.[+. 7.^.}+|+.                     ",
"          . |+}+1+-.2+-.3+4+^.^.^.^.^.^.^.8.9.0.a.5+c.d.e.6+3+-.2+-.-.7+.                       ",
"          . . =.].].7.-.8+9+0+a+0+^.^.^.^.^.i.j.k.l.b+c+d+9+8+^.-.7.=..                         ",
"              . . . . =.].e+f+g+h+0+a+i+i+i+j+k+l+m+h+g+n+8+-.7.=.. . . .                       ",
"                . . . . . . =.].o+p+q+g+g+g+g+g+r+n+8+-.s+].=.. . . . . .                       ",
"                . . . . . . . . . . =.].t+s+-.^.^.-.7.=.. . . . . . . .                         ",
"                  . . . . . . . . . . . . . =.].].=.. . . . . . . . .                           ",
"                        . . . . . . . . . . . . . . . . . . . . . .                             ",
"                              . . . . . . . . . . . . . . . . .                                 ",
"                                      . . . . . . . . . .                                       ",
"                                              . . . .                                           ",
"                                                                                                ",
"                                                                                                "};
