/* XPM */
static char * vlc_xpm[] = {
"48 48 237 2",
"  	c None",
". 	c #000000",
"+ 	c #B96500",
"@ 	c #D47E18",
"# 	c #CD7F24",
"$ 	c #9D611C",
"% 	c #B86500",
"& 	c #BF7722",
"* 	c #9C682D",
"= 	c #A47A4F",
"- 	c #CE8838",
"; 	c #DC974A",
"> 	c #D69955",
", 	c #DCA366",
"' 	c #F1B474",
") 	c #C08F5C",
"! 	c #D58B36",
"~ 	c #FFAE51",
"{ 	c #FFB562",
"] 	c #FFBC72",
"^ 	c #FFBF7B",
"/ 	c #D59F66",
"( 	c #DC8E33",
"_ 	c #FFAC4D",
": 	c #FFB35D",
"< 	c #FFBA6D",
"[ 	c #DCA46A",
"} 	c #C0751D",
"| 	c #F89E36",
"1 	c #FFAA48",
"2 	c #FFB158",
"3 	c #FFB869",
"4 	c #FFBF79",
"5 	c #F8B977",
"6 	c #030303",
"7 	c #D38A35",
"8 	c #FDAC4D",
"9 	c #FFAF54",
"0 	c #FFB664",
"a 	c #FFBD74",
"b 	c #FDBF7D",
"c 	c #D3A371",
"d 	c #020202",
"e 	c #111111",
"f 	c #D3B898",
"g 	c #FDE2C2",
"h 	c #FDBD73",
"i 	c #FDB96B",
"j 	c #FDBF78",
"k 	c #FDC587",
"l 	c #FDCF9E",
"m 	c #DAC4AE",
"n 	c #272727",
"o 	c #2A2A2A",
"p 	c #DACDBC",
"q 	c #FDF9F5",
"r 	c #FDF0E1",
"s 	c #FDEFDE",
"t 	c #FDF1E4",
"u 	c #FDF4EA",
"v 	c #F6F2ED",
"w 	c #BEB0A2",
"x 	c #171717",
"y 	c #BEA689",
"z 	c #F6F2EE",
"A 	c #FEFEFE",
"B 	c #FDFCFC",
"C 	c #D3CAC0",
"D 	c #131313",
"E 	c #D3C2AE",
"F 	c #FDFCFB",
"G 	c #DAD2C9",
"H 	c #2B2B2B",
"I 	c #D3B591",
"J 	c #FDEDD9",
"K 	c #FDFBF8",
"L 	c #F6EBDF",
"M 	c #BEAA95",
"N 	c #050505",
"O 	c #DA851D",
"P 	c #FDAC4A",
"Q 	c #FDDFBC",
"R 	c #FDECD8",
"S 	c #FDEDDB",
"T 	c #FDF1E3",
"U 	c #FDEBD7",
"V 	c #D5A675",
"W 	c #C06900",
"X 	c #F88800",
"Y 	c #FF8F08",
"Z 	c #FDA031",
"` 	c #FDA946",
" .	c #FDAF54",
"..	c #FDB561",
"+.	c #FDBB6F",
"@.	c #FDC07C",
"#.	c #FDC485",
"$.	c #FFC07E",
"%.	c #D57400",
"&.	c #FF8C00",
"*.	c #FF910E",
"=.	c #FF981E",
"-.	c #FF9F2E",
";.	c #FFA63F",
">.	c #FFAD4F",
",.	c #FFB45F",
"'.	c #FFBB70",
").	c #FF8F09",
"!.	c #FF9619",
"~.	c #FF9D2A",
"{.	c #FFA43A",
"].	c #FFAB4A",
"^.	c #FFB25B",
"/.	c #FFB96B",
"(.	c #DC7800",
"_.	c #FF8D04",
":.	c #FF9415",
"<.	c #FF9B25",
"[.	c #FFA235",
"}.	c #FFA946",
"|.	c #FFB056",
"1.	c #FFB766",
"2.	c #FFBE77",
"3.	c #BE7318",
"4.	c #F69520",
"5.	c #FF8F07",
"6.	c #FF9210",
"7.	c #FF9920",
"8.	c #FFA031",
"9.	c #FFA741",
"0.	c #F6B979",
"a.	c #BE9366",
"b.	c #040404",
"c.	c #FDDDB5",
"d.	c #FDAA45",
"e.	c #FD9E29",
"f.	c #FD9A21",
"g.	c #FF9311",
"h.	c #FF971C",
"i.	c #FF9E2C",
"j.	c #FFA53C",
"k.	c #FFBB71",
"l.	c #FDC68C",
"m.	c #FDF9F4",
"n.	c #FDE9D1",
"o.	c #FDA53D",
"p.	c #FDAB4A",
"q.	c #FDB158",
"r.	c #FDB765",
"s.	c #FDCA91",
"t.	c #141414",
"u.	c #D3C2AF",
"v.	c #FDEBD5",
"w.	c #FDEDDA",
"x.	c #FDEEDD",
"y.	c #FDEFE0",
"z.	c #FDF2E7",
"A.	c #FDFAF8",
"B.	c #DACCBB",
"C.	c #BE9C73",
"D.	c #F6EEE6",
"E.	c #D58C34",
"F.	c #FDE9D2",
"G.	c #FDFAF7",
"H.	c #FDF3E7",
"I.	c #FDF2E5",
"J.	c #FDEBD8",
"K.	c #D57705",
"L.	c #FD9D28",
"M.	c #FDEAD5",
"N.	c #FDECD7",
"O.	c #FDEEDC",
"P.	c #FDE6CC",
"Q.	c #FDC88C",
"R.	c #FDC688",
"S.	c #FDA133",
"T.	c #FDA741",
"U.	c #FDAD4E",
"V.	c #FDB25A",
"W.	c #FDB664",
"X.	c #FFB561",
"Y.	c #FF8E07",
"Z.	c #FF9517",
"`.	c #FF9C27",
" +	c #FFA338",
".+	c #FF8C02",
"++	c #FF9312",
"@+	c #FF9A23",
"#+	c #FFA133",
"$+	c #FFA843",
"%+	c #9C5500",
"&+	c #9D5600",
"*+	c #FA8900",
"=+	c #E98100",
"-+	c #FABB78",
";+	c #E9AE6D",
">+	c #FAB05C",
",+	c #DC8724",
"'+	c #F08300",
")+	c #A45A00",
"!+	c #FE8B00",
"~+	c #E37C00",
"{+	c #E88000",
"]+	c #A05C00",
"^+	c #CC7200",
"/+	c #DC7B00",
"(+	c #E37E00",
"_+	c #F98900",
":+	c #F9A544",
"<+	c #E39D4A",
"[+	c #DC9E55",
"}+	c #CC985A",
"|+	c #A07842",
"1+	c #C76D00",
"2+	c #D27500",
"3+	c #885100",
"4+	c #774800",
"5+	c #DC800D",
"6+	c #DC851A",
"7+	c #DC8B28",
"8+	c #CC8731",
"9+	c #885C1B",
"0+	c #77541D",
"a+	c #88632B",
"b+	c #D77600",
"c+	c #DC7A00",
"d+	c #764800",
"e+	c #764903",
"f+	c #764A05",
"g+	c #774D0B",
"h+	c #885914",
"i+	c #D07200",
"j+	c #C46D00",
"k+	c #D67700",
"l+	c #DD7B00",
"m+	c #DD7900",
"n+	c #D67500",
"                                                                                                ",
"                                                                                                ",
"                                                                                                ",
"                                                                                                ",
"                                    . . . .                                                     ",
"                                  . + @ # $ .                                                   ",
"                                . . % @ & . .                                                   ",
"                                . * . . . = .                                                   ",
"                                . - ; > , ' ) .                                                 ",
"                                . ! ~ { ] ^ / .                                                 ",
"                                . ( _ : < ^ [ .                                                 ",
"                              . } | 1 2 3 4 5 ) .                                               ",
"                              6 7 8 1 9 0 a b c d                                               ",
"                              e f g h i j k l m n                                               ",
"                              o p q r s r t u v w x                                             ",
"                            x y z A B B B B B B C D                                             ",
"                            D E F A A A A A A B G H                                             ",
"                            e I J q B B B B B K L M D                                           ",
"                            N O P Q R S s r T U l V 6                                           ",
"                          . W X Y Z `  ...+.@.#.$.[ .                                           ",
"                          . %.&.&.*.=.-.;.>.,.'.^ 5 ) .                                         ",
"                          . %.&.&.).!.~.{.].^./.^ ^ / .                                         ",
"                          . (.&.&._.:.<.[.}.|.1.2.^ [ .                                         ",
"                        N 3.4.5.&.&.6.7.8.9.~ { ] ^ 0.a.b.                                      ",
"                        e I c.d.e.f.g.h.i.j._ : k.l.l m n                                       ",
"                        D E m.J n.c.P o.p.q.r.h s.U u v w x                                     ",
"                        t.u.B B B q J v.R w.x.y.z.A.B B C D                                     ",
"                        H B.B A A A B B B B B B B A A B G H                                     ",
"                      D C.D.B B B A A A A A A A A B B K L M D                                   ",
"                      6 E.c.n.F.J q B B B B B B G.H.I.J.l V 6                                   ",
"                      . K.f.L.e.d.c.n.F.M.N.w.O.P.Q.R.l.$.[ .                                   ",
"                      . (.&.&.&.5.f.L.e.S.T.U.V.W.X.< ^ ^ 5 ) .                                 ",
"                    . W X &.&.&.&.&.&.&.Y.Z.`. +1 2 3 4 ^ ^ / . . .                             ",
"                  . . %.&.&.&.&.&.&.&.&..+++@+#+$+9 0 a ^ ^ [ . %+% . .                         ",
"              . . &+. %.&.&.&.&.&.&.&.&.&.*.=.-.;.>.,.'.^ ^ 5 ) . %.(.W . .                     ",
"              W (.%.. (.*+=+*+&.&.&.&.&.&.).!.~.{.].^./.-+;+>+,+. (.&.'+)+.                     ",
"          . )+'+!+X ~+X {+]+^+/+(+_+&.&.&._.:.<.[.:+<+[+}+|+{+X ~+X X 1+.                       ",
"          . . W %.%.(.X _+2+3+4+3+^+/+/+/+/+5+6+7+8+9+0+a+2+_+&.X (.W .                         ",
"              . . . . W %.b+c+/+^+3+4+d+d+d+e+f+g+h+^+/+(+_+X (.W . . .                         ",
"                    . . . . W %.i+j+k+/+/+/+/+/+l+(+_+X m+%.W . . . . . .                       ",
"                . . . . . . . . . . W %.n+m+X &.&.X (.W . . . . . . . . .                       ",
"                . . . . . . . . . . . . . . W %.%.W . . . . . . . . . . .                       ",
"                . . . . . . . . . . . . . . . . . . . . . . . . . . . .                         ",
"                        . . . . . . . . . . . . . . . . . . . . . .                             ",
"                              . . . . . . . . . . . . . . . . .                                 ",
"                                      . . . . . . . . . .                                       ",
"                                              . . . .                                           ",
"                                                                                                "};
