/* XPM */
static char * vlc_xpm[] = {
"32 32 228 2",
"  	c None",
". 	c #8A4E06",
"+ 	c #915917",
"@ 	c #583710",
"# 	c #271A0B",
"$ 	c #894D06",
"% 	c #8C5616",
"& 	c #281E13",
"* 	c #875A26",
"= 	c #966935",
"- 	c #966E42",
"; 	c #C2915D",
"> 	c #3B2C1C",
", 	c #956025",
"' 	c #FFB055",
") 	c #FFB96B",
"! 	c #F4B776",
"~ 	c #4A3824",
"{ 	c #3B2409",
"] 	c #CF832B",
"^ 	c #FFAD4F",
"/ 	c #FFB665",
"( 	c #FBBC78",
"_ 	c #AC8052",
": 	c #4D3921",
"< 	c #E6A860",
"[ 	c #FBAE55",
"} 	c #FEB665",
"| 	c #FFC27F",
"1 	c #EABB8A",
"2 	c #161616",
"3 	c #5D5750",
"4 	c #D2C5B5",
"5 	c #E6C8A4",
"6 	c #F3D5B2",
"7 	c #FFE6CB",
"8 	c #F6E7D9",
"9 	c #7E756E",
"0 	c #1C1C1C",
"a 	c #C1B19D",
"b 	c #D5D4D3",
"c 	c #DADADA",
"d 	c #ECECEC",
"e 	c #FFFEFE",
"f 	c #A39C96",
"g 	c #191919",
"h 	c #CAB59B",
"i 	c #D8D3CC",
"j 	c #FFFDFC",
"k 	c #D6C9BD",
"l 	c #534D46",
"m 	c #3F2404",
"n 	c #EC8D1B",
"o 	c #EDAD60",
"p 	c #E8C294",
"q 	c #F3D1A8",
"r 	c #FFE0BE",
"s 	c #FFE0BF",
"t 	c #F4C08A",
"u 	c #4D3B29",
"v 	c #904F00",
"w 	c #FD8B01",
"x 	c #FD9211",
"y 	c #FD9E2F",
"z 	c #FEA844",
"A 	c #FFB45F",
"B 	c #FFBD73",
"C 	c #FBBC79",
"D 	c #955100",
"E 	c #FF8C00",
"F 	c #FF8E05",
"G 	c #FF981D",
"H 	c #FFA133",
"I 	c #FFAD4E",
"J 	c #FFB664",
"K 	c #FFBF7A",
"L 	c #EAAF70",
"M 	c #000000",
"N 	c #3D260B",
"O 	c #CB7712",
"P 	c #FE8D02",
"Q 	c #FF8C01",
"R 	c #FF9517",
"S 	c #FF9E2D",
"T 	c #FFAA48",
"U 	c #FFB35E",
"V 	c #FFBD76",
"W 	c #F6B978",
"X 	c #685239",
"Y 	c #51493E",
"Z 	c #D4BD9F",
"` 	c #ECAC5F",
" .	c #F0A64B",
"..	c #FB9822",
"+.	c #FEA030",
"@.	c #FFAC4B",
"#.	c #FFB460",
"$.	c #FFC78A",
"%.	c #FFDAB2",
"&.	c #C0B2A5",
"*.	c #4E4B48",
"=.	c #514C45",
"-.	c #CEC8BF",
";.	c #D8D1CA",
">.	c #DACEC1",
",.	c #E6C091",
"'.	c #F3CC9D",
").	c #FFDCB2",
"!.	c #FFDFBB",
"~.	c #FFECD8",
"{.	c #FFFAF5",
"].	c #F1EBE6",
"^.	c #5E5A56",
"/.	c #827668",
"(.	c #D1CDC8",
"_.	c #D6D6D6",
":.	c #FFFFFF",
"<.	c #F8F4F0",
"[.	c #978F86",
"}.	c #0B0B0B",
"|.	c #D09F63",
"1.	c #DBCAB6",
"2.	c #DACDBE",
"3.	c #D8D2CC",
"4.	c #FFFBF7",
"5.	c #FFF7EF",
"6.	c #FEE9D4",
"7.	c #E4BE96",
"8.	c #0D0D0D",
"9.	c #E78308",
"0.	c #FB9416",
"a.	c #F9961E",
"b.	c #EDAA58",
"c.	c #E8BB84",
"d.	c #F3C793",
"e.	c #FFD7A9",
"f.	c #FFDAB1",
"g.	c #FFD19C",
"h.	c #FFC37F",
"i.	c #FFC384",
"j.	c #F1B575",
"k.	c #663800",
"l.	c #F68700",
"m.	c #FD8E07",
"n.	c #FD900C",
"o.	c #FE9312",
"p.	c #FF9E2A",
"q.	c #FFA63F",
"r.	c #FFB765",
"s.	c #FEBE7A",
"t.	c #906B45",
"u.	c #271600",
"v.	c #935100",
"w.	c #FF9516",
"x.	c #FF9E2C",
"y.	c #FFAA47",
"z.	c #FFB35D",
"A.	c #FFBD75",
"B.	c #FFBF7B",
"C.	c #B38656",
"D.	c #653C0B",
"E.	c #A25900",
"F.	c #472700",
"G.	c #3B2000",
"H.	c #925000",
"I.	c #8A4B00",
"J.	c #965200",
"K.	c #FD8B00",
"L.	c #FF9210",
"M.	c #FF9B26",
"N.	c #FFA741",
"O.	c #FFB057",
"P.	c #FEBB71",
"Q.	c #F2A958",
"R.	c #493013",
"S.	c #E87F00",
"T.	c #EB8100",
"U.	c #512C00",
"V.	c #9E5600",
"W.	c #EF8300",
"X.	c #ED8100",
"Y.	c #F38500",
"Z.	c #D97900",
"`.	c #CA7200",
" +	c #D47600",
".+	c #F28500",
"++	c #FF8F08",
"@+	c #FF981E",
"#+	c #FEA339",
"$+	c #E39A43",
"%+	c #D49953",
"&+	c #BE853D",
"*+	c #F38400",
"=+	c #AB5E00",
"-+	c #291600",
";+	c #482700",
">+	c #4A2900",
",+	c #AC5E00",
"'+	c #E27C00",
")+	c #CA7100",
"!+	c #B96900",
"~+	c #B26500",
"{+	c #A45F00",
"]+	c #A46002",
"^+	c #A4630C",
"/+	c #A86C1B",
"(+	c #B36D12",
"_+	c #BE700B",
":+	c #DF7E05",
"<+	c #F58600",
"[+	c #E17B00",
"}+	c #492800",
"|+	c #170C00",
"1+	c #5B3200",
"2+	c #8A4C00",
"3+	c #D77700",
"4+	c #DD7A00",
"5+	c #E17D00",
"6+	c #E78000",
"7+	c #E98100",
"8+	c #EF8400",
"9+	c #CF7100",
"0+	c #955200",
"a+	c #462600",
"b+	c #4A2800",
"c+	c #7C4400",
"d+	c #E47D00",
"e+	c #2E1900",
"                                                                ",
"                                                                ",
"                                                                ",
"                        . + @                                   ",
"                      # $ % &                                   ",
"                      * = - ; >                                 ",
"                      , ' ) ! ~                                 ",
"                    { ] ^ / ( _                                 ",
"                    : < [ } | 1 2                               ",
"                    3 4 5 6 7 8 9                               ",
"                  0 a b c d e e f                               ",
"                  g h i c d e j k l                             ",
"                  m n o p q r s t u                             ",
"                  v w x y z A B C _                             ",
"                  D E F G H I J K L M                           ",
"                N O P Q R S T U V W X                           ",
"                Y Z `  ...+.@.#.$.%.&.*.                        ",
"                =.-.;.>.,.'.).!.~.{.].^.                        ",
"                /.(._._.c d e e e :.<.[.                        ",
"              }.|.1.2.3.c d e e 4.5.6.7.8.                      ",
"              M 9.0.a.b.c.d.e.f.g.h.i.j.>                       ",
"              k.l.E Q m.n.o.p.q.' r.K s.t.M                     ",
"            u.v.E E E E E Q w.x.y.z.A.B.C.D.E.F.                ",
"        G.H.I.J.K.K.E E E E L.M.N.O.P.s.Q.R.S.T.U.              ",
"      M V.W.X.Y.Z.`. +.+E E ++@+#+$+%+&+.+*+W.=+                ",
"        -+;+>+,+'+)+!+~+{+{+]+^+/+(+_+:+<+[+}+|+                ",
"          M M M M 1+H.2+3+4+5+6+7+8+9+0+1+M M M                 ",
"            M M M M M M a+b+c+d+d+c+e+M M M M M                 ",
"                M M M M M M M M M M M M M M                     ",
"                        M M M M M M M M                         ",
"                                M M                             ",
"                                                                "};
