/* XPM */
static const char *const vlc16x16_xpm[] = {
/* width height ncolors chars_per_pixel */
"16 16 57 2",
/* colors */
"AA c #A6A646460E0E",
"BA c #CACA92926262",
"CA c #C2C28E8E5E5E",
"DA c #FEFEBABA1A1A",
"EA c #AEAEBABAC6C6",
"FA c #E6E66A6A0202",
"GA c #C6C6CECECECE",
"HA c #E2E27E7E2222",
"IA c #D6D65A5A0202",
"JA c #C2C296967272",
"KA c #EEEE76760202",
"LA c #CACABEBEB2B2",
"MA c #CECEDADAE2E2",
"NA c #E2E25E5E0202",
"OA c #E6E672720202",
"PA c #FEFEAEAE1A1A",
"AB c #FAFA8E8E0202",
"BB c #A6A6B2B2BEBE",
"CB c #BABA3E3E0202",
"DB c #CECED6D6DEDE",
"EB c #C2C2C6C6CACA",
"FB c #EEEE6A6A0202",
"GB c #C6C6D2D2D6D6",
"HB c #F6F67E7E0202",
"IB c #D6D662620202",
"JB c #CECECACAC6C6",
"KB c #E6E666660202",
"LB c #CACAB6B69A9A",
"MB c #E6E66E6E0202",
"NB c #F2F27A7A0202",
"OB c #DADAC2C2AAAA",
"PB c #D6D6DEDEE2E2",
"AC c #EEEE72720202",
"BC c #BABA46460202",
"CC c #FEFE9E9E1A1A",
"DC c #B2B24E4E0E0E",
"EC c #FEFEBEBE1A1A",
"FC c #B2B2C2C2CECE",
"GC c #C6C6CECED6D6",
"HC c #DADA5A5A0202",
"IC c #CACAA2A27676",
"JC c #EEEE76760E0E",
"KC c #CECEC2C2B6B6",
"LC c #D2D2DEDEE6E6",
"MC c #E2E262620202",
"NC c #FEFEB6B61A1A",
"OC c #EAEA8E8E2A2A",
"PC c #A6A6B6B6C2C2",
"AD c #BEBECACAD2D2",
"BD c #F2F282820E0E",
"CD c #DEDE66660202",
"DD c #EAEA66660202",
"ED c #CACAB6B69E9E",
"FD c #F2F272720202",
"GD c #C2C24A4A0202",
"HD c #FEFEA2A21A1A",
"ID s bg c None",
/* pixels */
"IDIDIDIDIDIDIDIDIDIDIDIDIDIDIDID",
"IDIDIDIDIDIDIDOAOAIDIDIDIDIDIDID",
"IDIDIDIDIDIDIDOCOCIDIDIDIDIDIDID",
"IDIDIDIDIDIDOCPBDBOCIDIDIDIDIDID",
"IDIDIDIDIDIDEALCMABBIDIDIDIDIDID",
"IDIDIDIDIDIDICOBOBJAIDIDIDIDIDID",
"IDIDIDIDIDIDFAFDHBFAIDIDIDIDIDID",
"IDIDIDIDIDACMBFDHBKAACIDIDIDIDID",
"IDIDIDIDIDHAHAJCBDHAHAIDIDIDIDID",
"IDIDIDIDIDFCGAJBJBEBFCIDIDIDIDID",
"IDIDIDIDDCFCGCGBGBADPCDCIDIDIDID",
"IDIDIDIADCBAEDLAKCLBCAAACBIDIDID",
"IDIDCDCDGDHCMCKBACACNABCIBCDIDID",
"IDABABABKAFAKBDDFBACKANBABABABID",
"IDECNCNCPACCCCCCCCHDHDPADAECECID",
"IDIDGDGDGDGDGDGDGDGDGDGDGDGDIDID"};
