/* XPM */
static char * vlc16x16_xpm[] = {
"16 16 71 1",
" 	c None",
".	c #3E2201",
"+	c #B07732",
"@	c #483622",
"#	c #653D0D",
"$	c #FFC462",
"%	c #B68653",
"&	c #9D815F",
"*	c #F8CB8B",
"=	c #F1CEA8",
"-	c #BDB8B3",
";	c #E4ECF7",
">	c #FFFFFF",
",	c #75706B",
"'	c #F19827",
")	c #F1B670",
"!	c #FED69D",
"~	c #B78F65",
"{	c #693D07",
"]	c #FF9000",
"^	c #FD8E0B",
"/	c #FEAA46",
"(	c #F1B36D",
"_	c #918576",
":	c #EDC797",
"<	c #F1AE5F",
"[	c #FCC382",
"}	c #FFECCE",
"|	c #908B88",
"1	c #B6A38C",
"2	c #DADCDF",
"3	c #DFE9F5",
"4	c #FDFFFF",
"5	c #FEFFFF",
"6	c #D6C4B3",
"7	c #F18A09",
"8	c #F79822",
"9	c #F2A84F",
"0	c #FDBC71",
"a	c #FCC079",
"b	c #FABF7B",
"c	c #362819",
"d	c #8F4E00",
"e	c #FB8C00",
"f	c #FF8900",
"g	c #FF8800",
"h	c #FF9410",
"i	c #FFAC4D",
"j	c #F8C382",
"k	c #AA7233",
"l	c #A25500",
"m	c #7B4300",
"n	c #BA6600",
"o	c #D17300",
"p	c #D97B02",
"q	c #E48102",
"r	c #DC830F",
"s	c #D88C2D",
"t	c #DF8E27",
"u	c #E38003",
"v	c #884A00",
"w	c #000000",
"x	c #231300",
"y	c #492800",
"z	c #7B4500",
"A	c #B66500",
"B	c #C16900",
"C	c #693600",
"D	c #1F1000",
"E	c #090400",
"F	c #070400",
"                ",
"      .         ",
"      +@        ",
"     #$%        ",
"     &*=        ",
"     -;>,       ",
"     ')!~       ",
"    {]^/(       ",
"    _:<[}|      ",
"    123456      ",
"    7890abc     ",
"   defghijkl    ",
"  mnopqrstuv    ",
"   wxyzABCDw    ",
"       EF       ",
"                "};
