/* XPM */
static char * vlc16x16_xpm[] = {
"16 16 70 1",
" 	c None",
".	c #D07515",
"+	c #B0600D",
"@	c #CA7215",
"#	c #AD5F0D",
"$	c #F3AD60",
"%	c #C2701A",
"&	c #B16C24",
"*	c #FAFAFA",
"=	c #D4D4D3",
"-	c #C3C3C3",
";	c #F9EEE3",
">	c #D2D2D2",
",	c #C3C2C1",
"'	c #BAA38C",
")	c #E5841E",
"!	c #BC7022",
"~	c #AF6518",
"{	c #AC5E0D",
"]	c #F0A95E",
"^	c #DC7B17",
"/	c #B8650E",
"(	c #AE5F0D",
"_	c #B0671C",
":	c #FDFDFD",
"<	c #E9DCCD",
"[	c #C7AF96",
"}	c #BEAA96",
"|	c #C2BFBC",
"1	c #FDF6ED",
"2	c #E8E8E8",
"3	c #CDCDCD",
"4	c #BAA187",
"5	c #DB7711",
"6	c #D87611",
"7	c #E68826",
"8	c #D69E64",
"9	c #C29A72",
"0	c #B89065",
"a	c #B4793C",
"b	c #AF600E",
"c	c #BC6A13",
"d	c #CB6F10",
"e	c #C86E0F",
"f	c #DE7A12",
"g	c #C96E10",
"h	c #B6640E",
"i	c #AD5E0D",
"j	c #DB7913",
"k	c #462706",
"l	c #BF680E",
"m	c #BE680E",
"n	c #B4620E",
"o	c #AB5E0D",
"p	c #A65A0C",
"q	c #A75B0D",
"r	c #8C4D0A",
"s	c #301A04",
"t	c #BB670F",
"u	c #D07210",
"v	c #C46C0F",
"w	c #AA5D0D",
"x	c #784209",
"y	c #361E04",
"z	c #0C0701",
"A	c #201203",
"B	c #5A3106",
"C	c #412305",
"D	c #130A01",
"E	c #000000",
"                ",
"       .+       ",
"       @#       ",
"      $%&       ",
"      *=-       ",
"      ;>,'      ",
"      )!~{      ",
"     ]^/(_      ",
"     :<[}|      ",
"     123--4     ",
"   567890abc    ",
"   defgh(((ij   ",
"   k{lmnopq{r   ",
"    stuvwxyz    ",
"     ABCDE      ",
"                "};
