/* XPM */
static char * vlc_xpm[] = {
"32 32 221 2",
"  	c None",
". 	c #E17F17",
"+ 	c #C26E14",
"@ 	c #B6640E",
"# 	c #E4821C",
"$ 	c #BA660E",
"% 	c #AE5F0D",
"& 	c #E0821E",
"* 	c #B7650E",
"= 	c #AF600D",
"- 	c #ED881D",
"; 	c #D97D1B",
"> 	c #AA5D0C",
", 	c #F39229",
"' 	c #D17415",
") 	c #B5630E",
"! 	c #AF5F0D",
"~ 	c #AD5E0D",
"{ 	c #F8C285",
"] 	c #CE7E2C",
"^ 	c #B66A1B",
"/ 	c #B16D26",
"( 	c #B68450",
"_ 	c #F4F4F4",
": 	c #FDFDFD",
"< 	c #DFDFDF",
"[ 	c #C9C9C8",
"} 	c #C3C3C3",
"| 	c #BDBDBD",
"1 	c #F8F8F8",
"2 	c #FBFBFB",
"3 	c #DDDDDD",
"4 	c #C9C9C9",
"5 	c #C0C0C0",
"6 	c #FEFEFD",
"7 	c #F7F7F7",
"8 	c #DBDBDB",
"9 	c #C0BEBD",
"0 	c #FBD7B0",
"a 	c #F3EEE9",
"b 	c #DADADA",
"c 	c #C2BFBC",
"d 	c #BA9A79",
"e 	c #E98013",
"f 	c #F38D22",
"g 	c #DC7F20",
"h 	c #C57D33",
"i 	c #B87938",
"j 	c #B2702D",
"k 	c #AF6517",
"l 	c #A95C0C",
"m 	c #EB8114",
"n 	c #F08B21",
"o 	c #D67714",
"p 	c #C0690F",
"q 	c #B3620D",
"r 	c #AB5D0D",
"s 	c #ED881F",
"t 	c #EA861E",
"u 	c #D17311",
"v 	c #BF680F",
"w 	c #B2620D",
"x 	c #AE5F0E",
"y 	c #F5B672",
"z 	c #E4821B",
"A 	c #CF7211",
"B 	c #BE680F",
"C 	c #B2610D",
"D 	c #AE6111",
"E 	c #B47E46",
"F 	c #FFFFFF",
"G 	c #F2E1CF",
"H 	c #DBB68F",
"I 	c #C79765",
"J 	c #BA8A57",
"K 	c #B78B5E",
"L 	c #BA9875",
"M 	c #C0B3A7",
"N 	c #C3C2C1",
"O 	c #BFBFBF",
"P 	c #FCFCFC",
"Q 	c #F3F3F3",
"R 	c #E4E4E4",
"S 	c #D3D3D3",
"T 	c #C7C7C7",
"U 	c #FFFFFE",
"V 	c #FEFEFE",
"W 	c #EFEFEF",
"X 	c #E2E2E2",
"Y 	c #C1BDB9",
"Z 	c #E88926",
"` 	c #FBDEBF",
" .	c #FCFBFA",
"..	c #EDEDED",
"+.	c #E0E0E0",
"@.	c #D2D2D2",
"#.	c #BCA287",
"$.	c #AE6F2D",
"%.	c #D87610",
"&.	c #D57511",
"*.	c #E87F12",
"=.	c #EA851C",
"-.	c #E8A259",
";.	c #E2C2A1",
">.	c #DAC6B2",
",.	c #CEC1B4",
"'.	c #C4B9AE",
").	c #C0B4A7",
"!.	c #BFAE9D",
"~.	c #BC9F82",
"{.	c #B5834E",
"].	c #AE6010",
"^.	c #B2620F",
"/.	c #C16E17",
"(.	c #DC7810",
"_.	c #E17B11",
":.	c #D97611",
"<.	c #E67D12",
"[.	c #E77E12",
"}.	c #DD7A12",
"|.	c #D17617",
"1.	c #C97927",
"2.	c #BF7932",
"3.	c #B67632",
"4.	c #B2712D",
"5.	c #B16B23",
"6.	c #AF6212",
"7.	c #A95E0F",
"8.	c #CC7315",
"9.	c #BF680E",
"0.	c #DD7911",
"a.	c #CB6F10",
"b.	c #EB8112",
"c.	c #E47D12",
"d.	c #DB7811",
"e.	c #CE7110",
"f.	c #C56C0F",
"g.	c #B1610D",
"h.	c #98530C",
"i.	c #DB7A14",
"j.	c #D87814",
"k.	c #B8640E",
"l.	c #CA6F10",
"m.	c #A85C0D",
"n.	c #DE7A11",
"o.	c #E27C12",
"p.	c #D97711",
"q.	c #CD7110",
"r.	c #AC5E0D",
"s.	c #97520B",
"t.	c #C66C0F",
"u.	c #DC7811",
"v.	c #D17312",
"w.	c #3C2206",
"x.	c #92500B",
"y.	c #B3620E",
"z.	c #CD7010",
"A.	c #D47410",
"B.	c #CC7010",
"C.	c #C46B0F",
"D.	c #B9650E",
"E.	c #AD5F0D",
"F.	c #A4590C",
"G.	c #9A540C",
"H.	c #BE670F",
"I.	c #BD680E",
"J.	c #A0580C",
"K.	c #050302",
"L.	c #261503",
"M.	c #94510B",
"N.	c #BD670F",
"O.	c #B0610D",
"P.	c #B6630E",
"Q.	c #B0600D",
"R.	c #AB5E0D",
"S.	c #A55A0C",
"T.	c #9E560C",
"U.	c #9D550C",
"V.	c #B4620E",
"W.	c #A0570C",
"X.	c #82470A",
"Y.	c #5B3207",
"Z.	c #010101",
"`.	c #1B0F02",
" +	c #764009",
".+	c #C86D0F",
"++	c #BC670F",
"@+	c #B0610E",
"#+	c #B1610E",
"$+	c #A1580C",
"%+	c #703D08",
"&+	c #492806",
"*+	c #231303",
"=+	c #070400",
"-+	c #160C02",
";+	c #7E450A",
">+	c #CA6F0F",
",+	c #DF7A11",
"'+	c #DE7911",
")+	c #D77611",
"!+	c #B2610E",
"~+	c #8F4E0B",
"{+	c #5D3307",
"]+	c #311B04",
"^+	c #140B02",
"/+	c #050300",
"(+	c #000000",
"_+	c #0F0902",
":+	c #532E06",
"<+	c #8A4B0A",
"[+	c #95510B",
"}+	c #81460A",
"|+	c #583006",
"1+	c #321B04",
"2+	c #120A01",
"3+	c #020202",
"4+	c #080501",
"5+	c #1E1002",
"6+	c #211202",
"7+	c #1A0E02",
"8+	c #0B0601",
"                                                                ",
"                                                                ",
"                            . + @                               ",
"                            # $ %                               ",
"                            & * =                               ",
"                          - ; @ = >                             ",
"                          , ' ) ! ~                             ",
"                          { ] ^ / (                             ",
"                        _ : < [ } } |                           ",
"                        1 2 3 4 } } 5                           ",
"                        6 7 8 4 } } 9                           ",
"                        0 a b 4 } c d                           ",
"                      e f g h i j k % l                         ",
"                      m n o p q % % % r                         ",
"                      s t u v w % % % x                         ",
"                      y z A B C % % D E                         ",
"                    7 F G H I J K L M N O                       ",
"                    P F Q R S T } } } } 5                       ",
"                    U V W X S T } } } } Y                       ",
"                  Z `  ...+.@.T } } } } #.$.                    ",
"              %.&.*.=.-.;.>.,.'.).!.~.{.].^./.                  ",
"          (._.:.B <.[.}.|.1.2.3.4.5.6.% % % 7.8.                ",
"          9.0.a.= b.c.d.e.f.$ g.% % % % % % h.p i.j.            ",
"            k.l.m.n.o.p.q.f.$ g.% % % % % r.s.t.u.}.v.          ",
"            w.x.y.r.z.A.B.C.D.g.% % % E.F.G.H.e.I.J.            ",
"            K.L.M.N.O.r g.P.P.Q.R.S.T.U.R.V.W.X.Y.              ",
"              Z.`. +z.&..+++@+% #+P.#+$+%+&+*+=+Z.              ",
"                Z.-+;+>+,+'+0.)+!+~+{+]+^+/+(+(+                ",
"                  Z._+:+<+[+}+|+1+2+(+(+(+(+                    ",
"                    3+4+5+6+7+8+(+(+(+                          ",
"                        3+Z.(+(+                                ",
"                                                                "};
