<?xml version="1.0" encoding="UTF-8"?>
<svg viewBox="0 0 48 48" xmlns="http://www.w3.org/2000/svg">
 <g>
  <path transform="translate(-384 -1004.4)" d="M404.53 1016.363c.216.01.425.083.595.218l11.875 9.5v-8.716c0-.554.446-1 1-1h7c.554 0 1 .446 1 1v21.997c0 .554-.446 1-1 1h-7c-.554 0-1-.446-1-1v-8.722l-11.875 9.499a1 1 0 0 1-1.625-.78v-8.717l-11.875 9.499a1 1 0 0 1-1.625-.78v-21.998a1 1 0 0 1 1.625-.78l11.875 9.5v-8.722a1 1 0 0 1 1.03-.998zm14.47 21.999h5v-19.998h-5zm-13.5-1.084 11.15-8.917-11.15-8.919Zm-13.5-17.834v17.836l11.15-8.917z" fill="#747474"/>
  <path transform="translate(-384 -1004.4)" d="m424 1018.4v20h-5v-20zm-18.5 1.08 11.15 8.92-11.15 8.918zm-13.5 0 11.15 8.92-11.15 8.918z" fill="#eee" fill-rule="evenodd"/>
 </g>
</svg>
