<?xml version="1.0" encoding="UTF-8" standalone="no"?>
<!-- Created with Inkscape (http://www.inkscape.org/) -->

<svg
   xmlns:dc="http://purl.org/dc/elements/1.1/"
   xmlns:cc="http://creativecommons.org/ns#"
   xmlns:rdf="http://www.w3.org/1999/02/22-rdf-syntax-ns#"
   xmlns:svg="http://www.w3.org/2000/svg"
   xmlns="http://www.w3.org/2000/svg"
   xmlns:sodipodi="http://sodipodi.sourceforge.net/DTD/sodipodi-0.dtd"
   xmlns:inkscape="http://www.inkscape.org/namespaces/inkscape"
   width="48"
   height="48"
   viewBox="0 0 48 48"
   id="svg2"
   version="1.1"
   inkscape:version="0.92.1 r15371"
   sodipodi:docname="win7thumbnail_prev.svg">
  <defs
     id="defs8" />
  <sodipodi:namedview
     pagecolor="#ffffff"
     bordercolor="#666666"
     borderopacity="1"
     objecttolerance="10"
     gridtolerance="10"
     guidetolerance="10"
     inkscape:pageopacity="0"
     inkscape:pageshadow="2"
     inkscape:window-width="960"
     inkscape:window-height="1028"
     id="namedview6"
     showgrid="true"
     inkscape:zoom="8"
     inkscape:cx="22.608001"
     inkscape:cy="37.082168"
     inkscape:window-x="960"
     inkscape:window-y="27"
     inkscape:window-maximized="0"
     inkscape:current-layer="layer1"
     showguides="true"
     inkscape:guide-bbox="true">
    <sodipodi:guide
       position="0,24.017661"
       orientation="1,0"
       id="guide2390"
       inkscape:locked="false" />
    <sodipodi:guide
       position="23.59322,0"
       orientation="0,1"
       id="guide2392"
       inkscape:locked="false" />
    <inkscape:grid
       type="xygrid"
       id="grid4485" />
  </sodipodi:namedview>
  <metadata
     id="metadata7">
    <rdf:RDF>
      <cc:Work
         rdf:about="">
        <dc:format>image/svg+xml</dc:format>
        <dc:type
           rdf:resource="http://purl.org/dc/dcmitype/StillImage" />
        <dc:title></dc:title>
      </cc:Work>
    </rdf:RDF>
  </metadata>
  <g
     inkscape:label="Master"
     inkscape:groupmode="layer"
     id="layer1"
     transform="translate(-384,-1004.3622)"
     style="display:inline">
    <path
       style="color:#000000;display:inline;overflow:visible;visibility:visible;opacity:1;fill:#747474;fill-opacity:1;fill-rule:nonzero;stroke:none;stroke-width:0.99993795;stroke-linecap:round;stroke-linejoin:round;stroke-miterlimit:4;stroke-dasharray:none;stroke-dashoffset:0;stroke-opacity:1;marker:none;enable-background:accumulate"
       d="m 411.4707,1016.3627 c -0.21705,0.01 -0.42615,0.083 -0.5957,0.2188 L 399,1026.0803 v -8.7157 c 0,-0.554 -0.446,-0.9999 -1,-0.9999 h -7 c -0.554,0 -1,0.4459 -1,0.9999 v 21.9972 c 0,0.554 0.446,0.9999 1,0.9999 h 7 c 0.554,0 1,-0.4459 1,-0.9999 v -8.7216 l 11.875,9.4988 c 0.65423,0.5237 1.62379,0.059 1.625,-0.7792 v -8.7176 l 11.875,9.4988 c 0.65423,0.5237 1.62379,0.059 1.625,-0.7792 v -21.9992 c -8.9e-4,-0.5631 -0.46639,-1.0144 -1.0293,-0.9979 -0.21705,0.01 -0.42615,0.083 -0.5957,0.2188 l -11.875,9.4988 v -8.7216 c -8.9e-4,-0.5632 -0.46639,-1.0144 -1.0293,-0.998 z M 397,1038.3619 h -5 v -19.9975 h 5 z m 13.5,-1.0838 -11.15039,-8.9169 11.15039,-8.9188 z m 13.5,-17.8337 v 17.8357 l -11.15039,-8.9169 z"
       id="path17266"
       inkscape:connector-curvature="0"
       sodipodi:nodetypes="cccssssssssccccccccccccccccccccccccc" />
    <path
       style="display:inline;opacity:1;fill:#eeeeee;fill-opacity:1;fill-rule:evenodd;stroke:none;stroke-width:1.00000048px;stroke-linecap:butt;stroke-linejoin:miter;stroke-opacity:1"
       d="m 392,1018.3619 v 20 h 5 v -20 z m 18.5,1.0801 -11.15039,8.92 11.15039,8.918 z m 13.5,0 -11.15039,8.92 L 424,1037.28 Z"
       id="path17268"
       inkscape:connector-curvature="0"
       sodipodi:nodetypes="ccccccccccccc" />
  </g>
</svg>
