<?xml version="1.0" encoding="UTF-8"?>
<svg viewBox="0 0 48 48" xmlns="http://www.w3.org/2000/svg">
 <g>
  <path transform="translate(-384 -1004.4)" d="M411.47 1016.363c-.216.01-.425.083-.595.218l-11.875 9.5v-8.716c0-.554-.446-1-1-1h-7c-.554 0-1 .446-1 1v21.997c0 .554.446 1 1 1h7c.554 0 1-.446 1-1v-8.722l11.875 9.499a1 1 0 0 0 1.625-.78v-8.717l11.875 9.499a1 1 0 0 0 1.625-.78v-21.998a1 1 0 0 0-1.625-.78l-11.875 9.5v-8.722a1 1 0 0 0-1.03-.998zM397 1038.362h-5v-19.998h5zm13.5-1.084-11.15-8.917 11.15-8.919zm13.5-17.834v17.836l-11.15-8.917z" fill="#747474"/>
  <path transform="translate(-384 -1004.4)" d="m392 1018.4v20h5v-20zm18.5 1.08-11.15 8.92 11.15 8.918zm13.5 0-11.15 8.92 11.15 8.918z" fill="#eee" fill-rule="evenodd"/>
 </g>
</svg>
