<?xml version="1.0" encoding="UTF-8"?>
<svg fill="none" version="1.1" viewBox="0 0 48 48" viewport="114 144" xmlns="http://www.w3.org/2000/svg">
 <path d="m1.04 0.128a1.68 1.68 0 0 1 0.645-0.128h4.56v1.68h-4.56v4.56h-1.68v-4.56c0-0.227 0.0455-0.445 0.128-0.645l0.189-0.455 0.104-0.163 0.163-0.104zm11-0.128h9.12v1.68h-9.12zm14.9 0h9.12v1.68h-9.12zm14.9 0h4.56c0.227 0 0.445 0.0455 0.645 0.128l0.455 0.189 0.163 0.104 0.104 0.163 0.189 0.455c0.0825 0.2 0.128 0.418 0.128 0.645v4.56h-1.68v-4.56h-4.56zm-40.1 12v9.12h-1.68v-9.12zm46.3 0v9.12h-1.68v-9.12zm-46.3 14.9v9.12h-1.68v-9.12zm46.3 0v9.12h-1.68v-9.12zm-46.3 14.9v4.56h4.56v1.68h-4.56a1.69 1.69 0 0 1-0.645-0.128l-0.455-0.189-0.163-0.104-0.104-0.163-0.189-0.455a1.68 1.68 0 0 1-0.128-0.645v-4.56zm46.3 0v4.56a1.69 1.69 0 0 1-0.128 0.645l-0.189 0.455-0.104 0.163-0.163 0.104-0.455 0.189a1.69 1.69 0 0 1-0.645 0.128h-4.56v-1.68h4.56v-4.56zm-36 4.56h9.12v1.68h-9.12zm14.9 0h9.12v1.68h-9.12zm-2.87-34.7v0.0067c-0.059 0-0.116 0.0021-0.171 0.0059-0.238 0.0173-0.442 0.0754-0.643 0.205-0.407 0.211-1.02 2.11-1.02 2.11l-0.407 1.27-0.0126 0.0379c1.59 0.801 2.79 0.792 4.39-0.0379 0.0362 0.0051 0.0661 0.0114 0.101 0.0164l-0.0072-0.0223-0.407-1.27s-0.611-1.9-1.02-2.11c-0.248-0.16-0.5-0.212-0.813-0.212zm3.64 7.95c-0.0248 0.0261-0.0455 0.0514-0.0707 0.0779-2.44 1.89-4.83 1.9-7.25 0.0552l-1.61 5.01-0.0198 0.061c3.05 2.68 7.48 2.66 10.5-0.061 0.04 0.0194 0.0762 0.0408 0.115 0.061l-0.021-0.0665-1.63-5.07zm2.42 7.54c-0.0198 0.0467-0.0295 0.0867-0.0522 0.136l0.406 1.27s0.407 0.844 0 1.27c-1.43 1.48-3.71 2.28-6.05 2.37-2.64 0.105-5.35-0.686-6.98-2.37-0.407-0.422 0-1.27 0-1.27l0.407-1.27h-1.67c-0.272 0-1 0.421-1.18 1.03l-1.87 6.65c-0.12 0.425 0.0055 0.745 0.216 0.971 0.272 0.29 0.682 0.422 0.883 0.422h19.7c0.0792 0 0.215-0.0328 0.363-0.101 0.147-0.0699 0.308-0.175 0.438-0.32 0.157-0.175 0.269-0.408 0.263-0.707a1.32 1.32 0 0 0-0.0518-0.323c-0.312-1.1-0.618-2.19-0.928-3.29l-0.948-3.34c-0.158-0.56-0.887-0.984-1.2-0.984h-1.72l0.0034-0.0051h-0.0034v-0.0013z" clip-rule="evenodd" fill="#000" fill-opacity=".2" fill-rule="evenodd" stroke-width=".421"/>
</svg>
