<svg id="Calque_1" data-name="Calque 1" xmlns="http://www.w3.org/2000/svg" viewBox="0 0 48 48"><title>Icon-Queue</title><rect x="8" y="17.6" width="32" height="3.2"/><rect x="8" y="8" width="32" height="3.2"/><rect x="8" y="27.2" width="13.13" height="3.2"/><path d="M29.69,27.07v8.87l-.33,0-.32,0a3.85,3.85,0,0,0-.92.13,3.32,3.32,0,0,0-.88.39,2.33,2.33,0,0,0-.65.64,1.71,1.71,0,0,0,0,1.81,2.2,2.2,0,0,0,.65.64,2.79,2.79,0,0,0,.88.39,3.32,3.32,0,0,0,1.84,0,2.79,2.79,0,0,0,.88-.39,2.2,2.2,0,0,0,.65-.64,1.61,1.61,0,0,0,.26-.9V28.69l6.19-1.55v6.72a3.37,3.37,0,0,0-.52,0,3.11,3.11,0,0,0-.89.14,2.71,2.71,0,0,0-.84.4,2.1,2.1,0,0,0-.61.65,1.72,1.72,0,0,0,0,1.75,2.1,2.1,0,0,0,.61.65,3,3,0,0,0,.84.4,3.11,3.11,0,0,0,.89.14,3.23,3.23,0,0,0,.9-.14,3,3,0,0,0,.83-.4,2.13,2.13,0,0,0,.62-.65,1.67,1.67,0,0,0,.23-.88V24.5Z"/><rect x="8" y="36.8" width="13.13" height="3.2"/></svg>