<?xml version="1.0" encoding="utf-8"?>
<!-- Generator: Adobe Illustrator 24.0.3, SVG Export Plug-In . SVG Version: 6.00 Build 0)  -->
<svg version="1.1" id="Calque_1" xmlns="http://www.w3.org/2000/svg" xmlns:xlink="http://www.w3.org/1999/xlink" x="0px" y="0px"
	 viewBox="0 0 48 48" style="enable-background:new 0 0 48 48;" xml:space="preserve">
<title>Icon-Random</title>
<path d="M14.2,19.1c1,0.4,1.9,0.9,2.8,1.5c0.9,0.6,1.7,1.3,2.5,2c0.2-0.2,0.5-0.5,0.7-0.8c0.2-0.3,0.4-0.5,0.7-0.8
	c-1.7-1.6-3.7-2.9-5.9-3.8c-2.2-0.9-4.5-1.4-6.9-1.4v2.1C10.1,17.8,12.2,18.3,14.2,19.1z"/>
<path d="M33.8,27.8l2.3,2.4c-2-0.1-4.1-0.5-5.9-1.3c-0.9-0.4-1.8-0.9-2.7-1.5c-0.9-0.6-1.7-1.2-2.4-1.9c-0.2,0.3-0.5,0.5-0.7,0.8
	c-0.2,0.3-0.4,0.5-0.7,0.8c0.8,0.8,1.8,1.5,2.7,2.1c0.9,0.6,2,1.2,3,1.6c1,0.4,2.1,0.8,3.2,1c1.1,0.2,2.3,0.4,3.4,0.4l-2.3,2.4
	l1.4,1.5l4.8-4.8l-4.8-4.8L33.8,27.8z"/>
<path d="M25.8,21.9c0.9-0.8,2-1.5,3.1-2.1c1.1-0.6,2.2-1.1,3.4-1.4c1.2-0.3,2.5-0.5,3.8-0.6l-2.3,2.3l1.4,1.5l4.8-4.8L35.2,12
	l-1.4,1.4l2.3,2.4c-2.3,0.1-4.5,0.5-6.6,1.4c-1,0.4-2,1-3,1.6c-1,0.6-1.9,1.3-2.7,2.1c-0.4,0.4-0.8,0.8-1.2,1.2s-0.8,0.8-1.1,1.3
	c-0.9,1-1.8,1.9-2.8,2.8c-1,0.8-2,1.5-3.2,2.1c-1.1,0.6-2.3,1.1-3.5,1.4c-1.3,0.3-2.7,0.5-4,0.5v2.1c2.4,0,4.7-0.4,6.9-1.4
	c2.2-0.9,4.2-2.2,5.9-3.8c0.4-0.4,0.8-0.8,1.1-1.1l1-1.2C23.9,23.7,24.8,22.8,25.8,21.9z"/>
</svg>
