/* XPM */
static const char *const type_unknown_xpm[] = {
"16 16 4 1",
"     c None",
".    c #FFFFFF",
"+    c #000000",
"@    c #BFBFBF",
"................",
"..++++++++......",
"..+......++.....",
"..+.+.+..+.+....",
"..+......++++...",
"..+.+.+.....+...",
".@+.........+...",
"..+.+.+.+.+.+...",
"..+.........+...",
"..+.+.+.+.+.+...",
"..+.........+...",
"..+.+.+.+.+.+...",
"..+.........+...",
"..+++++++++++...",
"................",
"................"};
