/* XPM */
static char *vlc_xmas[] = {
/* columns rows colors chars-per-pixel */
"16 16 123 2 ",
"   c #9A0606",
".  c #A90000",
"X  c #B50000",
"o  c #B60403",
"O  c #BA0000",
"+  c #B30808",
"@  c #B01C1D",
"#  c #A83B00",
"$  c #B52324",
"%  c #CB0000",
"&  c #DB1313",
"*  c #DE191A",
"=  c #EA0000",
"-  c #F10100",
";  c #F60000",
":  c #F91918",
">  c #DD201F",
",  c #ED292A",
"<  c #9D4212",
"1  c #AE4302",
"2  c #B14300",
"3  c #B64E00",
"4  c #B04F12",
"5  c #D35400",
"6  c #D75A00",
"7  c #D95A00",
"8  c #DF6100",
"9  c #DF6300",
"0  c #E26000",
"q  c #E76300",
"w  c #E16600",
"e  c #E16F00",
"r  c #E76D00",
"t  c #EB6A00",
"y  c #EC6E00",
"u  c #EF6F00",
"i  c #F16F00",
"p  c #E47000",
"a  c #E97200",
"s  c #EC7201",
"d  c #EB7400",
"f  c #EE7700",
"g  c #EC7800",
"h  c #E1700E",
"j  c #EB7B0E",
"k  c #F57C00",
"l  c #F47F00",
"z  c #E17C2B",
"x  c #936348",
"c  c #A36E45",
"v  c #E37071",
"b  c #E18401",
"n  c #E58801",
"m  c #E78B01",
"M  c #E68C01",
"N  c #E88901",
"B  c #E98A01",
"V  c #E98B01",
"C  c #E98E01",
"Z  c #FB8700",
"A  c #F48800",
"S  c #F78F00",
"D  c #FB8900",
"F  c #FC8A00",
"G  c #FC8D00",
"H  c #FE8C00",
"J  c #E69001",
"K  c #E99001",
"L  c #F69203",
"P  c #FE9000",
"I  c #FA9E03",
"U  c #FD9E00",
"Y  c #FDA000",
"T  c #FEA300",
"R  c #FEA900",
"E  c #FEA801",
"W  c #FFB301",
"Q  c #E5842C",
"!  c #E0975A",
"~  c #E3A05A",
"^  c #DEA168",
"/  c #D2A372",
"(  c #D3A677",
")  c #979797",
"_  c #BA8585",
"`  c #ABA199",
"'  c #A3A3A1",
"]  c #A2A7AA",
"[  c #B8ADA2",
"{  c #B0B4B6",
"}  c #EDD0B6",
"|  c #BEC3C6",
" . c #BBC6CF",
".. c #C6CACD",
"X. c #C4CDD3",
"o. c #C4CED4",
"O. c #C7CFD6",
"+. c #C8CED2",
"@. c #CAD0D4",
"#. c #F5DCC7",
"$. c #EFD5D6",
"%. c #EAD9D2",
"&. c #FDEFDF",
"*. c #E7E4E5",
"=. c #EBE8E9",
"-. c #EFEFEF",
";. c #F1E3E4",
":. c #F4E3E4",
">. c #F3F3F3",
",. c #F4F2F3",
"<. c #F4F3F3",
"1. c #F6F5F6",
"2. c #FEF3F3",
"3. c #F8F6F6",
"4. c #F8F6F7",
"5. c #F8F7F8",
"6. c #FAF8F8",
"7. c #FAF8F9",
"8. c #FAF9FA",
"9. c #F9FBFB",
"0. c gray98",
"q. c white",
"w. c None",
/* pixels */
"w.w.w.w.w.w.w.w.w., * & w.q.w.w.",
"w.w.w.w.w.w.w.@ O % X . _ -.<.w.",
"w.w.w.w.w.w.$ o - ;   w.q.=.*.w.",
"w.w.w.w.w.2.v > : = + w.q.0.w.w.",
"w.w.w.w.w.5.9.7.:.$.;.>.w.w.w.w.",
"w.w.w.w.w.5.1.8.6.,.3.4.w.w.w.w.",
"w.w.w.w.w.w.^ } &.#.%.w.w.w.w.w.",
"w.w.w.w.w.w.e i k w w.w.w.w.w.w.",
"w.w.w.w.w.3 p u l a 1 w.w.w.w.w.",
"w.w.w.w.w.' ( ! ~ / ) w.w.w.w.w.",
"w.w.w.w.c { ..+.@.| ] x w.w.w.w.",
"w.w.w.s 4 [ o.X.O. .` < 5 w.w.w.",
"w.w.w.f 2 6 h z Q j 7 # 9 w.w.w.",
"w.w.L A d 8 0 q t y r g S I w.w.",
"w.w.E T U F H Z D P G Y R W w.w.",
"w.w.b n M m N B B V C K K J w.w."
};
