/* XPM */
static char *vlc[] = {
/* columns rows colors chars-per-pixel */
"16 16 90 1",
"  c #B04F00",
". c #AD5B01",
"X c #AE5C02",
"o c #AE5B05",
"O c #AE5C05",
"+ c #AD5C06",
"@ c #AE5D0F",
"# c #B05200",
"$ c #B15400",
"% c #B15A00",
"& c #B25A00",
"* c #B25D02",
"= c #B25D03",
"- c #B75F00",
"; c #B15D04",
": c #B25D04",
"> c #B25E04",
", c #B35E04",
"< c #B35F05",
"1 c #AE5E17",
"2 c #AE5E19",
"3 c #AE5F1B",
"4 c #B25F10",
"5 c #BE6700",
"6 c #BF6505",
"7 c #BF6800",
"8 c #B1600B",
"9 c #B4620D",
"0 c #B36110",
"q c #BF6814",
"w c #C36C00",
"e c #C76C00",
"r c #C66D00",
"t c #C76D00",
"y c #D26F00",
"u c #D97500",
"i c #DA7600",
"p c #C26A16",
"a c #DA7D13",
"s c #E17D00",
"d c #E27C00",
"f c #C47126",
"g c #D57A23",
"h c #D57B29",
"j c #D57C29",
"k c #CF7A39",
"l c #D07931",
"z c #BB7445",
"x c #BA7545",
"c c #E78100",
"v c #E98100",
"b c #EB8700",
"n c #EB8C2B",
"m c #EC8C28",
"M c #F99636",
"N c #F7993A",
"B c #C9875C",
"V c #FFB040",
"C c #CB8C65",
"Z c #CD9D82",
"A c #CD9F82",
"S c #C5A492",
"D c #E4AA84",
"F c #E5AD8B",
"G c #CAB3A7",
"H c #CAB4A7",
"J c #CAB6AB",
"K c #D2C5BB",
"L c #D3C7BE",
"P c #E9C0A7",
"I c #ECC7B3",
"U c #D3C8C0",
"Y c #D4CAC3",
"T c #D5CBC4",
"R c #D9CEC6",
"E c #DCD2CB",
"W c #DAD8D2",
"Q c #DBD9D5",
"! c #DADAD6",
"~ c #DADAD7",
"^ c #DBDAD7",
"/ c #EFDBCF",
"( c #EDDBD0",
") c #EEDDD2",
"_ c #EDE3DB",
"` c #FBE7DB",
"' c #FDEADE",
"] c #F8F7F3",
"[ c gray100",
"{ c None",
/* pixels */
"{{{{{{{N{{{{{{{{",
"{{{{{{MVM{{{{{{{",
"{{{{{{nbm{{{{{{{",
"{{{{{{`_'{{{{{{{",
"{{{{{P[][I{{{{{{",
"{{{{{D/)(F{{{{{{",
"{{{{{cuaiv{{{{{{",
"{{{{ydjghsy{{{{{",
"{{{{ACretBZ{{{{{",
"{{{wRQUKLWEf{{{{",
"{{5lY!!^!~Tk7{{{",
"{{q-xSGJHSz-p{{{",
"{864% #$# &069{{",
"{o=.@32123@X;+{{",
"{O,:====>>==*<{{",
"{{{{{{{{{{{{{{{{"
};
