<?xml version="1.0" encoding="UTF-8"?>
<svg width="395px" height="437px" viewBox="0 0 395 437" version="1.1" xmlns="http://www.w3.org/2000/svg" xmlns:xlink="http://www.w3.org/1999/xlink">
    <title>Mask Copy 3</title>
    <defs>
        <path d="M85.3734538,267.176576 C98.5085544,312.261982 178.955033,311.981306 197.18792,312.252768 C237.0812,312.846722 293.61627,304.565872 309.004501,267.16 L308.997108,267.175616 L331.607098,267.176576 C343.683974,267.176576 350.937034,270.950853 353.366277,278.499406 C372.571126,338.764728 382.954953,374.66965 384.51776,386.214174 C386.080566,397.758698 381.087264,404.357333 369.537853,406.01008 C150.765282,405.491208 35.2574102,405.361486 23.0142391,405.620916 C11.1479631,404.330887 7.4565451,395.909975 11.9399851,380.358177 L39.5804872,283.430143 C44.8101139,266.375605 58.269127,267.429831 58.2691289,267.429842 L85.3734538,267.176576 Z" id="path-1"></path>
    </defs>
    <g id="Mask-Copy-3" stroke="none" fill="none">
        <mask id="mask-2" fill="white">
            <use xlink:href="#path-1"></use>
        </mask>
        <use id="Mask-Copy-2" fill="#000000" fill-rule="evenodd" xlink:href="#path-1"></use>
    </g>
</svg>