<?xml version="1.0" encoding="UTF-8" standalone="no"?>
<!DOCTYPE svg PUBLIC "-//W3C//DTD SVG 1.1//EN" "http://www.w3.org/Graphics/SVG/1.1/DTD/svg11.dtd">
<svg width="100%" height="100%" viewBox="0 0 395 437" version="1.1" xmlns="http://www.w3.org/2000/svg" xmlns:xlink="http://www.w3.org/1999/xlink" xml:space="preserve" xmlns:serif="http://www.serif.com/" style="fill-rule:evenodd;clip-rule:evenodd;stroke-linejoin:round;stroke-miterlimit:2;">
    <g id="old-cone" serif:id="old cone" transform="matrix(8.001296,0,0,7.087891,38.502668,69.764404)">
        <path d="M6.412,28.301C6.595,28.301 33.946,28.327 33.946,28.327C33.946,28.327 34.858,28.408 35.382,29.053C35.64,29.37 36.697,32.975 37.704,36.556L37.898,37.248C38.283,38.628 38.654,39.972 38.959,41.088L39.175,41.88C39.512,43.117 39.729,43.924 39.729,43.924C39.729,43.924 39.983,45.855 38.329,45.855L1.586,45.855C1.586,45.855 0,46 0,44.152C0,42.305 4.211,29.274 4.211,29.274L4.241,29.215C4.355,29.004 4.826,28.3 6.004,28.3L6.412,28.301Z" style="fill:rgb(255,120,0);"/>
    </g>
</svg>
