<?xml version="1.0" encoding="UTF-8"?>
<svg width="395px" height="437px" viewBox="0 0 395 437" version="1.1" xmlns="http://www.w3.org/2000/svg" xmlns:xlink="http://www.w3.org/1999/xlink">
    <title>Mask Copy 3</title>
    <defs>
        <path d="M197.319588,230.010599 C232.386677,230.010599 268.679556,225.662901 289.4,203.5 C289.3341,202.002916 295.868933,223.222916 309.004501,267.16 C293.61627,304.565872 237.0812,312.846722 197.18792,312.252768 C178.952854,311.981274 98.4893258,312.262049 85.3713391,267.16 C98.3659595,225.428062 104.954661,204.208062 105.137445,203.5 C122.282059,222.929645 162.252499,230.010599 197.319588,230.010599 Z M148.002585,65.5045618 C138.2478,96.5773232 130.29659,122.205667 124.148955,142.389594 C142.824013,152.642442 167.164266,157.898026 197.169712,158.156346 C227.890473,158.420824 252.937474,155.710398 270.190469,140.982656 C260.98625,111.246563 257.777656,101.126875 246.765313,65.5045618 C215.013183,74.6717254 174.442489,73.6944088 148.002585,65.5045618 Z" id="path-1"></path>
    </defs>
    <g id="Mask-Copy-3" stroke="none" fill="none">
        <mask id="mask-2" fill="white">
            <use xlink:href="#path-1"></use>
        </mask>
        <use id="Mask-Copy" fill="#000000" fill-rule="evenodd" xlink:href="#path-1"></use>
    </g>
</svg>