<?xml version="1.0" encoding="UTF-8"?>
<svg width="395px" height="437px" viewBox="0 0 395 437" version="1.1" xmlns="http://www.w3.org/2000/svg" xmlns:xlink="http://www.w3.org/1999/xlink">
    <title>Mask Copy 3</title>
    <defs>
        <path d="M308.999108,267.169616 L331.607098,267.176576 C343.683974,267.176576 350.937034,270.950853 353.366277,278.499406 C372.571126,338.764728 382.954953,374.66965 384.51776,386.214174 C386.080566,397.758698 381.087264,404.357333 369.537853,406.01008 C150.765282,405.491208 35.2574102,405.361486 23.0142391,405.620916 C11.1479631,404.330887 7.4565451,395.909975 11.9399851,380.358177 L39.5804872,283.430143 C44.8101139,266.375605 58.269127,267.429831 58.2691289,267.429842 L85.3734538,267.176576 C98.5025457,312.262003 178.954352,311.981296 197.18792,312.252768 C237.0812,312.846722 293.61627,304.565872 309.004501,267.16 L308.999108,267.169616 Z M270.07489,141.08104 L289.35942,203.543361 C268.632194,225.668572 232.363795,230.010599 197.319588,230.010599 C162.252499,230.010599 122.282059,222.929645 105.137445,203.5 L105.163108,203.528616 L124.171108,142.398616 L125.294472,142.883844 C148.597394,152.853608 172.555807,157.944442 197.169712,158.156346 C227.821942,158.420234 252.825698,155.722476 270.07489,141.08104 Z M197.714998,0.18861608 C216.553334,0.18861608 227.358189,4.01869189 230.129562,11.6788435 L246.746108,65.5086161 L245.810126,65.7765363 C214.232425,74.6432469 174.252144,73.6144243 148.075272,65.5270478 L164.819838,11.6788435 C167.911608,4.01869189 178.876662,0.18861608 197.714998,0.18861608 Z" id="path-1"></path>
    </defs>
    <g id="Mask-Copy-3" stroke="none" fill="none">
        <mask id="mask-2" fill="white">
            <use xlink:href="#path-1"></use>
        </mask>
        <use id="Mask" fill="#000000" fill-rule="evenodd" xlink:href="#path-1"></use>
    </g>
</svg>