<svg height="33" viewBox="0 0 22 33" width="22" xmlns="http://www.w3.org/2000/svg"><path d="m74.8154288 80.3936204c3.2149532 0 5.4280374-2.4224299 5.4280374-5.8616822v-9.4056075c0-3.4542056-2.2130842-5.8616823-5.4280374-5.8616823-3.2299066 0-5.4429907 2.4074767-5.4429907 5.8616823v9.4056075c0 3.4392523 2.2130841 5.8616822 5.4429907 5.8616822zm0-2.2280374c-1.9140187 0-3.1850468-1.4205607-3.1850468-3.6336448v-9.4056075c0-2.2130841 1.2710281-3.6336449 3.1850468-3.6336449s3.1700934 1.4205608 3.1700934 3.6336449v9.4056075c0 2.2130841-1.2560747 3.6336448-3.1700934 3.6336448zm6.6691589 13.0990654c.6280373 0 1.1364486-.4934579 1.1364486-1.1214953s-.5084113-1.1364486-1.1364486-1.1364486h-5.5476636v-3.4841121c5.7121495-.4785047 9.5700935-4.575701 9.5700935-10.4523365v-3.035514c0-.6280374-.493458-1.1214953-1.1214954-1.1214953s-1.1364486.4934579-1.1364486 1.1214953v2.9457944c0 5.0990654-3.3196261 8.4785047-8.4336448 8.4785047-5.128972 0-8.4485982-3.3794393-8.4485982-8.4785047v-2.9457944c0-.6280374-.4934579-1.1214953-1.1364486-1.1214953-.6280373 0-1.1214953.4934579-1.1214953 1.1214953v3.035514c0 5.8766355 3.8728972 9.9738318 9.5700935 10.4523365v3.4841121h-5.5476636c-.6280374 0-1.1364486.5084112-1.1364486 1.1364486s.5084112 1.1214953 1.1364486 1.1214953z" fill="#c1438d" transform="translate(-64 -59)"/></svg>