<svg xmlns="http://www.w3.org/2000/svg" width="37" height="32" viewBox="0 0 37 32">
    <g fill="none" fill-rule="evenodd">
        <g fill-rule="nonzero">
            <g>
                <g>
                    <path fill="#BDBDBD" d="M15.984 0c6.793 0 12.689 4.374 14.988 10.417l-2.243 1.604c-1.69-5.432-6.73-9.354-12.745-9.354C8.58 2.667 2.682 8.612 2.682 16c0 3.435 1.27 6.557 3.373 8.91 1.6-1.883 5.223-3.561 9.945-3.561 2.952 0 5.481.662 7.35 1.619l3.072 5.115C23.61 30.517 19.959 32 16 32 7.263 32 0 24.753 0 16 0 7.263 7.247 0 15.984 0zM16 6.965c3.012 0 5.38 2.635 5.38 5.804 0 3.372-2.368 5.945-5.38 5.913-3.012-.031-5.365-2.54-5.38-5.913C10.604 9.6 12.988 6.965 16 6.965z" transform="translate(-702.000000, -324.000000) translate(646.000000, 265.000000) translate(56.000000, 59.000000)"/>
                    <path fill="#F80" d="M29.886 27c1.031 0 2.505-.715 2.505-2.726v-6.482c0-.457.117-.612.552-.708l2.976-.655c.192-.037.302-.177.302-.369v-2.6c0-.317-.243-.508-.545-.45l-3.425.745c-.332.073-.516.265-.516.574l.037 7.92c.014.434-.221.736-.612.817l-1.156.243c-1.356.28-2.004.936-2.004 1.975C28 26.3 28.766 27 29.886 27z" transform="translate(-702.000000, -324.000000) translate(646.000000, 265.000000) translate(56.000000, 59.000000)"/>
                </g>
            </g>
        </g>
    </g>
</svg>
