<svg xmlns="http://www.w3.org/2000/svg" width="32" height="22" viewBox="0 0 32 22">
    <g fill="none" fill-rule="evenodd">
        <g fill="#F80" fill-rule="nonzero">
            <g>
                <path d="M93.561 67.264c3.156 0 5.044-1.836 5.044-4.98V60.5l4.89 4.139c.517.426 1.086.724 1.617.724 1.138 0 1.888-.84 1.888-2.044V49.945c0-1.203-.75-2.044-1.888-2.044-.53 0-1.1.298-1.617.725l-4.89 4.139v-1.772c0-3.156-1.888-4.993-5.044-4.993H80.044C77.031 46 75 47.837 75 50.993v11.292c0 3.143 1.888 4.98 5.044 4.98h13.517zm-.362-1.94H80.407c-2.122 0-3.325-1.1-3.325-3.35V51.29c0-2.237 1.203-3.337 3.325-3.337h12.792c2.108 0 3.324 1.1 3.324 3.337v10.684c0 2.25-1.216 3.35-3.324 3.35zm11.576-2.29c-.116 0-.194-.077-.31-.154l-5.86-4.838v-2.82l5.86-4.837c.116-.09.194-.142.31-.142.155 0 .22.116.22.297v12.184c0 .181-.065.31-.22.31z" transform="translate(-704.000000, -311.000000) translate(629.000000, 265.000000)"/>
            </g>
        </g>
    </g>
</svg>
