<svg xmlns="http://www.w3.org/2000/svg" width="19" height="32" viewBox="0 0 19 32">
    <g fill="none" fill-rule="evenodd">
        <g fill="#F80" fill-rule="nonzero">
            <g>
                <path d="M69.31 91c2.358 0 5.726-1.633 5.726-6.23V69.952c0-1.044.269-1.397 1.262-1.616l6.803-1.499c.438-.084.69-.404.69-.842v-5.944c0-.724-.555-1.161-1.246-1.027l-7.83 1.7c-.757.17-1.178.607-1.178 1.314l.084 18.101c.034.994-.505 1.684-1.397 1.87l-2.644.555c-3.098.64-4.58 2.139-4.58 4.513C65 89.4 66.751 91 69.31 91z" transform="translate(-711.000000, -324.000000) translate(646.000000, 265.000000)"/>
            </g>
        </g>
    </g>
</svg>
