<?xml version="1.0" encoding="UTF-8" standalone="no"?>
<!DOCTYPE svg PUBLIC "-//W3C//DTD SVG 1.1//EN" "http://www.w3.org/Graphics/SVG/1.1/DTD/svg11.dtd">
<svg width="100%" height="100%" viewBox="0 0 395 437" version="1.1" xmlns="http://www.w3.org/2000/svg" xmlns:xlink="http://www.w3.org/1999/xlink" xml:space="preserve" xmlns:serif="http://www.serif.com/" style="fill-rule:evenodd;clip-rule:evenodd;stroke-linejoin:round;stroke-miterlimit:2;">
    <g id="even-stripes" serif:id="even stripes" transform="matrix(0.842965,0,0,0.87926,31.357751,58.025765)">
        <path d="M84.59,265.293C84.613,263.797 84.871,262.294 85.371,260.792C86.42,257.643 87.624,253.922 88.911,249.883C95.781,229.848 104.983,204.096 105.137,203.5L105.163,203.529L106.648,198.753C124.542,216.957 163.245,223.643 197.32,223.643C231.537,223.643 266.922,219.503 287.867,198.711L289.359,203.543L289.4,203.5C289.344,202.239 299.288,229.989 305.797,250.089C307.016,254.139 308.115,257.805 309.005,260.792C309.38,262.052 309.574,263.312 309.595,264.566C309.24,285.795 259.347,305.429 197.188,305.429C130.225,305.429 84.919,286.06 84.59,265.293ZM265.574,126.09C256.657,130.972 234.573,140.415 197.17,140.415C161.859,140.415 138.315,131.47 128.844,127.055C134.183,109.7 140.569,89.183 148.003,65.505L148.075,65.527L153.146,49.22C178.026,55.654 212.836,56.298 241.689,49.125L246.746,65.509L245.81,65.777C246.129,65.687 246.448,65.596 246.765,65.505C255.722,94.479 259.517,106.581 265.574,126.09Z" style="fill:rgb(255,120,0);"/>
    </g>
</svg>
