<svg viewBox="0 0 87 154" xmlns="http://www.w3.org/2000/svg" xmlns:xlink="http://www.w3.org/1999/xlink">
  <defs>
    <rect id="a" width="87" height="154" rx="2"/>
  </defs>
  <g fill-rule="evenodd">
    <mask id="b" fill="#fff">
      <use xlink:href="#a"/>
    </mask>
    <use fill="#222" xlink:href="#a"/>
    <path d="M21.75 63.766v2.406H4.833v-2.406H21.75Zm14.5-4.813v2.406H4.833v-2.406H36.25Zm3.833-38.5a1 1 0 0 1 1 1v34.094a1 1 0 0 1-1 1H5.833a1 1 0 0 1-1-1V21.453a1 1 0 0 1 1-1h34.25Zm22.75 43.313v2.406H45.917v-2.406h16.916Zm14.5-4.813v2.406H45.917v-2.406h31.416Zm3.834-38.5a1 1 0 0 1 1 1v34.094a1 1 0 0 1-1 1h-34.25a1 1 0 0 1-1-1V21.453a1 1 0 0 1 1-1h34.25ZM21.75 114.297v2.406H4.833v-2.406H21.75Zm14.5-4.813v2.407H4.833v-2.407H36.25Zm3.833-38.5a1 1 0 0 1 1 1v34.094a1 1 0 0 1-1 1H5.833a1 1 0 0 1-1-1V71.984a1 1 0 0 1 1-1h34.25Zm22.75 43.313v2.406H45.917v-2.406h16.916Zm14.5-4.813v2.407H45.917v-2.407h31.416Zm3.834-38.5a1 1 0 0 1 1 1v34.094a1 1 0 0 1-1 1h-34.25a1 1 0 0 1-1-1V71.984a1 1 0 0 1 1-1h34.25ZM21.75 164.828v2.406H4.833v-2.406H21.75Zm14.5-4.812v2.406H4.833v-2.406H36.25Zm3.833-38.5a1 1 0 0 1 1 1v34.093a1 1 0 0 1-1 1H5.833a1 1 0 0 1-1-1v-34.093a1 1 0 0 1 1-1h34.25Zm22.75 43.312v2.406H45.917v-2.406h16.916Zm14.5-4.812v2.406H45.917v-2.406h31.416Zm3.834-38.5a1 1 0 0 1 1 1v34.093a1 1 0 0 1-1 1h-34.25a1 1 0 0 1-1-1v-34.093a1 1 0 0 1 1-1h34.25Z" fill="#FFF" fill-opacity=".08" mask="url(#b)"/>
    <path d="M2 0h83a2 2 0 0 1 2 2v12.438H0V2a2 2 0 0 1 2-2Z" fill="#F80"/>
    <ellipse cx="72.5" cy="139.56" rx="7.25" ry="7.219" fill="#F80"/>
  </g>
</svg>

