<svg viewBox="0 0 87 154" xmlns="http://www.w3.org/2000/svg" xmlns:xlink="http://www.w3.org/1999/xlink">
  <defs>
    <rect id="a" width="87" height="154" rx="2.406"/>
    <rect id="c" width="87" height="154" rx="2"/>
    <path id="e" d="M87 .765V152.59a2.41 2.41 0 0 1-2.41 2.41H0L86.626.667A.2.2 0 0 1 87 .765Z"/>
  </defs>
  <g fill="none" fill-rule="evenodd">
    <mask id="b" fill="#fff">
      <use xlink:href="#a"/>
    </mask>
    <use fill="#FFF" xlink:href="#a"/>
    <path d="M21.656 63.766v2.406H4.813v-2.406h16.843Zm14.438-4.813v2.406H4.812v-2.406h31.282Zm3.61-38.5c.664 0 1.202.539 1.202 1.203v33.688c0 .664-.538 1.203-1.203 1.203H6.016a1.203 1.203 0 0 1-1.204-1.203V21.656c0-.664.54-1.203 1.204-1.203h33.687Zm22.859 43.313v2.406H45.718v-2.406h16.843ZM77 58.953v2.406H45.719v-2.406H77Zm3.61-38.5c.664 0 1.203.539 1.203 1.203v33.688c0 .664-.54 1.203-1.204 1.203H46.922a1.203 1.203 0 0 1-1.203-1.203V21.656c0-.664.538-1.203 1.203-1.203h33.687Zm-58.954 93.844v2.406H4.813v-2.406h16.843Zm14.438-4.813v2.407H4.812v-2.407h31.282Zm3.61-38.5c.664 0 1.202.539 1.202 1.204v33.687c0 .664-.538 1.203-1.203 1.203H6.016a1.203 1.203 0 0 1-1.204-1.203V72.187c0-.664.54-1.203 1.204-1.203h33.687Zm22.859 43.313v2.406H45.718v-2.406h16.843ZM77 109.484v2.407H45.719v-2.407H77Zm3.61-38.5c.664 0 1.203.539 1.203 1.204v33.687c0 .664-.54 1.203-1.204 1.203H46.922a1.203 1.203 0 0 1-1.203-1.203V72.187c0-.664.538-1.203 1.203-1.203h33.687Zm-58.954 93.844v2.406H4.813v-2.406h16.843Zm14.438-4.812v2.406H4.812v-2.406h31.282Zm3.61-38.5c.664 0 1.202.538 1.202 1.203v33.687c0 .665-.538 1.203-1.203 1.203H6.016a1.203 1.203 0 0 1-1.204-1.203V122.72c0-.665.54-1.203 1.204-1.203h33.687Zm22.859 43.312v2.406H45.718v-2.406h16.843ZM77 160.016v2.406H45.719v-2.406H77Zm3.61-38.5c.664 0 1.203.538 1.203 1.203v33.687c0 .665-.54 1.203-1.204 1.203H46.922a1.203 1.203 0 0 1-1.203-1.203V122.72c0-.665.538-1.203 1.203-1.203h33.687Z" fill="#000" fill-opacity=".12" mask="url(#b)"/>
    <path d="M2.406 0h82.188A2.406 2.406 0 0 1 87 2.406v12.031H0V2.408A2.406 2.406 0 0 1 2.406 0Z" fill="#FF610A" mask="url(#b)"/>
    <mask id="d" fill="#fff">
      <use xlink:href="#c"/>
    </mask>
    <g mask="url(#d)">
      <g transform="translate(0 -1)">
        <mask id="f" fill="#fff">
          <use xlink:href="#e"/>
        </mask>
        <use fill="#222" xlink:href="#e"/>
        <path d="M21.656 64.766v2.406H4.813v-2.406h16.843Zm14.438-4.813v2.406H4.812v-2.406h31.282Zm3.61-38.5c.664 0 1.202.539 1.202 1.203v33.688c0 .664-.538 1.203-1.203 1.203H6.016a1.203 1.203 0 0 1-1.204-1.203V22.656c0-.664.54-1.203 1.204-1.203h33.687Zm22.859 43.313v2.406H45.718v-2.406h16.843ZM77 59.953v2.406H45.719v-2.406H77Zm3.61-38.5c.664 0 1.203.539 1.203 1.203v33.688c0 .664-.54 1.203-1.204 1.203H46.922a1.203 1.203 0 0 1-1.203-1.203V22.656c0-.664.538-1.203 1.203-1.203h33.687Zm-58.954 93.844v2.406H4.813v-2.406h16.843Zm14.438-4.813v2.407H4.812v-2.407h31.282Zm3.61-38.5c.664 0 1.202.539 1.202 1.204v33.687c0 .664-.538 1.203-1.203 1.203H6.016a1.203 1.203 0 0 1-1.204-1.203V73.187c0-.664.54-1.203 1.204-1.203h33.687Zm22.859 43.313v2.406H45.718v-2.406h16.843ZM77 110.484v2.407H45.719v-2.407H77Zm3.61-38.5c.664 0 1.203.539 1.203 1.204v33.687c0 .664-.54 1.203-1.204 1.203H46.922a1.203 1.203 0 0 1-1.203-1.203V73.187c0-.664.538-1.203 1.203-1.203h33.687Zm-58.954 93.844v2.406H4.813v-2.406h16.843Zm14.438-4.812v2.406H4.812v-2.406h31.282Zm3.61-38.5c.664 0 1.202.538 1.202 1.203v33.687c0 .665-.538 1.203-1.203 1.203H6.016a1.203 1.203 0 0 1-1.204-1.203V123.72c0-.665.54-1.203 1.204-1.203h33.687Zm22.859 43.312v2.406H45.718v-2.406h16.843ZM77 161.016v2.406H45.719v-2.406H77Zm3.61-38.5c.664 0 1.203.538 1.203 1.203v33.687c0 .665-.54 1.203-1.204 1.203H46.922a1.203 1.203 0 0 1-1.203-1.203V123.72c0-.665.538-1.203 1.203-1.203h33.687Z" fill="#FFF" fill-opacity=".08" mask="url(#f)"/>
        <path d="M2.406 1h82.188A2.406 2.406 0 0 1 87 3.406v12.031H0V3.408A2.406 2.406 0 0 1 2.406 1Z" fill="#F80" mask="url(#f)"/>
      </g>
    </g>
    <circle cx="72.188" cy="139.56" r="7.219" fill="#F80" mask="url(#d)"/>
  </g>
</svg>

