<?xml version="1.0" encoding="UTF-8"?>
<svg width="87px" height="154px" viewBox="0 0 87 154" version="1.1" xmlns="http://www.w3.org/2000/svg" xmlns:xlink="http://www.w3.org/1999/xlink">
    <title>Theme - light@3x</title>
    <defs>
        <rect id="path-1" x="0" y="0" width="87" height="154" rx="2.40625"></rect>
    </defs>
    <g id="Theme---light" stroke="none" stroke-width="1" fill="none" fill-rule="evenodd">
        <g id="phone-light-theme">
            <g id="Combined-Shape-+-Combined-Shape-Copy-+-Combined-Shape-Copy-2-+-Combined-Shape-Copy-3-+-Combined-Shape-Copy-4-+-Combined-Shape-Copy-5-Mask">
                <mask id="mask-2" fill="white">
                    <use xlink:href="#path-1"></use>
                </mask>
                <use id="Mask" fill="#FFFFFF" xlink:href="#path-1"></use>
                <path d="M21.65625,63.765625 L21.65625,66.171875 L4.8125,66.171875 L4.8125,63.765625 L21.65625,63.765625 Z M36.09375,58.953125 L36.09375,61.359375 L4.8125,61.359375 L4.8125,58.953125 L36.09375,58.953125 Z M39.703125,20.453125 C40.3675926,20.453125 40.90625,20.9917824 40.90625,21.65625 L40.90625,55.34375 C40.90625,56.0082176 40.3675926,56.546875 39.703125,56.546875 L6.015625,56.546875 C5.35115741,56.546875 4.8125,56.0082176 4.8125,55.34375 L4.8125,21.65625 C4.8125,20.9917824 5.35115741,20.453125 6.015625,20.453125 L39.703125,20.453125 Z" id="Combined-Shape" fill-opacity="0.12" fill="#000000" mask="url(#mask-2)"></path>
                <path d="M62.5625,63.765625 L62.5625,66.171875 L45.71875,66.171875 L45.71875,63.765625 L62.5625,63.765625 Z M77,58.953125 L77,61.359375 L45.71875,61.359375 L45.71875,58.953125 L77,58.953125 Z M80.609375,20.453125 C81.2738426,20.453125 81.8125,20.9917824 81.8125,21.65625 L81.8125,55.34375 C81.8125,56.0082176 81.2738426,56.546875 80.609375,56.546875 L46.921875,56.546875 C46.2574074,56.546875 45.71875,56.0082176 45.71875,55.34375 L45.71875,21.65625 C45.71875,20.9917824 46.2574074,20.453125 46.921875,20.453125 L80.609375,20.453125 Z" id="Combined-Shape-Copy" fill-opacity="0.12" fill="#000000" mask="url(#mask-2)"></path>
                <path d="M21.65625,114.296875 L21.65625,116.703125 L4.8125,116.703125 L4.8125,114.296875 L21.65625,114.296875 Z M36.09375,109.484375 L36.09375,111.890625 L4.8125,111.890625 L4.8125,109.484375 L36.09375,109.484375 Z M39.703125,70.984375 C40.3675926,70.984375 40.90625,71.5230324 40.90625,72.1875 L40.90625,105.875 C40.90625,106.539468 40.3675926,107.078125 39.703125,107.078125 L6.015625,107.078125 C5.35115741,107.078125 4.8125,106.539468 4.8125,105.875 L4.8125,72.1875 C4.8125,71.5230324 5.35115741,70.984375 6.015625,70.984375 L39.703125,70.984375 Z" id="Combined-Shape-Copy-2" fill-opacity="0.12" fill="#000000" mask="url(#mask-2)"></path>
                <path d="M62.5625,114.296875 L62.5625,116.703125 L45.71875,116.703125 L45.71875,114.296875 L62.5625,114.296875 Z M77,109.484375 L77,111.890625 L45.71875,111.890625 L45.71875,109.484375 L77,109.484375 Z M80.609375,70.984375 C81.2738426,70.984375 81.8125,71.5230324 81.8125,72.1875 L81.8125,105.875 C81.8125,106.539468 81.2738426,107.078125 80.609375,107.078125 L46.921875,107.078125 C46.2574074,107.078125 45.71875,106.539468 45.71875,105.875 L45.71875,72.1875 C45.71875,71.5230324 46.2574074,70.984375 46.921875,70.984375 L80.609375,70.984375 Z" id="Combined-Shape-Copy-3" fill-opacity="0.12" fill="#000000" mask="url(#mask-2)"></path>
                <path d="M21.65625,164.828125 L21.65625,167.234375 L4.8125,167.234375 L4.8125,164.828125 L21.65625,164.828125 Z M36.09375,160.015625 L36.09375,162.421875 L4.8125,162.421875 L4.8125,160.015625 L36.09375,160.015625 Z M39.703125,121.515625 C40.3675926,121.515625 40.90625,122.054282 40.90625,122.71875 L40.90625,156.40625 C40.90625,157.070718 40.3675926,157.609375 39.703125,157.609375 L6.015625,157.609375 C5.35115741,157.609375 4.8125,157.070718 4.8125,156.40625 L4.8125,122.71875 C4.8125,122.054282 5.35115741,121.515625 6.015625,121.515625 L39.703125,121.515625 Z" id="Combined-Shape-Copy-4" fill-opacity="0.12" fill="#000000" mask="url(#mask-2)"></path>
                <path d="M62.5625,164.828125 L62.5625,167.234375 L45.71875,167.234375 L45.71875,164.828125 L62.5625,164.828125 Z M77,160.015625 L77,162.421875 L45.71875,162.421875 L45.71875,160.015625 L77,160.015625 Z M80.609375,121.515625 C81.2738426,121.515625 81.8125,122.054282 81.8125,122.71875 L81.8125,156.40625 C81.8125,157.070718 81.2738426,157.609375 80.609375,157.609375 L46.921875,157.609375 C46.2574074,157.609375 45.71875,157.070718 45.71875,156.40625 L45.71875,122.71875 C45.71875,122.054282 46.2574074,121.515625 46.921875,121.515625 L80.609375,121.515625 Z" id="Combined-Shape-Copy-5" fill-opacity="0.12" fill="#000000" mask="url(#mask-2)"></path>
            </g>
            <path d="M2.40625,0 L84.59375,0 C85.9226852,-2.44121432e-16 87,1.07731482 87,2.40625 L87,14.4375 L87,14.4375 L0,14.4375 L0,2.40625 C-1.62747621e-16,1.07731482 1.07731482,2.44121432e-16 2.40625,0 Z" id="Rectangle" fill="#FF610A"></path>
            <circle id="Oval" fill="#FF610A" cx="72.1875" cy="139.5625" r="7.21875"></circle>
        </g>
    </g>
</svg>